<svg width="98" height="16" viewBox="0 0 98 16" fill="none" xmlns="http://www.w3.org/2000/svg">
<path fill-rule="evenodd" clip-rule="evenodd" d="M55.567 0.148438C55.5299 3.10867 55.3279 4.77251 54.2178 5.88278C53.1077 6.99306 51.4443 7.1951 48.4844 7.2319V7.66956C51.4443 7.70636 53.1077 7.90841 54.2178 9.01868C55.3279 10.129 55.5299 11.7928 55.567 14.753H56.0044C56.0415 11.7928 56.2435 10.129 57.3536 9.01868C58.4637 7.90841 60.1272 7.70631 63.0875 7.66956V7.2319C60.1272 7.1951 58.4637 6.99306 57.3536 5.88278C56.2435 4.77251 56.0415 3.10867 56.0044 0.148438H55.567Z" fill="url(#paint0_linear_163_4259)"/>
<path d="M5.90248 12.9283H7.81667V1.93225H5.03234C2.23222 1.93225 0.760921 3.37203 0.760921 5.49212C0.760921 7.18501 1.56774 8.1818 3.00737 9.21021L0.507812 12.9283H2.58027L5.3646 8.76717L4.39956 8.11852C3.22887 7.32744 2.65933 6.71036 2.65933 5.38135C2.65933 4.21056 3.48198 3.41948 5.04817 3.41948H5.90248V12.9283ZM42.8107 13.0865C43.6807 13.0865 44.2978 12.9283 44.7566 12.596V11.0613C44.2821 11.3936 43.7126 11.5993 42.9215 11.5993C41.5766 11.5993 41.0232 10.555 41.0232 8.9096C41.0232 7.18501 41.7035 6.29903 42.9372 6.29903C43.665 6.29903 44.3767 6.55214 44.7566 6.78947V5.19152C44.361 4.96998 43.665 4.81176 42.7318 4.81176C40.3272 4.81176 39.0773 6.53636 39.0773 8.95705C39.0773 11.6151 40.2953 13.0865 42.8107 13.0865ZM31.0406 12.3904V10.8556C30.4552 11.2512 29.4744 11.5993 28.5568 11.5993C27.1805 11.5993 26.6584 10.9506 26.5793 9.62158H31.1197V8.62479C31.1197 5.856 29.9015 4.81176 28.0189 4.81176C25.725 4.81176 24.6334 6.56797 24.6334 8.97288C24.6334 11.7417 25.994 13.0865 28.3986 13.0865C29.6009 13.0865 30.4869 12.7701 31.0406 12.3904ZM13.7967 4.96998V8.11852H11.2813V4.96998H9.39869V12.9283H11.2813V9.60575H13.7967V12.9283H15.6793V4.96998H13.7967ZM24.1747 11.4411H23.3362V4.96998H17.8466V5.65034C17.8466 7.59638 17.7201 10.112 17.0556 11.4411H16.4703V14.7478H18.2105V12.9283H22.4345V14.7478H24.1747V11.4411ZM37.0522 12.9283H39.1881L36.1663 8.64062L38.8239 4.96998H36.9256L34.2679 8.64062V4.96998H32.3853V12.9283H34.2679V9.02033L37.0522 12.9283ZM27.9873 6.29903C28.9207 6.29903 29.2055 7.07428 29.2055 8.07103V8.22924H26.5793C26.6268 6.96351 27.0856 6.29903 27.9873 6.29903ZM21.4536 11.4411H18.7958C19.3179 10.2386 19.4603 8.07103 19.4603 6.69457V6.45725H21.4536V11.4411Z" fill="url(#paint1_linear_163_4259)"/>
<path d="M68.1176 15.221V12.9268H74.0027V15.221H75.7907V11.4396H74.7624V1.93079H68.0387L67.849 7.38925C67.7858 9.16129 67.5956 10.601 67.0893 11.4396H66.3301V15.221H68.1176ZM69.5258 7.64241L69.6679 3.41801H72.8479V11.4396H68.893C69.2253 10.696 69.4626 9.4144 69.5258 7.64241Z" fill="url(#paint2_linear_163_4259)"/>
<path d="M79.0023 11.5985C78.0373 11.5985 77.0883 11.2504 76.582 10.8707V12.4054C76.9457 12.706 77.8633 13.0857 79.2239 13.0857C81.233 13.0857 82.2931 12.1839 82.2931 10.5859C82.2931 9.65242 81.7079 9.01955 80.6634 8.79806C81.6447 8.48163 82.0559 7.78548 82.0559 6.89946C82.0559 5.55462 80.9957 4.81104 79.2871 4.81104C78.0534 4.81104 77.2467 5.19075 76.7879 5.47552V7.01023C77.2937 6.67797 77.9902 6.29826 79.0185 6.29826C79.7145 6.29826 80.1576 6.63052 80.1576 7.2159C80.1576 7.83293 79.7777 8.16519 79.0023 8.16519H77.8162V9.58914H79.0023C79.9674 9.58914 80.3473 9.87396 80.3473 10.5701C80.3473 11.203 79.8885 11.5985 79.0023 11.5985Z" fill="url(#paint3_linear_163_4259)"/>
<path d="M89.4169 12.3896V10.8549C88.8312 11.2504 87.8504 11.5985 86.9328 11.5985C85.5565 11.5985 85.0345 10.9498 84.9556 9.6208H89.4958V8.62401C89.4958 5.85523 88.2778 4.81104 86.3952 4.81104C84.1013 4.81104 83.0098 6.5672 83.0098 8.97211C83.0098 11.7409 84.3699 13.0857 86.775 13.0857C87.9773 13.0857 88.863 12.7693 89.4169 12.3896ZM86.3633 6.29826C87.297 6.29826 87.5818 7.07351 87.5818 8.07026V8.22847H84.9556C85.0032 6.96274 85.4619 6.29826 86.3633 6.29826Z" fill="url(#paint4_linear_163_4259)"/>
<path d="M95.1539 4.96973V8.11822H92.6385V4.96973H90.7559V12.928H92.6385V9.60545H95.1539V12.928H97.0365V4.96973H95.1539Z" fill="url(#paint5_linear_163_4259)"/>
<defs>
<linearGradient id="paint0_linear_163_4259" x1="48.4844" y1="7.45073" x2="63.0875" y2="7.45073" gradientUnits="userSpaceOnUse">
<stop stop-color="#F7941D"/>
<stop offset="1" stop-color="#27AAE1"/>
</linearGradient>
<linearGradient id="paint1_linear_163_4259" x1="0.507813" y1="8.34001" x2="44.7566" y2="8.34002" gradientUnits="userSpaceOnUse">
<stop stop-color="#F7941D"/>
<stop offset="1" stop-color="#27AAE1"/>
</linearGradient>
<linearGradient id="paint2_linear_163_4259" x1="66.3301" y1="8.57587" x2="75.7907" y2="8.57587" gradientUnits="userSpaceOnUse">
<stop stop-color="#F7941D"/>
<stop offset="1" stop-color="#27AAE1"/>
</linearGradient>
<linearGradient id="paint3_linear_163_4259" x1="76.582" y1="8.94838" x2="82.2931" y2="8.94838" gradientUnits="userSpaceOnUse">
<stop stop-color="#F7941D"/>
<stop offset="1" stop-color="#27AAE1"/>
</linearGradient>
<linearGradient id="paint4_linear_163_4259" x1="83.0098" y1="8.94838" x2="89.4958" y2="8.94838" gradientUnits="userSpaceOnUse">
<stop stop-color="#F7941D"/>
<stop offset="1" stop-color="#27AAE1"/>
</linearGradient>
<linearGradient id="paint5_linear_163_4259" x1="90.7559" y1="8.94886" x2="97.0365" y2="8.94886" gradientUnits="userSpaceOnUse">
<stop stop-color="#F7941D"/>
<stop offset="1" stop-color="#27AAE1"/>
</linearGradient>
</defs>
</svg>
