<svg id="Layer_1" data-name="Layer 1" xmlns="http://www.w3.org/2000/svg" viewBox="0 0 80.25 91.9"><defs><style>.cls-1{fill:#fff;}</style></defs><title>Элементы</title><path d="M27.91,41.32a50.73,50.73,0,0,1,.83-5.42,5.41,5.41,0,0,1,3.64-4,1.9,1.9,0,0,0,.87-.92,3.78,3.78,0,0,1,3.13-2.34c5.41-.48,10,1,13.18,5.75a9.61,9.61,0,0,1,1.53,6.9h3.23c2.34,0,4.69,0,7,0,2.78,0,4.24,1.52,4.24,4.29q0,10.34,0,20.68a1.89,1.89,0,0,1,0,.83.83.83,0,0,1-.08.12.76.76,0,0,1-1.26-.08l0-.09a3.47,3.47,0,0,1,0-1.12V46c0-2.73-1-3.28-4.44-3a47,47,0,0,1-7.6-.05,1.91,1.91,0,0,0-2,.87A17.77,17.77,0,0,0,47.3,49a9.22,9.22,0,0,1-1.95,2.7c-.86,1-.76,1.6.46,2a12.36,12.36,0,0,1,9.1,12.24c0,2.71,0,5.41,0,8.26,3.72,0,7.27,0,10.82,0,3,0,2.57-.4,2.73,2.71.24,4.78-1.23,6.09-6,6.05-15.47-.12-30.94,0-46.42,0-3.12,0-4.51-1.39-4.52-4.54,0-4.18,0-4.18,4.19-4.18H25c0-1.72,0-3.34,0-5a33.19,33.19,0,0,1,.2-5.74c.95-5,4-8.22,8.84-9.77,1.29-.42,1.49-1,.51-1.92-1.43-1.32-2-3.05-2.83-4.75S29.5,44.24,28.27,43c-.2-.21-.81,0-1.23,0H18.59c-2,0-2.81.82-2.82,2.81q0,10.14,0,20.26a3.41,3.41,0,0,1,0,1.11l-.05.1a.76.76,0,0,1-1.3,0l0-.06a2.06,2.06,0,0,1,0-.83V45.74c0-3,1.44-4.39,4.4-4.42S24.88,41.32,27.91,41.32ZM67,75.78h-54v1.53c0,3.63.44,4.08,4,4.08H63.09c.52,0,1,0,1.55,0A2.35,2.35,0,0,0,67,78.86C67,77.88,67,76.89,67,75.78ZM48.12,43.89a7.46,7.46,0,0,0-.15-9.1c-2.71-3.67-6.47-4.86-10.86-4.6a2.44,2.44,0,0,0-2.59,2.06,1.63,1.63,0,0,1-1,1,3.8,3.8,0,0,0-3.19,2.8,10.34,10.34,0,0,0-.15,6.48,8.18,8.18,0,0,0,1.22,1.94l.38-.2c0-2.48,0-5,0-7.43a7.83,7.83,0,0,1,.41-1.67,7.25,7.25,0,0,1,1.53.75c2.49,2,5,4,8.37,4.25a20.73,20.73,0,0,0,4.29-.37c1.43-.19,1.75,0,1.77,1.33C48.13,42,48.12,42.72,48.12,43.89Zm-1.31-2.53c-5.35,1.31-9.64-.37-13.59-3.71,0,2.93-.08,5.56,0,8.17a6.72,6.72,0,0,0,5.85,6.38,6.51,6.51,0,0,0,7.14-4.63A41.77,41.77,0,0,0,46.81,41.36ZM35,55.12a11.25,11.25,0,0,0-8.38,13.6H31a25.43,25.43,0,0,1,0-2.78c.05-.37.44-.69.68-1A4.61,4.61,0,0,1,32.51,66a3.71,3.71,0,0,1,0,1.25v6.86h6a12,12,0,0,0-1.22-1.73c-1.18-1.15-1.2-2.46-.89-4,.53-2.56.91-5.15,1.31-7.73,0-.35,0-.93-.25-1.08A5.39,5.39,0,0,1,35,55.12Zm18.3,13.64c.86-7-2.73-12.76-8.38-13.58-.49,2.13-.5,2.12-2.45,4.35a1.62,1.62,0,0,0-.17,1.13c.42,3,.93,5.91,1.3,8.87a3.82,3.82,0,0,1-.5,2,25.52,25.52,0,0,1-1.71,2.52H47.3c0-2.28,0-4.48,0-6.67,0-.81-.62-2.25.8-2.25,1.27,0,.61,1.39.76,2.18A12.51,12.51,0,0,1,49,68.76ZM40,73.25c.67-.92,1.33-1.75,1.9-2.65a1.84,1.84,0,0,0,.2-1.18c-.39-2.68-.81-5.35-1.29-8-.08-.44-.5-.81-.76-1.21-.31.43-.8.82-.9,1.29a52.09,52.09,0,0,1-1,5.65A5.42,5.42,0,0,0,39.73,73Zm3.24-20a25.14,25.14,0,0,1-3.35.46,24.09,24.09,0,0,1-3.25-.42c-.3,3.41.88,5.34,3.29,5.38S43.48,56.81,43.26,53.26ZM26.53,74.05h4.33v-3.6H26.53Zm22.43,0h4.39V70.49H49Z"/><path d="M10.22,38.22a18.25,18.25,0,0,1,.51-3,2.34,2.34,0,0,0-1-2.88,11.87,11.87,0,0,1-1.59-1.58c-.28-.33-.67-1-.55-1.14a2.51,2.51,0,0,1,1.23-.69,3,3,0,0,1,1.11-.14c2.2.11,3.43-1,4-3a2.56,2.56,0,0,1,.42-.88,12.2,12.2,0,0,1,1-1c.34.34.88.61,1,1a5.14,5.14,0,0,0,5.71,4.12c.39,0,1.09.33,1.12.58a1.54,1.54,0,0,1-.55,1.26c-2.34,1.69-3.29,3.75-2.19,6.59.16.42-.15,1-.25,1.55-.48-.1-1.07-.06-1.41-.33-2.34-1.88-4.6-1.74-6.9.06a1.79,1.79,0,0,1-1.29.25C10.41,38.83,10.27,38.32,10.22,38.22ZM10,30.35c2.6,1.59,3,3.74,2.14,6.47,2.32-2,4.47-1.82,6.81,0-1.34-2.84-.41-4.85,2-6.53-3,.2-4.71-1.16-5.51-4C14.72,29.29,12.87,30.4,10,30.35Z"/><path d="M59.36,37.63a9,9,0,0,1,.3-1.59c.66-1.85,0-3.17-1.46-4.34a10.56,10.56,0,0,1-1.62-2.14,8.1,8.1,0,0,1,2.54-.79c2.38.08,3.27-1.42,4-3.27a8.62,8.62,0,0,1,1.27-1.71c.47.57,1.19,1.07,1.37,1.72.69,2.6,2.55,3.27,4.91,3.36a5.48,5.48,0,0,1,1.62.59c-.27.5-.4,1.2-.81,1.47-2.44,1.61-2.84,3.76-2,6.38a4,4,0,0,1-.14,1.55c-.51-.1-1.16,0-1.53-.34-2.3-1.86-4.47-1.59-6.78.06C59.85,39.42,59.32,39.08,59.36,37.63ZM64.68,26c-.85,1.54-1.18,2.86-2,3.47s-2.27.57-3.84.9c2.77,1.54,3.33,3.66,2.27,6.44,2.3-1.94,4.46-1.91,6.76.15-.18-1.56-.69-2.87-.35-3.9s1.51-1.8,2.57-3C67,30.42,65.2,29.29,64.68,26Z"/><path d="M34.84,24.77a11.79,11.79,0,0,1,.37-2.19,2.68,2.68,0,0,0-1.15-3.37,8.25,8.25,0,0,1-1.39-1.38c-.27-.34-.63-.87-.53-1.16s.71-.5,1.12-.64a4.41,4.41,0,0,1,1.25-.15,3.65,3.65,0,0,0,3.91-2.81,9.48,9.48,0,0,1,1.51-2.2c.53.72,1.07,1.43,1.57,2.17a5.83,5.83,0,0,1,.62,1.25A1.8,1.8,0,0,0,44,15.65a19.6,19.6,0,0,1,3,.47c1,.21,1.09.8.44,1.5a28.83,28.83,0,0,0-2.27,2.29,3.37,3.37,0,0,0-.59,1.95c0,1.07.34,2.12.47,3.19s-.56,1.4-1.26.86c-2.6-2-5.06-2-7.69,0C35.28,26.52,34.78,26.06,34.84,24.77Zm1.75-.89c2.31-1.84,4.46-1.78,6.81.06-1.25-2.82-.39-4.85,2-6.52-3,.18-4.7-1.15-5.53-4-.67,3-2.57,4-5.49,4.06C37.12,19,37.52,21.15,36.59,23.88Z"/><path class="cls-1" d="M67,75.78c0,1.11,0,2.1,0,3.08a2.35,2.35,0,0,1-2.31,2.5c-.51,0-1,0-1.55,0H17c-3.57,0-4-.45-4-4.08V75.78Z"/><path class="cls-1" d="M48.12,43.89c0-1.17,0-1.94,0-2.72,0-1.33-.34-1.52-1.77-1.33a20.73,20.73,0,0,1-4.29.37C38.73,39.94,36.18,38,33.69,36a7.25,7.25,0,0,0-1.53-.75,7.83,7.83,0,0,0-.41,1.67c0,2.47,0,4.95,0,7.43l-.38.2a8.18,8.18,0,0,1-1.22-1.94,10.34,10.34,0,0,1,.15-6.48,3.8,3.8,0,0,1,3.19-2.8,1.63,1.63,0,0,0,1-1,2.44,2.44,0,0,1,2.59-2.06c4.39-.26,8.15.93,10.86,4.6A7.46,7.46,0,0,1,48.12,43.89Z"/><path class="cls-1" d="M46.81,41.36a41.77,41.77,0,0,1-.58,6.21,6.51,6.51,0,0,1-7.14,4.63,6.72,6.72,0,0,1-5.85-6.38c-.1-2.61,0-5.24,0-8.17C37.17,41,41.46,42.67,46.81,41.36Z"/><path class="cls-1" d="M35,55.12a5.39,5.39,0,0,0,2.44,4.44c.23.15.3.73.25,1.08-.4,2.58-.78,5.17-1.31,7.73-.31,1.51-.29,2.82.89,4a12,12,0,0,1,1.22,1.73h-6V67.21a3.71,3.71,0,0,0,0-1.25,4.61,4.61,0,0,0-.84-1.06c-.24.35-.63.67-.68,1a25.43,25.43,0,0,0,0,2.78H26.64A11.25,11.25,0,0,1,35,55.12Z"/><path class="cls-1" d="M53.32,68.76H49a12.51,12.51,0,0,0-.08-1.42c-.15-.79.51-2.18-.76-2.18-1.42,0-.77,1.44-.8,2.25-.09,2.19,0,4.39,0,6.67H41.41a25.52,25.52,0,0,0,1.71-2.52,3.82,3.82,0,0,0,.5-2c-.37-3-.88-5.91-1.3-8.87a1.62,1.62,0,0,1,.17-1.13c1.95-2.23,2-2.22,2.45-4.35C50.59,56,54.18,61.76,53.32,68.76Z"/><path class="cls-1" d="M40,73.25,39.73,73a5.42,5.42,0,0,1-1.57-5.91,52.09,52.09,0,0,0,1-5.65c.1-.47.59-.86.9-1.29.26.4.68.77.76,1.21.48,2.67.9,5.34,1.29,8a1.84,1.84,0,0,1-.2,1.18C41.35,71.5,40.69,72.33,40,73.25Z"/><path class="cls-1" d="M43.26,53.26c.22,3.55-1,5.46-3.31,5.42s-3.59-2-3.29-5.38a24.09,24.09,0,0,0,3.25.42A25.14,25.14,0,0,0,43.26,53.26Z"/><path class="cls-1" d="M26.53,74.05v-3.6h4.33v3.6Z"/><path class="cls-1" d="M49,74.07V70.49h4.39v3.58Z"/><path class="cls-1" d="M10,30.35c2.92,0,4.77-1.06,5.42-4.08.8,2.87,2.51,4.23,5.51,4-2.39,1.68-3.32,3.69-2,6.53-2.34-1.83-4.49-2-6.81,0C13,34.09,12.55,31.94,10,30.35Z"/><path class="cls-1" d="M64.68,26c.52,3.25,2.36,4.38,5.38,4.11-1.06,1.15-2.23,1.91-2.57,3s.17,2.34.35,3.9c-2.3-2.06-4.46-2.09-6.76-.15,1.06-2.78.5-4.9-2.27-6.44,1.57-.33,2.95-.27,3.84-.9S63.83,27.58,64.68,26Z"/><path class="cls-1" d="M36.59,23.88c.93-2.73.53-4.86-2.19-6.38,2.92,0,4.82-1.05,5.49-4.06.83,2.83,2.55,4.16,5.53,4-2.41,1.67-3.27,3.7-2,6.52C41.05,22.1,38.9,22,36.59,23.88Z"/><circle cx="14.89" cy="70.49" r="0.86"/><circle cx="64.88" cy="70.49" r="0.86"/></svg>