<svg id="Layer_1" data-name="Layer 1" xmlns="http://www.w3.org/2000/svg" viewBox="0 0 81 81"><defs><style>.cls-1{fill:#fff;}</style></defs><title>Элементы</title><rect class="cls-1" x="10.72" y="25.55" width="33.54" height="44.25"/><path d="M37.32,24.4c1.75,0,3.41,0,5.08,0,1.91,0,2.74.85,2.74,2.76q0,20.62,0,41.26c0,1.86-.78,2.64-2.67,2.64H12.24c-1.87,0-2.69-.8-2.69-2.65q0-20.62,0-41.26c0-1.88.87-2.73,2.78-2.75,1.71,0,3.41,0,5.07,0,.39-1.6.63-3.13,1.12-4.58a16.93,16.93,0,0,1,25.93-8.31,6.91,6.91,0,0,0,3.12,1A12.94,12.94,0,0,1,58.24,24.73c.08,1.58,0,3.17,0,4.76,0,.64,0,1.37-.89,1.36s-.94-.73-1-1.44a51.84,51.84,0,0,0-.28-6.24c-.62-4.16-4.33-7.92-8.29-8.34a11,11,0,0,0,1.85,1.65,9.88,9.88,0,0,1,5.45,9.07c.05,10.07,0,20.15,0,30.22a6.72,6.72,0,0,0,4.57,6.43c.32-.72.15-1.16-.56-1.59a5.49,5.49,0,0,1-2.76-5q0-10.27,0-20.56c0-.3-.09-.66.05-.86s.57-.71.87-.71.7.4.84.71a3.38,3.38,0,0,1,.08,1.24q0,9.84,0,19.69a3.83,3.83,0,0,0,1.61,3.62V57.21q0-12.28,0-24.58a6.14,6.14,0,1,1,12.28-.37q.14,11.91,0,23.82a8.54,8.54,0,0,1-6.45,8.15,1.26,1.26,0,0,0-1.07,1.12,9.11,9.11,0,0,1-18-2q0-18.81,0-37.62a11.82,11.82,0,0,0-2.41-7.48,1.62,1.62,0,0,0-1.31-.55A7.8,7.8,0,0,0,37.32,24.4Zm-14.65,0a21,21,0,0,1,2.86,0,.72.72,0,0,1,.22.1,1,1,0,0,1,0,1.58,1.46,1.46,0,0,1-.24.17c-.25.15-.65,0-1,0H12.89l-1.34.06c0,.44-.06.72-.06,1q0,20.33,0,40.64c0,1.07.41,1.22,1.33,1.21q14.55,0,29.09,0c1.13,0,1.41-.34,1.41-1.42q0-20.07,0-40.13c0-1.11-.3-1.42-1.41-1.4-3.76.06-7.52,0-11.28,0-.69,0-1.46,0-1.49-.92s.78-1,1.51-1h1.13a37.86,37.86,0,0,1,2.41-5.85,34.9,34.9,0,0,1,4-4.58C31.86,11.39,23.27,16.2,22.67,24.41ZM65,62.45a6.7,6.7,0,0,0,5.24-6.57c0-2,0-3.93,0-5.9,0-5.85,0-11.7,0-17.55a4.16,4.16,0,0,0-4.72-4.31c-2.21.16-3.82,2.08-3.82,4.63q0,15.36,0,30.72a5.56,5.56,0,0,1-3.59,5.4,5.72,5.72,0,0,1-6.41-1.07,6.5,6.5,0,0,1-2-5.2c0-12.38.05-24.75,0-37.13A15.08,15.08,0,0,0,31.26,10.56,15.29,15.29,0,0,0,19.59,23.19a9.26,9.26,0,0,0,0,1.19l1.11-.06c0-.22.09-.34.11-.46a13.87,13.87,0,0,1,24.65-7.18,14.19,14.19,0,0,1,3,9.18c0,12.25,0,24.5,0,36.75a7.62,7.62,0,0,0,2.48,6.18A6.88,6.88,0,0,0,58.65,70,6.8,6.8,0,0,0,63,63.39c0-10.24,0-20.48,0-30.73a3,3,0,0,1,3-3.3,2.9,2.9,0,0,1,3,3.21q0,11.61,0,23.21a5.33,5.33,0,0,1-3.32,5.14A1.06,1.06,0,0,0,65,62.45ZM50.57,19.4c1.2,3.27,1.1,6.32,1.09,9.36q0,16.86,0,33.72c0,.46,0,.92,0,1.37a4.12,4.12,0,0,0,3.83,3.66,3.91,3.91,0,0,0,4.13-3.24c-5-1.75-6.49-5.52-6.41-10.5.13-8.81,0-17.63,0-26.45a30,30,0,0,0-.08-3A7.52,7.52,0,0,0,50.57,19.4ZM65,59.15a3.69,3.69,0,0,0,2.22-3.69q0-11.22,0-22.43c0-.34.07-.76-.1-1s-.78-.83-1.11-.78-.78.6-1,1c-.15.24,0,.65,0,1V57.82C64.92,58.22,65,58.62,65,59.15ZM41.89,16a1.32,1.32,0,0,0-2-.43A11.31,11.31,0,0,0,34.94,21,31.13,31.13,0,0,0,34,24.22c1,.37,1.3.06,1.49-.72a13.31,13.31,0,0,1,1.13-3A9.93,9.93,0,0,1,41.89,16Z"/><path d="M21.85,49.56c-1.45-1.83-1.45-1.85.16-3.46,1.1-1.09,2.15-2.23,3.3-3.26a5.84,5.84,0,0,1,1.94-1c1.47-3,3.57-4.35,6.33-3.91A5.35,5.35,0,0,1,38,42.87a5.24,5.24,0,0,1-3.61,5.49,19.58,19.58,0,0,1-1.58,2.47c-1,1.1-2.05,2.09-3.08,3.12-1.49,1.49-1.72,1.5-3.37.06-1.83,1.61-3.69,3.21-5.53,4.84-1.41,1.24-1.75,1.24-3.12-.11-2-2-2-2-.18-4.21C19,52.88,20.39,51.25,21.85,49.56Zm14.42-6.3a10.47,10.47,0,0,0-.68-1.85,3.24,3.24,0,0,0-3.16-1.65A3.44,3.44,0,0,0,29.38,42c-.59,1.37,0,2.32,1,3.15.32.26.54.7.9.86a4.22,4.22,0,0,0,2,.61A3.59,3.59,0,0,0,36.27,43.26Zm-9.58,1.22L23.2,47.9l4.86,4.84,3.4-3.49ZM19.36,57.63l5.47-4.8-1.57-2-5,5.75Z"/><path d="M16.84,63.07v2.19H29.2c.74,0,1.58,0,1.57,1s-.87,1-1.6,1c-4.1,0-8.2,0-12.29,0-1.57,0-1.88-.33-1.89-1.92,0-.88,0-1.76,0-2.64,0-1.13.54-1.59,1.61-1.59H37.66c1.81,0,2.1.3,2.11,2.11,0,.84,0,1.67,0,2.51a1.37,1.37,0,0,1-1.56,1.53c-1.17,0-2.34,0-3.51,0-.65,0-1.34-.08-1.33-1s.63-1,1.31-1h3.1v-2.2Z"/><path d="M27.36,36H15c-.34,0-.73.11-1,0a5.83,5.83,0,0,1-1.05-1c.35-.28.68-.78,1-.8,1.66-.09,3.34,0,5,0h20.9a2.53,2.53,0,0,1,1.11,0,1.49,1.49,0,0,1,.77.93c0,.23-.44.64-.77.79a2.9,2.9,0,0,1-1.11.05Z"/><path d="M37.16,30.36a2.52,2.52,0,0,1-2.56,2.51,2.61,2.61,0,0,1-2.49-2.61,2.5,2.5,0,0,1,2.58-2.49A2.48,2.48,0,0,1,37.16,30.36Z"/><path d="M22.59,30.39A2.54,2.54,0,0,1,20,32.87a2.57,2.57,0,0,1-2.44-2.64,2.52,2.52,0,1,1,5,.16Z"/></svg>