<svg id="Layer_1" data-name="Layer 1" xmlns="http://www.w3.org/2000/svg" viewBox="0 0 80.63 69"><defs><style>.cls-1{fill:#fff;}</style></defs><title>Элементы</title><path d="M47.34,52c-.23,3.94,1.86,6.2,5.59,6.22.57,0,1.14,0,1.71,0A3.1,3.1,0,0,1,57.54,61a3,3,0,0,1-2.48,3.38,5,5,0,0,1-1.09.1H27.86c-1.88,0-3.19-.92-3.52-2.41a3.16,3.16,0,0,1,2.88-3.88c.61-.05,1.22,0,1.83,0,3.6,0,5.72-2.37,5.44-6.22h-1.4c-6.1,0-12.2-.08-18.3,0-3.6.07-5.18-2.17-5.16-5.13.1-12.69,0-25.38,0-38.06C9.68,5.73,11.33,4,14.39,4H67.47c3,0,4.7,1.7,4.7,4.79V47c0,3.4-1.56,5-5,5Q58,52,48.86,52ZM65.83,10.4H16.06V41.47H65.83ZM11.77,43.72v3.22c0,2.36.6,3,3,3H67.16a6.59,6.59,0,0,0,1.09,0c.92-.17,1.67-.66,1.73-1.63.09-1.48,0-3,0-4.52ZM70,41.5c0-.45.07-.85.07-1.24q0-15.69,0-31.36c0-2.13-.62-2.72-2.78-2.73H14.57c-2.22,0-2.8.59-2.8,2.84V40.25c0,.42.06.84.09,1.21h2V10.12c0-1.65.26-1.92,1.89-1.92h50.4c1.63,0,1.89.27,1.89,1.91V41.5ZM35.06,58.09H46.78l-2-6H37Zm5.87,4.27H54.1c.74,0,1.36-.18,1.38-1s-.59-1.07-1.34-1c-.24,0-.49,0-.73,0l-23,0a22.14,22.14,0,0,0-3.05,0,1.46,1.46,0,0,0-.91,1c-.05.26.51.7.88.92s.64,0,1,0Z"/><path class="cls-1" d="M11.77,43.72H70c0,1.55.07,3,0,4.52-.06,1-.81,1.46-1.73,1.63a6.59,6.59,0,0,1-1.09,0H14.72c-2.35,0-2.94-.59-3-3Zm29.21,2a22,22,0,0,0-3,0c-.42.06-.77.62-1.16.94.37.35.72,1,1.1,1,2,.1,4.06.1,6.09,0,.38,0,.73-.66,1.09-1-.38-.33-.74-.87-1.16-.94A20.27,20.27,0,0,0,41,45.74Z"/><path class="cls-1" d="M70,41.5H68V10.11c0-1.64-.26-1.91-1.89-1.91H15.72c-1.63,0-1.89.27-1.89,1.92V41.46h-2c0-.37-.09-.79-.09-1.21V9c0-2.25.58-2.84,2.8-2.84H67.29c2.16,0,2.78.6,2.78,2.73q0,15.68,0,31.36C70.07,40.65,70,41.05,70,41.5Z"/><path class="cls-1" d="M35.06,58.09l2-6H44.8l2,6Z"/><path class="cls-1" d="M40.93,62.36H28.25c-.32,0-.72.1-1,0s-.93-.66-.88-.92a1.46,1.46,0,0,1,.91-1,22.14,22.14,0,0,1,3.05,0l23,0c.24,0,.49,0,.73,0,.75,0,1.35.21,1.34,1s-.64,1-1.38,1Z"/><path d="M57.54,23.45a23.76,23.76,0,0,0-2.62,1.27,1.49,1.49,0,0,0-.45,1.11c0,2,0,3.9,0,5.85a1.66,1.66,0,0,1-1.08,1.7c-3.82,1.88-7.6,3.84-11.44,5.67a2.65,2.65,0,0,1-2,0c-3.81-1.82-7.55-3.76-11.34-5.61a1.79,1.79,0,0,1-1.19-1.88c.05-1.91,0-3.82,0-5.73a1.27,1.27,0,0,0-.9-1.38A36.29,36.29,0,0,1,23,22.78c-.35-.18-.79-.64-.77-.94A1.53,1.53,0,0,1,23,20.76q8.61-4.12,17.27-8.14a2,2,0,0,1,1.49.08c5.67,2.63,11.31,5.3,17,7.94a1.55,1.55,0,0,1,1,1.62c0,2.15.05,4.31,0,6.46a5.69,5.69,0,0,0,1.19,3.94c.52.67,1.54,1.58.41,2.38s-1.53-.51-2.08-1.18c-.17-.22-.33-.46-.56-.78a7.68,7.68,0,0,1-1.22,1.65c-.34.29-1,.25-1.46.35-.08-.47-.16-.94-.23-1.42,0,0,0-.07.05-.1.59-1,1.58-1.89,1.69-2.9A68.73,68.73,0,0,0,57.54,23.45ZM25.77,21.71a4,4,0,0,0,.54.35c4.66,2.2,9.32,4.4,14,6.55a2,2,0,0,0,1.44-.09c3.65-1.67,7.27-3.4,10.9-5.11.27-.13.52-.29.91-.52H42c0,.43.06.82-.09,1.06s-.62.85-1,.86-.94-.49-1-.8a32.18,32.18,0,0,1,0-4.5c0-.31.61-.75,1-.79s.71.43.9.77A3,3,0,0,1,42,20.63H53.34c-4-2.06-7.94-4-11.94-5.8a1.57,1.57,0,0,0-1.14.1C35.48,17.15,30.71,19.4,25.77,21.71Zm3.68,4.17c0,1.82,0,3.41,0,5a1.4,1.4,0,0,0,.65,1q5,2.58,10.12,5.06a1.71,1.71,0,0,0,1.33,0q5.09-2.47,10.12-5.06a1.27,1.27,0,0,0,.66-.84c.06-1.65,0-3.3,0-5.12-2.8,1.31-5.4,2.62-8.08,3.75-1.63.68-2.87,1.43-2.39,3.47a.93.93,0,0,1-.07.45c-.32.31-.6.62-.93.63a1.35,1.35,0,0,1-.94-.84,13.38,13.38,0,0,1-.09-1.81c0-.34-.24-.83-.51-.95C36.15,29,32.89,27.5,29.45,25.88Z"/><path d="M41,45.74a20.27,20.27,0,0,1,2.92,0,.82.82,0,0,1,.26.1,1.06,1.06,0,0,1,.05,1.76.59.59,0,0,1-.24.09c-2,.1-4.07.1-6.09,0a.54.54,0,0,1-.24-.09,1.05,1.05,0,0,1,0-1.76.82.82,0,0,1,.26-.1A22,22,0,0,1,41,45.74Z"/><path class="cls-1" d="M25.77,21.71c4.94-2.31,9.71-4.56,14.49-6.78a1.57,1.57,0,0,1,1.14-.1c4,1.84,8,3.74,11.94,5.8H42a3,3,0,0,0-.15-1.14c-.19-.34-.62-.8-.9-.77s-1,.48-1,.79A32.18,32.18,0,0,0,40,24c0,.31.64.8,1,.8s.72-.5,1-.86.06-.63.09-1.06H53.56c-.39.23-.64.39-.91.52-3.63,1.71-7.25,3.44-10.9,5.11a2,2,0,0,1-1.44.09c-4.68-2.15-9.34-4.35-14-6.55A4,4,0,0,1,25.77,21.71Z"/><path class="cls-1" d="M29.45,25.88c3.44,1.62,6.7,3.13,9.93,4.71.27.12.46.61.51.95A13.38,13.38,0,0,0,40,33.35a1.35,1.35,0,0,0,.94.84c.33,0,.61-.32.93-.63a.93.93,0,0,0,.07-.45c-.48-2,.76-2.79,2.39-3.47,2.68-1.13,5.28-2.44,8.08-3.75,0,1.82,0,3.47,0,5.12a1.27,1.27,0,0,1-.66.84q-5,2.58-10.12,5.06a1.71,1.71,0,0,1-1.33,0q-5.09-2.48-10.12-5.06a1.4,1.4,0,0,1-.65-1C29.41,29.29,29.45,27.7,29.45,25.88Z"/></svg>