<svg id="Layer_1" data-name="Layer 1" xmlns="http://www.w3.org/2000/svg" xmlns:xlink="http://www.w3.org/1999/xlink" viewBox="0 0 131.63 176.25"><defs><style>.cls-1{fill:#e43625;}.cls-2{fill:#f7b132;}.cls-3{fill:#363e91;}.cls-4{fill:url(#linear-gradient);}.cls-5,.cls-6{fill:#fff;}.cls-6{font-size:16.88px;font-family:Montserrat-Bold, Montserrat;font-weight:700;}</style><linearGradient id="linear-gradient" x1="21.11" y1="96.57" x2="106.69" y2="96.57" gradientUnits="userSpaceOnUse"><stop offset="0" stop-color="#eb2a25"/><stop offset="0.24" stop-color="#ed3829"/><stop offset="0.7" stop-color="#f15b33"/><stop offset="1" stop-color="#f4763b"/></linearGradient></defs><title>Элементы</title><path class="cls-1" d="M68,40.09c5.34,3.2,11.65,2.61,16.86,1.71s-4.06,9.75-12.1,6.47S68,40.09,68,40.09Z"/><path class="cls-2" d="M5.82,88.63l.11-.16A12.37,12.37,0,0,1,23.1,85.34l14.11,9.77a12.38,12.38,0,0,1,3.12,17.17l-.11.16A12.38,12.38,0,0,1,23,115.57L8.94,105.8A12.37,12.37,0,0,1,5.82,88.63Z"/><path class="cls-3" d="M25.89,85.09h.2A12.34,12.34,0,0,1,38.43,97.43v10.08a12.34,12.34,0,0,1-12.34,12.34h-.2a12.34,12.34,0,0,1-12.34-12.34V97.43A12.35,12.35,0,0,1,25.89,85.09Z" transform="translate(-73.06 65.52) rotate(-55.31)"/><path class="cls-2" d="M97.31,169.52H80.62a4.17,4.17,0,0,1-4.16-4.16h0a4.17,4.17,0,0,1,4.16-4.15H97.31a4.17,4.17,0,0,1,4.16,4.15h0A4.17,4.17,0,0,1,97.31,169.52Z"/><path class="cls-2" d="M62.68,169.52H46a4.17,4.17,0,0,1-4.15-4.16h0A4.17,4.17,0,0,1,46,161.21h16.7a4.17,4.17,0,0,1,4.15,4.15h0A4.17,4.17,0,0,1,62.68,169.52Z"/><path class="cls-4" d="M83.1,153.45h0a34.79,34.79,0,0,1-44-21.76l-16.22-48a34.79,34.79,0,0,1,21.77-44h0a34.78,34.78,0,0,1,44,21.77l16.22,48A34.78,34.78,0,0,1,83.1,153.45Z"/><path class="cls-5" d="M81.5,72.78a27.29,27.29,0,1,1-54.57,0A26.92,26.92,0,0,1,40,49.47c8-4.71,14.41,1.75,14.41,1.75s6.39-6.35,14.33-1.52A26.87,26.87,0,0,1,81.5,72.78Z"/><path class="cls-3" d="M61.18,75.51a6.71,6.71,0,0,0-6.69-6.69h0a6.71,6.71,0,0,0-6.69,6.69h0a3.34,3.34,0,0,0,1.53,2.81l4.89,3.14,5.34-3.21a3.34,3.34,0,0,0,1.62-2.68Z"/><path class="cls-2" d="M109.32,122.76h0a12.37,12.37,0,0,1-15.84-7.33l-5.92-16.1a12.38,12.38,0,0,1,7.33-15.84h0a12.39,12.39,0,0,1,15.85,7.33l5.91,16.1A12.38,12.38,0,0,1,109.32,122.76Z"/><path class="cls-3" d="M106.88,116.12h0A12.38,12.38,0,0,1,91,108.79l-3.48-9.46a12.38,12.38,0,0,1,7.33-15.84h0a12.39,12.39,0,0,1,15.85,7.33l3.47,9.45A12.39,12.39,0,0,1,106.88,116.12Z"/><circle class="cls-3" cx="40.66" cy="65.33" r="6.97"/><circle class="cls-5" cx="46.65" cy="61.84" r="3.49"/><circle class="cls-3" cx="67.78" cy="65.33" r="6.97"/><circle class="cls-5" cx="72.97" cy="61.84" r="3.49"/><path class="cls-2" d="M117,4H84.5a8.07,8.07,0,0,0-8,8V25.28a8.06,8.06,0,0,0,8,8h8.65v9.16l10.28-9.16H117a8.06,8.06,0,0,0,8-8V12A8.07,8.07,0,0,0,117,4Z"/><text class="cls-6" transform="translate(88.94 24.24)">Hi!</text><path class="cls-1" d="M42.74,41.09c-5.67,2.54-11.87,1.2-16.94-.31s2.87,10.16,11.25,7.86S42.74,41.09,42.74,41.09Z"/></svg>