<svg width="110" height="70" viewBox="0 0 110 70" fill="none" xmlns="http://www.w3.org/2000/svg">
<path d="M16.3078 69.7577C7.31681 69.7577 0.0620117 62.5029 0.0620117 53.5119C0.0620117 44.5209 7.31681 37.2661 16.3078 37.2661C25.2988 37.2661 32.5536 44.5209 32.5536 53.5119C32.5536 62.5029 25.2988 69.7577 16.3078 69.7577Z" fill="#00093C"/>
<path d="M54.6901 1.86019L37.0802 30.6314C36.5841 31.4375 37.1422 32.4916 38.0723 32.4916H55.6823H73.2922C74.2223 32.4916 74.7804 31.4375 74.2843 30.6314L56.6744 1.86019C56.1783 1.1161 55.1242 1.1161 54.6901 1.86019Z" fill="#00093C"/>
<path d="M32.1816 6.75875L25.7949 0.372041C25.2988 -0.124014 24.5547 -0.124014 24.1207 0.372041L17.1139 7.37881C16.6178 7.87487 15.8738 7.87487 15.4397 7.37881L8.43294 0.372041C7.93688 -0.124014 7.19279 -0.124014 6.75875 0.372041L0.372041 6.75875C-0.124014 7.2548 -0.124014 7.99889 0.372041 8.43294L7.37881 15.4397C7.87487 15.9358 7.87487 16.6799 7.37881 17.1139L0.372041 24.1207C-0.124014 24.6167 -0.124014 25.3608 0.372041 25.7949L6.75875 32.1816C7.2548 32.6776 7.99889 32.6776 8.43294 32.1816L15.4397 25.1748C15.9358 24.6787 16.6799 24.6787 17.1139 25.1748L24.1207 32.1816C24.6167 32.6776 25.3608 32.6776 25.7949 32.1816L32.1816 25.7949C32.6776 25.2988 32.6776 24.5547 32.1816 24.1207L25.1748 17.1139C24.6787 16.6178 24.6787 15.8738 25.1748 15.4397L32.1816 8.43294C32.6776 7.93688 32.6776 7.19279 32.1816 6.75875Z" fill="#00093C"/>
<path d="M43.4046 52.892H39.8702L39.1881 54.5042H37.3899L40.8003 46.8773H42.5365L45.9469 54.5042H44.0866L43.4046 52.892ZM42.8465 51.5898L41.6064 48.6755L40.3662 51.5898H42.8465Z" fill="black"/>
<path d="M48.6131 54.1941C47.993 53.8841 47.497 53.388 47.125 52.768C46.7529 52.1479 46.5669 51.4658 46.5669 50.7217C46.5669 49.9777 46.7529 49.2956 47.125 48.6755C47.497 48.0554 47.993 47.6214 48.6131 47.2494C49.2332 46.9393 49.9773 46.7533 50.7213 46.7533C51.4034 46.7533 51.9615 46.8773 52.5195 47.1253C53.0776 47.3734 53.5117 47.6834 53.8837 48.1175L52.7676 49.1716C52.2715 48.5515 51.5894 48.3035 50.8454 48.3035C50.3493 48.3035 49.9773 48.4275 49.6052 48.6135C49.2332 48.7995 48.9232 49.1096 48.7371 49.4816C48.5511 49.8536 48.4271 50.2877 48.4271 50.7217C48.4271 51.2178 48.5511 51.5898 48.7371 51.9619C48.9232 52.3339 49.2332 52.644 49.6052 52.83C49.9773 53.016 50.4113 53.14 50.8454 53.14C51.5894 53.14 52.2715 52.83 52.7676 52.2099L53.8837 53.264C53.5117 53.6981 53.0776 54.0701 52.5195 54.2561C51.9615 54.5042 51.4034 54.6282 50.7213 54.6282C49.9773 54.6902 49.2332 54.5042 48.6131 54.1941Z" fill="black"/>
<path d="M60.3943 52.892H56.8599L56.1779 54.5042H54.3796L57.79 46.8773H59.5262L62.9366 54.5042H61.0764L60.3943 52.892ZM59.8363 51.5898L58.5961 48.6755L57.356 51.5898H59.8363Z" fill="black"/>
<path d="M64.053 46.9393H67.5254C68.3315 46.9393 69.0755 47.1253 69.6956 47.4354C70.3157 47.7454 70.8117 48.1795 71.1838 48.7995C71.5558 49.3576 71.7418 50.0397 71.7418 50.7837C71.7418 51.5278 71.5558 52.2099 71.1838 52.768C70.8117 53.326 70.3157 53.7601 69.6956 54.1321C69.0755 54.4422 68.3315 54.6282 67.5254 54.6282H64.053V46.9393ZM67.4634 53.078C68.2074 53.078 68.8275 52.892 69.2616 52.4579C69.6956 52.0239 69.9436 51.4658 69.9436 50.7217C69.9436 49.9777 69.6956 49.4196 69.2616 48.9856C68.8275 48.5515 68.2074 48.3655 67.4634 48.3655H65.8512V53.078H67.4634Z" fill="black"/>
<path d="M79.3067 53.14V54.5662H73.416V46.9393H79.1826V48.3655H75.1522V50.0397H78.6866V51.4038H75.1522V53.14H79.3067Z" fill="black"/>
<path d="M87.9875 54.5662V49.9777L85.7553 53.7601H84.9492L82.7169 50.1017V54.5662H81.0427V46.9393H82.5309L85.3832 51.6518L88.1735 46.9393H89.5997V54.5662H87.9875Z" fill="black"/>
<path d="M95.4283 51.8379V54.5662H93.6922V51.8379L90.7158 46.9393H92.576L94.6223 50.3497L96.6685 46.9393H98.4047L95.4283 51.8379Z" fill="black"/>
<path d="M38.9401 68.5796C38.568 68.3936 38.32 68.1456 38.072 67.7735C37.886 67.4635 37.762 67.0294 37.762 66.5954C37.762 66.1613 37.886 65.7893 38.072 65.4173C38.258 65.1072 38.568 64.7972 38.9401 64.6112C39.3121 64.4252 39.6842 64.3011 40.1802 64.3011C40.6143 64.3011 41.0483 64.4252 41.4204 64.6112C41.7924 64.7972 42.0404 65.0452 42.2885 65.4173C42.4745 65.7273 42.5985 66.1613 42.5985 66.5954C42.5985 67.0294 42.4745 67.4015 42.2885 67.7735C42.1024 68.0836 41.7924 68.3936 41.4204 68.5796C41.0483 68.7656 40.6763 68.8897 40.1802 68.8897C39.6842 68.8897 39.2501 68.7656 38.9401 68.5796ZM40.9243 67.5255C41.1103 67.2775 41.2344 67.0294 41.2344 66.6574C41.2344 66.2854 41.1103 65.9753 40.9243 65.7893C40.7383 65.5413 40.4283 65.4793 40.1182 65.4793C39.8082 65.4793 39.5602 65.6033 39.3121 65.7893C39.1261 66.0373 39.0021 66.2854 39.0021 66.6574C39.0021 67.0294 39.1261 67.3395 39.3121 67.5255C39.4982 67.7735 39.8082 67.8355 40.1182 67.8355C40.4283 67.8355 40.7383 67.7115 40.9243 67.5255Z" fill="black"/>
<path d="M44.9549 64.5492H46.071V65.5413H45.0169V68.8276H43.7768V65.5413H43.0947V64.5492H43.7768V64.3631C43.7768 63.8671 43.9008 63.495 44.2108 63.185C44.5209 62.875 44.8929 62.751 45.451 62.751C45.637 62.751 45.823 62.751 46.009 62.813C46.1951 62.875 46.3191 62.937 46.4431 62.999L46.1331 63.9291C46.009 63.8051 45.823 63.8051 45.637 63.8051C45.265 63.8051 45.0789 63.9911 45.0789 64.4252V64.5492H44.9549Z" fill="black"/>
<path d="M52.2717 68.5797C52.1477 68.6417 52.0237 68.7657 51.8377 68.7657C51.6517 68.8277 51.4656 68.8277 51.2796 68.8277C50.7835 68.8277 50.3495 68.7037 50.1015 68.4557C49.7914 68.2076 49.6674 67.8356 49.6674 67.2775V65.4793H48.9854V64.4872H49.6674V63.4331H50.9076V64.4872H51.9617V65.4793H50.9076V67.2155C50.9076 67.4016 50.9696 67.5256 51.0316 67.6496C51.1556 67.7736 51.2796 67.7736 51.4036 67.7736C51.5896 67.7736 51.7757 67.7116 51.8997 67.5876L52.2717 68.5797Z" fill="black"/>
<path d="M57.1703 64.9212C57.4804 65.2313 57.6664 65.7273 57.6664 66.3474V68.8277H56.4263V66.5334C56.4263 66.1614 56.3643 65.9133 56.1782 65.7893C56.0542 65.6033 55.8062 65.5413 55.4962 65.5413C55.1861 65.5413 54.9381 65.6653 54.7521 65.8513C54.5661 66.0374 54.442 66.3474 54.442 66.7194V68.8897H53.2019V62.937H54.442V65.0452C54.6281 64.8592 54.8141 64.7352 55.0621 64.6732C55.3101 64.6112 55.5582 64.5492 55.8062 64.5492C56.4263 64.4252 56.8603 64.5492 57.1703 64.9212Z" fill="black"/>
<path d="M63.2467 67.0294H59.9604C60.0224 67.2775 60.1464 67.5255 60.3944 67.6495C60.6424 67.8355 60.8905 67.8975 61.2005 67.8975C61.4485 67.8975 61.6345 67.8355 61.8206 67.7735C62.0066 67.7115 62.1306 67.5875 62.3166 67.4635L62.9987 68.2076C62.5647 68.7036 62.0066 68.8897 61.2005 68.8897C60.7044 68.8897 60.2704 68.7656 59.8984 68.5796C59.5263 68.3936 59.2163 68.1456 59.0302 67.7735C58.8442 67.4635 58.7202 67.0294 58.7202 66.5954C58.7202 66.1613 58.8442 65.7893 59.0302 65.4173C59.2163 65.1072 59.5263 64.7972 59.8364 64.6112C60.1464 64.4252 60.5804 64.3011 61.0145 64.3011C61.4485 64.3011 61.8206 64.3632 62.1926 64.5492C62.5646 64.7352 62.8127 64.9832 62.9987 65.3553C63.1847 65.7273 63.3087 66.0993 63.3087 66.5334C63.3087 66.6574 63.3087 66.7814 63.2467 67.0294ZM60.3324 65.6033C60.1464 65.7893 60.0224 65.9753 59.9604 66.2854H62.0686C62.0066 66.0373 61.8826 65.7893 61.6966 65.6033C61.5105 65.4173 61.2625 65.3553 61.0145 65.3553C60.7664 65.3553 60.5184 65.4173 60.3324 65.6033Z" fill="black"/>
<path d="M69.3236 63.1851V65.0453H72.548V66.3474H69.3236V68.8897H67.7114V61.9449H72.982V63.2471H69.3236V63.1851Z" fill="black"/>
<path d="M75.1523 68.0836C74.5942 67.5255 74.3462 66.7815 74.3462 65.7273V61.8209H75.9584V65.6653C75.9584 66.9055 76.4544 67.5255 77.5085 67.5255C78.0046 67.5255 78.3766 67.4015 78.6867 67.0915C78.9967 66.7815 79.0587 66.3474 79.0587 65.6653V61.8209H80.6709V65.7273C80.6709 66.7195 80.4229 67.5255 79.8648 68.0836C79.3067 68.6417 78.5627 68.8897 77.5706 68.8897C76.5784 68.8897 75.6483 68.6417 75.1523 68.0836Z" fill="black"/>
<path d="M83.8951 63.1851H81.6628V61.8829H87.7395V63.1851H85.5073V68.8277H83.8951V63.1851Z" fill="black"/>
<path d="M89.6618 68.0836C89.1038 67.5255 88.8557 66.7815 88.8557 65.7273V61.8209H90.4679V65.6653C90.4679 66.9055 90.964 67.5255 92.0181 67.5255C92.5141 67.5255 92.8862 67.4015 93.1962 67.0915C93.5062 66.7815 93.5682 66.3474 93.5682 65.6653V61.8209H95.1804V65.7273C95.1804 66.7195 94.9324 67.5255 94.3743 68.0836C93.8163 68.6417 93.0722 68.8897 92.0801 68.8897C91.088 68.8897 90.2199 68.6417 89.6618 68.0836Z" fill="black"/>
<path d="M101.443 68.8277L100.079 66.9055H100.017H98.5909V68.8277H96.9788V61.8829H99.9551C100.575 61.8829 101.133 62.0069 101.567 62.193C102.001 62.379 102.373 62.689 102.621 63.0611C102.869 63.4331 102.993 63.8672 102.993 64.4252C102.993 64.9833 102.869 65.3553 102.621 65.7894C102.373 66.1614 102.001 66.4715 101.567 66.6575L103.117 68.8897H101.443V68.8277ZM101.009 63.4951C100.761 63.3091 100.389 63.1851 99.8931 63.1851H98.5909V65.6033H99.8931C100.389 65.6033 100.761 65.4793 101.009 65.2933C101.257 65.1073 101.381 64.7973 101.381 64.4252C101.443 63.9912 101.257 63.6811 101.009 63.4951Z" fill="black"/>
<path d="M110 67.5256V68.8277H104.605V61.8829H109.876V63.1851H106.218V64.6732H109.442V65.9134H106.218V67.5256H110Z" fill="black"/>
</svg>
