<svg width="110" height="70" viewBox="0 0 110 70" fill="none" xmlns="http://www.w3.org/2000/svg">
<path d="M16.3078 69.7577C7.31681 69.7577 0.0620117 62.5028 0.0620117 53.5118C0.0620117 44.5208 7.31681 37.2661 16.3078 37.2661C25.2988 37.2661 32.5536 44.5208 32.5536 53.5118C32.5536 62.5028 25.2988 69.7577 16.3078 69.7577Z" fill="white"/>
<path d="M54.6901 1.86025L37.0802 30.6314C36.5841 31.4375 37.1422 32.4917 38.0723 32.4917H55.6823H73.2922C74.2223 32.4917 74.7804 31.4375 74.2843 30.6314L56.6744 1.86025C56.1783 1.11616 55.1242 1.11616 54.6901 1.86025Z" fill="white"/>
<path d="M32.1816 6.75875L25.7949 0.372041C25.2988 -0.124014 24.5547 -0.124014 24.1207 0.372041L17.1139 7.37881C16.6178 7.87487 15.8738 7.87487 15.4397 7.37881L8.43294 0.372041C7.93688 -0.124014 7.19279 -0.124014 6.75875 0.372041L0.372041 6.75875C-0.124014 7.2548 -0.124014 7.99889 0.372041 8.43294L7.37881 15.4397C7.87487 15.9358 7.87487 16.6799 7.37881 17.1139L0.372041 24.1207C-0.124014 24.6167 -0.124014 25.3608 0.372041 25.7949L6.75875 32.1816C7.2548 32.6776 7.99889 32.6776 8.43294 32.1816L15.4397 25.1748C15.9358 24.6787 16.6799 24.6787 17.1139 25.1748L24.1207 32.1816C24.6167 32.6776 25.3608 32.6776 25.7949 32.1816L32.1816 25.7949C32.6776 25.2988 32.6776 24.5547 32.1816 24.1207L25.1748 17.1139C24.6787 16.6178 24.6787 15.8738 25.1748 15.4397L32.1816 8.43294C32.6776 7.93688 32.6776 7.19279 32.1816 6.75875Z" fill="white"/>
<path d="M43.4046 52.8919H39.8702L39.1881 54.5041H37.3899L40.8003 46.8773H42.5365L45.9469 54.5041H44.0866L43.4046 52.8919ZM42.8465 51.5898L41.6064 48.6755L40.3662 51.5898H42.8465Z" fill="white"/>
<path d="M48.6131 54.194C47.993 53.884 47.497 53.3879 47.125 52.7679C46.7529 52.1478 46.5669 51.4657 46.5669 50.7216C46.5669 49.9775 46.7529 49.2955 47.125 48.6754C47.497 48.0553 47.993 47.6213 48.6131 47.2492C49.2332 46.9392 49.9773 46.7532 50.7213 46.7532C51.4034 46.7532 51.9615 46.8772 52.5195 47.1252C53.0776 47.3732 53.5117 47.6833 53.8837 48.1173L52.7676 49.1714C52.2715 48.5514 51.5894 48.3033 50.8454 48.3033C50.3493 48.3033 49.9773 48.4274 49.6052 48.6134C49.2332 48.7994 48.9232 49.1094 48.7371 49.4815C48.5511 49.8535 48.4271 50.2876 48.4271 50.7216C48.4271 51.2177 48.5511 51.5897 48.7371 51.9617C48.9232 52.3338 49.2332 52.6438 49.6052 52.8299C49.9773 53.0159 50.4113 53.1399 50.8454 53.1399C51.5894 53.1399 52.2715 52.8299 52.7676 52.2098L53.8837 53.2639C53.5117 53.6979 53.0776 54.07 52.5195 54.256C51.9615 54.504 51.4034 54.6281 50.7213 54.6281C49.9773 54.6901 49.2332 54.504 48.6131 54.194Z" fill="white"/>
<path d="M60.3943 52.8919H56.8599L56.1779 54.5041H54.3796L57.79 46.8773H59.5262L62.9366 54.5041H61.0764L60.3943 52.8919ZM59.8363 51.5898L58.5961 48.6755L57.356 51.5898H59.8363Z" fill="white"/>
<path d="M64.053 46.9392H67.5254C68.3315 46.9392 69.0755 47.1252 69.6956 47.4353C70.3157 47.7453 70.8117 48.1793 71.1838 48.7994C71.5558 49.3575 71.7418 50.0395 71.7418 50.7836C71.7418 51.5277 71.5558 52.2098 71.1838 52.7679C70.8117 53.3259 70.3157 53.76 69.6956 54.132C69.0755 54.442 68.3315 54.6281 67.5254 54.6281H64.053V46.9392ZM67.4634 53.0779C68.2074 53.0779 68.8275 52.8919 69.2616 52.4578C69.6956 52.0238 69.9436 51.4657 69.9436 50.7216C69.9436 49.9775 69.6956 49.4195 69.2616 48.9854C68.8275 48.5514 68.2074 48.3654 67.4634 48.3654H65.8512V53.0779H67.4634Z" fill="white"/>
<path d="M79.3067 53.1399V54.566H73.416V46.9392H79.1826V48.3654H75.1522V50.0396H78.6866V51.4037H75.1522V53.1399H79.3067Z" fill="white"/>
<path d="M87.9875 54.566V49.9775L85.7553 53.76H84.9492L82.7169 50.1015V54.566H81.0427V46.9392H82.5309L85.3832 51.6517L88.1735 46.9392H89.5997V54.566H87.9875Z" fill="white"/>
<path d="M95.4283 51.8377V54.566H93.6922V51.8377L90.7158 46.9392H92.576L94.6223 50.3496L96.6685 46.9392H98.4047L95.4283 51.8377Z" fill="white"/>
<path d="M38.9401 68.5796C38.568 68.3936 38.32 68.1456 38.072 67.7735C37.886 67.4635 37.762 67.0294 37.762 66.5954C37.762 66.1613 37.886 65.7893 38.072 65.4173C38.258 65.1072 38.568 64.7972 38.9401 64.6112C39.3121 64.4252 39.6842 64.3011 40.1802 64.3011C40.6143 64.3011 41.0483 64.4252 41.4204 64.6112C41.7924 64.7972 42.0404 65.0452 42.2885 65.4173C42.4745 65.7273 42.5985 66.1613 42.5985 66.5954C42.5985 67.0294 42.4745 67.4015 42.2885 67.7735C42.1024 68.0836 41.7924 68.3936 41.4204 68.5796C41.0483 68.7656 40.6763 68.8897 40.1802 68.8897C39.6842 68.8897 39.2501 68.7656 38.9401 68.5796ZM40.9243 67.5255C41.1103 67.2775 41.2344 67.0294 41.2344 66.6574C41.2344 66.2854 41.1103 65.9753 40.9243 65.7893C40.7383 65.5413 40.4283 65.4793 40.1182 65.4793C39.8082 65.4793 39.5602 65.6033 39.3121 65.7893C39.1261 66.0373 39.0021 66.2854 39.0021 66.6574C39.0021 67.0294 39.1261 67.3395 39.3121 67.5255C39.4982 67.7735 39.8082 67.8355 40.1182 67.8355C40.4283 67.8355 40.7383 67.7115 40.9243 67.5255Z" fill="white"/>
<path d="M44.9549 64.5491H46.071V65.5412H45.0169V68.8276H43.7768V65.5412H43.0947V64.5491H43.7768V64.3631C43.7768 63.867 43.9008 63.495 44.2108 63.185C44.5209 62.8749 44.8929 62.7509 45.451 62.7509C45.637 62.7509 45.823 62.7509 46.009 62.8129C46.1951 62.8749 46.3191 62.9369 46.4431 62.9989L46.1331 63.929C46.009 63.805 45.823 63.805 45.637 63.805C45.265 63.805 45.0789 63.991 45.0789 64.4251V64.5491H44.9549Z" fill="white"/>
<path d="M52.2717 68.5796C52.1477 68.6416 52.0237 68.7656 51.8377 68.7656C51.6517 68.8276 51.4656 68.8277 51.2796 68.8277C50.7835 68.8277 50.3495 68.7036 50.1015 68.4556C49.7914 68.2076 49.6674 67.8355 49.6674 67.2775V65.4793H48.9854V64.4872H49.6674V63.433H50.9076V64.4872H51.9617V65.4793H50.9076V67.2155C50.9076 67.4015 50.9696 67.5255 51.0316 67.6495C51.1556 67.7735 51.2796 67.7735 51.4036 67.7735C51.5896 67.7735 51.7757 67.7115 51.8997 67.5875L52.2717 68.5796Z" fill="white"/>
<path d="M57.1703 64.9212C57.4804 65.2312 57.6664 65.7273 57.6664 66.3473V68.8276H56.4263V66.5333C56.4263 66.1613 56.3643 65.9133 56.1782 65.7893C56.0542 65.6033 55.8062 65.5412 55.4962 65.5412C55.1861 65.5412 54.9381 65.6653 54.7521 65.8513C54.5661 66.0373 54.442 66.3473 54.442 66.7194V68.8896H53.2019V62.937H54.442V65.0452C54.6281 64.8592 54.8141 64.7351 55.0621 64.6731C55.3101 64.6111 55.5582 64.5491 55.8062 64.5491C56.4263 64.4251 56.8603 64.5491 57.1703 64.9212Z" fill="white"/>
<path d="M63.2467 67.0294H59.9604C60.0224 67.2775 60.1464 67.5255 60.3944 67.6495C60.6424 67.8355 60.8905 67.8975 61.2005 67.8975C61.4485 67.8975 61.6345 67.8355 61.8206 67.7735C62.0066 67.7115 62.1306 67.5875 62.3166 67.4635L62.9987 68.2076C62.5647 68.7036 62.0066 68.8897 61.2005 68.8897C60.7044 68.8897 60.2704 68.7656 59.8984 68.5796C59.5263 68.3936 59.2163 68.1456 59.0302 67.7735C58.8442 67.4635 58.7202 67.0294 58.7202 66.5954C58.7202 66.1613 58.8442 65.7893 59.0302 65.4173C59.2163 65.1072 59.5263 64.7972 59.8364 64.6112C60.1464 64.4252 60.5804 64.3011 61.0145 64.3011C61.4485 64.3011 61.8206 64.3632 62.1926 64.5492C62.5646 64.7352 62.8127 64.9832 62.9987 65.3553C63.1847 65.7273 63.3087 66.0993 63.3087 66.5334C63.3087 66.6574 63.3087 66.7814 63.2467 67.0294ZM60.3324 65.6033C60.1464 65.7893 60.0224 65.9753 59.9604 66.2854H62.0686C62.0066 66.0373 61.8826 65.7893 61.6966 65.6033C61.5105 65.4173 61.2625 65.3553 61.0145 65.3553C60.7664 65.3553 60.5184 65.4173 60.3324 65.6033Z" fill="white"/>
<path d="M69.3236 63.185V65.0452H72.548V66.3474H69.3236V68.8897H67.7114V61.9449H72.982V63.247H69.3236V63.185Z" fill="white"/>
<path d="M75.1523 68.0836C74.5942 67.5255 74.3462 66.7815 74.3462 65.7273V61.8209H75.9584V65.6653C75.9584 66.9055 76.4544 67.5255 77.5085 67.5255C78.0046 67.5255 78.3766 67.4015 78.6867 67.0915C78.9967 66.7815 79.0587 66.3474 79.0587 65.6653V61.8209H80.6709V65.7273C80.6709 66.7195 80.4229 67.5255 79.8648 68.0836C79.3067 68.6417 78.5627 68.8897 77.5706 68.8897C76.5784 68.8897 75.6483 68.6417 75.1523 68.0836Z" fill="white"/>
<path d="M83.8951 63.185H81.6628V61.8829H87.7395V63.185H85.5073V68.8277H83.8951V63.185Z" fill="white"/>
<path d="M89.6618 68.0836C89.1038 67.5255 88.8557 66.7815 88.8557 65.7273V61.8209H90.4679V65.6653C90.4679 66.9055 90.964 67.5255 92.0181 67.5255C92.5141 67.5255 92.8862 67.4015 93.1962 67.0915C93.5062 66.7815 93.5682 66.3474 93.5682 65.6653V61.8209H95.1804V65.7273C95.1804 66.7195 94.9324 67.5255 94.3743 68.0836C93.8163 68.6417 93.0722 68.8897 92.0801 68.8897C91.088 68.8897 90.2199 68.6417 89.6618 68.0836Z" fill="white"/>
<path d="M101.443 68.8277L100.079 66.9054H100.017H98.5909V68.8277H96.9788V61.8829H99.9551C100.575 61.8829 101.133 62.0069 101.567 62.1929C102.001 62.3789 102.373 62.689 102.621 63.061C102.869 63.4331 102.993 63.8671 102.993 64.4252C102.993 64.9832 102.869 65.3553 102.621 65.7893C102.373 66.1614 102.001 66.4714 101.567 66.6574L103.117 68.8897H101.443V68.8277ZM101.009 63.4951C100.761 63.309 100.389 63.185 99.8931 63.185H98.5909V65.6033H99.8931C100.389 65.6033 100.761 65.4793 101.009 65.2933C101.257 65.1072 101.381 64.7972 101.381 64.4252C101.443 63.9911 101.257 63.6811 101.009 63.4951Z" fill="white"/>
<path d="M110 67.5255V68.8277H104.605V61.8829H109.876V63.185H106.218V64.6732H109.442V65.9133H106.218V67.5255H110Z" fill="white"/>
</svg>
