<svg width="57" height="47" viewBox="0 0 57 47" fill="none" xmlns="http://www.w3.org/2000/svg">
    <path d="M53.6174 3.49212H51.2617V1.25496C51.2617 0.795681 50.8914 0.425293 50.4321 0.425293H45.4096C44.9503 0.425293 44.5799 0.795681 44.5799 1.25496V3.49212H17.0378V1.25496C17.0378 0.795681 16.6674 0.425293 16.2081 0.425293H11.1856C10.7263 0.425293 10.3559 0.795681 10.3559 1.25496V3.49212H8.41509C6.38536 3.49212 4.72601 5.15146 4.72601 7.1812V27.4637C4.72601 27.923 5.0964 28.2934 5.55569 28.2934C6.01497 28.2934 6.38536 27.923 6.38536 27.4637V7.1812C6.38536 6.07003 7.28911 5.15146 8.41509 5.15146H53.6322C54.5212 5.15146 55.2471 5.87743 55.2471 6.76636V34.3233C55.2471 35.2123 54.5212 35.9382 53.6322 35.9382H51.8544V32.7825C51.8544 32.3232 51.484 31.9528 51.0247 31.9528H42.0761C41.6168 31.9528 41.2464 32.3232 41.2464 32.7825V35.9382H27.8531L31.0089 35.0789C32.6386 34.6345 34.0757 33.7011 35.1424 32.3973L40.5056 25.8785C40.6093 25.7451 40.6834 25.5821 40.6982 25.4192L41.1723 19.1966C41.2168 18.5892 40.8464 17.9818 40.2834 17.7447C40.5353 17.5965 40.7131 17.3299 40.7131 17.0187C40.7131 16.5595 40.3427 16.1891 39.8834 16.1891H36.2388C35.7795 16.1891 35.4091 16.5595 35.4091 17.0187C35.4091 17.478 35.7795 17.8484 36.2388 17.8484H38.9648C38.8759 17.9077 38.787 17.9818 38.713 18.0558L35.6609 21.1078C35.0683 21.7005 34.5794 22.4412 34.0609 23.0931C33.7794 23.4487 33.8238 23.9821 34.1942 24.2636C34.5498 24.5451 35.0831 24.5006 35.3646 24.1302L36.3276 22.945L38.787 25.4044L33.9127 31.3454C33.0534 32.3825 31.9274 33.1233 30.6236 33.4788L17.4674 37.2716C16.4451 37.5976 16.9637 39.1829 17.9711 38.8569L20.8602 37.9235V44.9017H19.7046C19.2453 44.9017 18.8749 45.272 18.8749 45.7313C18.8749 46.1906 19.2453 46.561 19.7046 46.561H24.8011C25.2604 46.561 25.6308 46.1906 25.6308 45.7313C25.6308 45.272 25.2604 44.9017 24.8011 44.9017H22.5343V37.6124H53.6619C55.4694 37.6124 56.9361 36.1457 56.9361 34.3382V6.78118C56.8917 4.95886 55.4249 3.49212 53.6174 3.49212ZM46.2245 2.08464H49.5876V3.4773H46.2245V2.08464ZM12.0005 2.08464H15.3636V3.4773H12.0005V2.08464ZM39.4685 19.6115L39.1722 23.4635L37.3944 21.6856L39.4685 19.6115ZM42.8761 35.9382V33.6122H50.1654V35.9382H42.8761Z" fill="#00093C"/>
    <path d="M15.6749 44.9016H4.97803V40.4718C4.97803 37.6568 5.62992 34.8567 6.85961 32.338C7.54113 30.9602 8.96342 30.0712 10.5042 30.0712H24.5494C27.4829 30.0712 30.3423 29.0341 32.5943 27.1526C32.9498 26.8563 32.9943 26.3377 32.698 25.9821C32.4017 25.6266 31.8831 25.5821 31.5275 25.8784C29.5719 27.5081 27.0977 28.4119 24.5642 28.4119H18.5195C19.4529 27.4341 20.0307 26.1155 20.0307 24.6636V21.5967C22.1789 21.4486 23.8679 19.6707 23.8679 17.4928C23.8679 15.226 22.0159 13.3741 19.7492 13.3741C18.3565 13.3444 17.0379 13.6704 16.0749 14.7223C15.6008 15.2408 14.9193 15.5372 14.223 15.5372H11.9265C10.0153 15.5372 8.4597 17.0928 8.4597 19.004V25.2562C8.4597 25.9673 8.62267 26.6637 9.05232 27.2415C9.24492 27.5081 9.48197 27.7304 9.74865 27.9082C10.045 28.1008 10.4598 28.1748 10.6968 28.4119C8.4597 28.3674 6.34107 29.5971 5.36324 31.6121C4.01502 34.3678 3.30387 37.4198 3.30387 40.4866V44.9165H0.829673C0.37039 44.9165 0 45.2868 0 45.7461C0 46.2054 0.37039 46.5758 0.829673 46.5758H15.6749C16.1342 46.5758 16.5046 46.2054 16.5046 45.7461C16.5194 45.272 16.1342 44.9016 15.6749 44.9016ZM14.3711 28.3823C13.9118 28.3526 13.4525 28.2341 13.0377 28.0415C13.2303 27.9378 13.4229 27.8193 13.5859 27.6859C14.2822 27.1081 14.6674 26.2636 14.6674 25.3006V21.5967H18.3565V24.6487C18.3565 26.7081 16.6823 28.3971 14.6082 28.3971C14.5193 28.3971 14.4452 28.3971 14.3711 28.3823ZM10.1339 25.2414V18.9892C10.1339 17.9965 10.9487 17.1817 11.9414 17.1817H14.223C15.3934 17.1817 16.5046 16.6928 17.3046 15.8335C17.9565 15.1223 18.8454 14.989 19.764 15.0186C21.1122 15.0186 22.2085 16.115 22.2085 17.4632C22.2085 18.8114 21.1122 19.9077 19.764 19.9077H13.8377C13.3785 19.9077 13.0081 20.2781 13.0081 20.7374V25.2858C13.0081 26.2636 12.1488 26.8711 11.2154 26.6933C10.4746 26.5748 10.1339 25.9673 10.1339 25.2414Z" fill="#00093C"/>
    <path d="M28.5346 13.1519H33.0682C33.5275 13.1519 33.8979 12.7815 33.8979 12.3222V9.25539C33.8979 8.79611 33.5275 8.42572 33.0682 8.42572H28.5346C28.0753 8.42572 27.705 8.79611 27.705 9.25539V12.3222C27.6901 12.7815 28.0605 13.1519 28.5346 13.1519ZM29.3643 10.0851H32.2385V11.4777H29.3643V10.0851Z" fill="#00093C"/>
    <path d="M27.6902 18.53C27.6902 18.9893 28.0605 19.3597 28.5198 19.3597H33.0534C33.5127 19.3597 33.8831 18.9893 33.8831 18.53V15.4632C33.8831 15.0039 33.5127 14.6335 33.0534 14.6335H28.5198C28.0605 14.6335 27.6902 15.0039 27.6902 15.4632V18.53ZM29.3643 16.3076H32.2385V17.7003H29.3643V16.3076Z" fill="#00093C"/>
    <path d="M36.2093 11.6111H50.9952C51.4545 11.6111 51.8249 11.2407 51.8249 10.7814C51.8249 10.3221 51.4545 9.95172 50.9952 9.95172H36.2093C35.75 9.95172 35.3796 10.3221 35.3796 10.7814C35.3796 11.2407 35.75 11.6111 36.2093 11.6111Z" fill="#00093C"/>
</svg>