<svg width="50" height="51" viewBox="0 0 50 51" fill="none" xmlns="http://www.w3.org/2000/svg">
    <path d="M28.4221 24.2904C28.5686 24.5834 28.8616 24.7421 29.1668 24.7421C29.2889 24.7421 29.4232 24.7177 29.5453 24.6567C29.5941 24.6323 34.5021 22.1417 36.9194 21.3725C37.3589 21.2382 37.6031 20.7621 37.4566 20.3226C37.3223 19.883 36.8583 19.6389 36.4066 19.7732C33.855 20.5789 28.9837 23.0573 28.7761 23.155C28.3855 23.387 28.2145 23.8875 28.4221 24.2904Z" fill="#00093C"/>
    <path d="M29.1669 14.7554C29.2889 14.7554 29.4232 14.731 29.5453 14.6699C29.5942 14.6455 34.5021 12.1549 36.9194 11.3858C37.3589 11.2515 37.6031 10.7753 37.4566 10.3358C37.3223 9.89629 36.8584 9.65211 36.4067 9.78641C33.855 10.5922 28.9837 13.0706 28.7762 13.1682C28.3611 13.3758 28.2024 13.8763 28.4099 14.2914C28.5808 14.5845 28.8738 14.7554 29.1669 14.7554Z" fill="#00093C"/>
    <path d="M49.1769 13.0827C48.713 13.0827 48.3467 13.4612 48.3467 13.9129V46.4127C48.3467 47.7923 47.2235 48.9155 45.8439 48.9155H25.8338V46.9987C27.0546 46.5714 30.2167 45.5825 33.3299 45.5825C40.5942 45.5825 45.5143 47.194 45.5631 47.2063C45.8195 47.2917 46.0881 47.2429 46.3079 47.0964C46.5276 46.9377 46.6497 46.6935 46.6497 46.4249V9.74975C46.6497 9.35907 46.3811 9.01723 46.0026 8.93177C46.0026 8.93177 45.3434 8.78526 44.2324 8.57771C43.7806 8.49225 43.3411 8.79747 43.2679 9.2492C43.1824 9.70092 43.4876 10.1404 43.9394 10.2259C44.3667 10.2991 44.7207 10.3724 45.0015 10.4334V45.3139C43.1092 44.8133 38.9216 43.9221 33.3299 43.9221C29.7039 43.9221 26.1268 45.1186 25.028 45.5214C24.0513 45.0819 21.0845 43.9221 17.4952 43.9221C11.757 43.9221 7.02004 44.8744 4.99338 45.3505V10.3968C6.65378 9.98172 11.5739 8.91956 17.4952 8.91956C20.5351 8.91956 23.1356 9.87184 24.1611 10.2991V43.0919C24.1611 43.3971 24.3199 43.6657 24.5885 43.8122C24.8448 43.9587 25.1745 43.9587 25.4309 43.8C25.5163 43.7512 33.7694 38.8188 41.0947 36.3771C41.4366 36.2672 41.6685 35.9498 41.6685 35.5835V1.41117C41.6685 1.14257 41.5342 0.886189 41.3145 0.727475C41.0947 0.568761 40.8017 0.532134 40.5453 0.629804C33.8793 3.1326 27.1279 7.33242 27.0668 7.36904C26.6762 7.61322 26.5541 8.12599 26.7982 8.51667C27.0424 8.90735 27.5552 9.02944 27.9459 8.78526C28.0069 8.74864 33.8793 5.09821 40.0081 2.63204V34.9853C34.3188 36.9631 28.3732 40.1862 25.8338 41.6391V9.74975C25.8338 9.43233 25.6506 9.15152 25.3698 9.00502C25.2233 8.93177 21.8049 7.24696 17.4952 7.24696C9.96235 7.24696 4.1754 8.87072 3.93122 8.94398C3.57717 9.04165 3.33299 9.37128 3.33299 9.74975V46.4249C3.33299 46.6813 3.45508 46.9377 3.66263 47.0842C3.80914 47.194 3.98006 47.2551 4.16319 47.2551C4.23644 47.2551 4.3219 47.2429 4.39516 47.2185C4.4562 47.2063 10.2187 45.5825 17.5074 45.5825C20.5596 45.5825 23.16 46.5348 24.1734 46.9621V48.9155H4.16319C2.7836 48.9155 1.66039 47.7923 1.66039 46.4127V13.9129C1.66039 13.449 1.28192 13.0827 0.830197 13.0827C0.366263 13.0827 0 13.4612 0 13.9129V46.4127C0 48.7079 1.86794 50.5759 4.16319 50.5759H45.8317C48.127 50.5759 49.9949 48.7079 49.9949 46.4127V13.9129C50.0071 13.4612 49.6286 13.0827 49.1769 13.0827Z" fill="#00093C"/>
    <path d="M28.4221 19.297C28.5686 19.59 28.8616 19.7487 29.1668 19.7487C29.2889 19.7487 29.4232 19.7243 29.5453 19.6633C29.5941 19.6388 34.5021 17.1483 36.9194 16.3791C37.3589 16.2448 37.6031 15.7687 37.4566 15.3291C37.3223 14.8896 36.8583 14.6455 36.4066 14.7798C33.855 15.5855 28.9837 18.0639 28.7761 18.1616C28.3855 18.3813 28.2145 18.8819 28.4221 19.297Z" fill="#00093C"/>
    <path d="M28.4221 29.296C28.5686 29.589 28.8616 29.7477 29.1668 29.7477C29.2889 29.7477 29.4232 29.7233 29.5453 29.6623C29.5941 29.6379 34.5021 27.1473 36.9194 26.3781C37.3589 26.2438 37.6031 25.7677 37.4566 25.3282C37.3223 24.8887 36.8583 24.6445 36.4066 24.7788C33.855 25.5846 28.9837 28.0629 28.7761 28.1606C28.3855 28.3804 28.2145 28.8809 28.4221 29.296Z" fill="#00093C"/>
    <path d="M20.1934 16.0495C15.0413 14.8408 9.19327 16.3791 8.94909 16.4402C8.50957 16.5623 8.24098 17.014 8.36307 17.4657C8.46074 17.832 8.80259 18.0884 9.16885 18.0884C9.2421 18.0884 9.31535 18.0762 9.38861 18.064C9.44965 18.0517 15.0779 16.5623 19.8149 17.6855C20.2666 17.7954 20.7061 17.5146 20.816 17.0628C20.9259 16.5989 20.6451 16.1472 20.1934 16.0495Z" fill="#00093C"/>
    <path d="M20.1934 21.0428C15.0413 19.8342 9.19327 21.3725 8.94909 21.4457C8.50957 21.5678 8.24098 22.0195 8.36307 22.4713C8.46074 22.8375 8.80259 23.0939 9.16885 23.0939C9.2421 23.0939 9.31535 23.0817 9.38861 23.0695C9.44965 23.0573 15.0779 21.5678 19.8149 22.691C20.2666 22.8009 20.7061 22.5201 20.816 22.0684C20.9259 21.6044 20.6451 21.1527 20.1934 21.0428Z" fill="#00093C"/>
    <path d="M28.4221 34.3016C28.5686 34.5946 28.8616 34.7533 29.1668 34.7533C29.2889 34.7533 29.4232 34.7289 29.5453 34.6678C29.5941 34.6434 34.5021 32.1528 36.9194 31.3837C37.3589 31.2494 37.6031 30.7732 37.4566 30.3337C37.3223 29.8942 36.8583 29.65 36.4066 29.7843C33.855 30.5901 28.9837 33.0685 28.7761 33.1662C28.3855 33.3859 28.2145 33.8865 28.4221 34.3016Z" fill="#00093C"/>
    <path d="M20.1934 26.0484C15.0413 24.8398 9.19327 26.3781 8.94909 26.4513C8.50957 26.5734 8.24098 27.0251 8.36307 27.4769C8.46074 27.8553 8.80259 28.0995 9.16885 28.0995C9.2421 28.0995 9.31535 28.0873 9.38861 28.0751C9.44965 28.0629 15.0779 26.5734 19.8149 27.6966C20.2666 27.8065 20.7061 27.5257 20.816 27.074C20.9259 26.5978 20.6451 26.1583 20.1934 26.0484Z" fill="#00093C"/>
    <path d="M20.1934 36.0474C15.0413 34.8388 9.19327 36.3771 8.94909 36.4381C8.50957 36.5602 8.24098 37.0119 8.36307 37.4637C8.46074 37.8421 8.80259 38.0863 9.16885 38.0863C9.2421 38.0863 9.31535 38.0741 9.38861 38.0619C9.44965 38.0497 15.0779 36.5602 19.8149 37.6834C20.2666 37.7811 20.7061 37.5125 20.816 37.0608C20.9259 36.609 20.6451 36.1573 20.1934 36.0474Z" fill="#00093C"/>
    <path d="M20.1934 31.0541C15.0413 29.8454 9.19327 31.3837 8.94909 31.457C8.50957 31.579 8.24098 32.0308 8.36307 32.4825C8.46074 32.861 8.80259 33.1051 9.16885 33.1051C9.2421 33.1051 9.31535 33.0929 9.38861 33.0807C9.44965 33.0685 15.0779 31.579 19.8149 32.7022C20.2666 32.8121 20.7061 32.5313 20.816 32.0796C20.9259 31.6035 20.6451 31.1517 20.1934 31.0541Z" fill="#00093C"/>
</svg>