<?xml version="1.0" encoding="utf-8"?>
<!-- Generator: Adobe Illustrator 24.0.1, SVG Export Plug-In . SVG Version: 6.00 Build 0)  -->
<svg version="1.1" id="Layer_1" xmlns="http://www.w3.org/2000/svg" xmlns:xlink="http://www.w3.org/1999/xlink" x="0px" y="0px"
	 viewBox="0 0 561.8 315.9" style="enable-background:new 0 0 561.8 315.9;" xml:space="preserve">
<style type="text/css">
	.st0{fill:#F9B232;}
	.st1{fill:#353E92;}
	.st2{fill:url(#SVGID_1_);}
	.st3{fill:#FFFFFF;}
	.st4{fill:url(#SVGID_2_);}
	.st5{fill:#161514;}
	.st6{font-family:'Montserrat-SemiBold';}
	.st7{font-size:24px;}
</style>
<g>
	<path class="st0" d="M411.9,200h-37.1c-14.5,0-26.2,11.7-26.2,26.2v0c0,14.5,11.7,26.2,26.2,26.2h37.1c14.5,0,26.2-11.7,26.2-26.2
		v0C438.1,211.8,426.3,200,411.9,200z"/>
	<path class="st1" d="M411.5,200h-26.1c-14.5,0-26.2,11.7-26.2,26.2v0c0,14.5,11.7,26.2,26.2,26.2h26.1c14.5,0,26.2-11.7,26.2-26.2
		v0C437.7,211.8,426,200,411.5,200z"/>
	
		<linearGradient id="SVGID_1_" gradientUnits="userSpaceOnUse" x1="322.0801" y1="268.2531" x2="552.7393" y2="72.9961" gradientTransform="matrix(-1 0 0 1 894.1111 0)">
		<stop  offset="0" style="stop-color:#F3733A"/>
		<stop  offset="1" style="stop-color:#E63425"/>
	</linearGradient>
	<path class="st2" d="M355.7,85.2c-11.2-3.5-21.4-20.2-11.6-15.8c8.3,3.7,22.9,3,29.1,2.5c22.2-12.1,49.4-12,71.5,0.3
		c7.2,0.3,17.6,0.1,24-2.8c8.8-3.9,1.4,9.3-8.4,14.5c0.2,0.2,0.4,0.3,0.5,0.5l76.6,76.6c28.7,28.7,28.7,75.7,0,104.4l0,0
		c-28.7,28.7-75.7,28.7-104.4,0l-76.6-76.6C328.1,160.3,327.9,113.9,355.7,85.2z"/>
	<path class="st3" d="M345.6,136.4c0,32.8,26.6,59.3,59.3,59.3s59.3-26.6,59.3-59.3c0-25.3-15.9-47-38.3-55.5
		c-6.5-2.5-18.2,6.2-21.1,8.9c-8.1-6.5-16-11.1-23.1-8.1C360.6,90.7,345.6,111.8,345.6,136.4z"/>
	<path class="st1" d="M375.7,105.8c2,0,3.9,0.4,5.6,1.1c-2.6,1.4-4.3,4.2-4.3,7.4c0,4.7,3.8,8.4,8.4,8.4c2.1,0,4-0.8,5.5-2
		c0,0.1,0,0.3,0,0.4c0,8.4-6.8,15.3-15.3,15.3c-8.4,0-15.3-6.8-15.3-15.3S367.3,105.8,375.7,105.8z"/>
	<path class="st1" d="M434.3,105.8c2,0,3.9,0.4,5.6,1.1c-2.6,1.4-4.3,4.2-4.3,7.4c0,4.7,3.8,8.4,8.4,8.4c2.1,0,4-0.8,5.5-2
		c0,0.1,0,0.3,0,0.4c0,8.4-6.8,15.3-15.3,15.3c-8.4,0-15.3-6.8-15.3-15.3S425.9,105.8,434.3,105.8z"/>
	<path class="st1" d="M391.4,142.5c0,7.5,13.6,12.6,13.6,12.6s13.6-5.1,13.6-12.6s-6.1-13.6-13.6-13.6S391.4,135,391.4,142.5z"/>
	<path class="st0" d="M486.9,163.9l26.2,26.2c10.2,10.2,26.8,10.2,37,0v0c10.2-10.2,10.2-26.8,0-37L524,126.8
		c-10.2-10.2-26.8-10.2-37,0l0,0C476.7,137,476.7,153.6,486.9,163.9z"/>
	<path class="st1" d="M487.2,164.1l18.4,18.4c10.2,10.2,26.8,10.2,37,0l0,0c10.2-10.2,10.2-26.8,0-37l-18.4-18.4
		c-10.2-10.2-26.8-10.2-37,0l0,0C477,137.3,477,153.9,487.2,164.1z"/>
	<path class="st0" d="M434.6,313.5h36.7c5,0,9-4,9-9v0c0-5-4-9-9-9h-36.7c-5,0-9,4-9,9v0C425.6,309.4,429.7,313.5,434.6,313.5z"/>
	<path class="st0" d="M509,313.5h36.7c5,0,9-4,9-9v0c0-5-4-9-9-9H509c-5,0-9,4-9,9v0C500,309.4,504,313.5,509,313.5z"/>
</g>
<linearGradient id="SVGID_2_" gradientUnits="userSpaceOnUse" x1="321.2851" y1="308.3617" x2="11.0578" y2="308.3617" gradientTransform="matrix(1 0 0 -1 0 388.8085)">
	<stop  offset="0" style="stop-color:#F7941D"/>
	<stop  offset="1" style="stop-color:#27AAE1"/>
</linearGradient>
<path class="st4" d="M262.7,121.5v-1h0.4l0.3,0.2L262.7,121.5z M296.9,148.9l0.6-0.8l0,0L296.9,148.9z M300.2,121.5h-1v-1h1V121.5z
	 M10.2,31.5c0-11.6,9.4-21,21-21v2c-10.5,0-19,8.5-19,19H10.2z M10.2,101.5v-70h1.4v70H10.2z M31.2,122.5c-11.6,0-21-9.4-21-21h2
	c0,10.5,8.5,19,19,19V122.5z M262.7,122.5H31.3v-2h231.4V122.5z M296.3,149.7L262,122.3l1.3-1.6l34.3,27.4L296.3,149.7z
	 M301.2,147.4c0,2.5-2.9,3.9-4.9,2.3l1.2-1.6c0.7,0.5,1.6,0.1,1.6-0.8H301.2z M301.2,121.5v25.8h-2v-25.8H301.2z M301.2,122.5h-1v-2
	h1V122.5z M322.2,101.5c0,11.6-9.4,21-21,21v-2c10.5,0,19-8.5,19-19H322.2z M322.2,31.5v70h-2v-70H322.2z M301.2,10.5
	c11.6,0,21,9.4,21,21h-2c0-10.5-8.5-19-19-19V10.5z M31.3,10.5h269.9v2H31.3V10.5z"/>
<text transform="matrix(1 0 0 1 56.0505 54.3024)"><tspan x="0" y="0" class="st5 st6 st7">Первое занятие</tspan><tspan x="0" y="35" class="st5 st6 st7">бесплатно</tspan></text>
</svg>
