<svg width="130" height="130" viewBox="0 0 130 130" fill="none" xmlns="http://www.w3.org/2000/svg">
    <path d="M127.849 32.8198L127.83 32.8374L127.811 32.856L99.7672 60.9321C97.5998 63.102 97.5998 66.898 99.7672 69.0679L127.811 97.144C129.199 98.533 129.199 101.064 127.811 102.453L102.335 127.959C100.948 129.347 98.4217 129.347 97.0349 127.959L68.9908 99.8827C66.8228 97.7122 63.0291 97.7122 60.861 99.8827L32.817 127.959C31.4301 129.347 28.904 129.347 27.5172 127.959L2.04059 102.453C0.653137 101.064 0.653137 98.533 2.04059 97.144L30.0846 69.0679C32.252 66.898 32.252 63.102 30.0846 60.9321L2.04059 32.856C0.653137 31.467 0.653137 28.936 2.04059 27.547L27.5172 2.0413C28.904 0.652898 31.4301 0.652899 32.817 2.0413L60.861 30.1173C63.0291 32.2879 66.8228 32.2879 68.9908 30.1173L97.0349 2.0413C98.4217 0.6529 100.948 0.652897 102.335 2.0413L127.811 27.547C129.418 29.1556 129.362 31.4572 127.849 32.8198Z" stroke="url(#paint0_linear_188_3181)" stroke-width="2"/>
    <defs>
        <linearGradient id="paint0_linear_188_3181" x1="0" y1="65" x2="130" y2="65" gradientUnits="userSpaceOnUse">
            <stop stop-color="#F7941D"/>
            <stop offset="1" stop-color="#27AAE1"/>
        </linearGradient>
    </defs>
</svg>