<?xml version="1.0" ?><!DOCTYPE svg  PUBLIC '-//W3C//DTD SVG 1.1//EN'  'http://www.w3.org/Graphics/SVG/1.1/DTD/svg11.dtd'><svg height="8.4666mm" style="shape-rendering:geometricPrecision; text-rendering:geometricPrecision; image-rendering:optimizeQuality; fill-rule:evenodd; clip-rule:evenodd" version="1.1" viewBox="0 0 846.66 846.66" width="8.4666mm" xml:space="preserve" xmlns="http://www.w3.org/2000/svg" xmlns:xlink="http://www.w3.org/1999/xlink"><defs><style type="text/css">
   <![CDATA[
    .fil0 {fill:black;fill-rule:nonzero}
   ]]>
  </style></defs><g id="Layer_x0020_1"><path class="fil0" d="M303.84 160.66l238.98 0 0 -69.74c0,-11.44 9.28,-20.71 20.71,-20.71l92.72 0c11.43,0 20.7,9.27 20.7,20.71l0 69.74 51.66 0c59.94,0 108.9,48.96 108.9,108.9l0 397.99c0,59.94 -48.96,108.9 -108.9,108.9l-610.56 0c-59.94,0 -108.9,-48.96 -108.9,-108.9l0 -397.99c0,-59.94 48.96,-108.9 108.9,-108.9l51.66 0 0 -69.74c0,-11.44 9.27,-20.71 20.71,-20.71l92.71 0c11.44,0 20.71,9.27 20.71,20.71l0 69.74zm-180.15 229.86l57.67 0 0 57.67 -57.67 0 0 -57.67zm0 187.12l57.67 0 0 57.66 -57.67 0 0 -57.66zm432.47 0l57.67 0 0 57.66 -57.67 0 0 -57.66zm-144.16 0l57.67 0 0 57.66 -57.67 0 0 -57.66zm-144.15 0l57.66 0 0 57.66 -57.66 0 0 -57.66zm-144.16 -93.56l57.67 0 0 57.67 -57.67 0 0 -57.67zm432.47 0l57.67 0 0 57.67 -57.67 0 0 -57.67zm-144.16 0l57.67 0 0 57.67 -57.67 0 0 -57.67zm-144.15 0l57.66 0 0 57.67 -57.66 0 0 -57.67zm288.31 -93.56l57.67 0 0 57.67 -57.67 0 0 -57.67zm-144.16 0l57.67 0 0 57.67 -57.67 0 0 -57.67zm-144.15 0l57.66 0 0 57.67 -57.66 0 0 -57.67zm-217.28 -88.54l612.45 0c27.24,0 27.24,41.42 0,41.42l-612.45 0 0 324.15c0,37.07 30.41,67.48 67.48,67.48l610.56 0c37.07,0 67.48,-30.41 67.48,-67.48l0 -397.99c0,-37.07 -30.41,-67.48 -67.48,-67.48l-51.66 0 0 33.56c0,11.43 -9.27,20.71 -20.7,20.71l-92.72 0c-11.43,0 -20.71,-9.28 -20.71,-20.71l0 -33.56 -238.98 0 0 33.56c0,11.43 -9.27,20.71 -20.71,20.71l-92.71 0c-11.44,0 -20.71,-9.28 -20.71,-20.71l0 -33.56 -51.66 0c-37.07,0 -67.48,30.41 -67.48,67.48l0 32.42zm211.85 -190.35l-51.29 0 0 103.3 51.29 0 0 -103.3zm373.12 0l-51.3 0 0 103.3 51.3 0 0 -103.3z"/></g></svg>