<?xml version='1.0' encoding='iso-8859-1'?>
<svg version="1.1" xmlns="http://www.w3.org/2000/svg" viewBox="0 0 313.222 313.222" xmlns:xlink="http://www.w3.org/1999/xlink" enable-background="new 0 0 313.222 313.222">
  <g>
    <path d="m284.719,127.742c4.716-7.047 7.622-15.643 7.622-25.075 0-24.362-17.401-43.503-40.023-43.503s-40.023,19.141-40.023,43.503c0,9.414 2.906,18.01 7.622,25.075-6.63,2.314-12.529,6.195-17.227,11.311 0.574-3.306 0.905-6.734 0.905-10.267 0-29.582-20.882-52.204-46.983-52.204s-46.983,22.621-46.983,52.204c0,3.533 0.331,6.96 0.905,10.267-4.716-5.099-10.614-8.996-17.227-11.311 4.716-7.047 7.622-15.643 7.622-25.075 0-24.362-17.401-43.503-40.023-43.503s-40.023,19.141-40.023,43.503c0,9.414 2.906,18.01 7.622,25.075-16.341,5.708-28.505,21.334-28.505,39.31v29.582c0,5.22 3.48,8.701 8.701,8.701s8.701-3.48 8.701-8.701v-29.582c0-13.921 10.441-24.362 24.362-24.362h3.48c0,0 0-0.226 0-0.244 4.907,2.366 10.215,3.724 15.661,3.724 5.446,0 10.754-1.357 15.661-3.724v0.244h3.48c13.921,0 24.362,10.441 24.362,24.362 0,0.348 0.139,0.609 0.157,0.922-12.686,9.171-21.038,23.996-21.038,40.84v36.543c0,5.22 3.48,8.701 8.701,8.701 5.22,0 8.701-3.48 8.701-8.701v-36.543c0-17.401 15.661-33.062 33.062-33.062h2.193c6.178,3.254 13.051,5.22 20.429,5.22s14.234-1.966 20.429-5.22h2.193c17.401,0 33.062,15.661 33.062,33.062v36.543c0,5.22 3.48,8.701 8.701,8.701 5.22,0 8.701-3.48 8.701-8.701v-36.543c0-16.827-8.353-31.67-21.038-40.84 0.035-0.331 0.157-0.592 0.157-0.922 0-13.921 10.441-24.362 24.362-24.362h3.48c0,0 0-0.226 0-0.244 4.907,2.366 10.215,3.724 15.661,3.724s10.754-1.357 15.661-3.724v0.244h3.48c13.921,0 24.362,10.441 24.362,24.362v29.582c0,5.22 3.48,8.701 8.701,8.701s8.701-3.48 8.701-8.701v-29.582c-0.004-17.993-12.185-33.602-28.507-39.31zm-246.436-25.075c-1.42109e-14-13.921 10.441-26.102 22.621-26.102s22.621,12.181 22.621,26.102-10.441,26.102-22.621,26.102-22.621-12.181-22.621-26.102zm88.746,26.102c0-19.141 13.921-34.802 29.582-34.802s29.582,15.661 29.582,34.802-12.181,34.802-29.582,34.802-29.582-15.661-29.582-34.802zm102.667-26.102c0-13.921 10.441-26.102 22.621-26.102s22.621,12.181 22.621,26.102-10.441,26.102-22.621,26.102-22.621-12.181-22.621-26.102z"/>
  </g>
</svg>
