<?xml version='1.0' encoding='iso-8859-1'?>
<svg version="1.1" xmlns="http://www.w3.org/2000/svg" viewBox="0 0 137.144 137.144" xmlns:xlink="http://www.w3.org/1999/xlink" enable-background="new 0 0 137.144 137.144">
  <g>
    <g>
      <path d="M123.429,68.572V41.143H96v27.428H123.429z M68.572,123.429V96H41.143v27.429H68.572z M109.715,0H27.429    C12.28,0,0,12.28,0,27.429v82.286c0,15.148,12.28,27.429,27.429,27.429h82.286c15.149,0,27.429-12.28,27.429-27.429V27.429    C137.144,12.28,124.864,0,109.715,0z M123.429,96H96v27.429l-61.714,0.001c-11.361,0-20.572-9.21-20.572-20.572V96h27.428V68.572    H13.715V41.143h27.428V13.714h27.429v27.429H96V13.714h6.857c11.361,0,20.572,9.21,20.572,20.571L123.429,96z M68.572,68.572V96    H96V68.572H68.572z M68.572,41.143H41.143v27.428h27.429V41.143z"/>
    </g>
  </g>
</svg>
