<?xml version="1.0" encoding="iso-8859-1"?>
<!-- Generator: Adobe Illustrator 19.0.0, SVG Export Plug-In . SVG Version: 6.00 Build 0)  -->
<svg version="1.1" id="Capa_1" xmlns="http://www.w3.org/2000/svg" xmlns:xlink="http://www.w3.org/1999/xlink" x="0px" y="0px"
	 viewBox="0 0 463 463" style="fill: #f7f7f7; enable-background:new 0 0 463 463;" xml:space="preserve">
<g>
	<path d="M383,189.836V151.5C383,67.963,315.037,0,231.5,0S80,67.963,80,151.5v38.336C65.39,201.48,56,219.409,56,239.5v48
		C56,384.271,134.729,463,231.5,463S407,384.271,407,287.5v-48C407,219.409,397.61,201.48,383,189.836z M95,151.5
		C95,76.233,156.233,15,231.5,15S368,76.233,368,151.5v29.422c-7.543-3.167-15.82-4.922-24.5-4.922H343v-24.5
		C343,90.019,292.981,40,231.5,40S120,90.019,120,151.5V176h-0.5c-8.68,0-16.957,1.755-24.5,4.922V151.5z M135,176v-24.5
		c0-53.21,43.29-96.5,96.5-96.5S328,98.29,328,151.5V176H135z M392,287.5C392,376,320,448,231.5,448S71,376,71,287.5v-48
		c0-26.743,21.757-48.5,48.5-48.5h224c26.743,0,48.5,21.757,48.5,48.5V287.5z"/>
	<path d="M263,287.5c0-9.337-4.106-18.137-11.266-24.143c-7.155-6.003-16.6-8.501-25.919-6.855
		c-12.863,2.273-23.308,12.892-25.397,25.821c-1.951,12.084,3.092,23.833,12.771,30.72l-4.313,44.977
		c-0.416,4.339,1.025,8.678,3.957,11.903c2.932,3.227,7.112,5.077,11.472,5.077h14.393c4.359,0,8.54-1.851,11.472-5.077
		c2.932-3.226,4.373-7.564,3.957-11.902l-4.313-44.974C258.058,307.196,263,297.814,263,287.5z M238.628,302.291
		c-2.824,1.366-4.5,4.346-4.2,7.468l4.766,49.694c0.006,0.061,0.021,0.22-0.127,0.383c-0.149,0.164-0.31,0.164-0.37,0.164h-14.393
		c-0.061,0-0.221,0-0.37-0.164c-0.148-0.163-0.133-0.322-0.127-0.384l4.766-49.693c0.3-3.122-1.376-6.102-4.199-7.467
		c-5.533-2.678-10.508-9.15-9.146-17.576c1.07-6.627,6.622-12.28,13.199-13.442c1.041-0.184,2.074-0.274,3.093-0.274
		c3.888,0,7.562,1.322,10.576,3.852c3.753,3.147,5.905,7.758,5.905,12.649C248,293.827,244.408,299.495,238.628,302.291z"/>
</g>
<g>
</g>
<g>
</g>
<g>
</g>
<g>
</g>
<g>
</g>
<g>
</g>
<g>
</g>
<g>
</g>
<g>
</g>
<g>
</g>
<g>
</g>
<g>
</g>
<g>
</g>
<g>
</g>
<g>
</g>
</svg>
