<svg width="249" height="62" viewBox="0 0 249 62" fill="none" xmlns="http://www.w3.org/2000/svg">
<path fill-rule="evenodd" clip-rule="evenodd" d="M11.0015 1C5.4787 1 1.00154 5.47715 1.00154 11V51C1.00154 56.5229 5.4787 61 11.0015 61H230.002C235.524 61 240.002 56.5228 240.002 51V46H245.84C247.517 46 248.449 44.0601 247.402 42.7506L240.002 33.5004V11C240.002 5.47715 235.524 1 230.002 1H11.0015Z" fill="white"/>
<path d="M240.002 46H239.002V45H240.002V46ZM247.402 42.7506L246.621 43.3753H246.621L247.402 42.7506ZM240.002 33.5004L239.221 34.1251L239.002 33.8512V33.5004H240.002ZM0.00154114 11C0.00154114 4.92487 4.92641 0 11.0015 0V2C6.03099 2 2.00154 6.02944 2.00154 11H0.00154114ZM0.00154114 51V11H2.00154V51H0.00154114ZM11.0015 62C4.92641 62 0.00154114 57.0751 0.00154114 51H2.00154C2.00154 55.9706 6.03098 60 11.0015 60V62ZM230.002 62H11.0015V60H230.002V62ZM241.002 51C241.002 57.0751 236.077 62 230.002 62V60C234.972 60 239.002 55.9706 239.002 51H241.002ZM241.002 46V51H239.002V46H241.002ZM240.002 45H245.84V47H240.002V45ZM245.84 45C246.678 45 247.145 44.0301 246.621 43.3753L248.183 42.1259C249.754 44.0902 248.356 47 245.84 47V45ZM246.621 43.3753L239.221 34.1251L240.782 32.8757L248.183 42.1259L246.621 43.3753ZM241.002 11V33.5004H239.002V11H241.002ZM230.002 0C236.077 0 241.002 4.92487 241.002 11H239.002C239.002 6.02944 234.972 2 230.002 2V0ZM11.0015 0H230.002V2H11.0015V0Z" fill="url(#paint0_linear_222_715)"/>
<defs>
<linearGradient id="paint0_linear_222_715" x1="247.844" y1="31" x2="1.00157" y2="31" gradientUnits="userSpaceOnUse">
<stop stop-color="#F7941D"/>
<stop offset="1" stop-color="#27AAE1"/>
</linearGradient>
</defs>
</svg>
