<svg width="352" height="140" viewBox="0 0 352 140" fill="none" xmlns="http://www.w3.org/2000/svg">
<path fill-rule="evenodd" clip-rule="evenodd" d="M21 1C9.95432 1 1 9.95431 1 21V91C1 102.046 9.95432 111 21 111H292.5L326.751 138.4C328.06 139.448 330 138.516 330 136.839V111H331C342.046 111 351 102.046 351 91V21C351 9.95431 342.046 1 331 1H21Z" fill="white"/>
<path d="M292.5 111V110H292.851L293.125 110.219L292.5 111ZM326.751 138.4L327.375 137.62L326.751 138.4ZM330 111H329V110H330V111ZM0 21C0 9.40202 9.40204 0 21 0V2C10.5066 2 2 10.5066 2 21H0ZM0 91V21H2V91H0ZM21 112C9.40204 112 0 102.598 0 91H2C2 101.493 10.5066 110 21 110V112ZM292.5 112H21V110H292.5V112ZM326.126 139.181L291.875 111.781L293.125 110.219L327.375 137.62L326.126 139.181ZM331 136.839C331 139.354 328.09 140.753 326.126 139.181L327.375 137.62C328.03 138.143 329 137.677 329 136.839H331ZM331 111V136.839H329V111H331ZM331 112H330V110H331V112ZM352 91C352 102.598 342.598 112 331 112V110C341.493 110 350 101.493 350 91H352ZM352 21V91H350V21H352ZM331 0C342.598 0 352 9.40202 352 21H350C350 10.5066 341.493 2 331 2V0ZM21 0H331V2H21V0Z" fill="url(#paint0_linear_88_6041)"/>
<defs>
<linearGradient id="paint0_linear_88_6041" x1="351" y1="69.9212" x2="1.00004" y2="69.9212" gradientUnits="userSpaceOnUse">
<stop stop-color="#F7941D"/>
<stop offset="1" stop-color="#27AAE1"/>
</linearGradient>
</defs>
</svg>
