<svg width="262" height="220" viewBox="0 0 262 220" fill="none" xmlns="http://www.w3.org/2000/svg">
<path fill-rule="evenodd" clip-rule="evenodd" d="M21 1C9.95431 1 1 9.95431 1 21V171C1 182.046 9.9543 191 21 191H141V216.839C141 218.516 142.94 219.448 144.249 218.4L178.5 191H241C252.046 191 261 182.046 261 171V21C261 9.95431 252.046 1 241 1H21Z" fill="white"/>
<path d="M141 191H142V190H141V191ZM144.249 218.4L143.625 217.62L144.249 218.4ZM178.5 191V190H178.149L177.875 190.219L178.5 191ZM2 21C2 10.5066 10.5066 2 21 2V0C9.40202 0 0 9.40202 0 21H2ZM2 171V21H0V171H2ZM21 190C10.5066 190 2 181.493 2 171H0C0 182.598 9.40202 192 21 192V190ZM141 190H21V192H141V190ZM140 191V216.839H142V191H140ZM140 216.839C140 219.354 142.91 220.753 144.874 219.181L143.625 217.62C142.97 218.143 142 217.677 142 216.839H140ZM144.874 219.181L179.125 191.781L177.875 190.219L143.625 217.62L144.874 219.181ZM241 190H178.5V192H241V190ZM260 171C260 181.493 251.493 190 241 190V192C252.598 192 262 182.598 262 171H260ZM260 21V171H262V21H260ZM241 2C251.493 2 260 10.5066 260 21H262C262 9.40202 252.598 0 241 0V2ZM21 2H241V0H21V2Z" fill="url(#paint0_linear_64_4047)"/>
<defs>
<linearGradient id="paint0_linear_64_4047" x1="1" y1="109.921" x2="261" y2="109.921" gradientUnits="userSpaceOnUse">
<stop stop-color="#F7941D"/>
<stop offset="1" stop-color="#27AAE1"/>
</linearGradient>
</defs>
</svg>
