<svg width="248" height="152" viewBox="0 0 248 152" fill="none" xmlns="http://www.w3.org/2000/svg">
<path fill-rule="evenodd" clip-rule="evenodd" d="M37.0016 1C25.9559 1 17.0016 9.9543 17.0016 21V94H3.70317C1.81262 94 0.977505 96.3807 2.45378 97.5617L17.0016 109.2V131C17.0016 142.046 25.9559 151 37.0016 151H227.002C238.047 151 247.002 142.046 247.002 131V21C247.002 9.95431 238.047 1 227.002 1H37.0016Z" fill="white"/>
<path d="M17.0016 94V95H18.0016V94H17.0016ZM2.45378 97.5617L3.07848 96.7809H3.07848L2.45378 97.5617ZM17.0016 109.2H18.0016V108.719L17.6263 108.419L17.0016 109.2ZM18.0016 21C18.0016 10.5066 26.5082 2 37.0016 2V0C25.4036 0 16.0016 9.40202 16.0016 21H18.0016ZM18.0016 94V21H16.0016V94H18.0016ZM3.70317 95H17.0016V93H3.70317V95ZM3.07848 96.7809C2.34034 96.1904 2.75789 95 3.70317 95V93C0.867342 93 -0.385331 96.5711 1.82909 98.3426L3.07848 96.7809ZM17.6263 108.419L3.07848 96.7809L1.82909 98.3426L16.3769 109.981L17.6263 108.419ZM18.0016 131V109.2H16.0016V131H18.0016ZM37.0016 150C26.5082 150 18.0016 141.493 18.0016 131H16.0016C16.0016 142.598 25.4036 152 37.0016 152V150ZM227.002 150H37.0016V152H227.002V150ZM246.002 131C246.002 141.493 237.495 150 227.002 150V152C238.6 152 248.002 142.598 248.002 131H246.002ZM246.002 21V131H248.002V21H246.002ZM227.002 2C237.495 2 246.002 10.5066 246.002 21H248.002C248.002 9.40202 238.6 0 227.002 0V2ZM37.0016 2H227.002V0H37.0016V2Z" fill="url(#paint0_linear_222_275)"/>
<defs>
<linearGradient id="paint0_linear_222_275" x1="1.69922" y1="76" x2="247.002" y2="76" gradientUnits="userSpaceOnUse">
<stop stop-color="#F7941D"/>
<stop offset="1" stop-color="#27AAE1"/>
</linearGradient>
</defs>
</svg>
