<svg width="352" height="140" viewBox="0 0 352 140" fill="none" xmlns="http://www.w3.org/2000/svg">
<path fill-rule="evenodd" clip-rule="evenodd" d="M21 1C9.95431 1 1 9.95431 1 21V91C1 102.046 9.9543 111 21 111H141V136.839C141 138.516 142.94 139.448 144.249 138.4L178.5 111H331C342.046 111 351 102.046 351 91V21C351 9.95431 342.046 1 331 1H21Z" fill="white"/>
<path d="M141 111H142V110H141V111ZM144.249 138.4L143.625 137.62L144.249 138.4ZM178.5 111V110H178.149L177.875 110.219L178.5 111ZM2 21C2 10.5066 10.5066 2 21 2V0C9.40202 0 0 9.40202 0 21H2ZM2 91V21H0V91H2ZM21 110C10.5066 110 2 101.493 2 91H0C0 102.598 9.40202 112 21 112V110ZM141 110H21V112H141V110ZM140 111V136.839H142V111H140ZM140 136.839C140 139.354 142.91 140.753 144.874 139.181L143.625 137.62C142.97 138.143 142 137.677 142 136.839H140ZM144.874 139.181L179.125 111.781L177.875 110.219L143.625 137.62L144.874 139.181ZM331 110H178.5V112H331V110ZM350 91C350 101.493 341.493 110 331 110V112C342.598 112 352 102.598 352 91H350ZM350 21V91H352V21H350ZM331 2C341.493 2 350 10.5066 350 21H352C352 9.40202 342.598 0 331 0V2ZM21 2H331V0H21V2Z" fill="url(#paint0_linear_163_4409)"/>
<defs>
<linearGradient id="paint0_linear_163_4409" x1="1" y1="69.9212" x2="351" y2="69.9212" gradientUnits="userSpaceOnUse">
<stop stop-color="#F7941D"/>
<stop offset="1" stop-color="#27AAE1"/>
</linearGradient>
</defs>
</svg>
