<svg width="27" height="16" viewBox="0 0 27 16" fill="none" xmlns="http://www.w3.org/2000/svg">
<path d="M25.5469 1.71484C25.4531 2.18359 25.0781 2.94922 24.4219 4.01172C23.7969 5.07422 23.2188 6.01172 22.6875 6.82422C22.1562 7.60547 21.875 8.01172 21.8438 8.04297C21.6562 8.32422 21.5625 8.52734 21.5625 8.65234C21.5625 8.77734 21.6562 8.99609 21.8438 9.30859C21.8438 9.30859 21.9375 9.41797 22.125 9.63672C22.3438 9.85547 22.5938 10.1055 22.875 10.3867C23.1562 10.668 23.4688 10.9961 23.8125 11.3711C24.1562 11.7461 24.4688 12.1211 24.75 12.4961C25.0625 12.8398 25.3281 13.1992 25.5469 13.5742C25.7969 13.9492 25.9688 14.2617 26.0625 14.5117C26.2812 15.293 25.9688 15.6836 25.125 15.6836H22.3594C22.1406 15.6836 21.9531 15.6523 21.7969 15.5898C21.6406 15.5273 21.4688 15.418 21.2812 15.2617C21.0938 15.1055 20.9219 14.9336 20.7656 14.7461C20.6094 14.5586 20.375 14.293 20.0625 13.9492C19.75 13.6055 19.4375 13.2773 19.125 12.9648C17.875 11.7773 16.9531 11.1836 16.3594 11.1836C15.9844 11.1836 15.7656 11.293 15.7031 11.5117C15.6406 11.7305 15.6094 12.3555 15.6094 13.3867C15.6406 13.8867 15.6562 14.293 15.6562 14.6055C15.6562 14.9805 15.5312 15.2617 15.2812 15.4492C15.0312 15.6055 14.4844 15.6836 13.6406 15.6836C12.1719 15.6836 10.6875 15.2461 9.1875 14.3711C7.6875 13.4961 6.375 12.2461 5.25 10.6211C4.1875 9.18359 3.29688 7.76172 2.57812 6.35547C1.89062 4.91797 1.4375 3.82422 1.21875 3.07422C1 2.32422 0.890625 1.79297 0.890625 1.48047C0.890625 0.949219 1.20312 0.683594 1.82812 0.683594H4.59375C4.9375 0.683594 5.1875 0.761719 5.34375 0.917969C5.53125 1.07422 5.6875 1.35547 5.8125 1.76172C6.46875 3.66797 7.26562 5.37109 8.20312 6.87109C9.17188 8.37109 9.90625 9.12109 10.4062 9.12109C10.5938 9.12109 10.7188 9.05859 10.7812 8.93359C10.875 8.77734 10.9219 8.49609 10.9219 8.08984V4.01172C10.8906 3.57422 10.8125 3.19922 10.6875 2.88672C10.5625 2.57422 10.4375 2.35547 10.3125 2.23047C10.1875 2.07422 10.0625 1.91797 9.9375 1.76172C9.84375 1.60547 9.79688 1.46484 9.79688 1.33984C9.79688 1.21484 9.82812 1.10547 9.89062 1.01172C9.95312 0.917969 10.0312 0.839844 10.125 0.777344C10.25 0.714844 10.375 0.683594 10.5 0.683594H14.8594C15.3594 0.683594 15.6094 1.02734 15.6094 1.71484V7.15234C15.6094 7.68359 15.75 7.94922 16.0312 7.94922C16.3438 7.94922 16.7812 7.66797 17.3438 7.10547C17.9375 6.44922 18.5156 5.65234 19.0781 4.71484C19.6406 3.77734 20.0625 2.99609 20.3438 2.37109L20.7656 1.48047C20.9844 0.949219 21.375 0.683594 21.9375 0.683594H24.7031C25.4531 0.683594 25.7344 1.02734 25.5469 1.71484Z" fill="#00093C"/>
</svg>
