<svg width="98" height="16" viewBox="0 0 98 16" fill="none" xmlns="http://www.w3.org/2000/svg">
<path fill-rule="evenodd" clip-rule="evenodd" d="M55.567 0.789062C55.5299 3.7493 55.3279 5.41314 54.2178 6.52341C53.1077 7.63368 51.4443 7.83573 48.4844 7.87253V8.31019C51.4443 8.34698 53.1077 8.54903 54.2178 9.65931C55.3279 10.7696 55.5299 12.4334 55.567 15.3937H56.0044C56.0415 12.4334 56.2435 10.7696 57.3536 9.65931C58.4637 8.54903 60.1272 8.34694 63.0875 8.31019V7.87253C60.1272 7.83573 58.4637 7.63368 57.3536 6.52341C56.2435 5.41314 56.0415 3.7493 56.0044 0.789062H55.567Z" fill="#00093C"/>
<path d="M5.90248 13.5689H7.81667V2.57288H5.03234C2.23222 2.57288 0.760921 4.01266 0.760921 6.13275C0.760921 7.82563 1.56774 8.82242 3.00737 9.85083L0.507812 13.5689H2.58027L5.3646 9.4078L4.39956 8.75915C3.22887 7.96806 2.65933 7.35098 2.65933 6.02197C2.65933 4.85118 3.48198 4.0601 5.04817 4.0601H5.90248V13.5689ZM42.8107 13.7271C43.6807 13.7271 44.2978 13.5689 44.7566 13.2367V11.7019C44.2821 12.0342 43.7126 12.2399 42.9215 12.2399C41.5766 12.2399 41.0232 11.1957 41.0232 9.55023C41.0232 7.82563 41.7035 6.93966 42.9372 6.93966C43.665 6.93966 44.3767 7.19277 44.7566 7.43009V5.83214C44.361 5.6106 43.665 5.45239 42.7318 5.45239C40.3272 5.45239 39.0773 7.17698 39.0773 9.59768C39.0773 12.2557 40.2953 13.7271 42.8107 13.7271ZM31.0406 13.031V11.4963C30.4552 11.8918 29.4744 12.2399 28.5568 12.2399C27.1805 12.2399 26.6584 11.5912 26.5793 10.2622H31.1197V9.26541C31.1197 6.49662 29.9015 5.45239 28.0189 5.45239C25.725 5.45239 24.6334 7.2086 24.6334 9.61351C24.6334 12.3823 25.994 13.7271 28.3986 13.7271C29.6009 13.7271 30.4869 13.4107 31.0406 13.031ZM13.7967 5.6106V8.75915H11.2813V5.6106H9.39869V13.5689H11.2813V10.2464H13.7967V13.5689H15.6793V5.6106H13.7967ZM24.1747 12.0817H23.3362V5.6106H17.8466V6.29096C17.8466 8.237 17.7201 10.7526 17.0556 12.0817H16.4703V15.3884H18.2105V13.5689H22.4345V15.3884H24.1747V12.0817ZM37.0522 13.5689H39.1881L36.1663 9.28124L38.8239 5.6106H36.9256L34.2679 9.28124V5.6106H32.3853V13.5689H34.2679V9.66095L37.0522 13.5689ZM27.9873 6.93966C28.9207 6.93966 29.2055 7.71491 29.2055 8.71165V8.86987H26.5793C26.6268 7.60414 27.0856 6.93966 27.9873 6.93966ZM21.4536 12.0817H18.7958C19.3179 10.8792 19.4603 8.71165 19.4603 7.3352V7.09787H21.4536V12.0817Z" fill="#00093C"/>
<path d="M68.1196 15.8616V13.5675H74.0047V15.8616H75.7927V12.0802H74.7644V2.57141H68.0407L67.851 8.02988C67.7877 9.80192 67.5976 11.2417 67.0913 12.0802H66.332V15.8616H68.1196ZM69.5277 8.28303L69.6699 4.05864H72.8499V12.0802H68.895C69.2273 11.3366 69.4645 10.055 69.5277 8.28303Z" fill="#00093C"/>
<path d="M79.0023 12.2391C78.0373 12.2391 77.0883 11.891 76.582 11.5113V13.046C76.9457 13.3466 77.8633 13.7264 79.2239 13.7264C81.233 13.7264 82.2931 12.8245 82.2931 11.2266C82.2931 10.293 81.7079 9.66018 80.6634 9.43869C81.6447 9.12225 82.0559 8.42611 82.0559 7.54009C82.0559 6.19525 80.9957 5.45166 79.2871 5.45166C78.0534 5.45166 77.2467 5.83137 76.7879 6.11614V7.65086C77.2937 7.31859 77.9902 6.93889 79.0185 6.93889C79.7145 6.93889 80.1576 7.27115 80.1576 7.85652C80.1576 8.47356 79.7777 8.80582 79.0023 8.80582H77.8162V10.2298H79.0023C79.9674 10.2298 80.3473 10.5146 80.3473 11.2107C80.3473 11.8436 79.8885 12.2391 79.0023 12.2391Z" fill="#00093C"/>
<path d="M89.4149 13.0302V11.4955C88.8292 11.891 87.8484 12.2391 86.9309 12.2391C85.5546 12.2391 85.0326 11.5904 84.9537 10.2614H89.4938V9.26464C89.4938 6.49585 88.2758 5.45166 86.3932 5.45166C84.0994 5.45166 83.0078 7.20782 83.0078 9.61273C83.0078 12.3815 84.368 13.7264 86.7731 13.7264C87.9754 13.7264 88.8611 13.4099 89.4149 13.0302ZM86.3614 6.93889C87.2951 6.93889 87.5798 7.71414 87.5798 8.71088V8.8691H84.9537C85.0012 7.60337 85.46 6.93889 86.3614 6.93889Z" fill="#00093C"/>
<path d="M95.1558 5.61035V8.75885H92.6404V5.61035H90.7578V13.5686H92.6404V10.2461H95.1558V13.5686H97.0385V5.61035H95.1558Z" fill="#00093C"/>
</svg>
