<svg width="23" height="23" viewBox="0 0 23 23" fill="none" xmlns="http://www.w3.org/2000/svg">
<path d="M22.8788 9.83471C23.2394 12.2988 22.7904 14.8134 21.5993 17.0004C20.4082 19.1874 18.5393 20.9287 16.2737 21.9624C14.0081 22.9961 11.4681 23.2665 9.03559 22.7328C6.60311 22.1992 4.4096 20.8903 2.78481 19.003C1.16002 17.1158 0.191774 14.752 0.0256235 12.2673C-0.140527 9.78247 0.504402 7.3109 1.86345 5.2241C3.22251 3.13729 5.22223 1.54805 7.56201 0.69527C9.90178 -0.157506 12.4551 -0.227722 14.8382 0.495178L13.8642 3.70617C12.1765 3.1942 10.3681 3.24393 8.71104 3.84788C7.05396 4.45183 5.63772 5.57737 4.67521 7.05528C3.7127 8.5332 3.25595 10.2836 3.37362 12.0434C3.49129 13.8032 4.17703 15.4772 5.32773 16.8138C6.47844 18.1504 8.03193 19.0774 9.75466 19.4553C11.4774 19.8333 13.2763 19.6418 14.8808 18.9097C16.4854 18.1776 17.809 16.9444 18.6525 15.3955C19.4961 13.8466 19.8141 12.0657 19.5587 10.3206L22.8788 9.83471Z" fill="#00093C"/>
<path d="M8 10.5L11 13.5L20 4" stroke="#F7941D" stroke-width="4" stroke-linecap="round"/>
</svg>
