<svg width="91" height="91" viewBox="0 0 91 91" fill="none" xmlns="http://www.w3.org/2000/svg">
<path d="M89.2938 22.751L89.2742 22.7686L89.2556 22.7872L69.6248 42.4404C67.9906 44.0765 67.9906 46.9235 69.6248 48.5596L89.2556 68.2128C90.1099 69.068 90.1099 70.6499 89.2556 71.5051L71.422 89.3591C70.5684 90.2137 68.9903 90.2137 68.1367 89.3591L48.5058 69.7059C46.871 68.0692 44.0253 68.0692 42.3905 69.7059L22.7596 89.3591C21.906 90.2137 20.3279 90.2137 19.4743 89.3591L1.64067 71.5051C0.786445 70.6499 0.786445 69.068 1.64067 68.2128L21.2715 48.5596C22.9057 46.9235 22.9057 44.0765 21.2715 42.4404L1.64067 22.7872C0.786445 21.932 0.786445 20.3501 1.64067 19.4949L19.4743 1.64092C20.3279 0.786358 21.906 0.786359 22.7596 1.64092L42.3905 21.2942C44.0253 22.9308 46.871 22.9308 48.5058 21.2942L68.1367 1.64092C68.9903 0.786358 70.5684 0.786358 71.422 1.64092L89.2556 19.4949C90.2699 20.5104 90.2136 21.9222 89.2938 22.751Z" stroke="url(#paint0_linear_5_897)" stroke-width="2"/>
<defs>
<linearGradient id="paint0_linear_5_897" x1="0" y1="45.5" x2="91" y2="45.5" gradientUnits="userSpaceOnUse">
<stop stop-color="#F7941D"/>
<stop offset="1" stop-color="#27AAE1"/>
</linearGradient>
</defs>
</svg>
