<svg width="100" height="100" viewBox="0 0 100 100" fill="none" xmlns="http://www.w3.org/2000/svg">
<path d="M98.1912 25.0746L98.1717 25.0922L98.1531 25.1108L76.5807 46.7078C74.8235 48.467 74.8235 51.533 76.5807 53.2923L98.1531 74.8892C99.1304 75.8676 99.1304 77.6685 98.1531 78.6469L78.5557 98.2667C77.579 99.2445 75.7822 99.2445 74.8055 98.2667L53.2331 76.6698C51.4753 74.9099 48.4108 74.9099 46.6529 76.6698L25.0805 98.2667C24.1039 99.2445 22.307 99.2445 21.3304 98.2667L1.73296 78.6469C0.755682 77.6685 0.75568 75.8676 1.73296 74.8892L23.3053 53.2923C25.0625 51.533 25.0625 48.467 23.3053 46.7078L1.73296 25.1108C0.755682 24.1324 0.755681 22.3315 1.73296 21.3531L21.3304 1.73332C22.307 0.75556 24.1039 0.75556 25.0805 1.73332L46.6529 23.3303C48.4108 25.0902 51.4753 25.0902 53.2331 23.3303L74.8055 1.73332C75.7822 0.75556 77.579 0.75556 78.5557 1.73332L98.1531 21.3531C99.3041 22.5054 99.2478 24.1226 98.1912 25.0746Z" stroke="url(#paint0_linear_0_14)" stroke-width="2"/>
<defs>
<linearGradient id="paint0_linear_0_14" x1="0" y1="50" x2="100" y2="50" gradientUnits="userSpaceOnUse">
<stop stop-color="#F7941D"/>
<stop offset="1" stop-color="#27AAE1"/>
</linearGradient>
</defs>
</svg>
