<svg width="113" height="104" viewBox="0 0 113 104" fill="none" xmlns="http://www.w3.org/2000/svg">
<path fill-rule="evenodd" clip-rule="evenodd" d="M60.6474 76.1348C56.4566 86.6334 61.5363 98.3969 71.9498 102.571C82.3632 106.682 94.2371 101.622 98.3643 91.2503L111.762 57.7938C114.81 50.1412 112.08 41.4135 105.222 36.9231L53.6628 2.89749C46.8051 -1.65613 37.6616 -0.770704 31.7564 5.0478L6.04033 30.3457C-1.96024 38.188 -2.02374 51.0267 5.91333 58.9955C13.7869 66.9643 26.6767 67.0276 34.6773 59.122L45.8527 48.1174C46.4876 47.485 47.5036 47.3585 48.2655 47.8644L65.7271 59.375C66.4891 59.8809 66.8065 60.8296 66.4256 61.6518L60.6474 76.1348ZM67.5946 62.1467L61.8275 76.6019L61.8275 76.6021C57.8943 86.4554 62.6611 97.4829 72.4217 101.397C82.1874 105.249 93.3175 100.5 97.1838 90.7842L97.1848 90.7816L110.582 57.3274C113.41 50.2255 110.873 42.1369 104.524 37.9801L104.521 37.9776L52.9613 3.95194L52.9583 3.94995C46.6056 -0.268408 38.1291 0.547929 32.6496 5.94704L32.6488 5.94776L6.93271 31.2456L6.93109 31.2472C-0.56574 38.5958 -0.629232 50.6308 6.81488 58.1046L6.81847 58.1083C14.1963 65.5754 26.2792 65.6386 33.7829 58.224L33.7844 58.2225L44.9547 47.223L44.9576 47.2201C46.0015 46.183 47.6816 45.9583 48.9674 46.8102L48.97 46.812L66.428 58.3202L66.4315 58.3225C67.6496 59.1313 68.2385 60.7112 67.5946 62.1467ZM44.2653 35.4047C51.2789 35.4047 56.9646 29.7415 56.9646 22.7557C56.9646 15.7699 51.2789 10.1068 44.2653 10.1068C37.2517 10.1068 31.566 15.7699 31.566 22.7557C31.566 29.7415 37.2517 35.4047 44.2653 35.4047ZM58.2345 22.7557C58.2345 30.4401 51.9803 36.6696 44.2653 36.6696C36.5503 36.6696 30.296 30.4401 30.296 22.7557C30.296 15.0713 36.5503 8.8419 44.2653 8.8419C51.9803 8.8419 58.2345 15.0713 58.2345 22.7557ZM85.1632 64.8998L85.1604 64.8979L79.6997 61.293L79.6819 61.2812L79.6637 61.27C79.5695 61.2123 79.5117 61.1277 79.4893 61.0162C79.4662 60.9011 79.4832 60.7575 79.5638 60.6201L83.547 54.6223L84.2477 53.5673L83.1885 52.8695L77.1583 48.8964L77.141 48.885L77.1233 48.8741C76.9012 48.7379 76.8481 48.4777 76.9939 48.268L77.0012 48.2575L77.0083 48.2469L80.6276 42.8078L80.6394 42.7901L80.6506 42.7719C80.7085 42.6782 80.7935 42.6206 80.9055 42.5983C81.0209 42.5753 81.1652 42.5922 81.3032 42.6724L87.3254 46.6403L88.3846 47.3382L89.0852 46.2832L93.0741 40.2771L93.0855 40.2598L93.0965 40.2421C93.1544 40.1484 93.2393 40.0908 93.3513 40.0685C93.4667 40.0455 93.6108 40.0624 93.7486 40.1424L99.1869 43.7326L99.2047 43.7443L99.2229 43.7555C99.317 43.8132 99.3748 43.8978 99.3972 44.0093C99.4203 44.1243 99.4033 44.268 99.3228 44.4054L95.3392 50.4037L94.6386 51.4587L95.6977 52.1565L101.727 56.1291L101.745 56.1406L101.762 56.1514C101.856 56.2091 101.914 56.2937 101.937 56.4053C101.96 56.5202 101.943 56.6637 101.862 56.8011L98.2579 62.2177L98.2461 62.2355L98.2349 62.2536C98.177 62.3473 98.092 62.4049 97.98 62.4272C97.8646 62.4502 97.7203 62.4333 97.5824 62.3531L91.5608 58.3857L90.5016 57.6878L89.801 58.7428L85.8218 64.7344C85.6323 64.9986 85.3299 65.0105 85.1632 64.8998ZM81.7872 54.9794L78.4901 59.944C77.9821 60.7662 78.1727 61.8413 78.9981 62.3473L84.4588 65.9522C85.2208 66.4582 86.3002 66.2685 86.8717 65.4463L90.1595 60.4956L90.8602 59.4407L91.9193 60.1385L96.9036 63.4225C97.729 63.9284 98.8085 63.7387 99.3165 62.9165L102.936 57.4775C103.444 56.6553 103.253 55.5801 102.428 55.0742L97.4575 51.7994L96.3984 51.1016L97.099 50.0466L100.396 45.0815C100.904 44.2593 100.714 43.1842 99.8885 42.6782L94.4278 39.0733C93.6023 38.5673 92.5229 38.757 92.0149 39.5792L88.7267 44.5304L88.0261 45.5853L86.9669 44.8875L81.9819 41.6031C81.1564 41.0971 80.077 41.2868 79.569 42.109L75.9497 47.548C75.3783 48.3702 75.6323 49.4454 76.4577 49.9514L81.4287 53.2266L82.4879 53.9244L81.7872 54.9794Z" fill="url(#paint0_linear_0_228)"/>
<defs>
<linearGradient id="paint0_linear_0_228" x1="0" y1="52" x2="113" y2="52" gradientUnits="userSpaceOnUse">
<stop stop-color="#F7941D"/>
<stop offset="1" stop-color="#27AAE1"/>
</linearGradient>
</defs>
</svg>
