<svg width="58" height="47" viewBox="0 0 58 47" fill="none" xmlns="http://www.w3.org/2000/svg">
<path d="M54.6126 3.06682H52.2569V0.829671C52.2569 0.370388 51.8865 0 51.4273 0H46.4048C45.9455 0 45.5751 0.370388 45.5751 0.829671V3.06682H18.0329V0.829671C18.0329 0.370388 17.6625 0 17.2033 0H12.1808C11.7215 0 11.3511 0.370388 11.3511 0.829671V3.06682H9.41027C7.38054 3.06682 5.72119 4.72617 5.72119 6.7559V27.0384C5.72119 27.4977 6.09158 27.8681 6.55086 27.8681C7.01015 27.8681 7.38054 27.4977 7.38054 27.0384V6.7559C7.38054 5.64473 8.28429 4.72617 9.41027 4.72617H54.6274C55.5164 4.72617 56.2423 5.45213 56.2423 6.34107V33.898C56.2423 34.787 55.5164 35.5129 54.6274 35.5129H52.8495V32.3572C52.8495 31.8979 52.4792 31.5276 52.0199 31.5276H43.0713C42.612 31.5276 42.2416 31.8979 42.2416 32.3572V35.5129H28.8483L32.004 34.6536C33.6337 34.2092 35.0709 33.2758 36.1376 31.972L41.5008 25.4532C41.6045 25.3198 41.6786 25.1569 41.6934 24.9939L42.1675 18.7713C42.212 18.1639 41.8416 17.5565 41.2786 17.3194C41.5304 17.1713 41.7082 16.9046 41.7082 16.5934C41.7082 16.1342 41.3378 15.7638 40.8786 15.7638H37.2339C36.7746 15.7638 36.4043 16.1342 36.4043 16.5934C36.4043 17.0527 36.7746 17.4231 37.2339 17.4231H39.96C39.8711 17.4824 39.7822 17.5565 39.7081 17.6305L36.6561 20.6825C36.0635 21.2752 35.5746 22.0159 35.056 22.6678C34.7745 23.0234 34.819 23.5568 35.1894 23.8383C35.545 24.1198 36.0783 24.0753 36.3598 23.7049L37.3228 22.5197L39.7822 24.9791L34.9079 30.9201C34.0486 31.9572 32.9226 32.698 31.6188 33.0536L18.4626 36.8463C17.4403 37.1723 17.9589 38.7576 18.9663 38.4316L21.8554 37.4982V44.4764H20.6997C20.2405 44.4764 19.8701 44.8468 19.8701 45.306C19.8701 45.7653 20.2405 46.1357 20.6997 46.1357H25.7963C26.2556 46.1357 26.626 45.7653 26.626 45.306C26.626 44.8468 26.2556 44.4764 25.7963 44.4764H23.5295V37.1871H54.6571C56.4646 37.1871 57.9313 35.7204 57.9313 33.9129V6.35588C57.8868 4.53357 56.4201 3.06682 54.6126 3.06682ZM47.2196 1.65934H50.5828V3.05201H47.2196V1.65934ZM12.9956 1.65934H16.3588V3.05201H12.9956V1.65934ZM40.4637 19.1862L40.1674 23.0382L38.3895 21.2604L40.4637 19.1862ZM43.8713 35.5129V33.1869H51.1606V35.5129H43.8713Z" fill="#00093C"/>
<path d="M16.67 44.4764H5.97315V40.0465C5.97315 37.2316 6.62503 34.4314 7.85473 31.9128C8.53624 30.5349 9.95854 29.646 11.4994 29.646H25.5445C28.478 29.646 31.3374 28.6089 33.5894 26.7273C33.945 26.431 33.9894 25.9125 33.6931 25.5569C33.3968 25.2013 32.8782 25.1569 32.5227 25.4532C30.567 27.0829 28.0928 27.9867 25.5593 27.9867H19.5146C20.448 27.0088 21.0258 25.6902 21.0258 24.2383V21.1715C23.174 21.0233 24.863 19.2455 24.863 17.0676C24.863 14.8008 23.0111 12.9488 20.7443 12.9488C19.3516 12.9192 18.033 13.2452 17.07 14.2971C16.5959 14.8156 15.9144 15.1119 15.2181 15.1119H12.9217C11.0104 15.1119 9.45481 16.6676 9.45481 18.5788V24.8309C9.45481 25.5421 9.61778 26.2384 10.0474 26.8162C10.24 27.0829 10.4771 27.3051 10.7438 27.4829C11.0401 27.6755 11.4549 27.7496 11.692 27.9867C9.45481 27.9422 7.33619 29.1719 6.35836 31.1868C5.01014 33.9425 4.29899 36.9945 4.29899 40.0614V44.4912H1.82479C1.36551 44.4912 0.995117 44.8616 0.995117 45.3209C0.995117 45.7802 1.36551 46.1506 1.82479 46.1506H16.67C17.1293 46.1506 17.4997 45.7802 17.4997 45.3209C17.5145 44.8468 17.1293 44.4764 16.67 44.4764ZM15.3662 27.957C14.9069 27.9274 14.4477 27.8089 14.0328 27.6163C14.2254 27.5126 14.418 27.394 14.581 27.2607C15.2773 26.6829 15.6625 25.8384 15.6625 24.8754V21.1715H19.3516V24.2235C19.3516 26.2829 17.6775 27.9718 15.6033 27.9718C15.5144 27.9718 15.4403 27.9718 15.3662 27.957ZM11.129 24.8161V18.564C11.129 17.5713 11.9438 16.7565 12.9365 16.7565H15.2181C16.3885 16.7565 17.4997 16.2675 18.2997 15.4082C18.9516 14.6971 19.8405 14.5637 20.7591 14.5934C22.1073 14.5934 23.2037 15.6897 23.2037 17.0379C23.2037 18.3862 22.1073 19.4825 20.7591 19.4825H14.8329C14.3736 19.4825 14.0032 19.8529 14.0032 20.3122V24.8606C14.0032 25.8384 13.1439 26.4458 12.2105 26.2681C11.4697 26.1495 11.129 25.5421 11.129 24.8161Z" fill="#00093C"/>
<path d="M29.5298 12.7267H34.0634C34.5227 12.7267 34.893 12.3563 34.893 11.897V8.83016C34.893 8.37088 34.5227 8.00049 34.0634 8.00049H29.5298C29.0705 8.00049 28.7001 8.37088 28.7001 8.83016V11.897C28.6853 12.3563 29.0557 12.7267 29.5298 12.7267ZM30.3595 9.65983H33.2337V11.0525H30.3595V9.65983Z" fill="#00093C"/>
<path d="M28.6853 18.1046C28.6853 18.5639 29.0557 18.9343 29.515 18.9343H34.0485C34.5078 18.9343 34.8782 18.5639 34.8782 18.1046V15.0378C34.8782 14.5785 34.5078 14.2081 34.0485 14.2081H29.515C29.0557 14.2081 28.6853 14.5785 28.6853 15.0378V18.1046ZM30.3595 15.8823H33.2337V17.275H30.3595V15.8823Z" fill="#00093C"/>
<path d="M37.2044 11.1857H51.9904C52.4497 11.1857 52.82 10.8153 52.82 10.356C52.82 9.89676 52.4497 9.52637 51.9904 9.52637H37.2044C36.7451 9.52637 36.3748 9.89676 36.3748 10.356C36.3748 10.8153 36.7451 11.1857 37.2044 11.1857Z" fill="#00093C"/>
</svg>
