<svg width="41" height="56" viewBox="0 0 41 56" fill="none" xmlns="http://www.w3.org/2000/svg">
<path d="M4.27398 55.508H26.6165C27.0656 55.508 27.4296 55.1441 27.4296 54.6949C27.4296 54.2457 27.0656 53.8818 26.6165 53.8818H9.99198V46.4318C9.99198 45.9826 9.62792 45.6186 9.17887 45.6186C8.72982 45.6186 8.36576 45.9826 8.36576 46.4318V53.8819H4.27376C2.99892 53.8819 2.40025 53.3351 2.58477 51.9622C4.80977 41.09 4.81454 40.2128 5.17837 39.3218C5.2418 39.233 5.59241 37.9784 7.31143 37.2487C7.48912 37.1759 7.37832 37.2247 7.98956 37.0384C8.02729 37.0276 7.84093 37.0909 10.7611 36.077L12.7087 39.6724C12.9226 40.0673 13.4159 40.2142 13.811 40.0001C14.2058 39.7862 14.3525 39.2927 14.1386 38.8978L12.3177 35.5362L13.5629 35.1036C14.1632 36.2118 19.4782 46.023 20.056 47.0894C20.4126 47.7499 21.3204 47.7828 21.7387 47.2061C21.8145 47.1017 21.3816 47.8788 28.2937 35.1L29.5387 35.5324L22.9563 47.7083C22.0885 49.3134 19.7816 49.3135 18.9128 47.7101L15.9462 42.2338C15.7322 41.839 15.2389 41.692 14.844 41.9062C14.4491 42.1202 14.3024 42.6136 14.5163 43.0085L17.483 48.4848C18.9669 51.2235 22.906 51.221 24.3868 48.4818L31.095 36.0731C34.0086 37.0847 33.8378 37.0269 33.8755 37.0378C34.4487 37.2124 34.3849 37.1788 34.5537 37.2479C35.1755 37.5127 35.5466 37.8183 35.5357 37.8103C36.1733 38.3245 36.6129 38.9186 36.8479 39.7934C36.8864 39.9322 39.3002 51.9003 39.3101 52.3041C39.3343 53.325 38.8934 53.8819 37.5938 53.8819H33.5016V46.4318C33.5016 45.9826 33.1376 45.6186 32.6884 45.6186C32.2393 45.6186 31.8753 45.9826 31.8753 46.4318V53.8819H30.4108C29.9616 53.8819 29.5977 54.2458 29.5977 54.695C29.5977 55.1442 29.9616 55.5081 30.4108 55.5081H37.5936C39.5199 55.5081 40.7299 54.5296 40.9133 52.8242C40.9577 52.4173 40.9316 51.9176 40.8821 51.6683C38.409 39.2504 38.5159 39.7791 38.5038 39.7281C38.1795 38.1584 37.2678 36.8552 35.7896 36.0387C35.0983 35.6559 34.6996 35.5963 34.3511 35.4824L28.2754 33.3722L26.2506 31.9834V30.4081C29.2116 28.6491 31.0967 25.6196 31.4414 22.3414C33.9157 22.4561 35.6403 20.0912 34.6028 18.0207V11.3923C34.6028 6.59886 31.9959 4.93123 31.1994 4.53378C27.3021 -0.118498 20.0249 -1.31171 14.5081 1.5191L14.4975 1.52442C14.4028 1.58003 13.2658 2.10606 11.8658 3.27672C11.5262 3.57052 11.489 4.08397 11.7827 4.42364C12.0769 4.76373 12.5905 4.80005 12.9296 4.50679C18.3325 -0.0299229 26.3519 1.13586 30.0593 5.70715C30.1506 5.81958 30.2617 5.90252 30.3973 5.95326C30.5027 5.99554 32.9767 7.03675 32.9767 11.3924V16.5241C32.5256 16.3331 32.031 16.2352 31.5039 16.2499V13.5904C31.5039 12.9157 30.9957 12.3582 30.3218 12.2931C28.9554 12.1612 28.1897 11.2709 27.7879 10.5474C27.2851 9.64184 26.0847 9.42491 25.2976 10.0975C21.6721 13.1965 17.4977 13.354 14.6343 12.941C12.4713 12.6288 10.4596 14.102 10.1095 16.251C9.58304 16.2282 9.06287 16.3215 8.58465 16.524C8.58779 13.7246 8.26483 10.6788 10.5543 7.18864C10.8 6.81266 10.6943 6.30886 10.3183 6.06319C9.94243 5.81741 9.43852 5.9229 9.19286 6.2991C6.07702 11.0735 7.19185 15.3515 6.95832 18.0208C5.92145 20.0905 7.64372 22.4563 10.1197 22.3414C10.5239 26.2024 12.9023 28.4235 12.9587 28.5202L12.9589 28.5203C13.381 28.925 14.1392 29.7704 15.617 30.5849V31.9832L13.5923 33.3719C5.66841 36.1245 6.47263 35.7904 5.82886 36.1838C4.61213 36.9332 3.76877 38.0795 3.41729 39.4908C3.34801 39.7698 3.46304 39.2427 0.985443 51.6682C0.935572 51.9192 0.909336 52.4084 0.954111 52.8233C1.13755 54.5295 2.34767 55.508 4.27398 55.508ZM22.3392 31.7958C22.7965 31.7293 23.2887 31.6204 23.5766 31.5391C23.6451 31.5169 24.0376 31.423 24.6243 31.1972V32.0985L20.9336 36.2051L17.243 32.0984V31.3098C18.9402 31.8992 20.7003 32.0348 22.3392 31.7958ZM24.3706 38.937C24.1593 38.7818 22.3929 37.4844 22.1383 37.2974L25.5634 33.486L26.8411 34.3671C26.0206 35.8847 24.9031 37.9519 24.3706 38.937ZM23.0747 41.3341L22.8737 40.7159L23.1819 40.0813L23.5899 40.3809L23.0747 41.3341ZM18.273 40.3844L18.6854 40.0816L18.9936 40.7163L18.7908 41.3402L18.273 40.3844ZM19.729 37.2974C19.5313 37.4426 17.691 38.7942 17.4968 38.937L15.0263 34.3671L16.304 33.486L19.729 37.2974ZM20.0178 39.1028L20.9336 38.4302L21.8494 39.1028L21.4901 39.8427H20.3772L20.0178 39.1028ZM20.9334 45.2951L19.8594 43.3127L20.459 41.4689H21.4087L22.0071 43.3094C21.6666 43.9386 21.3506 44.5231 20.9334 45.2951ZM33.2805 19.2965C33.2805 20.1427 32.4322 20.7656 31.5036 20.7165V17.8765C32.4412 17.8269 33.2805 18.4585 33.2805 19.2965ZM30.1652 13.9115C30.1648 13.9115 30.1642 13.9115 30.1638 13.9114C30.1642 13.9115 30.1647 13.9115 30.1652 13.9115ZM14.4016 14.5503C17.5978 15.0116 22.2658 14.8281 26.3538 11.3334L26.3658 11.3366C27.1512 12.7508 28.3904 13.6436 29.8774 13.8752V16.7546L28.9496 17.3022C28.5675 16.7517 27.9318 16.3898 27.2125 16.3898H23.4916C22.614 16.3898 21.8601 16.9276 21.5408 17.6908H20.02C19.7007 16.9276 18.9467 16.3898 18.0691 16.3898H14.3482C13.6289 16.3898 12.9931 16.7517 12.6112 17.3022L11.6876 16.757C11.7676 15.367 13.024 14.3512 14.4016 14.5503ZM23.0039 18.5039C23.0039 18.2394 23.2273 18.016 23.4918 18.016H27.2127C27.4771 18.016 27.7005 18.2394 27.7005 18.5039V20.1231C27.7005 20.8285 27.1267 21.4023 26.4213 21.4023H24.2829C23.5776 21.4023 23.0038 20.8285 23.0038 20.1231V18.5039H23.0039ZM18.5568 18.5039V20.1231C18.5568 20.8285 17.9831 21.4023 17.2778 21.4023H15.1393C14.4339 21.4023 13.8602 20.8285 13.8602 20.1231V18.5039C13.8602 18.2394 14.0837 18.016 14.3481 18.016H18.069C18.3334 18.016 18.5568 18.2394 18.5568 18.5039ZM8.28022 19.2965C8.28022 18.4503 9.12857 17.8274 10.0571 17.8765V20.7165C9.11968 20.766 8.28022 20.1343 8.28022 19.2965ZM13.8761 27.1086C11.2446 24.0413 11.7519 21.0631 11.6834 18.6431L12.2342 18.9682V20.1232C12.2342 21.7252 13.5375 23.0285 15.1394 23.0285H17.2779C18.8798 23.0285 20.1831 21.7253 20.1831 20.1232V19.317H21.3779V20.1232C21.3779 21.7252 22.6811 23.0285 24.2831 23.0285H26.4215C28.0235 23.0285 29.3268 21.7253 29.3268 20.1232V18.9682L29.8777 18.6431V21.1855C29.8777 26.0216 26.05 30.2236 20.7806 30.2816C20.7697 30.2815 20.6602 30.2807 20.671 30.2808C19.2654 30.2666 18.1853 29.9064 18.2946 29.937C16.699 29.4944 15.1774 28.5808 13.8761 27.1086Z" fill="#00093C"/>
</svg>
