<svg width="50" height="50" viewBox="0 0 50 50" fill="none" xmlns="http://www.w3.org/2000/svg">
<path d="M28.422 23.7145C28.5685 24.0075 28.8615 24.1662 29.1667 24.1662C29.2888 24.1662 29.4231 24.1418 29.5452 24.0807C29.594 24.0563 34.5019 21.5657 36.9193 20.7966C37.3588 20.6623 37.603 20.1861 37.4565 19.7466C37.3222 19.3071 36.8582 19.0629 36.4065 19.1972C33.8549 20.003 28.9836 22.4814 28.776 22.5791C28.3853 22.811 28.2144 23.3116 28.422 23.7145Z" fill="#00093C"/>
<path d="M29.1669 14.1794C29.289 14.1794 29.4233 14.155 29.5454 14.0939C29.5942 14.0695 34.5022 11.5789 36.9195 10.8098C37.359 10.6755 37.6032 10.1993 37.4567 9.75981C37.3224 9.3203 36.8584 9.07612 36.4067 9.21042C33.8551 10.0162 28.9838 12.4946 28.7762 12.5922C28.3611 12.7998 28.2024 13.3004 28.41 13.7155C28.5809 14.0085 28.8739 14.1794 29.1669 14.1794Z" fill="#00093C"/>
<path d="M49.1769 12.5068C48.713 12.5068 48.3467 12.8853 48.3467 13.337V45.8368C48.3467 47.2163 47.2235 48.3396 45.8439 48.3396H25.8338V46.4228C27.0546 45.9955 30.2167 45.0066 33.3299 45.0066C40.5942 45.0066 45.5143 46.6181 45.5631 46.6303C45.8195 46.7158 46.0881 46.667 46.3079 46.5204C46.5276 46.3617 46.6497 46.1176 46.6497 45.849V9.17383C46.6497 8.78314 46.3811 8.4413 46.0026 8.35584C46.0026 8.35584 45.3434 8.20933 44.2324 8.00179C43.7806 7.91632 43.3411 8.22154 43.2679 8.67327C43.1824 9.12499 43.4876 9.56451 43.9394 9.64997C44.3667 9.72322 44.7207 9.79647 45.0015 9.85752V44.738C43.1092 44.2374 38.9216 43.3462 33.3299 43.3462C29.7039 43.3462 26.1268 44.5426 25.028 44.9455C24.0513 44.506 21.0845 43.3462 17.4952 43.3462C11.757 43.3462 7.02004 44.2985 4.99338 44.7746V9.82089C6.65378 9.40579 11.5739 8.34363 17.4952 8.34363C20.5351 8.34363 23.1356 9.29591 24.1611 9.72322V42.516C24.1611 42.8212 24.3199 43.0898 24.5885 43.2363C24.8448 43.3828 25.1745 43.3828 25.4309 43.2241C25.5163 43.1752 33.7694 38.2429 41.0947 35.8011C41.4366 35.6913 41.6685 35.3738 41.6685 35.0076V0.835238C41.6685 0.566645 41.5342 0.310261 41.3145 0.151547C41.0947 -0.00716685 40.8017 -0.0437935 40.5453 0.0538766C33.8793 2.55667 27.1279 6.75649 27.0668 6.79312C26.6762 7.03729 26.5541 7.55006 26.7982 7.94074C27.0424 8.33142 27.5552 8.45351 27.9459 8.20933C28.0069 8.17271 33.8793 4.52229 40.0081 2.05611V34.4093C34.3188 36.3872 28.3732 39.6103 25.8338 41.0631V9.17383C25.8338 8.8564 25.6506 8.5756 25.3698 8.42909C25.2233 8.35584 21.8049 6.67103 17.4952 6.67103C9.96235 6.67103 4.1754 8.2948 3.93122 8.36805C3.57717 8.46572 3.33299 8.79535 3.33299 9.17383V45.849C3.33299 46.1054 3.45508 46.3617 3.66263 46.5082C3.80914 46.6181 3.98006 46.6792 4.16319 46.6792C4.23644 46.6792 4.3219 46.667 4.39516 46.6425C4.4562 46.6303 10.2187 45.0066 17.5074 45.0066C20.5596 45.0066 23.16 45.9588 24.1734 46.3862V48.3396H4.16319C2.7836 48.3396 1.66039 47.2163 1.66039 45.8368V13.337C1.66039 12.8731 1.28192 12.5068 0.830197 12.5068C0.366263 12.5068 0 12.8853 0 13.337V45.8368C0 48.132 1.86794 49.9999 4.16319 49.9999H45.8317C48.127 49.9999 49.9949 48.132 49.9949 45.8368V13.337C50.0071 12.8853 49.6286 12.5068 49.1769 12.5068Z" fill="#00093C"/>
<path d="M28.422 18.7211C28.5685 19.0141 28.8615 19.1728 29.1667 19.1728C29.2888 19.1728 29.4231 19.1484 29.5452 19.0873C29.594 19.0629 34.5019 16.5723 36.9193 15.8032C37.3588 15.6689 37.603 15.1927 37.4565 14.7532C37.3222 14.3137 36.8582 14.0695 36.4065 14.2038C33.8549 15.0096 28.9836 17.488 28.776 17.5857C28.3853 17.8054 28.2144 18.306 28.422 18.7211Z" fill="#00093C"/>
<path d="M28.422 28.7201C28.5685 29.0131 28.8615 29.1718 29.1667 29.1718C29.2888 29.1718 29.4231 29.1474 29.5452 29.0864C29.594 29.0619 34.5019 26.5714 36.9193 25.8022C37.3588 25.6679 37.603 25.1918 37.4565 24.7522C37.3222 24.3127 36.8582 24.0686 36.4065 24.2029C33.8549 25.0086 28.9836 27.487 28.776 27.5847C28.3853 27.8044 28.2144 28.305 28.422 28.7201Z" fill="#00093C"/>
<path d="M20.1933 15.4736C15.0412 14.265 9.1932 15.8033 8.94903 15.8643C8.50951 15.9864 8.24092 16.4381 8.36301 16.8899C8.46068 17.2561 8.80253 17.5125 9.16879 17.5125C9.24204 17.5125 9.31529 17.5003 9.38855 17.4881C9.44959 17.4759 15.0778 15.9864 19.8148 17.1096C20.2666 17.2195 20.7061 16.9387 20.816 16.487C20.9258 16.023 20.645 15.5713 20.1933 15.4736Z" fill="#00093C"/>
<path d="M20.1933 20.4669C15.0412 19.2582 9.1932 20.7965 8.94903 20.8698C8.50951 20.9919 8.24092 21.4436 8.36301 21.8953C8.46068 22.2616 8.80253 22.518 9.16879 22.518C9.24204 22.518 9.31529 22.5058 9.38855 22.4936C9.44959 22.4813 15.0778 20.9919 19.8148 22.1151C20.2666 22.225 20.7061 21.9442 20.816 21.4924C20.9258 21.0285 20.645 20.5768 20.1933 20.4669Z" fill="#00093C"/>
<path d="M28.422 33.7257C28.5685 34.0187 28.8615 34.1774 29.1667 34.1774C29.2888 34.1774 29.4231 34.153 29.5452 34.092C29.594 34.0676 34.5019 31.577 36.9193 30.8078C37.3588 30.6735 37.603 30.1974 37.4565 29.7579C37.3222 29.3183 36.8582 29.0742 36.4065 29.2085C33.8549 30.0142 28.9836 32.4926 28.776 32.5903C28.3853 32.8101 28.2144 33.3106 28.422 33.7257Z" fill="#00093C"/>
<path d="M20.1933 25.4725C15.0412 24.2639 9.1932 25.8022 8.94903 25.8754C8.50951 25.9975 8.24092 26.4492 8.36301 26.9009C8.46068 27.2794 8.80253 27.5236 9.16879 27.5236C9.24204 27.5236 9.31529 27.5114 9.38855 27.4992C9.44959 27.487 15.0778 25.9975 19.8148 27.1207C20.2666 27.2306 20.7061 26.9498 20.816 26.4981C20.9258 26.0219 20.645 25.5824 20.1933 25.4725Z" fill="#00093C"/>
<path d="M20.1933 35.4714C15.0412 34.2628 9.1932 35.8011 8.94903 35.8621C8.50951 35.9842 8.24092 36.4359 8.36301 36.8877C8.46068 37.2661 8.80253 37.5103 9.16879 37.5103C9.24204 37.5103 9.31529 37.4981 9.38855 37.4859C9.44959 37.4737 15.0778 35.9842 19.8148 37.1074C20.2666 37.2051 20.7061 36.9365 20.816 36.4848C20.9258 36.033 20.645 35.5813 20.1933 35.4714Z" fill="#00093C"/>
<path d="M20.1933 30.4781C15.0412 29.2695 9.1932 30.8078 8.94903 30.881C8.50951 31.0031 8.24092 31.4548 8.36301 31.9066C8.46068 32.285 8.80253 32.5292 9.16879 32.5292C9.24204 32.5292 9.31529 32.517 9.38855 32.5048C9.44959 32.4926 15.0778 31.0031 19.8148 32.1263C20.2666 32.2362 20.7061 31.9554 20.816 31.5037C20.9258 31.0275 20.645 30.5758 20.1933 30.4781Z" fill="#00093C"/>
</svg>
