<svg width="99" height="124" viewBox="0 0 99 124" fill="none" xmlns="http://www.w3.org/2000/svg">
<path d="M32.3653 42.29C32.3653 42.29 32.1921 43.8066 33.1674 45.8896C34.0579 47.7914 35.964 50.2115 39.9416 52.1033C44.2275 54.182 48.6845 53.0888 51.9448 51.5622C54.7523 50.2476 56.5384 48.6383 56.629 48.5959L56.9488 48.3357L75.3726 60.7991L73.0048 79.7958L80.5216 76.2761L80.6121 76.2337C80.6121 76.2337 89.0733 74.2593 92.6778 81.9572L92.4061 82.0845L92.6778 81.9572L92.4061 82.0845L92.6778 81.9572C96.1127 89.2929 98.4874 94.3645 98.4874 94.3645L98.6994 94.8173L37.1644 123.52L31.5244 111.475C31.5244 111.475 26.9561 101.247 35.6078 97.0858L41.6756 94.2446L37.0109 84.2826L37.4638 84.0706L37.4947 84.6082C37.4041 84.6506 17.8144 86.2044 4.32939 57.4052L4.28698 57.3146C-9.23469 28.2013 19.0507 5.12956 28.1976 0.846581L28.6504 0.634553L33.9202 11.4174L63.9389 25.2975L63.9813 25.3881C63.9813 25.3881 66.0858 27.0527 67.146 29.3168C67.9093 30.947 68.1658 33.1456 66.241 34.9303C65.4144 35.759 64.503 36.4066 63.5068 36.8731C59.7937 38.6117 55.3461 37.6025 51.513 35.3118L51.748 34.8705L52.1893 35.1055C52.1893 35.1055 49.7506 41.2164 44.0451 43.8879C43.23 44.2696 42.2819 44.6031 41.3821 44.8036C35.8498 45.9586 29.7389 43.5198 26.7339 36.8663C25.5889 34.421 24.8177 31.3591 24.6438 27.6863L25.6285 27.6669C25.7176 31.1586 26.4464 34.13 27.549 36.4846C30.475 42.7335 36.0539 44.9797 41.1815 43.9037C42.0814 43.7032 42.8483 43.4545 43.6634 43.0729C48.9161 40.6133 51.301 34.859 51.301 34.859L51.4936 34.3271L51.9773 34.6527C55.6775 36.8953 59.8168 37.7176 63.077 36.191C63.9827 35.7669 64.7129 35.2041 65.5819 34.466C67.0963 32.9839 66.9555 31.504 66.2346 29.9644C65.3017 27.972 63.3725 26.4461 63.3725 26.4461L63.65 26.0953L63.4149 26.5367L33.1303 12.5602L27.9029 1.86793L28.3557 1.6559L28.5678 2.10872C19.602 6.30689 -8.09187 28.9913 5.13871 57.2471L5.18112 57.3377C18.4965 85.7746 37.2884 83.9319 37.3308 84.0225L37.6449 83.9858L42.9032 95.2157L35.9298 98.4809C28.1895 101.995 32.328 111.541 32.328 111.541L31.8752 111.753L32.328 111.541L37.5439 122.68L97.7205 94.6131L97.9325 95.066L97.4797 95.278C97.4797 95.278 95.1474 90.297 91.6701 82.8708L92.1229 82.6588L91.6701 82.8708C88.4049 75.8974 80.753 77.7136 80.7106 77.623L80.5891 77.1278L80.8012 77.5806L71.6542 81.8636L74.2319 61.6645L56.6002 49.7136L56.8352 49.2723L57.1378 49.6827C57.1378 49.6827 55.1706 51.3768 52.2726 52.7337C48.9217 54.3028 44.193 55.5232 39.3752 53.2518C35.2223 51.2213 33.1408 48.6625 32.1654 46.5796C31.1053 44.3155 31.2843 42.5754 31.2419 42.4848L32.3653 42.29Z" fill="url(#paint0_linear_88_3392)"/>
<defs>
<linearGradient id="paint0_linear_88_3392" x1="11.2839" y1="72.2576" x2="74.3161" y2="42.7432" gradientUnits="userSpaceOnUse">
<stop stop-color="#F7941D"/>
<stop offset="1" stop-color="#27AAE1"/>
</linearGradient>
</defs>
</svg>
