<svg width="85" height="85" viewBox="0 0 85 85" fill="none" xmlns="http://www.w3.org/2000/svg">
<path d="M83.3645 21.3963L83.3449 21.4139L83.3263 21.4325L65.0257 39.7331C63.4753 41.2835 63.4753 43.9787 65.0257 45.5291L83.3263 63.8297C84.0957 64.5991 84.0957 66.028 83.3263 66.7974L66.7012 83.4225C65.9318 84.1919 64.5029 84.1919 63.7336 83.4225L45.433 65.122C43.8825 63.5715 41.1873 63.5715 39.6369 65.122L21.3363 83.4225C20.5669 84.1919 19.1381 84.1919 18.3687 83.4225L1.74353 66.7974C0.97416 66.028 0.974162 64.5991 1.74353 63.8297L20.0441 45.5291C21.5945 43.9787 21.5945 41.2835 20.0441 39.7331L1.74353 21.4325L1.03643 22.1396L1.74353 21.4325C0.974161 20.6632 0.974161 19.2343 1.74353 18.4649L18.3687 1.83972C19.1381 1.07035 20.5669 1.07035 21.3363 1.83972L22.0434 1.13262L21.3363 1.83972L39.6369 20.1403C41.1873 21.6907 43.8825 21.6907 45.433 20.1403L63.7336 1.83972C64.5029 1.07035 65.9318 1.07035 66.7012 1.83972L83.3263 18.4649C84.2464 19.385 84.19 20.6534 83.3645 21.3963Z" stroke="url(#paint0_linear_75_1249)" stroke-width="2"/>
<defs>
<linearGradient id="paint0_linear_75_1249" x1="0.166504" y1="42.6311" x2="85" y2="42.6311" gradientUnits="userSpaceOnUse">
<stop stop-color="#F7941D"/>
<stop offset="1" stop-color="#27AAE1"/>
</linearGradient>
</defs>
</svg>
