<svg width="1012" height="442" viewBox="0 0 1012 442" fill="none" xmlns="http://www.w3.org/2000/svg">
<g opacity="0.5">
<circle cx="21" cy="1" r="1" fill="#27AAE1"/>
<circle cx="43" cy="1" r="1" fill="#27AAE1"/>
<circle cx="65" cy="1" r="1" fill="#27AAE1"/>
<circle cx="87" cy="1" r="1" fill="#27AAE1"/>
<circle cx="109" cy="1" r="1" fill="#27AAE1"/>
<circle cx="131" cy="1" r="1" fill="#27AAE1"/>
<circle cx="153" cy="1" r="1" fill="#27AAE1"/>
<circle cx="175" cy="1" r="1" fill="#27AAE1"/>
<circle cx="197" cy="1" r="1" fill="#27AAE1"/>
<circle cx="219" cy="1" r="1" fill="#27AAE1"/>
<circle cx="241" cy="1" r="1" fill="#27AAE1"/>
<circle cx="263" cy="1" r="1" fill="#27AAE1"/>
<circle cx="285" cy="1" r="1" fill="#27AAE1"/>
<circle cx="307" cy="1" r="1" fill="#27AAE1"/>
<circle cx="329" cy="1" r="1" fill="#27AAE1"/>
<circle cx="351" cy="1" r="1" fill="#27AAE1"/>
<circle cx="373" cy="1" r="1" fill="#27AAE1"/>
<circle cx="395" cy="1" r="1" fill="#27AAE1"/>
<circle cx="417" cy="1" r="1" fill="#27AAE1"/>
<circle cx="439" cy="1" r="1" fill="#27AAE1"/>
<circle cx="461" cy="1" r="1" fill="#27AAE1"/>
<circle cx="483" cy="1" r="1" fill="#27AAE1"/>
<circle cx="505" cy="1" r="1" fill="#27AAE1"/>
<circle cx="527" cy="1" r="1" fill="#27AAE1"/>
<circle cx="549" cy="1" r="1" fill="#27AAE1"/>
<circle cx="571" cy="1" r="1" fill="#27AAE1"/>
<circle cx="593" cy="1" r="1" fill="#27AAE1"/>
<circle cx="615" cy="1" r="1" fill="#27AAE1"/>
<circle cx="637" cy="1" r="1" fill="#27AAE1"/>
<circle cx="659" cy="1" r="1" fill="#27AAE1"/>
<circle cx="681" cy="1" r="1" fill="#27AAE1"/>
<circle cx="703" cy="1" r="1" fill="#27AAE1"/>
<circle cx="725" cy="1" r="1" fill="#27AAE1"/>
<circle cx="747" cy="1" r="1" fill="#27AAE1"/>
<circle cx="769" cy="1" r="1" fill="#27AAE1"/>
<circle cx="791" cy="1" r="1" fill="#27AAE1"/>
<circle cx="813" cy="1" r="1" fill="#27AAE1"/>
<circle cx="835" cy="1" r="1" fill="#27AAE1"/>
<circle cx="857" cy="1" r="1" fill="#27AAE1"/>
<circle cx="879" cy="1" r="1" fill="#27AAE1"/>
<circle cx="901" cy="1" r="1" fill="#27AAE1"/>
<circle cx="923" cy="1" r="1" fill="#27AAE1"/>
<circle cx="945" cy="1" r="1" fill="#27AAE1"/>
<circle cx="967" cy="1" r="1" fill="#27AAE1"/>
<circle cx="989" cy="1" r="1" fill="#27AAE1"/>
<circle cx="1011" cy="1" r="1" fill="#27AAE1"/>
<circle cx="21" cy="23" r="1" fill="#27AAE1"/>
<circle cx="43" cy="23" r="1" fill="#27AAE1"/>
<circle cx="65" cy="23" r="1" fill="#27AAE1"/>
<circle cx="87" cy="23" r="1" fill="#27AAE1"/>
<circle cx="109" cy="23" r="1" fill="#27AAE1"/>
<circle cx="131" cy="23" r="1" fill="#27AAE1"/>
<circle cx="153" cy="23" r="1" fill="#27AAE1"/>
<circle cx="175" cy="23" r="1" fill="#27AAE1"/>
<circle cx="197" cy="23" r="1" fill="#27AAE1"/>
<circle cx="219" cy="23" r="1" fill="#27AAE1"/>
<circle cx="241" cy="23" r="1" fill="#27AAE1"/>
<circle cx="263" cy="23" r="1" fill="#27AAE1"/>
<circle cx="285" cy="23" r="1" fill="#27AAE1"/>
<circle cx="307" cy="23" r="1" fill="#27AAE1"/>
<circle cx="329" cy="23" r="1" fill="#27AAE1"/>
<circle cx="351" cy="23" r="1" fill="#27AAE1"/>
<circle cx="373" cy="23" r="1" fill="#27AAE1"/>
<circle cx="395" cy="23" r="1" fill="#27AAE1"/>
<circle cx="417" cy="23" r="1" fill="#27AAE1"/>
<circle cx="439" cy="23" r="1" fill="#27AAE1"/>
<circle cx="461" cy="23" r="1" fill="#27AAE1"/>
<circle cx="483" cy="23" r="1" fill="#27AAE1"/>
<circle cx="505" cy="23" r="1" fill="#27AAE1"/>
<circle cx="527" cy="23" r="1" fill="#27AAE1"/>
<circle cx="549" cy="23" r="1" fill="#27AAE1"/>
<circle cx="571" cy="23" r="1" fill="#27AAE1"/>
<circle cx="593" cy="23" r="1" fill="#27AAE1"/>
<circle cx="615" cy="23" r="1" fill="#27AAE1"/>
<circle cx="637" cy="23" r="1" fill="#27AAE1"/>
<circle cx="659" cy="23" r="1" fill="#27AAE1"/>
<circle cx="681" cy="23" r="1" fill="#27AAE1"/>
<circle cx="703" cy="23" r="1" fill="#27AAE1"/>
<circle cx="725" cy="23" r="1" fill="#27AAE1"/>
<circle cx="747" cy="23" r="1" fill="#27AAE1"/>
<circle cx="769" cy="23" r="1" fill="#27AAE1"/>
<circle cx="791" cy="23" r="1" fill="#27AAE1"/>
<circle cx="813" cy="23" r="1" fill="#27AAE1"/>
<circle cx="835" cy="23" r="1" fill="#27AAE1"/>
<circle cx="857" cy="23" r="1" fill="#27AAE1"/>
<circle cx="879" cy="23" r="1" fill="#27AAE1"/>
<circle cx="901" cy="23" r="1" fill="#27AAE1"/>
<circle cx="923" cy="23" r="1" fill="#27AAE1"/>
<circle cx="945" cy="23" r="1" fill="#27AAE1"/>
<circle cx="967" cy="23" r="1" fill="#27AAE1"/>
<circle cx="989" cy="23" r="1" fill="#27AAE1"/>
<circle cx="1011" cy="23" r="1" fill="#27AAE1"/>
<circle cx="21" cy="45" r="1" fill="#27AAE1"/>
<circle cx="43" cy="45" r="1" fill="#27AAE1"/>
<circle cx="65" cy="45" r="1" fill="#27AAE1"/>
<circle cx="87" cy="45" r="1" fill="#27AAE1"/>
<circle cx="109" cy="45" r="1" fill="#27AAE1"/>
<circle cx="131" cy="45" r="1" fill="#27AAE1"/>
<circle cx="153" cy="45" r="1" fill="#27AAE1"/>
<circle cx="175" cy="45" r="1" fill="#27AAE1"/>
<circle cx="197" cy="45" r="1" fill="#27AAE1"/>
<circle cx="219" cy="45" r="1" fill="#27AAE1"/>
<circle cx="241" cy="45" r="1" fill="#27AAE1"/>
<circle cx="263" cy="45" r="1" fill="#27AAE1"/>
<circle cx="285" cy="45" r="1" fill="#27AAE1"/>
<circle cx="307" cy="45" r="1" fill="#27AAE1"/>
<circle cx="329" cy="45" r="1" fill="#27AAE1"/>
<circle cx="351" cy="45" r="1" fill="#27AAE1"/>
<circle cx="373" cy="45" r="1" fill="#27AAE1"/>
<circle cx="395" cy="45" r="1" fill="#27AAE1"/>
<circle cx="417" cy="45" r="1" fill="#27AAE1"/>
<circle cx="439" cy="45" r="1" fill="#27AAE1"/>
<circle cx="461" cy="45" r="1" fill="#27AAE1"/>
<circle cx="483" cy="45" r="1" fill="#27AAE1"/>
<circle cx="505" cy="45" r="1" fill="#27AAE1"/>
<circle cx="527" cy="45" r="1" fill="#27AAE1"/>
<circle cx="549" cy="45" r="1" fill="#27AAE1"/>
<circle cx="571" cy="45" r="1" fill="#27AAE1"/>
<circle cx="593" cy="45" r="1" fill="#27AAE1"/>
<circle cx="615" cy="45" r="1" fill="#27AAE1"/>
<circle cx="637" cy="45" r="1" fill="#27AAE1"/>
<circle cx="659" cy="45" r="1" fill="#27AAE1"/>
<circle cx="681" cy="45" r="1" fill="#27AAE1"/>
<circle cx="703" cy="45" r="1" fill="#27AAE1"/>
<circle cx="725" cy="45" r="1" fill="#27AAE1"/>
<circle cx="747" cy="45" r="1" fill="#27AAE1"/>
<circle cx="769" cy="45" r="1" fill="#27AAE1"/>
<circle cx="791" cy="45" r="1" fill="#27AAE1"/>
<circle cx="813" cy="45" r="1" fill="#27AAE1"/>
<circle cx="835" cy="45" r="1" fill="#27AAE1"/>
<circle cx="857" cy="45" r="1" fill="#27AAE1"/>
<circle cx="879" cy="45" r="1" fill="#27AAE1"/>
<circle cx="901" cy="45" r="1" fill="#27AAE1"/>
<circle cx="923" cy="45" r="1" fill="#27AAE1"/>
<circle cx="945" cy="45" r="1" fill="#27AAE1"/>
<circle cx="967" cy="45" r="1" fill="#27AAE1"/>
<circle cx="989" cy="45" r="1" fill="#27AAE1"/>
<circle cx="1011" cy="45" r="1" fill="#27AAE1"/>
<circle cx="21" cy="67" r="1" fill="#27AAE1"/>
<circle cx="43" cy="67" r="1" fill="#27AAE1"/>
<circle cx="65" cy="67" r="1" fill="#27AAE1"/>
<circle cx="87" cy="67" r="1" fill="#27AAE1"/>
<circle cx="109" cy="67" r="1" fill="#27AAE1"/>
<circle cx="131" cy="67" r="1" fill="#27AAE1"/>
<circle cx="153" cy="67" r="1" fill="#27AAE1"/>
<circle cx="175" cy="67" r="1" fill="#27AAE1"/>
<circle cx="197" cy="67" r="1" fill="#27AAE1"/>
<circle cx="219" cy="67" r="1" fill="#27AAE1"/>
<circle cx="241" cy="67" r="1" fill="#27AAE1"/>
<circle cx="263" cy="67" r="1" fill="#27AAE1"/>
<circle cx="285" cy="67" r="1" fill="#27AAE1"/>
<circle cx="307" cy="67" r="1" fill="#27AAE1"/>
<circle cx="329" cy="67" r="1" fill="#27AAE1"/>
<circle cx="351" cy="67" r="1" fill="#27AAE1"/>
<circle cx="373" cy="67" r="1" fill="#27AAE1"/>
<circle cx="395" cy="67" r="1" fill="#27AAE1"/>
<circle cx="417" cy="67" r="1" fill="#27AAE1"/>
<circle cx="439" cy="67" r="1" fill="#27AAE1"/>
<circle cx="461" cy="67" r="1" fill="#27AAE1"/>
<circle cx="483" cy="67" r="1" fill="#27AAE1"/>
<circle cx="505" cy="67" r="1" fill="#27AAE1"/>
<circle cx="527" cy="67" r="1" fill="#27AAE1"/>
<circle cx="549" cy="67" r="1" fill="#27AAE1"/>
<circle cx="571" cy="67" r="1" fill="#27AAE1"/>
<circle cx="593" cy="67" r="1" fill="#27AAE1"/>
<circle cx="615" cy="67" r="1" fill="#27AAE1"/>
<circle cx="637" cy="67" r="1" fill="#27AAE1"/>
<circle cx="659" cy="67" r="1" fill="#27AAE1"/>
<circle cx="681" cy="67" r="1" fill="#27AAE1"/>
<circle cx="703" cy="67" r="1" fill="#27AAE1"/>
<circle cx="725" cy="67" r="1" fill="#27AAE1"/>
<circle cx="747" cy="67" r="1" fill="#27AAE1"/>
<circle cx="769" cy="67" r="1" fill="#27AAE1"/>
<circle cx="791" cy="67" r="1" fill="#27AAE1"/>
<circle cx="813" cy="67" r="1" fill="#27AAE1"/>
<circle cx="835" cy="67" r="1" fill="#27AAE1"/>
<circle cx="857" cy="67" r="1" fill="#27AAE1"/>
<circle cx="879" cy="67" r="1" fill="#27AAE1"/>
<circle cx="901" cy="67" r="1" fill="#27AAE1"/>
<circle cx="923" cy="67" r="1" fill="#27AAE1"/>
<circle cx="945" cy="67" r="1" fill="#27AAE1"/>
<circle cx="967" cy="67" r="1" fill="#27AAE1"/>
<circle cx="989" cy="67" r="1" fill="#27AAE1"/>
<circle cx="1011" cy="67" r="1" fill="#27AAE1"/>
<circle cx="21" cy="89" r="1" fill="#27AAE1"/>
<circle cx="43" cy="89" r="1" fill="#27AAE1"/>
<circle cx="65" cy="89" r="1" fill="#27AAE1"/>
<circle cx="87" cy="89" r="1" fill="#27AAE1"/>
<circle cx="109" cy="89" r="1" fill="#27AAE1"/>
<circle cx="131" cy="89" r="1" fill="#27AAE1"/>
<circle cx="153" cy="89" r="1" fill="#27AAE1"/>
<circle cx="175" cy="89" r="1" fill="#27AAE1"/>
<circle cx="197" cy="89" r="1" fill="#27AAE1"/>
<circle cx="219" cy="89" r="1" fill="#27AAE1"/>
<circle cx="241" cy="89" r="1" fill="#27AAE1"/>
<circle cx="263" cy="89" r="1" fill="#27AAE1"/>
<circle cx="285" cy="89" r="1" fill="#27AAE1"/>
<circle cx="307" cy="89" r="1" fill="#27AAE1"/>
<circle cx="329" cy="89" r="1" fill="#27AAE1"/>
<circle cx="351" cy="89" r="1" fill="#27AAE1"/>
<circle cx="373" cy="89" r="1" fill="#27AAE1"/>
<circle cx="395" cy="89" r="1" fill="#27AAE1"/>
<circle cx="417" cy="89" r="1" fill="#27AAE1"/>
<circle cx="439" cy="89" r="1" fill="#27AAE1"/>
<circle cx="461" cy="89" r="1" fill="#27AAE1"/>
<circle cx="483" cy="89" r="1" fill="#27AAE1"/>
<circle cx="505" cy="89" r="1" fill="#27AAE1"/>
<circle cx="527" cy="89" r="1" fill="#27AAE1"/>
<circle cx="549" cy="89" r="1" fill="#27AAE1"/>
<circle cx="571" cy="89" r="1" fill="#27AAE1"/>
<circle cx="593" cy="89" r="1" fill="#27AAE1"/>
<circle cx="615" cy="89" r="1" fill="#27AAE1"/>
<circle cx="637" cy="89" r="1" fill="#27AAE1"/>
<circle cx="659" cy="89" r="1" fill="#27AAE1"/>
<circle cx="681" cy="89" r="1" fill="#27AAE1"/>
<circle cx="703" cy="89" r="1" fill="#27AAE1"/>
<circle cx="725" cy="89" r="1" fill="#27AAE1"/>
<circle cx="747" cy="89" r="1" fill="#27AAE1"/>
<circle cx="769" cy="89" r="1" fill="#27AAE1"/>
<circle cx="791" cy="89" r="1" fill="#27AAE1"/>
<circle cx="813" cy="89" r="1" fill="#27AAE1"/>
<circle cx="835" cy="89" r="1" fill="#27AAE1"/>
<circle cx="857" cy="89" r="1" fill="#27AAE1"/>
<circle cx="879" cy="89" r="1" fill="#27AAE1"/>
<circle cx="901" cy="89" r="1" fill="#27AAE1"/>
<circle cx="923" cy="89" r="1" fill="#27AAE1"/>
<circle cx="945" cy="89" r="1" fill="#27AAE1"/>
<circle cx="967" cy="89" r="1" fill="#27AAE1"/>
<circle cx="989" cy="89" r="1" fill="#27AAE1"/>
<circle cx="1011" cy="89" r="1" fill="#27AAE1"/>
<circle cx="21" cy="111" r="1" fill="#27AAE1"/>
<circle cx="43" cy="111" r="1" fill="#27AAE1"/>
<circle cx="65" cy="111" r="1" fill="#27AAE1"/>
<circle cx="87" cy="111" r="1" fill="#27AAE1"/>
<circle cx="109" cy="111" r="1" fill="#27AAE1"/>
<circle cx="131" cy="111" r="1" fill="#27AAE1"/>
<circle cx="153" cy="111" r="1" fill="#27AAE1"/>
<circle cx="175" cy="111" r="1" fill="#27AAE1"/>
<circle cx="197" cy="111" r="1" fill="#27AAE1"/>
<circle cx="219" cy="111" r="1" fill="#27AAE1"/>
<circle cx="241" cy="111" r="1" fill="#27AAE1"/>
<circle cx="263" cy="111" r="1" fill="#27AAE1"/>
<circle cx="285" cy="111" r="1" fill="#27AAE1"/>
<circle cx="307" cy="111" r="1" fill="#27AAE1"/>
<circle cx="329" cy="111" r="1" fill="#27AAE1"/>
<circle cx="945" cy="111" r="1" fill="#27AAE1"/>
<circle cx="967" cy="111" r="1" fill="#27AAE1"/>
<circle cx="989" cy="111" r="1" fill="#27AAE1"/>
<circle cx="1011" cy="111" r="1" fill="#27AAE1"/>
<circle cx="21" cy="133" r="1" fill="#27AAE1"/>
<circle cx="43" cy="133" r="1" fill="#27AAE1"/>
<circle cx="65" cy="133" r="1" fill="#27AAE1"/>
<circle cx="87" cy="133" r="1" fill="#27AAE1"/>
<circle cx="109" cy="133" r="1" fill="#27AAE1"/>
<circle cx="131" cy="133" r="1" fill="#27AAE1"/>
<circle cx="153" cy="133" r="1" fill="#27AAE1"/>
<circle cx="175" cy="133" r="1" fill="#27AAE1"/>
<circle cx="197" cy="133" r="1" fill="#27AAE1"/>
<circle cx="219" cy="133" r="1" fill="#27AAE1"/>
<circle cx="241" cy="133" r="1" fill="#27AAE1"/>
<circle cx="263" cy="133" r="1" fill="#27AAE1"/>
<circle cx="285" cy="133" r="1" fill="#27AAE1"/>
<circle cx="307" cy="133" r="1" fill="#27AAE1"/>
<circle cx="329" cy="133" r="1" fill="#27AAE1"/>
<circle cx="945" cy="133" r="1" fill="#27AAE1"/>
<circle cx="967" cy="133" r="1" fill="#27AAE1"/>
<circle cx="989" cy="133" r="1" fill="#27AAE1"/>
<circle cx="1011" cy="133" r="1" fill="#27AAE1"/>
<circle cx="21" cy="155" r="1" fill="#27AAE1"/>
<circle cx="43" cy="155" r="1" fill="#27AAE1"/>
<circle cx="65" cy="155" r="1" fill="#27AAE1"/>
<circle cx="87" cy="155" r="1" fill="#27AAE1"/>
<circle cx="109" cy="155" r="1" fill="#27AAE1"/>
<circle cx="131" cy="155" r="1" fill="#27AAE1"/>
<circle cx="153" cy="155" r="1" fill="#27AAE1"/>
<circle cx="175" cy="155" r="1" fill="#27AAE1"/>
<circle cx="197" cy="155" r="1" fill="#27AAE1"/>
<circle cx="219" cy="155" r="1" fill="#27AAE1"/>
<circle cx="241" cy="155" r="1" fill="#27AAE1"/>
<circle cx="263" cy="155" r="1" fill="#27AAE1"/>
<circle cx="285" cy="155" r="1" fill="#27AAE1"/>
<circle cx="307" cy="155" r="1" fill="#27AAE1"/>
<circle cx="329" cy="155" r="1" fill="#27AAE1"/>
<circle cx="945" cy="155" r="1" fill="#27AAE1"/>
<circle cx="967" cy="155" r="1" fill="#27AAE1"/>
<circle cx="989" cy="155" r="1" fill="#27AAE1"/>
<circle cx="1011" cy="155" r="1" fill="#27AAE1"/>
<circle cx="21" cy="177" r="1" fill="#27AAE1"/>
<circle cx="43" cy="177" r="1" fill="#27AAE1"/>
<circle cx="65" cy="177" r="1" fill="#27AAE1"/>
<circle cx="87" cy="177" r="1" fill="#27AAE1"/>
<circle cx="109" cy="177" r="1" fill="#27AAE1"/>
<circle cx="131" cy="177" r="1" fill="#27AAE1"/>
<circle cx="153" cy="177" r="1" fill="#27AAE1"/>
<circle cx="175" cy="177" r="1" fill="#27AAE1"/>
<circle cx="197" cy="177" r="1" fill="#27AAE1"/>
<circle cx="219" cy="177" r="1" fill="#27AAE1"/>
<circle cx="241" cy="177" r="1" fill="#27AAE1"/>
<circle cx="263" cy="177" r="1" fill="#27AAE1"/>
<circle cx="285" cy="177" r="1" fill="#27AAE1"/>
<circle cx="307" cy="177" r="1" fill="#27AAE1"/>
<circle cx="329" cy="177" r="1" fill="#27AAE1"/>
<circle cx="791" cy="177" r="1" fill="#27AAE1"/>
<circle cx="813" cy="177" r="1" fill="#27AAE1"/>
<circle cx="835" cy="177" r="1" fill="#27AAE1"/>
<circle cx="857" cy="177" r="1" fill="#27AAE1"/>
<circle cx="879" cy="177" r="1" fill="#27AAE1"/>
<circle cx="901" cy="177" r="1" fill="#27AAE1"/>
<circle cx="923" cy="177" r="1" fill="#27AAE1"/>
<circle cx="945" cy="177" r="1" fill="#27AAE1"/>
<circle cx="967" cy="177" r="1" fill="#27AAE1"/>
<circle cx="989" cy="177" r="1" fill="#27AAE1"/>
<circle cx="1011" cy="177" r="1" fill="#27AAE1"/>
<circle cx="21" cy="199" r="1" fill="#27AAE1"/>
<circle cx="43" cy="199" r="1" fill="#27AAE1"/>
<circle cx="65" cy="199" r="1" fill="#27AAE1"/>
<circle cx="87" cy="199" r="1" fill="#27AAE1"/>
<circle cx="109" cy="199" r="1" fill="#27AAE1"/>
<circle cx="131" cy="199" r="1" fill="#27AAE1"/>
<circle cx="153" cy="199" r="1" fill="#27AAE1"/>
<circle cx="175" cy="199" r="1" fill="#27AAE1"/>
<circle cx="197" cy="199" r="1" fill="#27AAE1"/>
<circle cx="219" cy="199" r="1" fill="#27AAE1"/>
<circle cx="241" cy="199" r="1" fill="#27AAE1"/>
<circle cx="263" cy="199" r="1" fill="#27AAE1"/>
<circle cx="285" cy="199" r="1" fill="#27AAE1"/>
<circle cx="307" cy="199" r="1" fill="#27AAE1"/>
<circle cx="329" cy="199" r="1" fill="#27AAE1"/>
<circle cx="791" cy="199" r="1" fill="#27AAE1"/>
<circle cx="813" cy="199" r="1" fill="#27AAE1"/>
<circle cx="835" cy="199" r="1" fill="#27AAE1"/>
<circle cx="857" cy="199" r="1" fill="#27AAE1"/>
<circle cx="879" cy="199" r="1" fill="#27AAE1"/>
<circle cx="901" cy="199" r="1" fill="#27AAE1"/>
<circle cx="923" cy="199" r="1" fill="#27AAE1"/>
<circle cx="945" cy="199" r="1" fill="#27AAE1"/>
<circle cx="967" cy="199" r="1" fill="#27AAE1"/>
<circle cx="989" cy="199" r="1" fill="#27AAE1"/>
<circle cx="1011" cy="199" r="1" fill="#27AAE1"/>
<circle cx="21" cy="221" r="1" fill="#27AAE1"/>
<circle cx="43" cy="221" r="1" fill="#27AAE1"/>
<circle cx="65" cy="221" r="1" fill="#27AAE1"/>
<circle cx="87" cy="221" r="1" fill="#27AAE1"/>
<circle cx="109" cy="221" r="1" fill="#27AAE1"/>
<circle cx="131" cy="221" r="1" fill="#27AAE1"/>
<circle cx="153" cy="221" r="1" fill="#27AAE1"/>
<circle cx="175" cy="221" r="1" fill="#27AAE1"/>
<circle cx="197" cy="221" r="1" fill="#27AAE1"/>
<circle cx="219" cy="221" r="1" fill="#27AAE1"/>
<circle cx="241" cy="221" r="1" fill="#27AAE1"/>
<circle cx="263" cy="221" r="1" fill="#27AAE1"/>
<circle cx="285" cy="221" r="1" fill="#27AAE1"/>
<circle cx="307" cy="221" r="1" fill="#27AAE1"/>
<circle cx="329" cy="221" r="1" fill="#27AAE1"/>
<circle cx="791" cy="221" r="1" fill="#27AAE1"/>
<circle cx="813" cy="221" r="1" fill="#27AAE1"/>
<circle cx="835" cy="221" r="1" fill="#27AAE1"/>
<circle cx="857" cy="221" r="1" fill="#27AAE1"/>
<circle cx="879" cy="221" r="1" fill="#27AAE1"/>
<circle cx="901" cy="221" r="1" fill="#27AAE1"/>
<circle cx="923" cy="221" r="1" fill="#27AAE1"/>
<circle cx="945" cy="221" r="1" fill="#27AAE1"/>
<circle cx="967" cy="221" r="1" fill="#27AAE1"/>
<circle cx="989" cy="221" r="1" fill="#27AAE1"/>
<circle cx="1011" cy="221" r="1" fill="#27AAE1"/>
<circle cx="21" cy="243" r="1" fill="#27AAE1"/>
<circle cx="43" cy="243" r="1" fill="#27AAE1"/>
<circle cx="65" cy="243" r="1" fill="#27AAE1"/>
<circle cx="87" cy="243" r="1" fill="#27AAE1"/>
<circle cx="109" cy="243" r="1" fill="#27AAE1"/>
<circle cx="131" cy="243" r="1" fill="#27AAE1"/>
<circle cx="153" cy="243" r="1" fill="#27AAE1"/>
<circle cx="175" cy="243" r="1" fill="#27AAE1"/>
<circle cx="197" cy="243" r="1" fill="#27AAE1"/>
<circle cx="219" cy="243" r="1" fill="#27AAE1"/>
<circle cx="241" cy="243" r="1" fill="#27AAE1"/>
<circle cx="263" cy="243" r="1" fill="#27AAE1"/>
<circle cx="285" cy="243" r="1" fill="#27AAE1"/>
<circle cx="307" cy="243" r="1" fill="#27AAE1"/>
<circle cx="329" cy="243" r="1" fill="#27AAE1"/>
<circle cx="351" cy="243" r="1" fill="#27AAE1"/>
<circle cx="373" cy="243" r="1" fill="#27AAE1"/>
<circle cx="395" cy="243" r="1" fill="#27AAE1"/>
<circle cx="417" cy="243" r="1" fill="#27AAE1"/>
<circle cx="439" cy="243" r="1" fill="#27AAE1"/>
<circle cx="461" cy="243" r="1" fill="#27AAE1"/>
<circle cx="483" cy="243" r="1" fill="#27AAE1"/>
<circle cx="505" cy="243" r="1" fill="#27AAE1"/>
<circle cx="527" cy="243" r="1" fill="#27AAE1"/>
<circle cx="549" cy="243" r="1" fill="#27AAE1"/>
<circle cx="571" cy="243" r="1" fill="#27AAE1"/>
<circle cx="593" cy="243" r="1" fill="#27AAE1"/>
<circle cx="615" cy="243" r="1" fill="#27AAE1"/>
<circle cx="637" cy="243" r="1" fill="#27AAE1"/>
<circle cx="659" cy="243" r="1" fill="#27AAE1"/>
<circle cx="681" cy="243" r="1" fill="#27AAE1"/>
<circle cx="703" cy="243" r="1" fill="#27AAE1"/>
<circle cx="725" cy="243" r="1" fill="#27AAE1"/>
<circle cx="747" cy="243" r="1" fill="#27AAE1"/>
<circle cx="769" cy="243" r="1" fill="#27AAE1"/>
<circle cx="791" cy="243" r="1" fill="#27AAE1"/>
<circle cx="813" cy="243" r="1" fill="#27AAE1"/>
<circle cx="835" cy="243" r="1" fill="#27AAE1"/>
<circle cx="857" cy="243" r="1" fill="#27AAE1"/>
<circle cx="879" cy="243" r="1" fill="#27AAE1"/>
<circle cx="901" cy="243" r="1" fill="#27AAE1"/>
<circle cx="923" cy="243" r="1" fill="#27AAE1"/>
<circle cx="945" cy="243" r="1" fill="#27AAE1"/>
<circle cx="967" cy="243" r="1" fill="#27AAE1"/>
<circle cx="989" cy="243" r="1" fill="#27AAE1"/>
<circle cx="1011" cy="243" r="1" fill="#27AAE1"/>
<circle cx="21" cy="265" r="1" fill="#27AAE1"/>
<circle cx="43" cy="265" r="1" fill="#27AAE1"/>
<circle cx="65" cy="265" r="1" fill="#27AAE1"/>
<circle cx="87" cy="265" r="1" fill="#27AAE1"/>
<circle cx="109" cy="265" r="1" fill="#27AAE1"/>
<circle cx="131" cy="265" r="1" fill="#27AAE1"/>
<circle cx="153" cy="265" r="1" fill="#27AAE1"/>
<circle cx="175" cy="265" r="1" fill="#27AAE1"/>
<circle cx="197" cy="265" r="1" fill="#27AAE1"/>
<circle cx="219" cy="265" r="1" fill="#27AAE1"/>
<circle cx="241" cy="265" r="1" fill="#27AAE1"/>
<circle cx="263" cy="265" r="1" fill="#27AAE1"/>
<circle cx="285" cy="265" r="1" fill="#27AAE1"/>
<circle cx="307" cy="265" r="1" fill="#27AAE1"/>
<circle cx="945" cy="265" r="1" fill="#27AAE1"/>
<circle cx="967" cy="265" r="1" fill="#27AAE1"/>
<circle cx="989" cy="265" r="1" fill="#27AAE1"/>
<circle cx="1011" cy="265" r="1" fill="#27AAE1"/>
<circle cx="21" cy="287" r="1" fill="#27AAE1"/>
<circle cx="43" cy="287" r="1" fill="#27AAE1"/>
<circle cx="65" cy="287" r="1" fill="#27AAE1"/>
<circle cx="87" cy="287" r="1" fill="#27AAE1"/>
<circle cx="109" cy="287" r="1" fill="#27AAE1"/>
<circle cx="131" cy="287" r="1" fill="#27AAE1"/>
<circle cx="153" cy="287" r="1" fill="#27AAE1"/>
<circle cx="175" cy="287" r="1" fill="#27AAE1"/>
<circle cx="197" cy="287" r="1" fill="#27AAE1"/>
<circle cx="219" cy="287" r="1" fill="#27AAE1"/>
<circle cx="241" cy="287" r="1" fill="#27AAE1"/>
<circle cx="263" cy="287" r="1" fill="#27AAE1"/>
<circle cx="285" cy="287" r="1" fill="#27AAE1"/>
<circle cx="307" cy="287" r="1" fill="#27AAE1"/>
<circle cx="945" cy="287" r="1" fill="#27AAE1"/>
<circle cx="967" cy="287" r="1" fill="#27AAE1"/>
<circle cx="989" cy="287" r="1" fill="#27AAE1"/>
<circle cx="1011" cy="287" r="1" fill="#27AAE1"/>
<circle cx="21" cy="309" r="1" fill="#27AAE1"/>
<circle cx="43" cy="309" r="1" fill="#27AAE1"/>
<circle cx="65" cy="309" r="1" fill="#27AAE1"/>
<circle cx="87" cy="309" r="1" fill="#27AAE1"/>
<circle cx="109" cy="309" r="1" fill="#27AAE1"/>
<circle cx="131" cy="309" r="1" fill="#27AAE1"/>
<circle cx="153" cy="309" r="1" fill="#27AAE1"/>
<circle cx="175" cy="309" r="1" fill="#27AAE1"/>
<circle cx="197" cy="309" r="1" fill="#27AAE1"/>
<circle cx="219" cy="309" r="1" fill="#27AAE1"/>
<circle cx="241" cy="309" r="1" fill="#27AAE1"/>
<circle cx="263" cy="309" r="1" fill="#27AAE1"/>
<circle cx="285" cy="309" r="1" fill="#27AAE1"/>
<circle cx="307" cy="309" r="1" fill="#27AAE1"/>
<circle cx="329" cy="309" r="1" fill="#27AAE1"/>
<circle cx="351" cy="309" r="1" fill="#27AAE1"/>
<circle cx="373" cy="309" r="1" fill="#27AAE1"/>
<circle cx="395" cy="309" r="1" fill="#27AAE1"/>
<circle cx="417" cy="309" r="1" fill="#27AAE1"/>
<circle cx="439" cy="309" r="1" fill="#27AAE1"/>
<circle cx="461" cy="309" r="1" fill="#27AAE1"/>
<circle cx="483" cy="309" r="1" fill="#27AAE1"/>
<circle cx="505" cy="309" r="1" fill="#27AAE1"/>
<circle cx="527" cy="309" r="1" fill="#27AAE1"/>
<circle cx="549" cy="309" r="1" fill="#27AAE1"/>
<circle cx="571" cy="309" r="1" fill="#27AAE1"/>
<circle cx="593" cy="309" r="1" fill="#27AAE1"/>
<circle cx="615" cy="309" r="1" fill="#27AAE1"/>
<circle cx="637" cy="309" r="1" fill="#27AAE1"/>
<circle cx="659" cy="309" r="1" fill="#27AAE1"/>
<circle cx="681" cy="309" r="1" fill="#27AAE1"/>
<circle cx="703" cy="309" r="1" fill="#27AAE1"/>
<circle cx="725" cy="309" r="1" fill="#27AAE1"/>
<circle cx="747" cy="309" r="1" fill="#27AAE1"/>
<circle cx="769" cy="309" r="1" fill="#27AAE1"/>
<circle cx="791" cy="309" r="1" fill="#27AAE1"/>
<circle cx="813" cy="309" r="1" fill="#27AAE1"/>
<circle cx="835" cy="309" r="1" fill="#27AAE1"/>
<circle cx="857" cy="309" r="1" fill="#27AAE1"/>
<circle cx="879" cy="309" r="1" fill="#27AAE1"/>
<circle cx="901" cy="309" r="1" fill="#27AAE1"/>
<circle cx="923" cy="309" r="1" fill="#27AAE1"/>
<circle cx="945" cy="309" r="1" fill="#27AAE1"/>
<circle cx="967" cy="309" r="1" fill="#27AAE1"/>
<circle cx="989" cy="309" r="1" fill="#27AAE1"/>
<circle cx="1011" cy="309" r="1" fill="#27AAE1"/>
<circle cx="21" cy="331" r="1" fill="#27AAE1"/>
<circle cx="43" cy="331" r="1" fill="#27AAE1"/>
<circle cx="65" cy="331" r="1" fill="#27AAE1"/>
<circle cx="87" cy="331" r="1" fill="#27AAE1"/>
<circle cx="109" cy="331" r="1" fill="#27AAE1"/>
<circle cx="131" cy="331" r="1" fill="#27AAE1"/>
<circle cx="153" cy="331" r="1" fill="#27AAE1"/>
<circle cx="175" cy="331" r="1" fill="#27AAE1"/>
<circle cx="197" cy="331" r="1" fill="#27AAE1"/>
<circle cx="219" cy="331" r="1" fill="#27AAE1"/>
<circle cx="241" cy="331" r="1" fill="#27AAE1"/>
<circle cx="263" cy="331" r="1" fill="#27AAE1"/>
<circle cx="285" cy="331" r="1" fill="#27AAE1"/>
<circle cx="307" cy="331" r="1" fill="#27AAE1"/>
<circle cx="329" cy="331" r="1" fill="#27AAE1"/>
<circle cx="351" cy="331" r="1" fill="#27AAE1"/>
<circle cx="373" cy="331" r="1" fill="#27AAE1"/>
<circle cx="395" cy="331" r="1" fill="#27AAE1"/>
<circle cx="417" cy="331" r="1" fill="#27AAE1"/>
<circle cx="439" cy="331" r="1" fill="#27AAE1"/>
<circle cx="461" cy="331" r="1" fill="#27AAE1"/>
<circle cx="483" cy="331" r="1" fill="#27AAE1"/>
<circle cx="505" cy="331" r="1" fill="#27AAE1"/>
<circle cx="527" cy="331" r="1" fill="#27AAE1"/>
<circle cx="549" cy="331" r="1" fill="#27AAE1"/>
<circle cx="571" cy="331" r="1" fill="#27AAE1"/>
<circle cx="593" cy="331" r="1" fill="#27AAE1"/>
<circle cx="615" cy="331" r="1" fill="#27AAE1"/>
<circle cx="637" cy="331" r="1" fill="#27AAE1"/>
<circle cx="659" cy="331" r="1" fill="#27AAE1"/>
<circle cx="681" cy="331" r="1" fill="#27AAE1"/>
<circle cx="703" cy="331" r="1" fill="#27AAE1"/>
<circle cx="725" cy="331" r="1" fill="#27AAE1"/>
<circle cx="747" cy="331" r="1" fill="#27AAE1"/>
<circle cx="769" cy="331" r="1" fill="#27AAE1"/>
<circle cx="791" cy="331" r="1" fill="#27AAE1"/>
<circle cx="813" cy="331" r="1" fill="#27AAE1"/>
<circle cx="835" cy="331" r="1" fill="#27AAE1"/>
<circle cx="857" cy="331" r="1" fill="#27AAE1"/>
<circle cx="879" cy="331" r="1" fill="#27AAE1"/>
<circle cx="901" cy="331" r="1" fill="#27AAE1"/>
<circle cx="923" cy="331" r="1" fill="#27AAE1"/>
<circle cx="945" cy="331" r="1" fill="#27AAE1"/>
<circle cx="967" cy="331" r="1" fill="#27AAE1"/>
<circle cx="989" cy="331" r="1" fill="#27AAE1"/>
<circle cx="1011" cy="331" r="1" fill="#27AAE1"/>
<circle cx="21" cy="353" r="1" fill="#27AAE1"/>
<circle cx="43" cy="353" r="1" fill="#27AAE1"/>
<circle cx="65" cy="353" r="1" fill="#27AAE1"/>
<circle cx="87" cy="353" r="1" fill="#27AAE1"/>
<circle cx="109" cy="353" r="1" fill="#27AAE1"/>
<circle cx="131" cy="353" r="1" fill="#27AAE1"/>
<circle cx="153" cy="353" r="1" fill="#27AAE1"/>
<circle cx="175" cy="353" r="1" fill="#27AAE1"/>
<circle cx="197" cy="353" r="1" fill="#27AAE1"/>
<circle cx="219" cy="353" r="1" fill="#27AAE1"/>
<circle cx="241" cy="353" r="1" fill="#27AAE1"/>
<circle cx="263" cy="353" r="1" fill="#27AAE1"/>
<circle cx="285" cy="353" r="1" fill="#27AAE1"/>
<circle cx="307" cy="353" r="1" fill="#27AAE1"/>
<circle cx="329" cy="353" r="1" fill="#27AAE1"/>
<circle cx="351" cy="353" r="1" fill="#27AAE1"/>
<circle cx="373" cy="353" r="1" fill="#27AAE1"/>
<circle cx="395" cy="353" r="1" fill="#27AAE1"/>
<circle cx="417" cy="353" r="1" fill="#27AAE1"/>
<circle cx="439" cy="353" r="1" fill="#27AAE1"/>
<circle cx="461" cy="353" r="1" fill="#27AAE1"/>
<circle cx="483" cy="353" r="1" fill="#27AAE1"/>
<circle cx="505" cy="353" r="1" fill="#27AAE1"/>
<circle cx="527" cy="353" r="1" fill="#27AAE1"/>
<circle cx="549" cy="353" r="1" fill="#27AAE1"/>
<circle cx="571" cy="353" r="1" fill="#27AAE1"/>
<circle cx="593" cy="353" r="1" fill="#27AAE1"/>
<circle cx="615" cy="353" r="1" fill="#27AAE1"/>
<circle cx="637" cy="353" r="1" fill="#27AAE1"/>
<circle cx="659" cy="353" r="1" fill="#27AAE1"/>
<circle cx="681" cy="353" r="1" fill="#27AAE1"/>
<circle cx="703" cy="353" r="1" fill="#27AAE1"/>
<circle cx="725" cy="353" r="1" fill="#27AAE1"/>
<circle cx="747" cy="353" r="1" fill="#27AAE1"/>
<circle cx="769" cy="353" r="1" fill="#27AAE1"/>
<circle cx="791" cy="353" r="1" fill="#27AAE1"/>
<circle cx="813" cy="353" r="1" fill="#27AAE1"/>
<circle cx="835" cy="353" r="1" fill="#27AAE1"/>
<circle cx="857" cy="353" r="1" fill="#27AAE1"/>
<circle cx="879" cy="353" r="1" fill="#27AAE1"/>
<circle cx="901" cy="353" r="1" fill="#27AAE1"/>
<circle cx="923" cy="353" r="1" fill="#27AAE1"/>
<circle cx="945" cy="353" r="1" fill="#27AAE1"/>
<circle cx="967" cy="353" r="1" fill="#27AAE1"/>
<circle cx="989" cy="353" r="1" fill="#27AAE1"/>
<circle cx="1011" cy="353" r="1" fill="#27AAE1"/>
<circle cx="21" cy="375" r="1" fill="#27AAE1"/>
<circle cx="43" cy="375" r="1" fill="#27AAE1"/>
<circle cx="65" cy="375" r="1" fill="#27AAE1"/>
<circle cx="87" cy="375" r="1" fill="#27AAE1"/>
<circle cx="109" cy="375" r="1" fill="#27AAE1"/>
<circle cx="131" cy="375" r="1" fill="#27AAE1"/>
<circle cx="153" cy="375" r="1" fill="#27AAE1"/>
<circle cx="175" cy="375" r="1" fill="#27AAE1"/>
<circle cx="197" cy="375" r="1" fill="#27AAE1"/>
<circle cx="219" cy="375" r="1" fill="#27AAE1"/>
<circle cx="241" cy="375" r="1" fill="#27AAE1"/>
<circle cx="263" cy="375" r="1" fill="#27AAE1"/>
<circle cx="285" cy="375" r="1" fill="#27AAE1"/>
<circle cx="307" cy="375" r="1" fill="#27AAE1"/>
<circle cx="329" cy="375" r="1" fill="#27AAE1"/>
<circle cx="351" cy="375" r="1" fill="#27AAE1"/>
<circle cx="373" cy="375" r="1" fill="#27AAE1"/>
<circle cx="395" cy="375" r="1" fill="#27AAE1"/>
<circle cx="417" cy="375" r="1" fill="#27AAE1"/>
<circle cx="439" cy="375" r="1" fill="#27AAE1"/>
<circle cx="461" cy="375" r="1" fill="#27AAE1"/>
<circle cx="483" cy="375" r="1" fill="#27AAE1"/>
<circle cx="505" cy="375" r="1" fill="#27AAE1"/>
<circle cx="527" cy="375" r="1" fill="#27AAE1"/>
<circle cx="549" cy="375" r="1" fill="#27AAE1"/>
<circle cx="571" cy="375" r="1" fill="#27AAE1"/>
<circle cx="593" cy="375" r="1" fill="#27AAE1"/>
<circle cx="615" cy="375" r="1" fill="#27AAE1"/>
<circle cx="637" cy="375" r="1" fill="#27AAE1"/>
<circle cx="659" cy="375" r="1" fill="#27AAE1"/>
<circle cx="681" cy="375" r="1" fill="#27AAE1"/>
<circle cx="703" cy="375" r="1" fill="#27AAE1"/>
<circle cx="725" cy="375" r="1" fill="#27AAE1"/>
<circle cx="747" cy="375" r="1" fill="#27AAE1"/>
<circle cx="769" cy="375" r="1" fill="#27AAE1"/>
<circle cx="791" cy="375" r="1" fill="#27AAE1"/>
<circle cx="813" cy="375" r="1" fill="#27AAE1"/>
<circle cx="835" cy="375" r="1" fill="#27AAE1"/>
<circle cx="857" cy="375" r="1" fill="#27AAE1"/>
<circle cx="879" cy="375" r="1" fill="#27AAE1"/>
<circle cx="901" cy="375" r="1" fill="#27AAE1"/>
<circle cx="923" cy="375" r="1" fill="#27AAE1"/>
<circle cx="945" cy="375" r="1" fill="#27AAE1"/>
<circle cx="967" cy="375" r="1" fill="#27AAE1"/>
<circle cx="989" cy="375" r="1" fill="#27AAE1"/>
<circle cx="1011" cy="375" r="1" fill="#27AAE1"/>
<circle cx="21" cy="397" r="1" fill="#27AAE1"/>
<circle cx="43" cy="397" r="1" fill="#27AAE1"/>
<circle cx="65" cy="397" r="1" fill="#27AAE1"/>
<circle cx="87" cy="397" r="1" fill="#27AAE1"/>
<circle cx="109" cy="397" r="1" fill="#27AAE1"/>
<circle cx="131" cy="397" r="1" fill="#27AAE1"/>
<circle cx="153" cy="397" r="1" fill="#27AAE1"/>
<circle cx="175" cy="397" r="1" fill="#27AAE1"/>
<circle cx="197" cy="397" r="1" fill="#27AAE1"/>
<circle cx="219" cy="397" r="1" fill="#27AAE1"/>
<circle cx="241" cy="397" r="1" fill="#27AAE1"/>
<circle cx="263" cy="397" r="1" fill="#27AAE1"/>
<circle cx="285" cy="397" r="1" fill="#27AAE1"/>
<circle cx="307" cy="397" r="1" fill="#27AAE1"/>
<circle cx="329" cy="397" r="1" fill="#27AAE1"/>
<circle cx="351" cy="397" r="1" fill="#27AAE1"/>
<circle cx="373" cy="397" r="1" fill="#27AAE1"/>
<circle cx="395" cy="397" r="1" fill="#27AAE1"/>
<circle cx="417" cy="397" r="1" fill="#27AAE1"/>
<circle cx="439" cy="397" r="1" fill="#27AAE1"/>
<circle cx="461" cy="397" r="1" fill="#27AAE1"/>
<circle cx="483" cy="397" r="1" fill="#27AAE1"/>
<circle cx="505" cy="397" r="1" fill="#27AAE1"/>
<circle cx="527" cy="397" r="1" fill="#27AAE1"/>
<circle cx="549" cy="397" r="1" fill="#27AAE1"/>
<circle cx="571" cy="397" r="1" fill="#27AAE1"/>
<circle cx="593" cy="397" r="1" fill="#27AAE1"/>
<circle cx="615" cy="397" r="1" fill="#27AAE1"/>
<circle cx="637" cy="397" r="1" fill="#27AAE1"/>
<circle cx="659" cy="397" r="1" fill="#27AAE1"/>
<circle cx="681" cy="397" r="1" fill="#27AAE1"/>
<circle cx="703" cy="397" r="1" fill="#27AAE1"/>
<circle cx="725" cy="397" r="1" fill="#27AAE1"/>
<circle cx="747" cy="397" r="1" fill="#27AAE1"/>
<circle cx="769" cy="397" r="1" fill="#27AAE1"/>
<circle cx="791" cy="397" r="1" fill="#27AAE1"/>
<circle cx="813" cy="397" r="1" fill="#27AAE1"/>
<circle cx="835" cy="397" r="1" fill="#27AAE1"/>
<circle cx="857" cy="397" r="1" fill="#27AAE1"/>
<circle cx="879" cy="397" r="1" fill="#27AAE1"/>
<circle cx="901" cy="397" r="1" fill="#27AAE1"/>
<circle cx="923" cy="397" r="1" fill="#27AAE1"/>
<circle cx="945" cy="397" r="1" fill="#27AAE1"/>
<circle cx="967" cy="397" r="1" fill="#27AAE1"/>
<circle cx="989" cy="397" r="1" fill="#27AAE1"/>
<circle cx="1011" cy="397" r="1" fill="#27AAE1"/>
<circle cx="21" cy="419" r="1" fill="#27AAE1"/>
<circle cx="43" cy="419" r="1" fill="#27AAE1"/>
<circle cx="65" cy="419" r="1" fill="#27AAE1"/>
<circle cx="87" cy="419" r="1" fill="#27AAE1"/>
<circle cx="109" cy="419" r="1" fill="#27AAE1"/>
<circle cx="131" cy="419" r="1" fill="#27AAE1"/>
<circle cx="153" cy="419" r="1" fill="#27AAE1"/>
<circle cx="175" cy="419" r="1" fill="#27AAE1"/>
<circle cx="197" cy="419" r="1" fill="#27AAE1"/>
<circle cx="219" cy="419" r="1" fill="#27AAE1"/>
<circle cx="241" cy="419" r="1" fill="#27AAE1"/>
<circle cx="263" cy="419" r="1" fill="#27AAE1"/>
<circle cx="285" cy="419" r="1" fill="#27AAE1"/>
<circle cx="307" cy="419" r="1" fill="#27AAE1"/>
<circle cx="329" cy="419" r="1" fill="#27AAE1"/>
<circle cx="351" cy="419" r="1" fill="#27AAE1"/>
<circle cx="373" cy="419" r="1" fill="#27AAE1"/>
<circle cx="395" cy="419" r="1" fill="#27AAE1"/>
<circle cx="417" cy="419" r="1" fill="#27AAE1"/>
<circle cx="439" cy="419" r="1" fill="#27AAE1"/>
<circle cx="461" cy="419" r="1" fill="#27AAE1"/>
<circle cx="483" cy="419" r="1" fill="#27AAE1"/>
<circle cx="505" cy="419" r="1" fill="#27AAE1"/>
<circle cx="527" cy="419" r="1" fill="#27AAE1"/>
<circle cx="549" cy="419" r="1" fill="#27AAE1"/>
<circle cx="571" cy="419" r="1" fill="#27AAE1"/>
<circle cx="593" cy="419" r="1" fill="#27AAE1"/>
<circle cx="615" cy="419" r="1" fill="#27AAE1"/>
<circle cx="637" cy="419" r="1" fill="#27AAE1"/>
<circle cx="659" cy="419" r="1" fill="#27AAE1"/>
<circle cx="681" cy="419" r="1" fill="#27AAE1"/>
<circle cx="703" cy="419" r="1" fill="#27AAE1"/>
<circle cx="725" cy="419" r="1" fill="#27AAE1"/>
<circle cx="747" cy="419" r="1" fill="#27AAE1"/>
<circle cx="769" cy="419" r="1" fill="#27AAE1"/>
<circle cx="791" cy="419" r="1" fill="#27AAE1"/>
<circle cx="813" cy="419" r="1" fill="#27AAE1"/>
<circle cx="835" cy="419" r="1" fill="#27AAE1"/>
<circle cx="857" cy="419" r="1" fill="#27AAE1"/>
<circle cx="879" cy="419" r="1" fill="#27AAE1"/>
<circle cx="901" cy="419" r="1" fill="#27AAE1"/>
<circle cx="923" cy="419" r="1" fill="#27AAE1"/>
<circle cx="945" cy="419" r="1" fill="#27AAE1"/>
<circle cx="967" cy="419" r="1" fill="#27AAE1"/>
<circle cx="989" cy="419" r="1" fill="#27AAE1"/>
<circle cx="1011" cy="419" r="1" fill="#27AAE1"/>
<circle cx="21" cy="441" r="1" fill="#27AAE1"/>
<circle cx="43" cy="441" r="1" fill="#27AAE1"/>
<circle cx="65" cy="441" r="1" fill="#27AAE1"/>
<circle cx="87" cy="441" r="1" fill="#27AAE1"/>
<circle cx="109" cy="441" r="1" fill="#27AAE1"/>
<circle cx="131" cy="441" r="1" fill="#27AAE1"/>
<circle cx="153" cy="441" r="1" fill="#27AAE1"/>
<circle cx="175" cy="441" r="1" fill="#27AAE1"/>
<circle cx="197" cy="441" r="1" fill="#27AAE1"/>
<circle cx="219" cy="441" r="1" fill="#27AAE1"/>
<circle cx="241" cy="441" r="1" fill="#27AAE1"/>
<circle cx="263" cy="441" r="1" fill="#27AAE1"/>
<circle cx="285" cy="441" r="1" fill="#27AAE1"/>
<circle cx="307" cy="441" r="1" fill="#27AAE1"/>
<circle cx="329" cy="441" r="1" fill="#27AAE1"/>
<circle cx="351" cy="441" r="1" fill="#27AAE1"/>
<circle cx="373" cy="441" r="1" fill="#27AAE1"/>
<circle cx="395" cy="441" r="1" fill="#27AAE1"/>
<circle cx="417" cy="441" r="1" fill="#27AAE1"/>
<circle cx="439" cy="441" r="1" fill="#27AAE1"/>
<circle cx="461" cy="441" r="1" fill="#27AAE1"/>
<circle cx="483" cy="441" r="1" fill="#27AAE1"/>
<circle cx="505" cy="441" r="1" fill="#27AAE1"/>
<circle cx="527" cy="441" r="1" fill="#27AAE1"/>
<circle cx="549" cy="441" r="1" fill="#27AAE1"/>
<circle cx="571" cy="441" r="1" fill="#27AAE1"/>
<circle cx="593" cy="441" r="1" fill="#27AAE1"/>
<circle cx="615" cy="441" r="1" fill="#27AAE1"/>
<circle cx="637" cy="441" r="1" fill="#27AAE1"/>
<circle cx="659" cy="441" r="1" fill="#27AAE1"/>
<circle cx="681" cy="441" r="1" fill="#27AAE1"/>
<circle cx="703" cy="441" r="1" fill="#27AAE1"/>
<circle cx="725" cy="441" r="1" fill="#27AAE1"/>
<circle cx="747" cy="441" r="1" fill="#27AAE1"/>
<circle cx="769" cy="441" r="1" fill="#27AAE1"/>
<circle cx="791" cy="441" r="1" fill="#27AAE1"/>
<circle cx="813" cy="441" r="1" fill="#27AAE1"/>
<circle cx="835" cy="441" r="1" fill="#27AAE1"/>
<circle cx="857" cy="441" r="1" fill="#27AAE1"/>
<circle cx="879" cy="441" r="1" fill="#27AAE1"/>
<circle cx="901" cy="441" r="1" fill="#27AAE1"/>
<circle cx="923" cy="441" r="1" fill="#27AAE1"/>
<circle cx="945" cy="441" r="1" fill="#27AAE1"/>
<circle cx="967" cy="441" r="1" fill="#27AAE1"/>
<circle cx="989" cy="441" r="1" fill="#27AAE1"/>
<circle cx="1011" cy="441" r="1" fill="#27AAE1"/>
</g>
</svg>
