<svg width="57" height="41" viewBox="0 0 57 41" fill="none" xmlns="http://www.w3.org/2000/svg">
<path d="M9.38625 40.2683C4.20959 40.2683 0 36.0588 0 30.8821C0 25.7054 4.20959 21.4958 9.38625 21.4958C14.5629 21.4958 18.7725 25.7054 18.7725 30.8821C18.7725 36.0872 14.5629 40.2683 9.38625 40.2683Z" fill="white"/>
<path d="M9.38625 40.2683C4.20959 40.2683 0 36.0588 0 30.8821C0 25.7054 4.20959 21.4958 9.38625 21.4958C14.5629 21.4958 18.7725 25.7054 18.7725 30.8821C18.7725 36.0872 14.5629 40.2683 9.38625 40.2683Z" fill="white"/>
<path d="M31.5711 1.04508L21.3885 17.6843C21.104 18.1679 21.4169 18.7652 21.9573 18.7652H32.14H42.3226C42.8631 18.7652 43.1759 18.1394 42.8915 17.6843L32.7089 1.04508C32.4244 0.618436 31.8271 0.618436 31.5711 1.04508Z" fill="white"/>
<path d="M18.5719 3.86116L14.9027 0.191991C14.6467 -0.0639971 14.1916 -0.0639971 13.9357 0.191991L9.89672 4.23092C9.64074 4.48691 9.18565 4.48691 8.92966 4.23092L4.89072 0.191991C4.63474 -0.0639971 4.17965 -0.0639971 3.92366 0.191991L0.254491 3.86116C-0.00149714 4.11715 -0.00149714 4.57224 0.254491 4.82823L4.29342 8.86716C4.5494 9.12315 4.5494 9.57824 4.29342 9.83422L0.254491 13.8732C-0.00149714 14.1291 -0.00149714 14.5842 0.254491 14.8402L3.92366 18.5094C4.17965 18.7654 4.63474 18.7654 4.89072 18.5094L8.92966 14.4705C9.18565 14.2145 9.64074 14.2145 9.89672 14.4705L13.9357 18.5094C14.1916 18.7654 14.6467 18.7654 14.9027 18.5094L18.5719 14.8402C18.8279 14.5842 18.8279 14.1291 18.5719 13.8732L14.533 9.83422C14.277 9.57824 14.277 9.12315 14.533 8.86716L18.5719 4.82823C18.8563 4.57224 18.8563 4.14559 18.5719 3.86116Z" fill="white"/>
<path d="M23.1802 27.9809V29.1755H25.2566V30.0003H23.1802V31.6216H22.1562V27.156H25.5125V27.9809H23.1802Z" fill="white"/>
<path d="M26.9076 31.1665C26.5663 30.8252 26.3672 30.3132 26.3672 29.659V27.156H27.3911V29.6021C27.3911 30.3985 27.7325 30.7967 28.3867 30.7967C28.6995 30.7967 28.9555 30.7114 29.1262 30.5123C29.2968 30.3132 29.3822 30.0288 29.3822 29.6021V27.156H30.4061V29.659C30.4061 30.3132 30.2355 30.8252 29.8657 31.1665C29.5244 31.5078 29.0124 31.7069 28.3867 31.7069C27.7609 31.7069 27.2489 31.5078 26.9076 31.1665Z" fill="white"/>
<path d="M32.4534 28.0093H31.0312V27.156H34.8995V28.0093H33.4774V31.6216H32.4534V28.0093Z" fill="white"/>
<path d="M36.0639 31.1665C35.7225 30.8252 35.5234 30.3132 35.5234 29.659V27.156H36.5474V29.6021C36.5474 30.3985 36.8887 30.7967 37.5429 30.7967C37.8558 30.7967 38.1118 30.7114 38.2824 30.5123C38.4531 30.3132 38.5384 30.0288 38.5384 29.6021V27.156H39.5624V29.659C39.5624 30.3132 39.3917 30.8252 39.0219 31.1665C38.6806 31.5078 38.1687 31.7069 37.5429 31.7069C36.9172 31.7069 36.4336 31.5078 36.0639 31.1665Z" fill="white"/>
<path d="M43.6021 31.6217L42.7488 30.3702H42.6919H41.7818V31.6217H40.7578V27.1846H42.6919C43.0901 27.1846 43.4315 27.2415 43.7159 27.3837C44.0003 27.5259 44.2279 27.6966 44.3985 27.9525C44.5408 28.1801 44.6261 28.493 44.6261 28.8058C44.6261 29.1472 44.5408 29.4316 44.3985 29.6591C44.2279 29.8867 44.0003 30.0858 43.7159 30.1995L44.7114 31.6217H43.6021ZM43.3461 28.2085C43.1755 28.0663 42.9479 28.0094 42.6351 28.0094H41.7818V29.5738H42.6351C42.9479 29.5738 43.1755 29.5169 43.3461 29.3747C43.5168 29.2325 43.5737 29.0618 43.5737 28.8058C43.6021 28.5214 43.5168 28.3507 43.3461 28.2085Z" fill="white"/>
<path d="M49.094 30.7967V31.6216H45.6523V27.156H49.0086V27.9809H46.6763V28.9479H48.7242V29.7728H46.6763V30.7967H49.094Z" fill="white"/>
<path d="M25.0855 38.9032H23.0092L22.611 39.8702H21.5586L23.5496 35.4331H24.5736L26.5646 39.8702H25.4837L25.0855 38.9032ZM24.7727 38.1352L24.0616 36.4286L23.3505 38.1352H24.7727Z" fill="white"/>
<path d="M28.0451 39.6425C27.6753 39.4434 27.3909 39.1589 27.1918 38.8176C26.9927 38.4763 26.8789 38.0781 26.8789 37.623C26.8789 37.1963 26.9927 36.7981 27.1918 36.4284C27.3909 36.0871 27.7038 35.8026 28.0451 35.6035C28.4148 35.4044 28.813 35.3191 29.2681 35.3191C29.6663 35.3191 30.0076 35.376 30.3205 35.5182C30.6334 35.6604 30.8894 35.8595 31.1169 36.1155L30.4627 36.7128C30.1499 36.3715 29.7801 36.2008 29.3535 36.2008C29.069 36.2008 28.8415 36.2577 28.6139 36.3715C28.3864 36.4853 28.2157 36.6559 28.102 36.8835C27.9882 37.111 27.9313 37.3386 27.9313 37.623C27.9313 37.9074 27.9882 38.135 28.102 38.3625C28.2157 38.5901 28.3864 38.7607 28.6139 38.8745C28.8415 38.9883 29.069 39.0451 29.3535 39.0451C29.8085 39.0451 30.1783 38.8745 30.4627 38.5047L31.1169 39.102C30.9178 39.358 30.6334 39.5571 30.3205 39.6993C30.0076 39.8416 29.6663 39.8984 29.2681 39.8984C28.8415 39.9269 28.4148 39.8416 28.0451 39.6425Z" fill="white"/>
<path d="M34.8434 38.9032H32.767L32.3688 39.8702H31.3164L33.3074 35.4331H34.3314L36.3224 39.8702H35.2416L34.8434 38.9032ZM34.5305 38.1352L33.8194 36.4286L33.1083 38.1352H34.5305Z" fill="white"/>
<path d="M36.9766 35.4045H38.996C39.4796 35.4045 39.9062 35.4899 40.276 35.689C40.6457 35.8596 40.9302 36.1441 41.1293 36.4569C41.3284 36.7983 41.4421 37.168 41.4421 37.6231C41.4421 38.0782 41.3284 38.448 41.1293 38.7893C40.9302 39.1306 40.6457 39.3866 40.276 39.5572C39.9062 39.7279 39.4796 39.8417 38.996 39.8417H36.9766V35.4045ZM38.9391 39.0168C39.3942 39.0168 39.7355 38.9031 39.9915 38.6471C40.2475 38.3911 40.3897 38.0498 40.3897 37.6516C40.3897 37.2249 40.2475 36.8836 39.9915 36.656C39.7355 36.4001 39.3658 36.2863 38.9391 36.2863H38.0005V39.0453H38.9391V39.0168Z" fill="white"/>
<path d="M45.8518 39.0453V39.8701H42.4102V35.4045H45.7665V36.2294H43.4341V37.1965H45.5105V37.9929H43.4341V39.0453H45.8518Z" fill="white"/>
<path d="M50.9139 39.8701V37.1965L49.6055 39.3866H49.1505L47.8421 37.2533V39.8701H46.875V35.4045H47.7283L49.378 38.1635L51.0277 35.4045H51.881V39.8701H50.9139Z" fill="white"/>
<path d="M55.2668 38.2773V39.8701H54.2428V38.2773L52.5078 35.4045H53.6171L54.8117 37.3956L55.9779 35.4045H57.0018L55.2668 38.2773Z" fill="white"/>
</svg>
