<svg width="186" height="75" viewBox="0 0 186 75" fill="none" xmlns="http://www.w3.org/2000/svg">
<g filter="url(#filter0_d_5_872)">
<path fill-rule="evenodd" clip-rule="evenodd" d="M13.125 13.7773H168.994V59.7552H13.125V13.7773ZM13.9402 14.5926V58.94H168.178V14.5926H13.9402Z" fill="white"/>
</g>
<path d="M48.0861 39.092H40.8078L39.3013 42.5159H37.2861L43.4883 28.8203H45.4252L51.6469 42.5159H49.5926L48.0861 39.092ZM47.4013 37.5268L44.447 30.816L41.4926 37.5268H47.4013Z" fill="white"/>
<path d="M53.6976 32.1464H55.5758V36.5485H61.4845V32.1464H63.3627V42.5159H61.4845V38.1724H55.5758V42.5159H53.6976V32.1464Z" fill="white"/>
<path d="M67.0148 32.1464H68.8931V39.6985L75.2517 32.1464H76.9539V42.5159H75.0756V34.9638L68.7366 42.5159H67.0148V32.1464Z" fill="white"/>
<path d="M92.5538 32.1464V42.5159H90.8517V34.9442L86.9778 41.342H86.1561L82.3213 34.9246V42.5159H80.5996V32.1464H82.5365L86.606 39.1507L90.793 32.1464H92.5538Z" fill="white"/>
<path d="M99.9074 32.0486C101.342 32.0486 102.438 32.4007 103.194 33.1051C103.964 33.8094 104.349 34.8594 104.349 36.255V42.5159H102.568V41.1463C102.255 41.6289 101.805 42.0007 101.218 42.2615C100.644 42.5094 99.9596 42.6333 99.1639 42.6333C98.0031 42.6333 97.0705 42.3528 96.3661 41.792C95.6748 41.2311 95.3292 40.4941 95.3292 39.5811C95.3292 38.6681 95.6618 37.9376 96.327 37.3898C96.9922 36.829 98.0487 36.5485 99.4965 36.5485H102.47V36.1768C102.47 35.3681 102.236 34.7485 101.766 34.3181C101.297 33.8877 100.605 33.6725 99.6922 33.6725C99.0791 33.6725 98.4791 33.7768 97.8922 33.9855C97.3052 34.1811 96.8096 34.4485 96.4053 34.7877L95.6227 33.379C96.1574 32.9485 96.7966 32.6225 97.54 32.4007C98.2835 32.1659 99.0726 32.0486 99.9074 32.0486ZM99.477 41.1854C100.194 41.1854 100.814 41.0289 101.336 40.7159C101.857 40.3898 102.236 39.9333 102.47 39.3463V37.8985H99.5748C97.9835 37.8985 97.1879 38.4333 97.1879 39.5028C97.1879 40.0246 97.39 40.4355 97.7944 40.7355C98.1987 41.0354 98.7596 41.1854 99.477 41.1854Z" fill="white"/>
<path d="M118.805 40.8724V45.0006H117.024V42.5159H107.731V32.1464H109.609V40.8724H115.283V32.1464H117.161V40.8724H118.805Z" fill="white"/>
<path d="M121.239 32.1464H123.117V39.6985L129.476 32.1464H131.178V42.5159H129.3V34.9638L122.961 42.5159H121.239V32.1464Z" fill="white"/>
<path d="M143.139 32.1464V42.5159H141.456V39.2289H138.443H138.228L135.959 42.5159H133.943L136.467 38.9746C135.685 38.7398 135.085 38.355 134.667 37.8203C134.25 37.2724 134.041 36.5942 134.041 35.7855C134.041 34.5985 134.446 33.6985 135.254 33.0855C136.063 32.4594 137.178 32.1464 138.6 32.1464H143.139ZM135.959 35.8442C135.959 36.5355 136.174 37.0507 136.604 37.3898C137.048 37.7159 137.706 37.8789 138.58 37.8789H141.456V33.7898H138.659C136.859 33.7898 135.959 34.4746 135.959 35.8442Z" fill="white"/>
<path fill-rule="evenodd" clip-rule="evenodd" d="M148.531 0H185.542V19.8912H182.281V3.26085H148.531V0Z" fill="white"/>
<path fill-rule="evenodd" clip-rule="evenodd" d="M0 55.1094H3.26085V71.7397H37.0106V75.0006H0V55.1094Z" fill="white"/>
<defs>
<filter id="filter0_d_5_872" x="10.125" y="10.7773" width="161.869" height="51.9779" filterUnits="userSpaceOnUse" color-interpolation-filters="sRGB">
<feFlood flood-opacity="0" result="BackgroundImageFix"/>
<feColorMatrix in="SourceAlpha" type="matrix" values="0 0 0 0 0 0 0 0 0 0 0 0 0 0 0 0 0 0 127 0" result="hardAlpha"/>
<feOffset/>
<feGaussianBlur stdDeviation="1.5"/>
<feComposite in2="hardAlpha" operator="out"/>
<feColorMatrix type="matrix" values="0 0 0 0 1 0 0 0 0 1 0 0 0 0 1 0 0 0 1 0"/>
<feBlend mode="normal" in2="BackgroundImageFix" result="effect1_dropShadow_5_872"/>
<feBlend mode="normal" in="SourceGraphic" in2="effect1_dropShadow_5_872" result="shape"/>
</filter>
</defs>
</svg>
