<svg width="192" height="75" viewBox="0 0 192 75" fill="none" xmlns="http://www.w3.org/2000/svg">
<g filter="url(#filter0_d_5_866)">
<path fill-rule="evenodd" clip-rule="evenodd" d="M14.3789 16.0625H175.16V57.0986H14.3789V16.0625ZM15.2198 16.9034V56.2576H174.319V16.9034H15.2198Z" fill="white"/>
</g>
<path d="M54.7588 27.4922H64.5267V29.0647H56.5903V32.7646H60.6232C62.1649 32.7646 63.3366 33.0853 64.1382 33.7266C64.9399 34.368 65.3407 35.293 65.3407 36.5016C65.3407 37.7719 64.9029 38.7463 64.0272 39.4246C63.1639 40.1029 61.9244 40.4421 60.3087 40.4421H54.7588V27.4922ZM60.2348 38.9806C61.2954 38.9806 62.1032 38.7771 62.6582 38.3701C63.2132 37.9631 63.4907 37.3649 63.4907 36.5756C63.4907 35.0093 62.4054 34.2261 60.2348 34.2261H56.5903V38.9806H60.2348Z" fill="white"/>
<path d="M76.177 30.6372V40.4421H74.401V32.1912H70.1831L70.0721 34.3741C70.0104 35.6938 69.8932 36.7976 69.7206 37.6856C69.5479 38.5613 69.2642 39.2643 68.8696 39.7946C68.4749 40.3249 67.9261 40.5901 67.2231 40.5901C66.9024 40.5901 66.5386 40.5346 66.1316 40.4236L66.2426 38.9251C66.4029 38.9621 66.5509 38.9806 66.6866 38.9806C67.1799 38.9806 67.5499 38.7648 67.7966 38.3331C68.0432 37.9014 68.2036 37.3896 68.2776 36.7976C68.3516 36.2056 68.4194 35.3608 68.4811 34.2631L68.6476 30.6372H76.177Z" fill="white"/>
<path d="M83.8105 40.5531C82.8362 40.5531 81.9605 40.3373 81.1835 39.9056C80.4065 39.4739 79.796 38.8819 79.352 38.1296C78.9204 37.3649 78.7046 36.5016 78.7046 35.5396C78.7046 34.5776 78.9204 33.7205 79.352 32.9681C79.796 32.2035 80.4065 31.6115 81.1835 31.1922C81.9605 30.7605 82.8362 30.5447 83.8105 30.5447C84.7848 30.5447 85.6543 30.7605 86.419 31.1922C87.196 31.6115 87.8003 32.2035 88.232 32.9681C88.676 33.7205 88.898 34.5776 88.898 35.5396C88.898 36.5016 88.676 37.3649 88.232 38.1296C87.8003 38.8819 87.196 39.4739 86.419 39.9056C85.6543 40.3373 84.7848 40.5531 83.8105 40.5531ZM83.8105 38.9991C84.4395 38.9991 85.0007 38.8573 85.494 38.5736C85.9997 38.2776 86.3943 37.8706 86.678 37.3526C86.9617 36.8223 87.1035 36.218 87.1035 35.5396C87.1035 34.8613 86.9617 34.2631 86.678 33.7451C86.3943 33.2148 85.9997 32.8078 85.494 32.5242C85.0007 32.2405 84.4395 32.0987 83.8105 32.0987C83.1815 32.0987 82.6142 32.2405 82.1085 32.5242C81.6152 32.8078 81.2205 33.2148 80.9245 33.7451C80.6409 34.2631 80.499 34.8613 80.499 35.5396C80.499 36.218 80.6409 36.8223 80.9245 37.3526C81.2205 37.8706 81.6152 38.2776 82.1085 38.5736C82.6142 38.8573 83.1815 38.9991 83.8105 38.9991Z" fill="white"/>
<path d="M98.6775 32.1912H93.2385V40.4421H91.4625V30.6372H98.6775V32.1912Z" fill="white"/>
<path d="M100.496 30.6372H102.272V37.7781L108.284 30.6372H109.894V40.4421H108.118V33.3011L102.124 40.4421H100.496V30.6372Z" fill="white"/>
<path d="M113.341 30.6372H115.117V34.7996H120.704V30.6372H122.48V40.4421H120.704V36.3351H115.117V40.4421H113.341V30.6372Z" fill="white"/>
<path d="M133.148 32.1912H127.709V40.4421H125.933V30.6372H133.148V32.1912Z" fill="white"/>
<path fill-rule="evenodd" clip-rule="evenodd" d="M153.212 0H191.557V20.518H188.193V3.36361H153.212V0Z" fill="white"/>
<path fill-rule="evenodd" clip-rule="evenodd" d="M0 53.4844H3.36361V70.6388H38.3452V74.0024H0V53.4844Z" fill="white"/>
<defs>
<filter id="filter0_d_5_866" x="11.3789" y="13.0625" width="166.781" height="47.036" filterUnits="userSpaceOnUse" color-interpolation-filters="sRGB">
<feFlood flood-opacity="0" result="BackgroundImageFix"/>
<feColorMatrix in="SourceAlpha" type="matrix" values="0 0 0 0 0 0 0 0 0 0 0 0 0 0 0 0 0 0 127 0" result="hardAlpha"/>
<feOffset/>
<feGaussianBlur stdDeviation="1.5"/>
<feComposite in2="hardAlpha" operator="out"/>
<feColorMatrix type="matrix" values="0 0 0 0 1 0 0 0 0 1 0 0 0 0 1 0 0 0 1 0"/>
<feBlend mode="normal" in2="BackgroundImageFix" result="effect1_dropShadow_5_866"/>
<feBlend mode="normal" in="SourceGraphic" in2="effect1_dropShadow_5_866" result="shape"/>
</filter>
</defs>
</svg>
