<svg width="341" height="201" viewBox="0 0 341 201" fill="none" xmlns="http://www.w3.org/2000/svg">
<path fill-rule="evenodd" clip-rule="evenodd" d="M1.32324 1.32422H339.401V199.477H1.32324V1.32422ZM2.20549 2.20647V198.595H338.519V2.20647H2.20549Z" fill="white"/>
<path fill-rule="evenodd" clip-rule="evenodd" d="M3.529 197.272V160.57H0V200.801H21.3505V197.272H3.529Z" fill="white"/>
<path fill-rule="evenodd" clip-rule="evenodd" d="M337.02 3.529H319.198V0H340.549V40.2306H337.02V3.529Z" fill="white"/>
<path fill-rule="evenodd" clip-rule="evenodd" d="M0 0H21.3505V3.529H3.529V40.2306H0V0Z" fill="white"/>
<path fill-rule="evenodd" clip-rule="evenodd" d="M340.549 160.57V200.801H319.198V197.272H337.02V160.57H340.549Z" fill="white"/>
<g filter="url(#filter0_d_5_191)">
<path fill-rule="evenodd" clip-rule="evenodd" d="M170.361 135.777H319.462V166.832H170.361V135.777ZM171.244 136.66V165.95H318.579V136.66H171.244Z" fill="white"/>
</g>
<path d="M183.949 150.885C184.797 150.968 185.443 151.231 185.888 151.676C186.333 152.112 186.555 152.672 186.555 153.356C186.555 153.85 186.431 154.298 186.184 154.702C185.937 155.097 185.567 155.414 185.073 155.653C184.587 155.883 183.99 155.999 183.282 155.999C182.664 155.999 182.071 155.908 181.503 155.727C180.935 155.538 180.47 155.278 180.107 154.949L180.676 153.973C180.972 154.253 181.351 154.48 181.812 154.652C182.273 154.817 182.763 154.899 183.282 154.899C183.924 154.899 184.422 154.764 184.776 154.492C185.139 154.22 185.32 153.845 185.32 153.368C185.32 152.89 185.143 152.52 184.789 152.256C184.435 151.993 183.899 151.861 183.183 151.861H182.491V150.996L184.665 148.328H180.503V147.254H186.209V148.094L183.949 150.885Z" fill="white"/>
<path d="M188.411 147.254H192.055C192.969 147.254 193.78 147.435 194.488 147.797C195.196 148.16 195.744 148.67 196.131 149.329C196.526 149.979 196.723 150.729 196.723 151.577C196.723 152.425 196.526 153.179 196.131 153.837C195.744 154.488 195.196 154.994 194.488 155.356C193.78 155.719 192.969 155.9 192.055 155.9H188.411V147.254ZM191.98 154.825C192.68 154.825 193.294 154.69 193.821 154.418C194.356 154.146 194.768 153.767 195.056 153.281C195.344 152.787 195.488 152.219 195.488 151.577C195.488 150.935 195.344 150.371 195.056 149.885C194.768 149.391 194.356 149.008 193.821 148.736C193.294 148.464 192.68 148.328 191.98 148.328H189.646V154.825H191.98Z" fill="white"/>
<path d="M198.107 151.997H201.429V153.022H198.107V151.997Z" fill="white"/>
<path d="M210.827 149.354V155.9H209.752V151.12L207.306 155.159H206.788L204.367 151.108V155.9H203.28V149.354H204.503L207.072 153.775L209.715 149.354H210.827Z" fill="white"/>
<path d="M215.938 155.974C215.288 155.974 214.703 155.83 214.184 155.542C213.666 155.254 213.258 154.858 212.962 154.356C212.673 153.845 212.529 153.269 212.529 152.627C212.529 151.985 212.673 151.412 212.962 150.91C213.258 150.399 213.666 150.004 214.184 149.724C214.703 149.436 215.288 149.292 215.938 149.292C216.589 149.292 217.169 149.436 217.68 149.724C218.199 150.004 218.602 150.399 218.89 150.91C219.187 151.412 219.335 151.985 219.335 152.627C219.335 153.269 219.187 153.845 218.89 154.356C218.602 154.858 218.199 155.254 217.68 155.542C217.169 155.83 216.589 155.974 215.938 155.974ZM215.938 154.937C216.358 154.937 216.733 154.842 217.062 154.652C217.4 154.455 217.663 154.183 217.853 153.837C218.042 153.483 218.137 153.08 218.137 152.627C218.137 152.174 218.042 151.775 217.853 151.429C217.663 151.075 217.4 150.803 217.062 150.614C216.733 150.424 216.358 150.329 215.938 150.329C215.518 150.329 215.14 150.424 214.802 150.614C214.473 150.803 214.209 151.075 214.012 151.429C213.822 151.775 213.727 152.174 213.727 152.627C213.727 153.08 213.822 153.483 214.012 153.837C214.209 154.183 214.473 154.455 214.802 154.652C215.14 154.842 215.518 154.937 215.938 154.937Z" fill="white"/>
<path d="M227.656 154.862V157.419H226.545V155.9H221.073V157.419H219.949V154.862H220.295C220.715 154.838 221.003 154.541 221.16 153.973C221.316 153.405 221.423 152.602 221.481 151.565L221.579 149.354H226.656V154.862H227.656ZM222.568 151.651C222.535 152.474 222.465 153.158 222.358 153.701C222.259 154.237 222.074 154.624 221.802 154.862H225.47V150.391H222.629L222.568 151.651Z" fill="white"/>
<path d="M235.118 152.664C235.118 152.754 235.109 152.874 235.093 153.022H229.782C229.856 153.598 230.107 154.064 230.535 154.418C230.972 154.764 231.511 154.937 232.153 154.937C232.935 154.937 233.565 154.673 234.043 154.146L234.698 154.912C234.401 155.258 234.031 155.521 233.586 155.702C233.149 155.883 232.66 155.974 232.116 155.974C231.424 155.974 230.811 155.834 230.276 155.554C229.74 155.266 229.325 154.867 229.028 154.356C228.74 153.845 228.596 153.269 228.596 152.627C228.596 151.993 228.736 151.42 229.016 150.91C229.304 150.399 229.695 150.004 230.189 149.724C230.692 149.436 231.256 149.292 231.881 149.292C232.507 149.292 233.063 149.436 233.549 149.724C234.043 150.004 234.426 150.399 234.698 150.91C234.978 151.42 235.118 152.005 235.118 152.664ZM231.881 150.292C231.313 150.292 230.836 150.465 230.449 150.811C230.07 151.157 229.848 151.61 229.782 152.17H233.981C233.915 151.618 233.689 151.169 233.302 150.823C232.923 150.469 232.45 150.292 231.881 150.292Z" fill="white"/>
<path d="M242.468 149.354V155.9H241.283V150.391H238.466L238.392 151.849C238.351 152.73 238.273 153.467 238.158 154.06C238.042 154.644 237.853 155.114 237.59 155.468C237.326 155.822 236.96 155.999 236.49 155.999C236.276 155.999 236.033 155.962 235.762 155.888L235.836 154.887C235.943 154.912 236.041 154.924 236.132 154.924C236.461 154.924 236.708 154.78 236.873 154.492C237.038 154.204 237.145 153.862 237.194 153.467C237.244 153.071 237.289 152.507 237.33 151.775L237.441 149.354H242.468Z" fill="white"/>
<path d="M244.761 149.354H245.947V154.121L249.961 149.354H251.036V155.9H249.85V151.132L245.848 155.9H244.761V149.354Z" fill="white"/>
<path d="M256.808 149.292C257.442 149.292 258.01 149.432 258.512 149.712C259.015 149.992 259.406 150.383 259.686 150.885C259.974 151.388 260.118 151.968 260.118 152.627C260.118 153.286 259.974 153.87 259.686 154.381C259.406 154.883 259.015 155.274 258.512 155.554C258.01 155.834 257.442 155.974 256.808 155.974C256.339 155.974 255.906 155.883 255.511 155.702C255.124 155.521 254.795 155.258 254.523 154.912V158.296H253.337V149.354H254.474V150.391C254.737 150.029 255.071 149.757 255.474 149.576C255.878 149.387 256.322 149.292 256.808 149.292ZM256.709 154.937C257.129 154.937 257.504 154.842 257.833 154.652C258.171 154.455 258.434 154.183 258.624 153.837C258.821 153.483 258.92 153.08 258.92 152.627C258.92 152.174 258.821 151.775 258.624 151.429C258.434 151.075 258.171 150.803 257.833 150.614C257.504 150.424 257.129 150.329 256.709 150.329C256.297 150.329 255.923 150.428 255.585 150.626C255.256 150.815 254.992 151.083 254.795 151.429C254.605 151.775 254.511 152.174 254.511 152.627C254.511 153.08 254.605 153.483 254.795 153.837C254.984 154.183 255.248 154.455 255.585 154.652C255.923 154.842 256.297 154.937 256.709 154.937Z" fill="white"/>
<path d="M264.645 155.974C263.994 155.974 263.41 155.83 262.891 155.542C262.372 155.254 261.964 154.858 261.668 154.356C261.38 153.845 261.236 153.269 261.236 152.627C261.236 151.985 261.38 151.412 261.668 150.91C261.964 150.399 262.372 150.004 262.891 149.724C263.41 149.436 263.994 149.292 264.645 149.292C265.295 149.292 265.876 149.436 266.386 149.724C266.905 150.004 267.309 150.399 267.597 150.91C267.893 151.412 268.041 151.985 268.041 152.627C268.041 153.269 267.893 153.845 267.597 154.356C267.309 154.858 266.905 155.254 266.386 155.542C265.876 155.83 265.295 155.974 264.645 155.974ZM264.645 154.937C265.065 154.937 265.439 154.842 265.769 154.652C266.106 154.455 266.37 154.183 266.559 153.837C266.749 153.483 266.843 153.08 266.843 152.627C266.843 152.174 266.749 151.775 266.559 151.429C266.37 151.075 266.106 150.803 265.769 150.614C265.439 150.424 265.065 150.329 264.645 150.329C264.225 150.329 263.846 150.424 263.508 150.614C263.179 150.803 262.916 151.075 262.718 151.429C262.528 151.775 262.434 152.174 262.434 152.627C262.434 153.08 262.528 153.483 262.718 153.837C262.916 154.183 263.179 154.455 263.508 154.652C263.846 154.842 264.225 154.937 264.645 154.937Z" fill="white"/>
<path d="M274.212 152.503C275.061 152.717 275.485 153.248 275.485 154.097C275.485 154.673 275.266 155.118 274.83 155.431C274.402 155.744 273.76 155.9 272.903 155.9H269.754V149.354H272.792C273.566 149.354 274.171 149.502 274.608 149.798C275.044 150.087 275.262 150.498 275.262 151.033C275.262 151.379 275.168 151.68 274.978 151.935C274.797 152.182 274.542 152.372 274.212 152.503ZM270.915 152.17H272.693C273.146 152.17 273.488 152.087 273.718 151.923C273.957 151.758 274.077 151.519 274.077 151.206C274.077 150.581 273.616 150.268 272.693 150.268H270.915V152.17ZM272.817 154.986C273.311 154.986 273.681 154.908 273.928 154.751C274.175 154.595 274.299 154.352 274.299 154.023C274.299 153.685 274.184 153.434 273.953 153.269C273.731 153.104 273.377 153.022 272.891 153.022H270.915V154.986H272.817Z" fill="white"/>
<path d="M279.675 149.292C280.581 149.292 281.272 149.514 281.75 149.959C282.236 150.404 282.479 151.066 282.479 151.947V155.9H281.355V155.035C281.157 155.34 280.873 155.575 280.503 155.739C280.14 155.896 279.708 155.974 279.206 155.974C278.473 155.974 277.884 155.797 277.439 155.443C277.003 155.089 276.785 154.624 276.785 154.047C276.785 153.471 276.995 153.01 277.415 152.664C277.835 152.31 278.502 152.133 279.416 152.133H281.293V151.898C281.293 151.388 281.145 150.996 280.848 150.725C280.552 150.453 280.116 150.317 279.539 150.317C279.152 150.317 278.773 150.383 278.403 150.515C278.032 150.638 277.719 150.807 277.464 151.021L276.97 150.132C277.308 149.86 277.711 149.654 278.181 149.514C278.65 149.366 279.148 149.292 279.675 149.292ZM279.403 155.06C279.856 155.06 280.247 154.961 280.577 154.764C280.906 154.558 281.145 154.27 281.293 153.899V152.985H279.465C278.46 152.985 277.958 153.323 277.958 153.998C277.958 154.327 278.086 154.587 278.341 154.776C278.596 154.965 278.95 155.06 279.403 155.06Z" fill="white"/>
<path d="M284.614 149.354H285.8V152.133H289.53V149.354H290.716V155.9H289.53V153.158H285.8V155.9H284.614V149.354Z" fill="white"/>
<path d="M293.021 149.354H294.207V154.121L298.221 149.354H299.296V155.9H298.11V151.132L294.108 155.9H293.021V149.354Z" fill="white"/>
<path d="M307.514 152.664C307.514 152.754 307.505 152.874 307.489 153.022H302.178C302.252 153.598 302.503 154.064 302.931 154.418C303.368 154.764 303.907 154.937 304.549 154.937C305.332 154.937 305.961 154.673 306.439 154.146L307.094 154.912C306.797 155.258 306.427 155.521 305.982 155.702C305.546 155.883 305.056 155.974 304.512 155.974C303.821 155.974 303.207 155.834 302.672 155.554C302.137 155.266 301.721 154.867 301.424 154.356C301.136 153.845 300.992 153.269 300.992 152.627C300.992 151.993 301.132 151.42 301.412 150.91C301.7 150.399 302.091 150.004 302.585 149.724C303.088 149.436 303.652 149.292 304.278 149.292C304.903 149.292 305.459 149.436 305.945 149.724C306.439 150.004 306.822 150.399 307.094 150.91C307.374 151.42 307.514 152.005 307.514 152.664ZM304.278 150.292C303.709 150.292 303.232 150.465 302.845 150.811C302.466 151.157 302.244 151.61 302.178 152.17H306.377C306.311 151.618 306.085 151.169 305.698 150.823C305.319 150.469 304.846 150.292 304.278 150.292Z" fill="white"/>
<g filter="url(#filter1_d_5_191)">
<path fill-rule="evenodd" clip-rule="evenodd" d="M169.657 81.957H297.407V125.011H169.657V81.957ZM170.539 82.8393V124.128H296.525V82.8393H170.539Z" fill="white"/>
</g>
<path fill-rule="evenodd" clip-rule="evenodd" d="M307.111 114.781H320.169V128.544H307.111V114.781ZM307.994 115.663V127.662H319.286V115.663H307.994Z" fill="white"/>
<path fill-rule="evenodd" clip-rule="evenodd" d="M307.111 102.078H320.169V110.901H307.111V102.078ZM307.994 102.96V110.018H319.286V102.96H307.994Z" fill="white"/>
<path fill-rule="evenodd" clip-rule="evenodd" d="M307.111 93.4297H320.169V98.5467H307.111V93.4297ZM307.994 94.3119V97.6645H319.286V94.3119H307.994Z" fill="white"/>
<path fill-rule="evenodd" clip-rule="evenodd" d="M307.111 86.0195H320.169V89.725H307.111V86.0195ZM307.994 86.9018V88.8427H319.286V86.9018H307.994Z" fill="white"/>
<path d="M212.864 97.793V107.674H200.484V97.793H201.882V106.446H205.99V97.793H207.373V106.446H211.481V97.793H212.864Z" fill="white"/>
<path d="M218.38 100.122C219.415 100.122 220.205 100.376 220.751 100.884C221.306 101.393 221.584 102.15 221.584 103.157V107.674H220.299V106.686C220.074 107.034 219.749 107.302 219.325 107.491C218.911 107.669 218.417 107.759 217.843 107.759C217.006 107.759 216.333 107.557 215.825 107.152C215.326 106.747 215.076 106.216 215.076 105.557C215.076 104.898 215.316 104.371 215.796 103.976C216.276 103.571 217.039 103.369 218.083 103.369H220.229V103.101C220.229 102.517 220.059 102.07 219.721 101.76C219.382 101.449 218.883 101.294 218.224 101.294C217.782 101.294 217.349 101.369 216.926 101.52C216.502 101.661 216.145 101.854 215.853 102.098L215.288 101.082C215.674 100.771 216.135 100.536 216.672 100.376C217.208 100.207 217.777 100.122 218.38 100.122ZM218.069 106.714C218.587 106.714 219.034 106.601 219.41 106.375C219.786 106.14 220.059 105.811 220.229 105.387V104.343H218.14C216.992 104.343 216.417 104.729 216.417 105.5C216.417 105.877 216.563 106.173 216.855 106.39C217.147 106.606 217.551 106.714 218.069 106.714Z" fill="white"/>
<path d="M228.697 107.674L226.537 104.809L224.349 107.674H222.838L225.789 103.849L222.98 100.193H224.49L226.551 102.889L228.598 100.193H230.08L227.257 103.849L230.235 107.674H228.697Z" fill="white"/>
<path d="M240.286 100.193V107.674H239.058V102.211L236.263 106.827H235.67L232.903 102.197V107.674H231.661V100.193H233.059L235.995 105.246L239.016 100.193H240.286Z" fill="white"/>
<path d="M245.591 100.122C246.627 100.122 247.417 100.376 247.963 100.884C248.518 101.393 248.796 102.15 248.796 103.157V107.674H247.511V106.686C247.285 107.034 246.961 107.302 246.537 107.491C246.123 107.669 245.629 107.759 245.055 107.759C244.218 107.759 243.545 107.557 243.036 107.152C242.538 106.747 242.288 106.216 242.288 105.557C242.288 104.898 242.528 104.371 243.008 103.976C243.488 103.571 244.25 103.369 245.295 103.369H247.441V103.101C247.441 102.517 247.271 102.07 246.933 101.76C246.594 101.449 246.095 101.294 245.436 101.294C244.994 101.294 244.561 101.369 244.138 101.52C243.714 101.661 243.356 101.854 243.065 102.098L242.5 101.082C242.886 100.771 243.347 100.536 243.883 100.376C244.42 100.207 244.989 100.122 245.591 100.122ZM245.281 106.714C245.799 106.714 246.246 106.601 246.622 106.375C246.998 106.14 247.271 105.811 247.441 105.387V104.343H245.352C244.203 104.343 243.629 104.729 243.629 105.5C243.629 105.877 243.775 106.173 244.067 106.39C244.359 106.606 244.763 106.714 245.281 106.714Z" fill="white"/>
<path d="M256.812 101.378H254.073V107.674H252.718V101.378H249.98V100.193H256.812V101.378Z" fill="white"/>
<path d="M261.571 102.734C262.512 102.743 263.232 102.959 263.731 103.383C264.23 103.806 264.479 104.404 264.479 105.176C264.479 105.985 264.206 106.611 263.66 107.053C263.124 107.486 262.352 107.698 261.345 107.688L258.198 107.674V100.193H259.553V102.719L261.571 102.734ZM265.594 100.193H266.949V107.674H265.594V100.193ZM261.247 106.658C261.858 106.667 262.319 106.545 262.63 106.291C262.95 106.037 263.11 105.66 263.11 105.162C263.11 104.672 262.955 104.315 262.644 104.089C262.333 103.863 261.868 103.745 261.247 103.736L259.553 103.708V106.644L261.247 106.658Z" fill="white"/>
<g filter="url(#filter2_d_5_191)">
<path fill-rule="evenodd" clip-rule="evenodd" d="M168.774 29.9062H286.643V72.96H168.774V29.9062ZM169.657 30.7885V72.0778H285.761V30.7885H169.657Z" fill="white"/>
</g>
<path d="M186.895 50.7971C187.563 50.9571 188.066 51.2442 188.405 51.6582C188.753 52.0629 188.928 52.5852 188.928 53.2251C188.928 54.0815 188.612 54.7449 187.982 55.2155C187.361 55.686 186.453 55.9213 185.257 55.9213H180.74V46.0401H184.989C186.071 46.0401 186.914 46.2612 187.516 46.7035C188.128 47.1364 188.433 47.7622 188.433 48.5809C188.433 49.1173 188.297 49.5738 188.024 49.9502C187.761 50.3266 187.384 50.6089 186.895 50.7971ZM182.138 50.3878H184.89C185.577 50.3878 186.1 50.2513 186.457 49.9784C186.824 49.7055 187.008 49.3056 187.008 48.7786C187.008 48.2516 186.824 47.8516 186.457 47.5787C186.09 47.2964 185.568 47.1552 184.89 47.1552H182.138V50.3878ZM185.229 54.8061C186.744 54.8061 187.502 54.2414 187.502 53.1122C187.502 52.5475 187.309 52.1335 186.923 51.87C186.547 51.5971 185.982 51.4606 185.229 51.4606H182.138V54.8061H185.229Z" fill="white"/>
<path d="M194.434 50.9807C195.375 50.9901 196.095 51.2065 196.593 51.63C197.092 52.0535 197.342 52.651 197.342 53.4227C197.342 54.232 197.069 54.8578 196.523 55.3001C195.987 55.733 195.215 55.9448 194.208 55.9354L191.06 55.9213V48.4398H192.415V50.9665L194.434 50.9807ZM198.457 48.4398H199.812V55.9213H198.457V48.4398ZM194.109 54.9049C194.721 54.9143 195.182 54.792 195.492 54.5379C195.812 54.2838 195.972 53.9074 195.972 53.4086C195.972 52.9193 195.817 52.5616 195.507 52.3358C195.196 52.1099 194.73 51.9923 194.109 51.9829L192.415 51.9547V54.8908L194.109 54.9049Z" fill="white"/>
<path d="M206.258 48.6939C206.954 48.6939 207.575 48.8491 208.121 49.1597C208.667 49.4702 209.09 49.9031 209.392 50.4584C209.702 51.0042 209.857 51.63 209.857 52.3358C209.857 53.0604 209.693 53.705 209.363 54.2697C209.043 54.8249 208.587 55.2578 207.994 55.5684C207.411 55.8789 206.743 56.0342 205.99 56.0342C204.719 56.0342 203.736 55.6013 203.039 54.7355C202.352 53.8603 202.009 52.6322 202.009 51.0512C202.009 49.5173 202.324 48.3174 202.955 47.4517C203.585 46.5765 204.55 45.9977 205.849 45.7154L209.265 44.9531L209.462 46.1953L206.314 46.8729C205.336 47.0893 204.606 47.4564 204.126 47.9739C203.646 48.4915 203.374 49.235 203.308 50.2043C203.628 49.7243 204.042 49.3526 204.55 49.0891C205.058 48.8256 205.627 48.6939 206.258 48.6939ZM206.018 54.9049C206.498 54.9049 206.921 54.7967 207.288 54.5802C207.665 54.3638 207.956 54.0674 208.164 53.6909C208.371 53.3051 208.474 52.8675 208.474 52.3781C208.474 51.6347 208.248 51.0371 207.797 50.5854C207.345 50.1337 206.752 49.9078 206.018 49.9078C205.284 49.9078 204.686 50.1337 204.225 50.5854C203.773 51.0371 203.548 51.6347 203.548 52.3781C203.548 52.8675 203.651 53.3051 203.858 53.6909C204.075 54.0674 204.371 54.3638 204.747 54.5802C205.124 54.7967 205.547 54.9049 206.018 54.9049Z" fill="white"/>
<path d="M215.759 48.3692C216.484 48.3692 217.133 48.5292 217.707 48.8491C218.282 49.1691 218.729 49.6161 219.049 50.1902C219.378 50.7642 219.543 51.4277 219.543 52.1805C219.543 52.9334 219.378 53.6015 219.049 54.185C218.729 54.759 218.282 55.206 217.707 55.526C217.133 55.846 216.484 56.0059 215.759 56.0059C215.223 56.0059 214.729 55.9024 214.277 55.6954C213.835 55.4884 213.459 55.1872 213.148 54.792V58.6598H211.793V48.4398H213.092V49.6255C213.393 49.2115 213.774 48.9009 214.235 48.6939C214.696 48.4774 215.204 48.3692 215.759 48.3692ZM215.647 54.8202C216.126 54.8202 216.555 54.712 216.931 54.4955C217.317 54.2697 217.618 53.9591 217.835 53.5639C218.06 53.1592 218.173 52.6981 218.173 52.1805C218.173 51.6629 218.06 51.2065 217.835 50.8113C217.618 50.4066 217.317 50.0961 216.931 49.8796C216.555 49.6632 216.126 49.5549 215.647 49.5549C215.176 49.5549 214.748 49.6679 214.362 49.8937C213.986 50.1102 213.684 50.416 213.459 50.8113C213.242 51.2065 213.134 51.6629 213.134 52.1805C213.134 52.6981 213.242 53.1592 213.459 53.5639C213.675 53.9591 213.976 54.2697 214.362 54.4955C214.748 54.712 215.176 54.8202 215.647 54.8202Z" fill="white"/>
<path d="M224.11 48.3692C225.146 48.3692 225.936 48.6233 226.482 49.1315C227.037 49.6396 227.315 50.3972 227.315 51.4041V55.9213H226.03V54.9331C225.804 55.2813 225.48 55.5495 225.056 55.7377C224.642 55.9165 224.148 56.0059 223.574 56.0059C222.736 56.0059 222.064 55.8036 221.555 55.399C221.057 54.9943 220.807 54.4626 220.807 53.8039C220.807 53.1451 221.047 52.6181 221.527 52.2229C222.007 51.8182 222.769 51.6159 223.814 51.6159H225.96V51.3477C225.96 50.7642 225.79 50.3172 225.451 50.0067C225.113 49.6961 224.614 49.5408 223.955 49.5408C223.513 49.5408 223.08 49.6161 222.656 49.7667C222.233 49.9078 221.875 50.1008 221.584 50.3454L221.019 49.3291C221.405 49.0185 221.866 48.7833 222.402 48.6233C222.939 48.4539 223.508 48.3692 224.11 48.3692ZM223.8 54.9614C224.317 54.9614 224.764 54.8484 225.141 54.6226C225.517 54.3873 225.79 54.0579 225.96 53.6345V52.5899H223.87C222.722 52.5899 222.148 52.9757 222.148 53.7474C222.148 54.1238 222.294 54.4203 222.586 54.6367C222.878 54.8531 223.282 54.9614 223.8 54.9614Z" fill="white"/>
<path d="M235.331 49.6255H232.592V55.9213H231.237V49.6255H228.499V48.4398H235.331V49.6255Z" fill="white"/>
<path d="M240.175 50.9807C241.125 50.9901 241.85 51.2065 242.349 51.63C242.847 52.0535 243.097 52.651 243.097 53.4227C243.097 54.232 242.824 54.8578 242.278 55.3001C241.742 55.733 240.97 55.9448 239.963 55.9354L236.716 55.9213V48.4398H238.072V50.9665L240.175 50.9807ZM239.85 54.9049C240.462 54.9143 240.923 54.792 241.234 54.5379C241.554 54.2838 241.713 53.9074 241.713 53.4086C241.713 52.9193 241.558 52.5616 241.248 52.3358C240.947 52.1099 240.481 51.9923 239.85 51.9829L238.072 51.9547V54.8908L239.85 54.9049Z" fill="white"/>
<path d="M253.723 52.0394C254.692 52.284 255.177 52.891 255.177 53.8603C255.177 54.5191 254.927 55.0272 254.428 55.3848C253.939 55.7424 253.205 55.9213 252.226 55.9213H248.627V48.4398H252.099C252.984 48.4398 253.676 48.6092 254.174 48.948C254.673 49.2773 254.923 49.7479 254.923 50.3595C254.923 50.7548 254.814 51.0983 254.598 51.39C254.391 51.6723 254.099 51.8888 253.723 52.0394ZM249.954 51.6582H251.986C252.504 51.6582 252.895 51.5641 253.158 51.3759C253.431 51.1877 253.567 50.9148 253.567 50.5572C253.567 49.842 253.04 49.4844 251.986 49.4844H249.954V51.6582ZM252.128 54.8767C252.692 54.8767 253.116 54.7873 253.398 54.6085C253.68 54.4297 253.821 54.152 253.821 53.7756C253.821 53.3898 253.69 53.1028 253.426 52.9145C253.172 52.7263 252.767 52.6322 252.212 52.6322H249.954V54.8767H252.128Z" fill="white"/>
<path d="M260.558 56.0059C259.796 56.0059 259.114 55.8413 258.512 55.5119C257.919 55.1825 257.453 54.7308 257.114 54.1568C256.775 53.5733 256.606 52.9145 256.606 52.1805C256.606 51.4465 256.775 50.7924 257.114 50.2184C257.453 49.6349 257.919 49.1832 258.512 48.8633C259.114 48.5339 259.796 48.3692 260.558 48.3692C261.236 48.3692 261.838 48.5056 262.365 48.7786C262.902 49.0515 263.316 49.4467 263.608 49.9643L262.577 50.6278C262.342 50.2701 262.05 50.0019 261.702 49.8231C261.354 49.6443 260.968 49.5549 260.544 49.5549C260.055 49.5549 259.613 49.6632 259.217 49.8796C258.832 50.0961 258.526 50.4066 258.3 50.8113C258.083 51.2065 257.975 51.6629 257.975 52.1805C257.975 52.7075 258.083 53.1733 258.3 53.578C258.526 53.9732 258.832 54.2791 259.217 54.4955C259.613 54.712 260.055 54.8202 260.544 54.8202C260.968 54.8202 261.354 54.7308 261.702 54.552C262.05 54.3732 262.342 54.105 262.577 53.7474L263.608 54.3967C263.316 54.9143 262.902 55.3143 262.365 55.5966C261.838 55.8695 261.236 56.0059 260.558 56.0059Z" fill="white"/>
<path d="M272.013 52.2229C272.013 52.3264 272.004 52.4628 271.985 52.6322H265.915C266 53.291 266.287 53.8227 266.776 54.2273C267.275 54.6226 267.891 54.8202 268.625 54.8202C269.519 54.8202 270.239 54.5191 270.785 53.9168L271.533 54.792C271.195 55.1872 270.771 55.4884 270.263 55.6954C269.764 55.9024 269.204 56.0059 268.583 56.0059C267.793 56.0059 267.091 55.846 266.48 55.526C265.868 55.1966 265.393 54.7402 265.054 54.1568C264.725 53.5733 264.56 52.9145 264.56 52.1805C264.56 51.4559 264.72 50.8019 265.04 50.2184C265.369 49.6349 265.816 49.1832 266.381 48.8633C266.955 48.5339 267.6 48.3692 268.315 48.3692C269.03 48.3692 269.665 48.5339 270.221 48.8633C270.785 49.1832 271.223 49.6349 271.533 50.2184C271.853 50.8019 272.013 51.47 272.013 52.2229ZM268.315 49.5126C267.666 49.5126 267.12 49.7102 266.677 50.1055C266.245 50.5007 265.99 51.0183 265.915 51.6582H270.715C270.639 51.0277 270.381 50.5148 269.938 50.1196C269.505 49.7149 268.964 49.5126 268.315 49.5126ZM266.988 47.1129C266.79 47.1129 266.621 47.047 266.48 46.9152C266.339 46.7741 266.268 46.6 266.268 46.393C266.268 46.1859 266.339 46.0118 266.48 45.8707C266.621 45.7295 266.79 45.6589 266.988 45.6589C267.186 45.6589 267.355 45.7295 267.496 45.8707C267.637 46.0118 267.708 46.1859 267.708 46.393C267.708 46.6 267.637 46.7741 267.496 46.9152C267.355 47.047 267.186 47.1129 266.988 47.1129ZM269.614 47.1129C269.416 47.1129 269.247 47.047 269.105 46.9152C268.964 46.7741 268.894 46.6 268.894 46.393C268.894 46.1859 268.964 46.0118 269.105 45.8707C269.247 45.7295 269.416 45.6589 269.614 45.6589C269.811 45.6589 269.981 45.7295 270.122 45.8707C270.263 46.0118 270.333 46.1859 270.333 46.393C270.333 46.6 270.263 46.7741 270.122 46.9152C269.981 47.047 269.811 47.1129 269.614 47.1129Z" fill="white"/>
<path fill-rule="evenodd" clip-rule="evenodd" d="M154.041 60.3486V44.6445H152.276V62.1131H161.628V60.3486H154.041Z" fill="white"/>
<g opacity="0.75">
<g opacity="0.75">
<path opacity="0.75" d="M21.8789 73.7578H21.3496V179.275H21.8789V73.7578Z" fill="white"/>
</g>
<g opacity="0.75">
<g opacity="0.75">
<g opacity="0.75">
<path opacity="0.75" d="M26.113 73.7578H21.5254V74.2872H26.113V73.7578Z" fill="white"/>
</g>
<g opacity="0.75">
<path opacity="0.75" d="M23.9957 74.8164H21.5254V75.3458H23.9957V74.8164Z" fill="white"/>
</g>
<g opacity="0.75">
<path opacity="0.75" d="M23.9957 75.8711H21.5254V76.4004H23.9957V75.8711Z" fill="white"/>
</g>
<g opacity="0.75">
<path opacity="0.75" d="M23.9957 77.1094H21.5254V77.6387H23.9957V77.1094Z" fill="white"/>
</g>
<g opacity="0.75">
<path opacity="0.75" d="M23.9957 78.3477H21.5254V78.877H23.9957V78.3477Z" fill="white"/>
</g>
<g opacity="0.75">
<path opacity="0.75" d="M23.9957 79.582H21.5254V80.1114H23.9957V79.582Z" fill="white"/>
</g>
<g opacity="0.75">
<path opacity="0.75" d="M23.9957 80.8164H21.5254V81.3458H23.9957V80.8164Z" fill="white"/>
</g>
</g>
<g opacity="0.75">
<g opacity="0.75">
<path opacity="0.75" d="M26.113 81.8828H21.5254V82.4122H26.113V81.8828Z" fill="white"/>
</g>
<g opacity="0.75">
<path opacity="0.75" d="M23.9957 82.9414H21.5254V83.4707H23.9957V82.9414Z" fill="white"/>
</g>
<g opacity="0.75">
<path opacity="0.75" d="M23.9957 84.1758H21.5254V84.7051H23.9957V84.1758Z" fill="white"/>
</g>
<g opacity="0.75">
<path opacity="0.75" d="M23.9957 85.2305H21.5254V85.7599H23.9957V85.2305Z" fill="white"/>
</g>
<g opacity="0.75">
<path opacity="0.75" d="M23.9957 86.4688H21.5254V86.9981H23.9957V86.4688Z" fill="white"/>
</g>
<g opacity="0.75">
<path opacity="0.75" d="M23.9957 87.707H21.5254V88.2364H23.9957V87.707Z" fill="white"/>
</g>
<g opacity="0.75">
<path opacity="0.75" d="M23.9957 88.9414H21.5254V89.4708H23.9957V88.9414Z" fill="white"/>
</g>
</g>
<g opacity="0.75">
<g opacity="0.75">
<path opacity="0.75" d="M26.113 89.9922H21.5254V90.5215H26.113V89.9922Z" fill="white"/>
</g>
<g opacity="0.75">
<path opacity="0.75" d="M23.9957 91.0508H21.5254V91.5801H23.9957V91.0508Z" fill="white"/>
</g>
<g opacity="0.75">
<path opacity="0.75" d="M23.9957 92.2852H21.5254V92.8145H23.9957V92.2852Z" fill="white"/>
</g>
<g opacity="0.75">
<path opacity="0.75" d="M23.9957 93.5195H21.5254V94.0489H23.9957V93.5195Z" fill="white"/>
</g>
<g opacity="0.75">
<path opacity="0.75" d="M23.9957 94.7539H21.5254V95.2832H23.9957V94.7539Z" fill="white"/>
</g>
<g opacity="0.75">
<path opacity="0.75" d="M23.9957 95.8164H21.5254V96.3458H23.9957V95.8164Z" fill="white"/>
</g>
<g opacity="0.75">
<path opacity="0.75" d="M23.9957 97.0508H21.5254V97.5801H23.9957V97.0508Z" fill="white"/>
</g>
</g>
<g opacity="0.75">
<g opacity="0.75">
<path opacity="0.75" d="M26.113 98.2812H21.5254V98.8106H26.113V98.2812Z" fill="white"/>
</g>
<g opacity="0.75">
<path opacity="0.75" d="M23.9957 99.1641H21.5254V99.6934H23.9957V99.1641Z" fill="white"/>
</g>
<g opacity="0.75">
<path opacity="0.75" d="M23.9957 100.395H21.5254V100.924H23.9957V100.395Z" fill="white"/>
</g>
<g opacity="0.75">
<path opacity="0.75" d="M23.9957 101.629H21.5254V102.158H23.9957V101.629Z" fill="white"/>
</g>
<g opacity="0.75">
<path opacity="0.75" d="M23.9957 102.871H21.5254V103.4H23.9957V102.871Z" fill="white"/>
</g>
<g opacity="0.75">
<path opacity="0.75" d="M23.9957 104.105H21.5254V104.635H23.9957V104.105Z" fill="white"/>
</g>
<g opacity="0.75">
<path opacity="0.75" d="M23.9957 105.16H21.5254V105.689H23.9957V105.16Z" fill="white"/>
</g>
</g>
<g opacity="0.75">
<g opacity="0.75">
<path opacity="0.75" d="M26.113 106.398H21.5254V106.928H26.113V106.398Z" fill="white"/>
</g>
<g opacity="0.75">
<path opacity="0.75" d="M23.9957 107.461H21.5254V107.99H23.9957V107.461Z" fill="white"/>
</g>
<g opacity="0.75">
<path opacity="0.75" d="M23.9957 108.695H21.5254V109.225H23.9957V108.695Z" fill="white"/>
</g>
<g opacity="0.75">
<path opacity="0.75" d="M23.9957 109.75H21.5254V110.279H23.9957V109.75Z" fill="white"/>
</g>
<g opacity="0.75">
<path opacity="0.75" d="M23.9957 110.988H21.5254V111.518H23.9957V110.988Z" fill="white"/>
</g>
<g opacity="0.75">
<path opacity="0.75" d="M23.9957 112.223H21.5254V112.752H23.9957V112.223Z" fill="white"/>
</g>
<g opacity="0.75">
<path opacity="0.75" d="M23.9957 113.461H21.5254V113.99H23.9957V113.461Z" fill="white"/>
</g>
</g>
<g opacity="0.75">
<g opacity="0.75">
<path opacity="0.75" d="M26.113 114.523H21.5254V115.053H26.113V114.523Z" fill="white"/>
</g>
<g opacity="0.75">
<path opacity="0.75" d="M23.9957 115.582H21.5254V116.111H23.9957V115.582Z" fill="white"/>
</g>
<g opacity="0.75">
<path opacity="0.75" d="M23.9957 116.816H21.5254V117.346H23.9957V116.816Z" fill="white"/>
</g>
<g opacity="0.75">
<path opacity="0.75" d="M23.9957 118.051H21.5254V118.58H23.9957V118.051Z" fill="white"/>
</g>
<g opacity="0.75">
<path opacity="0.75" d="M23.9957 119.113H21.5254V119.643H23.9957V119.113Z" fill="white"/>
</g>
<g opacity="0.75">
<path opacity="0.75" d="M23.9957 120.348H21.5254V120.877H23.9957V120.348Z" fill="white"/>
</g>
<g opacity="0.75">
<path opacity="0.75" d="M23.9957 121.582H21.5254V122.111H23.9957V121.582Z" fill="white"/>
</g>
</g>
<g opacity="0.75">
<g opacity="0.75">
<path opacity="0.75" d="M26.113 122.812H21.5254V123.342H26.113V122.812Z" fill="white"/>
</g>
<g opacity="0.75">
<path opacity="0.75" d="M23.9957 123.695H21.5254V124.225H23.9957V123.695Z" fill="white"/>
</g>
<g opacity="0.75">
<path opacity="0.75" d="M23.9957 124.926H21.5254V125.455H23.9957V124.926Z" fill="white"/>
</g>
<g opacity="0.75">
<path opacity="0.75" d="M23.9957 126.164H21.5254V126.693H23.9957V126.164Z" fill="white"/>
</g>
<g opacity="0.75">
<path opacity="0.75" d="M23.9957 127.402H21.5254V127.932H23.9957V127.402Z" fill="white"/>
</g>
<g opacity="0.75">
<path opacity="0.75" d="M23.9957 128.637H21.5254V129.166H23.9957V128.637Z" fill="white"/>
</g>
<g opacity="0.75">
<path opacity="0.75" d="M23.9957 129.691H21.5254V130.221H23.9957V129.691Z" fill="white"/>
</g>
</g>
<g opacity="0.75">
<g opacity="0.75">
<path opacity="0.75" d="M26.113 130.922H21.5254V131.451H26.113V130.922Z" fill="white"/>
</g>
<g opacity="0.75">
<path opacity="0.75" d="M23.9957 131.984H21.5254V132.514H23.9957V131.984Z" fill="white"/>
</g>
<g opacity="0.75">
<path opacity="0.75" d="M23.9957 133.039H21.5254V133.568H23.9957V133.039Z" fill="white"/>
</g>
<g opacity="0.75">
<path opacity="0.75" d="M23.9957 134.273H21.5254V134.803H23.9957V134.273Z" fill="white"/>
</g>
<g opacity="0.75">
<path opacity="0.75" d="M23.9957 135.512H21.5254V136.041H23.9957V135.512Z" fill="white"/>
</g>
<g opacity="0.75">
<path opacity="0.75" d="M23.9957 136.746H21.5254V137.275H23.9957V136.746Z" fill="white"/>
</g>
<g opacity="0.75">
<path opacity="0.75" d="M23.9957 137.98H21.5254V138.51H23.9957V137.98Z" fill="white"/>
</g>
</g>
<g opacity="0.75">
<g opacity="0.75">
<path opacity="0.75" d="M26.113 139.047H21.5254V139.576H26.113V139.047Z" fill="white"/>
</g>
<g opacity="0.75">
<path opacity="0.75" d="M23.9957 140.105H21.5254V140.635H23.9957V140.105Z" fill="white"/>
</g>
<g opacity="0.75">
<path opacity="0.75" d="M23.9957 141.34H21.5254V141.869H23.9957V141.34Z" fill="white"/>
</g>
<g opacity="0.75">
<path opacity="0.75" d="M23.9957 142.574H21.5254V143.104H23.9957V142.574Z" fill="white"/>
</g>
<g opacity="0.75">
<path opacity="0.75" d="M23.9957 143.637H21.5254V144.166H23.9957V143.637Z" fill="white"/>
</g>
<g opacity="0.75">
<path opacity="0.75" d="M23.9957 144.871H21.5254V145.401H23.9957V144.871Z" fill="white"/>
</g>
<g opacity="0.75">
<path opacity="0.75" d="M23.9957 146.105H21.5254V146.635H23.9957V146.105Z" fill="white"/>
</g>
</g>
<g opacity="0.75">
<g opacity="0.75">
<path opacity="0.75" d="M26.113 147.336H21.5254V147.865H26.113V147.336Z" fill="white"/>
</g>
<g opacity="0.75">
<path opacity="0.75" d="M23.9957 148.219H21.5254V148.748H23.9957V148.219Z" fill="white"/>
</g>
<g opacity="0.75">
<path opacity="0.75" d="M23.9957 149.449H21.5254V149.979H23.9957V149.449Z" fill="white"/>
</g>
<g opacity="0.75">
<path opacity="0.75" d="M23.9957 150.688H21.5254V151.217H23.9957V150.688Z" fill="white"/>
</g>
<g opacity="0.75">
<path opacity="0.75" d="M23.9957 151.926H21.5254V152.455H23.9957V151.926Z" fill="white"/>
</g>
<g opacity="0.75">
<path opacity="0.75" d="M23.9957 152.98H21.5254V153.51H23.9957V152.98Z" fill="white"/>
</g>
<g opacity="0.75">
<path opacity="0.75" d="M23.9957 154.215H21.5254V154.744H23.9957V154.215Z" fill="white"/>
</g>
</g>
<g opacity="0.75">
<g opacity="0.75">
<path opacity="0.75" d="M26.113 155.453H21.5254V155.983H26.113V155.453Z" fill="white"/>
</g>
<g opacity="0.75">
<path opacity="0.75" d="M23.9957 156.516H21.5254V157.045H23.9957V156.516Z" fill="white"/>
</g>
<g opacity="0.75">
<path opacity="0.75" d="M23.9957 157.57H21.5254V158.1H23.9957V157.57Z" fill="white"/>
</g>
<g opacity="0.75">
<path opacity="0.75" d="M23.9957 158.805H21.5254V159.334H23.9957V158.805Z" fill="white"/>
</g>
<g opacity="0.75">
<path opacity="0.75" d="M23.9957 160.043H21.5254V160.572H23.9957V160.043Z" fill="white"/>
</g>
<g opacity="0.75">
<path opacity="0.75" d="M23.9957 161.277H21.5254V161.807H23.9957V161.277Z" fill="white"/>
</g>
<g opacity="0.75">
<path opacity="0.75" d="M23.9957 162.516H21.5254V163.045H23.9957V162.516Z" fill="white"/>
</g>
</g>
<g opacity="0.75">
<g opacity="0.75">
<path opacity="0.75" d="M26.113 163.57H21.5254V164.1H26.113V163.57Z" fill="white"/>
</g>
<g opacity="0.75">
<path opacity="0.75" d="M23.9957 164.629H21.5254V165.158H23.9957V164.629Z" fill="white"/>
</g>
<g opacity="0.75">
<path opacity="0.75" d="M23.9957 165.863H21.5254V166.393H23.9957V165.863Z" fill="white"/>
</g>
<g opacity="0.75">
<path opacity="0.75" d="M23.9957 166.918H21.5254V167.447H23.9957V166.918Z" fill="white"/>
</g>
<g opacity="0.75">
<path opacity="0.75" d="M23.9957 168.16H21.5254V168.689H23.9957V168.16Z" fill="white"/>
</g>
<g opacity="0.75">
<path opacity="0.75" d="M23.9957 169.395H21.5254V169.924H23.9957V169.395Z" fill="white"/>
</g>
<g opacity="0.75">
<path opacity="0.75" d="M23.9957 170.629H21.5254V171.158H23.9957V170.629Z" fill="white"/>
</g>
</g>
<g opacity="0.75">
<g opacity="0.75">
<path opacity="0.75" d="M26.113 171.688H21.5254V172.217H26.113V171.688Z" fill="white"/>
</g>
<g opacity="0.75">
<path opacity="0.75" d="M25.9373 178.746H21.3496V179.275H25.9373V178.746Z" fill="white"/>
</g>
<g opacity="0.75">
<path opacity="0.75" d="M23.9957 172.746H21.5254V173.275H23.9957V172.746Z" fill="white"/>
</g>
<g opacity="0.75">
<path opacity="0.75" d="M23.9957 173.984H21.5254V174.514H23.9957V173.984Z" fill="white"/>
</g>
<g opacity="0.75">
<path opacity="0.75" d="M23.9957 175.219H21.5254V175.748H23.9957V175.219Z" fill="white"/>
</g>
<g opacity="0.75">
<path opacity="0.75" d="M23.9957 176.453H21.5254V176.982H23.9957V176.453Z" fill="white"/>
</g>
<g opacity="0.75">
<path opacity="0.75" d="M23.9957 177.512H21.5254V178.041H23.9957V177.512Z" fill="white"/>
</g>
<g opacity="0.75">
<path opacity="0.75" d="M23.9957 178.746H21.5254V179.275H23.9957V178.746Z" fill="white"/>
</g>
</g>
</g>
</g>
<g opacity="0.4">
<g opacity="0.4">
<path opacity="0.4" d="M290.965 178.914H185.448V179.443H290.965V178.914Z" fill="white"/>
</g>
<g opacity="0.4">
<g opacity="0.4">
<g opacity="0.4">
<path opacity="0.4" d="M186.153 174.5H185.624V179.088H186.153V174.5Z" fill="white"/>
</g>
<g opacity="0.4">
<path opacity="0.4" d="M187.036 176.617H186.507V179.088H187.036V176.617Z" fill="white"/>
</g>
<g opacity="0.4">
<path opacity="0.4" d="M188.272 176.617H187.742V179.088H188.272V176.617Z" fill="white"/>
</g>
<g opacity="0.4">
<path opacity="0.4" d="M189.506 176.617H188.977V179.088H189.506V176.617Z" fill="white"/>
</g>
<g opacity="0.4">
<path opacity="0.4" d="M190.74 176.617H190.211V179.088H190.74V176.617Z" fill="white"/>
</g>
<g opacity="0.4">
<path opacity="0.4" d="M191.976 176.617H191.446V179.088H191.976V176.617Z" fill="white"/>
</g>
<g opacity="0.4">
<path opacity="0.4" d="M193.036 176.617H192.507V179.088H193.036V176.617Z" fill="white"/>
</g>
</g>
<g opacity="0.4">
<g opacity="0.4">
<path opacity="0.4" d="M194.269 174.5H193.739V179.088H194.269V174.5Z" fill="white"/>
</g>
<g opacity="0.4">
<path opacity="0.4" d="M195.327 176.617H194.798V179.088H195.327V176.617Z" fill="white"/>
</g>
<g opacity="0.4">
<path opacity="0.4" d="M196.387 176.617H195.857V179.088H196.387V176.617Z" fill="white"/>
</g>
<g opacity="0.4">
<path opacity="0.4" d="M197.622 176.617H197.093V179.088H197.622V176.617Z" fill="white"/>
</g>
<g opacity="0.4">
<path opacity="0.4" d="M198.856 176.617H198.326V179.088H198.856V176.617Z" fill="white"/>
</g>
<g opacity="0.4">
<path opacity="0.4" d="M200.091 176.617H199.562V179.088H200.091V176.617Z" fill="white"/>
</g>
<g opacity="0.4">
<path opacity="0.4" d="M201.327 176.617H200.798V179.088H201.327V176.617Z" fill="white"/>
</g>
</g>
<g opacity="0.4">
<g opacity="0.4">
<path opacity="0.4" d="M202.388 174.5H201.858V179.088H202.388V174.5Z" fill="white"/>
</g>
<g opacity="0.4">
<path opacity="0.4" d="M203.445 176.617H202.916V179.088H203.445V176.617Z" fill="white"/>
</g>
<g opacity="0.4">
<path opacity="0.4" d="M204.681 176.617H204.151V179.088H204.681V176.617Z" fill="white"/>
</g>
<g opacity="0.4">
<path opacity="0.4" d="M205.74 176.617H205.211V179.088H205.74V176.617Z" fill="white"/>
</g>
<g opacity="0.4">
<path opacity="0.4" d="M206.975 176.617H206.445V179.088H206.975V176.617Z" fill="white"/>
</g>
<g opacity="0.4">
<path opacity="0.4" d="M208.209 176.617H207.68V179.088H208.209V176.617Z" fill="white"/>
</g>
<g opacity="0.4">
<path opacity="0.4" d="M209.445 176.617H208.916V179.088H209.445V176.617Z" fill="white"/>
</g>
</g>
<g opacity="0.4">
<g opacity="0.4">
<path opacity="0.4" d="M210.503 174.5H209.974V179.088H210.503V174.5Z" fill="white"/>
</g>
<g opacity="0.4">
<path opacity="0.4" d="M211.562 176.617H211.032V179.088H211.562V176.617Z" fill="white"/>
</g>
<g opacity="0.4">
<path opacity="0.4" d="M212.796 176.617H212.267V179.088H212.796V176.617Z" fill="white"/>
</g>
<g opacity="0.4">
<path opacity="0.4" d="M214.031 176.617H213.502V179.088H214.031V176.617Z" fill="white"/>
</g>
<g opacity="0.4">
<path opacity="0.4" d="M215.268 176.617H214.738V179.088H215.268V176.617Z" fill="white"/>
</g>
<g opacity="0.4">
<path opacity="0.4" d="M216.325 176.617H215.796V179.088H216.325V176.617Z" fill="white"/>
</g>
<g opacity="0.4">
<path opacity="0.4" d="M217.562 176.617H217.032V179.088H217.562V176.617Z" fill="white"/>
</g>
</g>
<g opacity="0.4">
<g opacity="0.4">
<path opacity="0.4" d="M218.796 174.5H218.267V179.088H218.796V174.5Z" fill="white"/>
</g>
<g opacity="0.4">
<path opacity="0.4" d="M219.679 176.617H219.149V179.088H219.679V176.617Z" fill="white"/>
</g>
<g opacity="0.4">
<path opacity="0.4" d="M220.914 176.617H220.385V179.088H220.914V176.617Z" fill="white"/>
</g>
<g opacity="0.4">
<path opacity="0.4" d="M222.15 176.617H221.62V179.088H222.15V176.617Z" fill="white"/>
</g>
<g opacity="0.4">
<path opacity="0.4" d="M223.383 176.617H222.854V179.088H223.383V176.617Z" fill="white"/>
</g>
<g opacity="0.4">
<path opacity="0.4" d="M224.618 176.617H224.089V179.088H224.618V176.617Z" fill="white"/>
</g>
<g opacity="0.4">
<path opacity="0.4" d="M225.855 176.617H225.325V179.088H225.855V176.617Z" fill="white"/>
</g>
</g>
<g opacity="0.4">
<g opacity="0.4">
<path opacity="0.4" d="M226.913 174.5H226.384V179.088H226.913V174.5Z" fill="white"/>
</g>
<g opacity="0.4">
<path opacity="0.4" d="M227.971 176.617H227.441V179.088H227.971V176.617Z" fill="white"/>
</g>
<g opacity="0.4">
<path opacity="0.4" d="M229.206 176.617H228.677V179.088H229.206V176.617Z" fill="white"/>
</g>
<g opacity="0.4">
<path opacity="0.4" d="M230.266 176.617H229.736V179.088H230.266V176.617Z" fill="white"/>
</g>
<g opacity="0.4">
<path opacity="0.4" d="M231.5 176.617H230.971V179.088H231.5V176.617Z" fill="white"/>
</g>
<g opacity="0.4">
<path opacity="0.4" d="M232.735 176.617H232.205V179.088H232.735V176.617Z" fill="white"/>
</g>
<g opacity="0.4">
<path opacity="0.4" d="M233.971 176.617H233.441V179.088H233.971V176.617Z" fill="white"/>
</g>
</g>
<g opacity="0.4">
<g opacity="0.4">
<path opacity="0.4" d="M235.03 174.5H234.501V179.088H235.03V174.5Z" fill="white"/>
</g>
<g opacity="0.4">
<path opacity="0.4" d="M236.089 176.617H235.56V179.088H236.089V176.617Z" fill="white"/>
</g>
<g opacity="0.4">
<path opacity="0.4" d="M237.324 176.617H236.795V179.088H237.324V176.617Z" fill="white"/>
</g>
<g opacity="0.4">
<path opacity="0.4" d="M238.559 176.617H238.029V179.088H238.559V176.617Z" fill="white"/>
</g>
<g opacity="0.4">
<path opacity="0.4" d="M239.617 176.617H239.088V179.088H239.617V176.617Z" fill="white"/>
</g>
<g opacity="0.4">
<path opacity="0.4" d="M240.853 176.617H240.323V179.088H240.853V176.617Z" fill="white"/>
</g>
<g opacity="0.4">
<path opacity="0.4" d="M242.089 176.617H241.56V179.088H242.089V176.617Z" fill="white"/>
</g>
</g>
<g opacity="0.4">
<g opacity="0.4">
<path opacity="0.4" d="M243.325 174.5H242.796V179.088H243.325V174.5Z" fill="white"/>
</g>
<g opacity="0.4">
<path opacity="0.4" d="M244.207 176.617H243.678V179.088H244.207V176.617Z" fill="white"/>
</g>
<g opacity="0.4">
<path opacity="0.4" d="M245.442 176.617H244.913V179.088H245.442V176.617Z" fill="white"/>
</g>
<g opacity="0.4">
<path opacity="0.4" d="M246.678 176.617H246.148V179.088H246.678V176.617Z" fill="white"/>
</g>
<g opacity="0.4">
<path opacity="0.4" d="M247.911 176.617H247.382V179.088H247.911V176.617Z" fill="white"/>
</g>
<g opacity="0.4">
<path opacity="0.4" d="M249.147 176.617H248.617V179.088H249.147V176.617Z" fill="white"/>
</g>
<g opacity="0.4">
<path opacity="0.4" d="M250.207 176.617H249.678V179.088H250.207V176.617Z" fill="white"/>
</g>
</g>
<g opacity="0.4">
<g opacity="0.4">
<path opacity="0.4" d="M251.44 174.5H250.911V179.088H251.44V174.5Z" fill="white"/>
</g>
<g opacity="0.4">
<path opacity="0.4" d="M252.498 176.617H251.969V179.088H252.498V176.617Z" fill="white"/>
</g>
<g opacity="0.4">
<path opacity="0.4" d="M253.558 176.617H253.028V179.088H253.558V176.617Z" fill="white"/>
</g>
<g opacity="0.4">
<path opacity="0.4" d="M254.793 176.617H254.264V179.088H254.793V176.617Z" fill="white"/>
</g>
<g opacity="0.4">
<path opacity="0.4" d="M256.027 176.617H255.498V179.088H256.027V176.617Z" fill="white"/>
</g>
<g opacity="0.4">
<path opacity="0.4" d="M257.262 176.617H256.732V179.088H257.262V176.617Z" fill="white"/>
</g>
<g opacity="0.4">
<path opacity="0.4" d="M258.498 176.617H257.969V179.088H258.498V176.617Z" fill="white"/>
</g>
</g>
<g opacity="0.4">
<g opacity="0.4">
<path opacity="0.4" d="M259.556 174.5H259.026V179.088H259.556V174.5Z" fill="white"/>
</g>
<g opacity="0.4">
<path opacity="0.4" d="M260.614 176.617H260.085V179.088H260.614V176.617Z" fill="white"/>
</g>
<g opacity="0.4">
<path opacity="0.4" d="M261.849 176.617H261.319V179.088H261.849V176.617Z" fill="white"/>
</g>
<g opacity="0.4">
<path opacity="0.4" d="M263.084 176.617H262.555V179.088H263.084V176.617Z" fill="white"/>
</g>
<g opacity="0.4">
<path opacity="0.4" d="M264.143 176.617H263.613V179.088H264.143V176.617Z" fill="white"/>
</g>
<g opacity="0.4">
<path opacity="0.4" d="M265.378 176.617H264.849V179.088H265.378V176.617Z" fill="white"/>
</g>
<g opacity="0.4">
<path opacity="0.4" d="M266.614 176.617H266.085V179.088H266.614V176.617Z" fill="white"/>
</g>
</g>
<g opacity="0.4">
<g opacity="0.4">
<path opacity="0.4" d="M267.849 174.5H267.319V179.088H267.849V174.5Z" fill="white"/>
</g>
<g opacity="0.4">
<path opacity="0.4" d="M268.731 176.617H268.202V179.088H268.731V176.617Z" fill="white"/>
</g>
<g opacity="0.4">
<path opacity="0.4" d="M269.967 176.617H269.438V179.088H269.967V176.617Z" fill="white"/>
</g>
<g opacity="0.4">
<path opacity="0.4" d="M271.202 176.617H270.673V179.088H271.202V176.617Z" fill="white"/>
</g>
<g opacity="0.4">
<path opacity="0.4" d="M272.436 176.617H271.906V179.088H272.436V176.617Z" fill="white"/>
</g>
<g opacity="0.4">
<path opacity="0.4" d="M273.496 176.617H272.967V179.088H273.496V176.617Z" fill="white"/>
</g>
<g opacity="0.4">
<path opacity="0.4" d="M274.731 176.617H274.202V179.088H274.731V176.617Z" fill="white"/>
</g>
</g>
<g opacity="0.4">
<g opacity="0.4">
<path opacity="0.4" d="M275.968 174.5H275.438V179.088H275.968V174.5Z" fill="white"/>
</g>
<g opacity="0.4">
<path opacity="0.4" d="M277.025 176.617H276.496V179.088H277.025V176.617Z" fill="white"/>
</g>
<g opacity="0.4">
<path opacity="0.4" d="M278.085 176.617H277.556V179.088H278.085V176.617Z" fill="white"/>
</g>
<g opacity="0.4">
<path opacity="0.4" d="M279.32 176.617H278.791V179.088H279.32V176.617Z" fill="white"/>
</g>
<g opacity="0.4">
<path opacity="0.4" d="M280.555 176.617H280.025V179.088H280.555V176.617Z" fill="white"/>
</g>
<g opacity="0.4">
<path opacity="0.4" d="M281.79 176.617H281.261V179.088H281.79V176.617Z" fill="white"/>
</g>
<g opacity="0.4">
<path opacity="0.4" d="M283.026 176.617H282.496V179.088H283.026V176.617Z" fill="white"/>
</g>
</g>
<g opacity="0.4">
<g opacity="0.4">
<path opacity="0.4" d="M284.083 174.5H283.554V179.088H284.083V174.5Z" fill="white"/>
</g>
<g opacity="0.4">
<path opacity="0.4" d="M291.142 174.684H290.612V179.271H291.142V174.684Z" fill="white"/>
</g>
<g opacity="0.4">
<path opacity="0.4" d="M285.142 176.617H284.612V179.088H285.142V176.617Z" fill="white"/>
</g>
<g opacity="0.4">
<path opacity="0.4" d="M286.377 176.617H285.848V179.088H286.377V176.617Z" fill="white"/>
</g>
<g opacity="0.4">
<path opacity="0.4" d="M287.436 176.617H286.906V179.088H287.436V176.617Z" fill="white"/>
</g>
<g opacity="0.4">
<path opacity="0.4" d="M288.67 176.617H288.141V179.088H288.67V176.617Z" fill="white"/>
</g>
<g opacity="0.4">
<path opacity="0.4" d="M289.905 176.617H289.376V179.088H289.905V176.617Z" fill="white"/>
</g>
<g opacity="0.4">
<path opacity="0.4" d="M291.142 176.617H290.612V179.088H291.142V176.617Z" fill="white"/>
</g>
</g>
</g>
</g>
<path d="M321.139 26.1133H308.258V26.6427H321.139V26.1133Z" fill="white"/>
<path d="M321.139 59.8203H308.258V60.3497H321.139V59.8203Z" fill="white"/>
<path d="M310.376 60.3432L310.199 59.9903C310.199 59.9903 311.964 58.9316 313.728 57.3436C315.316 55.932 317.434 53.6381 317.434 51.1678C317.61 49.0504 316.022 47.2859 314.434 45.5214C313.375 44.2863 312.317 43.0511 311.611 41.6395C310.729 40.0515 310.552 38.287 310.905 36.6989C311.611 33.1699 313.728 30.5232 315.14 29.1116C316.728 27.3471 318.316 26.6413 318.316 26.4648L318.492 26.8178C318.492 26.8178 317.081 27.7 315.316 29.2881C313.905 30.8761 311.964 33.3464 311.081 36.6989C310.376 40.2279 312.493 42.6982 314.61 45.1685C316.375 47.1095 317.963 48.874 317.787 51.1678C317.787 52.403 317.257 53.4617 316.375 54.6968C315.669 55.7555 314.787 56.6378 313.728 57.6965C312.317 59.2846 310.376 60.3432 310.376 60.3432Z" fill="white"/>
<path d="M314.433 60.1714C313.903 59.9949 312.492 58.9362 311.433 57.5246C310.374 56.113 309.316 54.1721 310.022 52.0547C310.551 50.4666 312.139 49.4079 313.727 48.3492C316.197 46.7612 318.668 44.9967 318.315 41.4677C318.138 38.1151 315.844 37.0564 313.727 35.9977C311.962 35.1155 310.198 34.2332 310.022 32.2923C309.669 30.3513 310.198 28.7633 310.727 27.881C311.257 26.8223 311.962 26.293 311.962 26.293L312.315 26.6459C312.315 26.6459 311.786 27.1752 311.257 28.0575C310.551 29.2926 310.374 30.7042 310.551 32.1158C310.904 33.8803 312.315 34.5861 314.08 35.4684C316.197 36.5271 318.668 37.7622 318.844 41.2912C319.02 45.1731 316.374 46.9376 314.08 48.7021C312.492 49.7608 311.08 50.8195 310.551 52.2311C309.845 54.1721 310.904 55.9366 311.962 57.1717C313.021 58.5833 314.433 59.642 314.786 59.642L314.433 60.1714Z" fill="white"/>
<path d="M314.963 26.4647H314.434V59.9902H314.963V26.4647Z" fill="white"/>
<g opacity="0.25">
<g opacity="0.25">
<path opacity="0.25" d="M92.4585 120.866C114.872 120.866 133.042 102.696 133.042 80.2827C133.042 57.8691 114.872 39.6992 92.4585 39.6992C70.0448 39.6992 51.875 57.8691 51.875 80.2827C51.875 102.696 70.0448 120.866 92.4585 120.866Z" fill="white"/>
<path opacity="0.25" d="M133.042 39.6992H51.875V40.0521H133.042V39.6992Z" fill="white"/>
<path opacity="0.25" d="M133.042 40.2305H51.875V40.5834H133.042V40.2305Z" fill="white"/>
<path opacity="0.25" d="M133.042 40.582H51.875V40.935H133.042V40.582Z" fill="white"/>
<path opacity="0.25" d="M133.042 40.9336H51.875V41.2865H133.042V40.9336Z" fill="white"/>
<path opacity="0.25" d="M133.042 41.2852H51.875V41.6381H133.042V41.2852Z" fill="white"/>
<path opacity="0.25" d="M133.042 41.6445H51.875V41.9974H133.042V41.6445Z" fill="white"/>
<path opacity="0.25" d="M133.042 41.9961H51.875V42.349H133.042V41.9961Z" fill="white"/>
<path opacity="0.25" d="M133.042 42.3477H51.875V42.7006H133.042V42.3477Z" fill="white"/>
<path opacity="0.25" d="M133.042 42.875H51.875V43.2279H133.042V42.875Z" fill="white"/>
<path opacity="0.25" d="M133.042 43.2266H51.875V43.5795H133.042V43.2266Z" fill="white"/>
<path opacity="0.25" d="M133.042 43.5781H51.875V43.931H133.042V43.5781Z" fill="white"/>
<path opacity="0.25" d="M133.042 43.9297H51.875V44.2826H133.042V43.9297Z" fill="white"/>
<path opacity="0.25" d="M133.042 44.2891H51.875V44.6419H133.042V44.2891Z" fill="white"/>
<path opacity="0.25" d="M133.042 44.6406H51.875V44.9935H133.042V44.6406Z" fill="white"/>
<path opacity="0.25" d="M133.042 44.9922H51.875V45.3451H133.042V44.9922Z" fill="white"/>
<path opacity="0.25" d="M133.042 45.5234H51.875V45.8764H133.042V45.5234Z" fill="white"/>
<path opacity="0.25" d="M133.042 45.875H51.875V46.2279H133.042V45.875Z" fill="white"/>
<path opacity="0.25" d="M133.042 46.2264H51.875V46.5793H133.042V46.2264Z" fill="white"/>
<path opacity="0.25" d="M133.042 46.5781H51.875V46.931H133.042V46.5781Z" fill="white"/>
<path opacity="0.25" d="M133.042 46.9375H51.875V47.2904H133.042V46.9375Z" fill="white"/>
<path opacity="0.25" d="M133.042 47.2891H51.875V47.642H133.042V47.2891Z" fill="white"/>
<path opacity="0.25" d="M133.042 47.8203H51.875V48.1732H133.042V47.8203Z" fill="white"/>
<path opacity="0.25" d="M133.042 48.1719H51.875V48.5248H133.042V48.1719Z" fill="white"/>
<path opacity="0.25" d="M133.042 48.5234H51.875V48.8764H133.042V48.5234Z" fill="white"/>
<path opacity="0.25" d="M133.042 48.875H51.875V49.2279H133.042V48.875Z" fill="white"/>
<path opacity="0.25" d="M133.042 49.2266H51.875V49.5795H133.042V49.2266Z" fill="white"/>
<path opacity="0.25" d="M133.042 49.582H51.875V49.9349H133.042V49.582Z" fill="white"/>
<path opacity="0.25" d="M133.042 49.9336H51.875V50.2865H133.042V49.9336Z" fill="white"/>
<path opacity="0.25" d="M133.042 50.4648H51.875V50.8177H133.042V50.4648Z" fill="white"/>
<path opacity="0.25" d="M133.042 50.8164H51.875V51.1693H133.042V50.8164Z" fill="white"/>
<path opacity="0.25" d="M133.042 51.168H51.875V51.5209H133.042V51.168Z" fill="white"/>
<path opacity="0.25" d="M133.042 51.5195H51.875V51.8724H133.042V51.5195Z" fill="white"/>
<path opacity="0.25" d="M133.042 51.8711H51.875V52.224H133.042V51.8711Z" fill="white"/>
<path opacity="0.25" d="M133.042 52.2305H51.875V52.5833H133.042V52.2305Z" fill="white"/>
<path opacity="0.25" d="M133.042 52.582H51.875V52.935H133.042V52.582Z" fill="white"/>
<path opacity="0.25" d="M133.042 53.1133H51.875V53.4661H133.042V53.1133Z" fill="white"/>
<path opacity="0.25" d="M133.042 53.4648H51.875V53.8178H133.042V53.4648Z" fill="white"/>
<path opacity="0.25" d="M133.042 53.8164H51.875V54.1693H133.042V53.8164Z" fill="white"/>
<path opacity="0.25" d="M133.042 54.168H51.875V54.5208H133.042V54.168Z" fill="white"/>
<path opacity="0.25" d="M133.042 54.5195H51.875V54.8725H133.042V54.5195Z" fill="white"/>
<path opacity="0.25" d="M133.042 54.875H51.875V55.2279H133.042V54.875Z" fill="white"/>
<path opacity="0.25" d="M133.042 55.2266H51.875V55.5795H133.042V55.2266Z" fill="white"/>
<path opacity="0.25" d="M133.042 55.7578H51.875V56.1107H133.042V55.7578Z" fill="white"/>
<path opacity="0.25" d="M133.042 56.1094H51.875V56.4623H133.042V56.1094Z" fill="white"/>
<path opacity="0.25" d="M133.042 56.4609H51.875V56.8139H133.042V56.4609Z" fill="white"/>
<path opacity="0.25" d="M133.042 56.8125H51.875V57.1654H133.042V56.8125Z" fill="white"/>
<path opacity="0.25" d="M133.042 57.1641H51.875V57.517H133.042V57.1641Z" fill="white"/>
<path opacity="0.25" d="M133.042 57.5234H51.875V57.8763H133.042V57.5234Z" fill="white"/>
<path opacity="0.25" d="M133.042 58.0469H51.875V58.3998H133.042V58.0469Z" fill="white"/>
<path opacity="0.25" d="M133.042 58.4062H51.875V58.7591H133.042V58.4062Z" fill="white"/>
<path opacity="0.25" d="M133.042 58.7578H51.875V59.1107H133.042V58.7578Z" fill="white"/>
<path opacity="0.25" d="M133.042 59.1094H51.875V59.4623H133.042V59.1094Z" fill="white"/>
<path opacity="0.25" d="M133.042 59.4609H51.875V59.8138H133.042V59.4609Z" fill="white"/>
<path opacity="0.25" d="M133.042 59.8125H51.875V60.1654H133.042V59.8125Z" fill="white"/>
<path opacity="0.25" d="M133.042 60.1719H51.875V60.5247H133.042V60.1719Z" fill="white"/>
<path opacity="0.25" d="M133.042 60.6953H51.875V61.0482H133.042V60.6953Z" fill="white"/>
<path opacity="0.25" d="M133.042 61.0508H51.875V61.4036H133.042V61.0508Z" fill="white"/>
<path opacity="0.25" d="M133.042 61.4023H51.875V61.7553H133.042V61.4023Z" fill="white"/>
<path opacity="0.25" d="M133.042 61.7539H51.875V62.1068H133.042V61.7539Z" fill="white"/>
<path opacity="0.25" d="M133.042 62.1055H51.875V62.4583H133.042V62.1055Z" fill="white"/>
<path opacity="0.25" d="M133.042 62.457H51.875V62.81H133.042V62.457Z" fill="white"/>
<path opacity="0.25" d="M133.042 62.8164H51.875V63.1693H133.042V62.8164Z" fill="white"/>
<path opacity="0.25" d="M133.042 63.3398H51.875V63.6928H133.042V63.3398Z" fill="white"/>
<path opacity="0.25" d="M133.042 63.6992H51.875V64.0521H133.042V63.6992Z" fill="white"/>
<path opacity="0.25" d="M133.042 64.0507H51.875V64.4036H133.042V64.0507Z" fill="white"/>
<path opacity="0.25" d="M133.042 64.4023H51.875V64.7553H133.042V64.4023Z" fill="white"/>
<path opacity="0.25" d="M133.042 64.7539H51.875V65.1068H133.042V64.7539Z" fill="white"/>
<path opacity="0.25" d="M133.042 65.1055H51.875V65.4584H133.042V65.1055Z" fill="white"/>
<path opacity="0.25" d="M133.042 65.4648H51.875V65.8177H133.042V65.4648Z" fill="white"/>
<path opacity="0.25" d="M133.042 65.9883H51.875V66.3412H133.042V65.9883Z" fill="white"/>
<path opacity="0.25" d="M133.042 66.3477H51.875V66.7005H133.042V66.3477Z" fill="white"/>
<path opacity="0.25" d="M133.042 66.6992H51.875V67.0521H133.042V66.6992Z" fill="white"/>
<path opacity="0.25" d="M133.042 67.0508H51.875V67.4037H133.042V67.0508Z" fill="white"/>
<path opacity="0.25" d="M133.042 67.4023H51.875V67.7552H133.042V67.4023Z" fill="white"/>
<path opacity="0.25" d="M133.042 67.7539H51.875V68.1068H133.042V67.7539Z" fill="white"/>
<path opacity="0.25" d="M133.042 68.2812H51.875V68.6341H133.042V68.2812Z" fill="white"/>
<path opacity="0.25" d="M133.042 68.6328H51.875V68.9857H133.042V68.6328Z" fill="white"/>
<path opacity="0.25" d="M133.042 68.9922H51.875V69.3451H133.042V68.9922Z" fill="white"/>
<path opacity="0.25" d="M133.042 69.3438H51.875V69.6967H133.042V69.3438Z" fill="white"/>
<path opacity="0.25" d="M133.042 69.6953H51.875V70.0482H133.042V69.6953Z" fill="white"/>
<path opacity="0.25" d="M133.042 70.0469H51.875V70.3997H133.042V70.0469Z" fill="white"/>
<path opacity="0.25" d="M133.042 70.3984H51.875V70.7514H133.042V70.3984Z" fill="white"/>
<path opacity="0.25" d="M133.042 70.9297H51.875V71.2826H133.042V70.9297Z" fill="white"/>
<path opacity="0.25" d="M133.042 71.2812H51.875V71.6342H133.042V71.2812Z" fill="white"/>
<path opacity="0.25" d="M133.042 71.6406H51.875V71.9935H133.042V71.6406Z" fill="white"/>
<path opacity="0.25" d="M133.042 71.9922H51.875V72.3451H133.042V71.9922Z" fill="white"/>
<path opacity="0.25" d="M133.042 72.3438H51.875V72.6967H133.042V72.3438Z" fill="white"/>
<path opacity="0.25" d="M133.042 72.6953H51.875V73.0482H133.042V72.6953Z" fill="white"/>
<path opacity="0.25" d="M133.042 73.0469H51.875V73.3998H133.042V73.0469Z" fill="white"/>
<path opacity="0.25" d="M133.042 73.5781H51.875V73.931H133.042V73.5781Z" fill="white"/>
<path opacity="0.25" d="M133.042 73.9297H51.875V74.2826H133.042V73.9297Z" fill="white"/>
<path opacity="0.25" d="M133.042 74.2852H51.875V74.638H133.042V74.2852Z" fill="white"/>
<path opacity="0.25" d="M133.042 74.6367H51.875V74.9896H133.042V74.6367Z" fill="white"/>
<path opacity="0.25" d="M133.042 74.9883H51.875V75.3412H133.042V74.9883Z" fill="white"/>
<path opacity="0.25" d="M133.042 75.3398H51.875V75.6927H133.042V75.3398Z" fill="white"/>
<path opacity="0.25" d="M133.042 75.6914H51.875V76.0443H133.042V75.6914Z" fill="white"/>
<path opacity="0.25" d="M133.042 76.2227H51.875V76.5755H133.042V76.2227Z" fill="white"/>
<path opacity="0.25" d="M133.042 76.5742H51.875V76.9271H133.042V76.5742Z" fill="white"/>
<path opacity="0.25" d="M133.042 76.9336H51.875V77.2865H133.042V76.9336Z" fill="white"/>
<path opacity="0.25" d="M133.042 77.2852H51.875V77.6381H133.042V77.2852Z" fill="white"/>
<path opacity="0.25" d="M133.042 77.6367H51.875V77.9896H133.042V77.6367Z" fill="white"/>
<path opacity="0.25" d="M133.042 77.9883H51.875V78.3411H133.042V77.9883Z" fill="white"/>
<path opacity="0.25" d="M133.042 78.5195H51.875V78.8725H133.042V78.5195Z" fill="white"/>
<path opacity="0.25" d="M133.042 78.8711H51.875V79.224H133.042V78.8711Z" fill="white"/>
<path opacity="0.25" d="M133.042 79.2227H51.875V79.5756H133.042V79.2227Z" fill="white"/>
<path opacity="0.25" d="M133.042 79.5781H51.875V79.931H133.042V79.5781Z" fill="white"/>
<path opacity="0.25" d="M133.042 79.9297H51.875V80.2826H133.042V79.9297Z" fill="white"/>
<path opacity="0.25" d="M133.042 80.2812H51.875V80.6342H133.042V80.2812Z" fill="white"/>
<path opacity="0.25" d="M133.042 80.6328H51.875V80.9857H133.042V80.6328Z" fill="white"/>
<path opacity="0.25" d="M133.042 81.1641H51.875V81.517H133.042V81.1641Z" fill="white"/>
<path opacity="0.25" d="M133.042 81.5156H51.875V81.8685H133.042V81.5156Z" fill="white"/>
<path opacity="0.25" d="M133.042 81.8672H51.875V82.2201H133.042V81.8672Z" fill="white"/>
<path opacity="0.25" d="M133.042 82.2266H51.875V82.5794H133.042V82.2266Z" fill="white"/>
<path opacity="0.25" d="M133.042 82.5781H51.875V82.931H133.042V82.5781Z" fill="white"/>
<path opacity="0.25" d="M133.042 82.9297H51.875V83.2826H133.042V82.9297Z" fill="white"/>
<path opacity="0.25" d="M133.042 83.2812H51.875V83.6341H133.042V83.2812Z" fill="white"/>
<path opacity="0.25" d="M133.042 83.8125H51.875V84.1654H133.042V83.8125Z" fill="white"/>
<path opacity="0.25" d="M133.042 84.1641H51.875V84.5169H133.042V84.1641Z" fill="white"/>
<path opacity="0.25" d="M133.042 84.5156H51.875V84.8685H133.042V84.5156Z" fill="white"/>
<path opacity="0.25" d="M133.042 84.875H51.875V85.2279H133.042V84.875Z" fill="white"/>
<path opacity="0.25" d="M133.042 85.2266H51.875V85.5795H133.042V85.2266Z" fill="white"/>
<path opacity="0.25" d="M133.042 85.5781H51.875V85.931H133.042V85.5781Z" fill="white"/>
<path opacity="0.25" d="M133.042 86.1055H51.875V86.4584H133.042V86.1055Z" fill="white"/>
<path opacity="0.25" d="M133.042 86.457H51.875V86.81H133.042V86.457Z" fill="white"/>
<path opacity="0.25" d="M133.042 86.8086H51.875V87.1615H133.042V86.8086Z" fill="white"/>
<path opacity="0.25" d="M133.042 87.1602H51.875V87.5131H133.042V87.1602Z" fill="white"/>
<path opacity="0.25" d="M133.042 87.5195H51.875V87.8724H133.042V87.5195Z" fill="white"/>
<path opacity="0.25" d="M133.042 87.8711H51.875V88.224H133.042V87.8711Z" fill="white"/>
<path opacity="0.25" d="M133.042 88.2227H51.875V88.5756H133.042V88.2227Z" fill="white"/>
<path opacity="0.25" d="M133.042 88.7539H51.875V89.1068H133.042V88.7539Z" fill="white"/>
<path opacity="0.25" d="M133.042 89.1055H51.875V89.4584H133.042V89.1055Z" fill="white"/>
<path opacity="0.25" d="M133.042 89.457H51.875V89.8099H133.042V89.457Z" fill="white"/>
<path opacity="0.25" d="M133.042 89.8086H51.875V90.1615H133.042V89.8086Z" fill="white"/>
<path opacity="0.25" d="M133.042 90.168H51.875V90.5208H133.042V90.168Z" fill="white"/>
<path opacity="0.25" d="M133.042 90.5195H51.875V90.8725H133.042V90.5195Z" fill="white"/>
<path opacity="0.25" d="M133.042 90.8711H51.875V91.224H133.042V90.8711Z" fill="white"/>
<path opacity="0.25" d="M133.042 91.4023H51.875V91.7553H133.042V91.4023Z" fill="white"/>
<path opacity="0.25" d="M133.042 91.75H51.875V92.1029H133.042V91.75Z" fill="white"/>
<path opacity="0.25" d="M133.042 92.1016H51.875V92.4544H133.042V92.1016Z" fill="white"/>
<path opacity="0.25" d="M133.042 92.4531H51.875V92.806H133.042V92.4531Z" fill="white"/>
<path opacity="0.25" d="M133.042 92.8125H51.875V93.1654H133.042V92.8125Z" fill="white"/>
<path opacity="0.25" d="M133.042 93.1641H51.875V93.517H133.042V93.1641Z" fill="white"/>
<path opacity="0.25" d="M133.042 93.5156H51.875V93.8685H133.042V93.5156Z" fill="white"/>
<path opacity="0.25" d="M133.042 94.0469H51.875V94.3998H133.042V94.0469Z" fill="white"/>
<path opacity="0.25" d="M133.042 94.3984H51.875V94.7514H133.042V94.3984Z" fill="white"/>
<path opacity="0.25" d="M133.042 94.75H51.875V95.1029H133.042V94.75Z" fill="white"/>
<path opacity="0.25" d="M133.042 95.1016H51.875V95.4545H133.042V95.1016Z" fill="white"/>
<path opacity="0.25" d="M133.042 95.4609H51.875V95.8138H133.042V95.4609Z" fill="white"/>
<path opacity="0.25" d="M133.042 95.8125H51.875V96.1654H133.042V95.8125Z" fill="white"/>
<path opacity="0.25" d="M133.042 96.3438H51.875V96.6966H133.042V96.3438Z" fill="white"/>
<path opacity="0.25" d="M133.042 96.6953H51.875V97.0482H133.042V96.6953Z" fill="white"/>
<path opacity="0.25" d="M133.042 97.0469H51.875V121.044H133.042V97.0469Z" fill="white"/>
</g>
</g>
<g opacity="0.58">
<path opacity="0.58" d="M92.4585 121.038C86.9885 121.038 81.695 119.979 76.578 117.862C71.8138 115.745 67.4026 112.921 63.6972 109.216C59.9917 105.51 56.9921 101.099 55.0511 96.3351C52.9337 91.3945 51.875 85.9245 51.875 80.4546C51.875 74.9846 52.9337 69.6911 55.0511 64.5741C57.1685 59.8099 59.9917 55.3987 63.6972 51.6932C67.4026 47.9878 71.8138 44.9881 76.578 43.0472C81.5186 40.9298 86.9885 39.8711 92.4585 39.8711C97.9284 39.8711 103.222 40.9298 108.339 43.0472C113.103 45.1646 117.514 47.9878 121.22 51.6932C124.925 55.3987 127.925 59.8099 129.866 64.5741C131.983 69.5147 133.042 74.9846 133.042 80.4546C133.042 85.9245 131.983 91.218 129.866 96.3351C127.748 101.099 124.925 105.51 121.22 109.216C117.514 112.921 113.103 115.921 108.339 117.862C103.398 119.979 98.1049 121.038 92.4585 121.038ZM92.4585 39.8711C70.0493 39.8711 51.875 58.0454 51.875 80.4546C51.875 102.864 70.0493 121.038 92.4585 121.038C114.868 121.038 133.042 102.864 133.042 80.4546C133.042 58.0454 114.868 39.8711 92.4585 39.8711Z" fill="white"/>
</g>
<g opacity="0.58">
<path opacity="0.58" d="M92.4586 112.749C88.0473 112.749 83.8125 111.866 79.9306 110.278C76.0487 108.69 72.6962 106.396 69.6966 103.397C66.6969 100.397 64.4031 97.0446 62.815 93.1627C61.0505 89.1043 60.3447 84.8696 60.3447 80.6348C60.3447 76.2235 61.227 71.9887 62.815 68.1068C64.4031 64.2249 66.6969 60.8724 69.6966 57.8727C72.6962 54.8731 76.0487 52.5792 79.9306 50.9912C83.989 49.2267 88.2238 48.5209 92.4586 48.5209C96.8698 48.5209 101.105 49.4031 104.987 50.9912C108.868 52.5792 112.221 54.8731 115.221 57.8727C118.22 60.8724 120.514 64.2249 122.102 68.1068C123.867 72.1652 124.572 76.4 124.572 80.6348C124.572 85.046 123.69 89.2808 122.102 93.1627C120.514 97.0446 118.22 100.397 115.221 103.397C112.221 106.396 108.868 108.69 104.987 110.278C101.105 111.866 96.8698 112.749 92.4586 112.749ZM92.4586 48.168C74.6371 48.168 60.3447 62.6369 60.3447 80.2819C60.3447 98.1033 74.8136 112.396 92.4586 112.396C110.28 112.396 124.572 97.9269 124.572 80.2819C124.749 62.6369 110.28 48.168 92.4586 48.168Z" fill="white"/>
</g>
<g opacity="0.58">
<path opacity="0.58" d="M92.4583 96.3366C83.6358 96.3366 76.4014 89.1021 76.4014 80.2796C76.4014 71.4571 83.6358 64.2227 92.4583 64.2227C101.281 64.2227 108.515 71.4571 108.515 80.2796C108.515 89.2786 101.281 96.3366 92.4583 96.3366ZM92.4583 64.752C83.8123 64.752 76.9307 71.81 76.9307 80.2796C76.9307 88.9257 83.9887 95.8072 92.4583 95.8072C101.104 95.8072 107.986 88.7492 107.986 80.2796C108.162 71.81 101.104 64.752 92.4583 64.752ZM92.4583 92.4546C85.7532 92.4546 80.2833 86.9847 80.2833 80.2796C80.2833 73.5745 85.7532 68.1046 92.4583 68.1046C99.1634 68.1046 104.633 73.5745 104.633 80.2796C104.633 87.1612 99.1634 92.4546 92.4583 92.4546ZM92.4583 68.6339C85.9297 68.6339 80.6362 73.9274 80.6362 80.4561C80.6362 86.9847 85.9297 92.2782 92.4583 92.2782C98.987 92.2782 104.28 86.9847 104.28 80.4561C104.28 73.9274 98.987 68.6339 92.4583 68.6339Z" fill="white"/>
</g>
<g opacity="0.58">
<g opacity="0.58">
<path opacity="0.58" d="M92.4587 87.1654C88.7532 87.1654 85.5771 84.1658 85.5771 80.2839C85.5771 76.402 88.5768 73.4023 92.4587 73.4023C96.1641 73.4023 99.3402 76.402 99.3402 80.2839C99.3402 84.1658 96.3406 87.1654 92.4587 87.1654ZM92.4587 74.1081C88.9297 74.1081 86.1065 76.9313 86.1065 80.4603C86.1065 83.9893 88.9297 86.8125 92.4587 86.8125C95.9877 86.8125 98.8109 83.9893 98.8109 80.4603C98.8109 76.9313 95.9877 74.1081 92.4587 74.1081Z" fill="white"/>
</g>
<g opacity="0.58">
<path opacity="0.58" d="M92.9874 72.168H92.458V75.8734H92.9874V72.168Z" fill="white"/>
</g>
<g opacity="0.58">
<path opacity="0.58" d="M89.8045 72.5435L89.3154 72.7461L90.7335 76.1696L91.2226 75.967L89.8045 72.5435Z" fill="white"/>
</g>
<g opacity="0.58">
<path opacity="0.58" d="M87.013 74.2194L86.6387 74.5938L89.2588 77.2139L89.6331 76.8396L87.013 74.2194Z" fill="white"/>
</g>
<g opacity="0.58">
<path opacity="0.58" d="M85.0287 76.7492L84.8262 77.2383L88.2496 78.6564L88.4522 78.1673L85.0287 76.7492Z" fill="white"/>
</g>
<g opacity="0.58">
<path opacity="0.58" d="M88.0473 79.9297H84.3418V80.4591H88.0473V79.9297Z" fill="white"/>
</g>
<g opacity="0.58">
<path opacity="0.58" d="M88.1842 81.6952L84.7607 83.1133L84.9633 83.6023L88.3868 82.1842L88.1842 81.6952Z" fill="white"/>
</g>
<g opacity="0.58">
<path opacity="0.58" d="M89.0264 83.2588L86.4062 85.8789L86.7806 86.2532L89.4007 83.6331L89.0264 83.2588Z" fill="white"/>
</g>
<g opacity="0.58">
<path opacity="0.58" d="M90.3859 84.4984L88.9678 87.9219L89.4568 88.1244L90.8749 84.701L90.3859 84.4984Z" fill="white"/>
</g>
<g opacity="0.58">
<path opacity="0.58" d="M92.6358 84.8711H92.1064V88.5766H92.6358V84.8711Z" fill="white"/>
</g>
<g opacity="0.58">
<path opacity="0.58" d="M94.4148 84.5748L93.9258 84.7773L95.3439 88.2008L95.8329 87.9982L94.4148 84.5748Z" fill="white"/>
</g>
<g opacity="0.58">
<path opacity="0.58" d="M95.803 83.4929L95.4287 83.8672L98.0488 86.4873L98.4232 86.113L95.803 83.4929Z" fill="white"/>
</g>
<g opacity="0.58">
<path opacity="0.58" d="M96.8871 82.05L96.6846 82.5391L100.108 83.9571L100.311 83.4681L96.8871 82.05Z" fill="white"/>
</g>
<g opacity="0.58">
<path opacity="0.58" d="M100.751 80.2852H97.0459V80.8145H100.751V80.2852Z" fill="white"/>
</g>
<g opacity="0.58">
<path opacity="0.58" d="M100.217 77.0858L96.7939 78.5039L96.9965 78.993L100.42 77.5749L100.217 77.0858Z" fill="white"/>
</g>
<g opacity="0.58">
<path opacity="0.58" d="M98.2832 74.4619L95.6631 77.082L96.0374 77.4564L98.6575 74.8362L98.2832 74.4619Z" fill="white"/>
</g>
<g opacity="0.58">
<path opacity="0.58" d="M95.6319 72.7992L94.2139 76.2227L94.7029 76.4252L96.121 73.0018L95.6319 72.7992Z" fill="white"/>
</g>
</g>
<g opacity="0.58">
<g opacity="0.58">
<g opacity="0.58">
<g opacity="0.58">
<path opacity="0.58" d="M116.455 54.8655C116.279 54.689 116.102 54.5125 116.102 54.5125L115.926 54.3361L123.513 46.043L123.69 46.2194C123.866 46.3959 123.866 46.3958 124.042 46.5723L124.219 46.7488L116.455 54.8655Z" fill="white"/>
</g>
</g>
<g opacity="0.58">
<g opacity="0.58">
<path opacity="0.58" d="M114.512 53.0996C114.159 52.7467 113.982 52.7467 113.806 52.5702L113.63 52.3938L120.511 43.3948L120.688 43.5713C120.864 43.7478 121.217 43.9242 121.393 44.1006L121.57 44.2771L114.512 53.0996ZM114.335 52.3938L114.512 52.5702L121.04 44.4536C120.864 44.2771 120.864 44.2771 120.688 44.1006L114.335 52.3938ZM112.218 51.5116L112.042 51.3351C111.865 51.1586 111.689 51.1586 111.512 50.9822L111.336 50.8057L117.511 41.2774L117.688 41.4539C117.864 41.6303 118.217 41.8068 118.394 41.9832L118.57 42.1597L112.218 51.5116ZM111.865 50.8057C111.865 50.8057 112.042 50.8057 112.042 50.9822L117.864 42.3361C117.688 42.3361 117.688 42.1597 117.511 42.1597L111.865 50.8057ZM109.748 49.9235L109.571 49.7471C109.395 49.5706 109.218 49.5706 109.042 49.3941L108.865 49.2177L114.159 39.3365L114.335 39.5129C114.512 39.6894 114.865 39.8658 115.041 39.8658L115.218 40.0423L109.748 49.9235ZM109.395 49.2177C109.395 49.2177 109.571 49.2177 109.571 49.3941L114.688 40.2187C114.512 40.2187 114.512 40.0423 114.335 40.0423L109.395 49.2177ZM107.277 48.6883L107.101 48.5119C106.924 48.3354 106.748 48.3354 106.572 48.159H106.395L110.983 37.7484H111.159C111.336 37.9249 111.689 37.9249 112.042 38.1013L112.218 38.2778L107.277 48.6883ZM106.924 47.9826C106.924 47.9826 107.101 47.9825 107.101 48.159L111.512 38.6307C111.336 38.6307 111.159 38.4542 111.159 38.4542L106.924 47.9826ZM104.631 47.4532H104.454C104.278 47.4532 104.101 47.2767 103.748 47.2767H103.572L107.277 36.5133H107.454C107.807 36.6898 107.983 36.6897 108.336 36.8662H108.513L104.631 47.4532ZM104.101 46.9238H104.278L107.807 37.0426C107.63 37.0426 107.454 36.8662 107.454 36.8662L104.101 46.9238ZM81.1628 47.2767L77.6338 36.5133H77.8102C78.1631 36.3369 78.3396 36.3368 78.6925 36.1604H78.869L82.2215 46.9238H82.045C81.8686 46.9238 81.6921 47.1003 81.3392 47.1003L81.1628 47.2767ZM78.1631 36.8662L81.5157 46.7474H81.6921L78.516 36.8662C78.516 36.6897 78.3396 36.6897 78.1631 36.8662ZM101.984 46.7474H101.807C101.631 46.7474 101.455 46.5709 101.102 46.5709H100.925L103.748 35.6311H103.925C104.278 35.6311 104.454 35.8075 104.807 35.8075H104.984L101.984 46.7474ZM101.455 46.0416H101.631L104.454 35.9839C104.278 35.9839 104.101 35.9839 104.101 35.8075L101.455 46.0416ZM83.986 46.3945L81.3392 35.4546H81.5157C81.8686 35.4546 82.0451 35.2781 82.398 35.2781H82.5744L85.0447 46.2181H84.8682C84.6918 46.2181 84.5154 46.3945 84.1625 46.3945H83.986ZM81.6921 35.8075L84.1625 45.8651H84.3389L82.045 35.6311C82.045 35.8075 81.8686 35.8075 81.6921 35.8075ZM99.1607 46.0416H98.9842C98.8078 46.0416 98.6314 46.0416 98.2785 45.8651H98.102L100.043 34.7488H100.219C100.572 34.7488 100.749 34.9252 101.102 34.9252H101.278L99.1607 46.0416ZM98.6313 45.5122H98.8078L100.749 35.2781C100.572 35.2781 100.396 35.2781 100.396 35.2781L98.6313 45.5122ZM86.8092 45.8651L85.0447 34.7488H85.2211C85.574 34.7488 85.7505 34.5724 86.1034 34.5724H86.2798L87.8679 45.6887H87.6915C87.515 45.6887 87.3385 45.6887 86.9856 45.8651H86.8092ZM85.3976 35.1017L86.9856 45.3358H87.1621L85.7505 34.9252C85.7505 35.1017 85.574 35.1017 85.3976 35.1017ZM96.3375 45.5122H96.161C95.9846 45.5122 95.8081 45.5122 95.4552 45.5122H95.2788L96.161 34.2194H96.3375C96.6904 34.2194 96.8668 34.2194 97.2197 34.2194H97.3962L96.3375 45.5122ZM95.8081 45.1593H95.9846L97.0433 34.7488C96.8668 34.7488 96.6904 34.7488 96.6904 34.7488L95.8081 45.1593ZM89.6324 45.5122L88.7501 34.2194H88.9266C89.2795 34.2194 89.4559 34.2194 89.8088 34.2194H89.9853L90.6911 45.5122H90.5146C90.3382 45.5122 90.1617 45.5122 89.8088 45.5122H89.6324ZM89.103 34.5724L89.9853 44.9829H90.1617L89.6324 34.5724C89.4559 34.5724 89.2795 34.5724 89.103 34.5724ZM93.5143 45.3358H93.3378C93.1614 45.3358 92.9849 45.3358 92.632 45.3358H92.4556V34.043H92.632C92.9849 34.043 93.1614 34.043 93.5143 34.043H93.6907L93.5143 45.3358ZM92.8085 44.9829H92.985L93.1614 34.5724C92.9849 34.5724 92.8085 34.5724 92.8085 34.5724V44.9829Z" fill="white"/>
</g>
</g>
<g opacity="0.58">
<g opacity="0.58">
<path opacity="0.58" d="M78.8693 48.1612L74.458 37.7507H74.6344C74.8109 37.7507 74.8109 37.5742 74.9873 37.5742H75.1638L79.3986 47.9848H79.2221C79.0457 47.9848 79.0457 47.9848 78.8693 48.1612Z" fill="white"/>
</g>
</g>
</g>
<g opacity="0.58">
<g opacity="0.58">
<path opacity="0.58" d="M70.9302 121.207L70.7537 121.03C70.5773 120.854 70.2244 120.677 70.0479 120.677L69.8715 120.501L75.3414 110.62L75.5179 110.796C75.6943 110.973 75.8708 110.973 76.0472 111.149L76.2237 111.326L70.9302 121.207ZM70.4008 120.501C70.5773 120.501 70.5773 120.677 70.7537 120.677L75.6943 111.502C75.6943 111.502 75.5179 111.502 75.5179 111.326L70.4008 120.501ZM67.7541 119.442L67.5776 119.266C67.4012 119.089 67.0483 118.913 66.8718 118.736L66.6954 118.56L72.8711 109.208L73.0476 109.385C73.224 109.561 73.4005 109.561 73.5769 109.738L73.7534 109.914L67.7541 119.442ZM67.2247 118.56C67.4012 118.56 67.4012 118.736 67.5776 118.736L73.224 109.914C73.224 109.914 73.0476 109.914 73.0476 109.738L67.2247 118.56ZM64.7545 117.325C64.4016 116.972 64.2251 116.796 63.8722 116.619L63.6957 116.443L70.7537 107.62L70.9302 107.797C71.1066 107.973 71.2831 107.973 71.4595 108.149L71.636 108.326L64.7545 117.325ZM64.4015 116.443C64.578 116.443 64.578 116.619 64.7545 116.619L71.1066 108.326C71.1066 108.326 70.9302 108.326 70.9302 108.149L64.4015 116.443ZM61.9312 115.031C61.5783 114.678 61.4019 114.502 61.2255 114.325L61.049 114.149L68.6363 105.856L68.8128 106.032C68.9892 106.209 69.1657 106.385 69.3421 106.385L69.5186 106.561L61.9312 115.031ZM61.5783 114.149C61.7548 114.325 61.7548 114.325 61.9312 114.502L68.8128 106.738L68.6363 106.561L61.5783 114.149ZM59.2845 112.561C58.9316 112.208 58.7552 112.031 58.5787 111.855L58.4022 111.678L66.6954 104.091L66.8718 104.268C67.0483 104.444 67.2247 104.621 67.2247 104.797L67.4012 104.973L59.2845 112.561ZM59.108 111.678C59.2845 111.855 59.2845 111.855 59.461 112.031L67.0483 104.797L66.8718 104.62L59.108 111.678ZM56.8142 109.738C56.4613 109.385 56.2848 109.208 56.1084 108.855L55.932 108.679L64.7545 101.621L64.9309 101.797C65.1073 101.974 65.2838 102.15 65.2838 102.327L65.4602 102.503L56.8142 109.738ZM56.6377 108.855C56.6377 109.032 56.8142 109.032 56.8142 109.208L64.9309 102.68L64.7545 102.503L56.6377 108.855ZM54.6968 106.914C54.3439 106.561 54.3439 106.209 54.1675 106.032L53.991 105.856L63.3428 99.5035L63.5193 99.6799C63.6957 99.8564 63.6958 100.033 63.8722 100.209L64.0486 100.386L54.6968 106.914ZM54.5203 106.032C54.5203 106.209 54.6968 106.209 54.6968 106.385L63.3428 100.386C63.3428 100.386 63.3428 100.209 63.1664 100.209L54.5203 106.032ZM52.5794 103.915L52.403 103.738C52.2265 103.562 52.05 103.209 52.05 103.032L51.8736 102.856L61.7548 97.3861L61.9312 97.5625C62.1077 97.7389 62.1077 97.9154 62.2841 98.0919L62.4606 98.2683L52.5794 103.915ZM52.5794 102.856C52.5794 103.032 52.7558 103.032 52.7558 103.209L61.7548 97.9154C61.7548 97.9154 61.7548 97.739 61.5783 97.739L52.5794 102.856ZM50.9913 100.562L50.8149 100.386C50.6384 100.209 50.6384 99.8564 50.462 99.6799L50.2855 99.5035L60.5196 94.7393L60.6961 94.9157C60.8725 95.0922 60.8725 95.2687 61.049 95.4451L61.2255 95.6216L50.9913 100.562ZM50.9913 99.6799C50.9913 99.8564 51.1678 99.8564 51.1678 100.033L60.5196 95.4451C60.5196 95.4451 60.5197 95.2687 60.3432 95.2687L50.9913 99.6799ZM49.4033 97.2096V97.0332C49.2268 96.6803 49.2268 96.5038 49.0504 96.1509V95.9745L59.6374 92.0926V92.269C59.6374 92.4454 59.8138 92.6219 59.8138 92.7984V92.9748L49.4033 97.2096ZM49.5797 96.3274C49.5797 96.5038 49.7562 96.5038 49.7562 96.6802L59.461 92.9748V92.7984L49.5797 96.3274ZM48.1681 93.8571V93.6806C48.1681 93.3277 47.9917 93.1513 47.9917 92.7984V92.6219L58.9316 89.6222V89.7987C58.9316 89.9752 59.108 90.1516 59.108 90.5045V90.681L48.1681 93.8571ZM48.3446 92.9748C48.3446 93.1513 48.3446 93.1513 48.521 93.3277L58.5787 90.3281V90.1516L48.3446 92.9748ZM47.2859 90.3281V90.1516C47.2859 89.7987 47.1095 89.6223 47.1095 89.2694V89.0929L58.2258 86.9755V87.152C58.2258 87.3284 58.2258 87.5048 58.4022 87.8577V88.0342L47.2859 90.3281ZM47.6388 89.4458C47.6388 89.6223 47.6388 89.7987 47.6388 89.7987L57.8729 87.6813V87.5049L47.6388 89.4458ZM46.7565 86.6226V86.4462C46.7565 86.0933 46.7565 85.9168 46.5801 85.5639V85.3875L57.8729 84.1523V84.3288C57.8729 84.5052 57.8729 84.6817 57.8729 85.0346V85.211L46.7565 86.6226ZM46.933 85.7404C46.933 85.9168 46.933 85.9168 46.933 86.0932L57.3435 84.6817V84.5052L46.933 85.7404Z" fill="white"/>
</g>
</g>
<g opacity="0.58">
<g opacity="0.58">
<path opacity="0.58" d="M108.162 123.867L104.28 113.28H104.457C104.633 113.28 104.81 113.104 104.986 113.104H105.163L109.221 123.691H109.044C108.691 123.867 108.515 123.867 108.162 124.044V123.867ZM104.81 113.633L108.339 123.514C108.515 123.514 108.515 123.338 108.692 123.338L104.986 113.633C104.986 113.457 104.986 113.633 104.81 113.633ZM111.515 122.632L106.751 112.398L106.927 112.222C107.103 112.045 107.28 112.045 107.456 111.869L107.633 111.692L112.573 121.926L112.397 122.103C112.221 122.279 111.868 122.279 111.691 122.456L111.515 122.632ZM107.456 112.574L111.868 122.103C112.044 122.103 112.044 121.926 112.221 121.926L107.633 112.574C107.633 112.398 107.456 112.398 107.456 112.574ZM114.867 120.868L109.397 110.986L109.574 110.81C109.75 110.634 109.927 110.634 110.103 110.457L110.28 110.281L115.926 119.985L115.75 120.162C115.573 120.338 115.22 120.515 115.044 120.515L114.867 120.868ZM109.927 111.163L115.044 120.338C115.22 120.338 115.22 120.162 115.397 120.162L110.103 111.163H109.927ZM117.867 119.103L111.691 109.751L111.868 109.575C112.044 109.398 112.221 109.398 112.397 109.222L112.573 109.045L118.926 118.397L118.749 118.574C118.573 118.75 118.22 118.927 118.043 119.103H117.867ZM112.221 109.751L118.043 118.397C118.22 118.397 118.22 118.221 118.396 118.221L112.397 109.575C112.397 109.575 112.397 109.751 112.221 109.751ZM120.867 116.986L113.809 108.163L113.985 107.987C114.161 107.81 114.338 107.634 114.514 107.634L114.691 107.457L121.749 116.28L121.572 116.456C121.572 116.456 121.396 116.633 120.867 116.986ZM114.514 108.163L121.043 116.456C121.219 116.456 121.219 116.28 121.396 116.28L114.514 108.163C114.691 107.987 114.691 107.987 114.514 108.163ZM123.69 114.515L116.102 106.222L116.279 106.046C116.455 105.869 116.632 105.693 116.808 105.693L116.985 105.516L124.748 113.633L124.572 113.81C124.219 113.986 124.043 114.163 123.69 114.515ZM116.632 106.222L123.69 113.81C123.866 113.633 123.866 113.633 124.043 113.457L116.632 106.222C116.808 106.222 116.808 106.222 116.632 106.222ZM126.337 112.045L118.043 104.281L118.22 104.105C118.396 103.928 118.573 103.752 118.573 103.576L118.749 103.399L127.219 110.986L127.042 111.163C126.866 111.339 126.689 111.692 126.337 112.045ZM118.573 104.281L126.16 111.339C126.337 111.163 126.337 111.163 126.513 110.986L118.573 104.281C118.749 104.281 118.749 104.105 118.573 104.281ZM128.63 109.222L119.808 102.164L119.984 101.987C120.161 101.811 120.161 101.635 120.337 101.458L120.514 101.282L129.513 108.163L129.336 108.34C129.16 108.693 128.983 108.869 128.63 109.222ZM120.514 102.164L128.63 108.693C128.63 108.516 128.807 108.516 128.807 108.34L120.514 102.164C120.514 102.164 120.514 101.988 120.514 102.164ZM130.924 106.222L121.572 99.8701L121.749 99.6937C121.925 99.5172 121.925 99.3408 122.102 99.1643L122.278 98.9879L131.806 105.164L131.63 105.34C131.454 105.517 131.277 105.869 131.101 106.046L130.924 106.222ZM122.102 99.8701L130.748 105.693C130.748 105.517 130.924 105.517 130.924 105.34L122.102 99.6937C122.102 99.6937 122.102 99.8701 122.102 99.8701ZM132.865 103.223L122.984 97.7527L123.16 97.5763C123.337 97.3998 123.337 97.2234 123.513 97.0469L123.69 96.8705L133.571 102.164L133.395 102.34C133.218 102.517 133.042 102.87 133.042 103.046L132.865 103.223ZM123.513 97.3998L132.689 102.517C132.689 102.34 132.865 102.34 132.865 102.164L123.69 97.2234C123.513 97.3998 123.513 97.3998 123.513 97.3998ZM134.453 99.8701L124.219 95.106L124.396 94.9295C124.572 94.7531 124.572 94.5766 124.572 94.4002V94.2237L134.983 98.8114V98.9879C134.806 99.3408 134.806 99.5172 134.63 99.6937L134.453 99.8701ZM124.748 94.9295L134.277 99.3408C134.277 99.1643 134.453 99.1643 134.453 98.9879L124.925 94.7531C124.925 94.9295 124.748 94.9295 124.748 94.9295ZM135.865 96.5176L125.278 92.6357V92.4592C125.278 92.2828 125.454 92.1063 125.454 91.9299V91.7534L136.041 95.4589V95.6353C135.865 95.8118 135.865 96.1647 135.688 96.3411L135.865 96.5176ZM125.807 92.4592L135.688 95.9882C135.688 95.8118 135.865 95.8118 135.865 95.6353L125.984 92.2828C125.807 92.2828 125.807 92.2828 125.807 92.4592ZM137.1 93.165L126.16 90.1654V89.9889C126.16 89.8125 126.337 89.636 126.337 89.2831V89.1067L137.276 91.9299V92.1063C137.276 92.4592 137.1 92.6357 137.1 92.9886V93.165ZM126.689 89.8125L136.747 92.6357C136.747 92.4592 136.747 92.4592 136.924 92.2828L126.866 89.636C126.689 89.636 126.689 89.636 126.689 89.8125ZM137.806 89.4596L126.689 87.3422V87.1657C126.689 86.9893 126.689 86.8128 126.866 86.4599V86.2835L137.982 88.2244V88.4009C137.982 88.7538 137.806 88.9302 137.806 89.2831V89.4596ZM127.395 86.9893L137.629 88.9302C137.629 88.7538 137.629 88.5773 137.629 88.5773L127.395 86.8128C127.395 86.8128 127.395 86.9893 127.395 86.9893ZM138.512 85.9306L127.219 84.6954V84.519C127.219 84.3425 127.219 84.1661 127.219 83.8132V83.6367L138.512 84.6954V84.8719C138.512 85.2248 138.512 85.4012 138.335 85.7541L138.512 85.9306ZM127.748 84.1661L138.159 85.4012C138.159 85.2248 138.159 85.0484 138.159 85.0484L127.748 83.9896C127.748 84.1661 127.748 84.1661 127.748 84.1661Z" fill="white"/>
</g>
</g>
</g>
<g opacity="0.58">
<g opacity="0.58">
<g opacity="0.58">
<path opacity="0.58" d="M46.4049 83.6293V83.4529C46.4049 82.3942 46.2285 81.3355 46.2285 80.4533C46.2285 72.1601 48.5223 64.0434 52.5807 56.9854C56.639 50.1039 62.4619 44.281 69.3434 40.3991L69.5199 40.2227L75.1663 50.1039L74.9898 50.2803C64.2264 56.4561 57.5213 68.1018 57.5213 80.6297C57.5213 81.3355 57.5213 82.0413 57.5213 82.9236V83.1L46.4049 83.6293ZM69.3434 40.752C62.6383 44.6339 56.9919 50.2803 52.9336 56.9854C48.8752 64.0434 46.5814 71.9837 46.5814 80.2768C46.5814 81.1591 46.5814 82.0413 46.5814 82.9236L56.9919 82.2178C56.9919 81.512 56.9919 80.8062 56.9919 80.1004C56.9919 67.5724 63.6971 55.9267 74.4605 49.5745L69.3434 40.752Z" fill="white"/>
</g>
</g>
<g opacity="0.58">
<g opacity="0.58">
<path opacity="0.58" d="M127.395 79.5712V79.3947C127.218 71.8073 124.571 64.5729 119.807 58.75L119.631 58.5736L128.453 51.5156L128.63 51.692C134.982 59.6323 138.335 69.1606 138.687 79.2182V79.3947L127.395 79.5712ZM120.513 58.5736C125.101 64.5729 127.748 71.6309 128.1 79.2182L138.511 78.8654C138.158 68.9842 134.806 59.8087 128.806 52.045L120.513 58.5736Z" fill="white"/>
</g>
</g>
<g opacity="0.58">
<g opacity="0.58">
<path opacity="0.58" d="M92.4578 126.686C86.6349 126.686 80.9885 125.627 75.695 123.51L75.5186 123.333L79.5769 112.746L79.7534 112.923C83.8117 114.511 88.0465 115.216 92.4578 115.216C95.4574 115.216 98.4571 114.864 101.457 113.981H101.633L104.633 124.921H104.456C100.574 126.156 96.5161 126.686 92.4578 126.686ZM76.0479 123.157C81.3414 125.098 86.8114 126.156 92.4578 126.156C96.3397 126.156 100.222 125.627 103.927 124.745L101.28 114.687C98.4571 115.393 95.4574 115.746 92.4578 115.746C88.0465 115.746 83.8117 115.04 79.7534 113.452L76.0479 123.157Z" fill="white"/>
</g>
</g>
</g>
<g opacity="0.58">
<path opacity="0.58" d="M92.4593 109.396C92.2828 109.396 92.1064 109.396 91.9299 109.396V108.866C92.1064 108.866 92.2828 108.866 92.4593 108.866H92.6357V109.396C92.6357 109.396 92.6357 109.396 92.4593 109.396ZM95.2825 109.219V108.69C95.4589 108.69 95.8118 108.69 95.9883 108.69V109.219C95.8118 109.219 95.4589 109.219 95.2825 109.219ZM89.6361 109.219C89.4596 109.219 89.1067 109.219 88.9303 109.219V108.69C89.1067 108.69 89.4596 108.69 89.6361 108.69V109.219ZM98.4585 108.69L98.2821 108.161C98.4586 108.161 98.8115 107.984 98.9879 107.984L99.1644 108.514C98.9879 108.69 98.635 108.69 98.4585 108.69ZM86.2835 108.69C86.1071 108.69 85.7542 108.514 85.5777 108.514L85.7542 107.984C85.9306 107.984 86.2835 108.161 86.46 108.161L86.2835 108.69ZM101.635 107.984L101.458 107.455C101.635 107.455 101.988 107.278 102.164 107.278L102.34 107.808C102.164 107.808 101.811 107.808 101.635 107.984ZM83.2839 107.808C83.1074 107.808 82.7545 107.631 82.5781 107.631L82.7545 107.102C82.931 107.102 83.2839 107.278 83.4603 107.278L83.2839 107.808ZM104.634 106.749L104.458 106.22C104.634 106.043 104.987 106.043 105.164 105.867L105.34 106.396C104.987 106.573 104.811 106.573 104.634 106.749ZM80.2842 106.749C80.1078 106.573 79.7549 106.573 79.5784 106.396L79.7549 105.867C79.9313 106.043 80.2842 106.043 80.4607 106.22L80.2842 106.749ZM107.458 105.161L107.281 104.808C107.457 104.632 107.634 104.632 107.987 104.455L108.34 104.808C107.81 104.985 107.634 105.161 107.458 105.161ZM77.461 105.161C77.2846 104.985 77.1081 104.985 76.7552 104.808L77.1081 104.455C77.2846 104.632 77.461 104.808 77.8139 104.808L77.461 105.161ZM110.104 103.396L109.751 103.044C109.928 102.867 110.104 102.691 110.281 102.514L110.634 102.867C110.457 103.044 110.281 103.22 110.104 103.396ZM74.8143 103.22C74.6378 103.044 74.4614 102.867 74.2849 102.691L74.6378 102.338C74.8143 102.514 74.9907 102.691 75.1672 102.867L74.8143 103.22ZM112.575 101.279L112.222 100.926C112.398 100.75 112.575 100.573 112.751 100.397L113.104 100.75C112.927 100.926 112.751 101.103 112.575 101.279ZM72.344 101.103C72.1675 100.926 71.9911 100.75 71.8147 100.573L72.1675 100.22C72.344 100.397 72.5205 100.573 72.6969 100.75L72.344 101.103ZM114.868 98.9852L114.516 98.6323C114.692 98.4559 114.868 98.2794 115.045 98.103L115.398 98.4558C115.045 98.6323 115.045 98.8088 114.868 98.9852ZM70.0502 98.8088C69.8737 98.6323 69.6972 98.4559 69.5208 98.2794L69.8737 97.9265C70.0501 98.103 70.2266 98.2794 70.403 98.4558L70.0502 98.8088ZM116.809 96.3385L116.456 95.9856C116.633 95.8091 116.809 95.6327 116.809 95.2798L117.162 95.4562C116.986 95.9856 116.809 96.162 116.809 96.3385ZM68.1092 96.162C67.9327 95.9856 67.7563 95.8091 67.7563 95.4562L68.1092 95.2798C68.2856 95.4562 68.2856 95.6327 68.4621 95.9856L68.1092 96.162ZM118.397 93.5153L118.044 93.3388C118.221 93.1624 118.221 92.9859 118.397 92.633L118.927 92.8095C118.574 93.1624 118.574 93.3388 118.397 93.5153ZM66.5212 93.3388C66.3447 93.1624 66.3447 92.8095 66.1682 92.633L66.6976 92.4566C66.874 92.633 66.874 92.9859 67.0505 93.1623L66.5212 93.3388ZM119.633 90.5156L119.103 90.3392C119.103 90.1627 119.28 89.8098 119.28 89.6334L119.809 89.8098C119.809 90.1627 119.809 90.3391 119.633 90.5156ZM65.286 90.3392C65.286 90.1627 65.1095 89.8098 65.1095 89.6334L65.6389 89.4569C65.6389 89.6334 65.8153 89.9863 65.8153 90.1627L65.286 90.3392ZM120.691 87.516L120.162 87.3395C120.162 87.1631 120.338 86.8102 120.338 86.6337L120.868 86.8102C120.691 86.9866 120.691 87.3395 120.691 87.516ZM64.4037 87.3395C64.4037 87.1631 64.2273 86.8102 64.2273 86.6337L64.7567 86.4573C64.7567 86.6337 64.9331 86.9866 64.9331 87.1631L64.4037 87.3395ZM121.221 84.3399H120.691C120.691 84.1634 120.691 83.8105 120.868 83.6341H121.397C121.397 83.8105 121.221 84.1634 121.221 84.3399ZM63.6979 84.1634C63.6979 83.987 63.6979 83.6341 63.6979 83.4576H64.2273C64.2273 83.6341 64.2273 83.987 64.2273 84.1634H63.6979ZM121.573 81.1638H121.044C121.044 80.9873 121.044 80.6344 121.044 80.458H121.573C121.573 80.6344 121.573 80.8109 121.573 81.1638ZM63.5215 80.9873C63.5215 80.8109 63.5215 80.6344 63.5215 80.458V80.2815H64.0508V80.458C64.0508 80.6344 64.0508 80.8109 64.0508 80.9873H63.5215ZM121.044 80.1051C121.044 79.9286 121.044 79.5757 121.044 79.3993H121.573C121.573 79.5757 121.573 79.9286 121.573 80.1051H121.044ZM64.0508 77.6348H63.5215C63.5215 77.4583 63.5215 77.1054 63.5215 76.929H64.0508C64.2273 77.2819 64.2273 77.4583 64.0508 77.6348ZM120.868 76.929C120.868 76.7525 120.868 76.3996 120.691 76.2232H121.221C121.221 76.3996 121.221 76.7525 121.397 76.929H120.868ZM64.5802 74.6351L64.0508 74.4587C64.0508 74.2823 64.2273 73.9293 64.2273 73.7529L64.7567 73.9293C64.7567 74.1058 64.5802 74.2822 64.5802 74.6351ZM120.338 73.7529C120.338 73.5764 120.162 73.2235 120.162 73.0471L120.691 72.8706C120.691 73.0471 120.868 73.4 120.868 73.5765L120.338 73.7529ZM65.4624 71.459L64.9331 71.2826C64.9331 71.1061 65.1095 70.7532 65.1095 70.5768L65.6389 70.7532C65.6389 71.1061 65.4624 71.2826 65.4624 71.459ZM119.456 70.7532C119.456 70.5768 119.28 70.2239 119.28 70.0475L119.809 69.871C119.985 70.0474 119.985 70.4003 119.985 70.5768L119.456 70.7532ZM66.5212 68.4594L65.9918 68.283C66.1682 68.1065 66.1682 67.7536 66.3447 67.5771L66.874 67.7536C66.6976 68.1065 66.6976 68.2829 66.5212 68.4594ZM118.044 67.7536C117.868 67.5771 117.868 67.4007 117.692 67.0478L118.044 66.8713C118.221 67.0478 118.221 67.4007 118.397 67.5771L118.044 67.7536ZM68.1092 65.6362L67.7563 65.4597C67.9327 65.2833 67.9327 65.1069 68.1092 64.754L68.4621 65.1068C68.2856 65.2833 68.1092 65.4598 68.1092 65.6362ZM116.633 64.9304C116.456 64.7539 116.28 64.5775 116.28 64.401L116.633 64.0481C116.809 64.2246 116.986 64.4011 116.986 64.754L116.633 64.9304ZM69.8737 63.1659L69.5208 62.813C69.6972 62.6365 69.8737 62.4601 70.0502 62.2836L70.403 62.6365C70.2266 62.6365 70.0501 62.813 69.8737 63.1659ZM114.692 62.4601C114.516 62.2836 114.339 62.1072 114.163 61.9307L114.516 61.5778C114.692 61.7543 114.868 61.9308 115.045 62.1072L114.692 62.4601ZM71.9911 60.6956L71.6382 60.3427C71.8146 60.1663 71.9911 59.9898 72.1675 59.8133L72.5204 60.1662C72.1675 60.3427 72.1675 60.5191 71.9911 60.6956ZM112.575 60.1662C112.398 59.9898 112.222 59.8133 112.045 59.6369L112.398 59.284C112.575 59.4604 112.751 59.6369 112.927 59.8133L112.575 60.1662ZM74.2849 58.4017L73.932 58.0488C74.1085 57.8724 74.285 57.6959 74.4614 57.5195L74.8143 57.8724C74.6378 58.2253 74.4614 58.4017 74.2849 58.4017ZM110.104 58.0488C109.928 57.8724 109.751 57.6959 109.575 57.5195L109.928 57.1666C110.104 57.343 110.281 57.5195 110.457 57.696L110.104 58.0488ZM76.7552 56.6372L76.4023 56.2843C76.5788 56.1079 76.7552 55.9315 77.1081 55.9315L77.2846 56.2843C77.1081 56.2843 76.9317 56.4608 76.7552 56.6372ZM107.634 56.1079C107.458 55.9314 107.281 55.9314 106.928 55.755L107.105 55.4021C107.281 55.5785 107.458 55.5785 107.81 55.755L107.634 56.1079ZM79.5784 55.0492L79.402 54.6963C79.5784 54.5198 79.9313 54.5198 80.1078 54.3434L80.2842 54.8727C79.9313 54.6963 79.7549 54.8728 79.5784 55.0492ZM104.811 54.6963C104.634 54.5198 104.281 54.5198 104.105 54.3434L104.281 53.814C104.458 53.9905 104.811 53.9905 104.987 54.167L104.811 54.6963ZM82.4016 53.6376L82.2252 53.1082C82.4016 53.1082 82.7545 52.9318 82.931 52.9318L83.1074 53.4611C82.931 53.4611 82.5781 53.6376 82.4016 53.6376ZM101.811 53.4611C101.635 53.4611 101.282 53.2847 101.105 53.2847L101.282 52.7553C101.458 52.7553 101.811 52.9318 101.988 52.9318L101.811 53.4611ZM85.4013 52.7553L85.2248 52.226C85.4013 52.226 85.7542 52.0495 85.9306 52.0495L86.1071 52.5789C85.9306 52.5789 85.7542 52.7553 85.4013 52.7553ZM98.8115 52.5789C98.635 52.5789 98.2821 52.4025 98.1057 52.4025L98.2821 51.8731C98.4586 51.8731 98.8115 52.0495 98.9879 52.0495L98.8115 52.5789ZM88.5774 52.0495V51.5202C88.7538 51.5202 89.1067 51.5202 89.2832 51.3438V51.8731C89.1067 52.0495 88.7538 52.0495 88.5774 52.0495ZM95.6354 52.0495C95.4589 52.0495 95.106 52.0495 94.9295 52.0495V51.5202C95.106 51.5202 95.4589 51.5202 95.6354 51.5202V52.0495ZM91.7535 51.8731V51.3438C91.9299 51.3438 92.2828 51.3438 92.4593 51.3438V51.8731C92.2828 51.8731 91.9299 51.8731 91.7535 51.8731Z" fill="white"/>
</g>
<g opacity="0.58">
<g opacity="0.58">
<path opacity="0.58" d="M122.809 39.8724L124.397 37.755C115.574 31.2263 104.634 27.168 92.6357 27.168V29.8147C103.929 29.8147 114.339 33.6966 122.809 39.8724Z" fill="white"/>
</g>
<g opacity="0.58">
<path opacity="0.58" d="M115.927 125.097L117.162 127.568C127.22 122.274 135.336 113.981 140.453 103.747L137.983 102.512C133.219 112.216 125.455 120.157 115.927 125.097Z" fill="white"/>
</g>
<g opacity="0.58">
<path opacity="0.58" d="M44.6399 96.6875L41.9932 97.5697C45.6986 108.51 52.7567 117.685 62.1085 124.214L63.6965 121.92C55.0505 115.744 48.1689 106.922 44.6399 96.6875Z" fill="white"/>
</g>
</g>
<path fill-rule="evenodd" clip-rule="evenodd" d="M19.3223 17.9062H40.4963V40.4919H19.3223V17.9062ZM20.2045 18.7885V39.6096H39.614V18.7885H20.2045Z" fill="white"/>
<defs>
<filter id="filter0_d_5_191" x="167.361" y="132.777" width="155.1" height="37.0552" filterUnits="userSpaceOnUse" color-interpolation-filters="sRGB">
<feFlood flood-opacity="0" result="BackgroundImageFix"/>
<feColorMatrix in="SourceAlpha" type="matrix" values="0 0 0 0 0 0 0 0 0 0 0 0 0 0 0 0 0 0 127 0" result="hardAlpha"/>
<feOffset/>
<feGaussianBlur stdDeviation="1.5"/>
<feComposite in2="hardAlpha" operator="out"/>
<feColorMatrix type="matrix" values="0 0 0 0 1 0 0 0 0 1 0 0 0 0 1 0 0 0 1 0"/>
<feBlend mode="normal" in2="BackgroundImageFix" result="effect1_dropShadow_5_191"/>
<feBlend mode="normal" in="SourceGraphic" in2="effect1_dropShadow_5_191" result="shape"/>
</filter>
<filter id="filter1_d_5_191" x="166.657" y="78.957" width="133.75" height="49.0537" filterUnits="userSpaceOnUse" color-interpolation-filters="sRGB">
<feFlood flood-opacity="0" result="BackgroundImageFix"/>
<feColorMatrix in="SourceAlpha" type="matrix" values="0 0 0 0 0 0 0 0 0 0 0 0 0 0 0 0 0 0 127 0" result="hardAlpha"/>
<feOffset/>
<feGaussianBlur stdDeviation="1.5"/>
<feComposite in2="hardAlpha" operator="out"/>
<feColorMatrix type="matrix" values="0 0 0 0 1 0 0 0 0 1 0 0 0 0 1 0 0 0 1 0"/>
<feBlend mode="normal" in2="BackgroundImageFix" result="effect1_dropShadow_5_191"/>
<feBlend mode="normal" in="SourceGraphic" in2="effect1_dropShadow_5_191" result="shape"/>
</filter>
<filter id="filter2_d_5_191" x="165.774" y="26.9062" width="123.869" height="49.0537" filterUnits="userSpaceOnUse" color-interpolation-filters="sRGB">
<feFlood flood-opacity="0" result="BackgroundImageFix"/>
<feColorMatrix in="SourceAlpha" type="matrix" values="0 0 0 0 0 0 0 0 0 0 0 0 0 0 0 0 0 0 127 0" result="hardAlpha"/>
<feOffset/>
<feGaussianBlur stdDeviation="1.5"/>
<feComposite in2="hardAlpha" operator="out"/>
<feColorMatrix type="matrix" values="0 0 0 0 1 0 0 0 0 1 0 0 0 0 1 0 0 0 1 0"/>
<feBlend mode="normal" in2="BackgroundImageFix" result="effect1_dropShadow_5_191"/>
<feBlend mode="normal" in="SourceGraphic" in2="effect1_dropShadow_5_191" result="shape"/>
</filter>
</defs>
</svg>
