<svg width="172" height="46" viewBox="0 0 172 46" fill="none" xmlns="http://www.w3.org/2000/svg">
<g filter="url(#filter0_d_5_891)">
<path fill-rule="evenodd" clip-rule="evenodd" d="M3 3H169V43H3V3ZM3.58327 3.59172V42.4083H168.417V3.59172H3.58327Z" fill="white"/>
</g>
<path d="M17.44 25.3503C16.7892 25.3503 16.2003 25.2143 15.6735 24.9424C15.1528 24.6644 14.7438 24.286 14.4463 23.8071C14.1488 23.3222 14 22.7783 14 22.1752C14 21.5721 14.1488 21.031 14.4463 20.5521C14.7438 20.0673 15.1559 19.6888 15.6828 19.4169C16.2096 19.139 16.7984 19 17.4493 19C17.9575 19 18.4224 19.0828 18.8438 19.2483C19.2653 19.408 19.6248 19.6474 19.9223 19.9667L19.318 20.5255C18.8283 20.0347 18.2178 19.7894 17.4864 19.7894C17.003 19.7894 16.566 19.8928 16.1755 20.0998C15.7851 20.3067 15.4783 20.5935 15.2551 20.9601C15.0382 21.3208 14.9297 21.7258 14.9297 22.1752C14.9297 22.6245 15.0382 23.0325 15.2551 23.3991C15.4783 23.7598 15.7851 24.0436 16.1755 24.2506C16.566 24.4575 17.003 24.561 17.4864 24.561C18.2116 24.561 18.8221 24.3126 19.318 23.816L19.9223 24.3747C19.6248 24.694 19.2622 24.9364 18.8345 25.102C18.4131 25.2676 17.9482 25.3503 17.44 25.3503Z" fill="white"/>
<path d="M22.9561 25.3326C22.4664 25.3326 22.0264 25.2291 21.6359 25.0222C21.2454 24.8152 20.9386 24.5314 20.7155 24.1707C20.4985 23.8041 20.3901 23.3902 20.3901 22.929C20.3901 22.4678 20.4985 22.0569 20.7155 21.6962C20.9386 21.3296 21.2454 21.0458 21.6359 20.8448C22.0264 20.6378 22.4664 20.5344 22.9561 20.5344C23.4457 20.5344 23.8827 20.6378 24.267 20.8448C24.6575 21.0458 24.9612 21.3296 25.1781 21.6962C25.4012 22.0569 25.5128 22.4678 25.5128 22.929C25.5128 23.3902 25.4012 23.8041 25.1781 24.1707C24.9612 24.5314 24.6575 24.8152 24.267 25.0222C23.8827 25.2291 23.4457 25.3326 22.9561 25.3326ZM22.9561 24.5876C23.2722 24.5876 23.5542 24.5196 23.8021 24.3836C24.0563 24.2417 24.2546 24.0466 24.3971 23.7982C24.5397 23.544 24.611 23.2543 24.611 22.929C24.611 22.6038 24.5397 22.3171 24.3971 22.0687C24.2546 21.8145 24.0563 21.6194 23.8021 21.4834C23.5542 21.3474 23.2722 21.2794 22.9561 21.2794C22.64 21.2794 22.3549 21.3474 22.1007 21.4834C21.8528 21.6194 21.6545 21.8145 21.5057 22.0687C21.3632 22.3171 21.2919 22.6038 21.2919 22.929C21.2919 23.2543 21.3632 23.544 21.5057 23.7982C21.6545 24.0466 21.8528 24.2417 22.1007 24.3836C22.3549 24.5196 22.64 24.5876 22.9561 24.5876Z" fill="white"/>
<path d="M29.4154 22.8315C29.7439 22.9143 29.9981 23.0473 30.1778 23.2306C30.3576 23.4139 30.4474 23.6415 30.4474 23.9135C30.4474 24.1914 30.3483 24.4398 30.1499 24.6585C29.9516 24.8714 29.6758 25.0399 29.3225 25.1641C28.9754 25.2823 28.5849 25.3415 28.151 25.3415C27.7853 25.3415 27.4258 25.2971 27.0726 25.2084C26.7255 25.1138 26.4156 24.9808 26.1428 24.8093L26.4125 24.1619C26.648 24.3038 26.9176 24.4161 27.2213 24.4989C27.525 24.5758 27.8318 24.6142 28.1417 24.6142C28.5632 24.6142 28.8979 24.5462 29.1458 24.4102C29.3999 24.2683 29.527 24.0791 29.527 23.8426C29.527 23.6238 29.4247 23.4553 29.2202 23.337C29.0219 23.2188 28.7398 23.1596 28.3742 23.1596H27.4723V22.5477H28.3091C28.6438 22.5477 28.9072 22.4915 29.0993 22.3792C29.2915 22.2668 29.3876 22.1131 29.3876 21.918C29.3876 21.7051 29.2729 21.5395 29.0436 21.4213C28.8204 21.303 28.5167 21.2439 28.1324 21.2439C27.6428 21.2439 27.1252 21.3651 26.5798 21.6075L26.3381 20.9512C26.9393 20.6615 27.5684 20.5166 28.2254 20.5166C28.6221 20.5166 28.9785 20.5698 29.2946 20.6763C29.6107 20.7827 29.8586 20.9335 30.0384 21.1286C30.2181 21.3237 30.308 21.5455 30.308 21.7938C30.308 22.0244 30.2274 22.2313 30.0662 22.4146C29.9051 22.5979 29.6882 22.7369 29.4154 22.8315Z" fill="white"/>
<path d="M36.8155 24.5344V26.3703H35.9787V25.2794H31.8601V26.3703H31.014V24.5344H31.2744C31.5905 24.5166 31.8074 24.3038 31.9252 23.8958C32.0429 23.4878 32.1235 22.9113 32.1669 22.1663L32.2413 20.5787H36.0624V24.5344H36.8155ZM32.9851 22.2284C32.9603 22.8197 32.9076 23.3104 32.827 23.7007C32.7526 24.085 32.6132 24.3629 32.4086 24.5344H35.1699V21.3237H33.0315L32.9851 22.2284Z" fill="white"/>
<path d="M39.7354 20.5344C40.4172 20.5344 40.9378 20.694 41.2973 21.0133C41.663 21.3326 41.8458 21.8086 41.8458 22.4412V25.2794H40.9998V24.6585C40.851 24.8773 40.6372 25.0458 40.3583 25.1641C40.0856 25.2764 39.7602 25.3326 39.3821 25.3326C38.8305 25.3326 38.3873 25.2055 38.0526 24.9512C37.7241 24.697 37.5598 24.3629 37.5598 23.949C37.5598 23.5351 37.7179 23.204 38.034 22.9557C38.3501 22.7014 38.8521 22.5743 39.5401 22.5743H40.9533V22.4058C40.9533 22.0392 40.8417 21.7583 40.6186 21.5632C40.3955 21.3681 40.067 21.2705 39.6331 21.2705C39.3418 21.2705 39.0567 21.3178 38.7778 21.4124C38.4989 21.5011 38.2633 21.6223 38.0712 21.7761L37.6993 21.1375C37.9534 20.9424 38.2571 20.7945 38.6104 20.694C38.9637 20.5876 39.3387 20.5344 39.7354 20.5344ZM39.5308 24.6763C39.8717 24.6763 40.1661 24.6053 40.4141 24.4634C40.662 24.3156 40.8417 24.1086 40.9533 23.8426V23.1863H39.5773C38.8212 23.1863 38.4431 23.4287 38.4431 23.9135C38.4431 24.15 38.5391 24.3363 38.7313 24.4723C38.9234 24.6083 39.1899 24.6763 39.5308 24.6763Z" fill="white"/>
<path d="M43.453 20.5787H44.3455V22.5743H47.1533V20.5787H48.0458V25.2794H47.1533V23.3104H44.3455V25.2794H43.453V20.5787Z" fill="white"/>
<path d="M49.7813 20.5787H50.6738V24.0022L53.6954 20.5787H54.5042V25.2794H53.6117V21.8559L50.5994 25.2794H49.7813V20.5787Z" fill="white"/>
<path d="M60.69 22.9557C60.69 23.0207 60.6838 23.1064 60.6714 23.2129H56.6736C56.7294 23.6268 56.9184 23.9608 57.2407 24.2151C57.5692 24.4634 57.9752 24.5876 58.4587 24.5876C59.0475 24.5876 59.5216 24.3984 59.8811 24.02L60.3739 24.5698C60.1507 24.8182 59.8718 25.0074 59.5371 25.1375C59.2086 25.2676 58.8398 25.3326 58.4308 25.3326C57.9101 25.3326 57.4484 25.2321 57.0455 25.031C56.6426 24.8241 56.3296 24.5373 56.1065 24.1707C55.8895 23.8041 55.7811 23.3902 55.7811 22.929C55.7811 22.4738 55.8864 22.0628 56.0972 21.6962C56.3141 21.3296 56.6085 21.0458 56.9804 20.8448C57.3585 20.6378 57.7831 20.5344 58.2541 20.5344C58.7252 20.5344 59.1435 20.6378 59.5092 20.8448C59.8811 21.0458 60.1693 21.3296 60.3739 21.6962C60.5846 22.0628 60.69 22.4826 60.69 22.9557ZM58.2541 21.2528C57.8265 21.2528 57.467 21.3769 57.1756 21.6253C56.8905 21.8736 56.7232 22.1988 56.6736 22.6009H59.8346C59.7851 22.2047 59.6146 21.8825 59.3233 21.6341C59.0382 21.3799 58.6818 21.2528 58.2541 21.2528Z" fill="white"/>
<path d="M66.4866 23.2927H65.4639V25.2794H64.5714V20.5787H65.4639V22.5654H66.5052L68.1043 20.5787H69.0619L67.1932 22.8404L69.1921 25.2794H68.1415L66.4866 23.2927Z" fill="white"/>
<path d="M72.075 25.3326C71.5853 25.3326 71.1452 25.2291 70.7547 25.0222C70.3643 24.8152 70.0575 24.5314 69.8343 24.1707C69.6174 23.8041 69.5089 23.3902 69.5089 22.929C69.5089 22.4678 69.6174 22.0569 69.8343 21.6962C70.0575 21.3296 70.3643 21.0458 70.7547 20.8448C71.1452 20.6378 71.5853 20.5344 72.075 20.5344C72.5646 20.5344 73.0016 20.6378 73.3858 20.8448C73.7763 21.0458 74.08 21.3296 74.297 21.6962C74.5201 22.0569 74.6317 22.4678 74.6317 22.929C74.6317 23.3902 74.5201 23.8041 74.297 24.1707C74.08 24.5314 73.7763 24.8152 73.3858 25.0222C73.0016 25.2291 72.5646 25.3326 72.075 25.3326ZM72.075 24.5876C72.3911 24.5876 72.6731 24.5196 72.921 24.3836C73.1751 24.2417 73.3735 24.0466 73.516 23.7982C73.6586 23.544 73.7298 23.2543 73.7298 22.929C73.7298 22.6038 73.6586 22.3171 73.516 22.0687C73.3735 21.8145 73.1751 21.6194 72.921 21.4834C72.6731 21.3474 72.3911 21.2794 72.075 21.2794C71.7588 21.2794 71.4737 21.3474 71.2196 21.4834C70.9717 21.6194 70.7733 21.8145 70.6246 22.0687C70.482 22.3171 70.4108 22.6038 70.4108 22.929C70.4108 23.2543 70.482 23.544 70.6246 23.7982C70.7733 24.0466 70.9717 24.2417 71.2196 24.3836C71.4737 24.5196 71.7588 24.5876 72.075 24.5876Z" fill="white"/>
<path d="M81.6011 20.5787V25.2794H80.7922V21.847L78.9514 24.7472H78.5609L76.7386 21.8381V25.2794H75.9205V20.5787H76.8409L78.7747 23.7539L80.7643 20.5787H81.6011Z" fill="white"/>
<path d="M87.9032 20.5787V25.2794H87.0106V21.3237H84.2308V25.2794H83.3383V20.5787H87.9032Z" fill="white"/>
<path d="M91.908 22.1752C92.534 22.1811 93.0113 22.3171 93.3398 22.5831C93.6683 22.8492 93.8325 23.2247 93.8325 23.7095C93.8325 24.218 93.6528 24.6112 93.2933 24.8891C92.94 25.1611 92.4318 25.2942 91.7686 25.2882L89.6302 25.2794V20.5787H90.5227V22.1663L91.908 22.1752ZM91.6942 24.6408C92.097 24.6467 92.4008 24.5698 92.6053 24.4102C92.816 24.2506 92.9214 24.014 92.9214 23.7007C92.9214 23.3932 92.8191 23.1685 92.6146 23.0266C92.4163 22.8847 92.1094 22.8108 91.6942 22.8049L90.5227 22.7871V24.6319L91.6942 24.6408Z" fill="white"/>
<path d="M99.3383 20.5344C99.8155 20.5344 100.243 20.6378 100.621 20.8448C100.999 21.0458 101.297 21.3296 101.514 21.6962C101.731 22.0569 101.839 22.4678 101.839 22.929C101.839 23.3902 101.731 23.8041 101.514 24.1707C101.297 24.5314 100.999 24.8152 100.621 25.0222C100.243 25.2291 99.8155 25.3326 99.3383 25.3326C98.9044 25.3326 98.5108 25.2469 98.1575 25.0754C97.8042 24.9039 97.5129 24.6644 97.2836 24.357C97.0605 24.0436 96.921 23.6888 96.8652 23.2927H95.8704V25.2794H94.9779V20.5787H95.8704V22.5033H96.8745C96.9365 22.1131 97.0791 21.7701 97.3022 21.4745C97.5315 21.1729 97.8197 20.9424 98.1668 20.7827C98.5201 20.6171 98.9106 20.5344 99.3383 20.5344ZM99.3383 24.5876C99.642 24.5876 99.9147 24.5196 100.156 24.3836C100.404 24.2476 100.6 24.0554 100.742 23.8071C100.885 23.5528 100.956 23.2602 100.956 22.929C100.956 22.6038 100.885 22.3171 100.742 22.0687C100.6 21.8145 100.404 21.6194 100.156 21.4834C99.9147 21.3474 99.642 21.2794 99.3383 21.2794C99.0346 21.2794 98.7587 21.3474 98.5108 21.4834C98.2629 21.6194 98.0677 21.8145 97.9251 22.0687C97.7887 22.3171 97.7206 22.6038 97.7206 22.929C97.7206 23.2602 97.7887 23.5528 97.9251 23.8071C98.0677 24.0554 98.2629 24.2476 98.5108 24.3836C98.7587 24.5196 99.0346 24.5876 99.3383 24.5876Z" fill="white"/>
<path d="M106.613 21.3237H104.809V25.2794H103.917V21.3237H102.113V20.5787H106.613V21.3237Z" fill="white"/>
<path d="M111.761 22.9557C111.761 23.0207 111.755 23.1064 111.742 23.2129H107.745C107.8 23.6268 107.989 23.9608 108.312 24.2151C108.64 24.4634 109.046 24.5876 109.53 24.5876C110.118 24.5876 110.593 24.3984 110.952 24.02L111.445 24.5698C111.222 24.8182 110.943 25.0074 110.608 25.1375C110.28 25.2676 109.911 25.3326 109.502 25.3326C108.981 25.3326 108.519 25.2321 108.116 25.031C107.714 24.8241 107.401 24.5373 107.177 24.1707C106.96 23.8041 106.852 23.3902 106.852 22.929C106.852 22.4738 106.957 22.0628 107.168 21.6962C107.385 21.3296 107.679 21.0458 108.051 20.8448C108.429 20.6378 108.854 20.5344 109.325 20.5344C109.796 20.5344 110.214 20.6378 110.58 20.8448C110.952 21.0458 111.24 21.3296 111.445 21.6962C111.656 22.0628 111.761 22.4826 111.761 22.9557ZM109.325 21.2528C108.897 21.2528 108.538 21.3769 108.247 21.6253C107.961 21.8736 107.794 22.1988 107.745 22.6009H110.906C110.856 22.2047 110.686 21.8825 110.394 21.6341C110.109 21.3799 109.753 21.2528 109.325 21.2528Z" fill="white"/>
<path d="M115.758 20.5344C116.235 20.5344 116.663 20.6349 117.041 20.8359C117.419 21.037 117.714 21.3178 117.924 21.6785C118.141 22.0392 118.25 22.456 118.25 22.929C118.25 23.4021 118.141 23.8219 117.924 24.1885C117.714 24.5491 117.419 24.83 117.041 25.031C116.663 25.2321 116.235 25.3326 115.758 25.3326C115.405 25.3326 115.079 25.2676 114.782 25.1375C114.491 25.0074 114.243 24.8182 114.038 24.5698V27H113.146V20.5787H114.001V21.3237C114.199 21.0636 114.45 20.8684 114.754 20.7384C115.058 20.6024 115.392 20.5344 115.758 20.5344ZM115.684 24.5876C116 24.5876 116.282 24.5196 116.53 24.3836C116.784 24.2417 116.982 24.0466 117.125 23.7982C117.273 23.544 117.348 23.2543 117.348 22.929C117.348 22.6038 117.273 22.3171 117.125 22.0687C116.982 21.8145 116.784 21.6194 116.53 21.4834C116.282 21.3474 116 21.2794 115.684 21.2794C115.374 21.2794 115.092 21.3503 114.838 21.4922C114.59 21.6282 114.391 21.8204 114.243 22.0687C114.1 22.3171 114.029 22.6038 114.029 22.929C114.029 23.2543 114.1 23.544 114.243 23.7982C114.385 24.0466 114.583 24.2417 114.838 24.3836C115.092 24.5196 115.374 24.5876 115.684 24.5876Z" fill="white"/>
<path d="M119.546 20.5787H120.439V22.5743H123.247V20.5787H124.139V25.2794H123.247V23.3104H120.439V25.2794H119.546V20.5787Z" fill="white"/>
<path d="M128.097 22.1752C128.716 22.1811 129.191 22.3171 129.519 22.5831C129.848 22.8492 130.012 23.2247 130.012 23.7095C130.012 24.218 129.832 24.6112 129.473 24.8891C129.119 25.1611 128.611 25.2942 127.948 25.2882L125.875 25.2794V20.5787H126.767V22.1663L128.097 22.1752ZM130.746 20.5787H131.639V25.2794H130.746V20.5787ZM127.883 24.6408C128.286 24.6467 128.589 24.5698 128.794 24.4102C129.005 24.2506 129.11 24.014 129.11 23.7007C129.11 23.3932 129.008 23.1685 128.803 23.0266C128.599 22.8847 128.292 22.8108 127.883 22.8049L126.767 22.7871V24.6319L127.883 24.6408Z" fill="white"/>
<path d="M136.451 25.2794L135.029 23.4789L133.588 25.2794H132.593L134.536 22.8758L132.686 20.5787H133.681L135.038 22.2727L136.386 20.5787H137.363L135.503 22.8758L137.465 25.2794H136.451Z" fill="white"/>
<path d="M140.901 20.5787H141.793V24.0022L144.815 20.5787H145.624V25.2794H144.731V21.8559L141.719 25.2794H140.901V20.5787Z" fill="white"/>
<path d="M150.982 21.3237H148.249V25.2794H147.356V20.5787H150.982V21.3237Z" fill="white"/>
<path d="M154.508 20.5344C154.986 20.5344 155.413 20.6349 155.791 20.8359C156.169 21.037 156.464 21.3178 156.675 21.6785C156.892 22.0392 157 22.456 157 22.929C157 23.4021 156.892 23.8219 156.675 24.1885C156.464 24.5491 156.169 24.83 155.791 25.031C155.413 25.2321 154.986 25.3326 154.508 25.3326C154.155 25.3326 153.83 25.2676 153.532 25.1375C153.241 25.0074 152.993 24.8182 152.788 24.5698V27H151.896V20.5787H152.751V21.3237C152.95 21.0636 153.201 20.8684 153.504 20.7384C153.808 20.6024 154.143 20.5344 154.508 20.5344ZM154.434 24.5876C154.75 24.5876 155.032 24.5196 155.28 24.3836C155.534 24.2417 155.732 24.0466 155.875 23.7982C156.024 23.544 156.098 23.2543 156.098 22.929C156.098 22.6038 156.024 22.3171 155.875 22.0687C155.732 21.8145 155.534 21.6194 155.28 21.4834C155.032 21.3474 154.75 21.2794 154.434 21.2794C154.124 21.2794 153.842 21.3503 153.588 21.4922C153.34 21.6282 153.142 21.8204 152.993 22.0687C152.85 22.3171 152.779 22.6038 152.779 22.929C152.779 23.2543 152.85 23.544 152.993 23.7982C153.135 24.0466 153.334 24.2417 153.588 24.3836C153.842 24.5196 154.124 24.5876 154.434 24.5876Z" fill="white"/>
<defs>
<filter id="filter0_d_5_891" x="0" y="0" width="172" height="46" filterUnits="userSpaceOnUse" color-interpolation-filters="sRGB">
<feFlood flood-opacity="0" result="BackgroundImageFix"/>
<feColorMatrix in="SourceAlpha" type="matrix" values="0 0 0 0 0 0 0 0 0 0 0 0 0 0 0 0 0 0 127 0" result="hardAlpha"/>
<feOffset/>
<feGaussianBlur stdDeviation="1.5"/>
<feComposite in2="hardAlpha" operator="out"/>
<feColorMatrix type="matrix" values="0 0 0 0 1 0 0 0 0 1 0 0 0 0 1 0 0 0 1 0"/>
<feBlend mode="normal" in2="BackgroundImageFix" result="effect1_dropShadow_5_891"/>
<feBlend mode="normal" in="SourceGraphic" in2="effect1_dropShadow_5_891" result="shape"/>
</filter>
</defs>
</svg>
