<svg width="198" height="52" viewBox="0 0 198 52" fill="none" xmlns="http://www.w3.org/2000/svg">
<g filter="url(#filter0_d_5_883)">
<path fill-rule="evenodd" clip-rule="evenodd" d="M3 3H194.303V48.4394H3V3ZM3.67218 3.67218V47.7672H193.63V3.67218H3.67218Z" fill="white"/>
</g>
<path d="M19.9687 28.9134C19.2207 28.9134 18.5438 28.7496 17.9383 28.4218C17.3398 28.087 16.8696 27.631 16.5276 27.0539C16.1856 26.4697 16.0146 25.8143 16.0146 25.0876C16.0146 24.3609 16.1856 23.709 16.5276 23.1319C16.8696 22.5477 17.3434 22.0917 17.9489 21.764C18.5545 21.4291 19.2314 21.2617 19.9794 21.2617C20.5636 21.2617 21.098 21.3615 21.5824 21.5609C22.0669 21.7533 22.4801 22.0418 22.8221 22.4266L22.1275 23.0998C21.5646 22.5085 20.8629 22.2128 20.0222 22.2128C19.4665 22.2128 18.9642 22.3375 18.5153 22.5869C18.0665 22.8362 17.7138 23.1818 17.4574 23.6235C17.208 24.0581 17.0833 24.5461 17.0833 25.0876C17.0833 25.629 17.208 26.1206 17.4574 26.5623C17.7138 26.9969 18.0665 27.3389 18.5153 27.5883C18.9642 27.8376 19.4665 27.9623 20.0222 27.9623C20.8557 27.9623 21.5575 27.6631 22.1275 27.0646L22.8221 27.7379C22.4801 28.1226 22.0633 28.4147 21.5718 28.6142C21.0873 28.8137 20.5529 28.9134 19.9687 28.9134Z" fill="white"/>
<path d="M26.3093 28.892C25.7465 28.892 25.2406 28.7674 24.7918 28.518C24.343 28.2687 23.9903 27.9267 23.7338 27.4921C23.4845 27.0504 23.3598 26.5517 23.3598 25.9959C23.3598 25.4402 23.4845 24.9451 23.7338 24.5105C23.9903 24.0688 24.343 23.7268 24.7918 23.4846C25.2406 23.2352 25.7465 23.1105 26.3093 23.1105C26.8721 23.1105 27.3744 23.2352 27.8161 23.4846C28.265 23.7268 28.6141 24.0688 28.8634 24.5105C29.1199 24.9451 29.2482 25.4402 29.2482 25.9959C29.2482 26.5517 29.1199 27.0504 28.8634 27.4921C28.6141 27.9267 28.265 28.2687 27.8161 28.518C27.3744 28.7674 26.8721 28.892 26.3093 28.892ZM26.3093 27.9944C26.6727 27.9944 26.9968 27.9124 27.2818 27.7486C27.5739 27.5776 27.8019 27.3425 27.9658 27.0432C28.1296 26.7369 28.2116 26.3878 28.2116 25.9959C28.2116 25.6041 28.1296 25.2586 27.9658 24.9593C27.8019 24.653 27.5739 24.4179 27.2818 24.254C26.9968 24.0901 26.6727 24.0082 26.3093 24.0082C25.946 24.0082 25.6182 24.0901 25.3261 24.254C25.0412 24.4179 24.8132 24.653 24.6422 24.9593C24.4783 25.2586 24.3964 25.6041 24.3964 25.9959C24.3964 26.3878 24.4783 26.7369 24.6422 27.0432C24.8132 27.3425 25.0412 27.5776 25.3261 27.7486C25.6182 27.9124 25.946 27.9944 26.3093 27.9944Z" fill="white"/>
<path d="M33.7341 25.8784C34.1117 25.9781 34.4038 26.1384 34.6104 26.3593C34.817 26.5801 34.9203 26.8544 34.9203 27.1822C34.9203 27.517 34.8063 27.8162 34.5783 28.0799C34.3504 28.3363 34.0333 28.5394 33.6272 28.689C33.2282 28.8315 32.7794 28.9027 32.2807 28.9027C31.8603 28.9027 31.4471 28.8493 31.041 28.7424C30.6421 28.6284 30.2858 28.4681 29.9724 28.2615L30.2823 27.4814C30.553 27.6524 30.8629 27.7878 31.212 27.8875C31.5611 27.9801 31.9138 28.0264 32.27 28.0264C32.7545 28.0264 33.1392 27.9445 33.4242 27.7806C33.7163 27.6096 33.8623 27.3817 33.8623 27.0967C33.8623 26.8331 33.7448 26.63 33.5097 26.4875C33.2817 26.345 32.9575 26.2738 32.5372 26.2738H31.5006V25.5364H32.4624C32.8471 25.5364 33.1499 25.4687 33.3707 25.3334C33.5916 25.198 33.702 25.0128 33.702 24.7777C33.702 24.5212 33.5702 24.3217 33.3066 24.1792C33.0501 24.0367 32.701 23.9655 32.2593 23.9655C31.6965 23.9655 31.1016 24.1115 30.4746 24.4036L30.1968 23.6128C30.8879 23.2637 31.611 23.0891 32.3662 23.0891C32.8222 23.0891 33.2318 23.1533 33.5952 23.2815C33.9585 23.4098 34.2435 23.5914 34.4501 23.8265C34.6567 24.0616 34.76 24.3288 34.76 24.628C34.76 24.9059 34.6674 25.1553 34.4822 25.3761C34.2969 25.597 34.0476 25.7644 33.7341 25.8784Z" fill="white"/>
<path d="M42.2401 27.9302V30.1424H41.2783V28.8279H36.5441V30.1424H35.5716V27.9302H35.8708C36.2342 27.9089 36.4836 27.6524 36.6189 27.1608C36.7543 26.6692 36.8469 25.9746 36.8968 25.0769L36.9823 23.164H41.3745V27.9302H42.2401ZM37.8372 25.1517C37.8087 25.8641 37.7481 26.4555 37.6555 26.9257C37.57 27.3888 37.4097 27.7236 37.1746 27.9302H40.3486V24.0616H37.8906L37.8372 25.1517Z" fill="white"/>
<path d="M45.5964 23.1105C46.3801 23.1105 46.9786 23.3029 47.3918 23.6876C47.8122 24.0723 48.0223 24.6459 48.0223 25.4082V28.8279H47.0498V28.0799C46.8789 28.3435 46.6331 28.5465 46.3125 28.689C45.999 28.8244 45.6249 28.892 45.1903 28.892C44.5563 28.892 44.0469 28.7389 43.6621 28.4325C43.2845 28.1262 43.0957 27.7236 43.0957 27.2249C43.0957 26.7262 43.2774 26.3272 43.6408 26.028C44.0041 25.7216 44.5812 25.5685 45.372 25.5685H46.9964V25.3654C46.9964 24.9237 46.8682 24.5853 46.6117 24.3502C46.3552 24.1151 45.9776 23.9975 45.4789 23.9975C45.144 23.9975 44.8163 24.0545 44.4957 24.1685C44.1751 24.2754 43.9044 24.4214 43.6835 24.6067L43.2561 23.8372C43.5482 23.6021 43.8973 23.424 44.3033 23.3029C44.7094 23.1746 45.1405 23.1105 45.5964 23.1105ZM45.3613 28.1012C45.7532 28.1012 46.0916 28.0157 46.3766 27.8447C46.6616 27.6666 46.8682 27.4173 46.9964 27.0967V26.3059H45.4148C44.5456 26.3059 44.111 26.598 44.111 27.1822C44.111 27.4671 44.2214 27.6916 44.4423 27.8554C44.6631 28.0193 44.9695 28.1012 45.3613 28.1012Z" fill="white"/>
<path d="M49.8697 23.164H50.8956V25.5685H54.123V23.164H55.149V28.8279H54.123V26.4555H50.8956V28.8279H49.8697V23.164Z" fill="white"/>
<path d="M57.1438 23.164H58.1697V27.289L61.6429 23.164H62.5727V28.8279H61.5467V24.7028L58.0842 28.8279H57.1438V23.164Z" fill="white"/>
<path d="M69.6829 26.028C69.6829 26.1064 69.6758 26.2097 69.6615 26.3379H65.0663C65.1304 26.8366 65.3477 27.2392 65.7181 27.5455C66.0957 27.8447 66.5624 27.9944 67.1181 27.9944C67.7949 27.9944 68.34 27.7664 68.7532 27.3104L69.3196 27.973C69.0631 28.2722 68.7425 28.5002 68.3578 28.6569C67.9802 28.8137 67.5563 28.892 67.086 28.892C66.4876 28.892 65.9568 28.7709 65.4937 28.5287C65.0306 28.2793 64.6708 27.9338 64.4144 27.4921C64.165 27.0504 64.0403 26.5517 64.0403 25.9959C64.0403 25.4474 64.1614 24.9522 64.4037 24.5105C64.653 24.0688 64.9914 23.7268 65.4189 23.4846C65.8535 23.2352 66.3415 23.1105 66.883 23.1105C67.4245 23.1105 67.9054 23.2352 68.3257 23.4846C68.7532 23.7268 69.0845 24.0688 69.3196 24.5105C69.5618 24.9522 69.6829 25.458 69.6829 26.028ZM66.883 23.9761C66.3914 23.9761 65.9782 24.1258 65.6433 24.425C65.3156 24.7242 65.1232 25.1161 65.0663 25.6005H68.6997C68.6427 25.1232 68.4468 24.7349 68.112 24.4357C67.7842 24.1293 67.3746 23.9761 66.883 23.9761Z" fill="white"/>
<path d="M76.3459 26.4341H75.1704V28.8279H74.1445V23.164H75.1704V25.5578H76.3673L78.2054 23.164H79.3062L77.1581 25.8891L79.4558 28.8279H78.2482L76.3459 26.4341Z" fill="white"/>
<path d="M82.7695 28.892C82.2067 28.892 81.7008 28.7674 81.252 28.518C80.8031 28.2687 80.4505 27.9267 80.194 27.4921C79.9446 27.0504 79.82 26.5517 79.82 25.9959C79.82 25.4402 79.9446 24.9451 80.194 24.5105C80.4505 24.0688 80.8031 23.7268 81.252 23.4846C81.7008 23.2352 82.2067 23.1105 82.7695 23.1105C83.3323 23.1105 83.8346 23.2352 84.2763 23.4846C84.7252 23.7268 85.0743 24.0688 85.3236 24.5105C85.5801 24.9451 85.7083 25.4402 85.7083 25.9959C85.7083 26.5517 85.5801 27.0504 85.3236 27.4921C85.0743 27.9267 84.7252 28.2687 84.2763 28.518C83.8346 28.7674 83.3323 28.892 82.7695 28.892ZM82.7695 27.9944C83.1328 27.9944 83.457 27.9124 83.742 27.7486C84.0341 27.5776 84.2621 27.3425 84.4259 27.0432C84.5898 26.7369 84.6717 26.3878 84.6717 25.9959C84.6717 25.6041 84.5898 25.2586 84.4259 24.9593C84.2621 24.653 84.0341 24.4179 83.742 24.254C83.457 24.0901 83.1328 24.0082 82.7695 24.0082C82.4061 24.0082 82.0784 24.0901 81.7863 24.254C81.5013 24.4179 81.2733 24.653 81.1024 24.9593C80.9385 25.2586 80.8566 25.6041 80.8566 25.9959C80.8566 26.3878 80.9385 26.7369 81.1024 27.0432C81.2733 27.3425 81.5013 27.5776 81.7863 27.7486C82.0784 27.9124 82.4061 27.9944 82.7695 27.9944Z" fill="white"/>
<path d="M93.7194 23.164V28.8279H92.7896V24.6922L90.6737 28.1867H90.2248L88.1302 24.6815V28.8279H87.1898V23.164H88.2478L90.4706 26.9898L92.7576 23.164H93.7194Z" fill="white"/>
<path d="M100.963 23.164V28.8279H99.9375V24.0616H96.7421V28.8279H95.7162V23.164H100.963Z" fill="white"/>
<path d="M105.567 25.0876C106.286 25.0947 106.835 25.2586 107.213 25.5792C107.59 25.8998 107.779 26.3522 107.779 26.9364C107.779 27.5491 107.572 28.0229 107.159 28.3577C106.753 28.6854 106.169 28.8457 105.407 28.8386L102.949 28.8279V23.164H103.974V25.0769L105.567 25.0876ZM105.321 28.0585C105.784 28.0656 106.133 27.973 106.368 27.7806C106.611 27.5883 106.732 27.3033 106.732 26.9257C106.732 26.5552 106.614 26.2845 106.379 26.1135C106.151 25.9425 105.798 25.8535 105.321 25.8463L103.974 25.825V28.0478L105.321 28.0585Z" fill="white"/>
<path d="M114.108 23.1105C114.656 23.1105 115.148 23.2352 115.582 23.4846C116.017 23.7268 116.359 24.0688 116.608 24.5105C116.858 24.9451 116.982 25.4402 116.982 25.9959C116.982 26.5517 116.858 27.0504 116.608 27.4921C116.359 27.9267 116.017 28.2687 115.582 28.518C115.148 28.7674 114.656 28.892 114.108 28.892C113.609 28.892 113.156 28.7887 112.75 28.5821C112.344 28.3755 112.009 28.087 111.746 27.7165C111.489 27.3389 111.329 26.9114 111.265 26.4341H110.121V28.8279H109.096V23.164H110.121V25.483H111.276C111.347 25.0128 111.511 24.5995 111.767 24.2433C112.031 23.88 112.362 23.6021 112.761 23.4098C113.167 23.2103 113.616 23.1105 114.108 23.1105ZM114.108 27.9944C114.457 27.9944 114.77 27.9124 115.048 27.7486C115.333 27.5847 115.557 27.3532 115.721 27.0539C115.885 26.7476 115.967 26.3949 115.967 25.9959C115.967 25.6041 115.885 25.2586 115.721 24.9593C115.557 24.653 115.333 24.4179 115.048 24.254C114.77 24.0901 114.457 24.0082 114.108 24.0082C113.758 24.0082 113.441 24.0901 113.156 24.254C112.871 24.4179 112.647 24.653 112.483 24.9593C112.326 25.2586 112.248 25.6041 112.248 25.9959C112.248 26.3949 112.326 26.7476 112.483 27.0539C112.647 27.3532 112.871 27.5847 113.156 27.7486C113.441 27.9124 113.758 27.9944 114.108 27.9944Z" fill="white"/>
<path d="M122.469 24.0616H120.396V28.8279H119.37V24.0616H117.297V23.164H122.469V24.0616Z" fill="white"/>
<path d="M128.387 26.028C128.387 26.1064 128.38 26.2097 128.366 26.3379H123.77C123.834 26.8366 124.052 27.2392 124.422 27.5455C124.8 27.8447 125.266 27.9944 125.822 27.9944C126.499 27.9944 127.044 27.7664 127.457 27.3104L128.024 27.973C127.767 28.2722 127.446 28.5002 127.062 28.6569C126.684 28.8137 126.26 28.892 125.79 28.892C125.192 28.892 124.661 28.7709 124.198 28.5287C123.735 28.2793 123.375 27.9338 123.118 27.4921C122.869 27.0504 122.744 26.5517 122.744 25.9959C122.744 25.4474 122.865 24.9522 123.108 24.5105C123.357 24.0688 123.695 23.7268 124.123 23.4846C124.557 23.2352 125.046 23.1105 125.587 23.1105C126.128 23.1105 126.609 23.2352 127.03 23.4846C127.457 23.7268 127.788 24.0688 128.024 24.5105C128.266 24.9522 128.387 25.458 128.387 26.028ZM125.587 23.9761C125.095 23.9761 124.682 24.1258 124.347 24.425C124.02 24.7242 123.827 25.1161 123.77 25.6005H127.404C127.347 25.1232 127.151 24.7349 126.816 24.4357C126.488 24.1293 126.079 23.9761 125.587 23.9761Z" fill="white"/>
<path d="M132.981 23.1105C133.53 23.1105 134.022 23.2316 134.456 23.4739C134.891 23.7161 135.229 24.0545 135.471 24.4891C135.721 24.9237 135.845 25.426 135.845 25.9959C135.845 26.5659 135.721 27.0717 135.471 27.5135C135.229 27.9481 134.891 28.2865 134.456 28.5287C134.022 28.7709 133.53 28.892 132.981 28.892C132.575 28.892 132.201 28.8137 131.859 28.6569C131.524 28.5002 131.24 28.2722 131.004 27.973V30.9012H129.978V23.164H130.962V24.0616C131.19 23.7482 131.478 23.5131 131.827 23.3563C132.176 23.1925 132.561 23.1105 132.981 23.1105ZM132.896 27.9944C133.259 27.9944 133.583 27.9124 133.868 27.7486C134.161 27.5776 134.389 27.3425 134.552 27.0432C134.723 26.7369 134.809 26.3878 134.809 25.9959C134.809 25.6041 134.723 25.2586 134.552 24.9593C134.389 24.653 134.161 24.4179 133.868 24.254C133.583 24.0901 133.259 24.0082 132.896 24.0082C132.54 24.0082 132.216 24.0937 131.923 24.2647C131.638 24.4286 131.41 24.6601 131.24 24.9593C131.076 25.2586 130.994 25.6041 130.994 25.9959C130.994 26.3878 131.076 26.7369 131.24 27.0432C131.403 27.3425 131.631 27.5776 131.923 27.7486C132.216 27.9124 132.54 27.9944 132.896 27.9944Z" fill="white"/>
<path d="M137.336 23.164H138.362V25.5685H141.589V23.164H142.615V28.8279H141.589V26.4555H138.362V28.8279H137.336V23.164Z" fill="white"/>
<path d="M147.164 25.0876C147.877 25.0947 148.422 25.2586 148.799 25.5792C149.177 25.8998 149.366 26.3522 149.366 26.9364C149.366 27.5491 149.159 28.0229 148.746 28.3577C148.34 28.6854 147.756 28.8457 146.993 28.8386L144.61 28.8279V23.164H145.636V25.0769L147.164 25.0876ZM150.21 23.164H151.236V28.8279H150.21V23.164ZM146.918 28.0585C147.382 28.0656 147.731 27.973 147.966 27.7806C148.208 27.5883 148.329 27.3033 148.329 26.9257C148.329 26.5552 148.212 26.2845 147.976 26.1135C147.741 25.9425 147.389 25.8535 146.918 25.8463L145.636 25.825V28.0478L146.918 28.0585Z" fill="white"/>
<path d="M156.768 28.8279L155.133 26.6585L153.476 28.8279H152.333L154.566 25.9318L152.44 23.164H153.583L155.143 25.2051L156.693 23.164H157.815L155.678 25.9318L157.933 28.8279H156.768Z" fill="white"/>
<path d="M161.882 23.164H162.908V27.289L166.381 23.164H167.311V28.8279H166.285V24.7028L162.823 28.8279H161.882V23.164Z" fill="white"/>
<path d="M173.47 24.0616H170.328V28.8279H169.302V23.164H173.47V24.0616Z" fill="white"/>
<path d="M177.523 23.1105C178.072 23.1105 178.564 23.2316 178.998 23.4739C179.433 23.7161 179.771 24.0545 180.013 24.4891C180.263 24.9237 180.387 25.426 180.387 25.9959C180.387 26.5659 180.263 27.0717 180.013 27.5135C179.771 27.9481 179.433 28.2865 178.998 28.5287C178.564 28.7709 178.072 28.892 177.523 28.892C177.117 28.892 176.743 28.8137 176.401 28.6569C176.066 28.5002 175.781 28.2722 175.546 27.973V30.9012H174.52V23.164H175.504V24.0616C175.732 23.7482 176.02 23.5131 176.369 23.3563C176.718 23.1925 177.103 23.1105 177.523 23.1105ZM177.438 27.9944C177.801 27.9944 178.125 27.9124 178.41 27.7486C178.703 27.5776 178.93 27.3425 179.094 27.0432C179.265 26.7369 179.351 26.3878 179.351 25.9959C179.351 25.6041 179.265 25.2586 179.094 24.9593C178.93 24.653 178.703 24.4179 178.41 24.254C178.125 24.0901 177.801 24.0082 177.438 24.0082C177.082 24.0082 176.758 24.0937 176.465 24.2647C176.18 24.4286 175.952 24.6601 175.781 24.9593C175.618 25.2586 175.536 25.6041 175.536 25.9959C175.536 26.3878 175.618 26.7369 175.781 27.0432C175.945 27.3425 176.173 27.5776 176.465 27.7486C176.758 27.9124 177.082 27.9944 177.438 27.9944Z" fill="white"/>
<defs>
<filter id="filter0_d_5_883" x="0" y="0" width="197.303" height="51.4395" filterUnits="userSpaceOnUse" color-interpolation-filters="sRGB">
<feFlood flood-opacity="0" result="BackgroundImageFix"/>
<feColorMatrix in="SourceAlpha" type="matrix" values="0 0 0 0 0 0 0 0 0 0 0 0 0 0 0 0 0 0 127 0" result="hardAlpha"/>
<feOffset/>
<feGaussianBlur stdDeviation="1.5"/>
<feComposite in2="hardAlpha" operator="out"/>
<feColorMatrix type="matrix" values="0 0 0 0 1 0 0 0 0 1 0 0 0 0 1 0 0 0 1 0"/>
<feBlend mode="normal" in2="BackgroundImageFix" result="effect1_dropShadow_5_883"/>
<feBlend mode="normal" in="SourceGraphic" in2="effect1_dropShadow_5_883" result="shape"/>
</filter>
</defs>
</svg>
