<svg width="829" height="122" viewBox="0 0 829 122" fill="none" xmlns="http://www.w3.org/2000/svg">
<g opacity="0.06">
<path d="M92.5897 0V101.065H69.2246V19.058H23.3651V101.065H0V0H92.5897Z" fill="#00093C"/>
<path d="M207.622 0V101.065H184.402V19.058H149.572L148.846 40.1373C148.362 54.4789 147.201 66.1254 145.363 75.0769C143.525 83.9321 140.429 90.7661 136.075 95.5787C131.818 100.295 125.82 102.653 118.08 102.653C114.887 102.653 111.017 102.124 106.47 101.065L107.921 81.2852C109.179 81.6702 110.581 81.8627 112.129 81.8627C117.741 81.8627 121.659 78.5901 123.885 72.045C126.11 65.4035 127.513 55.0564 128.093 41.0036L129.544 0H207.622Z" fill="#00093C"/>
<path d="M301.783 79.4083H254.617L245.619 101.065H221.529L266.808 0H290.028L335.452 101.065H310.78L301.783 79.4083ZM294.381 61.6497L278.272 22.9562L262.164 61.6497H294.381Z" fill="#00093C"/>
<path d="M442.094 0V101.065H418.583V59.6284H372.434V101.065H348.923V0H372.434V39.8485H418.583V0H442.094Z" fill="#00093C"/>
<path d="M613.426 82.0071V122H591.657V101.065H519.966V122H498.197L498.342 82.0071H502.405C508.501 81.8146 512.806 77.387 515.322 68.7243C517.837 60.0615 519.385 47.6931 519.966 31.6189L521.127 0H599.204V82.0071H613.426ZM540.718 33.7846C540.235 45.8162 539.219 55.9227 537.671 64.1041C536.123 72.1894 533.752 78.157 530.56 82.0071H575.984V19.058H541.154L540.718 33.7846Z" fill="#00093C"/>
<path d="M722.423 0V101.065H698.913V59.6284H652.763V101.065H629.253V0H652.763V39.8485H698.913V0H722.423Z" fill="#00093C"/>
<path d="M829 0V101.065H805.78V74.2106H784.302L766.306 101.065H741.49L762.678 70.6012C755.809 67.8099 750.536 63.6229 746.859 58.0402C743.183 52.3613 741.344 45.5755 741.344 37.6828C741.344 29.8864 743.134 23.1968 746.714 17.6142C750.294 11.9353 755.373 7.60395 761.952 4.62012C768.531 1.54004 776.271 0 785.172 0H829ZM785.753 19.058C779.077 19.058 773.949 20.598 770.37 23.6781C766.887 26.7582 765.145 31.3302 765.145 37.3941C765.145 43.2655 766.838 47.7893 770.224 50.9657C773.611 54.142 778.593 55.7302 785.172 55.7302H805.78V19.058H785.753Z" fill="#00093C"/>
</g>
</svg>
