<svg width="183" height="45" viewBox="0 0 183 45" fill="none" xmlns="http://www.w3.org/2000/svg">
<g filter="url(#filter0_d_5_879)">
<path fill-rule="evenodd" clip-rule="evenodd" d="M3 3H180V42H3V3ZM3.80236 3.79918V41.2008H179.198V3.79918H3.80236Z" fill="white"/>
</g>
<path d="M21.9554 17V27.179H20.5V18.2651H14.4703V27.179H13V17H21.9554Z" fill="white"/>
<path d="M29.1329 19.3993C29.8953 19.3993 30.5784 19.5641 31.1824 19.8937C31.7864 20.2233 32.2567 20.6838 32.5933 21.2752C32.9398 21.8665 33.1131 22.55 33.1131 23.3255C33.1131 24.101 32.9398 24.7893 32.5933 25.3904C32.2567 25.9817 31.7864 26.4422 31.1824 26.7718C30.5784 27.1014 29.8953 27.2662 29.1329 27.2662C28.5686 27.2662 28.0488 27.1596 27.5735 26.9463C27.1082 26.733 26.7121 26.4228 26.3854 26.0157V30H24.9597V19.472H26.326V20.6935C26.6428 20.267 27.0438 19.9471 27.529 19.7338C28.0141 19.5108 28.5488 19.3993 29.1329 19.3993ZM29.0141 26.0447C29.519 26.0447 29.9695 25.9333 30.3656 25.7103C30.7715 25.4776 31.0883 25.1577 31.3161 24.7506C31.5537 24.3337 31.6725 23.8587 31.6725 23.3255C31.6725 22.7923 31.5537 22.3221 31.3161 21.915C31.0883 21.4981 30.7715 21.1782 30.3656 20.9553C29.9695 20.7323 29.519 20.6208 29.0141 20.6208C28.519 20.6208 28.0686 20.7371 27.6626 20.9698C27.2666 21.1928 26.9498 21.5078 26.7121 21.915C26.4844 22.3221 26.3705 22.7923 26.3705 23.3255C26.3705 23.8587 26.4844 24.3337 26.7121 24.7506C26.9399 25.1577 27.2567 25.4776 27.6626 25.7103C28.0686 25.9333 28.519 26.0447 29.0141 26.0447Z" fill="white"/>
<path d="M38.5558 27.2662C37.7736 27.2662 37.0706 27.0966 36.4469 26.7573C35.8231 26.418 35.333 25.9526 34.9766 25.3613C34.6301 24.7603 34.4568 24.0817 34.4568 23.3255C34.4568 22.5694 34.6301 21.8956 34.9766 21.3043C35.333 20.7032 35.8231 20.2379 36.4469 19.9083C37.0706 19.569 37.7736 19.3993 38.5558 19.3993C39.3379 19.3993 40.036 19.569 40.6498 19.9083C41.2736 20.2379 41.7587 20.7032 42.1053 21.3043C42.4617 21.8956 42.6399 22.5694 42.6399 23.3255C42.6399 24.0817 42.4617 24.7603 42.1053 25.3613C41.7587 25.9526 41.2736 26.418 40.6498 26.7573C40.036 27.0966 39.3379 27.2662 38.5558 27.2662ZM38.5558 26.0447C39.0607 26.0447 39.5112 25.9333 39.9072 25.7103C40.3132 25.4776 40.63 25.1577 40.8577 24.7506C41.0855 24.3337 41.1993 23.8587 41.1993 23.3255C41.1993 22.7923 41.0855 22.3221 40.8577 21.915C40.63 21.4981 40.3132 21.1782 39.9072 20.9553C39.5112 20.7323 39.0607 20.6208 38.5558 20.6208C38.0508 20.6208 37.5954 20.7323 37.1894 20.9553C36.7934 21.1782 36.4766 21.4981 36.239 21.915C36.0112 22.3221 35.8974 22.7923 35.8974 23.3255C35.8974 23.8587 36.0112 24.3337 36.239 24.7506C36.4766 25.1577 36.7934 25.4776 37.1894 25.7103C37.5954 25.9333 38.0508 26.0447 38.5558 26.0447Z" fill="white"/>
<path d="M50.4907 20.6935H46.1244V27.179H44.6987V19.472H50.4907V20.6935Z" fill="white"/>
<path d="M56.1236 19.3993C56.8859 19.3993 57.5691 19.5641 58.1731 19.8937C58.777 20.2233 59.2473 20.6838 59.584 21.2752C59.9305 21.8665 60.1037 22.55 60.1037 23.3255C60.1037 24.101 59.9305 24.7893 59.584 25.3904C59.2473 25.9817 58.777 26.4422 58.1731 26.7718C57.5691 27.1014 56.8859 27.2662 56.1236 27.2662C55.5592 27.2662 55.0394 27.1596 54.5642 26.9463C54.0988 26.733 53.7028 26.4228 53.3761 26.0157V30H51.9503V19.472H53.3167V20.6935C53.6335 20.267 54.0345 19.9471 54.5196 19.7338C55.0048 19.5108 55.5394 19.3993 56.1236 19.3993ZM56.0048 26.0447C56.5097 26.0447 56.9602 25.9333 57.3562 25.7103C57.7622 25.4776 58.079 25.1577 58.3067 24.7506C58.5444 24.3337 58.6632 23.8587 58.6632 23.3255C58.6632 22.7923 58.5444 22.3221 58.3067 21.915C58.079 21.4981 57.7622 21.1782 57.3562 20.9553C56.9602 20.7323 56.5097 20.6208 56.0048 20.6208C55.5097 20.6208 55.0592 20.7371 54.6533 20.9698C54.2573 21.1928 53.9404 21.5078 53.7028 21.915C53.4751 22.3221 53.3612 22.7923 53.3612 23.3255C53.3612 23.8587 53.4751 24.3337 53.7028 24.7506C53.9305 25.1577 54.2473 25.4776 54.6533 25.7103C55.0592 25.9333 55.5097 26.0447 56.0048 26.0447Z" fill="white"/>
<path d="M64.9096 19.3993C65.9987 19.3993 66.8304 19.6611 67.4046 20.1846C67.9888 20.7081 68.2808 21.4884 68.2808 22.5257V27.179H66.9294V26.1611C66.6917 26.5198 66.3502 26.796 65.9046 26.9899C65.469 27.1741 64.9492 27.2662 64.3452 27.2662C63.464 27.2662 62.7561 27.0578 62.2215 26.6409C61.6967 26.2241 61.4343 25.6764 61.4343 24.9978C61.4343 24.3192 61.6868 23.7763 62.1918 23.3691C62.6967 22.9523 63.4987 22.7438 64.5977 22.7438H66.8551V22.4676C66.8551 21.8665 66.6769 21.406 66.3205 21.0861C65.964 20.7662 65.4393 20.6063 64.7462 20.6063C64.2809 20.6063 63.8254 20.6838 63.3799 20.8389C62.9343 20.9843 62.5581 21.1831 62.2512 21.4351L61.6571 20.3881C62.063 20.0682 62.5482 19.8259 63.1125 19.6611C63.6769 19.4866 64.2759 19.3993 64.9096 19.3993ZM64.5828 26.1902C65.1274 26.1902 65.5977 26.0738 65.9937 25.8412C66.3898 25.5988 66.6769 25.2595 66.8551 24.8233V23.7472H64.6571C63.4492 23.7472 62.8452 24.1447 62.8452 24.9396C62.8452 25.3274 62.9987 25.6327 63.3056 25.8557C63.6125 26.0787 64.0383 26.1902 64.5828 26.1902Z" fill="white"/>
<path d="M79.9224 19.472V27.179H78.6303V21.5515L75.6897 26.3065H75.066L72.1551 21.5369V27.179H70.8482V19.472H72.3184L75.4075 24.6779L78.5857 19.472H79.9224Z" fill="white"/>
<path d="M91.7716 19.472V27.179H90.4795V21.5515L87.5389 26.3065H86.9152L84.0043 21.5369V27.179H82.6974V19.472H84.1677L87.2567 24.6779L90.4349 19.472H91.7716Z" fill="white"/>
<path d="M94.5466 19.472H95.9723V25.085L100.799 19.472H102.091V27.179H100.665V21.566L95.8535 27.179H94.5466V19.472Z" fill="white"/>
<path d="M109.032 19.3993C109.794 19.3993 110.477 19.5641 111.081 19.8937C111.685 20.2233 112.155 20.6838 112.492 21.2752C112.839 21.8665 113.012 22.55 113.012 23.3255C113.012 24.101 112.839 24.7893 112.492 25.3904C112.155 25.9817 111.685 26.4422 111.081 26.7718C110.477 27.1014 109.794 27.2662 109.032 27.2662C108.467 27.2662 107.948 27.1596 107.472 26.9463C107.007 26.733 106.611 26.4228 106.284 26.0157V30H104.858V19.472H106.225V20.6935C106.542 20.267 106.943 19.9471 107.428 19.7338C107.913 19.5108 108.448 19.3993 109.032 19.3993ZM108.913 26.0447C109.418 26.0447 109.868 25.9333 110.264 25.7103C110.67 25.4776 110.987 25.1577 111.215 24.7506C111.452 24.3337 111.571 23.8587 111.571 23.3255C111.571 22.7923 111.452 22.3221 111.215 21.915C110.987 21.4981 110.67 21.1782 110.264 20.9553C109.868 20.7323 109.418 20.6208 108.913 20.6208C108.418 20.6208 107.967 20.7371 107.561 20.9698C107.165 21.1928 106.849 21.5078 106.611 21.915C106.383 22.3221 106.269 22.7923 106.269 23.3255C106.269 23.8587 106.383 24.3337 106.611 24.7506C106.839 25.1577 107.155 25.4776 107.561 25.7103C107.967 25.9333 108.418 26.0447 108.913 26.0447Z" fill="white"/>
<path d="M118.455 27.2662C117.672 27.2662 116.969 27.0966 116.346 26.7573C115.722 26.418 115.232 25.9526 114.875 25.3613C114.529 24.7603 114.356 24.0817 114.356 23.3255C114.356 22.5694 114.529 21.8956 114.875 21.3043C115.232 20.7032 115.722 20.2379 116.346 19.9083C116.969 19.569 117.672 19.3993 118.455 19.3993C119.237 19.3993 119.935 19.569 120.549 19.9083C121.172 20.2379 121.657 20.7032 122.004 21.3043C122.36 21.8956 122.539 22.5694 122.539 23.3255C122.539 24.0817 122.36 24.7603 122.004 25.3613C121.657 25.9526 121.172 26.418 120.549 26.7573C119.935 27.0966 119.237 27.2662 118.455 27.2662ZM118.455 26.0447C118.959 26.0447 119.41 25.9333 119.806 25.7103C120.212 25.4776 120.529 25.1577 120.756 24.7506C120.984 24.3337 121.098 23.8587 121.098 23.3255C121.098 22.7923 120.984 22.3221 120.756 21.915C120.529 21.4981 120.212 21.1782 119.806 20.9553C119.41 20.7323 118.959 20.6208 118.455 20.6208C117.95 20.6208 117.494 20.7323 117.088 20.9553C116.692 21.1782 116.375 21.4981 116.138 21.915C115.91 22.3221 115.796 22.7923 115.796 23.3255C115.796 23.8587 115.91 24.3337 116.138 24.7506C116.375 25.1577 116.692 25.4776 117.088 25.7103C117.494 25.9333 117.95 26.0447 118.455 26.0447Z" fill="white"/>
<path d="M129.959 23.1801C130.979 23.4321 131.488 24.0574 131.488 25.0559C131.488 25.7345 131.226 26.258 130.701 26.6264C130.187 26.9948 129.414 27.179 128.385 27.179H124.597V19.472H128.251C129.182 19.472 129.909 19.6465 130.434 19.9955C130.959 20.3348 131.221 20.8195 131.221 21.4497C131.221 21.8568 131.107 22.2107 130.88 22.5112C130.662 22.802 130.355 23.025 129.959 23.1801ZM125.993 22.7875H128.132C128.677 22.7875 129.088 22.6905 129.365 22.4966C129.652 22.3028 129.795 22.0216 129.795 21.6532C129.795 20.9165 129.241 20.5481 128.132 20.5481H125.993V22.7875ZM128.281 26.1029C128.875 26.1029 129.32 26.0108 129.617 25.8266C129.914 25.6424 130.063 25.3565 130.063 24.9687C130.063 24.5712 129.924 24.2755 129.647 24.0817C129.38 23.8878 128.954 23.7908 128.37 23.7908H125.993V26.1029H128.281Z" fill="white"/>
<path d="M136.527 19.3993C137.616 19.3993 138.448 19.6611 139.022 20.1846C139.606 20.7081 139.898 21.4884 139.898 22.5257V27.179H138.547V26.1611C138.309 26.5198 137.968 26.796 137.522 26.9899C137.086 27.1741 136.567 27.2662 135.963 27.2662C135.081 27.2662 134.373 27.0578 133.839 26.6409C133.314 26.2241 133.052 25.6764 133.052 24.9978C133.052 24.3192 133.304 23.7763 133.809 23.3691C134.314 22.9523 135.116 22.7438 136.215 22.7438H138.472V22.4676C138.472 21.8665 138.294 21.406 137.938 21.0861C137.581 20.7662 137.057 20.6063 136.364 20.6063C135.898 20.6063 135.443 20.6838 134.997 20.8389C134.552 20.9843 134.175 21.1831 133.869 21.4351L133.274 20.3881C133.68 20.0682 134.166 19.8259 134.73 19.6611C135.294 19.4866 135.893 19.3993 136.527 19.3993ZM136.2 26.1902C136.745 26.1902 137.215 26.0738 137.611 25.8412C138.007 25.5988 138.294 25.2595 138.472 24.8233V23.7472H136.274C135.067 23.7472 134.463 24.1447 134.463 24.9396C134.463 25.3274 134.616 25.6327 134.923 25.8557C135.23 26.0787 135.656 26.1902 136.2 26.1902Z" fill="white"/>
<path d="M142.466 19.472H143.891V22.7438H148.376V19.472H149.802V27.179H148.376V23.9508H143.891V27.179H142.466V19.472Z" fill="white"/>
<path d="M152.574 19.472H154V25.085L158.827 19.472H160.119V27.179H158.693V21.566L153.881 27.179H152.574V19.472Z" fill="white"/>
<path d="M170 23.3691C170 23.4758 169.99 23.6163 169.97 23.7908H163.584C163.673 24.4694 163.975 25.0172 164.49 25.434C165.015 25.8412 165.663 26.0447 166.436 26.0447C167.376 26.0447 168.134 25.7345 168.708 25.1141L169.495 26.0157C169.139 26.4228 168.693 26.733 168.158 26.9463C167.634 27.1596 167.045 27.2662 166.391 27.2662C165.559 27.2662 164.822 27.1014 164.178 26.7718C163.535 26.4325 163.035 25.9623 162.678 25.3613C162.332 24.7603 162.158 24.0817 162.158 23.3255C162.158 22.579 162.327 21.9053 162.663 21.3043C163.01 20.7032 163.48 20.2379 164.074 19.9083C164.678 19.569 165.356 19.3993 166.109 19.3993C166.861 19.3993 167.53 19.569 168.114 19.9083C168.708 20.2379 169.168 20.7032 169.495 21.3043C169.832 21.9053 170 22.5936 170 23.3691ZM166.109 20.5772C165.426 20.5772 164.852 20.7808 164.386 21.1879C163.931 21.5951 163.663 22.1283 163.584 22.7875H168.634C168.554 22.138 168.282 21.6096 167.817 21.2025C167.361 20.7856 166.792 20.5772 166.109 20.5772Z" fill="white"/>
<defs>
<filter id="filter0_d_5_879" x="0" y="0" width="183" height="45" filterUnits="userSpaceOnUse" color-interpolation-filters="sRGB">
<feFlood flood-opacity="0" result="BackgroundImageFix"/>
<feColorMatrix in="SourceAlpha" type="matrix" values="0 0 0 0 0 0 0 0 0 0 0 0 0 0 0 0 0 0 127 0" result="hardAlpha"/>
<feOffset/>
<feGaussianBlur stdDeviation="1.5"/>
<feComposite in2="hardAlpha" operator="out"/>
<feColorMatrix type="matrix" values="0 0 0 0 1 0 0 0 0 1 0 0 0 0 1 0 0 0 1 0"/>
<feBlend mode="normal" in2="BackgroundImageFix" result="effect1_dropShadow_5_879"/>
<feBlend mode="normal" in="SourceGraphic" in2="effect1_dropShadow_5_879" result="shape"/>
</filter>
</defs>
</svg>
