<svg width="154" height="45" viewBox="0 0 154 45" fill="none" xmlns="http://www.w3.org/2000/svg">
<g filter="url(#filter0_d_5_887)">
<path fill-rule="evenodd" clip-rule="evenodd" d="M3 3H151V42H3V3ZM3.64629 3.64356V41.3564H150.354V3.64356H3.64629Z" fill="white"/>
</g>
<path d="M23.2525 17.1771C24.6648 17.1771 25.776 17.5083 26.586 18.1707C27.396 18.8331 27.801 19.7452 27.801 20.907C27.801 22.0688 27.396 22.9809 26.586 23.6433C25.776 24.3057 24.6648 24.6369 23.2525 24.6369H20.5577V27.8777H19V17.1771H23.2525ZM23.2058 23.307C24.1923 23.307 24.9452 23.1032 25.4644 22.6955C25.9836 22.2777 26.2433 21.6815 26.2433 20.907C26.2433 20.1325 25.9836 19.5414 25.4644 19.1338C24.9452 18.7159 24.1923 18.507 23.2058 18.507H20.5577V23.307H23.2058Z" fill="white"/>
<path d="M33.224 27.9694C32.4036 27.9694 31.6663 27.7911 31.0121 27.4344C30.3579 27.0777 29.8438 26.5885 29.47 25.9669C29.1065 25.335 28.9248 24.6217 28.9248 23.8268C28.9248 23.0318 29.1065 22.3236 29.47 21.7019C29.8438 21.0701 30.3579 20.5809 31.0121 20.2344C31.6663 19.8777 32.4036 19.6994 33.224 19.6994C34.0444 19.6994 34.7765 19.8777 35.4204 20.2344C36.0746 20.5809 36.5834 21.0701 36.9469 21.7019C37.3208 22.3236 37.5077 23.0318 37.5077 23.8268C37.5077 24.6217 37.3208 25.335 36.9469 25.9669C36.5834 26.5885 36.0746 27.0777 35.4204 27.4344C34.7765 27.7911 34.0444 27.9694 33.224 27.9694ZM33.224 26.6854C33.7536 26.6854 34.2261 26.5682 34.6415 26.3338C35.0673 26.0892 35.3996 25.7529 35.6385 25.3248C35.8773 24.8866 35.9967 24.3873 35.9967 23.8268C35.9967 23.2662 35.8773 22.772 35.6385 22.3439C35.3996 21.9057 35.0673 21.5694 34.6415 21.335C34.2261 21.1006 33.7536 20.9834 33.224 20.9834C32.6944 20.9834 32.2167 21.1006 31.791 21.335C31.3756 21.5694 31.0433 21.9057 30.794 22.3439C30.5552 22.772 30.4358 23.2662 30.4358 23.8268C30.4358 24.3873 30.5552 24.8866 30.794 25.3248C31.0433 25.7529 31.3756 26.0892 31.791 26.3338C32.2167 26.5682 32.6944 26.6854 33.224 26.6854Z" fill="white"/>
<path d="M43.8728 20.051C44.6413 20.051 45.3266 20.2191 45.9289 20.5554C46.5313 20.8917 46.9986 21.3605 47.3309 21.9618C47.6736 22.5529 47.8449 23.2306 47.8449 23.9949C47.8449 24.7796 47.6632 25.4777 47.2997 26.0892C46.9466 26.6904 46.443 27.1592 45.7888 27.4955C45.1449 27.8318 44.4076 28 43.5768 28C42.1749 28 41.0897 27.5312 40.3213 26.5936C39.5632 25.6459 39.1841 24.3159 39.1841 22.6038C39.1841 20.9427 39.532 19.6433 40.2278 18.7057C40.9236 17.758 41.988 17.1312 43.4211 16.8255L47.1907 16L47.4088 17.3452L43.9351 18.079C42.8551 18.3134 42.0503 18.7108 41.5207 19.2713C40.9911 19.8318 40.6899 20.6369 40.6172 21.6866C40.9703 21.1669 41.4272 20.7643 41.988 20.479C42.5488 20.1936 43.177 20.051 43.8728 20.051ZM43.608 26.7771C44.1376 26.7771 44.6049 26.6599 45.0099 26.4255C45.4253 26.1911 45.7472 25.8701 45.9757 25.4624C46.2041 25.0446 46.3184 24.5707 46.3184 24.0408C46.3184 23.2357 46.0691 22.5885 45.5707 22.0994C45.0722 21.6102 44.418 21.3656 43.608 21.3656C42.798 21.3656 42.1386 21.6102 41.6297 22.0994C41.1313 22.5885 40.882 23.2357 40.882 24.0408C40.882 24.5707 40.9963 25.0446 41.2247 25.4624C41.4636 25.8701 41.7907 26.1911 42.2061 26.4255C42.6214 26.6599 43.0888 26.7771 43.608 26.7771Z" fill="white"/>
<path d="M53.5166 27.9694C52.6962 27.9694 51.9589 27.7911 51.3047 27.4344C50.6504 27.0777 50.1364 26.5885 49.7626 25.9669C49.3991 25.335 49.2174 24.6217 49.2174 23.8268C49.2174 23.0318 49.3991 22.3236 49.7626 21.7019C50.1364 21.0701 50.6504 20.5809 51.3047 20.2344C51.9589 19.8777 52.6962 19.6994 53.5166 19.6994C54.337 19.6994 55.0691 19.8777 55.7129 20.2344C56.3672 20.5809 56.876 21.0701 57.2395 21.7019C57.6133 22.3236 57.8003 23.0318 57.8003 23.8268C57.8003 24.6217 57.6133 25.335 57.2395 25.9669C56.876 26.5885 56.3672 27.0777 55.7129 27.4344C55.0691 27.7911 54.337 27.9694 53.5166 27.9694ZM53.5166 26.6854C54.0462 26.6854 54.5187 26.5682 54.9341 26.3338C55.3599 26.0892 55.6922 25.7529 55.931 25.3248C56.1699 24.8866 56.2893 24.3873 56.2893 23.8268C56.2893 23.2662 56.1699 22.772 55.931 22.3439C55.6922 21.9057 55.3599 21.5694 54.9341 21.335C54.5187 21.1006 54.0462 20.9834 53.5166 20.9834C52.987 20.9834 52.5093 21.1006 52.0835 21.335C51.6681 21.5694 51.3358 21.9057 51.0866 22.3439C50.8478 22.772 50.7283 23.2662 50.7283 23.8268C50.7283 24.3873 50.8478 24.8866 51.0866 25.3248C51.3358 25.7529 51.6681 26.0892 52.0835 26.3338C52.5093 26.5682 52.987 26.6854 53.5166 26.6854Z" fill="white"/>
<path d="M65.8082 21.0599H62.7863V27.8777H61.2909V21.0599H58.269V19.7758H65.8082V21.0599Z" fill="white"/>
<path d="M70.5082 27.9694C69.6878 27.9694 68.9505 27.7911 68.2963 27.4344C67.6421 27.0777 67.128 26.5885 66.7542 25.9669C66.3907 25.335 66.209 24.6217 66.209 23.8268C66.209 23.0318 66.3907 22.3236 66.7542 21.7019C67.128 21.0701 67.6421 20.5809 68.2963 20.2344C68.9505 19.8777 69.6878 19.6994 70.5082 19.6994C71.3286 19.6994 72.0607 19.8777 72.7046 20.2344C73.3588 20.5809 73.8676 21.0701 74.2311 21.7019C74.6049 22.3236 74.7919 23.0318 74.7919 23.8268C74.7919 24.6217 74.6049 25.335 74.2311 25.9669C73.8676 26.5885 73.3588 27.0777 72.7046 27.4344C72.0607 27.7911 71.3286 27.9694 70.5082 27.9694ZM70.5082 26.6854C71.0378 26.6854 71.5103 26.5682 71.9257 26.3338C72.3515 26.0892 72.6838 25.7529 72.9226 25.3248C73.1615 24.8866 73.2809 24.3873 73.2809 23.8268C73.2809 23.2662 73.1615 22.772 72.9226 22.3439C72.6838 21.9057 72.3515 21.5694 71.9257 21.335C71.5103 21.1006 71.0378 20.9834 70.5082 20.9834C69.9786 20.9834 69.5009 21.1006 69.0751 21.335C68.6598 21.5694 68.3274 21.9057 68.0782 22.3439C67.8394 22.772 67.7199 23.2662 67.7199 23.8268C67.7199 24.3873 67.8394 24.8866 68.0782 25.3248C68.3274 25.7529 68.6598 26.0892 69.0751 26.3338C69.5009 26.5682 69.9786 26.6854 70.5082 26.6854Z" fill="white"/>
<path d="M82.7999 21.0599H79.7779V27.8777H78.2826V21.0599H75.2606V19.7758H82.7999V21.0599Z" fill="white"/>
<path d="M91.4252 23.8726C91.4252 23.9847 91.4148 24.1325 91.3941 24.3159H84.696C84.7894 25.0293 85.1062 25.6051 85.6462 26.0433C86.1965 26.4713 86.8767 26.6854 87.6867 26.6854C88.6733 26.6854 89.4677 26.3592 90.07 25.707L90.8956 26.6548C90.5217 27.0828 90.0544 27.4089 89.4937 27.6331C88.9433 27.8573 88.3254 27.9694 87.64 27.9694C86.7677 27.9694 85.994 27.7962 85.3191 27.4497C84.6441 27.093 84.1196 26.5987 83.7458 25.9669C83.3823 25.335 83.2006 24.6217 83.2006 23.8268C83.2006 23.042 83.3771 22.3338 83.7302 21.7019C84.0937 21.0701 84.5869 20.5809 85.21 20.2344C85.8435 19.8777 86.5548 19.6994 87.3441 19.6994C88.1333 19.6994 88.8342 19.8777 89.4469 20.2344C90.07 20.5809 90.5529 21.0701 90.8956 21.7019C91.2487 22.3338 91.4252 23.0573 91.4252 23.8726ZM87.3441 20.9376C86.6275 20.9376 86.0252 21.1516 85.5371 21.5796C85.0594 22.0076 84.7791 22.5682 84.696 23.2611H89.9921C89.909 22.5783 89.6235 22.0229 89.1354 21.5949C88.6577 21.1567 88.0606 20.9376 87.3441 20.9376Z" fill="white"/>
<path d="M98.6728 27.8777L96.2896 24.7745L93.8752 27.8777H92.2084L95.464 23.735L92.3642 19.7758H94.0309L96.3052 22.6955L98.5638 19.7758H100.199L97.084 23.735L100.371 27.8777H98.6728Z" fill="white"/>
<path d="M101.944 19.7758H103.44V23.2153H108.144V19.7758H109.639V27.8777H108.144V24.4841H103.44V27.8777H101.944V19.7758Z" fill="white"/>
<path d="M112.547 19.7758H114.042V25.6764L119.105 19.7758H120.46V27.8777H118.965V21.9771L113.918 27.8777H112.547V19.7758Z" fill="white"/>
<path d="M126.571 24.4535H124.858V27.8777H123.362V19.7758H124.858V23.2H126.602L129.282 19.7758H130.886L127.755 23.6739L131.104 27.8777H129.344L126.571 24.4535Z" fill="white"/>
<path d="M135.464 19.6994C136.606 19.6994 137.479 19.9745 138.081 20.5248C138.694 21.0752 139 21.8955 139 22.986V27.8777H137.582V26.8076C137.333 27.1847 136.975 27.4752 136.508 27.679C136.051 27.8726 135.506 27.9694 134.872 27.9694C133.948 27.9694 133.205 27.7503 132.645 27.3121C132.094 26.8739 131.819 26.2981 131.819 25.5847C131.819 24.8713 132.084 24.3006 132.613 23.8726C133.143 23.4344 133.984 23.2153 135.137 23.2153H137.505V22.9248C137.505 22.293 137.318 21.8089 136.944 21.4726C136.57 21.1363 136.02 20.9682 135.293 20.9682C134.805 20.9682 134.327 21.0497 133.86 21.2127C133.392 21.3656 132.998 21.5745 132.676 21.8395L132.053 20.7389C132.478 20.4025 132.987 20.1478 133.579 19.9745C134.171 19.7911 134.799 19.6994 135.464 19.6994ZM135.121 26.8382C135.693 26.8382 136.186 26.7159 136.601 26.4713C137.017 26.2166 137.318 25.8599 137.505 25.4013V24.2701H135.199C133.932 24.2701 133.299 24.6879 133.299 25.5236C133.299 25.9312 133.46 26.2522 133.782 26.4866C134.104 26.721 134.55 26.8382 135.121 26.8382Z" fill="white"/>
<defs>
<filter id="filter0_d_5_887" x="0" y="0" width="154" height="45" filterUnits="userSpaceOnUse" color-interpolation-filters="sRGB">
<feFlood flood-opacity="0" result="BackgroundImageFix"/>
<feColorMatrix in="SourceAlpha" type="matrix" values="0 0 0 0 0 0 0 0 0 0 0 0 0 0 0 0 0 0 127 0" result="hardAlpha"/>
<feOffset/>
<feGaussianBlur stdDeviation="1.5"/>
<feComposite in2="hardAlpha" operator="out"/>
<feColorMatrix type="matrix" values="0 0 0 0 1 0 0 0 0 1 0 0 0 0 1 0 0 0 1 0"/>
<feBlend mode="normal" in2="BackgroundImageFix" result="effect1_dropShadow_5_887"/>
<feBlend mode="normal" in="SourceGraphic" in2="effect1_dropShadow_5_887" result="shape"/>
</filter>
</defs>
</svg>
