<svg width="302" height="146" viewBox="0 0 302 146" fill="none" xmlns="http://www.w3.org/2000/svg">
<path fill-rule="evenodd" clip-rule="evenodd" d="M21 1C9.95431 1 1 9.9543 1 21V111C1 122.046 9.9543 131 21 131H71V142.839C71 144.516 72.9399 145.448 74.2494 144.4L91 131H281C292.046 131 301 122.046 301 111V21C301 9.95431 292.046 1 281 1H21Z" fill="white"/>
<path d="M71 131H72V130H71V131ZM74.2494 144.4L74.8741 145.181L74.2494 144.4ZM91 131V130H90.6492L90.3753 130.219L91 131ZM2 21C2 10.5066 10.5066 2 21 2V0C9.40202 0 0 9.40202 0 21H2ZM2 111V21H0V111H2ZM21 130C10.5066 130 2 121.493 2 111H0C0 122.598 9.40202 132 21 132V130ZM71 130H21V132H71V130ZM70 131V142.839H72V131H70ZM70 142.839C70 145.354 72.9098 146.753 74.8741 145.181L73.6247 143.62C72.9699 144.143 72 143.677 72 142.839H70ZM74.8741 145.181L91.6247 131.781L90.3753 130.219L73.6247 143.62L74.8741 145.181ZM281 130H91V132H281V130ZM300 111C300 121.493 291.493 130 281 130V132C292.598 132 302 122.598 302 111H300ZM300 21V111H302V21H300ZM281 2C291.493 2 300 10.5066 300 21H302C302 9.40202 292.598 0 281 0V2ZM21 2H281V0H21V2Z" fill="url(#paint0_linear_5_1112)"/>
<defs>
<linearGradient id="paint0_linear_5_1112" x1="1" y1="72.9212" x2="301" y2="72.9212" gradientUnits="userSpaceOnUse">
<stop stop-color="#F7941D"/>
<stop offset="1" stop-color="#27AAE1"/>
</linearGradient>
</defs>
</svg>
