<svg width="46" height="12" viewBox="0 0 46 12" fill="none" xmlns="http://www.w3.org/2000/svg">
<g opacity="0.26">
<path d="M1.10127 0.0436444V2.58957H0.510524V0.51646H0V0.0436444H1.10127Z" fill="white"/>
<path d="M2.63868 2.63322C2.42718 2.63322 2.23877 2.58109 2.07346 2.47683C1.90815 2.37256 1.77809 2.22223 1.68327 2.02583C1.59089 1.82701 1.5447 1.5906 1.5447 1.31661C1.5447 1.04262 1.59089 0.807424 1.68327 0.611023C1.77809 0.412198 1.90815 0.260655 2.07346 0.156393C2.23877 0.0521309 2.42718 0 2.63868 0C2.85019 0 3.03859 0.0521309 3.20391 0.156393C3.36922 0.260655 3.49806 0.412198 3.59045 0.611023C3.68526 0.807424 3.73266 1.04262 3.73266 1.31661C3.73266 1.5906 3.68526 1.82701 3.59045 2.02583C3.49806 2.22223 3.36922 2.37256 3.20391 2.47683C3.03859 2.58109 2.85019 2.63322 2.63868 2.63322ZM2.63868 2.13494C2.79427 2.13494 2.91582 2.06827 3.00334 1.93491C3.09329 1.80155 3.13827 1.59545 3.13827 1.31661C3.13827 1.03777 3.09329 0.83167 3.00334 0.698312C2.91582 0.564954 2.79427 0.498275 2.63868 0.498275C2.48553 0.498275 2.36397 0.564954 2.27402 0.698312C2.18651 0.83167 2.14275 1.03777 2.14275 1.31661C2.14275 1.59545 2.18651 1.80155 2.27402 1.93491C2.36397 2.06827 2.48553 2.13494 2.63868 2.13494Z" fill="white"/>
<path d="M5.11367 2.63322C4.90217 2.63322 4.71376 2.58109 4.54845 2.47683C4.38313 2.37256 4.25307 2.22223 4.15826 2.02583C4.06588 1.82701 4.01969 1.5906 4.01969 1.31661C4.01969 1.04262 4.06588 0.807424 4.15826 0.611023C4.25307 0.412198 4.38313 0.260655 4.54845 0.156393C4.71376 0.0521309 4.90217 0 5.11367 0C5.32517 0 5.51358 0.0521309 5.67889 0.156393C5.8442 0.260655 5.97305 0.412198 6.06543 0.611023C6.16024 0.807424 6.20765 1.04262 6.20765 1.31661C6.20765 1.5906 6.16024 1.82701 6.06543 2.02583C5.97305 2.22223 5.8442 2.37256 5.67889 2.47683C5.51358 2.58109 5.32517 2.63322 5.11367 2.63322ZM5.11367 2.13494C5.26926 2.13494 5.39081 2.06827 5.47833 1.93491C5.56828 1.80155 5.61325 1.59545 5.61325 1.31661C5.61325 1.03777 5.56828 0.83167 5.47833 0.698312C5.39081 0.564954 5.26926 0.498275 5.11367 0.498275C4.96051 0.498275 4.83896 0.564954 4.74901 0.698312C4.66149 0.83167 4.61773 1.03777 4.61773 1.31661C4.61773 1.59545 4.66149 1.80155 4.74901 1.93491C4.83896 2.06827 4.96051 2.13494 5.11367 2.13494Z" fill="white"/>
<path d="M7.45789 0.0436444V2.58957H6.86714V0.51646H6.35662V0.0436444H7.45789Z" fill="white"/>
<path d="M8.8859 0.0436444V2.58957H8.29515V0.51646H7.78463V0.0436444H8.8859Z" fill="white"/>
<path d="M10.4233 2.63322C10.2118 2.63322 10.0234 2.58109 9.85809 2.47683C9.69278 2.37256 9.56272 2.22223 9.46791 2.02583C9.37553 1.82701 9.32934 1.5906 9.32934 1.31661C9.32934 1.04262 9.37553 0.807424 9.46791 0.611023C9.56272 0.412198 9.69278 0.260655 9.85809 0.156393C10.0234 0.0521309 10.2118 0 10.4233 0C10.6348 0 10.8232 0.0521309 10.9885 0.156393C11.1538 0.260655 11.2827 0.412198 11.3751 0.611023C11.4699 0.807424 11.5173 1.04262 11.5173 1.31661C11.5173 1.5906 11.4699 1.82701 11.3751 2.02583C11.2827 2.22223 11.1538 2.37256 10.9885 2.47683C10.8232 2.58109 10.6348 2.63322 10.4233 2.63322ZM10.4233 2.13494C10.5789 2.13494 10.7005 2.06827 10.788 1.93491C10.8779 1.80155 10.9229 1.59545 10.9229 1.31661C10.9229 1.03777 10.8779 0.83167 10.788 0.698312C10.7005 0.564954 10.5789 0.498275 10.4233 0.498275C10.2702 0.498275 10.1486 0.564954 10.0587 0.698312C9.97114 0.83167 9.92738 1.03777 9.92738 1.31661C9.92738 1.59545 9.97114 1.80155 10.0587 1.93491C10.1486 2.06827 10.2702 2.13494 10.4233 2.13494Z" fill="white"/>
<path d="M12.8983 2.63322C12.6868 2.63322 12.4984 2.58109 12.3331 2.47683C12.1678 2.37256 12.0377 2.22223 11.9429 2.02583C11.8505 1.82701 11.8043 1.5906 11.8043 1.31661C11.8043 1.04262 11.8505 0.807424 11.9429 0.611023C12.0377 0.412198 12.1678 0.260655 12.3331 0.156393C12.4984 0.0521309 12.6868 0 12.8983 0C13.1098 0 13.2982 0.0521309 13.4635 0.156393C13.6288 0.260655 13.7577 0.412198 13.8501 0.611023C13.9449 0.807424 13.9923 1.04262 13.9923 1.31661C13.9923 1.5906 13.9449 1.82701 13.8501 2.02583C13.7577 2.22223 13.6288 2.37256 13.4635 2.47683C13.2982 2.58109 13.1098 2.63322 12.8983 2.63322ZM12.8983 2.13494C13.0539 2.13494 13.1754 2.06827 13.263 1.93491C13.3529 1.80155 13.3979 1.59545 13.3979 1.31661C13.3979 1.03777 13.3529 0.83167 13.263 0.698312C13.1754 0.564954 13.0539 0.498275 12.8983 0.498275C12.7451 0.498275 12.6236 0.564954 12.5336 0.698312C12.4461 0.83167 12.4024 1.03777 12.4024 1.31661C12.4024 1.59545 12.4461 1.80155 12.5336 1.93491C12.6236 2.06827 12.7451 2.13494 12.8983 2.13494Z" fill="white"/>
<path d="M15.3733 2.63322C15.1618 2.63322 14.9734 2.58109 14.8081 2.47683C14.6427 2.37256 14.5127 2.22223 14.4179 2.02583C14.3255 1.82701 14.2793 1.5906 14.2793 1.31661C14.2793 1.04262 14.3255 0.807424 14.4179 0.611023C14.5127 0.412198 14.6427 0.260655 14.8081 0.156393C14.9734 0.0521309 15.1618 0 15.3733 0C15.5848 0 15.7732 0.0521309 15.9385 0.156393C16.1038 0.260655 16.2327 0.412198 16.325 0.611023C16.4199 0.807424 16.4673 1.04262 16.4673 1.31661C16.4673 1.5906 16.4199 1.82701 16.325 2.02583C16.2327 2.22223 16.1038 2.37256 15.9385 2.47683C15.7732 2.58109 15.5848 2.63322 15.3733 2.63322ZM15.3733 2.13494C15.5289 2.13494 15.6504 2.06827 15.7379 1.93491C15.8279 1.80155 15.8729 1.59545 15.8729 1.31661C15.8729 1.03777 15.8279 0.83167 15.7379 0.698312C15.6504 0.564954 15.5289 0.498275 15.3733 0.498275C15.2201 0.498275 15.0986 0.564954 15.0086 0.698312C14.9211 0.83167 14.8773 1.03777 14.8773 1.31661C14.8773 1.59545 14.9211 1.80155 15.0086 1.93491C15.0986 2.06827 15.2201 2.13494 15.3733 2.13494Z" fill="white"/>
<path d="M17.7175 0.0436444V2.58957H17.1268V0.51646H16.6162V0.0436444H17.7175Z" fill="white"/>
<path d="M19.2549 2.63322C19.0434 2.63322 18.855 2.58109 18.6897 2.47683C18.5244 2.37256 18.3943 2.22223 18.2995 2.02583C18.2071 1.82701 18.1609 1.5906 18.1609 1.31661C18.1609 1.04262 18.2071 0.807424 18.2995 0.611023C18.3943 0.412198 18.5244 0.260655 18.6897 0.156393C18.855 0.0521309 19.0434 0 19.2549 0C19.4664 0 19.6548 0.0521309 19.8201 0.156393C19.9855 0.260655 20.1143 0.412198 20.2067 0.611023C20.3015 0.807424 20.3489 1.04262 20.3489 1.31661C20.3489 1.5906 20.3015 1.82701 20.2067 2.02583C20.1143 2.22223 19.9855 2.37256 19.8201 2.47683C19.6548 2.58109 19.4664 2.63322 19.2549 2.63322ZM19.2549 2.13494C19.4105 2.13494 19.5321 2.06827 19.6196 1.93491C19.7095 1.80155 19.7545 1.59545 19.7545 1.31661C19.7545 1.03777 19.7095 0.83167 19.6196 0.698312C19.5321 0.564954 19.4105 0.498275 19.2549 0.498275C19.1018 0.498275 18.9802 0.564954 18.8903 0.698312C18.8027 0.83167 18.759 1.03777 18.759 1.31661C18.759 1.59545 18.8027 1.80155 18.8903 1.93491C18.9802 2.06827 19.1018 2.13494 19.2549 2.13494Z" fill="white"/>
<path d="M21.5991 0.0436444V2.58957H21.0084V0.51646H20.4979V0.0436444H21.5991Z" fill="white"/>
<path d="M23.0272 0.0436444V2.58957H22.4364V0.51646H21.9259V0.0436444H23.0272Z" fill="white"/>
<path d="M24.5646 2.63322C24.3531 2.63322 24.1647 2.58109 23.9993 2.47683C23.834 2.37256 23.704 2.22223 23.6092 2.02583C23.5168 1.82701 23.4706 1.5906 23.4706 1.31661C23.4706 1.04262 23.5168 0.807424 23.6092 0.611023C23.704 0.412198 23.834 0.260655 23.9993 0.156393C24.1647 0.0521309 24.3531 0 24.5646 0C24.7761 0 24.9645 0.0521309 25.1298 0.156393C25.2951 0.260655 25.4239 0.412198 25.5163 0.611023C25.6111 0.807424 25.6585 1.04262 25.6585 1.31661C25.6585 1.5906 25.6111 1.82701 25.5163 2.02583C25.4239 2.22223 25.2951 2.37256 25.1298 2.47683C24.9645 2.58109 24.7761 2.63322 24.5646 2.63322ZM24.5646 2.13494C24.7201 2.13494 24.8417 2.06827 24.9292 1.93491C25.0192 1.80155 25.0641 1.59545 25.0641 1.31661C25.0641 1.03777 25.0192 0.83167 24.9292 0.698312C24.8417 0.564954 24.7201 0.498275 24.5646 0.498275C24.4114 0.498275 24.2899 0.564954 24.1999 0.698312C24.1124 0.83167 24.0686 1.03777 24.0686 1.31661C24.0686 1.59545 24.1124 1.80155 24.1999 1.93491C24.2899 2.06827 24.4114 2.13494 24.5646 2.13494Z" fill="white"/>
<path d="M27.0395 2.63322C26.828 2.63322 26.6396 2.58109 26.4743 2.47683C26.309 2.37256 26.1789 2.22223 26.0841 2.02583C25.9918 1.82701 25.9456 1.5906 25.9456 1.31661C25.9456 1.04262 25.9918 0.807424 26.0841 0.611023C26.1789 0.412198 26.309 0.260655 26.4743 0.156393C26.6396 0.0521309 26.828 0 27.0395 0C27.2511 0 27.4395 0.0521309 27.6048 0.156393C27.7701 0.260655 27.8989 0.412198 27.9913 0.611023C28.0861 0.807424 28.1335 1.04262 28.1335 1.31661C28.1335 1.5906 28.0861 1.82701 27.9913 2.02583C27.8989 2.22223 27.7701 2.37256 27.6048 2.47683C27.4395 2.58109 27.2511 2.63322 27.0395 2.63322ZM27.0395 2.13494C27.1951 2.13494 27.3167 2.06827 27.4042 1.93491C27.4942 1.80155 27.5391 1.59545 27.5391 1.31661C27.5391 1.03777 27.4942 0.83167 27.4042 0.698312C27.3167 0.564954 27.1951 0.498275 27.0395 0.498275C26.8864 0.498275 26.7648 0.564954 26.6749 0.698312C26.5874 0.83167 26.5436 1.03777 26.5436 1.31661C26.5436 1.59545 26.5874 1.80155 26.6749 1.93491C26.7648 2.06827 26.8864 2.13494 27.0395 2.13494Z" fill="white"/>
<path d="M29.5145 2.63322C29.303 2.63322 29.1146 2.58109 28.9493 2.47683C28.784 2.37256 28.6539 2.22223 28.5591 2.02583C28.4667 1.82701 28.4206 1.5906 28.4206 1.31661C28.4206 1.04262 28.4667 0.807424 28.5591 0.611023C28.6539 0.412198 28.784 0.260655 28.9493 0.156393C29.1146 0.0521309 29.303 0 29.5145 0C29.726 0 29.9144 0.0521309 30.0798 0.156393C30.2451 0.260655 30.3739 0.412198 30.4663 0.611023C30.5611 0.807424 30.6085 1.04262 30.6085 1.31661C30.6085 1.5906 30.5611 1.82701 30.4663 2.02583C30.3739 2.22223 30.2451 2.37256 30.0798 2.47683C29.9144 2.58109 29.726 2.63322 29.5145 2.63322ZM29.5145 2.13494C29.6701 2.13494 29.7917 2.06827 29.8792 1.93491C29.9691 1.80155 30.0141 1.59545 30.0141 1.31661C30.0141 1.03777 29.9691 0.83167 29.8792 0.698312C29.7917 0.564954 29.6701 0.498275 29.5145 0.498275C29.3614 0.498275 29.2398 0.564954 29.1499 0.698312C29.0624 0.83167 29.0186 1.03777 29.0186 1.31661C29.0186 1.59545 29.0624 1.80155 29.1499 1.93491C29.2398 2.06827 29.3614 2.13494 29.5145 2.13494Z" fill="white"/>
<path d="M31.8588 0.0436444V2.58957H31.268V0.51646H30.7575V0.0436444H31.8588Z" fill="white"/>
<path d="M33.3962 2.63322C33.1847 2.63322 32.9963 2.58109 32.8309 2.47683C32.6656 2.37256 32.5356 2.22223 32.4408 2.02583C32.3484 1.82701 32.3022 1.5906 32.3022 1.31661C32.3022 1.04262 32.3484 0.807424 32.4408 0.611023C32.5356 0.412198 32.6656 0.260655 32.8309 0.156393C32.9963 0.0521309 33.1847 0 33.3962 0C33.6077 0 33.7961 0.0521309 33.9614 0.156393C34.1267 0.260655 34.2555 0.412198 34.3479 0.611023C34.4427 0.807424 34.4901 1.04262 34.4901 1.31661C34.4901 1.5906 34.4427 1.82701 34.3479 2.02583C34.2555 2.22223 34.1267 2.37256 33.9614 2.47683C33.7961 2.58109 33.6077 2.63322 33.3962 2.63322ZM33.3962 2.13494C33.5518 2.13494 33.6733 2.06827 33.7608 1.93491C33.8508 1.80155 33.8957 1.59545 33.8957 1.31661C33.8957 1.03777 33.8508 0.83167 33.7608 0.698312C33.6733 0.564954 33.5518 0.498275 33.3962 0.498275C33.243 0.498275 33.1215 0.564954 33.0315 0.698312C32.944 0.83167 32.9002 1.03777 32.9002 1.31661C32.9002 1.59545 32.944 1.80155 33.0315 1.93491C33.1215 2.06827 33.243 2.13494 33.3962 2.13494Z" fill="white"/>
<path d="M35.8712 2.63322C35.6596 2.63322 35.4712 2.58109 35.3059 2.47683C35.1406 2.37256 35.0106 2.22223 34.9157 2.02583C34.8234 1.82701 34.7772 1.5906 34.7772 1.31661C34.7772 1.04262 34.8234 0.807424 34.9157 0.611023C35.0106 0.412198 35.1406 0.260655 35.3059 0.156393C35.4712 0.0521309 35.6596 0 35.8712 0C36.0827 0 36.2711 0.0521309 36.4364 0.156393C36.6017 0.260655 36.7305 0.412198 36.8229 0.611023C36.9177 0.807424 36.9651 1.04262 36.9651 1.31661C36.9651 1.5906 36.9177 1.82701 36.8229 2.02583C36.7305 2.22223 36.6017 2.37256 36.4364 2.47683C36.2711 2.58109 36.0827 2.63322 35.8712 2.63322ZM35.8712 2.13494C36.0267 2.13494 36.1483 2.06827 36.2358 1.93491C36.3258 1.80155 36.3707 1.59545 36.3707 1.31661C36.3707 1.03777 36.3258 0.83167 36.2358 0.698312C36.1483 0.564954 36.0267 0.498275 35.8712 0.498275C35.718 0.498275 35.5964 0.564954 35.5065 0.698312C35.419 0.83167 35.3752 1.03777 35.3752 1.31661C35.3752 1.59545 35.419 1.80155 35.5065 1.93491C35.5964 2.06827 35.718 2.13494 35.8712 2.13494Z" fill="white"/>
<path d="M38.3461 2.63322C38.1346 2.63322 37.9462 2.58109 37.7809 2.47683C37.6156 2.37256 37.4855 2.22223 37.3907 2.02583C37.2983 1.82701 37.2522 1.5906 37.2522 1.31661C37.2522 1.04262 37.2983 0.807424 37.3907 0.611023C37.4855 0.412198 37.6156 0.260655 37.7809 0.156393C37.9462 0.0521309 38.1346 0 38.3461 0C38.5576 0 38.746 0.0521309 38.9114 0.156393C39.0767 0.260655 39.2055 0.412198 39.2979 0.611023C39.3927 0.807424 39.4401 1.04262 39.4401 1.31661C39.4401 1.5906 39.3927 1.82701 39.2979 2.02583C39.2055 2.22223 39.0767 2.37256 38.9114 2.47683C38.746 2.58109 38.5576 2.63322 38.3461 2.63322ZM38.3461 2.13494C38.5017 2.13494 38.6233 2.06827 38.7108 1.93491C38.8007 1.80155 38.8457 1.59545 38.8457 1.31661C38.8457 1.03777 38.8007 0.83167 38.7108 0.698312C38.6233 0.564954 38.5017 0.498275 38.3461 0.498275C38.193 0.498275 38.0714 0.564954 37.9815 0.698312C37.894 0.83167 37.8502 1.03777 37.8502 1.31661C37.8502 1.59545 37.894 1.80155 37.9815 1.93491C38.0714 2.06827 38.193 2.13494 38.3461 2.13494Z" fill="white"/>
<path d="M40.6904 0.0436444V2.58957H40.0996V0.51646H39.5891V0.0436444H40.6904Z" fill="white"/>
<path d="M42.1184 0.0436444V2.58957H41.5276V0.51646H41.0171V0.0436444H42.1184Z" fill="white"/>
<path d="M43.6558 2.63322C43.4443 2.63322 43.2559 2.58109 43.0906 2.47683C42.9252 2.37256 42.7952 2.22223 42.7004 2.02583C42.608 1.82701 42.5618 1.5906 42.5618 1.31661C42.5618 1.04262 42.608 0.807424 42.7004 0.611023C42.7952 0.412198 42.9252 0.260655 43.0906 0.156393C43.2559 0.0521309 43.4443 0 43.6558 0C43.8673 0 44.0557 0.0521309 44.221 0.156393C44.3863 0.260655 44.5152 0.412198 44.6075 0.611023C44.7024 0.807424 44.7498 1.04262 44.7498 1.31661C44.7498 1.5906 44.7024 1.82701 44.6075 2.02583C44.5152 2.22223 44.3863 2.37256 44.221 2.47683C44.0557 2.58109 43.8673 2.63322 43.6558 2.63322ZM43.6558 2.13494C43.8114 2.13494 43.9329 2.06827 44.0204 1.93491C44.1104 1.80155 44.1554 1.59545 44.1554 1.31661C44.1554 1.03777 44.1104 0.83167 44.0204 0.698312C43.9329 0.564954 43.8114 0.498275 43.6558 0.498275C43.5026 0.498275 43.3811 0.564954 43.2911 0.698312C43.2036 0.83167 43.1598 1.03777 43.1598 1.31661C43.1598 1.59545 43.2036 1.80155 43.2911 1.93491C43.3811 2.06827 43.5026 2.13494 43.6558 2.13494Z" fill="white"/>
<path d="M46 0.0436444V2.58957H45.4093V0.51646H44.8987V0.0436444H46Z" fill="white"/>
<path d="M1.21067 7.31661C0.999168 7.31661 0.81076 7.26448 0.645448 7.16022C0.480135 7.05595 0.350073 6.90562 0.255262 6.70922C0.162881 6.5104 0.116691 6.27399 0.116691 6C0.116691 5.72601 0.162881 5.49081 0.255262 5.29441C0.350073 5.09559 0.480135 4.94405 0.645448 4.83978C0.81076 4.73552 0.999168 4.68339 1.21067 4.68339C1.42217 4.68339 1.61058 4.73552 1.77589 4.83978C1.94121 4.94405 2.07005 5.09559 2.16243 5.29441C2.25724 5.49081 2.30465 5.72601 2.30465 6C2.30465 6.27399 2.25724 6.5104 2.16243 6.70922C2.07005 6.90562 1.94121 7.05595 1.77589 7.16022C1.61058 7.26448 1.42217 7.31661 1.21067 7.31661ZM1.21067 6.81833C1.36626 6.81833 1.48781 6.75166 1.57533 6.6183C1.66528 6.48494 1.71025 6.27884 1.71025 6C1.71025 5.72116 1.66528 5.51506 1.57533 5.3817C1.48781 5.24834 1.36626 5.18167 1.21067 5.18167C1.05751 5.18167 0.93596 5.24834 0.846011 5.3817C0.758492 5.51506 0.714733 5.72116 0.714733 6C0.714733 6.27884 0.758492 6.48494 0.846011 6.6183C0.93596 6.75166 1.05751 6.81833 1.21067 6.81833Z" fill="white"/>
<path d="M3.68566 7.31661C3.47415 7.31661 3.28575 7.26448 3.12043 7.16022C2.95512 7.05595 2.82506 6.90562 2.73025 6.70922C2.63787 6.5104 2.59168 6.27399 2.59168 6C2.59168 5.72601 2.63787 5.49081 2.73025 5.29441C2.82506 5.09559 2.95512 4.94405 3.12043 4.83978C3.28575 4.73552 3.47415 4.68339 3.68566 4.68339C3.89716 4.68339 4.08557 4.73552 4.25088 4.83978C4.41619 4.94405 4.54504 5.09559 4.63742 5.29441C4.73223 5.49081 4.77963 5.72601 4.77963 6C4.77963 6.27399 4.73223 6.5104 4.63742 6.70922C4.54504 6.90562 4.41619 7.05595 4.25088 7.16022C4.08557 7.26448 3.89716 7.31661 3.68566 7.31661ZM3.68566 6.81833C3.84124 6.81833 3.9628 6.75166 4.05032 6.6183C4.14026 6.48494 4.18524 6.27884 4.18524 6C4.18524 5.72116 4.14026 5.51506 4.05032 5.3817C3.9628 5.24834 3.84124 5.18167 3.68566 5.18167C3.5325 5.18167 3.41095 5.24834 3.321 5.3817C3.23348 5.51506 3.18972 5.72116 3.18972 6C3.18972 6.27884 3.23348 6.48494 3.321 6.6183C3.41095 6.75166 3.5325 6.81833 3.68566 6.81833Z" fill="white"/>
<path d="M6.02988 4.72704V7.27296H5.43913V5.19985H4.9286V4.72704H6.02988Z" fill="white"/>
<path d="M7.45789 4.72704V7.27296H6.86714V5.19985H6.35662V4.72704H7.45789Z" fill="white"/>
<path d="M8.9953 7.31661C8.7838 7.31661 8.59539 7.26448 8.43008 7.16022C8.26477 7.05595 8.1347 6.90562 8.03989 6.70922C7.94751 6.5104 7.90132 6.27399 7.90132 6C7.90132 5.72601 7.94751 5.49081 8.03989 5.29441C8.1347 5.09559 8.26477 4.94405 8.43008 4.83978C8.59539 4.73552 8.7838 4.68339 8.9953 4.68339C9.2068 4.68339 9.39521 4.73552 9.56052 4.83978C9.72584 4.94405 9.85468 5.09559 9.94706 5.29441C10.0419 5.49081 10.0893 5.72601 10.0893 6C10.0893 6.27399 10.0419 6.5104 9.94706 6.70922C9.85468 6.90562 9.72584 7.05595 9.56052 7.16022C9.39521 7.26448 9.2068 7.31661 8.9953 7.31661ZM8.9953 6.81833C9.15089 6.81833 9.27244 6.75166 9.35996 6.6183C9.44991 6.48494 9.49488 6.27884 9.49488 6C9.49488 5.72116 9.44991 5.51506 9.35996 5.3817C9.27244 5.24834 9.15089 5.18167 8.9953 5.18167C8.84214 5.18167 8.72059 5.24834 8.63064 5.3817C8.54312 5.51506 8.49936 5.72116 8.49936 6C8.49936 6.27884 8.54312 6.48494 8.63064 6.6183C8.72059 6.75166 8.84214 6.81833 8.9953 6.81833Z" fill="white"/>
<path d="M11.4703 7.31661C11.2588 7.31661 11.0704 7.26448 10.9051 7.16022C10.7398 7.05595 10.6097 6.90562 10.5149 6.70922C10.4225 6.5104 10.3763 6.27399 10.3763 6C10.3763 5.72601 10.4225 5.49081 10.5149 5.29441C10.6097 5.09559 10.7398 4.94405 10.9051 4.83978C11.0704 4.73552 11.2588 4.68339 11.4703 4.68339C11.6818 4.68339 11.8702 4.73552 12.0355 4.83978C12.2008 4.94405 12.3297 5.09559 12.422 5.29441C12.5169 5.49081 12.5643 5.72601 12.5643 6C12.5643 6.27399 12.5169 6.5104 12.422 6.70922C12.3297 6.90562 12.2008 7.05595 12.0355 7.16022C11.8702 7.26448 11.6818 7.31661 11.4703 7.31661ZM11.4703 6.81833C11.6259 6.81833 11.7474 6.75166 11.8349 6.6183C11.9249 6.48494 11.9699 6.27884 11.9699 6C11.9699 5.72116 11.9249 5.51506 11.8349 5.3817C11.7474 5.24834 11.6259 5.18167 11.4703 5.18167C11.3171 5.18167 11.1956 5.24834 11.1056 5.3817C11.0181 5.51506 10.9743 5.72116 10.9743 6C10.9743 6.27884 11.0181 6.48494 11.1056 6.6183C11.1956 6.75166 11.3171 6.81833 11.4703 6.81833Z" fill="white"/>
<path d="M13.9453 7.31661C13.7338 7.31661 13.5454 7.26448 13.38 7.16022C13.2147 7.05595 13.0847 6.90562 12.9899 6.70922C12.8975 6.5104 12.8513 6.27399 12.8513 6C12.8513 5.72601 12.8975 5.49081 12.9899 5.29441C13.0847 5.09559 13.2147 4.94405 13.38 4.83978C13.5454 4.73552 13.7338 4.68339 13.9453 4.68339C14.1568 4.68339 14.3452 4.73552 14.5105 4.83978C14.6758 4.94405 14.8047 5.09559 14.897 5.29441C14.9918 5.49081 15.0393 5.72601 15.0393 6C15.0393 6.27399 14.9918 6.5104 14.897 6.70922C14.8047 6.90562 14.6758 7.05595 14.5105 7.16022C14.3452 7.26448 14.1568 7.31661 13.9453 7.31661ZM13.9453 6.81833C14.1009 6.81833 14.2224 6.75166 14.3099 6.6183C14.3999 6.48494 14.4449 6.27884 14.4449 6C14.4449 5.72116 14.3999 5.51506 14.3099 5.3817C14.2224 5.24834 14.1009 5.18167 13.9453 5.18167C13.7921 5.18167 13.6706 5.24834 13.5806 5.3817C13.4931 5.51506 13.4493 5.72116 13.4493 6C13.4493 6.27884 13.4931 6.48494 13.5806 6.6183C13.6706 6.75166 13.7921 6.81833 13.9453 6.81833Z" fill="white"/>
<path d="M16.4203 7.31661C16.2088 7.31661 16.0203 7.26448 15.855 7.16022C15.6897 7.05595 15.5597 6.90562 15.4648 6.70922C15.3725 6.5104 15.3263 6.27399 15.3263 6C15.3263 5.72601 15.3725 5.49081 15.4648 5.29441C15.5597 5.09559 15.6897 4.94405 15.855 4.83978C16.0203 4.73552 16.2088 4.68339 16.4203 4.68339C16.6318 4.68339 16.8202 4.73552 16.9855 4.83978C17.1508 4.94405 17.2796 5.09559 17.372 5.29441C17.4668 5.49081 17.5142 5.72601 17.5142 6C17.5142 6.27399 17.4668 6.5104 17.372 6.70922C17.2796 6.90562 17.1508 7.05595 16.9855 7.16022C16.8202 7.26448 16.6318 7.31661 16.4203 7.31661ZM16.4203 6.81833C16.5758 6.81833 16.6974 6.75166 16.7849 6.6183C16.8749 6.48494 16.9198 6.27884 16.9198 6C16.9198 5.72116 16.8749 5.51506 16.7849 5.3817C16.6974 5.24834 16.5758 5.18167 16.4203 5.18167C16.2671 5.18167 16.1455 5.24834 16.0556 5.3817C15.9681 5.51506 15.9243 5.72116 15.9243 6C15.9243 6.27884 15.9681 6.48494 16.0556 6.6183C16.1455 6.75166 16.2671 6.81833 16.4203 6.81833Z" fill="white"/>
<path d="M18.7645 4.72704V7.27296H18.1737V5.19985H17.6632V4.72704H18.7645Z" fill="white"/>
<path d="M20.3019 7.31661C20.0904 7.31661 19.902 7.26448 19.7367 7.16022C19.5714 7.05595 19.4413 6.90562 19.3465 6.70922C19.2541 6.5104 19.2079 6.27399 19.2079 6C19.2079 5.72601 19.2541 5.49081 19.3465 5.29441C19.4413 5.09559 19.5714 4.94405 19.7367 4.83978C19.902 4.73552 20.0904 4.68339 20.3019 4.68339C20.5134 4.68339 20.7018 4.73552 20.8671 4.83978C21.0324 4.94405 21.1613 5.09559 21.2537 5.29441C21.3485 5.49081 21.3959 5.72601 21.3959 6C21.3959 6.27399 21.3485 6.5104 21.2537 6.70922C21.1613 6.90562 21.0324 7.05595 20.8671 7.16022C20.7018 7.26448 20.5134 7.31661 20.3019 7.31661ZM20.3019 6.81833C20.4575 6.81833 20.579 6.75166 20.6665 6.6183C20.7565 6.48494 20.8015 6.27884 20.8015 6C20.8015 5.72116 20.7565 5.51506 20.6665 5.3817C20.579 5.24834 20.4575 5.18167 20.3019 5.18167C20.1487 5.18167 20.0272 5.24834 19.9372 5.3817C19.8497 5.51506 19.806 5.72116 19.806 6C19.806 6.27884 19.8497 6.48494 19.9372 6.6183C20.0272 6.75166 20.1487 6.81833 20.3019 6.81833Z" fill="white"/>
<path d="M22.6461 4.72704V7.27296H22.0554V5.19985H21.5448V4.72704H22.6461Z" fill="white"/>
<path d="M24.0741 4.72704V7.27296H23.4834V5.19985H22.9729V4.72704H24.0741Z" fill="white"/>
<path d="M25.6115 7.31661C25.4 7.31661 25.2116 7.26448 25.0463 7.16022C24.881 7.05595 24.7509 6.90562 24.6561 6.70922C24.5637 6.5104 24.5176 6.27399 24.5176 6C24.5176 5.72601 24.5637 5.49081 24.6561 5.29441C24.7509 5.09559 24.881 4.94405 25.0463 4.83978C25.2116 4.73552 25.4 4.68339 25.6115 4.68339C25.823 4.68339 26.0114 4.73552 26.1768 4.83978C26.3421 4.94405 26.4709 5.09559 26.5633 5.29441C26.6581 5.49081 26.7055 5.72601 26.7055 6C26.7055 6.27399 26.6581 6.5104 26.5633 6.70922C26.4709 6.90562 26.3421 7.05595 26.1768 7.16022C26.0114 7.26448 25.823 7.31661 25.6115 7.31661ZM25.6115 6.81833C25.7671 6.81833 25.8887 6.75166 25.9762 6.6183C26.0661 6.48494 26.1111 6.27884 26.1111 6C26.1111 5.72116 26.0661 5.51506 25.9762 5.3817C25.8887 5.24834 25.7671 5.18167 25.6115 5.18167C25.4584 5.18167 25.3368 5.24834 25.2469 5.3817C25.1594 5.51506 25.1156 5.72116 25.1156 6C25.1156 6.27884 25.1594 6.48494 25.2469 6.6183C25.3368 6.75166 25.4584 6.81833 25.6115 6.81833Z" fill="white"/>
<path d="M28.0865 7.31661C27.875 7.31661 27.6866 7.26448 27.5213 7.16022C27.356 7.05595 27.2259 6.90562 27.1311 6.70922C27.0387 6.5104 26.9925 6.27399 26.9925 6C26.9925 5.72601 27.0387 5.49081 27.1311 5.29441C27.2259 5.09559 27.356 4.94405 27.5213 4.83978C27.6866 4.73552 27.875 4.68339 28.0865 4.68339C28.298 4.68339 28.4864 4.73552 28.6517 4.83978C28.8171 4.94405 28.9459 5.09559 29.0383 5.29441C29.1331 5.49081 29.1805 5.72601 29.1805 6C29.1805 6.27399 29.1331 6.5104 29.0383 6.70922C28.9459 6.90562 28.8171 7.05595 28.6517 7.16022C28.4864 7.26448 28.298 7.31661 28.0865 7.31661ZM28.0865 6.81833C28.2421 6.81833 28.3637 6.75166 28.4512 6.6183C28.5411 6.48494 28.5861 6.27884 28.5861 6C28.5861 5.72116 28.5411 5.51506 28.4512 5.3817C28.3637 5.24834 28.2421 5.18167 28.0865 5.18167C27.9334 5.18167 27.8118 5.24834 27.7219 5.3817C27.6343 5.51506 27.5906 5.72116 27.5906 6C27.5906 6.27884 27.6343 6.48494 27.7219 6.6183C27.8118 6.75166 27.9334 6.81833 28.0865 6.81833Z" fill="white"/>
<path d="M30.4307 4.72704V7.27296H29.84V5.19985H29.3295V4.72704H30.4307Z" fill="white"/>
<path d="M31.8588 4.72704V7.27296H31.268V5.19985H30.7575V4.72704H31.8588Z" fill="white"/>
<path d="M33.3962 7.31661C33.1847 7.31661 32.9963 7.26448 32.8309 7.16022C32.6656 7.05595 32.5356 6.90562 32.4408 6.70922C32.3484 6.5104 32.3022 6.27399 32.3022 6C32.3022 5.72601 32.3484 5.49081 32.4408 5.29441C32.5356 5.09559 32.6656 4.94405 32.8309 4.83978C32.9963 4.73552 33.1847 4.68339 33.3962 4.68339C33.6077 4.68339 33.7961 4.73552 33.9614 4.83978C34.1267 4.94405 34.2555 5.09559 34.3479 5.29441C34.4427 5.49081 34.4901 5.72601 34.4901 6C34.4901 6.27399 34.4427 6.5104 34.3479 6.70922C34.2555 6.90562 34.1267 7.05595 33.9614 7.16022C33.7961 7.26448 33.6077 7.31661 33.3962 7.31661ZM33.3962 6.81833C33.5518 6.81833 33.6733 6.75166 33.7608 6.6183C33.8508 6.48494 33.8957 6.27884 33.8957 6C33.8957 5.72116 33.8508 5.51506 33.7608 5.3817C33.6733 5.24834 33.5518 5.18167 33.3962 5.18167C33.243 5.18167 33.1215 5.24834 33.0315 5.3817C32.944 5.51506 32.9002 5.72116 32.9002 6C32.9002 6.27884 32.944 6.48494 33.0315 6.6183C33.1215 6.75166 33.243 6.81833 33.3962 6.81833Z" fill="white"/>
<path d="M35.8712 7.31661C35.6596 7.31661 35.4712 7.26448 35.3059 7.16022C35.1406 7.05595 35.0106 6.90562 34.9157 6.70922C34.8234 6.5104 34.7772 6.27399 34.7772 6C34.7772 5.72601 34.8234 5.49081 34.9157 5.29441C35.0106 5.09559 35.1406 4.94405 35.3059 4.83978C35.4712 4.73552 35.6596 4.68339 35.8712 4.68339C36.0827 4.68339 36.2711 4.73552 36.4364 4.83978C36.6017 4.94405 36.7305 5.09559 36.8229 5.29441C36.9177 5.49081 36.9651 5.72601 36.9651 6C36.9651 6.27399 36.9177 6.5104 36.8229 6.70922C36.7305 6.90562 36.6017 7.05595 36.4364 7.16022C36.2711 7.26448 36.0827 7.31661 35.8712 7.31661ZM35.8712 6.81833C36.0267 6.81833 36.1483 6.75166 36.2358 6.6183C36.3258 6.48494 36.3707 6.27884 36.3707 6C36.3707 5.72116 36.3258 5.51506 36.2358 5.3817C36.1483 5.24834 36.0267 5.18167 35.8712 5.18167C35.718 5.18167 35.5964 5.24834 35.5065 5.3817C35.419 5.51506 35.3752 5.72116 35.3752 6C35.3752 6.27884 35.419 6.48494 35.5065 6.6183C35.5964 6.75166 35.718 6.81833 35.8712 6.81833Z" fill="white"/>
<path d="M38.3461 7.31661C38.1346 7.31661 37.9462 7.26448 37.7809 7.16022C37.6156 7.05595 37.4855 6.90562 37.3907 6.70922C37.2983 6.5104 37.2522 6.27399 37.2522 6C37.2522 5.72601 37.2983 5.49081 37.3907 5.29441C37.4855 5.09559 37.6156 4.94405 37.7809 4.83978C37.9462 4.73552 38.1346 4.68339 38.3461 4.68339C38.5576 4.68339 38.746 4.73552 38.9114 4.83978C39.0767 4.94405 39.2055 5.09559 39.2979 5.29441C39.3927 5.49081 39.4401 5.72601 39.4401 6C39.4401 6.27399 39.3927 6.5104 39.2979 6.70922C39.2055 6.90562 39.0767 7.05595 38.9114 7.16022C38.746 7.26448 38.5576 7.31661 38.3461 7.31661ZM38.3461 6.81833C38.5017 6.81833 38.6233 6.75166 38.7108 6.6183C38.8007 6.48494 38.8457 6.27884 38.8457 6C38.8457 5.72116 38.8007 5.51506 38.7108 5.3817C38.6233 5.24834 38.5017 5.18167 38.3461 5.18167C38.193 5.18167 38.0714 5.24834 37.9815 5.3817C37.894 5.51506 37.8502 5.72116 37.8502 6C37.8502 6.27884 37.894 6.48494 37.9815 6.6183C38.0714 6.75166 38.193 6.81833 38.3461 6.81833Z" fill="white"/>
<path d="M40.6904 4.72704V7.27296H40.0996V5.19985H39.5891V4.72704H40.6904Z" fill="white"/>
<path d="M42.2278 7.31661C42.0163 7.31661 41.8279 7.26448 41.6625 7.16022C41.4972 7.05595 41.3672 6.90562 41.2724 6.70922C41.18 6.5104 41.1338 6.27399 41.1338 6C41.1338 5.72601 41.18 5.49081 41.2724 5.29441C41.3672 5.09559 41.4972 4.94405 41.6625 4.83978C41.8279 4.73552 42.0163 4.68339 42.2278 4.68339C42.4393 4.68339 42.6277 4.73552 42.793 4.83978C42.9583 4.94405 43.0871 5.09559 43.1795 5.29441C43.2743 5.49081 43.3217 5.72601 43.3217 6C43.3217 6.27399 43.2743 6.5104 43.1795 6.70922C43.0871 6.90562 42.9583 7.05595 42.793 7.16022C42.6277 7.26448 42.4393 7.31661 42.2278 7.31661ZM42.2278 6.81833C42.3834 6.81833 42.5049 6.75166 42.5924 6.6183C42.6824 6.48494 42.7274 6.27884 42.7274 6C42.7274 5.72116 42.6824 5.51506 42.5924 5.3817C42.5049 5.24834 42.3834 5.18167 42.2278 5.18167C42.0746 5.18167 41.9531 5.24834 41.8631 5.3817C41.7756 5.51506 41.7318 5.72116 41.7318 6C41.7318 6.27884 41.7756 6.48494 41.8631 6.6183C41.9531 6.75166 42.0746 6.81833 42.2278 6.81833Z" fill="white"/>
<path d="M44.572 4.72704V7.27296H43.9812V5.19985H43.4707V4.72704H44.572Z" fill="white"/>
<path d="M46 4.72704V7.27296H45.4093V5.19985H44.8987V4.72704H46Z" fill="white"/>
<path d="M1.21067 12C0.999168 12 0.81076 11.9479 0.645448 11.8436C0.480135 11.7393 0.350073 11.589 0.255262 11.3926C0.162881 11.1938 0.116691 10.9574 0.116691 10.6834C0.116691 10.4094 0.162881 10.1742 0.255262 9.9778C0.350073 9.77898 0.480135 9.62744 0.645448 9.52317C0.81076 9.41891 0.999168 9.36678 1.21067 9.36678C1.42217 9.36678 1.61058 9.41891 1.77589 9.52317C1.94121 9.62744 2.07005 9.77898 2.16243 9.9778C2.25724 10.1742 2.30465 10.4094 2.30465 10.6834C2.30465 10.9574 2.25724 11.1938 2.16243 11.3926C2.07005 11.589 1.94121 11.7393 1.77589 11.8436C1.61058 11.9479 1.42217 12 1.21067 12ZM1.21067 11.5017C1.36626 11.5017 1.48781 11.435 1.57533 11.3017C1.66528 11.1683 1.71025 10.9622 1.71025 10.6834C1.71025 10.4046 1.66528 10.1985 1.57533 10.0651C1.48781 9.93174 1.36626 9.86506 1.21067 9.86506C1.05751 9.86506 0.93596 9.93174 0.846011 10.0651C0.758492 10.1985 0.714733 10.4046 0.714733 10.6834C0.714733 10.9622 0.758492 11.1683 0.846011 11.3017C0.93596 11.435 1.05751 11.5017 1.21067 11.5017Z" fill="white"/>
<path d="M3.68566 12C3.47415 12 3.28575 11.9479 3.12043 11.8436C2.95512 11.7393 2.82506 11.589 2.73025 11.3926C2.63787 11.1938 2.59168 10.9574 2.59168 10.6834C2.59168 10.4094 2.63787 10.1742 2.73025 9.9778C2.82506 9.77898 2.95512 9.62744 3.12043 9.52317C3.28575 9.41891 3.47415 9.36678 3.68566 9.36678C3.89716 9.36678 4.08557 9.41891 4.25088 9.52317C4.41619 9.62744 4.54504 9.77898 4.63742 9.9778C4.73223 10.1742 4.77963 10.4094 4.77963 10.6834C4.77963 10.9574 4.73223 11.1938 4.63742 11.3926C4.54504 11.589 4.41619 11.7393 4.25088 11.8436C4.08557 11.9479 3.89716 12 3.68566 12ZM3.68566 11.5017C3.84124 11.5017 3.9628 11.435 4.05032 11.3017C4.14026 11.1683 4.18524 10.9622 4.18524 10.6834C4.18524 10.4046 4.14026 10.1985 4.05032 10.0651C3.9628 9.93174 3.84124 9.86506 3.68566 9.86506C3.5325 9.86506 3.41095 9.93174 3.321 10.0651C3.23348 10.1985 3.18972 10.4046 3.18972 10.6834C3.18972 10.9622 3.23348 11.1683 3.321 11.3017C3.41095 11.435 3.5325 11.5017 3.68566 11.5017Z" fill="white"/>
<path d="M6.16064 12C5.94914 12 5.76073 11.9479 5.59542 11.8436C5.43011 11.7393 5.30004 11.589 5.20523 11.3926C5.11285 11.1938 5.06666 10.9574 5.06666 10.6834C5.06666 10.4094 5.11285 10.1742 5.20523 9.9778C5.30004 9.77898 5.43011 9.62744 5.59542 9.52317C5.76073 9.41891 5.94914 9.36678 6.16064 9.36678C6.37214 9.36678 6.56055 9.41891 6.72586 9.52317C6.89118 9.62744 7.02002 9.77898 7.1124 9.9778C7.20721 10.1742 7.25462 10.4094 7.25462 10.6834C7.25462 10.9574 7.20721 11.1938 7.1124 11.3926C7.02002 11.589 6.89118 11.7393 6.72586 11.8436C6.56055 11.9479 6.37214 12 6.16064 12ZM6.16064 11.5017C6.31623 11.5017 6.43778 11.435 6.5253 11.3017C6.61525 11.1683 6.66022 10.9622 6.66022 10.6834C6.66022 10.4046 6.61525 10.1985 6.5253 10.0651C6.43778 9.93174 6.31623 9.86506 6.16064 9.86506C6.00748 9.86506 5.88593 9.93174 5.79598 10.0651C5.70846 10.1985 5.6647 10.4046 5.6647 10.6834C5.6647 10.9622 5.70846 11.1683 5.79598 11.3017C5.88593 11.435 6.00748 11.5017 6.16064 11.5017Z" fill="white"/>
<path d="M8.50486 9.41043V11.9564H7.91411V9.88324H7.40359V9.41043H8.50486Z" fill="white"/>
<path d="M10.0423 12C9.83077 12 9.64236 11.9479 9.47705 11.8436C9.31174 11.7393 9.18168 11.589 9.08686 11.3926C8.99448 11.1938 8.94829 10.9574 8.94829 10.6834C8.94829 10.4094 8.99448 10.1742 9.08686 9.9778C9.18168 9.77898 9.31174 9.62744 9.47705 9.52317C9.64236 9.41891 9.83077 9.36678 10.0423 9.36678C10.2538 9.36678 10.4422 9.41891 10.6075 9.52317C10.7728 9.62744 10.9017 9.77898 10.994 9.9778C11.0888 10.1742 11.1363 10.4094 11.1363 10.6834C11.1363 10.9574 11.0888 11.1938 10.994 11.3926C10.9017 11.589 10.7728 11.7393 10.6075 11.8436C10.4422 11.9479 10.2538 12 10.0423 12ZM10.0423 11.5017C10.1979 11.5017 10.3194 11.435 10.4069 11.3017C10.4969 11.1683 10.5419 10.9622 10.5419 10.6834C10.5419 10.4046 10.4969 10.1985 10.4069 10.0651C10.3194 9.93174 10.1979 9.86506 10.0423 9.86506C9.88912 9.86506 9.76756 9.93174 9.67761 10.0651C9.5901 10.1985 9.54634 10.4046 9.54634 10.6834C9.54634 10.9622 9.5901 11.1683 9.67761 11.3017C9.76756 11.435 9.88912 11.5017 10.0423 11.5017Z" fill="white"/>
<path d="M12.5173 12C12.3058 12 12.1173 11.9479 11.952 11.8436C11.7867 11.7393 11.6567 11.589 11.5619 11.3926C11.4695 11.1938 11.4233 10.9574 11.4233 10.6834C11.4233 10.4094 11.4695 10.1742 11.5619 9.9778C11.6567 9.77898 11.7867 9.62744 11.952 9.52317C12.1173 9.41891 12.3058 9.36678 12.5173 9.36678C12.7288 9.36678 12.9172 9.41891 13.0825 9.52317C13.2478 9.62744 13.3766 9.77898 13.469 9.9778C13.5638 10.1742 13.6112 10.4094 13.6112 10.6834C13.6112 10.9574 13.5638 11.1938 13.469 11.3926C13.3766 11.589 13.2478 11.7393 13.0825 11.8436C12.9172 11.9479 12.7288 12 12.5173 12ZM12.5173 11.5017C12.6728 11.5017 12.7944 11.435 12.8819 11.3017C12.9719 11.1683 13.0168 10.9622 13.0168 10.6834C13.0168 10.4046 12.9719 10.1985 12.8819 10.0651C12.7944 9.93174 12.6728 9.86506 12.5173 9.86506C12.3641 9.86506 12.2425 9.93174 12.1526 10.0651C12.0651 10.1985 12.0213 10.4046 12.0213 10.6834C12.0213 10.9622 12.0651 11.1683 12.1526 11.3017C12.2425 11.435 12.3641 11.5017 12.5173 11.5017Z" fill="white"/>
<path d="M14.9922 12C14.7807 12 14.5923 11.9479 14.427 11.8436C14.2617 11.7393 14.1316 11.589 14.0368 11.3926C13.9445 11.1938 13.8983 10.9574 13.8983 10.6834C13.8983 10.4094 13.9445 10.1742 14.0368 9.9778C14.1316 9.77898 14.2617 9.62744 14.427 9.52317C14.5923 9.41891 14.7807 9.36678 14.9922 9.36678C15.2037 9.36678 15.3922 9.41891 15.5575 9.52317C15.7228 9.62744 15.8516 9.77898 15.944 9.9778C16.0388 10.1742 16.0862 10.4094 16.0862 10.6834C16.0862 10.9574 16.0388 11.1938 15.944 11.3926C15.8516 11.589 15.7228 11.7393 15.5575 11.8436C15.3922 11.9479 15.2037 12 14.9922 12ZM14.9922 11.5017C15.1478 11.5017 15.2694 11.435 15.3569 11.3017C15.4469 11.1683 15.4918 10.9622 15.4918 10.6834C15.4918 10.4046 15.4469 10.1985 15.3569 10.0651C15.2694 9.93174 15.1478 9.86506 14.9922 9.86506C14.8391 9.86506 14.7175 9.93174 14.6276 10.0651C14.5401 10.1985 14.4963 10.4046 14.4963 10.6834C14.4963 10.9622 14.5401 11.1683 14.6276 11.3017C14.7175 11.435 14.8391 11.5017 14.9922 11.5017Z" fill="white"/>
<path d="M17.3365 9.41043V11.9564H16.7457V9.88324H16.2352V9.41043H17.3365Z" fill="white"/>
<path d="M18.7645 9.41043V11.9564H18.1737V9.88324H17.6632V9.41043H18.7645Z" fill="white"/>
<path d="M20.3019 12C20.0904 12 19.902 11.9479 19.7367 11.8436C19.5714 11.7393 19.4413 11.589 19.3465 11.3926C19.2541 11.1938 19.2079 10.9574 19.2079 10.6834C19.2079 10.4094 19.2541 10.1742 19.3465 9.9778C19.4413 9.77898 19.5714 9.62744 19.7367 9.52317C19.902 9.41891 20.0904 9.36678 20.3019 9.36678C20.5134 9.36678 20.7018 9.41891 20.8671 9.52317C21.0324 9.62744 21.1613 9.77898 21.2537 9.9778C21.3485 10.1742 21.3959 10.4094 21.3959 10.6834C21.3959 10.9574 21.3485 11.1938 21.2537 11.3926C21.1613 11.589 21.0324 11.7393 20.8671 11.8436C20.7018 11.9479 20.5134 12 20.3019 12ZM20.3019 11.5017C20.4575 11.5017 20.579 11.435 20.6665 11.3017C20.7565 11.1683 20.8015 10.9622 20.8015 10.6834C20.8015 10.4046 20.7565 10.1985 20.6665 10.0651C20.579 9.93174 20.4575 9.86506 20.3019 9.86506C20.1487 9.86506 20.0272 9.93174 19.9372 10.0651C19.8497 10.1985 19.806 10.4046 19.806 10.6834C19.806 10.9622 19.8497 11.1683 19.9372 11.3017C20.0272 11.435 20.1487 11.5017 20.3019 11.5017Z" fill="white"/>
<path d="M22.6461 9.41043V11.9564H22.0554V9.88324H21.5448V9.41043H22.6461Z" fill="white"/>
<path d="M24.1835 12C23.972 12 23.7836 11.9479 23.6183 11.8436C23.453 11.7393 23.3229 11.589 23.2281 11.3926C23.1357 11.1938 23.0895 10.9574 23.0895 10.6834C23.0895 10.4094 23.1357 10.1742 23.2281 9.9778C23.3229 9.77898 23.453 9.62744 23.6183 9.52317C23.7836 9.41891 23.972 9.36678 24.1835 9.36678C24.395 9.36678 24.5834 9.41891 24.7487 9.52317C24.9141 9.62744 25.0429 9.77898 25.1353 9.9778C25.2301 10.1742 25.2775 10.4094 25.2775 10.6834C25.2775 10.9574 25.2301 11.1938 25.1353 11.3926C25.0429 11.589 24.9141 11.7393 24.7487 11.8436C24.5834 11.9479 24.395 12 24.1835 12ZM24.1835 11.5017C24.3391 11.5017 24.4607 11.435 24.5482 11.3017C24.6381 11.1683 24.6831 10.9622 24.6831 10.6834C24.6831 10.4046 24.6381 10.1985 24.5482 10.0651C24.4607 9.93174 24.3391 9.86506 24.1835 9.86506C24.0304 9.86506 23.9088 9.93174 23.8189 10.0651C23.7313 10.1985 23.6876 10.4046 23.6876 10.6834C23.6876 10.9622 23.7313 11.1683 23.8189 11.3017C23.9088 11.435 24.0304 11.5017 24.1835 11.5017Z" fill="white"/>
<path d="M26.6585 12C26.447 12 26.2586 11.9479 26.0933 11.8436C25.928 11.7393 25.7979 11.589 25.7031 11.3926C25.6107 11.1938 25.5645 10.9574 25.5645 10.6834C25.5645 10.4094 25.6107 10.1742 25.7031 9.9778C25.7979 9.77898 25.928 9.62744 26.0933 9.52317C26.2586 9.41891 26.447 9.36678 26.6585 9.36678C26.87 9.36678 27.0584 9.41891 27.2237 9.52317C27.389 9.62744 27.5179 9.77898 27.6103 9.9778C27.7051 10.1742 27.7525 10.4094 27.7525 10.6834C27.7525 10.9574 27.7051 11.1938 27.6103 11.3926C27.5179 11.589 27.389 11.7393 27.2237 11.8436C27.0584 11.9479 26.87 12 26.6585 12ZM26.6585 11.5017C26.8141 11.5017 26.9356 11.435 27.0232 11.3017C27.1131 11.1683 27.1581 10.9622 27.1581 10.6834C27.1581 10.4046 27.1131 10.1985 27.0232 10.0651C26.9356 9.93174 26.8141 9.86506 26.6585 9.86506C26.5054 9.86506 26.3838 9.93174 26.2938 10.0651C26.2063 10.1985 26.1626 10.4046 26.1626 10.6834C26.1626 10.9622 26.2063 11.1683 26.2938 11.3017C26.3838 11.435 26.5054 11.5017 26.6585 11.5017Z" fill="white"/>
<path d="M29.0027 9.41043V11.9564H28.412V9.88324H27.9015V9.41043H29.0027Z" fill="white"/>
<path d="M30.4307 9.41043V11.9564H29.84V9.88324H29.3295V9.41043H30.4307Z" fill="white"/>
<path d="M31.9682 12C31.7566 12 31.5682 11.9479 31.4029 11.8436C31.2376 11.7393 31.1076 11.589 31.0127 11.3926C30.9204 11.1938 30.8742 10.9574 30.8742 10.6834C30.8742 10.4094 30.9204 10.1742 31.0127 9.9778C31.1076 9.77898 31.2376 9.62744 31.4029 9.52317C31.5682 9.41891 31.7566 9.36678 31.9682 9.36678C32.1797 9.36678 32.3681 9.41891 32.5334 9.52317C32.6987 9.62744 32.8275 9.77898 32.9199 9.9778C33.0147 10.1742 33.0621 10.4094 33.0621 10.6834C33.0621 10.9574 33.0147 11.1938 32.9199 11.3926C32.8275 11.589 32.6987 11.7393 32.5334 11.8436C32.3681 11.9479 32.1797 12 31.9682 12ZM31.9682 11.5017C32.1237 11.5017 32.2453 11.435 32.3328 11.3017C32.4228 11.1683 32.4677 10.9622 32.4677 10.6834C32.4677 10.4046 32.4228 10.1985 32.3328 10.0651C32.2453 9.93174 32.1237 9.86506 31.9682 9.86506C31.815 9.86506 31.6934 9.93174 31.6035 10.0651C31.516 10.1985 31.4722 10.4046 31.4722 10.6834C31.4722 10.9622 31.516 11.1683 31.6035 11.3017C31.6934 11.435 31.815 11.5017 31.9682 11.5017Z" fill="white"/>
<path d="M34.4431 12C34.2316 12 34.0432 11.9479 33.8779 11.8436C33.7126 11.7393 33.5825 11.589 33.4877 11.3926C33.3953 11.1938 33.3492 10.9574 33.3492 10.6834C33.3492 10.4094 33.3953 10.1742 33.4877 9.9778C33.5825 9.77898 33.7126 9.62744 33.8779 9.52317C34.0432 9.41891 34.2316 9.36678 34.4431 9.36678C34.6546 9.36678 34.843 9.41891 35.0084 9.52317C35.1737 9.62744 35.3025 9.77898 35.3949 9.9778C35.4897 10.1742 35.5371 10.4094 35.5371 10.6834C35.5371 10.9574 35.4897 11.1938 35.3949 11.3926C35.3025 11.589 35.1737 11.7393 35.0084 11.8436C34.843 11.9479 34.6546 12 34.4431 12ZM34.4431 11.5017C34.5987 11.5017 34.7203 11.435 34.8078 11.3017C34.8977 11.1683 34.9427 10.9622 34.9427 10.6834C34.9427 10.4046 34.8977 10.1985 34.8078 10.0651C34.7203 9.93174 34.5987 9.86506 34.4431 9.86506C34.29 9.86506 34.1684 9.93174 34.0785 10.0651C33.991 10.1985 33.9472 10.4046 33.9472 10.6834C33.9472 10.9622 33.991 11.1683 34.0785 11.3017C34.1684 11.435 34.29 11.5017 34.4431 11.5017Z" fill="white"/>
<path d="M36.9181 12C36.7066 12 36.5182 11.9479 36.3529 11.8436C36.1876 11.7393 36.0575 11.589 35.9627 11.3926C35.8703 11.1938 35.8241 10.9574 35.8241 10.6834C35.8241 10.4094 35.8703 10.1742 35.9627 9.9778C36.0575 9.77898 36.1876 9.62744 36.3529 9.52317C36.5182 9.41891 36.7066 9.36678 36.9181 9.36678C37.1296 9.36678 37.318 9.41891 37.4833 9.52317C37.6487 9.62744 37.7775 9.77898 37.8699 9.9778C37.9647 10.1742 38.0121 10.4094 38.0121 10.6834C38.0121 10.9574 37.9647 11.1938 37.8699 11.3926C37.7775 11.589 37.6487 11.7393 37.4833 11.8436C37.318 11.9479 37.1296 12 36.9181 12ZM36.9181 11.5017C37.0737 11.5017 37.1953 11.435 37.2828 11.3017C37.3727 11.1683 37.4177 10.9622 37.4177 10.6834C37.4177 10.4046 37.3727 10.1985 37.2828 10.0651C37.1953 9.93174 37.0737 9.86506 36.9181 9.86506C36.765 9.86506 36.6434 9.93174 36.5535 10.0651C36.4659 10.1985 36.4222 10.4046 36.4222 10.6834C36.4222 10.9622 36.4659 11.1683 36.5535 11.3017C36.6434 11.435 36.765 11.5017 36.9181 11.5017Z" fill="white"/>
<path d="M39.3931 12C39.1816 12 38.9932 11.9479 38.8279 11.8436C38.6626 11.7393 38.5325 11.589 38.4377 11.3926C38.3453 11.1938 38.2991 10.9574 38.2991 10.6834C38.2991 10.4094 38.3453 10.1742 38.4377 9.9778C38.5325 9.77898 38.6626 9.62744 38.8279 9.52317C38.9932 9.41891 39.1816 9.36678 39.3931 9.36678C39.6046 9.36678 39.793 9.41891 39.9583 9.52317C40.1236 9.62744 40.2525 9.77898 40.3449 9.9778C40.4397 10.1742 40.4871 10.4094 40.4871 10.6834C40.4871 10.9574 40.4397 11.1938 40.3449 11.3926C40.2525 11.589 40.1236 11.7393 39.9583 11.8436C39.793 11.9479 39.6046 12 39.3931 12ZM39.3931 11.5017C39.5487 11.5017 39.6702 11.435 39.7578 11.3017C39.8477 11.1683 39.8927 10.9622 39.8927 10.6834C39.8927 10.4046 39.8477 10.1985 39.7578 10.0651C39.6702 9.93174 39.5487 9.86506 39.3931 9.86506C39.24 9.86506 39.1184 9.93174 39.0285 10.0651C38.9409 10.1985 38.8972 10.4046 38.8972 10.6834C38.8972 10.9622 38.9409 11.1683 39.0285 11.3017C39.1184 11.435 39.24 11.5017 39.3931 11.5017Z" fill="white"/>
<path d="M41.7373 9.41043V11.9564H41.1466V9.88324H40.6361V9.41043H41.7373Z" fill="white"/>
<path d="M43.2747 12C43.0632 12 42.8748 11.9479 42.7095 11.8436C42.5442 11.7393 42.4141 11.589 42.3193 11.3926C42.2269 11.1938 42.1808 10.9574 42.1808 10.6834C42.1808 10.4094 42.2269 10.1742 42.3193 9.9778C42.4141 9.77898 42.5442 9.62744 42.7095 9.52317C42.8748 9.41891 43.0632 9.36678 43.2747 9.36678C43.4862 9.36678 43.6746 9.41891 43.84 9.52317C44.0053 9.62744 44.1341 9.77898 44.2265 9.9778C44.3213 10.1742 44.3687 10.4094 44.3687 10.6834C44.3687 10.9574 44.3213 11.1938 44.2265 11.3926C44.1341 11.589 44.0053 11.7393 43.84 11.8436C43.6746 11.9479 43.4862 12 43.2747 12ZM43.2747 11.5017C43.4303 11.5017 43.5519 11.435 43.6394 11.3017C43.7293 11.1683 43.7743 10.9622 43.7743 10.6834C43.7743 10.4046 43.7293 10.1985 43.6394 10.0651C43.5519 9.93174 43.4303 9.86506 43.2747 9.86506C43.1216 9.86506 43 9.93174 42.9101 10.0651C42.8226 10.1985 42.7788 10.4046 42.7788 10.6834C42.7788 10.9622 42.8226 11.1683 42.9101 11.3017C43 11.435 43.1216 11.5017 43.2747 11.5017Z" fill="white"/>
<path d="M45.619 9.41043V11.9564H45.0282V9.88324H44.5177V9.41043H45.619Z" fill="white"/>
</g>
</svg>
