<svg width="119" height="31" viewBox="0 0 119 31" fill="none" xmlns="http://www.w3.org/2000/svg">
<g opacity="0.26">
<path d="M2.84894 0.112748V6.68973H1.3207V1.33419H0V0.112748H2.84894Z" fill="white"/>
<path d="M6.82616 6.80248C6.27901 6.80248 5.79161 6.66781 5.36395 6.39847C4.9363 6.12912 4.59983 5.74077 4.35456 5.2334C4.11557 4.71977 3.99608 4.10905 3.99608 3.40124C3.99608 2.69343 4.11557 2.08584 4.35456 1.57848C4.59983 1.06485 4.9363 0.673358 5.36395 0.404015C5.79161 0.134672 6.27901 0 6.82616 0C7.37331 0 7.86071 0.134672 8.28837 0.404015C8.71602 0.673358 9.04934 1.06485 9.28833 1.57848C9.5336 2.08584 9.65624 2.69343 9.65624 3.40124C9.65624 4.10905 9.5336 4.71977 9.28833 5.2334C9.04934 5.74077 8.71602 6.12912 8.28837 6.39847C7.86071 6.66781 7.37331 6.80248 6.82616 6.80248ZM6.82616 5.51527C7.22866 5.51527 7.54311 5.34302 7.76952 4.99851C8.00221 4.654 8.11856 4.12158 8.11856 3.40124C8.11856 2.6809 8.00221 2.14848 7.76952 1.80397C7.54311 1.45946 7.22866 1.28721 6.82616 1.28721C6.42995 1.28721 6.1155 1.45946 5.8828 1.80397C5.65639 2.14848 5.54319 2.6809 5.54319 3.40124C5.54319 4.12158 5.65639 4.654 5.8828 4.99851C6.1155 5.34302 6.42995 5.51527 6.82616 5.51527Z" fill="white"/>
<path d="M13.2288 6.80248C12.6817 6.80248 12.1943 6.66781 11.7666 6.39847C11.339 6.12912 11.0025 5.74077 10.7572 5.2334C10.5183 4.71977 10.3988 4.10905 10.3988 3.40124C10.3988 2.69343 10.5183 2.08584 10.7572 1.57848C11.0025 1.06485 11.339 0.673358 11.7666 0.404015C12.1943 0.134672 12.6817 0 13.2288 0C13.776 0 14.2634 0.134672 14.691 0.404015C15.1187 0.673358 15.452 1.06485 15.691 1.57848C15.9363 2.08584 16.0589 2.69343 16.0589 3.40124C16.0589 4.10905 15.9363 4.71977 15.691 5.2334C15.452 5.74077 15.1187 6.12912 14.691 6.39847C14.2634 6.66781 13.776 6.80248 13.2288 6.80248ZM13.2288 5.51527C13.6313 5.51527 13.9458 5.34302 14.1722 4.99851C14.4049 4.654 14.5212 4.12158 14.5212 3.40124C14.5212 2.6809 14.4049 2.14848 14.1722 1.80397C13.9458 1.45946 13.6313 1.28721 13.2288 1.28721C12.8326 1.28721 12.5182 1.45946 12.2855 1.80397C12.0591 2.14848 11.9459 2.6809 11.9459 3.40124C11.9459 4.12158 12.0591 4.654 12.2855 4.99851C12.5182 5.34302 12.8326 5.51527 13.2288 5.51527Z" fill="white"/>
<path d="M19.2932 0.112748V6.68973H17.765V1.33419H16.4443V0.112748H19.2932Z" fill="white"/>
<path d="M22.9874 0.112748V6.68973H21.4592V1.33419H20.1385V0.112748H22.9874Z" fill="white"/>
<path d="M26.9647 6.80248C26.4175 6.80248 25.9301 6.66781 25.5025 6.39847C25.0748 6.12912 24.7383 5.74077 24.4931 5.2334C24.2541 4.71977 24.1346 4.10905 24.1346 3.40124C24.1346 2.69343 24.2541 2.08584 24.4931 1.57848C24.7383 1.06485 25.0748 0.673358 25.5025 0.404015C25.9301 0.134672 26.4175 0 26.9647 0C27.5118 0 27.9992 0.134672 28.4269 0.404015C28.8545 0.673358 29.1878 1.06485 29.4268 1.57848C29.6721 2.08584 29.7947 2.69343 29.7947 3.40124C29.7947 4.10905 29.6721 4.71977 29.4268 5.2334C29.1878 5.74077 28.8545 6.12912 28.4269 6.39847C27.9992 6.66781 27.5118 6.80248 26.9647 6.80248ZM26.9647 5.51527C27.3672 5.51527 27.6816 5.34302 27.908 4.99851C28.1407 4.654 28.2571 4.12158 28.2571 3.40124C28.2571 2.6809 28.1407 2.14848 27.908 1.80397C27.6816 1.45946 27.3672 1.28721 26.9647 1.28721C26.5684 1.28721 26.254 1.45946 26.0213 1.80397C25.7949 2.14848 25.6817 2.6809 25.6817 3.40124C25.6817 4.12158 25.7949 4.654 26.0213 4.99851C26.254 5.34302 26.5684 5.51527 26.9647 5.51527Z" fill="white"/>
<path d="M33.3673 6.80248C32.8202 6.80248 32.3328 6.66781 31.9051 6.39847C31.4775 6.12912 31.141 5.74077 30.8957 5.2334C30.6568 4.71977 30.5373 4.10905 30.5373 3.40124C30.5373 2.69343 30.6568 2.08584 30.8957 1.57848C31.141 1.06485 31.4775 0.673358 31.9051 0.404015C32.3328 0.134672 32.8202 0 33.3673 0C33.9145 0 34.4019 0.134672 34.8295 0.404015C35.2572 0.673358 35.5905 1.06485 35.8295 1.57848C36.0748 2.08584 36.1974 2.69343 36.1974 3.40124C36.1974 4.10905 36.0748 4.71977 35.8295 5.2334C35.5905 5.74077 35.2572 6.12912 34.8295 6.39847C34.4019 6.66781 33.9145 6.80248 33.3673 6.80248ZM33.3673 5.51527C33.7698 5.51527 34.0843 5.34302 34.3107 4.99851C34.5434 4.654 34.6597 4.12158 34.6597 3.40124C34.6597 2.6809 34.5434 2.14848 34.3107 1.80397C34.0843 1.45946 33.7698 1.28721 33.3673 1.28721C32.9711 1.28721 32.6567 1.45946 32.424 1.80397C32.1976 2.14848 32.0844 2.6809 32.0844 3.40124C32.0844 4.12158 32.1976 4.654 32.424 4.99851C32.6567 5.34302 32.9711 5.51527 33.3673 5.51527Z" fill="white"/>
<path d="M39.77 6.80248C39.2229 6.80248 38.7355 6.66781 38.3078 6.39847C37.8802 6.12912 37.5437 5.74077 37.2984 5.2334C37.0594 4.71977 36.9399 4.10905 36.9399 3.40124C36.9399 2.69343 37.0594 2.08584 37.2984 1.57848C37.5437 1.06485 37.8802 0.673358 38.3078 0.404015C38.7355 0.134672 39.2229 0 39.77 0C40.3172 0 40.8046 0.134672 41.2322 0.404015C41.6599 0.673358 41.9932 1.06485 42.2322 1.57848C42.4775 2.08584 42.6001 2.69343 42.6001 3.40124C42.6001 4.10905 42.4775 4.71977 42.2322 5.2334C41.9932 5.74077 41.6599 6.12912 41.2322 6.39847C40.8046 6.66781 40.3172 6.80248 39.77 6.80248ZM39.77 5.51527C40.1725 5.51527 40.487 5.34302 40.7134 4.99851C40.9461 4.654 41.0624 4.12158 41.0624 3.40124C41.0624 2.6809 40.9461 2.14848 40.7134 1.80397C40.487 1.45946 40.1725 1.28721 39.77 1.28721C39.3738 1.28721 39.0594 1.45946 38.8267 1.80397C38.6003 2.14848 38.4871 2.6809 38.4871 3.40124C38.4871 4.12158 38.6003 4.654 38.8267 4.99851C39.0594 5.34302 39.3738 5.51527 39.77 5.51527Z" fill="white"/>
<path d="M45.8344 0.112748V6.68973H44.3062V1.33419H42.9855V0.112748H45.8344Z" fill="white"/>
<path d="M49.8116 6.80248C49.2645 6.80248 48.7771 6.66781 48.3494 6.39847C47.9218 6.12912 47.5853 5.74077 47.34 5.2334C47.1011 4.71977 46.9816 4.10905 46.9816 3.40124C46.9816 2.69343 47.1011 2.08584 47.34 1.57848C47.5853 1.06485 47.9218 0.673358 48.3494 0.404015C48.7771 0.134672 49.2645 0 49.8116 0C50.3588 0 50.8462 0.134672 51.2738 0.404015C51.7015 0.673358 52.0348 1.06485 52.2738 1.57848C52.5191 2.08584 52.6417 2.69343 52.6417 3.40124C52.6417 4.10905 52.5191 4.71977 52.2738 5.2334C52.0348 5.74077 51.7015 6.12912 51.2738 6.39847C50.8462 6.66781 50.3588 6.80248 49.8116 6.80248ZM49.8116 5.51527C50.2141 5.51527 50.5286 5.34302 50.755 4.99851C50.9877 4.654 51.104 4.12158 51.104 3.40124C51.104 2.6809 50.9877 2.14848 50.755 1.80397C50.5286 1.45946 50.2141 1.28721 49.8116 1.28721C49.4154 1.28721 49.101 1.45946 48.8683 1.80397C48.6419 2.14848 48.5287 2.6809 48.5287 3.40124C48.5287 4.12158 48.6419 4.654 48.8683 4.99851C49.101 5.34302 49.4154 5.51527 49.8116 5.51527Z" fill="white"/>
<path d="M55.876 0.112748V6.68973H54.3478V1.33419H53.0271V0.112748H55.876Z" fill="white"/>
<path d="M59.5702 0.112748V6.68973H58.042V1.33419H56.7213V0.112748H59.5702Z" fill="white"/>
<path d="M63.5475 6.80248C63.0003 6.80248 62.5129 6.66781 62.0852 6.39847C61.6576 6.12912 61.3211 5.74077 61.0759 5.2334C60.8369 4.71977 60.7174 4.10905 60.7174 3.40124C60.7174 2.69343 60.8369 2.08584 61.0759 1.57848C61.3211 1.06485 61.6576 0.673358 62.0852 0.404015C62.5129 0.134672 63.0003 0 63.5475 0C64.0946 0 64.582 0.134672 65.0097 0.404015C65.4373 0.673358 65.7706 1.06485 66.0096 1.57848C66.2549 2.08584 66.3775 2.69343 66.3775 3.40124C66.3775 4.10905 66.2549 4.71977 66.0096 5.2334C65.7706 5.74077 65.4373 6.12912 65.0097 6.39847C64.582 6.66781 64.0946 6.80248 63.5475 6.80248ZM63.5475 5.51527C63.95 5.51527 64.2644 5.34302 64.4908 4.99851C64.7235 4.654 64.8399 4.12158 64.8399 3.40124C64.8399 2.6809 64.7235 2.14848 64.4908 1.80397C64.2644 1.45946 63.95 1.28721 63.5475 1.28721C63.1512 1.28721 62.8368 1.45946 62.6041 1.80397C62.3777 2.14848 62.2645 2.6809 62.2645 3.40124C62.2645 4.12158 62.3777 4.654 62.6041 4.99851C62.8368 5.34302 63.1512 5.51527 63.5475 5.51527Z" fill="white"/>
<path d="M69.9501 6.80248C69.403 6.80248 68.9156 6.66781 68.4879 6.39847C68.0603 6.12912 67.7238 5.74077 67.4785 5.2334C67.2395 4.71977 67.1201 4.10905 67.1201 3.40124C67.1201 2.69343 67.2395 2.08584 67.4785 1.57848C67.7238 1.06485 68.0603 0.673358 68.4879 0.404015C68.9156 0.134672 69.403 0 69.9501 0C70.4973 0 70.9847 0.134672 71.4123 0.404015C71.84 0.673358 72.1733 1.06485 72.4123 1.57848C72.6576 2.08584 72.7802 2.69343 72.7802 3.40124C72.7802 4.10905 72.6576 4.71977 72.4123 5.2334C72.1733 5.74077 71.84 6.12912 71.4123 6.39847C70.9847 6.66781 70.4973 6.80248 69.9501 6.80248ZM69.9501 5.51527C70.3526 5.51527 70.6671 5.34302 70.8935 4.99851C71.1262 4.654 71.2425 4.12158 71.2425 3.40124C71.2425 2.6809 71.1262 2.14848 70.8935 1.80397C70.6671 1.45946 70.3526 1.28721 69.9501 1.28721C69.5539 1.28721 69.2395 1.45946 69.0068 1.80397C68.7804 2.14848 68.6672 2.6809 68.6672 3.40124C68.6672 4.12158 68.7804 4.654 69.0068 4.99851C69.2395 5.34302 69.5539 5.51527 69.9501 5.51527Z" fill="white"/>
<path d="M76.3528 6.80248C75.8057 6.80248 75.3183 6.66781 74.8906 6.39847C74.463 6.12912 74.1265 5.74077 73.8812 5.2334C73.6422 4.71977 73.5227 4.10905 73.5227 3.40124C73.5227 2.69343 73.6422 2.08584 73.8812 1.57848C74.1265 1.06485 74.463 0.673358 74.8906 0.404015C75.3183 0.134672 75.8057 0 76.3528 0C76.9 0 77.3874 0.134672 77.815 0.404015C78.2427 0.673358 78.576 1.06485 78.815 1.57848C79.0603 2.08584 79.1829 2.69343 79.1829 3.40124C79.1829 4.10905 79.0603 4.71977 78.815 5.2334C78.576 5.74077 78.2427 6.12912 77.815 6.39847C77.3874 6.66781 76.9 6.80248 76.3528 6.80248ZM76.3528 5.51527C76.7553 5.51527 77.0698 5.34302 77.2962 4.99851C77.5289 4.654 77.6452 4.12158 77.6452 3.40124C77.6452 2.6809 77.5289 2.14848 77.2962 1.80397C77.0698 1.45946 76.7553 1.28721 76.3528 1.28721C75.9566 1.28721 75.6421 1.45946 75.4095 1.80397C75.183 2.14848 75.0698 2.6809 75.0698 3.40124C75.0698 4.12158 75.183 4.654 75.4095 4.99851C75.6421 5.34302 75.9566 5.51527 76.3528 5.51527Z" fill="white"/>
<path d="M82.4172 0.112748V6.68973H80.889V1.33419H79.5683V0.112748H82.4172Z" fill="white"/>
<path d="M86.3944 6.80248C85.8473 6.80248 85.3599 6.66781 84.9322 6.39847C84.5046 6.12912 84.1681 5.74077 83.9228 5.2334C83.6838 4.71977 83.5644 4.10905 83.5644 3.40124C83.5644 2.69343 83.6838 2.08584 83.9228 1.57848C84.1681 1.06485 84.5046 0.673358 84.9322 0.404015C85.3599 0.134672 85.8473 0 86.3944 0C86.9416 0 87.429 0.134672 87.8566 0.404015C88.2843 0.673358 88.6176 1.06485 88.8566 1.57848C89.1019 2.08584 89.2245 2.69343 89.2245 3.40124C89.2245 4.10905 89.1019 4.71977 88.8566 5.2334C88.6176 5.74077 88.2843 6.12912 87.8566 6.39847C87.429 6.66781 86.9416 6.80248 86.3944 6.80248ZM86.3944 5.51527C86.7969 5.51527 87.1114 5.34302 87.3378 4.99851C87.5705 4.654 87.6868 4.12158 87.6868 3.40124C87.6868 2.6809 87.5705 2.14848 87.3378 1.80397C87.1114 1.45946 86.7969 1.28721 86.3944 1.28721C85.9982 1.28721 85.6838 1.45946 85.4511 1.80397C85.2247 2.14848 85.1115 2.6809 85.1115 3.40124C85.1115 4.12158 85.2247 4.654 85.4511 4.99851C85.6838 5.34302 85.9982 5.51527 86.3944 5.51527Z" fill="white"/>
<path d="M92.7971 6.80248C92.25 6.80248 91.7626 6.66781 91.3349 6.39847C90.9072 6.12912 90.5708 5.74077 90.3255 5.2334C90.0865 4.71977 89.967 4.10905 89.967 3.40124C89.967 2.69343 90.0865 2.08584 90.3255 1.57848C90.5708 1.06485 90.9072 0.673358 91.3349 0.404015C91.7626 0.134672 92.25 0 92.7971 0C93.3443 0 93.8317 0.134672 94.2593 0.404015C94.687 0.673358 95.0203 1.06485 95.2593 1.57848C95.5045 2.08584 95.6272 2.69343 95.6272 3.40124C95.6272 4.10905 95.5045 4.71977 95.2593 5.2334C95.0203 5.74077 94.687 6.12912 94.2593 6.39847C93.8317 6.66781 93.3443 6.80248 92.7971 6.80248ZM92.7971 5.51527C93.1996 5.51527 93.5141 5.34302 93.7405 4.99851C93.9732 4.654 94.0895 4.12158 94.0895 3.40124C94.0895 2.6809 93.9732 2.14848 93.7405 1.80397C93.5141 1.45946 93.1996 1.28721 92.7971 1.28721C92.4009 1.28721 92.0864 1.45946 91.8537 1.80397C91.6273 2.14848 91.5141 2.6809 91.5141 3.40124C91.5141 4.12158 91.6273 4.654 91.8537 4.99851C92.0864 5.34302 92.4009 5.51527 92.7971 5.51527Z" fill="white"/>
<path d="M99.1998 6.80248C98.6526 6.80248 98.1652 6.66781 97.7376 6.39847C97.3099 6.12912 96.9735 5.74077 96.7282 5.2334C96.4892 4.71977 96.3697 4.10905 96.3697 3.40124C96.3697 2.69343 96.4892 2.08584 96.7282 1.57848C96.9735 1.06485 97.3099 0.673358 97.7376 0.404015C98.1652 0.134672 98.6526 0 99.1998 0C99.7469 0 100.234 0.134672 100.662 0.404015C101.09 0.673358 101.423 1.06485 101.662 1.57848C101.907 2.08584 102.03 2.69343 102.03 3.40124C102.03 4.10905 101.907 4.71977 101.662 5.2334C101.423 5.74077 101.09 6.12912 100.662 6.39847C100.234 6.66781 99.7469 6.80248 99.1998 6.80248ZM99.1998 5.51527C99.6023 5.51527 99.9167 5.34302 100.143 4.99851C100.376 4.654 100.492 4.12158 100.492 3.40124C100.492 2.6809 100.376 2.14848 100.143 1.80397C99.9167 1.45946 99.6023 1.28721 99.1998 1.28721C98.8036 1.28721 98.4891 1.45946 98.2564 1.80397C98.03 2.14848 97.9168 2.6809 97.9168 3.40124C97.9168 4.12158 98.03 4.654 98.2564 4.99851C98.4891 5.34302 98.8036 5.51527 99.1998 5.51527Z" fill="white"/>
<path d="M105.264 0.112748V6.68973H103.736V1.33419H102.415V0.112748H105.264Z" fill="white"/>
<path d="M108.958 0.112748V6.68973H107.43V1.33419H106.109V0.112748H108.958Z" fill="white"/>
<path d="M112.936 6.80248C112.388 6.80248 111.901 6.66781 111.473 6.39847C111.046 6.12912 110.709 5.74077 110.464 5.2334C110.225 4.71977 110.106 4.10905 110.106 3.40124C110.106 2.69343 110.225 2.08584 110.464 1.57848C110.709 1.06485 111.046 0.673358 111.473 0.404015C111.901 0.134672 112.388 0 112.936 0C113.483 0 113.97 0.134672 114.398 0.404015C114.825 0.673358 115.159 1.06485 115.398 1.57848C115.643 2.08584 115.766 2.69343 115.766 3.40124C115.766 4.10905 115.643 4.71977 115.398 5.2334C115.159 5.74077 114.825 6.12912 114.398 6.39847C113.97 6.66781 113.483 6.80248 112.936 6.80248ZM112.936 5.51527C113.338 5.51527 113.653 5.34302 113.879 4.99851C114.112 4.654 114.228 4.12158 114.228 3.40124C114.228 2.6809 114.112 2.14848 113.879 1.80397C113.653 1.45946 113.338 1.28721 112.936 1.28721C112.539 1.28721 112.225 1.45946 111.992 1.80397C111.766 2.14848 111.653 2.6809 111.653 3.40124C111.653 4.12158 111.766 4.654 111.992 4.99851C112.225 5.34302 112.539 5.51527 112.936 5.51527Z" fill="white"/>
<path d="M119 0.112748V6.68973H117.472V1.33419H116.151V0.112748H119Z" fill="white"/>
<path d="M3.13195 18.9012C2.5848 18.9012 2.0974 18.7666 1.66975 18.4972C1.24209 18.2279 0.905625 17.8395 0.660351 17.3322C0.421367 16.8185 0.301875 16.2078 0.301875 15.5C0.301875 14.7922 0.421367 14.1846 0.660351 13.6772C0.905625 13.1636 1.24209 12.7721 1.66975 12.5028C2.0974 12.2334 2.5848 12.0988 3.13195 12.0988C3.6791 12.0988 4.1665 12.2334 4.59416 12.5028C5.02181 12.7721 5.35513 13.1636 5.59412 13.6772C5.83939 14.1846 5.96203 14.7922 5.96203 15.5C5.96203 16.2078 5.83939 16.8185 5.59412 17.3322C5.35513 17.8395 5.02181 18.2279 4.59416 18.4972C4.1665 18.7666 3.6791 18.9012 3.13195 18.9012ZM3.13195 17.614C3.53445 17.614 3.8489 17.4418 4.07531 17.0973C4.30801 16.7528 4.42435 16.2203 4.42435 15.5C4.42435 14.7797 4.30801 14.2472 4.07531 13.9027C3.8489 13.5582 3.53445 13.386 3.13195 13.386C2.73574 13.386 2.42129 13.5582 2.18859 13.9027C1.96219 14.2472 1.84898 14.7797 1.84898 15.5C1.84898 16.2203 1.96219 16.7528 2.18859 17.0973C2.42129 17.4418 2.73574 17.614 3.13195 17.614Z" fill="white"/>
<path d="M9.53463 18.9012C8.98748 18.9012 8.50008 18.7666 8.07242 18.4972C7.64477 18.2279 7.3083 17.8395 7.06303 17.3322C6.82405 16.8185 6.70455 16.2078 6.70455 15.5C6.70455 14.7922 6.82405 14.1846 7.06303 13.6772C7.3083 13.1636 7.64477 12.7721 8.07242 12.5028C8.50008 12.2334 8.98748 12.0988 9.53463 12.0988C10.0818 12.0988 10.5692 12.2334 10.9968 12.5028C11.4245 12.7721 11.7578 13.1636 11.9968 13.6772C12.2421 14.1846 12.3647 14.7922 12.3647 15.5C12.3647 16.2078 12.2421 16.8185 11.9968 17.3322C11.7578 17.8395 11.4245 18.2279 10.9968 18.4972C10.5692 18.7666 10.0818 18.9012 9.53463 18.9012ZM9.53463 17.614C9.93713 17.614 10.2516 17.4418 10.478 17.0973C10.7107 16.7528 10.827 16.2203 10.827 15.5C10.827 14.7797 10.7107 14.2472 10.478 13.9027C10.2516 13.5582 9.93713 13.386 9.53463 13.386C9.13842 13.386 8.82397 13.5582 8.59127 13.9027C8.36487 14.2472 8.25166 14.7797 8.25166 15.5C8.25166 16.2203 8.36487 16.7528 8.59127 17.0973C8.82397 17.4418 9.13842 17.614 9.53463 17.614Z" fill="white"/>
<path d="M15.599 12.2115V18.7885H14.0708V13.4329H12.7501V12.2115H15.599Z" fill="white"/>
<path d="M19.2932 12.2115V18.7885H17.765V13.4329H16.4443V12.2115H19.2932Z" fill="white"/>
<path d="M23.2705 18.9012C22.7233 18.9012 22.2359 18.7666 21.8082 18.4972C21.3806 18.2279 21.0441 17.8395 20.7989 17.3322C20.5599 16.8185 20.4404 16.2078 20.4404 15.5C20.4404 14.7922 20.5599 14.1846 20.7989 13.6772C21.0441 13.1636 21.3806 12.7721 21.8082 12.5028C22.2359 12.2334 22.7233 12.0988 23.2705 12.0988C23.8176 12.0988 24.305 12.2334 24.7327 12.5028C25.1603 12.7721 25.4936 13.1636 25.7326 13.6772C25.9779 14.1846 26.1005 14.7922 26.1005 15.5C26.1005 16.2078 25.9779 16.8185 25.7326 17.3322C25.4936 17.8395 25.1603 18.2279 24.7327 18.4972C24.305 18.7666 23.8176 18.9012 23.2705 18.9012ZM23.2705 17.614C23.673 17.614 23.9874 17.4418 24.2138 17.0973C24.4465 16.7528 24.5629 16.2203 24.5629 15.5C24.5629 14.7797 24.4465 14.2472 24.2138 13.9027C23.9874 13.5582 23.673 13.386 23.2705 13.386C22.8742 13.386 22.5598 13.5582 22.3271 13.9027C22.1007 14.2472 21.9875 14.7797 21.9875 15.5C21.9875 16.2203 22.1007 16.7528 22.3271 17.0973C22.5598 17.4418 22.8742 17.614 23.2705 17.614Z" fill="white"/>
<path d="M29.6731 18.9012C29.126 18.9012 28.6386 18.7666 28.2109 18.4972C27.7833 18.2279 27.4468 17.8395 27.2015 17.3322C26.9625 16.8185 26.8431 16.2078 26.8431 15.5C26.8431 14.7922 26.9625 14.1846 27.2015 13.6772C27.4468 13.1636 27.7833 12.7721 28.2109 12.5028C28.6386 12.2334 29.126 12.0988 29.6731 12.0988C30.2203 12.0988 30.7077 12.2334 31.1353 12.5028C31.563 12.7721 31.8963 13.1636 32.1353 13.6772C32.3806 14.1846 32.5032 14.7922 32.5032 15.5C32.5032 16.2078 32.3806 16.8185 32.1353 17.3322C31.8963 17.8395 31.563 18.2279 31.1353 18.4972C30.7077 18.7666 30.2203 18.9012 29.6731 18.9012ZM29.6731 17.614C30.0756 17.614 30.3901 17.4418 30.6165 17.0973C30.8492 16.7528 30.9655 16.2203 30.9655 15.5C30.9655 14.7797 30.8492 14.2472 30.6165 13.9027C30.3901 13.5582 30.0756 13.386 29.6731 13.386C29.2769 13.386 28.9625 13.5582 28.7298 13.9027C28.5034 14.2472 28.3902 14.7797 28.3902 15.5C28.3902 16.2203 28.5034 16.7528 28.7298 17.0973C28.9625 17.4418 29.2769 17.614 29.6731 17.614Z" fill="white"/>
<path d="M36.0758 18.9012C35.5287 18.9012 35.0413 18.7666 34.6136 18.4972C34.1859 18.2279 33.8495 17.8395 33.6042 17.3322C33.3652 16.8185 33.2457 16.2078 33.2457 15.5C33.2457 14.7922 33.3652 14.1846 33.6042 13.6772C33.8495 13.1636 34.1859 12.7721 34.6136 12.5028C35.0413 12.2334 35.5287 12.0988 36.0758 12.0988C36.623 12.0988 37.1104 12.2334 37.538 12.5028C37.9657 12.7721 38.299 13.1636 38.538 13.6772C38.7833 14.1846 38.9059 14.7922 38.9059 15.5C38.9059 16.2078 38.7833 16.8185 38.538 17.3322C38.299 17.8395 37.9657 18.2279 37.538 18.4972C37.1104 18.7666 36.623 18.9012 36.0758 18.9012ZM36.0758 17.614C36.4783 17.614 36.7928 17.4418 37.0192 17.0973C37.2519 16.7528 37.3682 16.2203 37.3682 15.5C37.3682 14.7797 37.2519 14.2472 37.0192 13.9027C36.7928 13.5582 36.4783 13.386 36.0758 13.386C35.6796 13.386 35.3652 13.5582 35.1325 13.9027C34.9061 14.2472 34.7928 14.7797 34.7928 15.5C34.7928 16.2203 34.9061 16.7528 35.1325 17.0973C35.3652 17.4418 35.6796 17.614 36.0758 17.614Z" fill="white"/>
<path d="M42.4785 18.9012C41.9313 18.9012 41.4439 18.7666 41.0163 18.4972C40.5886 18.2279 40.2522 17.8395 40.0069 17.3322C39.7679 16.8185 39.6484 16.2078 39.6484 15.5C39.6484 14.7922 39.7679 14.1846 40.0069 13.6772C40.2522 13.1636 40.5886 12.7721 41.0163 12.5028C41.4439 12.2334 41.9313 12.0988 42.4785 12.0988C43.0256 12.0988 43.513 12.2334 43.9407 12.5028C44.3684 12.7721 44.7017 13.1636 44.9407 13.6772C45.1859 14.1846 45.3086 14.7922 45.3086 15.5C45.3086 16.2078 45.1859 16.8185 44.9407 17.3322C44.7017 17.8395 44.3684 18.2279 43.9407 18.4972C43.513 18.7666 43.0256 18.9012 42.4785 18.9012ZM42.4785 17.614C42.881 17.614 43.1954 17.4418 43.4219 17.0973C43.6545 16.7528 43.7709 16.2203 43.7709 15.5C43.7709 14.7797 43.6545 14.2472 43.4219 13.9027C43.1954 13.5582 42.881 13.386 42.4785 13.386C42.0823 13.386 41.7678 13.5582 41.5351 13.9027C41.3087 14.2472 41.1955 14.7797 41.1955 15.5C41.1955 16.2203 41.3087 16.7528 41.5351 17.0973C41.7678 17.4418 42.0823 17.614 42.4785 17.614Z" fill="white"/>
<path d="M48.5429 12.2115V18.7885H47.0146V13.4329H45.6939V12.2115H48.5429Z" fill="white"/>
<path d="M52.5201 18.9012C51.973 18.9012 51.4856 18.7666 51.0579 18.4972C50.6302 18.2279 50.2938 17.8395 50.0485 17.3322C49.8095 16.8185 49.69 16.2078 49.69 15.5C49.69 14.7922 49.8095 14.1846 50.0485 13.6772C50.2938 13.1636 50.6302 12.7721 51.0579 12.5028C51.4856 12.2334 51.973 12.0988 52.5201 12.0988C53.0673 12.0988 53.5547 12.2334 53.9823 12.5028C54.41 12.7721 54.7433 13.1636 54.9823 13.6772C55.2275 14.1846 55.3502 14.7922 55.3502 15.5C55.3502 16.2078 55.2275 16.8185 54.9823 17.3322C54.7433 17.8395 54.41 18.2279 53.9823 18.4972C53.5547 18.7666 53.0673 18.9012 52.5201 18.9012ZM52.5201 17.614C52.9226 17.614 53.2371 17.4418 53.4635 17.0973C53.6962 16.7528 53.8125 16.2203 53.8125 15.5C53.8125 14.7797 53.6962 14.2472 53.4635 13.9027C53.2371 13.5582 52.9226 13.386 52.5201 13.386C52.1239 13.386 51.8094 13.5582 51.5767 13.9027C51.3503 14.2472 51.2371 14.7797 51.2371 15.5C51.2371 16.2203 51.3503 16.7528 51.5767 17.0973C51.8094 17.4418 52.1239 17.614 52.5201 17.614Z" fill="white"/>
<path d="M58.5845 12.2115V18.7885H57.0563V13.4329H55.7356V12.2115H58.5845Z" fill="white"/>
<path d="M62.2787 12.2115V18.7885H60.7505V13.4329H59.4298V12.2115H62.2787Z" fill="white"/>
<path d="M66.2559 18.9012C65.7088 18.9012 65.2214 18.7666 64.7937 18.4972C64.3661 18.2279 64.0296 17.8395 63.7843 17.3322C63.5453 16.8185 63.4258 16.2078 63.4258 15.5C63.4258 14.7922 63.5453 14.1846 63.7843 13.6772C64.0296 13.1636 64.3661 12.7721 64.7937 12.5028C65.2214 12.2334 65.7088 12.0988 66.2559 12.0988C66.8031 12.0988 67.2905 12.2334 67.7181 12.5028C68.1458 12.7721 68.4791 13.1636 68.7181 13.6772C68.9634 14.1846 69.086 14.7922 69.086 15.5C69.086 16.2078 68.9634 16.8185 68.7181 17.3322C68.4791 17.8395 68.1458 18.2279 67.7181 18.4972C67.2905 18.7666 66.8031 18.9012 66.2559 18.9012ZM66.2559 17.614C66.6584 17.614 66.9729 17.4418 67.1993 17.0973C67.432 16.7528 67.5483 16.2203 67.5483 15.5C67.5483 14.7797 67.432 14.2472 67.1993 13.9027C66.9729 13.5582 66.6584 13.386 66.2559 13.386C65.8597 13.386 65.5453 13.5582 65.3126 13.9027C65.0862 14.2472 64.973 14.7797 64.973 15.5C64.973 16.2203 65.0862 16.7528 65.3126 17.0973C65.5453 17.4418 65.8597 17.614 66.2559 17.614Z" fill="white"/>
<path d="M72.6586 18.9012C72.1115 18.9012 71.6241 18.7666 71.1964 18.4972C70.7687 18.2279 70.4323 17.8395 70.187 17.3322C69.948 16.8185 69.8285 16.2078 69.8285 15.5C69.8285 14.7922 69.948 14.1846 70.187 13.6772C70.4323 13.1636 70.7687 12.7721 71.1964 12.5028C71.6241 12.2334 72.1115 12.0988 72.6586 12.0988C73.2058 12.0988 73.6932 12.2334 74.1208 12.5028C74.5485 12.7721 74.8818 13.1636 75.1208 13.6772C75.366 14.1846 75.4887 14.7922 75.4887 15.5C75.4887 16.2078 75.366 16.8185 75.1208 17.3322C74.8818 17.8395 74.5485 18.2279 74.1208 18.4972C73.6932 18.7666 73.2058 18.9012 72.6586 18.9012ZM72.6586 17.614C73.0611 17.614 73.3756 17.4418 73.602 17.0973C73.8347 16.7528 73.951 16.2203 73.951 15.5C73.951 14.7797 73.8347 14.2472 73.602 13.9027C73.3756 13.5582 73.0611 13.386 72.6586 13.386C72.2624 13.386 71.9479 13.5582 71.7152 13.9027C71.4888 14.2472 71.3756 14.7797 71.3756 15.5C71.3756 16.2203 71.4888 16.7528 71.7152 17.0973C71.9479 17.4418 72.2624 17.614 72.6586 17.614Z" fill="white"/>
<path d="M78.723 12.2115V18.7885H77.1948V13.4329H75.8741V12.2115H78.723Z" fill="white"/>
<path d="M82.4172 12.2115V18.7885H80.889V13.4329H79.5683V12.2115H82.4172Z" fill="white"/>
<path d="M86.3944 18.9012C85.8473 18.9012 85.3599 18.7666 84.9322 18.4972C84.5046 18.2279 84.1681 17.8395 83.9228 17.3322C83.6838 16.8185 83.5644 16.2078 83.5644 15.5C83.5644 14.7922 83.6838 14.1846 83.9228 13.6772C84.1681 13.1636 84.5046 12.7721 84.9322 12.5028C85.3599 12.2334 85.8473 12.0988 86.3944 12.0988C86.9416 12.0988 87.429 12.2334 87.8566 12.5028C88.2843 12.7721 88.6176 13.1636 88.8566 13.6772C89.1019 14.1846 89.2245 14.7922 89.2245 15.5C89.2245 16.2078 89.1019 16.8185 88.8566 17.3322C88.6176 17.8395 88.2843 18.2279 87.8566 18.4972C87.429 18.7666 86.9416 18.9012 86.3944 18.9012ZM86.3944 17.614C86.7969 17.614 87.1114 17.4418 87.3378 17.0973C87.5705 16.7528 87.6868 16.2203 87.6868 15.5C87.6868 14.7797 87.5705 14.2472 87.3378 13.9027C87.1114 13.5582 86.7969 13.386 86.3944 13.386C85.9982 13.386 85.6838 13.5582 85.4511 13.9027C85.2247 14.2472 85.1115 14.7797 85.1115 15.5C85.1115 16.2203 85.2247 16.7528 85.4511 17.0973C85.6838 17.4418 85.9982 17.614 86.3944 17.614Z" fill="white"/>
<path d="M92.7971 18.9012C92.25 18.9012 91.7626 18.7666 91.3349 18.4972C90.9072 18.2279 90.5708 17.8395 90.3255 17.3322C90.0865 16.8185 89.967 16.2078 89.967 15.5C89.967 14.7922 90.0865 14.1846 90.3255 13.6772C90.5708 13.1636 90.9072 12.7721 91.3349 12.5028C91.7626 12.2334 92.25 12.0988 92.7971 12.0988C93.3443 12.0988 93.8317 12.2334 94.2593 12.5028C94.687 12.7721 95.0203 13.1636 95.2593 13.6772C95.5045 14.1846 95.6272 14.7922 95.6272 15.5C95.6272 16.2078 95.5045 16.8185 95.2593 17.3322C95.0203 17.8395 94.687 18.2279 94.2593 18.4972C93.8317 18.7666 93.3443 18.9012 92.7971 18.9012ZM92.7971 17.614C93.1996 17.614 93.5141 17.4418 93.7405 17.0973C93.9732 16.7528 94.0895 16.2203 94.0895 15.5C94.0895 14.7797 93.9732 14.2472 93.7405 13.9027C93.5141 13.5582 93.1996 13.386 92.7971 13.386C92.4009 13.386 92.0864 13.5582 91.8537 13.9027C91.6273 14.2472 91.5141 14.7797 91.5141 15.5C91.5141 16.2203 91.6273 16.7528 91.8537 17.0973C92.0864 17.4418 92.4009 17.614 92.7971 17.614Z" fill="white"/>
<path d="M99.1998 18.9012C98.6526 18.9012 98.1652 18.7666 97.7376 18.4972C97.3099 18.2279 96.9735 17.8395 96.7282 17.3322C96.4892 16.8185 96.3697 16.2078 96.3697 15.5C96.3697 14.7922 96.4892 14.1846 96.7282 13.6772C96.9735 13.1636 97.3099 12.7721 97.7376 12.5028C98.1652 12.2334 98.6526 12.0988 99.1998 12.0988C99.7469 12.0988 100.234 12.2334 100.662 12.5028C101.09 12.7721 101.423 13.1636 101.662 13.6772C101.907 14.1846 102.03 14.7922 102.03 15.5C102.03 16.2078 101.907 16.8185 101.662 17.3322C101.423 17.8395 101.09 18.2279 100.662 18.4972C100.234 18.7666 99.7469 18.9012 99.1998 18.9012ZM99.1998 17.614C99.6023 17.614 99.9167 17.4418 100.143 17.0973C100.376 16.7528 100.492 16.2203 100.492 15.5C100.492 14.7797 100.376 14.2472 100.143 13.9027C99.9167 13.5582 99.6023 13.386 99.1998 13.386C98.8036 13.386 98.4891 13.5582 98.2564 13.9027C98.03 14.2472 97.9168 14.7797 97.9168 15.5C97.9168 16.2203 98.03 16.7528 98.2564 17.0973C98.4891 17.4418 98.8036 17.614 99.1998 17.614Z" fill="white"/>
<path d="M105.264 12.2115V18.7885H103.736V13.4329H102.415V12.2115H105.264Z" fill="white"/>
<path d="M109.241 18.9012C108.694 18.9012 108.207 18.7666 107.779 18.4972C107.352 18.2279 107.015 17.8395 106.77 17.3322C106.531 16.8185 106.411 16.2078 106.411 15.5C106.411 14.7922 106.531 14.1846 106.77 13.6772C107.015 13.1636 107.352 12.7721 107.779 12.5028C108.207 12.2334 108.694 12.0988 109.241 12.0988C109.789 12.0988 110.276 12.2334 110.704 12.5028C111.131 12.7721 111.465 13.1636 111.704 13.6772C111.949 14.1846 112.071 14.7922 112.071 15.5C112.071 16.2078 111.949 16.8185 111.704 17.3322C111.465 17.8395 111.131 18.2279 110.704 18.4972C110.276 18.7666 109.789 18.9012 109.241 18.9012ZM109.241 17.614C109.644 17.614 109.958 17.4418 110.185 17.0973C110.417 16.7528 110.534 16.2203 110.534 15.5C110.534 14.7797 110.417 14.2472 110.185 13.9027C109.958 13.5582 109.644 13.386 109.241 13.386C108.845 13.386 108.531 13.5582 108.298 13.9027C108.072 14.2472 107.958 14.7797 107.958 15.5C107.958 16.2203 108.072 16.7528 108.298 17.0973C108.531 17.4418 108.845 17.614 109.241 17.614Z" fill="white"/>
<path d="M115.306 12.2115V18.7885H113.778V13.4329H112.457V12.2115H115.306Z" fill="white"/>
<path d="M119 12.2115V18.7885H117.472V13.4329H116.151V12.2115H119Z" fill="white"/>
<path d="M3.13195 31C2.5848 31 2.0974 30.8653 1.66975 30.596C1.24209 30.3266 0.905625 29.9383 0.660351 29.4309C0.421367 28.9173 0.301875 28.3066 0.301875 27.5988C0.301875 26.8909 0.421367 26.2834 0.660351 25.776C0.905625 25.2624 1.24209 24.8709 1.66975 24.6015C2.0974 24.3322 2.5848 24.1975 3.13195 24.1975C3.6791 24.1975 4.1665 24.3322 4.59416 24.6015C5.02181 24.8709 5.35513 25.2624 5.59412 25.776C5.83939 26.2834 5.96203 26.8909 5.96203 27.5988C5.96203 28.3066 5.83939 28.9173 5.59412 29.4309C5.35513 29.9383 5.02181 30.3266 4.59416 30.596C4.1665 30.8653 3.6791 31 3.13195 31ZM3.13195 29.7128C3.53445 29.7128 3.8489 29.5405 4.07531 29.196C4.30801 28.8515 4.42435 28.3191 4.42435 27.5988C4.42435 26.8784 4.30801 26.346 4.07531 26.0015C3.8489 25.657 3.53445 25.4847 3.13195 25.4847C2.73574 25.4847 2.42129 25.657 2.18859 26.0015C1.96219 26.346 1.84898 26.8784 1.84898 27.5988C1.84898 28.3191 1.96219 28.8515 2.18859 29.196C2.42129 29.5405 2.73574 29.7128 3.13195 29.7128Z" fill="white"/>
<path d="M9.53463 31C8.98748 31 8.50008 30.8653 8.07242 30.596C7.64477 30.3266 7.3083 29.9383 7.06303 29.4309C6.82405 28.9173 6.70455 28.3066 6.70455 27.5988C6.70455 26.8909 6.82405 26.2834 7.06303 25.776C7.3083 25.2624 7.64477 24.8709 8.07242 24.6015C8.50008 24.3322 8.98748 24.1975 9.53463 24.1975C10.0818 24.1975 10.5692 24.3322 10.9968 24.6015C11.4245 24.8709 11.7578 25.2624 11.9968 25.776C12.2421 26.2834 12.3647 26.8909 12.3647 27.5988C12.3647 28.3066 12.2421 28.9173 11.9968 29.4309C11.7578 29.9383 11.4245 30.3266 10.9968 30.596C10.5692 30.8653 10.0818 31 9.53463 31ZM9.53463 29.7128C9.93713 29.7128 10.2516 29.5405 10.478 29.196C10.7107 28.8515 10.827 28.3191 10.827 27.5988C10.827 26.8784 10.7107 26.346 10.478 26.0015C10.2516 25.657 9.93713 25.4847 9.53463 25.4847C9.13842 25.4847 8.82397 25.657 8.59127 26.0015C8.36487 26.346 8.25166 26.8784 8.25166 27.5988C8.25166 28.3191 8.36487 28.8515 8.59127 29.196C8.82397 29.5405 9.13842 29.7128 9.53463 29.7128Z" fill="white"/>
<path d="M15.9373 31C15.3902 31 14.9028 30.8653 14.4751 30.596C14.0474 30.3266 13.711 29.9383 13.4657 29.4309C13.2267 28.9173 13.1072 28.3066 13.1072 27.5988C13.1072 26.8909 13.2267 26.2834 13.4657 25.776C13.711 25.2624 14.0474 24.8709 14.4751 24.6015C14.9028 24.3322 15.3902 24.1975 15.9373 24.1975C16.4845 24.1975 16.9719 24.3322 17.3995 24.6015C17.8272 24.8709 18.1605 25.2624 18.3995 25.776C18.6448 26.2834 18.7674 26.8909 18.7674 27.5988C18.7674 28.3066 18.6448 28.9173 18.3995 29.4309C18.1605 29.9383 17.8272 30.3266 17.3995 30.596C16.9719 30.8653 16.4845 31 15.9373 31ZM15.9373 29.7128C16.3398 29.7128 16.6543 29.5405 16.8807 29.196C17.1134 28.8515 17.2297 28.3191 17.2297 27.5988C17.2297 26.8784 17.1134 26.346 16.8807 26.0015C16.6543 25.657 16.3398 25.4847 15.9373 25.4847C15.5411 25.4847 15.2266 25.657 14.994 26.0015C14.7675 26.346 14.6543 26.8784 14.6543 27.5988C14.6543 28.3191 14.7675 28.8515 14.994 29.196C15.2266 29.5405 15.5411 29.7128 15.9373 29.7128Z" fill="white"/>
<path d="M22.0017 24.3103V30.8873H20.4735V25.5317H19.1528V24.3103H22.0017Z" fill="white"/>
<path d="M25.9789 31C25.4318 31 24.9444 30.8653 24.5167 30.596C24.0891 30.3266 23.7526 29.9383 23.5073 29.4309C23.2683 28.9173 23.1488 28.3066 23.1488 27.5988C23.1488 26.8909 23.2683 26.2834 23.5073 25.776C23.7526 25.2624 24.0891 24.8709 24.5167 24.6015C24.9444 24.3322 25.4318 24.1975 25.9789 24.1975C26.5261 24.1975 27.0135 24.3322 27.4411 24.6015C27.8688 24.8709 28.2021 25.2624 28.4411 25.776C28.6864 26.2834 28.809 26.8909 28.809 27.5988C28.809 28.3066 28.6864 28.9173 28.4411 29.4309C28.2021 29.9383 27.8688 30.3266 27.4411 30.596C27.0135 30.8653 26.5261 31 25.9789 31ZM25.9789 29.7128C26.3814 29.7128 26.6959 29.5405 26.9223 29.196C27.155 28.8515 27.2713 28.3191 27.2713 27.5988C27.2713 26.8784 27.155 26.346 26.9223 26.0015C26.6959 25.657 26.3814 25.4847 25.9789 25.4847C25.5827 25.4847 25.2683 25.657 25.0356 26.0015C24.8092 26.346 24.696 26.8784 24.696 27.5988C24.696 28.3191 24.8092 28.8515 25.0356 29.196C25.2683 29.5405 25.5827 29.7128 25.9789 29.7128Z" fill="white"/>
<path d="M32.3816 31C31.8345 31 31.3471 30.8653 30.9194 30.596C30.4917 30.3266 30.1553 29.9383 29.91 29.4309C29.671 28.9173 29.5515 28.3066 29.5515 27.5988C29.5515 26.8909 29.671 26.2834 29.91 25.776C30.1553 25.2624 30.4917 24.8709 30.9194 24.6015C31.3471 24.3322 31.8345 24.1975 32.3816 24.1975C32.9288 24.1975 33.4162 24.3322 33.8438 24.6015C34.2715 24.8709 34.6048 25.2624 34.8438 25.776C35.089 26.2834 35.2117 26.8909 35.2117 27.5988C35.2117 28.3066 35.089 28.9173 34.8438 29.4309C34.6048 29.9383 34.2715 30.3266 33.8438 30.596C33.4162 30.8653 32.9288 31 32.3816 31ZM32.3816 29.7128C32.7841 29.7128 33.0986 29.5405 33.325 29.196C33.5577 28.8515 33.674 28.3191 33.674 27.5988C33.674 26.8784 33.5577 26.346 33.325 26.0015C33.0986 25.657 32.7841 25.4847 32.3816 25.4847C31.9854 25.4847 31.6709 25.657 31.4382 26.0015C31.2118 26.346 31.0986 26.8784 31.0986 27.5988C31.0986 28.3191 31.2118 28.8515 31.4382 29.196C31.6709 29.5405 31.9854 29.7128 32.3816 29.7128Z" fill="white"/>
<path d="M38.7843 31C38.2371 31 37.7497 30.8653 37.3221 30.596C36.8944 30.3266 36.558 29.9383 36.3127 29.4309C36.0737 28.9173 35.9542 28.3066 35.9542 27.5988C35.9542 26.8909 36.0737 26.2834 36.3127 25.776C36.558 25.2624 36.8944 24.8709 37.3221 24.6015C37.7497 24.3322 38.2371 24.1975 38.7843 24.1975C39.3314 24.1975 39.8188 24.3322 40.2465 24.6015C40.6742 24.8709 41.0075 25.2624 41.2465 25.776C41.4917 26.2834 41.6144 26.8909 41.6144 27.5988C41.6144 28.3066 41.4917 28.9173 41.2465 29.4309C41.0075 29.9383 40.6742 30.3266 40.2465 30.596C39.8188 30.8653 39.3314 31 38.7843 31ZM38.7843 29.7128C39.1868 29.7128 39.5012 29.5405 39.7276 29.196C39.9603 28.8515 40.0767 28.3191 40.0767 27.5988C40.0767 26.8784 39.9603 26.346 39.7276 26.0015C39.5012 25.657 39.1868 25.4847 38.7843 25.4847C38.3881 25.4847 38.0736 25.657 37.8409 26.0015C37.6145 26.346 37.5013 26.8784 37.5013 27.5988C37.5013 28.3191 37.6145 28.8515 37.8409 29.196C38.0736 29.5405 38.3881 29.7128 38.7843 29.7128Z" fill="white"/>
<path d="M44.8487 24.3103V30.8873H43.3204V25.5317H41.9997V24.3103H44.8487Z" fill="white"/>
<path d="M48.5429 24.3103V30.8873H47.0146V25.5317H45.6939V24.3103H48.5429Z" fill="white"/>
<path d="M52.5201 31C51.973 31 51.4856 30.8653 51.0579 30.596C50.6302 30.3266 50.2938 29.9383 50.0485 29.4309C49.8095 28.9173 49.69 28.3066 49.69 27.5988C49.69 26.8909 49.8095 26.2834 50.0485 25.776C50.2938 25.2624 50.6302 24.8709 51.0579 24.6015C51.4856 24.3322 51.973 24.1975 52.5201 24.1975C53.0673 24.1975 53.5547 24.3322 53.9823 24.6015C54.41 24.8709 54.7433 25.2624 54.9823 25.776C55.2275 26.2834 55.3502 26.8909 55.3502 27.5988C55.3502 28.3066 55.2275 28.9173 54.9823 29.4309C54.7433 29.9383 54.41 30.3266 53.9823 30.596C53.5547 30.8653 53.0673 31 52.5201 31ZM52.5201 29.7128C52.9226 29.7128 53.2371 29.5405 53.4635 29.196C53.6962 28.8515 53.8125 28.3191 53.8125 27.5988C53.8125 26.8784 53.6962 26.346 53.4635 26.0015C53.2371 25.657 52.9226 25.4847 52.5201 25.4847C52.1239 25.4847 51.8094 25.657 51.5767 26.0015C51.3503 26.346 51.2371 26.8784 51.2371 27.5988C51.2371 28.3191 51.3503 28.8515 51.5767 29.196C51.8094 29.5405 52.1239 29.7128 52.5201 29.7128Z" fill="white"/>
<path d="M58.5845 24.3103V30.8873H57.0563V25.5317H55.7356V24.3103H58.5845Z" fill="white"/>
<path d="M62.5617 31C62.0146 31 61.5272 30.8653 61.0995 30.596C60.6719 30.3266 60.3354 29.9383 60.0901 29.4309C59.8511 28.9173 59.7316 28.3066 59.7316 27.5988C59.7316 26.8909 59.8511 26.2834 60.0901 25.776C60.3354 25.2624 60.6719 24.8709 61.0995 24.6015C61.5272 24.3322 62.0146 24.1975 62.5617 24.1975C63.1089 24.1975 63.5963 24.3322 64.0239 24.6015C64.4516 24.8709 64.7849 25.2624 65.0239 25.776C65.2692 26.2834 65.3918 26.8909 65.3918 27.5988C65.3918 28.3066 65.2692 28.9173 65.0239 29.4309C64.7849 29.9383 64.4516 30.3266 64.0239 30.596C63.5963 30.8653 63.1089 31 62.5617 31ZM62.5617 29.7128C62.9642 29.7128 63.2787 29.5405 63.5051 29.196C63.7378 28.8515 63.8541 28.3191 63.8541 27.5988C63.8541 26.8784 63.7378 26.346 63.5051 26.0015C63.2787 25.657 62.9642 25.4847 62.5617 25.4847C62.1655 25.4847 61.8511 25.657 61.6184 26.0015C61.392 26.346 61.2788 26.8784 61.2788 27.5988C61.2788 28.3191 61.392 28.8515 61.6184 29.196C61.8511 29.5405 62.1655 29.7128 62.5617 29.7128Z" fill="white"/>
<path d="M68.9644 31C68.4173 31 67.9299 30.8653 67.5022 30.596C67.0745 30.3266 66.7381 29.9383 66.4928 29.4309C66.2538 28.9173 66.1343 28.3066 66.1343 27.5988C66.1343 26.8909 66.2538 26.2834 66.4928 25.776C66.7381 25.2624 67.0745 24.8709 67.5022 24.6015C67.9299 24.3322 68.4173 24.1975 68.9644 24.1975C69.5115 24.1975 69.9989 24.3322 70.4266 24.6015C70.8543 24.8709 71.1876 25.2624 71.4266 25.776C71.6718 26.2834 71.7945 26.8909 71.7945 27.5988C71.7945 28.3066 71.6718 28.9173 71.4266 29.4309C71.1876 29.9383 70.8543 30.3266 70.4266 30.596C69.9989 30.8653 69.5115 31 68.9644 31ZM68.9644 29.7128C69.3669 29.7128 69.6814 29.5405 69.9078 29.196C70.1405 28.8515 70.2568 28.3191 70.2568 27.5988C70.2568 26.8784 70.1405 26.346 69.9078 26.0015C69.6814 25.657 69.3669 25.4847 68.9644 25.4847C68.5682 25.4847 68.2537 25.657 68.021 26.0015C67.7946 26.346 67.6814 26.8784 67.6814 27.5988C67.6814 28.3191 67.7946 28.8515 68.021 29.196C68.2537 29.5405 68.5682 29.7128 68.9644 29.7128Z" fill="white"/>
<path d="M75.0288 24.3103V30.8873H73.5006V25.5317H72.1798V24.3103H75.0288Z" fill="white"/>
<path d="M78.723 24.3103V30.8873H77.1948V25.5317H75.8741V24.3103H78.723Z" fill="white"/>
<path d="M82.7002 31C82.1531 31 81.6657 30.8653 81.238 30.596C80.8104 30.3266 80.4739 29.9383 80.2286 29.4309C79.9896 28.9173 79.8701 28.3066 79.8701 27.5988C79.8701 26.8909 79.9896 26.2834 80.2286 25.776C80.4739 25.2624 80.8104 24.8709 81.238 24.6015C81.6657 24.3322 82.1531 24.1975 82.7002 24.1975C83.2474 24.1975 83.7348 24.3322 84.1624 24.6015C84.5901 24.8709 84.9234 25.2624 85.1624 25.776C85.4077 26.2834 85.5303 26.8909 85.5303 27.5988C85.5303 28.3066 85.4077 28.9173 85.1624 29.4309C84.9234 29.9383 84.5901 30.3266 84.1624 30.596C83.7348 30.8653 83.2474 31 82.7002 31ZM82.7002 29.7128C83.1027 29.7128 83.4172 29.5405 83.6436 29.196C83.8763 28.8515 83.9926 28.3191 83.9926 27.5988C83.9926 26.8784 83.8763 26.346 83.6436 26.0015C83.4172 25.657 83.1027 25.4847 82.7002 25.4847C82.304 25.4847 81.9896 25.657 81.7569 26.0015C81.5305 26.346 81.4172 26.8784 81.4172 27.5988C81.4172 28.3191 81.5305 28.8515 81.7569 29.196C81.9896 29.5405 82.304 29.7128 82.7002 29.7128Z" fill="white"/>
<path d="M89.1029 31C88.5557 31 88.0683 30.8653 87.6407 30.596C87.213 30.3266 86.8766 29.9383 86.6313 29.4309C86.3923 28.9173 86.2728 28.3066 86.2728 27.5988C86.2728 26.8909 86.3923 26.2834 86.6313 25.776C86.8766 25.2624 87.213 24.8709 87.6407 24.6015C88.0683 24.3322 88.5557 24.1975 89.1029 24.1975C89.65 24.1975 90.1374 24.3322 90.5651 24.6015C90.9928 24.8709 91.3261 25.2624 91.5651 25.776C91.8103 26.2834 91.933 26.8909 91.933 27.5988C91.933 28.3066 91.8103 28.9173 91.5651 29.4309C91.3261 29.9383 90.9928 30.3266 90.5651 30.596C90.1374 30.8653 89.65 31 89.1029 31ZM89.1029 29.7128C89.5054 29.7128 89.8199 29.5405 90.0463 29.196C90.279 28.8515 90.3953 28.3191 90.3953 27.5988C90.3953 26.8784 90.279 26.346 90.0463 26.0015C89.8199 25.657 89.5054 25.4847 89.1029 25.4847C88.7067 25.4847 88.3922 25.657 88.1595 26.0015C87.9331 26.346 87.8199 26.8784 87.8199 27.5988C87.8199 28.3191 87.9331 28.8515 88.1595 29.196C88.3922 29.5405 88.7067 29.7128 89.1029 29.7128Z" fill="white"/>
<path d="M95.5056 31C94.9584 31 94.471 30.8653 94.0434 30.596C93.6157 30.3266 93.2792 29.9383 93.034 29.4309C92.795 28.9173 92.6755 28.3066 92.6755 27.5988C92.6755 26.8909 92.795 26.2834 93.034 25.776C93.2792 25.2624 93.6157 24.8709 94.0434 24.6015C94.471 24.3322 94.9584 24.1975 95.5056 24.1975C96.0527 24.1975 96.5401 24.3322 96.9678 24.6015C97.3954 24.8709 97.7288 25.2624 97.9677 25.776C98.213 26.2834 98.3357 26.8909 98.3357 27.5988C98.3357 28.3066 98.213 28.9173 97.9677 29.4309C97.7288 29.9383 97.3954 30.3266 96.9678 30.596C96.5401 30.8653 96.0527 31 95.5056 31ZM95.5056 29.7128C95.9081 29.7128 96.2225 29.5405 96.4489 29.196C96.6816 28.8515 96.798 28.3191 96.798 27.5988C96.798 26.8784 96.6816 26.346 96.4489 26.0015C96.2225 25.657 95.9081 25.4847 95.5056 25.4847C95.1094 25.4847 94.7949 25.657 94.5622 26.0015C94.3358 26.346 94.2226 26.8784 94.2226 27.5988C94.2226 28.3191 94.3358 28.8515 94.5622 29.196C94.7949 29.5405 95.1094 29.7128 95.5056 29.7128Z" fill="white"/>
<path d="M101.908 31C101.361 31 100.874 30.8653 100.446 30.596C100.018 30.3266 99.6819 29.9383 99.4367 29.4309C99.1977 28.9173 99.0782 28.3066 99.0782 27.5988C99.0782 26.8909 99.1977 26.2834 99.4367 25.776C99.6819 25.2624 100.018 24.8709 100.446 24.6015C100.874 24.3322 101.361 24.1975 101.908 24.1975C102.455 24.1975 102.943 24.3322 103.37 24.6015C103.798 24.8709 104.131 25.2624 104.37 25.776C104.616 26.2834 104.738 26.8909 104.738 27.5988C104.738 28.3066 104.616 28.9173 104.37 29.4309C104.131 29.9383 103.798 30.3266 103.37 30.596C102.943 30.8653 102.455 31 101.908 31ZM101.908 29.7128C102.311 29.7128 102.625 29.5405 102.852 29.196C103.084 28.8515 103.201 28.3191 103.201 27.5988C103.201 26.8784 103.084 26.346 102.852 26.0015C102.625 25.657 102.311 25.4847 101.908 25.4847C101.512 25.4847 101.198 25.657 100.965 26.0015C100.738 26.346 100.625 26.8784 100.625 27.5988C100.625 28.3191 100.738 28.8515 100.965 29.196C101.198 29.5405 101.512 29.7128 101.908 29.7128Z" fill="white"/>
<path d="M107.973 24.3103V30.8873H106.444V25.5317H105.124V24.3103H107.973Z" fill="white"/>
<path d="M111.95 31C111.403 31 110.915 30.8653 110.488 30.596C110.06 30.3266 109.724 29.9383 109.478 29.4309C109.239 28.9173 109.12 28.3066 109.12 27.5988C109.12 26.8909 109.239 26.2834 109.478 25.776C109.724 25.2624 110.06 24.8709 110.488 24.6015C110.915 24.3322 111.403 24.1975 111.95 24.1975C112.497 24.1975 112.984 24.3322 113.412 24.6015C113.84 24.8709 114.173 25.2624 114.412 25.776C114.657 26.2834 114.78 26.8909 114.78 27.5988C114.78 28.3066 114.657 28.9173 114.412 29.4309C114.173 29.9383 113.84 30.3266 113.412 30.596C112.984 30.8653 112.497 31 111.95 31ZM111.95 29.7128C112.352 29.7128 112.667 29.5405 112.893 29.196C113.126 28.8515 113.242 28.3191 113.242 27.5988C113.242 26.8784 113.126 26.346 112.893 26.0015C112.667 25.657 112.352 25.4847 111.95 25.4847C111.554 25.4847 111.239 25.657 111.007 26.0015C110.78 26.346 110.667 26.8784 110.667 27.5988C110.667 28.3191 110.78 28.8515 111.007 29.196C111.239 29.5405 111.554 29.7128 111.95 29.7128Z" fill="white"/>
<path d="M118.014 24.3103V30.8873H116.486V25.5317H115.165V24.3103H118.014Z" fill="white"/>
</g>
</svg>
