<svg width="284" height="248" viewBox="0 0 284 248" fill="none" xmlns="http://www.w3.org/2000/svg">
    <path d="M44.4982 112.943L96.1061 89.0154L98.1539 93.4323L46.546 117.36L44.4982 112.943ZM45.4323 104.601C44.6779 102.974 44.4792 101.936 46.5714 100.966C59.5896 94.9307 72.6078 88.895 85.626 82.8593C87.7182 81.8892 88.3818 82.7113 89.1363 84.3386C89.8907 85.9659 89.7491 86.8789 87.8894 87.7411C81.3803 90.759 74.8713 93.7768 68.3622 96.7946C61.8531 99.8125 55.3439 102.83 48.8348 105.848C47.2075 106.603 46.2946 106.461 45.4323 104.601ZM53.2412 45.9053C54.8684 45.1508 55.6566 45.6327 56.3033 47.0275C60.1834 55.3964 64.2961 63.6574 70.2853 70.4835C72.8319 73.5394 75.7356 76.1472 78.5147 79.0954C78.9627 79.4525 79.5185 80.0422 80.0743 80.6318L48.6911 95.1822C48.6003 94.377 48.6171 93.8043 48.634 93.2316C48.6721 84.1759 46.7426 75.75 43.4352 67.3981C41.8354 63.3383 40.1278 59.0461 38.2956 55.0941C37.6489 53.6993 37.8982 53.0188 39.293 52.3722C41.8502 51.1866 44.1748 50.1088 46.732 48.9232C48.8242 47.9532 50.9165 46.9831 53.2412 45.9053ZM26.0297 51.1781C25.383 49.7833 24.5038 48.4963 26.8285 47.4185C37.0571 42.6761 47.2857 37.9338 57.5143 33.1914C59.374 32.3292 59.9299 32.9188 60.6844 34.5461C61.331 35.9409 62.1024 36.9954 59.7777 38.0733C54.5556 40.212 49.3166 42.9234 44.2023 45.2946C39.088 47.6658 34.2062 49.9291 29.0919 52.3003C29.0919 52.3003 29.092 52.3003 28.8595 52.4081C27.4647 53.0548 26.7841 52.8054 26.0297 51.1781ZM17.5171 44.3922C15.4693 39.9753 13.6539 35.4506 11.3736 31.1415C10.4036 29.0493 11.566 28.5104 12.9608 27.8637C14.3556 27.217 15.6257 26.9106 16.2555 28.8781C16.6697 30.3807 17.6566 31.9002 18.3033 33.295C18.95 34.6898 19.9707 35.0639 21.3655 34.4172C24.1551 33.1238 26.9448 31.8304 29.7344 30.5371C31.1292 29.8904 31.5032 28.8696 30.8566 27.4748C30.1021 25.8476 29.3476 24.2203 28.5932 22.593C28.0543 21.4307 28.3037 20.7502 29.466 20.2113C31.5582 19.2412 33.4179 18.379 35.5101 17.409C36.6724 16.8701 37.1206 17.2272 37.6595 18.3895C38.4139 20.0168 39.1684 21.6441 39.9229 23.2714C40.5695 24.6662 41.5902 25.0403 42.985 24.3936C45.7746 23.1002 48.5643 21.8068 51.3539 20.5135C52.7487 19.8668 53.1227 18.8461 52.476 17.4512C51.7216 15.824 51.0749 14.4292 50.3204 12.8019C49.2257 11.0499 50.6205 10.4032 51.7829 9.86434C52.0153 9.75656 52.0154 9.75655 52.2478 9.64877C53.4102 9.10986 54.3401 8.67871 55.2023 10.5385C57.3579 15.1878 59.5136 19.8372 61.6692 24.4865C62.3159 25.8813 62.0664 26.5619 60.6716 27.2086C53.93 30.3342 47.421 33.3521 40.6794 36.4777C38.8196 37.3399 36.9599 38.2022 35.1002 39.0644C30.4508 41.22 25.8014 43.3757 20.9196 45.6391C20.9196 45.6391 20.9196 45.6391 20.6871 45.7468C19.0599 46.5013 18.2716 46.0195 17.5171 44.3922ZM44.7349 11.7198L47.3216 17.2991L42.6723 19.4547C41.7022 17.3625 40.84 15.5027 39.9777 13.643C39.1155 11.7833 38.0948 11.4092 36.2351 12.2714C32.2831 14.1037 28.3311 15.936 24.6116 17.6605C22.7519 18.5227 22.3778 19.5435 23.24 21.4032C24.1023 23.263 25.0723 25.3552 25.9345 27.2149L21.2852 29.3705C20.3152 27.2783 19.4529 25.4186 18.4829 23.3264C17.7284 21.6991 16.6 21.0925 14.7402 21.9548C13.3454 22.6015 11.7181 23.356 10.3233 24.0026C9.39339 24.4338 8.69605 24.7571 7.76617 25.1882C5.20903 26.3738 5.06739 27.2868 6.1452 29.6115C9.05528 35.8881 12.0731 42.3972 14.9832 48.6738C16.1688 51.231 16.6169 51.5881 19.174 50.4025C20.3363 49.8636 21.0168 50.113 21.6635 51.5078C22.3102 52.9026 23.0646 54.5299 23.7113 55.9247C24.5736 57.7845 25.8268 58.0507 27.4541 57.2963C29.3138 56.434 31.1735 55.5718 33.0333 54.7095C35.2967 59.5914 37.577 63.9005 39.5001 68.6576C42.6997 76.7771 44.6292 85.203 44.1432 93.9015C43.9678 95.9599 43.4691 97.3209 41.5015 97.9507C39.3016 98.6882 39.0352 99.9414 40.0053 102.034C40.6519 103.428 41.2986 104.823 41.8375 105.986C42.4842 107.38 42.5751 108.186 40.8401 108.708C39.105 109.23 38.8387 110.483 39.5932 112.11C40.7788 114.667 41.8566 116.992 43.0422 119.549C43.9044 121.409 44.9251 121.783 46.7849 120.921C50.9693 118.981 55.1537 117.041 59.5706 114.993C73.5187 108.526 87.2343 102.167 101.182 95.6999C103.74 94.5143 103.989 93.8339 102.803 91.2767C101.725 88.952 100.755 86.8598 99.6777 84.5351C98.8154 82.6754 97.8116 81.7286 95.8272 82.9311C94.6649 83.47 93.9843 83.2206 93.4454 82.0583C92.691 80.431 92.0443 79.0362 91.2898 77.4089C90.5354 75.7816 89.1744 75.2829 87.8873 76.162C85.3133 77.9203 83.6289 76.7242 81.729 75.0631C80.385 73.9917 78.9331 72.6877 77.8215 71.5085C71.1349 65.0057 66.5573 56.9602 62.4448 48.6991C61.4747 46.6069 60.3969 44.2823 59.3191 41.9576C61.4113 40.9876 63.271 40.1253 65.3632 39.1553C66.9905 38.4008 67.5971 37.2723 66.7349 35.4125C66.0882 34.0177 65.4415 32.6229 64.7948 31.2281C64.1481 29.8333 64.2897 28.9203 65.7923 28.5061C67.5273 27.9841 68.026 26.6232 67.2716 24.9959C64.1459 18.2543 60.9125 11.2803 57.7869 4.53871C57.0324 2.91144 55.9039 2.30488 54.152 3.3996C51.5948 4.58518 49.2701 5.663 46.713 6.84859C46.713 6.84859 46.713 6.84857 46.4806 6.95635C44.139 8.60687 43.9804 10.0926 44.7349 11.7198Z" fill="url(#paint0_linear_0_1)"/>
    <path d="M201.136 222.756C201.978 221.151 202.917 219.852 203.559 218.142C204.201 216.432 205.119 216.146 206.925 217.094C215.752 221.73 224.58 226.365 233.608 231.106C234.611 231.633 235.815 232.265 236.818 232.792C238.022 233.424 238.212 234.036 237.58 235.24C236.632 237.045 235.789 238.65 234.841 240.456C234.104 241.86 233.386 242.251 231.982 241.514C226.966 238.88 221.95 236.246 217.135 233.718C215.731 232.98 214.327 232.243 212.922 231.505C209.311 229.609 205.7 227.713 202.088 225.816C200.483 224.973 200.398 224.161 201.136 222.756ZM209.98 211.276C219.039 204.259 226.409 195.588 231.581 185.25C232.424 183.645 233.141 183.254 234.947 184.202C239.255 186.721 243.774 188.838 248.188 191.156C249.392 191.788 249.783 192.505 249.151 193.709C243.366 204.237 240.2 215.628 239.557 227.575C239.547 228.082 239.336 228.483 239.221 229.191L208.124 212.861C208.746 212.164 209.263 211.667 209.98 211.276ZM255.211 184.605C256.816 185.448 257.704 186.682 256.66 188.182C255.818 189.787 254.298 189.757 252.893 189.019C249.683 187.334 246.273 185.543 243.063 183.857L233.432 178.8C231.827 177.957 230.94 176.723 231.783 175.118C232.731 173.312 234.145 173.543 235.75 174.386C238.76 175.966 241.769 177.547 244.979 179.232C248.189 180.918 251.6 182.709 255.211 184.605ZM249.47 162.394C251.938 160.619 254.406 158.844 257.285 156.772C257.215 160.319 257.049 163.559 257.189 166.704C257.129 169.743 257.424 170.155 260.253 170.617C262.576 171.068 265.204 171.425 267.526 171.876C267.622 172.182 267.622 172.182 267.717 172.488C264.321 175.056 260.724 177.518 257.233 179.78C256.822 180.076 255.808 180.056 255.206 179.74C249.99 177.001 244.774 174.262 239.558 171.522C238.956 171.206 238.459 170.69 238.469 170.183C238.455 165.824 238.641 161.571 238.741 156.505C240.928 158.677 242.513 160.533 244.203 162.188C244.996 163.116 245.492 163.633 246.094 163.949C246.801 164.064 247.519 163.673 249.47 162.394ZM260.336 146.089C258.31 146.048 256.148 147.728 256.413 149.66C256.764 152.403 254.823 153.176 253.177 154.359C251.532 155.543 249.992 156.526 248.347 157.709C247.419 158.502 246.712 158.386 245.919 157.458C243.437 154.875 241.154 152.397 238.566 150.014C237.869 149.392 236.465 148.655 235.748 149.046C235.03 149.437 234.293 150.841 234.273 151.854C233.971 156.815 233.976 161.681 233.875 166.747C233.96 167.559 233.845 168.267 233.729 168.974C227.314 170.468 225.618 174.185 228.241 179.913C228.537 180.324 228.517 181.338 228.306 181.739C225.998 185.646 223.891 189.659 221.383 193.46C216.788 200.262 210.703 205.513 204.121 210.247C203.193 211.039 202.265 211.832 201.739 212.835C199.737 216.647 197.84 220.258 195.839 224.07C194.891 225.876 195.377 226.899 196.982 227.742C209.02 234.063 221.057 240.384 233.095 246.706C234.901 247.654 235.924 247.167 236.767 245.562C238.452 242.352 240.243 238.942 241.929 235.732C242.772 234.127 243.213 232.311 243.349 230.59C243.696 218.231 246.461 206.63 252.657 195.806C253.289 194.602 253.911 193.905 255.536 193.734C256.855 193.659 258.29 192.877 259.218 192.085C261.802 189.602 262.168 186.467 260.307 183.186C265.243 179.636 269.768 176.381 274.398 172.925C275.221 172.333 275.652 171.024 275.567 170.212C275.376 169.6 274.278 168.767 273.37 168.546C270.14 167.874 266.804 167.402 263.67 167.035C261.949 166.9 261.051 166.172 261.292 164.251C261.543 161.824 261.488 159.491 261.539 156.958C261.464 155.639 261.885 154.837 263.014 154.149C264.86 153.071 265.512 150.854 264.74 148.913C264.253 147.89 263.661 147.067 262.658 146.54C262.056 146.224 261.149 146.003 260.336 146.089Z" fill="url(#paint1_linear_0_1)"/>
    <path d="M162.372 64.9352C163.087 63.6972 164.018 62.4012 164.595 61.0839C165.231 59.9835 165.744 59.7297 166.982 60.4444C170.696 62.5885 174.409 64.7327 178.123 66.8768C181.837 69.0209 185.413 71.0856 189.127 73.2298C190.227 73.8651 190.402 74.516 189.766 75.6163C188.914 76.7748 188.258 78.2297 187.543 79.4676C187.066 80.2929 186.632 80.4091 185.807 79.9327C178.242 75.565 170.677 71.1973 162.975 66.7502C162.012 66.1944 161.895 65.7604 162.372 64.9352ZM198.762 41.9301C200.137 42.7242 200.174 43.2957 199.459 44.5336C196.066 50.0935 193.302 55.8336 191.993 62.2303C191.569 64.553 191.42 67.0345 191.134 69.4366C191.112 69.7911 190.953 70.0662 190.853 70.5583L168.708 57.7729C168.867 57.4978 169.025 57.2227 169.322 57.0271C176.71 52.4896 181.802 45.893 186.09 38.4655C187.837 35.4395 187.483 35.4182 189.684 36.6888C189.959 36.8476 190.371 37.0859 190.784 37.3242C191.884 37.9595 192.847 38.5153 193.948 39.1506C194.635 39.5477 195.323 39.9448 196.011 40.3418C196.698 40.7389 197.661 41.2948 198.762 41.9301ZM187.136 29.3491C187.633 28.1693 188.776 28.0956 190.289 28.9691C195.103 31.7486 199.78 34.4486 204.594 37.228C206.107 38.1016 206.477 39.0488 205.842 40.1492C204.91 41.4452 203.789 41.1645 202.688 40.5292C200.35 39.1791 198.012 37.8291 195.673 36.4791C193.335 35.1291 190.997 33.7791 188.659 32.4291C187.283 31.635 186.479 30.804 187.136 29.3491ZM192.947 25.0016C194.763 19.6316 201.522 14.914 207.273 15.1169C207.628 15.1382 208.099 15.5934 208.294 15.8897C210.652 21.6526 210.963 27.1503 207.157 32.472C205.987 34.1807 205.77 34.2389 203.982 33.2065C202.331 32.2535 200.681 31.3006 199.03 30.3477C197.242 29.3153 195.454 28.2829 193.666 27.2506L193.528 27.1712C192.703 26.6947 192.608 25.9063 192.947 25.0016ZM207 10.1907C206.481 11.725 205.613 11.9575 204.391 12.1688C197.686 13.6164 192.568 17.0805 190.037 23.6884C189.619 24.7307 189.243 25.0639 188.238 25.217C185.004 25.7345 182.882 29.0937 184.129 32.0149C184.891 33.5549 184.61 34.6765 183.678 35.9726C183.361 36.5228 182.964 37.2105 182.567 37.8982C179.072 43.9502 175.028 49.6847 168.984 53.1643C164.56 55.745 161.649 59.1993 159.6 63.7014C159.203 64.3892 158.885 64.9394 158.488 65.6271C157.614 67.1401 157.789 67.7909 159.302 68.6645C162.053 70.2527 164.941 71.9204 167.692 73.5087C169.343 74.4616 170.856 75.3351 172.506 76.2881C176.908 78.8293 181.309 81.3705 185.711 83.9116C187.224 84.7852 187.875 84.6108 188.748 83.0978C189.78 81.3097 190.755 79.3046 191.925 77.5959C193.412 75.3371 193.974 73.0938 193.927 70.3159C193.851 60.9186 197.827 52.7609 202.629 45.0796C202.787 44.8045 203.301 44.5507 203.655 44.5719C208.169 44.0601 209.974 41.2511 208.515 37.1076C208.399 36.6737 208.441 35.9647 208.738 35.769C213.412 30.2147 213.932 23.913 211.775 17.166C211.347 16.0018 211.115 15.134 212.184 13.9174C213.549 12.5051 213.048 10.1979 211.259 9.16557C209.71 7.72057 207.54 8.30191 207 10.1907Z" fill="url(#paint2_linear_0_1)"/>
    <path d="M108.222 181.131C108.222 181.131 107.91 181.756 107.91 182.85C107.91 183.944 108.222 185.507 109.785 187.226C111.348 189.101 113.692 189.57 115.568 189.57C117.287 189.57 118.537 189.258 118.537 189.258L119.162 189.101L125.882 200.354L120.412 208.949H124.163H124.319C124.319 208.949 129.477 210.043 129.477 215.2H129.32H129.477H129.32H129.477C129.477 219.732 129.477 222.858 129.477 222.858V223.639H90.5626V215.669C90.5626 215.669 90.719 208.949 96.5013 208.949V209.574V208.949V209.574V208.949H99.7832V203.323H100.565L100.252 204.104C100.096 204.104 89.625 200.041 89.625 181.912C89.7813 163.471 109.785 158.47 115.568 158.47V159.096V158.47V159.096V158.47H116.349L116.505 165.503L128.383 179.568V179.725C128.383 179.725 129.164 181.131 129.164 182.694C129.164 183.788 128.695 185.194 127.132 185.82C126.507 186.132 125.726 186.132 125.101 186.132C122.6 186.132 120.412 184.413 119.006 182.225L119.631 181.756L120.1 182.381C120.1 182.381 117.287 185.038 113.536 185.038C113.067 185.038 112.442 185.038 111.817 184.882C108.535 184.1 105.878 181.131 105.878 176.912C105.878 175.349 106.191 173.473 107.128 171.598L108.535 172.223C107.753 173.942 107.441 175.505 107.441 176.912C107.441 180.506 109.629 182.85 112.129 183.475C112.598 183.632 113.067 183.632 113.536 183.632C116.505 183.632 119.006 181.444 119.006 181.444L119.631 180.819L120.1 181.6C121.35 183.475 123.069 184.726 124.944 184.726C125.413 184.726 125.882 184.569 126.351 184.413C127.289 184.1 127.445 183.632 127.445 182.85C127.445 181.756 126.82 180.662 126.82 180.662L127.445 180.35L126.82 180.819L114.63 166.441L114.474 159.564H115.255V160.346C109.941 160.346 90.8752 165.19 90.8752 182.225C90.8752 199.572 100.565 202.854 100.565 202.854L101.033 203.01V210.824H96.1888V210.043V210.824C91.9692 210.668 91.8129 216.138 91.8129 216.138H91.0315H91.8129V222.545H128.383V223.327H127.601C127.601 223.327 127.601 220.201 127.601 215.669H128.383H127.601C127.601 211.762 123.694 210.981 123.694 210.981L123.85 210.199V210.981H117.287L123.694 200.822L117.755 190.82L118.381 190.352L118.537 191.133C118.537 191.133 117.13 191.602 115.255 191.602C113.067 191.602 110.254 191.133 108.222 188.633C106.503 186.601 106.034 184.569 106.034 183.163C106.034 181.6 106.503 180.662 106.66 180.662L108.222 181.131Z" fill="url(#paint3_linear_0_1)"/>
    <path d="M129.477 224.419H90.5628C90.4065 224.419 90.2503 224.419 90.094 224.263C89.9377 224.107 89.9377 223.95 89.9377 223.794V215.824C89.9377 213.792 91.188 208.635 96.5015 208.479H99.1582V204.259C96.3452 202.852 89 197.383 89 182.067C89.1563 163.782 108.535 158 115.568 158H116.349C116.505 158 116.662 158 116.818 158.156C116.974 158.313 116.974 158.469 116.974 158.625L117.13 165.501L128.852 179.41L129.008 179.567C129.477 180.661 129.789 181.755 129.789 182.849C129.789 184.255 129.008 185.974 127.289 186.443C126.507 186.756 125.882 186.756 125.101 186.756C123.069 186.756 121.038 185.662 119.318 183.786C118.068 184.724 116.037 185.662 113.536 185.662C112.911 185.662 112.286 185.662 111.661 185.505C110.567 185.193 109.473 184.724 108.535 184.099C108.848 185.037 109.316 185.974 110.098 187.068C111.348 188.475 113.067 189.256 115.411 189.256C116.349 189.256 117.131 189.1 118.068 188.944L118.693 188.787C119.006 188.787 119.162 188.787 119.318 189.1L126.038 200.352C126.195 200.508 126.195 200.821 126.038 200.977L121.194 208.635H124.007H124.163C124.788 208.635 129.789 210.198 129.789 215.511V223.95C129.946 224.107 129.789 224.419 129.477 224.419ZM91.0317 223.169H127.289V223.013V222.856H91.9694C91.8131 222.856 91.6568 222.856 91.5005 222.7C91.3442 222.544 91.3442 222.388 91.3442 222.231V216.449H91.188H91.0317V223.169ZM128.383 221.606H128.539H128.695V215.824H128.539H128.383V221.606ZM92.5945 221.606H127.289V215.355C127.289 212.542 124.788 211.448 123.851 211.292H117.443C117.287 211.292 116.974 211.135 116.974 210.979C116.818 210.823 116.818 210.51 116.974 210.354L123.225 200.508L117.912 191.757C117.287 191.913 116.505 191.913 115.411 191.913C113.224 191.913 110.098 191.288 107.91 188.787C106.035 186.443 105.566 184.255 105.566 183.005C105.566 182.067 105.722 181.442 105.878 180.973C105.409 179.723 105.097 178.473 105.097 177.066C105.097 175.347 105.566 173.472 106.347 171.596C106.503 171.284 106.816 171.128 107.129 171.284L108.535 171.909C108.691 171.909 108.848 172.065 108.848 172.222C108.848 172.378 108.848 172.534 108.848 172.69C108.223 174.253 107.91 175.816 107.91 177.222C107.91 180.817 110.098 182.692 112.129 183.161C112.598 183.317 112.911 183.317 113.38 183.317C114.943 183.317 116.662 182.692 118.381 181.286L119.006 180.661C119.162 180.504 119.318 180.504 119.475 180.504C119.631 180.504 119.787 180.661 119.944 180.817L120.412 181.598C121.663 183.474 123.225 184.568 124.788 184.568C125.257 184.568 125.57 184.568 126.038 184.411C126.664 184.255 126.664 183.943 126.664 183.317C126.664 182.849 126.507 182.223 126.195 181.442L114.161 167.221C114.005 167.064 114.005 167.064 114.005 166.908V161.438C106.972 162.22 91.5005 167.689 91.5005 182.692C91.5005 197.383 98.5331 201.759 100.721 202.853C100.721 202.853 100.721 202.853 100.877 202.853L101.346 203.009C101.502 203.165 101.659 203.321 101.659 203.634V211.448C101.659 211.76 101.346 212.073 101.034 212.073H96.1889C92.907 212.073 92.4382 215.98 92.4382 216.761L92.5945 221.606ZM95.8764 209.573C91.9694 210.041 91.188 213.792 91.0317 215.199H91.188H91.5005C91.6568 213.792 92.4382 210.198 95.8764 210.041V209.885C95.8764 209.729 95.8764 209.729 95.8764 209.573ZM128.383 214.73H128.539H128.695C128.383 211.448 125.726 210.198 124.632 209.729V210.041C126.507 210.823 128.226 212.386 128.383 214.73ZM118.537 210.041H123.382V209.729H120.256C120.1 209.729 119.787 209.573 119.787 209.416C119.631 209.26 119.631 208.947 119.787 208.791L124.945 200.508L119.318 191.131V191.288C119.318 191.444 119.162 191.444 119.162 191.444L124.476 200.196C124.632 200.352 124.632 200.665 124.476 200.821L118.537 210.041ZM97.1266 210.041H100.721V204.572C100.565 204.728 100.408 204.728 100.252 204.728V209.104C100.252 209.416 99.9397 209.729 99.6271 209.729H96.9703V209.885L97.1266 210.041ZM114.317 159.25C108.223 159.875 90.4066 164.72 90.2503 182.067C90.2503 196.289 96.6578 201.602 99.3145 203.165C99.4708 203.009 99.6271 203.009 99.7834 203.009C96.9703 201.446 90.5628 196.289 90.5628 182.223C90.5628 166.439 106.972 160.501 114.161 159.875L114.317 159.25C114.161 159.25 114.161 159.25 114.317 159.25ZM106.972 182.223C106.972 182.38 106.972 182.536 106.972 182.849C106.972 183.943 107.285 185.818 109.004 187.85C110.879 190.194 113.536 190.663 115.568 190.663C116.349 190.663 116.974 190.663 117.443 190.506C117.443 190.35 117.443 190.194 117.599 190.037C116.974 190.194 116.193 190.194 115.568 190.194C112.911 190.194 110.723 189.256 109.316 187.537C108.066 185.974 107.285 184.255 107.285 182.692V182.536C107.129 182.536 107.129 182.38 106.972 182.223ZM120.1 183.005C121.194 184.255 122.757 185.505 124.945 185.505C125.57 185.505 126.195 185.349 126.82 185.193C128.07 184.724 128.539 183.63 128.539 182.692C128.539 182.067 128.383 181.286 128.07 180.504L127.758 180.817C127.914 181.286 128.226 182.067 128.07 182.692C128.07 183.474 127.914 184.411 126.664 184.88C126.039 185.037 125.413 185.193 124.945 185.193C123.382 185.193 121.819 184.411 120.412 182.849L120.256 183.005C120.256 182.849 120.256 183.005 120.1 183.005ZM108.535 182.38C109.473 183.474 110.723 184.099 111.973 184.255C112.442 184.411 113.067 184.411 113.536 184.411C115.568 184.411 117.443 183.474 118.537 182.692L118.381 182.536V182.38C116.818 183.474 115.099 183.943 113.536 183.943C113.067 183.943 112.598 183.943 112.129 183.786C110.879 183.474 109.629 182.849 108.691 181.755C108.535 181.911 108.535 182.067 108.535 182.38ZM106.972 179.723C107.129 179.723 107.129 179.723 107.285 179.879L107.441 180.036C107.129 179.098 106.816 178.16 106.816 176.91C106.816 175.503 107.129 174.097 107.754 172.534L107.441 172.378C106.816 173.941 106.503 175.503 106.503 176.91C106.503 177.848 106.66 178.942 106.972 179.723ZM115.568 165.97L127.132 179.723L127.445 179.567L116.036 165.97C115.88 165.814 115.88 165.814 115.88 165.658V160.657C115.724 160.657 115.568 160.657 115.411 160.657L115.568 165.97Z" fill="url(#paint4_linear_0_1)"/>
    <defs>
        <linearGradient id="paint0_linear_0_1" x1="22.4479" y1="75.13" x2="82.4245" y2="47.3226" gradientUnits="userSpaceOnUse">
            <stop stop-color="#F7941D"/>
            <stop offset="1" stop-color="#27AAE1"/>
        </linearGradient>
        <linearGradient id="paint1_linear_0_1" x1="218.384" y1="181.136" x2="259.312" y2="202.628" gradientUnits="userSpaceOnUse">
            <stop stop-color="#F7941D"/>
            <stop offset="1" stop-color="#27AAE1"/>
        </linearGradient>
        <linearGradient id="paint2_linear_0_1" x1="176.661" y1="33.889" x2="207.055" y2="51.4371" gradientUnits="userSpaceOnUse">
            <stop stop-color="#F7941D"/>
            <stop offset="1" stop-color="#27AAE1"/>
        </linearGradient>
        <linearGradient id="paint3_linear_0_1" x1="89.625" y1="191.055" x2="129.477" y2="191.055" gradientUnits="userSpaceOnUse">
            <stop stop-color="#F7941D"/>
            <stop offset="1" stop-color="#27AAE1"/>
        </linearGradient>
        <linearGradient id="paint4_linear_0_1" x1="89" y1="191.21" x2="129.851" y2="191.21" gradientUnits="userSpaceOnUse">
            <stop stop-color="#F7941D"/>
            <stop offset="1" stop-color="#27AAE1"/>
        </linearGradient>
    </defs>
</svg>