<svg width="27" height="43" viewBox="0 0 27 43" fill="none" xmlns="http://www.w3.org/2000/svg">
<path d="M12.2999 14.8C12.2999 14.8 12.0999 15.2001 12.0999 15.9001C12.0999 16.6001 12.2999 17.6001 13.2999 18.7001C14.2999 19.9001 15.7999 20.2001 16.9999 20.2001C18.0999 20.2001 18.8999 20 18.8999 20L19.2999 19.9001L23.5999 27.1001L20.0999 32.6001H22.4999H22.5999C22.5999 32.6001 25.8999 33.3001 25.8999 36.6001H25.7999H25.8999H25.7999H25.8999C25.8999 39.5001 25.8999 41.5 25.8999 41.5V42H0.999878V36.9001C0.999878 36.9001 1.0999 32.6001 4.7999 32.6001V33V32.6001V33V32.6001H6.8999V29H7.3999L7.19989 29.5C7.09989 29.5 0.399902 26.9 0.399902 15.3C0.499902 3.50005 13.2999 0.300049 16.9999 0.300049V0.700058V0.300049V0.700058V0.300049H17.4999L17.5999 4.80005L25.1999 13.8V13.9001C25.1999 13.9001 25.6999 14.8 25.6999 15.8C25.6999 16.5 25.3999 17.4 24.3999 17.8C23.9999 18 23.4999 18 23.0999 18C21.4999 18 20.0999 16.9 19.1999 15.5L19.5999 15.2001L19.8999 15.6001C19.8999 15.6001 18.0999 17.3 15.6999 17.3C15.3999 17.3 14.9999 17.3001 14.5999 17.2001C12.4999 16.7001 10.7999 14.8001 10.7999 12.1001C10.7999 11.1001 10.9999 9.90006 11.5999 8.70006L12.4999 9.10005C11.9999 10.2001 11.7999 11.2001 11.7999 12.1001C11.7999 14.4001 13.1999 15.9 14.7999 16.3C15.0999 16.4 15.3999 16.4001 15.6999 16.4001C17.5999 16.4001 19.1999 15 19.1999 15L19.5999 14.6001L19.8999 15.1001C20.6999 16.3001 21.7999 17.1001 22.9999 17.1001C23.2999 17.1001 23.5999 17.0001 23.8999 16.9001C24.4999 16.7001 24.5999 16.4001 24.5999 15.9001C24.5999 15.2001 24.1999 14.5 24.1999 14.5L24.5999 14.3L24.1999 14.6001L16.3999 5.40005L16.2999 1.00005H16.7999V1.50005C13.3999 1.50005 1.19989 4.60005 1.19989 15.5C1.19989 26.6 7.3999 28.7001 7.3999 28.7001L7.69989 28.8V33.8H4.59988V33.3V33.8C1.89988 33.7001 1.7999 37.2001 1.7999 37.2001H1.2999H1.7999V41.3H25.1999V41.8H24.6999C24.6999 41.8 24.6999 39.8001 24.6999 36.9001H25.1999H24.6999C24.6999 34.4001 22.1999 33.9001 22.1999 33.9001L22.2999 33.4001V33.9001H18.0999L22.1999 27.4001L18.3999 21L18.7999 20.7001L18.8999 21.2001C18.8999 21.2001 17.9999 21.5 16.7999 21.5C15.3999 21.5 13.5999 21.2001 12.2999 19.6001C11.1999 18.3001 10.8999 17.0001 10.8999 16.1001C10.8999 15.1001 11.1999 14.5 11.2999 14.5L12.2999 14.8Z" fill="url(#paint0_linear_88_3513)"/>
<path d="M25.9 42.5H1C0.9 42.5 0.800012 42.5 0.700012 42.4C0.600012 42.3 0.600006 42.2 0.600006 42.1V37C0.600006 35.7 1.40002 32.4 4.80002 32.3H6.5V29.6C4.7 28.7 0 25.2 0 15.4C0.1 3.70001 12.5 0 17 0H17.5C17.6 0 17.7 6.10203e-06 17.8 0.100006C17.9 0.200006 17.9 0.300009 17.9 0.400009L18 4.8L25.5 13.7L25.6 13.8C25.9 14.5 26.1 15.2 26.1 15.9C26.1 16.8 25.6 17.9 24.5 18.2C24 18.4 23.6 18.4 23.1 18.4C21.8 18.4 20.5 17.7 19.4 16.5C18.6 17.1 17.3 17.7 15.7 17.7C15.3 17.7 14.9 17.7 14.5 17.6C13.8 17.4 13.1 17.1 12.5 16.7C12.7 17.3 13 17.9 13.5 18.6C14.3 19.5 15.4 20 16.9 20C17.5 20 18 19.9 18.6 19.8L19 19.7C19.2 19.7 19.3 19.7 19.4 19.9L23.7 27.1C23.8 27.2 23.8 27.4 23.7 27.5L20.6 32.4H22.4H22.5C22.9 32.4 26.1 33.4 26.1 36.8V42.2C26.2 42.3 26.1 42.5 25.9 42.5ZM1.30002 41.7H24.5V41.6V41.5H1.90002C1.80002 41.5 1.70001 41.5 1.60001 41.4C1.50001 41.3 1.5 41.2 1.5 41.1V37.4H1.40002H1.30002V41.7ZM25.2 40.7H25.3H25.4V37H25.3H25.2V40.7ZM2.30002 40.7H24.5V36.7C24.5 34.9 22.9 34.2 22.3 34.1H18.2C18.1 34.1 17.9 34 17.9 33.9C17.8 33.8 17.8 33.6 17.9 33.5L21.9 27.2L18.5 21.6C18.1 21.7 17.6 21.7 16.9 21.7C15.5 21.7 13.5 21.3 12.1 19.7C10.9 18.2 10.6 16.8 10.6 16C10.6 15.4 10.7 15 10.8 14.7C10.5 13.9 10.3 13.1 10.3 12.2C10.3 11.1 10.6 9.90001 11.1 8.70001C11.2 8.50001 11.4 8.4 11.6 8.5L12.5 8.90001C12.6 8.90001 12.7 9.00001 12.7 9.10001C12.7 9.20001 12.7 9.30001 12.7 9.40001C12.3 10.4 12.1 11.4 12.1 12.3C12.1 14.6 13.5 15.8 14.8 16.1C15.1 16.2 15.3 16.2 15.6 16.2C16.6 16.2 17.7 15.8 18.8 14.9L19.2 14.5C19.3 14.4 19.4 14.4 19.5 14.4C19.6 14.4 19.7 14.5 19.8 14.6L20.1 15.1C20.9 16.3 21.9 17 22.9 17C23.2 17 23.4 17 23.7 16.9C24.1 16.8 24.1 16.6 24.1 16.2C24.1 15.9 24 15.5 23.8 15L16.1 5.90001C16 5.80001 16 5.80001 16 5.70001V2.20001C11.5 2.70001 1.60001 6.2 1.60001 15.8C1.60001 25.2 6.1 28 7.5 28.7C7.5 28.7 7.50001 28.7 7.60001 28.7L7.90002 28.8C8.00002 28.9 8.10001 29 8.10001 29.2V34.2C8.10001 34.4 7.90001 34.6 7.70001 34.6H4.60001C2.50001 34.6 2.20001 37.1 2.20001 37.6L2.30002 40.7ZM4.40002 33C1.90002 33.3 1.40002 35.7 1.30002 36.6H1.40002H1.60001C1.70001 35.7 2.20002 33.4 4.40002 33.3V33.2C4.40002 33.1 4.40002 33.1 4.40002 33ZM25.2 36.3H25.3H25.4C25.2 34.2 23.5 33.4 22.8 33.1V33.3C24 33.8 25.1 34.8 25.2 36.3ZM18.9 33.3H22V33.1H20C19.9 33.1 19.7 33 19.7 32.9C19.6 32.8 19.6 32.6 19.7 32.5L23 27.2L19.4 21.2V21.3C19.4 21.4 19.3 21.4 19.3 21.4L22.7 27C22.8 27.1 22.8 27.3 22.7 27.4L18.9 33.3ZM5.20001 33.3H7.5V29.8C7.4 29.9 7.30001 29.9 7.20001 29.9V32.7C7.20001 32.9 7.00002 33.1 6.80002 33.1H5.10001V33.2L5.20001 33.3ZM16.2 0.800003C12.3 1.2 0.900018 4.30001 0.800018 15.4C0.800018 24.5 4.90001 27.9 6.60001 28.9C6.70001 28.8 6.80002 28.8 6.90002 28.8C5.10002 27.8 1 24.5 1 15.5C1 5.4 11.5 1.60001 16.1 1.20001L16.2 0.800003C16.1 0.800003 16.1 0.800003 16.2 0.800003ZM11.5 15.5C11.5 15.6 11.5 15.7 11.5 15.9C11.5 16.6 11.7 17.8 12.8 19.1C14 20.6 15.7 20.9 17 20.9C17.5 20.9 17.9 20.9 18.2 20.8C18.2 20.7 18.2 20.6 18.3 20.5C17.9 20.6 17.4 20.6 17 20.6C15.3 20.6 13.9 20 13 18.9C12.2 17.9 11.7 16.8 11.7 15.8V15.7C11.6 15.7 11.6 15.6 11.5 15.5ZM19.9 16C20.6 16.8 21.6 17.6 23 17.6C23.4 17.6 23.8 17.5 24.2 17.4C25 17.1 25.3 16.4 25.3 15.8C25.3 15.4 25.2 14.9 25 14.4L24.8 14.6C24.9 14.9 25.1 15.4 25 15.8C25 16.3 24.9 16.9 24.1 17.2C23.7 17.3 23.3 17.4 23 17.4C22 17.4 21 16.9 20.1 15.9L20 16C20 15.9 20 16 19.9 16ZM12.5 15.6C13.1 16.3 13.9 16.7 14.7 16.8C15 16.9 15.4 16.9 15.7 16.9C17 16.9 18.2 16.3 18.9 15.8L18.8 15.7V15.6C17.8 16.3 16.7 16.6 15.7 16.6C15.4 16.6 15.1 16.6 14.8 16.5C14 16.3 13.2 15.9 12.6 15.2C12.5 15.3 12.5 15.4 12.5 15.6ZM11.5 13.9C11.6 13.9 11.6 13.9 11.7 14L11.8 14.1C11.6 13.5 11.4 12.9 11.4 12.1C11.4 11.2 11.6 10.3 12 9.3L11.8 9.20001C11.4 10.2 11.2 11.2 11.2 12.1C11.2 12.7 11.3 13.4 11.5 13.9ZM17 5.10001L24.4 13.9L24.6 13.8L17.3 5.10001C17.2 5.00001 17.2 5.00001 17.2 4.90001V1.70001C17.1 1.70001 17 1.70001 16.9 1.70001L17 5.10001Z" fill="url(#paint1_linear_88_3513)"/>
<defs>
<linearGradient id="paint0_linear_88_3513" x1="0.399902" y1="21.15" x2="25.8999" y2="21.15" gradientUnits="userSpaceOnUse">
<stop stop-color="#F7941D"/>
<stop offset="1" stop-color="#27AAE1"/>
</linearGradient>
<linearGradient id="paint1_linear_88_3513" x1="0" y1="21.25" x2="26.1393" y2="21.25" gradientUnits="userSpaceOnUse">
<stop stop-color="#F7941D"/>
<stop offset="1" stop-color="#27AAE1"/>
</linearGradient>
</defs>
</svg>
