<svg width="26" height="41" viewBox="0 0 26 41" fill="none" xmlns="http://www.w3.org/2000/svg">
<path d="M1.59998 37.2152H23.8V39.1152H1.59998V37.2152ZM3.29999 34.4152C3.29999 33.7152 3.39999 33.3152 4.29999 33.3152C9.89999 33.3152 15.5 33.3152 21.1 33.3152C22 33.3152 22.1 33.7152 22.1 34.4152C22.1 35.1152 21.9 35.4152 21.1 35.4152C18.3 35.4152 15.5 35.4152 12.7 35.4152C9.90001 35.4152 7.09999 35.4152 4.29999 35.4152C3.59999 35.4152 3.29999 35.2152 3.29999 34.4152ZM15.7 14.9152C16.4 14.9152 16.6 15.2152 16.6 15.8152C16.6 19.4152 16.7 23.0152 17.7 26.4152C18.1 27.9152 18.7 29.3152 19.2 30.8152C19.3 31.0152 19.4 31.3152 19.5 31.6152H6C6.1 31.3152 6.19999 31.1152 6.29999 30.9152C7.79999 27.7152 8.49998 24.4152 8.69998 20.9152C8.79998 19.2152 8.89999 17.4152 8.89999 15.7152C8.89999 15.1152 9.09998 14.9152 9.69998 14.9152C10.8 14.9152 11.8 14.9152 12.9 14.9152C13.8 14.9152 14.7 14.9152 15.7 14.9152ZM5.19998 12.3152C5.19998 11.7152 5.09998 11.1152 6.09998 11.1152C10.5 11.1152 14.9 11.1152 19.3 11.1152C20.1 11.1152 20.2 11.4152 20.2 12.1152C20.2 12.7152 20.3 13.2152 19.3 13.2152C17.1 13.1152 14.8 13.2152 12.6 13.2152C10.4 13.2152 8.29998 13.2152 6.09998 13.2152C6.09998 13.2152 6.1 13.2152 6 13.2152C5.4 13.2152 5.19998 13.0152 5.19998 12.3152ZM3.29999 8.51521C3.29999 6.61521 3.39999 4.71521 3.29999 2.81521C3.29999 1.91521 3.79999 1.9152 4.39999 1.9152C4.99999 1.9152 5.49999 2.01521 5.39999 2.81521C5.29999 3.41521 5.39999 4.1152 5.39999 4.7152C5.39999 5.3152 5.69999 5.6152 6.29999 5.6152C7.49999 5.6152 8.69999 5.6152 9.89999 5.6152C10.5 5.6152 10.8 5.3152 10.8 4.7152C10.8 4.0152 10.8 3.3152 10.8 2.6152C10.8 2.1152 11 1.9152 11.5 1.9152C12.4 1.9152 13.2 1.9152 14.1 1.9152C14.6 1.9152 14.7 2.1152 14.7 2.6152C14.7 3.3152 14.7 4.0152 14.7 4.7152C14.7 5.3152 15 5.6152 15.6 5.6152C16.8 5.6152 18 5.6152 19.2 5.6152C19.8 5.6152 20.1 5.3152 20.1 4.7152C20.1 4.0152 20.1 3.4152 20.1 2.7152C20 1.9152 20.6 1.9152 21.1 1.9152C21.2 1.9152 21.2 1.9152 21.3 1.9152C21.8 1.9152 22.2 1.9152 22.2 2.7152C22.2 4.7152 22.2 6.7152 22.2 8.7152C22.2 9.3152 22 9.51521 21.4 9.51521C18.5 9.51521 15.7 9.51521 12.8 9.51521C12 9.51521 11.2 9.51521 10.4 9.51521C8.39999 9.51521 6.39999 9.51521 4.29999 9.51521C4.29999 9.51521 4.29998 9.51521 4.19998 9.51521C3.49998 9.51521 3.29999 9.21521 3.29999 8.51521ZM18.3 1.4152V3.81521H16.3C16.3 2.91521 16.3 2.11521 16.3 1.31521C16.3 0.515205 16 0.215203 15.2 0.215203C13.5 0.215203 11.8 0.215203 10.2 0.215203C9.39998 0.215203 9.09998 0.515205 9.09998 1.31521C9.09998 2.11521 9.09998 3.01521 9.09998 3.81521H7.09998C7.09998 2.91521 7.09998 2.1152 7.09998 1.2152C7.09998 0.515203 6.8 0.115205 6 0.115205C5.4 0.115205 4.69998 0.115205 4.09998 0.115205C3.69998 0.115205 3.4 0.115205 3 0.115205C1.9 0.115205 1.69998 0.415204 1.69998 1.4152C1.69998 4.1152 1.69998 6.91521 1.69998 9.6152C1.69998 10.7152 1.79999 10.9152 2.89999 10.9152C3.39999 10.9152 3.59998 11.1152 3.59998 11.7152C3.59998 12.3152 3.59998 13.0152 3.59998 13.6152C3.59998 14.4152 3.99998 14.7152 4.69998 14.7152C5.49998 14.7152 6.29998 14.7152 7.09998 14.7152C7.09998 16.8152 7.19998 18.7152 7.09998 20.7152C6.89998 24.1152 6.19998 27.4152 4.59998 30.4152C4.19998 31.1152 3.8 31.5152 3 31.4152C2.1 31.3152 1.79999 31.7152 1.79999 32.6152C1.79999 33.2152 1.79999 33.8152 1.79999 34.3152C1.79999 34.9152 1.7 35.2152 1 35.1152C0.3 35.0152 0 35.4152 0 36.1152C0 37.2152 0 38.2152 0 39.3152C0 40.1152 0.299976 40.4152 1.09998 40.4152C2.89998 40.4152 4.69998 40.4152 6.59998 40.4152C12.6 40.4152 18.5 40.4152 24.5 40.4152C25.6 40.4152 25.8 40.2152 25.8 39.1152C25.8 38.1152 25.8 37.2152 25.8 36.2152C25.8 35.4152 25.6 34.9152 24.7 35.0152C24.2 35.0152 24 34.8152 24 34.3152C24 33.6152 24 33.0152 24 32.3152C24 31.6152 23.6 31.2152 23 31.3152C21.8 31.5152 21.4 30.8152 21 29.9152C20.7 29.3152 20.4 28.6152 20.2 28.0152C18.9 24.6152 18.6 21.0152 18.5 17.4152C18.5 16.5152 18.5 15.5152 18.5 14.5152C19.4 14.5152 20.2 14.5152 21.1 14.5152C21.8 14.5152 22.2 14.2152 22.2 13.4152C22.2 12.8152 22.2 12.2152 22.2 11.6152C22.2 11.0152 22.4 10.7152 23 10.8152C23.7 10.9152 24.1 10.5152 24.1 9.81521C24.1 6.91521 24.1 3.91521 24.1 1.01521C24.1 0.315206 23.8 -0.0847937 23 0.0152063C21.9 0.0152063 20.9 0.0152063 19.8 0.0152063C19.8 0.0152063 19.8 0.0152063 19.7 0.0152063C18.6 0.215206 18.3 0.715204 18.3 1.4152Z" fill="url(#paint0_linear_88_3500)"/>
<defs>
<linearGradient id="paint0_linear_88_3500" x1="0" y1="20.2076" x2="25.8" y2="20.2076" gradientUnits="userSpaceOnUse">
<stop stop-color="#F7941D"/>
<stop offset="1" stop-color="#27AAE1"/>
</linearGradient>
</defs>
</svg>
