<svg width="23" height="49" viewBox="0 0 23 49" fill="none" xmlns="http://www.w3.org/2000/svg">
<path d="M1.98246 45.8538C1.98246 44.9538 2.08246 43.9538 1.98246 43.0537C1.98246 42.2537 2.1825 41.9538 3.0825 41.9538C5.7825 41.9538 8.48247 41.9538 11.1825 41.9538C13.8825 41.9538 16.4825 41.9538 19.1825 41.9538C19.9825 41.9538 20.2825 42.2537 20.2825 43.0537C20.1825 43.9538 20.2825 44.9538 20.2825 45.8538C20.2825 46.4538 20.0825 46.6537 19.4825 46.6537C13.9825 46.6537 8.48248 46.6537 2.88248 46.6537C2.18248 46.6537 1.98246 46.4538 1.98246 45.8538ZM14.5825 21.8538C15.5825 21.8538 15.7825 22.1538 15.7825 23.0538C15.6825 27.1538 15.9825 31.1537 17.2825 35.0537C17.7825 36.4538 18.4825 37.8537 19.0825 39.2537C19.1825 39.4537 19.1825 39.6538 19.2825 39.9538H3.18247C3.18247 39.7537 3.18251 39.5538 3.28251 39.3538C5.88251 34.5538 6.5825 29.3538 6.5825 23.9538C6.5825 21.7538 6.38246 21.8538 7.98246 21.8538C8.18246 21.8538 8.48251 21.8538 8.78251 21.8538C9.58251 21.8538 10.2825 21.8538 11.0825 21.8538C11.5825 21.8538 12.0825 21.8538 12.5825 21.8538C13.0825 21.8538 13.7825 21.8538 14.5825 21.8538ZM4.28251 18.6537C4.18251 17.8538 4.78248 17.4538 5.88248 17.4538C9.38248 17.4538 12.7825 17.4538 16.2825 17.4538C17.3825 17.4538 17.8825 17.8538 17.8825 18.6537C17.7825 19.6537 17.0825 19.8538 16.2825 19.8538C14.5825 19.8538 12.8825 19.8538 11.1825 19.8538C9.48247 19.8538 7.7825 19.8538 6.0825 19.8538C5.0825 19.8538 4.38251 19.6537 4.28251 18.6537ZM6.0825 14.4538C5.3825 10.9538 7.58251 6.25375 10.7825 4.55375C10.9825 4.45375 11.3825 4.55375 11.5825 4.65375C14.6825 7.05375 16.5825 9.95375 16.1825 14.0538C16.0825 15.3538 15.9825 15.4538 14.6825 15.4538C13.4825 15.4538 12.2825 15.4538 11.0825 15.4538C9.7825 15.4538 8.48247 15.4538 7.18247 15.4538H7.0825C6.4825 15.4538 6.1825 15.0538 6.0825 14.4538ZM9.0825 1.95375C9.2825 2.95375 8.88251 3.35375 8.28251 3.85375C5.08251 6.75375 3.3825 10.2537 4.0825 14.6537C4.1825 15.3537 4.0825 15.6538 3.5825 16.0538C1.9825 17.3538 1.88246 19.8538 3.48246 21.0538C4.38246 21.6538 4.58246 22.3538 4.48246 23.3538C4.48246 23.7538 4.48246 24.2537 4.48246 24.7537C4.48246 29.1537 4.08248 33.5538 1.88248 37.3538C0.282484 40.1538 -0.217504 42.9538 0.082496 46.0537C0.082496 46.5537 0.082496 46.9538 0.082496 47.4538C0.082496 48.5537 0.382459 48.8538 1.48246 48.8538C3.48246 48.8538 5.5825 48.8538 7.5825 48.8538C8.7825 48.8538 9.8825 48.8538 11.0825 48.8538C14.2825 48.8538 17.4825 48.8538 20.6825 48.8538C21.7825 48.8538 22.0825 48.5537 22.0825 47.4538C22.0825 46.1538 21.9825 44.7537 22.0825 43.4538C22.1825 41.7537 21.7825 40.3538 20.8825 38.8538C17.8825 33.7538 17.4825 28.0538 17.6825 22.3538C17.6825 22.1538 17.8825 21.8537 18.0825 21.7537C20.3825 20.0537 20.4825 17.9537 18.3825 16.1537C18.1825 15.9537 17.9825 15.5537 18.0825 15.3537C18.8825 10.8537 17.1825 7.25375 13.8825 4.25375C13.2825 3.75375 12.8825 3.35375 13.0825 2.35375C13.3825 1.15375 12.3825 0.0537502 11.0825 0.0537502C9.7825 -0.24625 8.7825 0.753752 9.0825 1.95375Z" fill="url(#paint0_linear_88_3511)"/>
<defs>
<linearGradient id="paint0_linear_88_3511" x1="0" y1="24.4269" x2="22.0975" y2="24.4269" gradientUnits="userSpaceOnUse">
<stop stop-color="#F7941D"/>
<stop offset="1" stop-color="#27AAE1"/>
</linearGradient>
</defs>
</svg>
