<svg width="21" height="46" viewBox="0 0 21 46" fill="none" xmlns="http://www.w3.org/2000/svg">
<path d="M2.29999 43.1998C2.29999 42.3998 2.39999 41.6998 2.29999 40.8998C2.19999 40.0998 2.50002 39.7998 3.40002 39.7998C7.80002 39.7998 12.2 39.7998 16.7 39.7998C17.2 39.7998 17.8 39.7998 18.3 39.7998C18.9 39.7998 19.1 39.9998 19.1 40.5998C19.1 41.4998 19.1 42.2998 19.1 43.1998C19.1 43.8998 18.9 44.1998 18.2 44.1998C15.7 44.1998 13.2 44.1998 10.8 44.1998C10.1 44.1998 9.40001 44.1998 8.70001 44.1998C6.90001 44.1998 5.09999 44.1998 3.29999 44.1998C2.49999 44.1998 2.29999 43.8998 2.29999 43.1998ZM3.40002 36.8998C5.50002 32.2998 6.6 27.3998 6.5 22.2998C6.5 21.4998 6.69998 21.1998 7.59998 21.1998C9.79998 21.2998 12 21.1998 14.2 21.1998C14.8 21.1998 15.1 21.3998 15.1 21.9998C15 27.2998 16.1 32.3998 18.3 37.1998C18.4 37.3998 18.4 37.5998 18.5 37.8998H3C3.1 37.4998 3.20002 37.1998 3.40002 36.8998ZM15.6 17.1998C16.4 17.1998 17 17.4998 16.9 18.2998C16.9 19.0998 16.3 19.3998 15.6 19.3998C14 19.3998 12.3 19.3998 10.7 19.3998H5.90002C5.10002 19.3998 4.5 19.0998 4.5 18.2998C4.5 17.3998 5.10002 17.1998 5.90002 17.1998C7.40002 17.1998 8.9 17.1998 10.5 17.1998C12.1 17.1998 13.8 17.1998 15.6 17.1998ZM8.79999 9.69981C9.39999 8.49981 10 7.29981 10.7 5.89981C11.4 7.29981 12 8.5998 12.7 9.7998C13.3 10.9998 13.5 11.0998 14.7 10.6998C15.7 10.3998 16.8 9.99981 17.8 9.69981C17.9 9.79981 17.9 9.79981 18 9.89981C17.2 11.5998 16.3 13.2998 15.4 14.8998C15.3 15.0998 14.9 15.2998 14.6 15.2998C12 15.2998 9.39999 15.2998 6.79999 15.2998C6.49999 15.2998 6.19998 15.1998 6.09998 14.9998C5.19998 13.2998 4.40002 11.5998 3.40002 9.5998C4.70002 9.9998 5.70001 10.3998 6.70001 10.6998C7.20001 10.8998 7.49999 10.9998 7.79999 10.9998C8.09999 10.8998 8.29999 10.5998 8.79999 9.69981ZM9.70001 1.0998C8.90001 1.4998 8.40002 2.5998 8.90002 3.2998C9.60002 4.2998 8.99998 4.9998 8.59998 5.7998C8.19998 6.5998 7.80002 7.2998 7.40002 8.0998C7.20002 8.5998 6.90002 8.69981 6.40002 8.49981C4.90002 7.99981 3.5 7.4998 2 7.0998C1.6 6.9998 0.900012 6.9998 0.700012 7.2998C0.500012 7.5998 0.500012 8.29981 0.700012 8.69981C1.60001 10.6998 2.59998 12.5998 3.59998 14.5998C3.79998 14.8998 3.9 15.1998 4 15.4998C1.8 17.3998 1.89998 19.1998 4.09998 20.8998C4.29998 20.9998 4.5 21.3998 4.5 21.5998C4.4 23.5998 4.40001 25.5998 4.20001 27.5998C3.80001 31.1998 2.50002 34.4998 0.900024 37.6998C0.700024 38.1998 0.5 38.6998 0.5 39.1998C0.5 41.0998 0.5 42.8998 0.5 44.7998C0.5 45.6998 0.900012 45.9998 1.70001 45.9998C7.70001 45.9998 13.7 45.9998 19.7 45.9998C20.6 45.9998 20.9 45.5998 20.9 44.7998C20.9 43.1998 20.9 41.4998 20.9 39.8998C20.9 39.0998 20.7 38.2998 20.4 37.5998C18 32.6998 16.7 27.5998 16.9 22.0998C16.9 21.4998 17 21.0998 17.6 20.6998C18.1 20.3998 18.5 19.7998 18.7 19.2998C19.2 17.7998 18.7 16.4998 17.3 15.5998C18.5 13.1998 19.6 10.9998 20.7 8.69981C20.9 8.29981 20.8 7.69981 20.6 7.39981C20.4 7.19981 19.8 7.09981 19.4 7.19981C18 7.59981 16.6 8.0998 15.3 8.5998C14.6 8.8998 14.1 8.79981 13.8 7.99981C13.4 6.99981 12.9 6.0998 12.4 5.0998C12.1 4.5998 12.1 4.19981 12.4 3.69981C12.9 2.89981 12.7 1.8998 12 1.2998C11.6 0.999805 11.2 0.799805 10.7 0.799805C10.4 0.799805 10 0.899804 9.70001 1.0998Z" fill="url(#paint0_linear_88_3505)"/>
<defs>
<linearGradient id="paint0_linear_88_3505" x1="0.5" y1="23.3998" x2="20.9" y2="23.3998" gradientUnits="userSpaceOnUse">
<stop stop-color="#F7941D"/>
<stop offset="1" stop-color="#27AAE1"/>
</linearGradient>
</defs>
</svg>
