<svg width="70" height="86" viewBox="0 0 70 86" fill="none" xmlns="http://www.w3.org/2000/svg">
<path d="M5.37211 64.9352C6.08683 63.6972 7.0185 62.4012 7.59566 61.0839C8.23096 59.9835 8.74434 59.7297 9.98226 60.4444C13.696 62.5885 17.4097 64.7327 21.1235 66.8768C24.8372 69.0209 28.4134 71.0856 32.1271 73.2298C33.2275 73.8651 33.402 74.516 32.7667 75.6163C31.9144 76.7748 31.2578 78.2297 30.5431 79.4676C30.0667 80.2929 29.6327 80.4091 28.8074 79.9327C21.2424 75.565 13.6774 71.1973 5.97477 66.7502C5.01195 66.1944 4.89564 65.7604 5.37211 64.9352ZM41.7619 41.9301C43.1374 42.7242 43.1743 43.2957 42.4596 44.5336C39.0661 50.0935 36.3023 55.8336 34.9933 62.2303C34.5692 64.553 34.4203 67.0345 34.1338 69.4366C34.1125 69.7911 33.9537 70.0662 33.853 70.5583L11.708 57.7729C11.8668 57.4978 12.0257 57.2227 12.3221 57.0271C19.7101 52.4896 24.8023 45.893 29.0906 38.4655C30.8377 35.4395 30.4831 35.4182 32.6838 36.6888C32.9589 36.8476 33.3716 37.0859 33.7843 37.3242C34.8846 37.9595 35.8474 38.5153 36.9478 39.1506C37.6355 39.5477 38.3233 39.9448 39.011 40.3418C39.6987 40.7389 40.6616 41.2948 41.7619 41.9301ZM30.1359 29.3491C30.6336 28.1693 31.7765 28.0956 33.2895 28.9691C38.1037 31.7486 42.7803 34.4486 47.5944 37.228C49.1074 38.1016 49.4774 39.0488 48.8421 40.1492C47.9105 41.4452 46.7888 41.1645 45.6885 40.5292C43.3502 39.1791 41.0119 37.8291 38.6736 36.4791C36.3353 35.1291 33.997 33.7791 31.6588 32.4291C30.2833 31.635 29.4793 30.804 30.1359 29.3491ZM35.947 25.0016C37.7636 19.6316 44.522 14.914 50.2735 15.1169C50.628 15.1382 51.0988 15.5934 51.2945 15.8897C53.6525 21.6526 53.9629 27.1503 50.1568 32.472C48.9869 34.1807 48.7699 34.2389 46.9818 33.2065C45.3313 32.2536 43.6808 31.3006 42.0302 30.3477C40.2421 29.3153 38.454 28.2829 36.6659 27.2506L36.5284 27.1712C35.7031 26.6947 35.6081 25.9063 35.947 25.0016ZM49.9999 10.1907C49.4809 11.725 48.6131 11.9575 47.3908 12.1688C40.6863 13.6164 35.5686 17.0805 33.0373 23.6884C32.6189 24.7307 32.2431 25.0639 31.2378 25.217C28.0047 25.7345 25.8818 29.0937 27.1296 32.0149C27.891 33.5549 27.6102 34.6765 26.6785 35.9726C26.3609 36.5228 25.9638 37.2105 25.5668 37.8982C22.0726 43.9502 18.0283 49.6847 11.9846 53.1643C7.56037 55.745 4.64911 59.1993 2.59997 63.7014C2.20291 64.3892 1.88526 64.9394 1.48819 65.6271C0.614656 67.1401 0.789009 67.7909 2.30202 68.6645C5.05294 70.2527 7.94146 71.9204 10.6924 73.5087C12.3429 74.4616 13.8559 75.3351 15.5065 76.2881C19.908 78.8293 24.3094 81.3705 28.7109 83.9116C30.2239 84.7852 30.8748 84.6108 31.7483 83.0978C32.7807 81.3097 33.7549 79.3046 34.9248 77.5959C36.4124 75.3371 36.974 73.0938 36.9272 70.3159C36.8509 60.9186 40.8272 52.7609 45.6288 45.0796C45.7876 44.8045 46.301 44.5507 46.6555 44.5719C51.169 44.0601 52.9742 41.2511 51.5152 37.1076C51.3989 36.6737 51.4415 35.9647 51.7378 35.769C56.4118 30.2147 56.9323 23.913 54.7757 17.166C54.3474 16.0018 54.1149 15.134 55.1841 13.9174C56.5497 12.5051 56.0478 10.1979 54.2597 9.16557C52.7098 7.72057 50.5403 8.30191 49.9999 10.1907Z" fill="url(#paint0_linear_88_3562)"/>
<defs>
<linearGradient id="paint0_linear_88_3562" x1="19.6609" y1="33.889" x2="50.0551" y2="51.4371" gradientUnits="userSpaceOnUse">
<stop stop-color="#F7941D"/>
<stop offset="1" stop-color="#27AAE1"/>
</linearGradient>
</defs>
</svg>
