<svg width="105" height="123" viewBox="0 0 105 123" fill="none" xmlns="http://www.w3.org/2000/svg">
<path d="M44.4982 112.943L96.1061 89.0154L98.1539 93.4323L46.546 117.36L44.4982 112.943ZM45.4323 104.601C44.6779 102.974 44.4792 101.936 46.5714 100.966C59.5896 94.9307 72.6078 88.895 85.626 82.8593C87.7182 81.8892 88.3818 82.7113 89.1363 84.3386C89.8907 85.9659 89.7491 86.8789 87.8894 87.7411C81.3803 90.759 74.8713 93.7768 68.3622 96.7946C61.8531 99.8125 55.3439 102.83 48.8348 105.848C47.2076 106.603 46.2946 106.461 45.4323 104.601ZM53.2412 45.9053C54.8684 45.1508 55.6566 45.6327 56.3033 47.0275C60.1834 55.3964 64.2961 63.6574 70.2853 70.4835C72.8319 73.5394 75.7356 76.1472 78.5147 79.0954C78.9627 79.4525 79.5185 80.0422 80.0743 80.6318L48.6911 95.1822C48.6003 94.377 48.6171 93.8043 48.634 93.2316C48.6721 84.1759 46.7426 75.75 43.4352 67.3981C41.8354 63.3383 40.1278 59.0461 38.2956 55.0941C37.6489 53.6993 37.8982 53.0188 39.293 52.3722C41.8502 51.1866 44.1748 50.1088 46.732 48.9232C48.8242 47.9532 50.9165 46.9831 53.2412 45.9053ZM26.0297 51.1781C25.383 49.7833 24.5038 48.4963 26.8285 47.4185C37.0571 42.6761 47.2857 37.9338 57.5143 33.1914C59.374 32.3292 59.9299 32.9188 60.6844 34.5461C61.331 35.9409 62.1024 36.9954 59.7777 38.0733C54.5556 40.212 49.3166 42.9234 44.2023 45.2946C39.088 47.6657 34.2062 49.9291 29.0919 52.3003C29.0919 52.3003 29.0919 52.3003 28.8595 52.4081C27.4647 53.0548 26.7841 52.8054 26.0297 51.1781ZM17.5171 44.3922C15.4693 39.9753 13.6539 35.4506 11.3736 31.1415C10.4036 29.0493 11.566 28.5104 12.9608 27.8637C14.3556 27.217 15.6257 26.9106 16.2555 28.8781C16.6697 30.3807 17.6566 31.9002 18.3033 33.295C18.95 34.6898 19.9707 35.0639 21.3655 34.4172C24.1551 33.1238 26.9448 31.8304 29.7344 30.5371C31.1292 29.8904 31.5032 28.8696 30.8566 27.4748C30.1021 25.8476 29.3476 24.2203 28.5932 22.593C28.0543 21.4307 28.3037 20.7502 29.466 20.2113C31.5582 19.2412 33.4179 18.379 35.5101 17.409C36.6724 16.8701 37.1206 17.2272 37.6595 18.3895C38.4139 20.0168 39.1684 21.6441 39.9229 23.2714C40.5695 24.6662 41.5902 25.0403 42.985 24.3936C45.7746 23.1002 48.5643 21.8068 51.3539 20.5135C52.7487 19.8668 53.1227 18.8461 52.476 17.4512C51.7216 15.824 51.0749 14.4292 50.3204 12.8019C49.2257 11.0499 50.6205 10.4032 51.7829 9.86434C52.0153 9.75656 52.0154 9.75655 52.2478 9.64877C53.4102 9.10986 54.3401 8.67871 55.2023 10.5385C57.3579 15.1878 59.5136 19.8372 61.6692 24.4865C62.3159 25.8813 62.0664 26.5619 60.6716 27.2086C53.93 30.3342 47.421 33.3521 40.6794 36.4777C38.8196 37.3399 36.9599 38.2022 35.1002 39.0644C30.4508 41.22 25.8014 43.3757 20.9196 45.6391C20.9196 45.6391 20.9196 45.6391 20.6871 45.7468C19.0599 46.5013 18.2716 46.0195 17.5171 44.3922ZM44.7349 11.7198L47.3216 17.2991L42.6723 19.4547C41.7022 17.3625 40.84 15.5027 39.9777 13.643C39.1155 11.7833 38.0948 11.4092 36.2351 12.2714C32.2831 14.1037 28.3311 15.936 24.6116 17.6605C22.7519 18.5227 22.3778 19.5435 23.24 21.4032C24.1023 23.263 25.0723 25.3552 25.9345 27.2149L21.2852 29.3705C20.3152 27.2783 19.4529 25.4186 18.4829 23.3264C17.7284 21.6991 16.6 21.0925 14.7402 21.9548C13.3454 22.6015 11.7181 23.356 10.3233 24.0026C9.39339 24.4338 8.69605 24.7571 7.76617 25.1882C5.20903 26.3738 5.06739 27.2868 6.1452 29.6115C9.05528 35.8881 12.0731 42.3972 14.9832 48.6738C16.1688 51.231 16.6169 51.5881 19.174 50.4025C20.3363 49.8636 21.0168 50.113 21.6635 51.5078C22.3102 52.9026 23.0646 54.5299 23.7113 55.9247C24.5736 57.7845 25.8268 58.0507 27.4541 57.2963C29.3138 56.434 31.1735 55.5718 33.0333 54.7095C35.2967 59.5914 37.577 63.9005 39.5001 68.6576C42.6997 76.7771 44.6292 85.203 44.1432 93.9015C43.9678 95.9599 43.4691 97.3209 41.5015 97.9507C39.3016 98.6882 39.0352 99.9414 40.0053 102.034C40.6519 103.428 41.2986 104.823 41.8375 105.986C42.4842 107.38 42.5751 108.186 40.8401 108.708C39.105 109.23 38.8387 110.483 39.5932 112.11C40.7788 114.667 41.8566 116.992 43.0422 119.549C43.9044 121.409 44.9251 121.783 46.7849 120.921C50.9693 118.981 55.1537 117.041 59.5706 114.993C73.5187 108.526 87.2343 102.167 101.182 95.6999C103.74 94.5143 103.989 93.8338 102.803 91.2767C101.725 88.952 100.755 86.8598 99.6777 84.5351C98.8154 82.6754 97.8116 81.7286 95.8272 82.9311C94.6649 83.47 93.9843 83.2206 93.4454 82.0583C92.691 80.431 92.0443 79.0362 91.2898 77.4089C90.5354 75.7816 89.1744 75.2829 87.8873 76.162C85.3133 77.9203 83.6289 76.7242 81.7291 75.0631C80.385 73.9917 78.9331 72.6877 77.8215 71.5085C71.1349 65.0057 66.5573 56.9602 62.4448 48.6991C61.4747 46.6069 60.3969 44.2823 59.3191 41.9576C61.4113 40.9876 63.271 40.1253 65.3632 39.1553C66.9905 38.4008 67.5971 37.2723 66.7349 35.4125C66.0882 34.0177 65.4415 32.6229 64.7948 31.2281C64.1481 29.8333 64.2897 28.9203 65.7923 28.5061C67.5273 27.9841 68.026 26.6232 67.2716 24.9959C64.1459 18.2543 60.9125 11.2803 57.7869 4.53871C57.0324 2.91144 55.9039 2.30488 54.152 3.3996C51.5948 4.58518 49.2701 5.663 46.713 6.84859C46.713 6.84859 46.713 6.84857 46.4806 6.95635C44.139 8.60687 43.9804 10.0926 44.7349 11.7198Z" fill="url(#paint0_linear_88_3558)"/>
<defs>
<linearGradient id="paint0_linear_88_3558" x1="22.4479" y1="75.13" x2="82.4245" y2="47.3226" gradientUnits="userSpaceOnUse">
<stop stop-color="#F7941D"/>
<stop offset="1" stop-color="#27AAE1"/>
</linearGradient>
</defs>
</svg>
