<svg width="90" height="113" viewBox="0 0 90 113" fill="none" xmlns="http://www.w3.org/2000/svg">
<path d="M7.13564 87.7565C7.97847 86.1514 8.91656 84.8524 9.55877 83.142C10.201 81.4317 11.119 81.1459 12.9246 82.0941C21.7522 86.7296 30.5798 91.3652 39.608 96.1061C40.6112 96.6329 41.8149 97.265 42.818 97.7917C44.0218 98.4239 44.2123 99.0358 43.5802 100.24C42.632 102.045 41.7892 103.65 40.841 105.456C40.1035 106.86 39.3863 107.251 37.9819 106.514C32.9662 103.88 27.9505 101.246 23.1354 98.7178C21.731 97.9803 20.3267 97.2429 18.9223 96.5054C15.311 94.609 11.6997 92.7126 8.08837 90.8163C6.48335 89.9734 6.39816 89.1609 7.13564 87.7565ZM15.9799 76.2759C25.0393 69.2595 32.4085 60.5876 37.5809 50.2503C38.4237 48.6452 39.141 48.254 40.9467 49.2022C45.2551 51.7206 49.7743 53.8378 54.1881 56.1556C55.3919 56.7877 55.783 57.505 55.1509 58.7088C49.3665 69.2366 46.2004 80.6275 45.5572 92.5754C45.5471 93.082 45.3364 93.4833 45.221 94.1905L14.1238 77.8607C14.7458 77.1636 15.2626 76.6671 15.9799 76.2759ZM61.211 49.6054C62.816 50.4483 63.7038 51.6823 62.6603 53.182C61.8175 54.787 60.2976 54.7567 58.8932 54.0192C55.6832 52.3336 52.2726 50.5426 49.0625 48.8569L39.4325 43.8C37.8274 42.9571 36.9397 41.7231 37.7825 40.1181C38.7307 38.3125 40.1452 38.5433 41.7502 39.3862C44.7597 40.9665 47.769 42.5468 50.979 44.2324C54.1891 45.9181 57.5997 47.7091 61.211 49.6054ZM55.4699 27.3944C57.9379 25.619 60.4059 23.8436 63.2853 21.7723C63.2147 25.3185 63.0489 28.5588 63.189 31.7038C63.1286 34.7434 63.4245 35.1548 66.2534 35.6165C68.5757 36.0682 71.204 36.4245 73.5263 36.8762C73.6216 37.1822 73.6216 37.1822 73.7169 37.4882C70.3209 40.056 66.7243 42.5185 63.233 44.7804C62.8216 45.0763 61.8083 45.056 61.2064 44.74C55.9901 42.0008 50.7738 39.2616 45.5575 36.5224C44.9557 36.2063 44.4591 35.6896 44.4692 35.183C44.4546 30.8242 44.6406 26.5707 44.7414 21.5047C46.9282 23.6768 48.513 25.5328 50.2032 27.1882C50.9957 28.1162 51.4921 28.6329 52.094 28.949C52.8013 29.0644 53.5186 28.6732 55.4699 27.3944ZM66.336 11.0886C64.3096 11.0483 62.1476 12.7284 62.4132 14.6596C62.7641 17.4034 60.8227 18.1756 59.1774 19.3592C57.5321 20.5428 55.9922 21.5258 54.3468 22.7094C53.4188 23.5018 52.7116 23.3864 51.9192 22.4584C49.4365 19.8749 47.1545 17.3968 44.5665 15.014C43.8693 14.392 42.4649 13.6545 41.7476 14.0457C41.0303 14.4368 40.2928 15.8412 40.2727 16.8545C39.9712 21.8152 39.9757 26.6806 39.8749 31.7467C39.9601 32.5593 39.8447 33.2665 39.7293 33.9738C33.3138 35.4679 31.618 39.1845 34.2408 44.913C34.5367 45.3243 34.5166 46.3375 34.3059 46.7388C31.9982 50.646 29.8911 54.6585 27.3828 58.4604C22.7875 65.2615 16.7027 70.5126 10.1214 75.247C9.19336 76.0395 8.26529 76.8319 7.73852 77.835C5.7368 81.6469 3.84043 85.2582 1.83871 89.0702C0.890523 90.8758 1.377 91.8991 2.98202 92.7419C15.0196 99.0631 27.0573 105.384 39.0949 111.706C40.9006 112.654 41.9239 112.167 42.7667 110.562C44.4524 107.352 46.2434 103.942 47.929 100.732C48.7719 99.1266 49.2134 97.3108 49.349 95.5904C49.6963 83.2312 52.4612 71.6296 58.6569 60.8058C59.289 59.602 59.911 58.9048 61.5361 58.7344C62.8553 58.6593 64.29 57.877 65.2181 57.0846C67.8015 54.602 68.1679 51.467 66.3073 48.1864C71.2433 44.6356 75.7681 41.3807 80.3981 37.9252C81.2208 37.3334 81.6522 36.0242 81.567 35.2117C81.3765 34.5997 80.2781 33.767 79.3703 33.5462C76.1401 32.8738 72.8045 32.4019 69.6695 32.0354C67.9491 31.8998 67.0513 31.1725 67.2923 29.2514C67.5433 26.8237 67.4884 24.4913 67.5388 21.9583C67.4637 20.6391 67.8851 19.8366 69.0138 19.1495C70.8597 18.0712 71.512 15.8542 70.7397 13.913C70.2532 12.8897 69.6615 12.067 68.6583 11.5403C68.0564 11.2242 67.1486 11.0034 66.336 11.0886Z" fill="url(#paint0_linear_88_3560)"/>
<defs>
<linearGradient id="paint0_linear_88_3560" x1="24.3844" y1="46.1359" x2="65.3124" y2="67.6281" gradientUnits="userSpaceOnUse">
<stop stop-color="#F7941D"/>
<stop offset="1" stop-color="#27AAE1"/>
</linearGradient>
</defs>
</svg>
