<svg width="41" height="67" viewBox="0 0 41 67" fill="none" xmlns="http://www.w3.org/2000/svg">
<path d="M19.2221 23.1311C19.2221 23.1311 18.9096 23.7562 18.9096 24.8502C18.9096 25.9441 19.2221 27.5069 20.7849 29.226C22.3477 31.1014 24.6919 31.5702 26.5673 31.5702C28.2864 31.5702 29.5366 31.2576 29.5366 31.2576L30.1617 31.1014L36.8818 42.3536L31.412 50.949H35.1627H35.319C35.319 50.949 40.4763 52.043 40.4763 57.2002H40.3199H40.4763H40.3199H40.4763C40.4763 61.7323 40.4763 64.8579 40.4763 64.8579V65.6393H1.5624V57.6691C1.5624 57.6691 1.71871 50.949 7.50109 50.949V51.5741V50.949V51.5741V50.949H10.783V45.3229H11.5644L11.2518 46.1043C11.0955 46.1043 0.624756 42.041 0.624756 23.9125C0.781036 5.47137 20.7849 0.470398 26.5673 0.470398V1.09553V0.470398V1.09553V0.470398H27.3487L27.505 7.50302L39.3823 21.5683V21.7246C39.3823 21.7246 40.1637 23.1311 40.1637 24.6939C40.1637 25.7878 39.6949 27.1944 38.1321 27.8195C37.5069 28.132 36.7256 28.132 36.1004 28.132C33.6 28.132 31.412 26.4129 30.0055 24.225L30.6306 23.7562L31.0994 24.3813C31.0994 24.3813 28.2864 27.0381 24.5356 27.0381C24.0668 27.0381 23.4417 27.0381 22.8166 26.8818C19.5347 26.1004 16.8779 23.1311 16.8779 18.9115C16.8779 17.3487 17.1905 15.4733 18.1282 13.598L19.5347 14.2231C18.7533 15.9422 18.4407 17.505 18.4407 18.9115C18.4407 22.5059 20.6286 24.8501 23.1291 25.4753C23.5979 25.6316 24.0668 25.6316 24.5356 25.6316C27.505 25.6316 30.0055 23.4436 30.0055 23.4436L30.6306 22.8185L31.0994 23.5999C32.3497 25.4753 34.0687 26.7255 35.9441 26.7255C36.4129 26.7255 36.8818 26.5692 37.3507 26.413C38.2883 26.1004 38.4446 25.6316 38.4446 24.8502C38.4446 23.7562 37.8195 22.6622 37.8195 22.6622L38.4446 22.3497L37.8195 22.8185L25.6296 8.44071L25.4733 1.56436H26.2547V2.34576C20.9412 2.34576 1.87498 7.19045 1.87498 24.225C1.87498 41.5722 11.5644 44.8541 11.5644 44.8541L12.0332 45.0103V52.8244H7.18851V52.0429V52.8244C2.96893 52.6681 2.81267 58.1379 2.81267 58.1379H2.03127H2.81267V64.5454H39.3823V65.3268H38.6009C38.6009 65.3268 38.6009 62.2012 38.6009 57.6691H39.3823H38.6009C38.6009 53.762 34.6939 52.9806 34.6939 52.9806L34.8501 52.1992V52.9806H28.2864L34.6939 42.8224L28.7552 32.8204L29.3803 32.3516L29.5366 33.133C29.5366 33.133 28.1301 33.6018 26.2547 33.6018C24.0668 33.6018 21.2537 33.133 19.2221 30.6325C17.503 28.6009 17.0342 26.5692 17.0342 25.1627C17.0342 23.5999 17.503 22.6622 17.6593 22.6622L19.2221 23.1311Z" fill="url(#paint0_linear_88_3564)"/>
<path d="M40.4767 66.4192H1.5628C1.40652 66.4192 1.25026 66.4192 1.09398 66.2629C0.937702 66.1066 0.937692 65.9504 0.937692 65.7941V57.8238C0.937692 55.7921 2.18795 50.6349 7.50149 50.4786H10.1582V46.259C7.34518 44.8525 0 39.3827 0 24.0672C0.15628 5.78239 19.5351 0 26.5677 0H27.3491C27.5054 0 27.6616 9.53627e-06 27.8179 0.15629C27.9742 0.31257 27.9742 0.468856 27.9742 0.625136L28.1305 7.50147L39.8515 21.4104L40.0079 21.5667C40.4767 22.6607 40.7893 23.7546 40.7893 24.8486C40.7893 26.2551 40.0078 27.9742 38.2887 28.4431C37.5073 28.7556 36.8822 28.7556 36.1008 28.7556C34.0692 28.7556 32.0375 27.6616 30.3184 25.7863C29.0682 26.724 27.0365 27.6617 24.536 27.6617C23.9109 27.6617 23.2858 27.6616 22.6607 27.5054C21.5667 27.1928 20.4727 26.724 19.5351 26.0989C19.8476 27.0365 20.3165 27.9742 21.0979 29.0682C22.3481 30.4747 24.0672 31.2561 26.4114 31.2561C27.3491 31.2561 28.1305 31.0998 29.0682 30.9435L29.6933 30.7873C30.0058 30.7873 30.1622 30.7873 30.3184 31.0998L37.0385 42.352C37.1948 42.5083 37.1948 42.8208 37.0385 42.9771L32.1938 50.6349H35.0069H35.1631C35.7882 50.6349 40.7893 52.1977 40.7893 57.5112V65.9504C40.9455 66.1067 40.7892 66.4192 40.4767 66.4192ZM2.03167 65.169H38.2887V65.0127V64.8564H2.96937C2.81309 64.8564 2.65678 64.8564 2.5005 64.7001C2.34422 64.5438 2.34421 64.3876 2.34421 64.2313V58.4489H2.18796H2.03167V65.169ZM39.3827 63.6062H39.5389H39.6953V57.8238H39.5389H39.3827V63.6062ZM3.59448 63.6062H38.2887V57.3549C38.2887 54.5419 35.7882 53.4479 34.8505 53.2916H28.4431C28.2868 53.2916 27.9742 53.1354 27.9742 52.9791C27.818 52.8228 27.818 52.5102 27.9742 52.354L34.2255 42.5083L28.9119 33.7566C28.2868 33.9129 27.5054 33.9129 26.4114 33.9129C24.2235 33.9129 21.0979 33.2878 18.91 30.7873C17.0346 28.4431 16.5657 26.2551 16.5657 25.0049C16.5657 24.0672 16.722 23.4421 16.8783 22.9732C16.4095 21.723 16.0969 20.4728 16.0969 19.0662C16.0969 17.3471 16.5657 15.4718 17.3471 13.5964C17.5034 13.2839 17.816 13.1276 18.1286 13.2838L19.5351 13.909C19.6913 13.909 19.8476 14.0652 19.8476 14.2215C19.8476 14.3778 19.8476 14.5341 19.8476 14.6904C19.2225 16.2532 18.91 17.816 18.91 19.2225C18.91 22.8169 21.0978 24.6923 23.1295 25.1612C23.5983 25.3174 23.911 25.3175 24.3798 25.3175C25.9426 25.3175 27.6616 24.6923 29.3807 23.2858L30.0059 22.6607C30.1621 22.5044 30.3184 22.5044 30.4747 22.5044C30.631 22.5044 30.7872 22.6607 30.9435 22.817L31.4124 23.5984C32.6627 25.4737 34.2255 26.5677 35.7883 26.5677C36.2571 26.5677 36.5696 26.5677 37.0385 26.4114C37.6636 26.2551 37.6636 25.9426 37.6636 25.3175C37.6636 24.8486 37.5073 24.2235 37.1947 23.4421L25.1612 9.22056C25.0049 9.06428 25.0049 9.06429 25.0049 8.908V3.43819C17.9723 4.21959 2.5005 9.68939 2.5005 24.6923C2.5005 39.3827 9.53311 43.7585 11.721 44.8525C11.721 44.8525 11.721 44.8525 11.8773 44.8525L12.3462 45.0088C12.5025 45.1651 12.6587 45.3214 12.6587 45.6339V53.4479C12.6587 53.7605 12.3462 54.073 12.0336 54.073H7.18891C3.90702 54.073 3.43819 57.9801 3.43819 58.7615L3.59448 63.6062ZM6.87638 51.5725C2.96937 52.0414 2.18795 55.7921 2.03167 57.1987H2.18796H2.5005C2.65678 55.7921 3.43821 52.1977 6.87638 52.0414V51.8851C6.87638 51.7288 6.87638 51.7288 6.87638 51.5725ZM39.3827 56.7298H39.5389H39.6953C39.3827 53.4479 36.7259 52.1977 35.6319 51.7288V52.0414C37.5073 52.8228 39.2264 54.3856 39.3827 56.7298ZM29.537 52.0414H34.3817V51.7288H31.2561C31.0998 51.7288 30.7873 51.5726 30.7873 51.4163C30.631 51.26 30.631 50.9474 30.7873 50.7911L35.9445 42.5083L30.3184 33.1315V33.2877C30.3184 33.444 30.1621 33.444 30.1621 33.444L35.4757 42.1957C35.632 42.352 35.632 42.6646 35.4757 42.8209L29.537 52.0414ZM8.1266 52.0414H11.721V46.5716C11.5648 46.7279 11.4085 46.7279 11.2522 46.7279V51.1037C11.2522 51.4163 10.9397 51.7288 10.6271 51.7288H7.97031V51.8851L8.1266 52.0414ZM25.3175 1.25025C19.2225 1.87537 1.40655 6.72007 1.25027 24.0672C1.25027 38.2887 7.65775 43.6023 10.3145 45.1651C10.4708 45.0088 10.6271 45.0088 10.7834 45.0088C7.97034 43.446 1.5628 38.2887 1.5628 24.2235C1.5628 8.43914 17.9723 2.50051 25.1612 1.87538L25.3175 1.25025C25.1612 1.25025 25.1612 1.25025 25.3175 1.25025ZM17.9723 24.2235C17.9723 24.3797 17.9723 24.536 17.9723 24.8486C17.9723 25.9426 18.2848 27.8179 20.0039 29.8496C21.8792 32.1938 24.536 32.6626 26.5677 32.6626C27.3491 32.6626 27.9742 32.6626 28.4431 32.5063C28.4431 32.3501 28.443 32.1938 28.5993 32.0375C27.9742 32.1938 27.1928 32.1938 26.5677 32.1938C23.9109 32.1938 21.723 31.2561 20.3165 29.537C19.0662 27.9742 18.2848 26.2551 18.2848 24.6923V24.536C18.1286 24.536 18.1285 24.3797 17.9723 24.2235ZM31.0998 25.0049C32.1938 26.2551 33.7566 27.5054 35.9445 27.5054C36.5696 27.5054 37.1948 27.3491 37.8199 27.1928C39.0701 26.724 39.5389 25.63 39.5389 24.6923C39.5389 24.0672 39.3827 23.2858 39.0701 22.5044L38.7575 22.817C38.9138 23.2858 39.2264 24.0672 39.0701 24.6923C39.0701 25.4737 38.9139 26.4114 37.6636 26.8803C37.0385 27.0365 36.4133 27.1928 35.9445 27.1928C34.3817 27.1928 32.819 26.4114 31.4124 24.8486L31.2561 25.0049C31.2561 24.8486 31.2561 25.0049 31.0998 25.0049ZM19.5351 24.3798C20.4727 25.4737 21.723 26.0988 22.9732 26.2551C23.4421 26.4114 24.0672 26.4114 24.536 26.4114C26.5677 26.4114 28.4431 25.4737 29.537 24.6923L29.3807 24.536V24.3798C27.8179 25.4737 26.0989 25.9426 24.536 25.9426C24.0672 25.9426 23.5983 25.9426 23.1295 25.7863C21.8792 25.4737 20.6291 24.8486 19.6914 23.7546C19.5351 23.9109 19.5351 24.0672 19.5351 24.3798ZM17.9723 21.723C18.1285 21.723 18.1286 21.723 18.2848 21.8793L18.4411 22.0356C18.1285 21.0979 17.816 20.1602 17.816 18.9099C17.816 17.5034 18.1285 16.0969 18.7537 14.5341L18.4411 14.3778C17.816 15.9406 17.5034 17.5034 17.5034 18.9099C17.5034 19.8476 17.6597 20.9416 17.9723 21.723ZM26.5677 7.97031L38.1325 21.723L38.445 21.5667L27.0365 7.97031C26.8802 7.81403 26.8803 7.81404 26.8803 7.65776V2.65679C26.724 2.65679 26.5677 2.65679 26.4114 2.65679L26.5677 7.97031Z" fill="url(#paint1_linear_88_3564)"/>
<defs>
<linearGradient id="paint0_linear_88_3564" x1="0.624756" y1="33.0549" x2="40.4763" y2="33.0549" gradientUnits="userSpaceOnUse">
<stop stop-color="#F7941D"/>
<stop offset="1" stop-color="#27AAE1"/>
</linearGradient>
<linearGradient id="paint1_linear_88_3564" x1="0" y1="33.2096" x2="40.8506" y2="33.2096" gradientUnits="userSpaceOnUse">
<stop stop-color="#F7941D"/>
<stop offset="1" stop-color="#27AAE1"/>
</linearGradient>
</defs>
</svg>
