<svg width="40" height="32" viewBox="0 0 40 32" fill="none" xmlns="http://www.w3.org/2000/svg">
<path d="M18.2 28.2C18.2 27.3 18.9 26.6 19.8 26.6C20.7 26.6 21.4 27.3 21.4 28.2C21.4 29.1 20.7 29.8 19.8 29.8C19 29.8 18.2 29.1 18.2 28.2ZM16.7 27.4H0.800018C0.400018 27.4 0 27.8 0 28.2C0 28.6 0.400018 29 0.800018 29H16.7C17.1 30.4 18.3 31.4 19.8 31.4C21.3 31.4 22.5 30.4 22.9 29H38.3C38.7 29 39.1 28.6 39.1 28.2C39.1 27.8 38.7 27.4 38.3 27.4H22.9C22.5 26 21.3 25 19.8 25C18.3 25 17.1 26 16.7 27.4ZM16.6 7.60001L22 11.4L16.6 15.2V7.60001ZM15.4 5.29999C15.1 5.39999 15 5.7 15 6V16.8C15 17.1 15.2 17.4 15.4 17.5C15.8 17.7 16.1 17.5 16.2 17.4L23.8 12C24 11.8 24.1 11.6 24.1 11.3C24.1 11 24 10.8 23.8 10.6L16.2 5.20001C16.1 5.10001 15.9 5.10001 15.7 5.10001C15.7 5.30001 15.5 5.29999 15.4 5.29999ZM1.70001 20.9V2.10001C1.70001 1.90001 1.90001 1.7 2.10001 1.7H37.1C37.3 1.7 37.5 1.90001 37.5 2.10001V20.9C37.5 21.1 37.3 21.3 37.1 21.3H2.10001C1.90001 21.2 1.70001 21.1 1.70001 20.9ZM2.10001 0C1.00001 0 0.100006 0.9 0.100006 2V20.8C0.100006 21.9 1.00001 22.8 2.10001 22.8H37.1C38.2 22.8 39.1 21.9 39.1 20.8V2C39.1 0.9 38.2 0 37.1 0H2.10001Z" fill="url(#paint0_linear_88_3535)"/>
<defs>
<linearGradient id="paint0_linear_88_3535" x1="0" y1="15.7" x2="39.1" y2="15.7" gradientUnits="userSpaceOnUse">
<stop stop-color="#F7941D"/>
<stop offset="1" stop-color="#27AAE1"/>
</linearGradient>
</defs>
</svg>
