<svg width="49" height="36" viewBox="0 0 49 36" fill="none" xmlns="http://www.w3.org/2000/svg">
<path d="M23.4 34.2C23.2 34.4 23.1 34.6 23.1 34.9C23.1 35.1 23.2 35.4 23.4 35.6C23.6 35.8 23.8 35.9 24.1 35.9C24.4 35.9 24.6 35.8 24.8 35.6C25 35.4 25.1 35.2 25.1 34.9C25.1 34.7 25 34.4 24.8 34.2C24.6 34 24.4 33.9 24.1 33.9C23.8 33.9 23.6 34 23.4 34.2ZM15.8 17.2L13.4 19.6L12.7 18.9C12.3 18.5 11.7 18.5 11.4 18.9C11 19.3 11 19.9 11.4 20.2L12.7 21.5C12.9 21.7 13.1 21.8 13.4 21.8C13.6 21.8 13.9 21.7 14.1 21.5L17.1 18.5C17.5 18.1 17.5 17.5 17.1 17.2C16.9 17 16.7 16.9 16.4 16.9C16.2 16.9 16 17 15.8 17.2ZM33.8 16.9V18.7C33.5 18.5 33 18.6 32.8 18.9C32.4 19.3 32.4 19.9 32.8 20.2L34.1 21.5C34.3 21.7 34.5 21.8 34.8 21.8C34.9 21.8 35 21.8 35.2 21.7C35.6 21.6 35.8 21.2 35.8 20.8V16.8C35.8 16.3 35.4 15.9 34.9 15.9C34.2 16 33.8 16.4 33.8 16.9ZM5.60001 20.9C5.60001 16.6 9.09999 13.1 13.4 13.1C17.7 13.1 21.2 16.6 21.2 20.9C21.2 25.2 17.7 28.7 13.4 28.7C9.09999 28.7 5.60001 25.2 5.60001 20.9ZM3.70001 20.9C3.70001 26.3 8.09999 30.6 13.4 30.6C18.8 30.6 23.1 26.2 23.1 20.9C23.1 15.6 18.7 11.2 13.4 11.2C8.09999 11.2 3.70001 15.6 3.70001 20.9ZM26.9 20.9C26.9 16.6 30.4 13.1 34.7 13.1C39 13.1 42.5 16.6 42.5 20.9C42.5 25.2 39 28.7 34.7 28.7C30.4 28.7 26.9 25.2 26.9 20.9ZM25 20.9C25 26.3 29.4 30.6 34.7 30.6C40.1 30.6 44.4 26.2 44.4 20.9C44.4 15.6 40 11.2 34.7 11.2C29.4 11.2 25 15.6 25 20.9ZM32 0C31.5 0 31.1 0.400024 31.1 0.900024C31.1 1.40002 31.5 1.80002 32 1.80002H33.8V5.90002H14.4V3.60001H16.2C16.7 3.60001 17.1 3.20001 17.1 2.70001C17.1 2.20001 16.7 1.80002 16.2 1.80002H10.7C10.2 1.80002 9.80002 2.20001 9.80002 2.70001C9.80002 3.20001 10.2 3.60001 10.7 3.60001H12.5V5.90002H2.80002C1.20002 5.90002 0 7.20001 0 8.70001V32.8C0 34.4 1.30002 35.6 2.80002 35.6H19.8C20.3 35.6 20.7 35.2 20.7 34.7C20.7 34.2 20.3 33.8 19.8 33.8H2.80002C2.30002 33.8 1.89999 33.4 1.89999 32.9V8.80002C1.89999 8.30002 2.30002 7.90002 2.80002 7.90002H45.4C45.9 7.90002 46.3 8.30002 46.3 8.80002V32.9C46.3 33.4 45.9 33.8 45.4 33.8H28.4C27.9 33.8 27.5 34.2 27.5 34.7C27.5 35.2 27.9 35.6 28.4 35.6H45.4C47 35.6 48.2 34.3 48.2 32.8V8.70001C48.2 7.10001 46.9 5.90002 45.4 5.90002H35.7V1.80002H37.5C38 1.80002 38.4 1.40002 38.4 0.900024C38.4 0.400024 38 0 37.5 0H32Z" fill="url(#paint0_linear_88_3541)"/>
<defs>
<linearGradient id="paint0_linear_88_3541" x1="0" y1="17.95" x2="48.2" y2="17.95" gradientUnits="userSpaceOnUse">
<stop stop-color="#F7941D"/>
<stop offset="1" stop-color="#27AAE1"/>
</linearGradient>
</defs>
</svg>
