<svg width="43" height="37" viewBox="0 0 43 37" fill="none" xmlns="http://www.w3.org/2000/svg">
<path d="M20.152 14C21.252 14 21.252 12.3 20.152 12.3C19.052 12.3 19.052 14 20.152 14ZM29.752 21.9C29.952 21.8 30.152 21.6 30.252 21.4L30.852 19.9C30.952 19.7 31.252 19.6 31.452 19.6H36.952C37.152 19.6 37.452 19.7 37.552 19.9L41.152 25.7C41.252 25.8 41.252 26 41.252 26C41.252 26.2 41.152 26.4 40.952 26.5C40.852 26.6 40.652 26.6 40.452 26.6C40.352 26.6 40.152 26.5 40.052 26.4L38.352 23.4C38.152 23.1 37.752 22.9 37.452 23C37.052 23.1 36.852 23.4 36.852 23.8V29.1V34.8H34.952V29.1C34.952 28.6 34.552 28.3 34.152 28.3C33.652 28.3 33.352 28.7 33.352 29.1V34.8H31.452V29.1V23.8C31.452 23.3 31.052 23 30.652 23C30.152 23 29.852 23.4 29.852 23.8V23.9L24.752 21.2H24.652C24.452 21.1 24.252 20.9 24.252 20.6C24.252 20.5 24.252 20.5 24.252 20.4C24.352 20.2 24.452 20.1 24.552 20.1C24.652 20 24.852 20 24.952 20.1L29.152 21.9C29.252 21.9 29.352 22 29.452 22C29.552 22 29.652 22 29.752 21.9ZM32.052 15.9C32.052 14.7 32.952 13.8 34.152 13.8C35.352 13.8 36.252 14.7 36.252 15.9C36.252 17.1 35.352 18 34.152 18C32.952 18 32.052 17.1 32.052 15.9ZM9.55199 4.40001C9.55199 2.90001 10.852 1.60001 12.352 1.60001C13.852 1.60001 15.152 2.90001 15.152 4.40001C15.152 5.90001 13.852 7.2 12.352 7.2C10.752 7.1 9.55199 5.90001 9.55199 4.40001ZM7.85197 4.40001C7.85197 5.50001 8.25197 6.4 8.85197 7.2C7.95197 7.2 7.15198 7.70001 6.65198 8.40001L0.45198 17.2C-0.34802 18.4 -0.0480136 20 1.05199 20.8C1.45199 21.1 2.05199 21.3 2.55199 21.3C3.45199 21.3 4.25198 20.9 4.65198 20.2L6.95198 16.9V24.1V35.8C6.95198 36.3 7.35198 36.6 7.75198 36.6H12.152H16.552C17.052 36.6 17.352 36.2 17.352 35.8V24.1V16.9L19.652 20.2C20.252 21.1 21.352 21.5 22.252 21.3C22.452 22 22.952 22.6 23.652 22.9L29.452 26V29.3V35.8C29.452 36.3 29.852 36.6 30.252 36.6H33.852H37.452C37.952 36.6 38.252 36.2 38.252 35.8V29.3V27.2L38.452 27.5C38.452 27.5 38.452 27.5 38.452 27.6C38.852 28.1 39.352 28.4 39.952 28.5C40.552 28.6 41.152 28.5 41.652 28.1C42.252 27.7 42.652 27 42.652 26.2C42.652 25.7 42.552 25.3 42.252 24.9L38.652 19.1C38.252 18.5 37.652 18.2 37.052 18.1C37.452 17.5 37.752 16.8 37.752 16C37.752 13.9 36.052 12.2 33.952 12.2C31.852 12.2 30.152 13.9 30.152 16C30.152 16.8 30.352 17.5 30.852 18.1C30.152 18.2 29.552 18.6 29.252 19.1C29.252 19.2 29.152 19.2 29.152 19.3L28.852 20.1L25.452 18.6C25.452 18.6 25.452 18.6 25.352 18.6C25.052 18.5 24.752 18.4 24.452 18.5C24.452 18.1 24.252 17.6 23.952 17.3L22.152 14.7C21.852 14.3 21.352 14.2 20.952 14.5C20.552 14.8 20.452 15.3 20.752 15.7L22.552 18.3C22.652 18.5 22.752 18.6 22.752 18.8C22.752 19.1 22.652 19.4 22.352 19.6C21.952 19.9 21.352 19.8 21.052 19.4L17.152 13.9C16.952 13.6 16.552 13.5 16.252 13.6C15.852 13.7 15.652 14 15.652 14.4V24.3V35.1H12.952V24.3C12.952 23.8 12.552 23.5 12.152 23.5C11.652 23.5 11.352 23.9 11.352 24.3V35.1H8.65198V24.3V14.4C8.65198 14 8.45199 13.7 8.05199 13.6C7.65199 13.5 7.35198 13.6 7.15198 13.9L3.25198 19.4C3.05198 19.6 2.75198 19.8 2.45198 19.8C2.25198 19.8 2.05198 19.7 1.95198 19.6C1.55198 19.3 1.45198 18.7 1.75198 18.3L7.95198 9.50002C8.15198 9.20002 8.55197 9.00002 8.85197 9.00002H15.552C15.952 9.00002 16.252 9.20002 16.452 9.50002L18.152 11.9C18.452 12.3 18.952 12.4 19.352 12.1C19.752 11.8 19.852 11.3 19.552 10.9L17.852 8.50002C17.352 7.80002 16.552 7.3 15.652 7.3C16.252 6.5 16.652 5.60002 16.652 4.50002C16.652 2.00002 14.652 0 12.152 0C9.65198 0 7.85197 1.90001 7.85197 4.40001Z" fill="url(#paint0_linear_88_3533)"/>
<defs>
<linearGradient id="paint0_linear_88_3533" x1="0" y1="18.3" x2="42.652" y2="18.3" gradientUnits="userSpaceOnUse">
<stop stop-color="#F7941D"/>
<stop offset="1" stop-color="#27AAE1"/>
</linearGradient>
</defs>
</svg>
