<svg width="38" height="40" viewBox="0 0 38 40" fill="none" xmlns="http://www.w3.org/2000/svg">
<path d="M9.7 34C9.7 33.4 9.9 32.9 10.1 32.5C10.4 31.9 10.9 31.3 11.4 30.9C11.5 30.8 11.6 30.8 11.7 30.7C12.2 30.4 13 30.2 13.6 30.2H24C24.6 30.2 25.2 30.4 25.6 30.6L26.1 30.9C26.6 31.3 26.9 31.5 27.3 32.1C27.7 32.7 27.9 33.5 27.9 34.2V37.9H24.9V35.5C24.9 35 24.1 34.5 23.5 35C23.4 35.1 23.3 35.4 23.3 35.5V37.8H14.3V35.6C14.3 35.2 14.1 34.9 13.8 34.8C13.6 34.7 13.4 34.7 13.1 34.8C13 34.9 12.9 34.9 12.8 35C12.7 35.1 12.6 35.3 12.6 35.6V37.8H9.6V34H9.7ZM13.9 28.5C13.5 28.5 13 28.5 12.6 28.6C12.5 28.6 12.4 28.6 12.3 28.7L11.5 29C11.1 29.2 11 29.3 10.6 29.5L10.2 29.8C9.8 30.2 9.2 30.8 8.9 31.3C8.5 32.1 8.1 33 8.1 34.1V38.7C8.1 39.1 8.5 39.5 8.9 39.5H28.7C29.2 39.5 29.6 39.1 29.6 38.6V34.4C29.6 32.4 28.8 30.7 27.2 29.6C27.2 29.6 27.1 29.6 27.1 29.5L26.8 29.3C26.2 29 25.9 28.9 25.2 28.7C24.9 28.6 24.3 28.6 23.9 28.6H13.9V28.5ZM16.1 24.6L15.8 24.4C15.6 24.2 15.3 23.8 15.1 23.5L14.7 22.6C14.6 22.2 14.5 21.7 14.5 21.2C14.5 20.9 14.6 20.5 14.6 20.2C14.7 19.9 14.8 19.6 14.9 19.4C15.1 18.9 15.2 18.8 15.5 18.4C15.6 18.3 15.7 18.2 15.8 18.1C17.2 16.7 19.5 16.4 21.2 17.6C21.3 17.6 21.3 17.7 21.3 17.7C22.3 18.4 23 19.8 23 21C23 21.5 23 21.7 22.9 22.2C22.8 22.6 22.8 22.6 22.6 23L22.3 23.5C22.3 23.5 22.3 23.5 22.3 23.6C22.3 23.6 22.3 23.7 22.2 23.7C21.7 24.4 21 24.9 20.2 25.2C19.7 25.4 19.3 25.5 18.8 25.5C17.9 25.5 16.9 25.2 16.1 24.6ZM17.3 15.5L16.8 15.7C16.6 15.8 16.5 15.8 16.3 15.9L16.1 16C16 16 16 16 16 16.1L15.4 16.4C14.7 16.9 14.2 17.5 13.7 18.2C13.7 18.3 13.6 18.3 13.6 18.4C13.2 19 12.9 20.2 12.9 20.9C12.9 21.6 12.9 22.3 13.2 23C13.3 23.1 13.3 23.3 13.4 23.5C13.8 24.4 14.1 24.7 14.8 25.4C15.1 25.7 15.5 25.9 15.8 26.2C15.9 26.2 15.9 26.3 16 26.3C16.5 26.6 16.7 26.7 17.3 26.8C17.7 26.9 18.6 27 18.9 27C19.3 26.9 19.5 27 20.2 26.8C20.6 26.7 21.2 26.5 21.5 26.3L21.7 26.2C22.2 25.9 22.2 25.9 22.6 25.6C22.7 25.5 22.7 25.5 22.8 25.4C22.9 25.3 22.9 25.3 23 25.2L23.3 24.8C24.5 23.3 25 21.5 24.5 19.6C24.2 18.6 23.7 17.6 23 16.8L22.9 16.7C22.9 16.7 22.9 16.7 22.8 16.7C22.4 16.4 22.5 16.4 22 16.1L21.3 15.7C20.7 15.4 19.7 15.1 19 15.1C18.9 15.1 18.9 15.1 18.8 15.1C18.3 15.3 18 15.3 17.3 15.5ZM29.6 15.6C29.6 15.4 29.7 15.2 29.7 15.1C29.8 14.4 29.9 14.3 29.3 13.8L28.2 12.7C28.1 12.6 28.1 12.6 28.2 12.6C28.3 12.5 29.9 12.4 30.2 12.3C30.3 12.3 30.5 12.2 30.6 12.1C30.6 12.1 30.7 12 30.7 11.9L31.6 10.1C31.6 10.2 32 10.9 32.1 11.1C32.7 12.3 32.5 12.2 33.8 12.4C34 12.4 34.2 12.5 34.4 12.5C34.5 12.5 35 12.6 35 12.6C35 12.6 35 12.6 35 12.7C34.9 12.8 34.9 12.8 34.9 12.8L34.2 13.5C34.1 13.6 34.1 13.6 34 13.7C33.8 13.9 33.7 14 33.6 14.2C33.4 14.5 33.6 15.2 33.7 15.6L33.9 16.7L32.9 16.2C32.7 16.1 32 15.7 31.9 15.7C31.4 15.7 31.4 15.8 30.9 16L30.4 16.1L29.9 16.4C29.9 16.4 29.8 16.4 29.8 16.5L29.4 16.7L29.6 15.6ZM31 7.70001C30.8 7.90001 30.4 8.7 30.3 9C30.3 9.1 30.3 9.10001 30.2 9.20001C30.1 9.40001 29.6 10.4 29.4 10.7C29.4 10.8 29.4 10.8 29.2 10.8L28.3 10.9C28.1 10.9 27.9 11 27.7 11C27.3 11.1 26.3 11.2 26 11.3C25.7 11.4 25.5 11.7 25.5 12.1C25.5 12.3 25.6 12.5 25.7 12.6L26.7 13.6C27 13.9 27.3 14.2 27.6 14.4H27.7C27.9 14.5 28 14.7 28.1 14.8C28 15.1 27.9 16.1 27.8 16.4L27.6 17.6C27.6 17.9 27.4 18.2 27.7 18.6C27.9 18.8 28.1 18.9 28.4 18.9C28.6 18.9 29.1 18.6 29.4 18.5L29.7 18.3C29.8 18.2 29.9 18.2 30 18.1L31.5 17.3C31.6 17.3 31.6 17.3 31.8 17.4L34 18.5C34.2 18.6 34.4 18.8 34.7 18.8C35 18.8 35.2 18.8 35.4 18.6C35.8 18.2 35.6 17.7 35.5 17.1C35.5 17 35.5 16.8 35.4 16.7L35.1 14.7C35.2 14.7 35.2 14.6 35.3 14.6C35.6 14.4 36.5 13.4 37 12.9C37.3 12.6 37.6 12.4 37.7 12V11.8C37.7 11.7 37.7 11.7 37.6 11.6C37.4 11.1 37 11.1 36.6 11C36.4 11 36.2 10.9 36 10.9C35.8 10.9 35.6 10.8 35.4 10.8L34.3 10.6C33.7 10.5 33.9 10.7 33.6 10L32.7 8.30002C32.7 8.20002 32.7 8.20001 32.6 8.10001C32.4 7.80001 32.5 7.7 32.2 7.5C32.1 7.4 31.9 7.30002 31.6 7.30002C31.4 7.40002 31.2 7.50001 31 7.70001ZM4.1 15.1C4.2 14.8 4.2 14.5 4.1 14.2C4 14.1 4 14.1 3.9 14C3.7 13.8 3.6 13.7 3.5 13.6L2.6 12.7C2.9 12.6 4.1 12.5 4.5 12.4C4.7 12.4 4.9 12.3 5 12.2C5.1 12.1 5.2 11.9 5.3 11.7L5.8 10.7C5.9 10.6 6 10.3 6 10.2C6 10.3 6.4 11 6.5 11.2C6.6 11.4 6.9 12 7 12.2C7.3 12.5 7.7 12.5 8.1 12.5C8.3 12.5 9.3 12.7 9.4 12.7C9.3 12.8 8.3 13.8 8.1 14C8 14.1 7.9 14.1 7.9 14.2C7.7 14.5 7.8 14.8 7.9 15.2L8.2 16.8C7.9 16.6 7.5 16.5 7.2 16.3C7 16.2 6.4 15.8 6.2 15.8C5.7 15.8 5.7 15.9 5.2 16.1L3.9 16.8L4.1 15.1ZM5.5 7.70001C5.3 7.90001 4.9 8.7 4.8 9C4.8 9 4.8 9.10001 4.7 9.10001L3.9 10.8C3.8 10.9 3.7 10.9 3.4 10.9L1.7 11.1C1.4 11.1 0.799998 11.2 0.599998 11.3C0.299998 11.4 0 11.7 0 12C0 12.5 0.2 12.6 0.5 12.9L1.5 13.9C1.7 14.1 2.5 14.8 2.5 14.9L2.1 17.4C2.1 17.7 2 17.9 2 18.3C2 18.8 2.6 19.3 3.3 18.9L5.8 17.6C5.9 17.6 5.9 17.5 6 17.5C6.1 17.6 6.2 17.6 6.3 17.7C6.4 17.7 6.4 17.7 6.5 17.8C6.7 17.9 7.4 18.2 7.6 18.4L8.7 19C8.8 19.1 8.8 19 8.8 19.2C9.2 19.2 9.5 19.2 9.7 19C10.1 18.7 9.9 18.2 9.8 17.7C9.7 17.4 9.7 17.2 9.7 16.9L9.5 15.8C9.5 15.7 9.4 15.5 9.4 15.4C9.4 15.1 9.3 15.2 9.7 14.9L10.7 13.9L11.1 13.5C11.6 13 12.3 12.5 11.8 11.9C11.7 11.7 11.5 11.6 11.2 11.6C10.5 11.5 9.6 11.4 8.8 11.3L8 11.2L7.6 10.3C7.5 10.2 6.6 8.30001 6.5 8.20001C6.3 8.00001 6.1 7.89999 5.9 7.89999C5.8 7.39999 5.6 7.50001 5.5 7.70001ZM17 7.30002C17 7.00002 17 6.80001 16.9 6.70001C16.8 6.60001 16.5 6.30001 16.4 6.20001C16.2 6.00001 15.5 5.40002 15.4 5.30002C15.5 5.30002 15.9 5.20001 16 5.20001C16.3 5.20001 17.4 4.99999 17.6 4.89999C17.8 4.79999 17.9 4.7 18 4.5L18.6 3.30002C18.6 3.30002 18.6 3.20001 18.7 3.20001L18.9 2.80002C19 2.90002 19.6 4.10002 19.7 4.30002C19.9 4.60002 20 5 20.4 5L21.7 5.20001C21.8 5.20001 21.9 5.20001 22 5.20001C22.1 5.20001 22.2 5.20001 22.3 5.20001C22.3 5.30001 22 5.50001 21.9 5.60001L20.8 6.70001C20.6 7.10001 20.7 7.49999 20.8 7.89999C20.8 8.09999 20.9 8.3 20.9 8.5C20.9 8.6 20.9 8.70002 20.9 8.80002C20.9 8.90002 21 9.00001 21 9.10001C20.9 9.10001 20 8.59999 19.7 8.39999L19.1 8.10001C18.9 8.00001 18.6 8.10002 18.3 8.30002L17 9C16.9 9 16.8 9.10001 16.7 9.10001L17 7.30002ZM18.3 0.200012C18.1 0.400012 17.8 1.1 17.6 1.5L16.7 3.20001C16.6 3.40001 16.7 3.29999 16.3 3.39999C16.1 3.39999 15.9 3.5 15.7 3.5C15.2 3.6 13.7 3.80002 13.4 3.80002C13.1 3.90002 12.8 4.2 12.8 4.5C12.8 5 13 5.09999 13.3 5.39999L13.8 5.89999C13.9 5.99999 13.9 6.00001 14 6.10001C14.2 6.30001 14.4 6.50002 14.7 6.80002L15 7.10001C15.1 7.20001 15.2 7.39999 15.3 7.39999C15.3 7.59999 15.2 8.00001 15.2 8.20001L14.9 9.80002C14.8 10.2 14.6 10.9 15 11.2C15.3 11.5 15.7 11.5 16.1 11.3C16.2 11.2 16.4 11.2 16.5 11.1C16.9 10.8 17.9 10.4 18.4 10.1C18.5 10.1 18.8 9.89999 18.8 9.89999L21.1 11.1C21.4 11.3 22 11.7 22.5 11.2C22.9 10.8 22.7 10.3 22.6 9.70001C22.5 9.40001 22.5 9.10001 22.4 8.70001C22.3 8.40001 22.3 8.00001 22.2 7.70001C22.1 7.20001 22.1 7.4 22.5 7C22.6 6.9 22.7 6.80001 22.8 6.70001L24.3 5.30002C24.6 5.00002 24.7 4.9 24.7 4.5C24.7 4.1 24.4 3.90002 24.2 3.80002C24 3.80002 21.8 3.39999 21.5 3.39999L20.9 3.30002L19.6 0.600006C19.4 0.200006 19.2 0 18.7 0C18.6 0.1 18.4 0.100012 18.3 0.200012Z" fill="url(#paint0_linear_88_3537)"/>
<defs>
<linearGradient id="paint0_linear_88_3537" x1="0" y1="19.75" x2="37.7" y2="19.75" gradientUnits="userSpaceOnUse">
<stop stop-color="#F7941D"/>
<stop offset="1" stop-color="#27AAE1"/>
</linearGradient>
</defs>
</svg>
