<svg width="40" height="40" viewBox="0 0 40 40" fill="none" xmlns="http://www.w3.org/2000/svg">
<path d="M4.64141 36.3C5.04141 35.8 5.54142 35.4 6.24142 35.3L10.1414 34.6C10.8414 34.5 11.5414 34.6 12.0414 35C12.5414 35.4 12.9414 35.9 13.0414 36.6L4.24142 38.2C4.14142 37.5 4.24141 36.9 4.64141 36.3ZM5.44142 26.8L7.84141 26.4H8.04142L9.84141 33.2L6.24142 33.8L5.44142 26.8ZM9.44142 26.1H9.64141C9.64141 26.2 9.54142 26.2 9.54142 26.3V26.4L9.44142 26.1ZM10.9414 26.9C11.2414 26.3 11.7414 25.9 12.3414 25.6C12.9414 25.4 13.6414 25.4 14.2414 25.7L17.8414 27.3C18.4414 27.6 18.9414 28.1 19.1414 28.7C19.3414 29.3 19.3414 29.9 19.1414 30.6L10.9414 26.9ZM2.44142 24.7L10.0414 23.4L10.2414 24.5L2.64141 25.8L2.44142 24.7ZM4.64141 22.2C4.64141 22.1 4.64142 22.1 4.54142 22C4.54142 21.9 4.44142 21.9 4.44142 21.8L2.14141 19.4L5.34141 18.8L8.44142 18.2L7.14141 21.3C7.14141 21.4 7.14142 21.4 7.04142 21.5C7.04142 21.6 7.04142 21.6 7.04142 21.7L7.14141 22.3L4.74142 22.7L4.64141 22.2ZM16.6414 25.1L14.9414 24.4L18.3414 18.2L20.6414 19.3L18.2414 25.9L16.6414 25.1ZM3.84141 16.9C4.14141 16.6 4.44141 16.4 4.84141 16.4C5.24141 16.3 5.64142 16.4 5.94142 16.5C6.24142 16.6 6.54142 16.9 6.74142 17.2L3.34141 17.8C3.44141 17.4 3.64141 17.1 3.84141 16.9ZM21.8414 18.2L16.5414 15.8L17.0414 14.8L24.0414 18L23.5414 19L21.8414 18.2ZM20.0414 14.5L20.6414 13.2C20.6414 13.1 20.7414 13 20.7414 12.9C20.7414 12.8 20.7414 12.7 20.7414 12.6C20.6414 12.4 20.6414 12.2 20.6414 11.9C20.6414 11.7 20.7414 11.5 20.8414 11.2C20.8414 11.1 20.9414 11.1 20.9414 11C20.9414 10.9 21.0414 10.9 21.0414 10.8C21.1414 10.8 21.1414 10.7 21.2414 10.6C21.3414 10.5 21.3414 10.5 21.3414 10.4C21.7414 10.1 22.2414 9.89999 22.7414 9.89999C23.2414 9.89999 23.6414 10.1 24.0414 10.5C24.2414 10.8 24.4414 11.1 24.4414 11.5C24.5414 11.8 24.4414 12.2 24.3414 12.5C24.2414 12.7 24.1414 12.9 23.9414 13C23.7414 13.2 23.6414 13.3 23.3414 13.4C23.2414 13.4 23.1414 13.5 23.1414 13.6C23.0414 13.7 23.0414 13.7 23.0414 13.8L22.4414 15.1L20.0414 14.5ZM22.8414 8.79999C22.7414 8.79999 22.6414 8.79999 22.5414 8.79999L23.8414 6.89999L29.9414 6.79999C30.4414 6.79999 30.9414 6.99999 31.2414 7.29999C31.5414 7.59999 31.8414 8.10001 31.8414 8.60001C31.8414 9.10001 31.6414 9.59999 31.3414 9.89999C31.0414 10.2 30.5414 10.5 30.0414 10.5H27.5414C27.2414 10.5 26.8414 10.6 26.5414 10.7C26.2414 10.8 25.9414 10.9 25.7414 11.1C25.6414 10.8 25.4414 10.5 25.3414 10.2C25.1414 9.90001 24.9414 9.69999 24.6414 9.39999L25.2414 8.10001L23.9414 7.5L23.3414 8.79999C23.0414 8.79999 22.9414 8.79999 22.8414 8.79999ZM22.0414 0.200012C21.5414 0.200012 20.9414 0.300006 20.5414 0.600006C20.0414 0.900006 19.6414 1.20001 19.3414 1.70001L15.9414 6.79999C15.4414 7.59999 15.2414 8.49999 15.4414 9.29999C15.6414 10.1 16.0414 10.9 16.8414 11.4L16.9414 11.5L17.0414 11.6C17.3414 11.8 17.7414 11.9 18.1414 12C18.4414 12.1 18.8414 12.1 19.1414 12C19.1414 12.1 19.1414 12.3 19.1414 12.4C19.1414 12.6 19.1414 12.7 19.2414 12.9L18.7414 14L17.0414 13.2C16.8414 13.1 16.6414 13.1 16.4414 13.2C16.2414 13.3 16.1414 13.4 16.0414 13.6L14.9414 16C14.8414 16.2 14.8414 16.4 14.9414 16.6C15.0414 16.8 15.1414 16.9 15.3414 17L17.0414 17.7L13.5414 24.1C13.2414 24.1 12.9414 24.1 12.6414 24.1C12.3414 24.1 12.0414 24.2 11.7414 24.3L11.4414 22.4C11.4414 22.2 11.3414 22 11.1414 21.9C10.9414 21.8 10.8414 21.7 10.6414 21.8C10.0414 21.9 9.34142 22 8.74142 22.1L8.64141 21.8L10.4414 17.7C10.5414 17.5 10.5414 17.3 10.4414 17.1C10.3414 16.9 10.2414 16.8 10.0414 16.7C9.94142 16.7 9.94141 16.7 9.84141 16.6C9.74141 16.6 9.74141 16.6 9.64141 16.6L8.34141 16.8C8.04141 16.2 7.64141 15.7 7.14141 15.4C6.64141 15 6.04141 14.8 5.34141 14.8L5.14141 13.4L3.74142 13.7L3.94142 15.1C3.34142 15.4 2.84142 15.8 2.54142 16.3C2.14142 16.8 1.94142 17.4 1.94142 18.1L0.641414 18.3C0.441414 18.3 0.241414 18.4 0.141414 18.6C0.0414141 18.8 -0.0585767 18.9 0.0414233 19.1C0.0414233 19.2 0.0414141 19.2 0.141414 19.3C0.141414 19.4 0.24142 19.4 0.24142 19.5L3.34141 22.7L3.44142 23L1.64141 23.3C1.44141 23.3 1.24141 23.4 1.14141 23.6C1.04141 23.8 0.941423 23.9 1.04142 24.1L1.54142 26.7C1.54142 26.9 1.64141 27 1.84141 27.1C1.94141 27.2 2.14141 27.3 2.34141 27.3H2.44142H2.54142L4.34141 27L5.04142 34.2C4.34142 34.6 3.74142 35.2 3.44142 35.9C3.04142 36.6 2.94142 37.4 3.04142 38.3C3.14142 38.7 3.14141 39 3.34141 39.2C3.44141 39.4 3.64141 39.5 3.84141 39.6C4.24141 39.7 6.24142 39.3 8.44142 38.9C9.64142 38.7 10.9414 38.4 11.9414 38.3L14.3414 37.9C14.5414 37.9 14.7414 37.8 14.8414 37.6C14.9414 37.4 15.0414 37.3 14.9414 37.1L14.8414 36.5C14.7414 35.7 14.2414 34.9 13.7414 34.3C13.1414 33.7 12.4414 33.4 11.6414 33.2L10.3414 28L19.6414 32.2C19.8414 32.3 20.0414 32.3 20.2414 32.2C20.4414 32.1 20.5414 32 20.6414 31.8L20.9414 31.2C21.3414 30.4 21.3414 29.6 21.2414 28.8C21.0414 28 20.7414 27.3 20.0414 26.7L22.5414 19.8L24.2414 20.5C24.2414 20.5 24.3414 20.5 24.4414 20.5C24.5414 20.5 24.5414 20.5 24.6414 20.5H24.7414H24.8414C24.9414 20.5 25.0414 20.4 25.0414 20.3C25.1414 20.2 25.1414 20.2 25.2414 20.1L26.3414 17.7C26.4414 17.5 26.4414 17.3 26.3414 17.1C26.2414 16.9 26.1414 16.8 25.9414 16.7L24.2414 15.9L24.7414 14.8L24.8414 14.7C25.0414 15.4 25.4414 16 26.0414 16.4C26.6414 16.8 27.3414 17.1 28.0414 17.1L39.8414 16.9V15.4L28.0414 15.6C27.7414 15.6 27.5414 15.6 27.2414 15.4C27.0414 15.3 26.7414 15.1 26.6414 15C26.4414 14.8 26.3414 14.6 26.2414 14.3C26.1414 14.1 26.1414 13.8 26.1414 13.5C26.2414 13 26.4414 12.6 26.8414 12.3C27.1414 12 27.6414 11.8 28.1414 11.8H30.6414C31.5414 11.8 32.4414 11.4 33.0414 10.8C33.6414 10.2 34.0414 9.29999 33.9414 8.39999C33.9414 7.49999 33.5414 6.6 32.9414 6C32.3414 5.4 31.4414 5.00001 30.5414 5.10001L24.0414 5.20001C23.9414 5.20001 23.8414 5.19999 23.7414 5.29999C23.6414 5.39999 23.5414 5.4 23.4414 5.5L20.9414 9.39999V9.5C20.8414 9.5 20.8414 9.60001 20.7414 9.70001C20.7414 9.80001 20.6414 9.79999 20.6414 9.89999C20.3414 10.2 19.9414 10.3 19.6414 10.4C19.2414 10.4 18.8414 10.4 18.5414 10.2C18.0414 9.90001 17.7414 9.50001 17.6414 9.10001C17.5414 8.60001 17.5414 8.10001 17.8414 7.70001L17.9414 7.60001L21.3414 2.5C21.5414 2.2 21.7414 1.99999 22.0414 1.89999C22.3414 1.79999 22.6414 1.70001 22.9414 1.70001L39.9414 1.5V0L22.0414 0.200012Z" fill="url(#paint0_linear_88_3539)"/>
<defs>
<linearGradient id="paint0_linear_88_3539" x1="0" y1="19.8078" x2="39.9414" y2="19.8078" gradientUnits="userSpaceOnUse">
<stop stop-color="#F7941D"/>
<stop offset="1" stop-color="#27AAE1"/>
</linearGradient>
</defs>
</svg>
