<svg width="33" height="40" viewBox="0 0 33 40" fill="none" xmlns="http://www.w3.org/2000/svg">
<path d="M3.52548 35.2L17.4255 31.5L18.1255 34L4.22548 37.7L3.52548 35.2ZM6.02548 30C6.52548 28.1 6.52548 26 6.02548 24.1L5.12548 20.9L9.02548 19.9L9.92548 23.1C10.4255 25 11.4255 26.8 12.8255 28.2C13.6255 29.1 14.6255 29.8 15.7255 30.4L4.72548 33.4C5.22548 32.3 5.72548 31.2 6.02548 30ZM2.92548 16C2.82548 15.8 2.82548 15.6 2.92548 15.5C3.02548 15.3 3.12549 15.2 3.32549 15.2L7.62548 14C7.82548 14 8.02548 14 8.12548 14.1C8.22548 14.2 8.32549 14.4 8.32549 14.6L8.42548 18.5L4.92549 19.5L2.92548 16ZM15.4255 21.9C16.5255 21.3 17.4255 20.6 18.3255 19.7C19.7255 18.3 20.7255 16.5 21.2255 14.6L22.1255 11.4L27.2255 12.8L26.3255 16C25.8255 17.9 25.8255 20 26.3255 21.9C26.6255 23.1 27.1255 24.2 27.7255 25.2L15.4255 21.9ZM2.12548 12L1.62548 10.3C2.32548 9.8 2.82549 9.1 2.82549 8.2L4.52548 7.7C4.72548 8.1 5.02549 8.39999 5.42549 8.59999C5.82549 8.79999 6.22548 8.90001 6.62548 8.90001L7.12548 10.6C6.72548 10.8 6.42548 11.1 6.22548 11.5C6.02548 11.9 5.92549 12.3 5.92549 12.7L4.22548 13.2C3.72548 12.5 2.92548 12 2.12548 12ZM22.8255 9.99998C23.2255 8.29998 23.2255 6.5 22.8255 4.8C23.2255 5.1 23.6255 5.49999 23.8255 5.89999C24.0255 6.29999 24.5255 6.4 24.8255 6.2C25.2255 6 25.7255 5.8 26.2255 5.7C26.6255 6 26.9255 6.4 27.2255 6.8C27.4255 7.2 27.9255 7.29999 28.2255 7.09999C28.7255 6.79999 29.2255 6.69999 29.7255 6.59999C28.6255 7.89999 27.7255 9.39999 27.2255 11.1L22.8255 9.99998ZM26.7255 4.3C26.1255 4.1 25.7255 3.5 25.8255 2.8C25.9255 2.3 26.4255 1.89999 27.0255 1.89999C27.1255 1.89999 27.2255 1.89999 27.3255 1.89999C27.6255 1.99999 27.9255 2.2 28.0255 2.5C28.2255 2.8 28.2255 3.09999 28.1255 3.39999C28.0255 3.89999 27.5255 4.3 26.9255 4.3C26.9255 4.3 26.8255 4.3 26.7255 4.3ZM24.4255 2.39999C24.2255 3.09999 24.3255 3.79999 24.6255 4.39999C23.9255 3.59999 23.0255 3 21.9255 2.8C21.6255 2.7 21.3255 2.8 21.2255 3C21.0255 3.2 20.9255 3.5 21.0255 3.8C21.6255 5.7 21.7255 7.8 21.3255 9.7L21.0255 9.59999C20.6255 9.49999 20.2255 9.69999 20.1255 10.1C20.0255 10.5 20.2255 10.9 20.6255 11L19.7255 14.2C18.8255 17.6 16.1255 20.3 12.8255 21.3C12.5255 21.4 12.4255 21.6 12.3255 21.8L11.7255 24C11.5255 23.6 11.4255 23.2 11.3255 22.7L10.4255 19.5L10.7255 19.4C11.1255 19.3 11.3255 18.9 11.2255 18.5C11.1255 18.1 10.7255 17.9 10.3255 18L9.92548 18.1L9.82549 14.5C9.82549 13.8 9.52548 13.2 9.02548 12.8C8.62548 12.5 8.02548 12.3 7.52548 12.4C7.52548 12.4 7.52548 12.3 7.62548 12.3C7.72548 12.1 8.02548 11.9 8.22548 11.8C8.42548 11.7 8.62548 11.6 8.72548 11.4C8.82548 11.2 8.82549 11 8.82549 10.8L8.02548 7.90001C7.92548 7.70001 7.82548 7.49999 7.62548 7.39999C7.42548 7.29999 7.22548 7.3 7.02548 7.3C6.72548 7.4 6.42548 7.3 6.22548 7.2C6.02548 7.1 5.82548 6.79999 5.72548 6.59999C5.62548 6.39999 5.52549 6.19999 5.32549 6.09999C5.12549 5.99999 4.92548 6 4.72548 6L1.82549 6.8C1.62549 6.9 1.42549 7 1.32549 7.2C1.22549 7.4 1.22548 7.6 1.22548 7.8C1.32548 8.1 1.22548 8.39999 1.12548 8.59999C1.02548 8.79999 0.725483 8.99999 0.525483 9.09999C0.125483 9.19999 -0.0745166 9.59999 0.0254834 9.99998L0.825486 12.9C0.925487 13.3 1.32548 13.5 1.72548 13.4C2.02548 13.3 2.42548 13.4 2.62548 13.6C2.12548 13.8 1.72548 14.2 1.52548 14.7C1.22548 15.3 1.32548 16 1.62548 16.6L3.32549 19.7L2.92548 19.8C2.52548 19.9 2.32548 20.3 2.42548 20.7C2.52548 21 2.82548 21.3 3.12548 21.3C3.22548 21.3 3.22549 21.3 3.32549 21.3L3.62548 21.2L4.52548 24.4C5.42548 27.8 4.52548 31.5 2.12548 34C1.92548 34.2 1.82548 34.5 1.92548 34.7L3.02548 38.6C3.12548 38.8 3.22548 39 3.42548 39.1C3.52548 39.2 3.62549 39.2 3.82549 39.2C3.92549 39.2 3.92548 39.2 4.02548 39.2L19.4255 35.1C19.6255 35 19.8255 34.9 19.9255 34.7C20.0255 34.5 20.0255 34.3 20.0255 34.1L18.9255 30.2C18.8255 29.9 18.6255 29.7 18.4255 29.7C16.8255 29.2 15.4255 28.3 14.2255 27.2L18.0255 28.2C18.4255 28.3 18.8255 28.1 18.9255 27.7C19.0255 27.3 18.8255 26.9 18.4255 26.8L13.1255 25.4L13.8255 22.9L28.9255 26.9L28.2255 29.4L22.9255 28C22.5255 27.9 22.1255 28.1 22.0255 28.5C21.9255 28.9 22.1255 29.3 22.5255 29.4L28.5255 31C28.6255 31 28.6255 31 28.7255 31C28.8255 31 29.0255 31 29.1255 30.9C29.3255 30.8 29.4255 30.6 29.5255 30.4L30.6255 26.4C30.7255 26.1 30.6255 25.9 30.4255 25.7C28.0255 23.1 27.1255 19.5 28.0255 16.1L28.9255 12.9H29.0255C29.3255 12.9 29.6255 12.7 29.7255 12.3C29.8255 11.9 29.6255 11.5 29.2255 11.4L28.9255 11.3C29.5255 9.4 30.7255 7.7 32.2255 6.3C32.4255 6.1 32.5255 5.79999 32.4255 5.59999C32.3255 5.29999 32.1255 5.1 31.9255 5C30.9255 4.7 29.8255 4.79999 28.8255 5.09999C29.4255 4.69999 29.8255 4.2 30.0255 3.5C30.2255 2.8 30.1255 2.09999 29.7255 1.39999C29.3255 0.799994 28.7255 0.299991 28.0255 0.0999908C27.8255 -9.15676e-06 27.5255 0 27.3255 0C25.8255 0.4 24.7255 1.19999 24.4255 2.39999Z" fill="url(#paint0_linear_88_3532)"/>
<defs>
<linearGradient id="paint0_linear_88_3532" x1="0" y1="19.6" x2="32.4647" y2="19.6" gradientUnits="userSpaceOnUse">
<stop stop-color="#F7941D"/>
<stop offset="1" stop-color="#27AAE1"/>
</linearGradient>
</defs>
</svg>
