<svg width="84" height="59" viewBox="0 0 84 59" fill="none" xmlns="http://www.w3.org/2000/svg">
<path d="M13.6694 58.6439C6.13054 58.6439 0 52.5134 0 44.9745C0 37.4356 6.13054 31.3051 13.6694 31.3051C21.2083 31.3051 27.3389 37.4356 27.3389 44.9745C27.3389 52.5548 21.2083 58.6439 13.6694 58.6439Z" fill="white"/>
<path d="M13.6694 58.6439C6.13054 58.6439 0 52.5134 0 44.9745C0 37.4356 6.13054 31.3051 13.6694 31.3051C21.2083 31.3051 27.3389 37.4356 27.3389 44.9745C27.3389 52.5548 21.2083 58.6439 13.6694 58.6439Z" fill="white"/>
<path d="M45.9791 1.52203L31.1498 25.7542C30.7356 26.4584 31.1912 27.3283 31.9783 27.3283H46.8075H61.6368C62.4238 27.3283 62.8795 26.417 62.4652 25.7542L47.636 1.52203C47.2218 0.900696 46.3519 0.900696 45.9791 1.52203Z" fill="white"/>
<path d="M27.0487 5.62311L21.7052 0.279602C21.3324 -0.0932007 20.6697 -0.0932007 20.2969 0.279602L14.4149 6.1616C14.0421 6.5344 13.3793 6.5344 13.0065 6.1616L7.12449 0.279602C6.75168 -0.0932007 6.08893 -0.0932007 5.71612 0.279602L0.37262 5.62311C-0.000183128 5.99591 -0.000183128 6.65867 0.37262 7.03148L6.25461 12.9135C6.62741 13.2863 6.62741 13.949 6.25461 14.3218L0.37262 20.2038C-0.000183128 20.5766 -0.000183128 21.2394 0.37262 21.6122L5.71612 26.9557C6.08893 27.3285 6.75168 27.3285 7.12449 26.9557L13.0065 21.0737C13.3793 20.7009 14.0421 20.7009 14.4149 21.0737L20.2969 26.9557C20.6697 27.3285 21.3324 27.3285 21.7052 26.9557L27.0487 21.6122C27.4215 21.2394 27.4215 20.5766 27.0487 20.2038L21.1667 14.3218C20.7939 13.949 20.7939 13.2863 21.1667 12.9135L27.0487 7.03148C27.463 6.65867 27.463 6.03733 27.0487 5.62311Z" fill="white"/>
<path d="M33.7592 40.7492V42.489H36.783V43.6902H33.7592V46.0513H32.2679V39.548H37.1558V40.7492H33.7592Z" fill="white"/>
<path d="M39.1858 45.3886C38.6888 44.8915 38.3988 44.1459 38.3988 43.1932V39.548H39.89V43.1103C39.89 44.2701 40.3871 44.8501 41.3398 44.8501C41.7955 44.8501 42.1683 44.7258 42.4168 44.4358C42.6653 44.1459 42.7896 43.7317 42.7896 43.1103V39.548H44.2808V43.1932C44.2808 44.1459 44.0323 44.8915 43.4938 45.3886C42.9967 45.8856 42.2511 46.1756 41.3398 46.1756C40.4285 46.1756 39.6829 45.8856 39.1858 45.3886Z" fill="white"/>
<path d="M47.2629 40.7906H45.1918V39.548H50.8252V40.7906H48.7541V46.0513H47.2629V40.7906Z" fill="white"/>
<path d="M52.5236 45.3886C52.0265 44.8915 51.7366 44.1459 51.7366 43.1932V39.548H53.2278V43.1103C53.2278 44.2701 53.7249 44.8501 54.6776 44.8501C55.1332 44.8501 55.506 44.7258 55.7546 44.4358C56.0031 44.1459 56.1274 43.7317 56.1274 43.1103V39.548H57.6186V43.1932C57.6186 44.1459 57.37 44.8915 56.8315 45.3886C56.3345 45.8856 55.5889 46.1756 54.6776 46.1756C53.7663 46.1756 53.0621 45.8856 52.5236 45.3886Z" fill="white"/>
<path d="M63.5007 46.0516L62.258 44.2291H62.1751H60.8496V46.0516H59.3584V39.5897H62.1751C62.755 39.5897 63.2521 39.6726 63.6663 39.8797C64.0806 40.0868 64.4119 40.3353 64.6605 40.7081C64.8676 41.0395 64.9919 41.4952 64.9919 41.9508C64.9919 42.4479 64.8676 42.8621 64.6605 43.1935C64.4119 43.5249 64.0806 43.8148 63.6663 43.9805L65.1161 46.0516H63.5007ZM63.1279 41.0809C62.8793 40.8738 62.5479 40.791 62.0923 40.791H60.8496V43.0692H62.0923C62.5479 43.0692 62.8793 42.9864 63.1279 42.7793C63.3764 42.5721 63.4592 42.3236 63.4592 41.9508C63.5006 41.5366 63.3764 41.288 63.1279 41.0809Z" fill="white"/>
<path d="M71.4953 44.8501V46.0513H66.4832V39.548H71.371V40.7492H67.9744V42.1576H70.9568V43.3589H67.9744V44.8501H71.4953Z" fill="white"/>
<path d="M36.5346 56.6557H33.5107L32.9308 58.0641H31.3982L34.2978 51.6022H35.789L38.6886 58.0641H37.1145L36.5346 56.6557ZM36.0789 55.5373L35.0434 53.052L34.0078 55.5373H36.0789Z" fill="white"/>
<path d="M40.8426 57.7326C40.3041 57.4427 39.8899 57.0284 39.5999 56.5314C39.31 56.0343 39.1443 55.4544 39.1443 54.7916C39.1443 54.1703 39.31 53.5904 39.5999 53.0519C39.8899 52.5548 40.3455 52.1406 40.8426 51.8506C41.3811 51.5607 41.961 51.4364 42.6238 51.4364C43.2037 51.4364 43.7008 51.5193 44.1564 51.7264C44.6121 51.9335 44.9849 52.2234 45.3162 52.5962L44.3635 53.4661C43.9079 52.969 43.3694 52.7205 42.748 52.7205C42.3338 52.7205 42.0024 52.8033 41.6711 52.969C41.3397 53.1347 41.0911 53.3833 40.9255 53.7146C40.7598 54.046 40.6769 54.3774 40.6769 54.7916C40.6769 55.2059 40.7598 55.5372 40.9255 55.8686C41.0911 56.2 41.3397 56.4485 41.6711 56.6142C42.0024 56.7799 42.3338 56.8628 42.748 56.8628C43.4108 56.8628 43.9493 56.6142 44.3635 56.0757L45.3162 56.9456C45.0263 57.3184 44.6121 57.6084 44.1564 57.8155C43.7008 58.0226 43.2037 58.1054 42.6238 58.1054C42.0024 58.1469 41.3811 58.0226 40.8426 57.7326Z" fill="white"/>
<path d="M50.7425 56.6557H47.7186L47.1387 58.0641H45.6061L48.5057 51.6022H49.9969L52.8964 58.0641H51.3224L50.7425 56.6557ZM50.2868 55.5373L49.2513 53.052L48.2157 55.5373H50.2868Z" fill="white"/>
<path d="M53.8492 51.5605H56.7902C57.4944 51.5605 58.1158 51.6848 58.6542 51.9748C59.1927 52.2233 59.607 52.6375 59.8969 53.0932C60.1869 53.5903 60.3526 54.1288 60.3526 54.7915C60.3526 55.4543 60.1869 55.9928 59.8969 56.4898C59.607 56.9869 59.1927 57.3597 58.6542 57.6082C58.1158 57.8568 57.4944 58.0225 56.7902 58.0225H53.8492V51.5605ZM56.7074 56.8212C57.3702 56.8212 57.8672 56.6555 58.24 56.2827C58.6128 55.9099 58.8199 55.4129 58.8199 54.8329C58.8199 54.2116 58.6128 53.7145 58.24 53.3831C57.8672 53.0103 57.3287 52.8446 56.7074 52.8446H55.3404V56.8626H56.7074V56.8212Z" fill="white"/>
<path d="M66.773 56.8626V58.0639H61.7609V51.5605H66.6487V52.7618H63.2521V54.1702H66.2759V55.33H63.2521V56.8626H66.773Z" fill="white"/>
<path d="M74.1463 58.0639V54.1702L72.2408 57.3597H71.5781L69.6726 54.253V58.0639H68.2643V51.5605H69.507L71.9095 55.5785L74.312 51.5605H75.5547V58.0639H74.1463Z" fill="white"/>
<path d="M80.4838 55.7442V58.0639H78.9926V55.7442L76.4658 51.5605H78.0813L79.8211 54.4601L81.5194 51.5605H83.0106L80.4838 55.7442Z" fill="white"/>
</svg>
