<svg width="98" height="16" viewBox="0 0 98 16" fill="none" xmlns="http://www.w3.org/2000/svg">
<path fill-rule="evenodd" clip-rule="evenodd" d="M55.567 0.605469C55.5299 3.5657 55.3279 5.22954 54.2178 6.33981C53.1077 7.45009 51.4443 7.65214 48.4844 7.68893V8.12659C51.4443 8.16339 53.1077 8.36544 54.2178 9.47571C55.3279 10.586 55.5299 12.2498 55.567 15.2101H56.0044C56.0415 12.2498 56.2435 10.586 57.3536 9.47571C58.4637 8.36544 60.1272 8.16334 63.0875 8.12659V7.68893C60.1272 7.65214 58.4637 7.45009 57.3536 6.33981C56.2435 5.22954 56.0415 3.5657 56.0044 0.605469H55.567Z" fill="white"/>
<path d="M5.90248 13.3852H7.81667V2.38916H5.03234C2.23222 2.38916 0.760921 3.82894 0.760921 5.94903C0.760921 7.64192 1.56774 8.63871 3.00737 9.66711L0.507812 13.3852H2.58027L5.3646 9.22408L4.39956 8.57543C3.22887 7.78435 2.65933 7.16727 2.65933 5.83826C2.65933 4.66747 3.48198 3.87638 5.04817 3.87638H5.90248V13.3852ZM42.8107 13.5434C43.6807 13.5434 44.2978 13.3852 44.7566 13.0529V11.5182C44.2821 11.8505 43.7126 12.0562 42.9215 12.0562C41.5766 12.0562 41.0232 11.012 41.0232 9.36651C41.0232 7.64192 41.7035 6.75594 42.9372 6.75594C43.665 6.75594 44.3767 7.00905 44.7566 7.24637V5.64843C44.361 5.42689 43.665 5.26867 42.7318 5.26867C40.3272 5.26867 39.0773 6.99327 39.0773 9.41396C39.0773 12.072 40.2953 13.5434 42.8107 13.5434ZM31.0406 12.8473V11.3126C30.4552 11.7081 29.4744 12.0562 28.5568 12.0562C27.1805 12.0562 26.6584 11.4075 26.5793 10.0785H31.1197V9.08169C31.1197 6.31291 29.9015 5.26867 28.0189 5.26867C25.725 5.26867 24.6334 7.02488 24.6334 9.42979C24.6334 12.1986 25.994 13.5434 28.3986 13.5434C29.6009 13.5434 30.4869 13.227 31.0406 12.8473ZM13.7967 5.42689V8.57543H11.2813V5.42689H9.39869V13.3852H11.2813V10.0627H13.7967V13.3852H15.6793V5.42689H13.7967ZM24.1747 11.898H23.3362V5.42689H17.8466V6.10725C17.8466 8.05329 17.7201 10.5689 17.0556 11.898H16.4703V15.2047H18.2105V13.3852H22.4345V15.2047H24.1747V11.898ZM37.0522 13.3852H39.1881L36.1663 9.09753L38.8239 5.42689H36.9256L34.2679 9.09753V5.42689H32.3853V13.3852H34.2679V9.47724L37.0522 13.3852ZM27.9873 6.75594C28.9207 6.75594 29.2055 7.53119 29.2055 8.52794V8.68615H26.5793C26.6268 7.42042 27.0856 6.75594 27.9873 6.75594ZM21.4536 11.898H18.7958C19.3179 10.6955 19.4603 8.52794 19.4603 7.15148V6.91416H21.4536V11.898Z" fill="white"/>
<path d="M68.1196 15.6779V13.3837H74.0047V15.6779H75.7927V11.8965H74.7644V2.3877H68.0407L67.851 7.84616C67.7877 9.6182 67.5976 11.0579 67.0913 11.8965H66.332V15.6779H68.1196ZM69.5277 8.09932L69.6699 3.87492H72.8499V11.8965H68.895C69.2273 11.1529 69.4645 9.87131 69.5277 8.09932Z" fill="white"/>
<path d="M79.0023 12.0555C78.0373 12.0555 77.0883 11.7074 76.582 11.3277V12.8625C76.9457 13.1631 77.8633 13.5428 79.2239 13.5428C81.233 13.5428 82.2931 12.6409 82.2931 11.043C82.2931 10.1095 81.7079 9.47658 80.6634 9.25509C81.6447 8.93866 82.0559 8.24252 82.0559 7.35649C82.0559 6.01166 80.9957 5.26807 79.2871 5.26807C78.0534 5.26807 77.2467 5.64778 76.7879 5.93255V7.46726C77.2937 7.135 77.9902 6.75529 79.0185 6.75529C79.7145 6.75529 80.1576 7.08756 80.1576 7.67293C80.1576 8.28996 79.7777 8.62223 79.0023 8.62223H77.8162V10.0462H79.0023C79.9674 10.0462 80.3473 10.331 80.3473 11.0271C80.3473 11.66 79.8885 12.0555 79.0023 12.0555Z" fill="white"/>
<path d="M89.4149 12.8466V11.3119C88.8292 11.7074 87.8484 12.0555 86.9309 12.0555C85.5546 12.0555 85.0326 11.4068 84.9537 10.0778H89.4938V9.08104C89.4938 6.31226 88.2758 5.26807 86.3932 5.26807C84.0994 5.26807 83.0078 7.02423 83.0078 9.42914C83.0078 12.1979 84.368 13.5428 86.7731 13.5428C87.9754 13.5428 88.8611 13.2263 89.4149 12.8466ZM86.3614 6.75529C87.2951 6.75529 87.5798 7.53054 87.5798 8.52729V8.6855H84.9537C85.0012 7.41977 85.46 6.75529 86.3614 6.75529Z" fill="white"/>
<path d="M95.1558 5.42676V8.57526H92.6404V5.42676H90.7578V13.385H92.6404V10.0625H95.1558V13.385H97.0385V5.42676H95.1558Z" fill="white"/>
</svg>
