<?xml version="1.0" encoding="UTF-8" standalone="no"?> <svg width="512" height="512" viewBox="0 0 512 512" fill="none" xmlns="http://www.w3.org/2000/svg">
<path d="M432 488H112.6C103.4 488 96 480.5 96 471.4V104.6C96 95.4 103.5 88 112.6 88H432V488Z" fill="#69B8E0"/>
<path d="M408 88H344V24L376 40L408 24V88Z" fill="#EA7780"/>
<path d="M312 88H248V40L280 56L312 40V88Z" fill="#1F4256"/>
<path d="M176 488H112.6C103.4 488 96 480.5 96 471.4V104.6C96 95.4 103.5 88 112.6 88H176V488Z" fill="#5391B0"/>
<path d="M464 152H432V184H464V152Z" fill="#EA7780"/>
<path d="M464 120H432V152H464V120Z" fill="#EECC6E"/>
<path d="M464 184H432V216H464V184Z" fill="#1F4256"/>
<path d="M464 216H432V296H464V216Z" fill="#3EC6AC"/>
<path d="M360 296H248C243.6 296 240 292.4 240 288C240 283.6 243.6 280 248 280H360C364.4 280 368 283.6 368 288C368 292.4 364.4 296 360 296Z" fill="#1F4256"/>
<path d="M360 464H248C244.8 464 241.8 462.1 240.6 459.1C239.4 456.1 240 452.7 242.3 450.4L340.6 352.1H248C243.6 352.1 240 348.5 240 344.1C240 339.7 243.6 336.1 248 336.1H360C363.2 336.1 366.2 338 367.4 341C368.6 344 368 347.4 365.7 349.7L267.3 448H360C364.4 448 368 451.6 368 456C368 460.4 364.4 464 360 464Z" fill="#EECC6E"/>
<path d="M128 168H72C58.7 168 48 157.3 48 144C48 130.7 58.7 120 72 120H128V168Z" fill="#EECC6E"/>
<path d="M128 264H72C58.7 264 48 253.3 48 240C48 226.7 58.7 216 72 216H128V264Z" fill="#EECC6E"/>
<path d="M128 360H72C58.7 360 48 349.3 48 336C48 322.7 58.7 312 72 312H128V360Z" fill="#EECC6E"/>
<path d="M128 456H72C58.7 456 48 445.3 48 432C48 418.7 58.7 408 72 408H128V456Z" fill="#EECC6E"/>
<path d="M367.2 228.399L311.2 116.399C311.2 116.299 311.1 116.299 311.1 116.199C311 116.099 311 115.899 310.9 115.799C310.8 115.699 310.8 115.599 310.7 115.499C310.6 115.399 310.5 115.299 310.5 115.099C310.4 114.999 310.4 114.899 310.3 114.799C310.2 114.699 310.1 114.599 310 114.499C309.9 114.399 309.8 114.299 309.7 114.199C309.6 114.099 309.5 113.999 309.4 113.899C309.3 113.799 309.2 113.699 309.1 113.599C309 113.499 308.9 113.499 308.8 113.399C308.7 113.299 308.6 113.199 308.4 113.099C308.3 112.999 308.2 112.999 308.1 112.899C308 112.799 307.8 112.699 307.7 112.699C307.6 112.699 307.6 112.599 307.5 112.599C307.5 112.599 307.4 112.599 307.4 112.499C307.3 112.399 307.1 112.399 307 112.299C306.9 112.299 306.8 112.199 306.7 112.199C306.6 112.199 306.5 112.099 306.3 112.099C306.2 112.099 306 111.999 305.9 111.999C305.8 111.999 305.7 111.999 305.6 111.899C305.5 111.899 305.3 111.799 305.2 111.799C305.1 111.799 305 111.799 304.9 111.799C304.8 111.799 304.6 111.799 304.5 111.799C304.4 111.799 304.3 111.799 304.1 111.799C304 111.799 303.8 111.799 303.7 111.799C303.6 111.799 303.4 111.799 303.3 111.799C303.2 111.799 303.1 111.799 302.9 111.799C302.8 111.799 302.6 111.799 302.5 111.899C302.4 111.899 302.3 111.899 302.2 111.999C302.1 111.999 301.9 112.099 301.8 112.099C301.7 112.099 301.6 112.199 301.4 112.199C301.3 112.199 301.2 112.299 301.1 112.299C301 112.399 300.8 112.399 300.7 112.499C300.6 112.499 300.6 112.499 300.5 112.599C300.4 112.599 300.4 112.699 300.3 112.699C300.2 112.799 300 112.799 299.9 112.899C299.8 112.999 299.7 112.999 299.6 113.099C299.5 113.199 299.4 113.299 299.2 113.399C299.1 113.499 299 113.499 298.9 113.599C298.8 113.699 298.7 113.799 298.6 113.899C298.5 113.999 298.4 114.099 298.3 114.199C298.2 114.299 298.1 114.399 298 114.499C297.9 114.599 297.8 114.699 297.7 114.799C297.6 114.899 297.6 114.999 297.5 115.099C297.4 115.199 297.3 115.299 297.2 115.499C297.1 115.599 297.1 115.699 297 115.799C296.9 115.899 296.8 116.099 296.8 116.199C296.8 116.299 296.7 116.299 296.7 116.399L240.7 228.399C238.7 232.399 240.3 237.199 244.3 239.099C245.4 239.699 246.7 239.899 247.9 239.899C250.8 239.899 253.7 238.299 255.1 235.499L272.9 199.899H335L352.8 235.499C354.2 238.299 357 239.899 360 239.899C361.2 239.899 362.4 239.599 363.6 239.099C367.5 237.199 369.1 232.399 367.2 228.399ZM280.9 183.999L304 137.899L327.1 183.999H280.9Z" fill="#EECC6E"/>
<path d="M464 112H440V87.9997C440 83.5997 436.4 79.9997 432 79.9997H416V23.9997C416 21.1997 414.6 18.6997 412.2 17.1997C409.8 15.6997 406.9 15.5997 404.4 16.7997L376 31.0997L347.6 16.8997C345.1 15.6997 342.2 15.7997 339.8 17.2997C337.4 18.7997 336 21.2997 336 24.0997V80.0997H320V39.9997C320 37.1997 318.6 34.6997 316.2 33.1997C313.8 31.6997 310.9 31.5997 308.4 32.7997L280 47.0997L251.6 32.8997C249.1 31.6997 246.2 31.7997 243.8 33.2997C241.4 34.7997 240 37.2997 240 40.0997V80.0997H176H112.6C99.1 79.9997 88 91.0997 88 104.6V112H72C54.4 112 40 126.4 40 144C40 161.6 54.4 176 72 176H88V208H72C54.4 208 40 222.4 40 240C40 257.6 54.4 272 72 272H88V304H72C54.4 304 40 318.4 40 336C40 353.6 54.4 368 72 368H88V400H72C54.4 400 40 414.4 40 432C40 449.6 54.4 464 72 464H88V471.4C88 485 99.1 496 112.6 496H176H432C436.4 496 440 492.4 440 488V304H464C468.4 304 472 300.4 472 296V216V184V152V120C472 115.6 468.4 112 464 112ZM456 176H440V160H456V176ZM440 192H456V208H440V192ZM456 128V144H440V128H456ZM352 36.8997L372.4 47.0997C374.7 48.1997 377.3 48.1997 379.6 47.0997L400 36.8997V79.9997H352V36.8997ZM256 52.8997L276.4 63.0997C278.7 64.1997 281.3 64.1997 283.6 63.0997L304 52.8997V79.9997H256V52.8997ZM56 144C56 135.2 63.2 128 72 128H120V160H72C63.2 160 56 152.8 56 144ZM56 240C56 231.2 63.2 224 72 224H120V256H72C63.2 256 56 248.8 56 240ZM56 336C56 327.2 63.2 320 72 320H120V352H72C63.2 352 56 344.8 56 336ZM56 432C56 423.2 63.2 416 72 416H120V448H72C63.2 448 56 440.8 56 432ZM112.6 480C107.8 480 104 476.1 104 471.4V464H128C132.4 464 136 460.4 136 456V408C136 403.6 132.4 400 128 400H104V368H128C132.4 368 136 364.4 136 360V312C136 307.6 132.4 304 128 304H104V272H128C132.4 272 136 268.4 136 264V216C136 211.6 132.4 208 128 208H104V176H128C132.4 176 136 172.4 136 168V120C136 115.6 132.4 112 128 112H104V104.6C104 99.7997 107.9 95.9997 112.6 95.9997H168V480H112.6ZM424 480H184V95.9997H248H312H344H408H424V120V152V184V216V296V480ZM456 288H440V224H456V288Z" fill="black"/>
<path d="M360 280H248C243.6 280 240 283.6 240 288C240 292.4 243.6 296 248 296H360C364.4 296 368 292.4 368 288C368 283.6 364.4 280 360 280Z" fill="black"/>
<path d="M360 448H267.3L365.6 349.7C367.9 347.4 368.6 344 367.3 341C366.1 338 363.1 336.1 359.9 336.1H248C243.6 336.1 240 339.7 240 344.1C240 348.5 243.6 352.1 248 352.1H340.7L242.4 450.4C240.1 452.7 239.4 456.1 240.7 459.1C241.9 462.1 244.9 464 248.1 464H360.1C364.5 464 368.1 460.4 368.1 456C368.1 451.6 364.4 448 360 448Z" fill="black"/>
<path d="M244.4 239.2C245.5 239.8 246.8 240 248 240C250.9 240 253.8 238.4 255.2 235.6L273 200H335.1L352.9 235.6C354.3 238.4 357.1 240 360.1 240C361.3 240 362.5 239.7 363.7 239.2C367.7 237.2 369.3 232.4 367.3 228.5L311.3 116.5C311.3 116.4 311.2 116.4 311.2 116.3C311.1 116.2 311.1 116 311 115.9C310.9 115.8 310.9 115.7 310.8 115.6C310.7 115.5 310.6 115.4 310.6 115.2C310.5 115.1 310.5 115 310.4 114.9C310.3 114.8 310.2 114.7 310.1 114.6C310 114.5 309.9 114.4 309.8 114.3C309.7 114.2 309.6 114.1 309.5 114C309.4 113.9 309.3 113.8 309.2 113.7C309.1 113.6 309 113.6 308.9 113.5C308.8 113.4 308.7 113.3 308.5 113.2C308.4 113.1 308.3 113.1 308.2 113C308.1 112.9 307.9 112.8 307.8 112.8C307.7 112.8 307.7 112.7 307.6 112.7C307.6 112.7 307.5 112.7 307.5 112.6C307.4 112.5 307.2 112.5 307.1 112.4C307 112.4 306.9 112.3 306.8 112.3C306.7 112.3 306.6 112.2 306.4 112.2C306.3 112.2 306.1 112.1 306 112.1C305.9 112.1 305.8 112.1 305.7 112C305.6 112 305.4 111.9 305.3 111.9C305.2 111.9 305.1 111.9 305 111.9C304.9 111.9 304.7 111.9 304.6 111.9C304.5 111.9 304.4 111.9 304.2 111.9C304.1 111.9 303.9 111.9 303.8 111.9C303.7 111.9 303.5 111.9 303.4 111.9C303.3 111.9 303.2 111.9 303 111.9C302.9 111.9 302.7 111.9 302.6 112C302.5 112 302.4 112 302.3 112.1C302.2 112.1 302 112.2 301.9 112.2C301.8 112.2 301.7 112.3 301.5 112.3C301.4 112.3 301.3 112.4 301.2 112.4C301.1 112.5 300.9 112.5 300.8 112.6C300.7 112.6 300.7 112.6 300.6 112.7C300.5 112.7 300.5 112.8 300.4 112.8C300.3 112.9 300.1 112.9 300 113C299.9 113.1 299.8 113.1 299.7 113.2C299.6 113.3 299.5 113.4 299.3 113.5C299.2 113.6 299.1 113.6 299 113.7C298.9 113.8 298.8 113.9 298.7 114C298.6 114.1 298.5 114.2 298.4 114.3C298.3 114.4 298.2 114.5 298.1 114.6C298 114.7 297.9 114.8 297.8 114.9C297.7 115 297.7 115.1 297.6 115.2C297.5 115.3 297.4 115.4 297.3 115.6C297.2 115.7 297.2 115.8 297.1 115.9C297 116 296.9 116.2 296.9 116.3C296.9 116.4 296.8 116.4 296.8 116.5L240.8 228.5C238.9 232.4 240.5 237.2 244.4 239.2ZM280.9 184L304 137.9L327.1 184H280.9Z" fill="black"/>
</svg>
