<?xml version="1.0" standalone="no"?>
<!DOCTYPE svg PUBLIC "-//W3C//DTD SVG 20010904//EN"
 "http://www.w3.org/TR/2001/REC-SVG-20010904/DTD/svg10.dtd">
<svg version="1.0" xmlns="http://www.w3.org/2000/svg"
 width="1280.000000pt" height="1280.000000pt" viewBox="0 0 1280.000000 1280.000000"
 preserveAspectRatio="xMidYMid meet">
<metadata>
Created by potrace 1.15, written by Peter Selinger 2001-2017
</metadata>
<g transform="translate(0.000000,1280.000000) scale(0.100000,-0.100000)"
fill="#000000" stroke="none">
<path d="M6320 10251 c-50 -15 -106 -50 -142 -88 -120 -124 -119 -318 2 -450
22 -23 40 -49 40 -56 0 -24 -42 -54 -160 -112 -63 -32 -142 -77 -175 -100 -74
-52 -176 -159 -230 -240 -43 -66 -101 -192 -111 -242 -3 -18 -9 -33 -13 -33
-4 0 -39 53 -78 117 -39 65 -77 122 -85 127 -10 6 -30 4 -59 -5 -39 -12 -45
-18 -49 -48 -5 -31 -6 -33 -19 -17 -24 28 -121 3 -121 -31 0 -9 29 -102 64
-207 35 -105 85 -283 111 -396 26 -113 68 -270 95 -350 73 -223 221 -559 321
-732 61 -104 57 -110 -88 -167 -45 -18 -91 -43 -103 -56 -13 -13 -29 -56 -41
-108 -24 -99 -46 -134 -93 -143 -104 -19 -158 -121 -104 -196 26 -38 85 -64
162 -73 71 -9 91 -27 100 -89 11 -69 60 -120 163 -167 47 -22 89 -49 98 -63
46 -69 43 -692 -5 -1286 -37 -452 -141 -837 -326 -1210 -93 -187 -175 -315
-296 -460 -94 -114 -118 -153 -118 -193 0 -36 -25 -95 -53 -125 -12 -13 -44
-35 -72 -49 -78 -40 -133 -81 -218 -162 -285 -272 -402 -628 -270 -824 26 -39
31 -52 21 -58 -56 -31 -118 -82 -143 -118 -24 -34 -30 -54 -33 -111 -5 -89 9
-129 64 -180 152 -140 594 -236 1349 -292 228 -17 1173 -17 1395 0 733 56
1139 140 1326 274 61 43 88 99 88 178 -1 100 -38 159 -144 226 -25 15 -47 29
-49 31 -3 2 5 13 17 26 34 36 64 116 70 183 11 137 -42 299 -148 458 -109 162
-231 274 -424 388 -54 32 -83 76 -91 138 -9 67 -25 95 -121 210 -227 272 -389
595 -504 1003 -85 300 -110 483 -141 1062 -19 356 -21 439 -12 631 7 147 15
231 24 250 10 21 36 40 95 69 134 66 156 90 178 197 9 41 29 54 90 62 114 13
186 64 186 131 0 74 -35 117 -112 135 -60 15 -80 42 -103 144 -26 114 -29 118
-156 171 -48 20 -95 45 -105 56 -18 20 -18 22 10 72 124 225 264 542 341 772
24 72 64 222 90 335 26 113 76 292 111 399 35 106 64 204 64 217 0 18 -8 25
-37 33 -55 16 -70 14 -87 -11 -16 -22 -16 -22 -16 14 0 19 -6 40 -12 45 -17
14 -74 24 -93 17 -8 -3 -47 -60 -85 -125 -39 -66 -75 -117 -79 -115 -5 3 -11
20 -15 37 -10 50 -82 196 -130 262 -52 73 -154 176 -216 218 -25 16 -103 59
-173 95 -72 38 -135 76 -143 90 -15 23 -14 26 26 71 23 27 51 65 61 86 88 171
-1 389 -184 451 -50 17 -134 20 -177 7z"/>
</g>
</svg>
