<?xml version="1.0" encoding="utf-8"?>
<!-- Generator: Adobe Illustrator 22.1.0, SVG Export Plug-In . SVG Version: 6.00 Build 0)  -->
<svg version="1.1" id="Layer_1" xmlns="http://www.w3.org/2000/svg" xmlns:xlink="http://www.w3.org/1999/xlink" x="0px" y="0px"
	 viewBox="0 0 500 500" style="enable-background:new 0 0 500 500;" xml:space="preserve">
<style type="text/css">
	.st0{fill:#5E0ACC;}
	.st1{fill:#00D6D6;}
	.st2{fill:#FFDC12;}
	.st3{fill:#FF8C00;}
	.st4{fill:#FFBB00;}
	.st5{fill:#002B45;}
	.st6{fill:#004E7A;}
	.st7{fill:#FFFFFF;}
	.st8{fill:#FF453B;}
	.st9{fill:#E3E3E3;}
	.st10{fill:#00B0B3;}
	.st11{clip-path:url(#SVGID_1_);}
</style>
<rect class="st0" width="500" height="500"/>
<g>
	<polygon class="st1" points="70.9,241.8 52,259.3 52,253.5 43.5,253.5 43.5,267.2 31.8,278 40,278 40,320.8 101.9,320.8 101.9,278 
		110,278 	"/>
	<path class="st2" d="M86.3,293.7c-0.3-0.8-0.7-1.5-1.2-2.1c-0.5-0.6-1.1-1.2-1.8-1.6c-0.7-0.5-1.5-0.8-2.4-1.1v-0.1
		c1.5-0.8,2.7-1.9,3.3-3.1c0.7-1.2,1-2.6,1-4.1c0-0.8-0.1-1.7-0.4-2.5c-0.3-0.8-0.7-1.6-1.2-2.4c-0.6-0.7-1.3-1.4-2.1-2
		c-0.9-0.6-1.9-1.1-3-1.5c-0.9-0.3-2-0.5-3.2-0.6v-5.2h-3.6v5.1h-3.9v-5.1H64v5.1h-3.8h-5.1v5.8h5.1v22.9h-5.1v5.8h5.1H64v5.1h3.6
		v-5.1h2.6c0.5,0,0.9,0,1.3,0v5.1h3.6v-5.3c0.5-0.1,1-0.1,1.4-0.2c0.5-0.1,1-0.2,1.4-0.3c1.7-0.4,3.1-1,4.2-1.8
		c1.1-0.8,2-1.6,2.7-2.5c0.7-0.9,1.1-1.8,1.4-2.8c0.3-1,0.4-1.9,0.4-2.7C86.7,295.4,86.5,294.5,86.3,293.7z M71.7,277.6
		c0.9,0,1.7,0,2.3,0.1c0.6,0.1,1.2,0.2,1.6,0.3c1.1,0.3,1.9,0.9,2.4,1.6c0.5,0.7,0.7,1.5,0.7,2.4c0,0.9-0.2,1.7-0.6,2.4
		c-0.4,0.7-1.1,1.2-2,1.6c-0.8,0.3-2.1,0.5-3.8,0.5h-5.7v-8.9H71.7z M79.9,298c-0.2,0.5-0.4,0.9-0.8,1.3c-0.4,0.4-0.8,0.8-1.4,1.1
		c-0.6,0.3-1.3,0.6-2.2,0.8c-0.6,0.1-1.2,0.2-2,0.3c-0.8,0.1-1.7,0.1-2.8,0.1h-4.1v-9.7h6c1,0,1.9,0,2.6,0.1
		c0.7,0.1,1.3,0.2,1.8,0.3c1.1,0.4,2,0.9,2.5,1.6c0.5,0.7,0.8,1.6,0.8,2.5C80.2,297,80.1,297.5,79.9,298z"/>
</g>
<g>
	<rect x="73.7" y="218.8" class="st3" width="116.4" height="18.2"/>
	<path class="st4" d="M122.9,218.8H80.4c2.9-20.3,13.7-38,30.8-46l7.8,30.7L122.9,218.8z"/>
	<path class="st4" d="M183.4,218.8h-42.5l3.9-15.3l7.8-30.7C169.7,180.9,180.5,198.5,183.4,218.8z"/>
	<path class="st2" d="M155.7,160.6l-10.9,42.9l-3.9,15.3h-18l-3.9-15.3l-7.8-30.7l-3.1-12.3c7.4-2.9,15.4-4.5,23.8-4.5
		S148.3,157.6,155.7,160.6z"/>
</g>
<g>
	<g>
		<path class="st5" d="M164.9,337.4h-35.1c-2.4,0-4.4-2-4.4-4.4v-75.2c0-2.4,2-4.4,4.4-4.4h35.1c2.4,0,4.4,2,4.4,4.4V333
			C169.3,335.4,167.4,337.4,164.9,337.4z"/>
		<rect x="127.8" y="265.4" class="st1" width="39.2" height="56.4"/>
		<rect x="144.6" y="327.8" class="st6" width="5.6" height="5.6"/>
		<path class="st6" d="M151.6,258.2h-8.6c-0.7,0-1.2,0.5-1.2,1.2s0.5,1.2,1.2,1.2h8.6c0.7,0,1.2-0.5,1.2-1.2
			S152.3,258.2,151.6,258.2z"/>
	</g>
	<g>
		<rect x="136.5" y="292.4" class="st2" width="21.6" height="20.1"/>
		<g>
			<path class="st7" d="M140.2,292.4c0,0,0-4.8,0-6.5c0-0.3,0-0.6,0-0.9c0-2.7,0-5.7,1.9-7.6c1.2-1.2,3-1.8,5.3-1.8
				c2.4,0,4.1,0.6,5.3,1.8c1.9,1.9,1.9,4.9,1.9,7.7c0,0.3,0,0.6,0,0.9v6.5h-2.7v-6.5c0-0.3,0-0.6,0-0.9c0-2.4,0-4.6-1.1-5.8
				c-0.7-0.7-1.8-1-3.4-1c-1.6,0-2.7,0.3-3.4,1c-1.2,1.2-1.2,3.5-1.2,5.7c0,0.3,0,0.6,0,0.9c0,1.8,0,6.5,0,6.5L140.2,292.4z"/>
		</g>
		<g>
			<rect x="140.2" y="295.3" class="st7" width="4.8" height="5.6"/>
			<rect x="145" y="295.3" class="st8" width="4.8" height="5.6"/>
			<rect x="149.7" y="295.3" class="st5" width="4.8" height="5.6"/>
		</g>
	</g>
</g>
<g>
	<path class="st7" d="M359.4,162.3c-2.1,0-4.2,0.2-6.2,0.6c-1.1-16.9-15.1-30.3-32.3-30.3c-17.9,0-32.4,14.5-32.4,32.4
		c0,2.2,0.2,4.4,0.7,6.5c-0.8-0.1-1.5-0.1-2.3-0.1c-14.2,0-25.6,11.5-25.6,25.6c0,14.2,11.5,25.6,25.6,25.6c14.2,0,57.2,0,72.6,0
		c16.7,0,30.2-13.5,30.2-30.2C389.6,175.8,376.1,162.3,359.4,162.3z"/>
	<path class="st3" d="M344.3,188.4c-0.4-1.1-0.9-2.1-1.6-2.9c-0.7-0.9-1.5-1.6-2.5-2.2c-1-0.6-2.1-1.1-3.2-1.5v-0.1
		c2.1-1.1,3.7-2.6,4.6-4.3c0.9-1.7,1.4-3.6,1.4-5.7c0-1.2-0.2-2.3-0.5-3.5c-0.4-1.1-0.9-2.2-1.7-3.3c-0.8-1-1.7-2-2.9-2.8
		c-1.2-0.8-2.6-1.5-4.2-2c-1.3-0.4-2.7-0.7-4.5-0.9v-7.1h-5v7h-5.3v-7h-5v7h-5.2h-7v8h7v31.5h-7v8h7h5.2v7h5v-7h3.6
		c0.6,0,1.2,0,1.8,0v7h5v-7.2c0.7-0.1,1.3-0.2,1.9-0.3c0.7-0.1,1.3-0.2,1.9-0.4c2.3-0.6,4.3-1.4,5.8-2.5c1.5-1,2.8-2.2,3.7-3.4
		c0.9-1.2,1.6-2.5,1.9-3.8c0.4-1.3,0.5-2.6,0.5-3.7C344.9,190.7,344.7,189.5,344.3,188.4z M324.3,166.3c1.3,0,2.3,0,3.2,0.1
		c0.9,0.1,1.6,0.2,2.2,0.4c1.5,0.5,2.6,1.2,3.3,2.2c0.6,1,1,2.1,1,3.3c0,1.2-0.3,2.3-0.8,3.2c-0.6,1-1.5,1.7-2.8,2.3
		c-1.2,0.5-2.9,0.7-5.3,0.7h-7.8v-12.3H324.3z M335.6,194.3c-0.2,0.7-0.6,1.3-1.1,1.8c-0.5,0.6-1.1,1.1-1.9,1.5
		c-0.8,0.4-1.8,0.8-3,1c-0.8,0.2-1.7,0.3-2.8,0.4c-1.1,0.1-2.4,0.1-3.9,0.1h-5.7v-13.4h8.2c1.4,0,2.6,0,3.5,0.1
		c0.9,0.1,1.7,0.2,2.4,0.5c1.6,0.5,2.7,1.2,3.4,2.2c0.7,1,1.1,2.1,1.1,3.5C335.9,192.9,335.8,193.6,335.6,194.3z"/>
</g>
<g>
	<g>
		<rect x="39" y="318.8" class="st4" width="89.5" height="45.5"/>
		<g>
			<path class="st2" d="M128.4,318.8v13.1c-7.2,0-13.1-5.9-13.1-13.1H128.4z"/>
			<path class="st2" d="M128.4,351.2v13.1h-13.1C115.3,357.1,121.2,351.2,128.4,351.2z"/>
			<path class="st2" d="M52.1,318.8c0,7.2-5.9,13.1-13.1,13.1v-13.1H52.1z"/>
			<path class="st2" d="M52.1,364.3H39v-13.1C46.2,351.2,52.1,357.1,52.1,364.3z"/>
		</g>
	</g>
	<g>
		<rect x="33.4" y="324.3" class="st3" width="89.5" height="45.5"/>
		<g>
			<path class="st4" d="M122.9,324.3v13.1c-7.2,0-13.1-5.9-13.1-13.1H122.9z"/>
			<path class="st4" d="M122.9,356.7v13.1h-13.1C109.8,362.6,115.6,356.7,122.9,356.7z"/>
			<path class="st4" d="M46.5,324.3c0,7.2-5.9,13.1-13.1,13.1v-13.1H46.5z"/>
			<path class="st4" d="M46.5,369.8H33.4v-13.1C40.7,356.7,46.5,362.6,46.5,369.8z"/>
		</g>
	</g>
	<g>
		<rect x="27.9" y="329.9" class="st4" width="89.5" height="45.5"/>
		<g>
			<path class="st2" d="M117.3,329.9V343c-7.2,0-13.1-5.9-13.1-13.1H117.3z"/>
			<path class="st2" d="M117.3,362.3v13.1h-13.1C104.2,368.1,110.1,362.3,117.3,362.3z"/>
			<path class="st2" d="M41,329.9c0,7.2-5.9,13.1-13.1,13.1v-13.1H41z"/>
			<path class="st2" d="M41,375.4H27.9v-13.1C35.1,362.3,41,368.1,41,375.4z"/>
		</g>
		<g>
			<path class="st2" d="M90.2,352.6c0,9.7-7.9,17.6-17.6,17.6c-9.7,0-17.6-7.9-17.6-17.6c0-9.7,7.9-17.6,17.6-17.6
				C82.3,335,90.2,342.9,90.2,352.6z"/>
			<g>
				<g>
					<path class="st3" d="M73.7,353.3h-4.4c-0.7,0-1.2-0.5-1.2-1.2v-7c0-0.7,0.5-1.2,1.2-1.2h4c0.8,0,1.4,0,1.9,0.1
						c0.6,0.1,1.1,0.1,1.5,0.3c1.2,0.4,2,0.9,2.5,1.7c0.5,0.8,0.7,1.6,0.7,2.6c0,0.9-0.2,1.7-0.6,2.4c-0.4,0.8-1.2,1.4-2.2,1.8
						C76.3,353.2,75.2,353.3,73.7,353.3z M70.4,350.9h3.3c1.5,0,2.2-0.2,2.5-0.3c0.5-0.2,0.8-0.5,1-0.8c0.2-0.4,0.3-0.8,0.3-1.2
						c0-0.5-0.1-0.9-0.4-1.3c-0.2-0.3-0.6-0.6-1.2-0.7c-0.3-0.1-0.6-0.1-1-0.2c-0.4,0-1-0.1-1.7-0.1h-2.9V350.9z"/>
				</g>
				<g>
					<path class="st3" d="M72.4,360.9h-3.2c-0.7,0-1.2-0.5-1.2-1.2v-7.6c0-0.7,0.5-1.2,1.2-1.2h4.7c0.9,0,1.6,0,2.1,0.1
						c0.6,0.1,1.1,0.2,1.6,0.3c1.1,0.4,2,0.9,2.6,1.7c0.6,0.8,0.9,1.7,0.9,2.7c0,0.6-0.1,1.1-0.2,1.6c-0.2,0.5-0.5,1-0.9,1.5
						c-0.4,0.4-0.8,0.8-1.4,1.1c-0.6,0.3-1.2,0.5-2,0.7c-0.5,0.1-1.1,0.2-1.8,0.3C74.1,360.9,73.3,360.9,72.4,360.9z M70.4,358.5h2
						c0.8,0,1.5,0,2.1-0.1c0.6,0,1-0.1,1.4-0.2c0.6-0.1,1.1-0.3,1.4-0.5c0.3-0.2,0.6-0.4,0.8-0.6c0.2-0.2,0.3-0.4,0.4-0.6
						c0.1-0.3,0.1-0.6,0.1-0.9c0-0.5-0.1-0.9-0.4-1.3c-0.3-0.4-0.7-0.6-1.4-0.8c-0.3-0.1-0.7-0.2-1.1-0.2c-0.5,0-1.1-0.1-1.9-0.1
						h-3.5V358.5z"/>
				</g>
				<g>
					<path class="st3" d="M69.2,346.4h-3.9c-0.7,0-1.2-0.5-1.2-1.2c0-0.7,0.5-1.2,1.2-1.2h3.9c0.7,0,1.2,0.5,1.2,1.2
						C70.4,345.8,69.9,346.4,69.2,346.4z"/>
				</g>
				<g>
					<path class="st3" d="M69.2,360.9h-3.9c-0.7,0-1.2-0.5-1.2-1.2c0-0.7,0.5-1.2,1.2-1.2h3.9c0.7,0,1.2,0.5,1.2,1.2
						C70.4,360.4,69.9,360.9,69.2,360.9z"/>
				</g>
				<g>
					<path class="st3" d="M70.8,346.4c-0.7,0-1.2-0.5-1.2-1.2v-4.9c0-0.7,0.5-1.2,1.2-1.2s1.2,0.5,1.2,1.2v4.9
						C71.9,345.8,71.4,346.4,70.8,346.4z"/>
				</g>
				<g>
					<path class="st3" d="M75.3,346.4c-0.7,0-1.2-0.5-1.2-1.2v-4.9c0-0.7,0.5-1.2,1.2-1.2s1.2,0.5,1.2,1.2v4.9
						C76.5,345.8,75.9,346.4,75.3,346.4z"/>
				</g>
				<g>
					<path class="st3" d="M70.8,366.2c-0.7,0-1.2-0.5-1.2-1.2v-4.9c0-0.7,0.5-1.2,1.2-1.2s1.2,0.5,1.2,1.2v4.9
						C71.9,365.7,71.4,366.2,70.8,366.2z"/>
				</g>
				<g>
					<path class="st3" d="M75.3,366.2c-0.7,0-1.2-0.5-1.2-1.2v-4.9c0-0.7,0.5-1.2,1.2-1.2s1.2,0.5,1.2,1.2v4.9
						C76.5,365.7,75.9,366.2,75.3,366.2z"/>
				</g>
			</g>
		</g>
	</g>
</g>
<g>
	<path class="st7" d="M344.6,338.6V232.4c0-3.6,3-6.6,6.6-6.6h110.2c3.6,0,6.6,2.9,6.6,6.6v106.2c0,3.6-3,6.6-6.6,6.6H351.2
		C347.5,345.2,344.6,342.2,344.6,338.6z"/>
	<rect x="394.3" y="345.2" class="st9" width="23.9" height="16.2"/>
	<rect x="382.5" y="358.5" class="st7" width="47.6" height="5.7"/>
	<g>
		<g>
			<path class="st1" d="M456.4,269.9H356.2c-2.8,0-5,2.2-5,5V296c0,2.8,2.2,5,5,5h100.2c2.8,0,5-2.2,5-5v-21.1
				C461.4,272.1,459.2,269.9,456.4,269.9z"/>
			<path class="st1" d="M356.2,338.6h100.2c2.8,0,5-2.2,5-5v-21.1c0-2.8-2.2-5-5-5H356.2c-2.8,0-5,2.2-5,5v21.1
				C351.2,336.3,353.4,338.6,356.2,338.6z"/>
			<path class="st1" d="M456.4,263.5H356.2c-2.8,0-5-2.2-5-5v-21.1c0-2.8,2.2-5,5-5h100.2c2.8,0,5,2.2,5,5v21.1
				C461.4,261.3,459.2,263.5,456.4,263.5z"/>
		</g>
		<g>
			<g>
				<g>
					<g>
						<path class="st5" d="M376.2,321.9h-17.3c-0.6,0-1.1-0.5-1.1-1.1c0-0.6,0.5-1.1,1.1-1.1h17.3c0.6,0,1.1,0.5,1.1,1.1
							C377.3,321.4,376.8,321.9,376.2,321.9z"/>
					</g>
					<g>
						<path class="st5" d="M376.2,328.5h-17.3c-0.6,0-1.1-0.5-1.1-1.1c0-0.6,0.5-1.1,1.1-1.1h17.3c0.6,0,1.1,0.5,1.1,1.1
							C377.3,328,376.8,328.5,376.2,328.5z"/>
					</g>
				</g>
			</g>
			<g>
				<g>
					<g>
						<path class="st5" d="M376.2,246.9h-17.3c-0.6,0-1.1-0.5-1.1-1.1c0-0.6,0.5-1.1,1.1-1.1h17.3c0.6,0,1.1,0.5,1.1,1.1
							C377.3,246.4,376.8,246.9,376.2,246.9z"/>
					</g>
					<g>
						<path class="st5" d="M376.2,253.5h-17.3c-0.6,0-1.1-0.5-1.1-1.1c0-0.6,0.5-1.1,1.1-1.1h17.3c0.6,0,1.1,0.5,1.1,1.1
							C377.3,253,376.8,253.5,376.2,253.5z"/>
					</g>
				</g>
			</g>
			<g>
				<g>
					<g>
						<path class="st5" d="M376.2,284.4h-17.3c-0.6,0-1.1-0.5-1.1-1.1s0.5-1.1,1.1-1.1h17.3c0.6,0,1.1,0.5,1.1,1.1
							S376.8,284.4,376.2,284.4z"/>
					</g>
					<g>
						<path class="st5" d="M376.2,291h-17.3c-0.6,0-1.1-0.5-1.1-1.1c0-0.6,0.5-1.1,1.1-1.1h17.3c0.6,0,1.1,0.5,1.1,1.1
							C377.3,290.5,376.8,291,376.2,291z"/>
					</g>
				</g>
			</g>
		</g>
		<g>
			<path class="st10" d="M449.1,324.1c0,3-2.5,5.5-5.5,5.5c-3,0-5.5-2.5-5.5-5.5c0-3,2.5-5.5,5.5-5.5
				C446.6,318.7,449.1,321.1,449.1,324.1z"/>
			<path class="st10" d="M449.1,249.1c0,3-2.5,5.5-5.5,5.5c-3,0-5.5-2.5-5.5-5.5c0-3,2.5-5.5,5.5-5.5
				C446.6,243.6,449.1,246,449.1,249.1z"/>
			<path class="st10" d="M449.1,285.9c0,3-2.5,5.5-5.5,5.5c-3,0-5.5-2.5-5.5-5.5c0-3,2.5-5.5,5.5-5.5
				C446.6,280.4,449.1,282.8,449.1,285.9z"/>
		</g>
	</g>
</g>
<g>
	<g>
		<path class="st3" d="M414.3,162.4c-0.5,0-0.9,0.4-0.9,0.9v7.9c0,0.5,0.4,0.9,0.9,0.9c0.5,0,0.9-0.4,0.9-0.9v-7.9
			C415.3,162.8,414.8,162.4,414.3,162.4z"/>
		<path class="st3" d="M418.8,162.4c-0.5,0-0.9,0.4-0.9,0.9v7.9c0,0.5,0.4,0.9,0.9,0.9c0.5,0,0.9-0.4,0.9-0.9v-7.9
			C419.8,162.8,419.3,162.4,418.8,162.4z"/>
		<path class="st3" d="M423.3,162.4c-0.5,0-0.9,0.4-0.9,0.9v7.9c0,0.5,0.4,0.9,0.9,0.9c0.5,0,0.9-0.4,0.9-0.9v-7.9
			C424.3,162.8,423.8,162.4,423.3,162.4z"/>
		<path class="st3" d="M427.8,162.4c-0.5,0-0.9,0.4-0.9,0.9v7.9c0,0.5,0.4,0.9,0.9,0.9s0.9-0.4,0.9-0.9v-7.9
			C428.8,162.8,428.3,162.4,427.8,162.4z"/>
		<path class="st3" d="M432.3,162.4c-0.5,0-0.9,0.4-0.9,0.9v7.9c0,0.5,0.4,0.9,0.9,0.9s0.9-0.4,0.9-0.9v-7.9
			C433.3,162.8,432.8,162.4,432.3,162.4z"/>
		<path class="st3" d="M436.8,162.4c-0.5,0-0.9,0.4-0.9,0.9v7.9c0,0.5,0.4,0.9,0.9,0.9c0.5,0,0.9-0.4,0.9-0.9v-7.9
			C437.8,162.8,437.3,162.4,436.8,162.4z"/>
		<path class="st3" d="M441.3,162.4c-0.5,0-0.9,0.4-0.9,0.9v7.9c0,0.5,0.4,0.9,0.9,0.9c0.5,0,0.9-0.4,0.9-0.9v-7.9
			C442.3,162.8,441.8,162.4,441.3,162.4z"/>
		<path class="st3" d="M445.8,162.4c-0.5,0-0.9,0.4-0.9,0.9v7.9c0,0.5,0.4,0.9,0.9,0.9s0.9-0.4,0.9-0.9v-7.9
			C446.8,162.8,446.3,162.4,445.8,162.4z"/>
		<path class="st3" d="M414.3,209.8c-0.5,0-0.9,0.4-0.9,0.9v7.9c0,0.5,0.4,0.9,0.9,0.9c0.5,0,0.9-0.4,0.9-0.9v-7.9
			C415.3,210.2,414.8,209.8,414.3,209.8z"/>
		<path class="st3" d="M418.8,209.8c-0.5,0-0.9,0.4-0.9,0.9v7.9c0,0.5,0.4,0.9,0.9,0.9c0.5,0,0.9-0.4,0.9-0.9v-7.9
			C419.8,210.2,419.3,209.8,418.8,209.8z"/>
		<path class="st3" d="M423.3,209.8c-0.5,0-0.9,0.4-0.9,0.9v7.9c0,0.5,0.4,0.9,0.9,0.9c0.5,0,0.9-0.4,0.9-0.9v-7.9
			C424.3,210.2,423.8,209.8,423.3,209.8z"/>
		<path class="st3" d="M427.8,209.8c-0.5,0-0.9,0.4-0.9,0.9v7.9c0,0.5,0.4,0.9,0.9,0.9s0.9-0.4,0.9-0.9v-7.9
			C428.8,210.2,428.3,209.8,427.8,209.8z"/>
		<path class="st3" d="M432.3,209.8c-0.5,0-0.9,0.4-0.9,0.9v7.9c0,0.5,0.4,0.9,0.9,0.9s0.9-0.4,0.9-0.9v-7.9
			C433.3,210.2,432.8,209.8,432.3,209.8z"/>
		<path class="st3" d="M436.8,209.8c-0.5,0-0.9,0.4-0.9,0.9v7.9c0,0.5,0.4,0.9,0.9,0.9c0.5,0,0.9-0.4,0.9-0.9v-7.9
			C437.8,210.2,437.3,209.8,436.8,209.8z"/>
		<path class="st3" d="M441.3,209.8c-0.5,0-0.9,0.4-0.9,0.9v7.9c0,0.5,0.4,0.9,0.9,0.9c0.5,0,0.9-0.4,0.9-0.9v-7.9
			C442.3,210.2,441.8,209.8,441.3,209.8z"/>
		<path class="st3" d="M445.8,209.8c-0.5,0-0.9,0.4-0.9,0.9v7.9c0,0.5,0.4,0.9,0.9,0.9s0.9-0.4,0.9-0.9v-7.9
			C446.8,210.2,446.3,209.8,445.8,209.8z"/>
		<path class="st3" d="M449.8,176.1h7.9c0.5,0,0.9-0.4,0.9-0.9c0-0.5-0.4-0.9-0.9-0.9h-7.9c-0.5,0-0.9,0.4-0.9,0.9
			C448.9,175.7,449.3,176.1,449.8,176.1z"/>
		<path class="st3" d="M457.7,178.8h-7.9c-0.5,0-0.9,0.4-0.9,0.9c0,0.5,0.4,0.9,0.9,0.9h7.9c0.5,0,0.9-0.4,0.9-0.9
			C458.6,179.2,458.2,178.8,457.7,178.8z"/>
		<path class="st3" d="M457.7,183.3h-7.9c-0.5,0-0.9,0.4-0.9,0.9c0,0.5,0.4,0.9,0.9,0.9h7.9c0.5,0,0.9-0.4,0.9-0.9
			C458.6,183.7,458.2,183.3,457.7,183.3z"/>
		<path class="st3" d="M457.7,187.8h-7.9c-0.5,0-0.9,0.4-0.9,0.9c0,0.5,0.4,0.9,0.9,0.9h7.9c0.5,0,0.9-0.4,0.9-0.9
			C458.6,188.2,458.2,187.8,457.7,187.8z"/>
		<path class="st3" d="M457.7,192.3h-7.9c-0.5,0-0.9,0.4-0.9,0.9c0,0.5,0.4,0.9,0.9,0.9h7.9c0.5,0,0.9-0.4,0.9-0.9
			C458.6,192.7,458.2,192.3,457.7,192.3z"/>
		<path class="st3" d="M457.7,196.8h-7.9c-0.5,0-0.9,0.4-0.9,0.9c0,0.5,0.4,0.9,0.9,0.9h7.9c0.5,0,0.9-0.4,0.9-0.9
			C458.6,197.2,458.2,196.8,457.7,196.8z"/>
		<path class="st3" d="M457.7,201.3h-7.9c-0.5,0-0.9,0.4-0.9,0.9c0,0.5,0.4,0.9,0.9,0.9h7.9c0.5,0,0.9-0.4,0.9-0.9
			C458.6,201.7,458.2,201.3,457.7,201.3z"/>
		<path class="st3" d="M457.7,205.8h-7.9c-0.5,0-0.9,0.4-0.9,0.9c0,0.5,0.4,0.9,0.9,0.9h7.9c0.5,0,0.9-0.4,0.9-0.9
			C458.6,206.2,458.2,205.8,457.7,205.8z"/>
		<path class="st3" d="M410.3,174.3h-7.9c-0.5,0-0.9,0.4-0.9,0.9c0,0.5,0.4,0.9,0.9,0.9h7.9c0.5,0,0.9-0.4,0.9-0.9
			C411.3,174.7,410.8,174.3,410.3,174.3z"/>
		<path class="st3" d="M410.3,178.8h-7.9c-0.5,0-0.9,0.4-0.9,0.9c0,0.5,0.4,0.9,0.9,0.9h7.9c0.5,0,0.9-0.4,0.9-0.9
			C411.3,179.2,410.8,178.8,410.3,178.8z"/>
		<path class="st3" d="M410.3,183.3h-7.9c-0.5,0-0.9,0.4-0.9,0.9c0,0.5,0.4,0.9,0.9,0.9h7.9c0.5,0,0.9-0.4,0.9-0.9
			C411.3,183.7,410.8,183.3,410.3,183.3z"/>
		<path class="st3" d="M410.3,187.8h-7.9c-0.5,0-0.9,0.4-0.9,0.9c0,0.5,0.4,0.9,0.9,0.9h7.9c0.5,0,0.9-0.4,0.9-0.9
			C411.3,188.2,410.8,187.8,410.3,187.8z"/>
		<path class="st3" d="M410.3,192.3h-7.9c-0.5,0-0.9,0.4-0.9,0.9c0,0.5,0.4,0.9,0.9,0.9h7.9c0.5,0,0.9-0.4,0.9-0.9
			C411.3,192.7,410.8,192.3,410.3,192.3z"/>
		<path class="st3" d="M410.3,196.8h-7.9c-0.5,0-0.9,0.4-0.9,0.9c0,0.5,0.4,0.9,0.9,0.9h7.9c0.5,0,0.9-0.4,0.9-0.9
			C411.3,197.2,410.8,196.8,410.3,196.8z"/>
		<path class="st3" d="M410.3,201.3h-7.9c-0.5,0-0.9,0.4-0.9,0.9c0,0.5,0.4,0.9,0.9,0.9h7.9c0.5,0,0.9-0.4,0.9-0.9
			C411.3,201.7,410.8,201.3,410.3,201.3z"/>
		<path class="st3" d="M410.3,205.8h-7.9c-0.5,0-0.9,0.4-0.9,0.9c0,0.5,0.4,0.9,0.9,0.9h7.9c0.5,0,0.9-0.4,0.9-0.9
			C411.3,206.2,410.8,205.8,410.3,205.8z"/>
	</g>
	<g>
		<rect x="410.3" y="171.2" class="st4" width="39.5" height="39.5"/>
		<rect x="416.1" y="176.7" class="st2" width="27.9" height="27.9"/>
	</g>
	<path class="st3" d="M436,191.3c-0.3-0.4-0.7-0.7-1.2-1c0.2-0.2,0.3-0.4,0.5-0.6c0.3-0.6,0.5-1.2,0.5-1.9c0-0.7-0.2-1.4-0.6-2
		c-0.4-0.6-1.1-1.1-2-1.3c-0.1,0-0.1-3.2-0.1-3.2c0-0.5-0.4-0.9-0.9-0.9c-0.5,0-0.9,0.4-0.9,0.9v2.9c-0.2,0-0.5,0-0.7,0h-1.1v-2.9
		c0-0.5-0.4-0.9-0.9-0.9c-0.5,0-0.9,0.4-0.9,0.9v2.9h-0.2h-3c-0.5,0-0.9,0.4-0.9,0.9s0.4,0.9,0.9,0.9h2.1v4.5v5h-2.1
		c-0.5,0-0.9,0.4-0.9,0.9c0,0.5,0.4,0.9,0.9,0.9h3h0.2v3.2c0,0.5,0.4,0.9,0.9,0.9c0.5,0,0.9-0.4,0.9-0.9v-3.2h0.5c0.5,0,1,0,1.4,0
		v3.2c0,0.5,0.4,0.9,0.9,0.9c0.5,0,0.9-0.4,0.9-0.9v-3.5c0.6-0.1,1.1-0.3,1.5-0.5c0.4-0.2,0.8-0.5,1.1-0.9c0.3-0.3,0.5-0.7,0.7-1.2
		c0.1-0.4,0.2-0.8,0.2-1.2C436.7,192.6,436.4,191.9,436,191.3z M431.9,186.1c0.3,0,0.6,0.1,0.8,0.1c0.5,0.1,0.8,0.3,0.9,0.6
		c0.2,0.3,0.3,0.6,0.3,1c0,0.4-0.1,0.7-0.2,1c-0.1,0.2-0.4,0.5-0.8,0.6c-0.3,0.1-0.8,0.2-2,0.2h-2.6v-3.6h2.2
		C431.1,186.1,431.6,186.1,431.9,186.1z M434.7,194c-0.1,0.2-0.1,0.3-0.3,0.5c-0.1,0.2-0.4,0.3-0.6,0.5c-0.3,0.2-0.6,0.3-1.1,0.4
		c-0.3,0.1-0.7,0.1-1.1,0.2c-0.5,0-1,0.1-1.7,0.1h-1.6v-4.1h2.6h0.2c0.6,0,1.1,0,1.5,0.1c0.3,0,0.6,0.1,0.9,0.2
		c0.5,0.2,0.9,0.4,1.1,0.7c0.2,0.3,0.3,0.6,0.3,1C434.8,193.6,434.8,193.8,434.7,194z"/>
</g>
<g>
	<g>
		<path class="st7" d="M166.1,356.2c0,0,0,4.3,0,9.6c0,5.3,6.7,9.6,14.9,9.6h149.1c8.2,0,14.9-4.3,14.9-9.6v-9.6H166.1z"/>
		<rect x="246.6" y="362.8" class="st6" width="17.9" height="6"/>
		<rect x="176.7" y="249.7" class="st5" width="157.6" height="106.5"/>
		<g>
			<defs>
				
					<rect id="SVGID_11_" x="211.2" y="233.1" transform="matrix(6.123234e-17 -1 1 6.123234e-17 -47.4348 558.5123)" width="88.6" height="139.7"/>
			</defs>
			<use xlink:href="#SVGID_11_"  style="overflow:visible;fill:#00D6D6;"/>
			<clipPath id="SVGID_1_">
				<use xlink:href="#SVGID_11_"  style="overflow:visible;"/>
			</clipPath>
			<g class="st11">
				<path class="st10" d="M190.3,268.7h1.7v-8.8h-1.4c-0.2,0.5-0.5,1-1.1,1.4c-0.5,0.4-1,0.7-1.4,0.8v1.5c0.8-0.3,1.6-0.7,2.2-1.3
					V268.7z"/>
				<path class="st10" d="M200.9,259.9c-0.8,0-1.5,0.3-2,0.9c-0.6,0.7-0.9,1.9-0.9,3.6c0,1.7,0.3,2.8,0.8,3.5c0.5,0.7,1.2,1,2.1,1
					c0.8,0,1.5-0.3,2-0.9c0.6-0.7,0.9-1.9,0.9-3.6c0-1.7-0.3-2.8-0.9-3.6C202.4,260.2,201.8,259.9,200.9,259.9z M201.8,266.6
					c-0.1,0.3-0.2,0.6-0.4,0.7c-0.2,0.1-0.3,0.2-0.5,0.2c-0.2,0-0.4-0.1-0.5-0.2c-0.2-0.1-0.3-0.4-0.4-0.8s-0.2-1.1-0.2-2.1
					c0-1,0.1-1.8,0.2-2.2c0.1-0.3,0.2-0.6,0.4-0.7c0.2-0.1,0.3-0.2,0.5-0.2c0.2,0,0.4,0.1,0.5,0.2c0.2,0.1,0.3,0.4,0.4,0.8
					s0.2,1.1,0.2,2.1C202,265.4,202,266.2,201.8,266.6z"/>
				<path class="st10" d="M211.9,259.9c-0.8,0-1.5,0.3-2,0.9c-0.6,0.7-0.9,1.9-0.9,3.6c0,1.7,0.3,2.8,0.8,3.5c0.5,0.7,1.2,1,2.1,1
					c0.8,0,1.5-0.3,2-0.9c0.6-0.7,0.9-1.9,0.9-3.6c0-1.7-0.3-2.8-0.9-3.6C213.4,260.2,212.7,259.9,211.9,259.9z M212.8,266.6
					c-0.1,0.3-0.2,0.6-0.4,0.7c-0.2,0.1-0.3,0.2-0.5,0.2c-0.2,0-0.4-0.1-0.5-0.2c-0.2-0.1-0.3-0.4-0.4-0.8c-0.1-0.4-0.2-1.1-0.2-2.1
					c0-1,0.1-1.8,0.2-2.2c0.1-0.3,0.2-0.6,0.4-0.7c0.2-0.1,0.3-0.2,0.5-0.2c0.2,0,0.4,0.1,0.5,0.2c0.2,0.1,0.3,0.4,0.4,0.8
					c0.1,0.4,0.2,1.1,0.2,2.1C212.9,265.4,212.9,266.2,212.8,266.6z"/>
				<path class="st10" d="M222.8,259.9c-0.8,0-1.5,0.3-2,0.9c-0.6,0.7-0.9,1.9-0.9,3.6c0,1.7,0.3,2.8,0.8,3.5c0.5,0.7,1.2,1,2.1,1
					c0.8,0,1.5-0.3,2-0.9c0.6-0.7,0.9-1.9,0.9-3.6c0-1.7-0.3-2.8-0.9-3.6C224.3,260.2,223.6,259.9,222.8,259.9z M223.7,266.6
					c-0.1,0.3-0.2,0.6-0.4,0.7s-0.3,0.2-0.5,0.2c-0.2,0-0.4-0.1-0.5-0.2c-0.2-0.1-0.3-0.4-0.4-0.8s-0.2-1.1-0.2-2.1
					c0-1,0.1-1.8,0.2-2.2c0.1-0.3,0.2-0.6,0.4-0.7s0.3-0.2,0.5-0.2c0.2,0,0.4,0.1,0.5,0.2c0.2,0.1,0.3,0.4,0.4,0.8s0.2,1.1,0.2,2.1
					C223.9,265.4,223.8,266.2,223.7,266.6z"/>
				<path class="st10" d="M233.9,268.7h1.7v-8.8h-1.4c-0.2,0.5-0.5,1-1.1,1.4c-0.5,0.4-1,0.7-1.4,0.8v1.5c0.8-0.3,1.6-0.7,2.2-1.3
					V268.7z"/>
				<path class="st10" d="M244.9,268.7h1.7v-8.8h-1.4c-0.2,0.5-0.5,1-1.1,1.4c-0.5,0.4-1,0.7-1.4,0.8v1.5c0.8-0.3,1.6-0.7,2.2-1.3
					V268.7z"/>
				<path class="st10" d="M255.5,259.9c-0.8,0-1.5,0.3-2,0.9c-0.6,0.7-0.9,1.9-0.9,3.6c0,1.7,0.3,2.8,0.8,3.5c0.5,0.7,1.2,1,2.1,1
					c0.8,0,1.5-0.3,2-0.9c0.6-0.7,0.9-1.9,0.9-3.6c0-1.7-0.3-2.8-0.9-3.6C257,260.2,256.4,259.9,255.5,259.9z M256.5,266.6
					c-0.1,0.3-0.2,0.6-0.4,0.7c-0.2,0.1-0.3,0.2-0.5,0.2c-0.2,0-0.4-0.1-0.5-0.2c-0.2-0.1-0.3-0.4-0.4-0.8s-0.2-1.1-0.2-2.1
					c0-1,0.1-1.8,0.2-2.2c0.1-0.3,0.2-0.6,0.4-0.7c0.2-0.1,0.3-0.2,0.5-0.2c0.2,0,0.4,0.1,0.5,0.2c0.2,0.1,0.3,0.4,0.4,0.8
					c0.1,0.4,0.2,1.1,0.2,2.1C256.6,265.4,256.6,266.2,256.5,266.6z"/>
				<path class="st10" d="M266.7,268.7h1.7v-8.8H267c-0.2,0.5-0.5,1-1.1,1.4c-0.5,0.4-1,0.7-1.4,0.8v1.5c0.8-0.3,1.6-0.7,2.2-1.3
					V268.7z"/>
				<path class="st10" d="M277.6,268.7h1.7v-8.8h-1.4c-0.2,0.5-0.5,1-1.1,1.4c-0.5,0.4-1,0.7-1.4,0.8v1.5c0.8-0.3,1.6-0.7,2.2-1.3
					V268.7z"/>
				<path class="st10" d="M288.6,268.7h1.7v-8.8h-1.4c-0.2,0.5-0.5,1-1.1,1.4c-0.5,0.4-1,0.7-1.4,0.8v1.5c0.8-0.3,1.6-0.7,2.2-1.3
					V268.7z"/>
				<path class="st10" d="M299.5,268.7h1.7v-8.8h-1.4c-0.2,0.5-0.5,1-1.1,1.4c-0.5,0.4-1,0.7-1.4,0.8v1.5c0.8-0.3,1.6-0.7,2.2-1.3
					V268.7z"/>
				<path class="st10" d="M310.4,268.7h1.7v-8.8h-1.4c-0.2,0.5-0.5,1-1.1,1.4c-0.5,0.4-1,0.7-1.4,0.8v1.5c0.8-0.3,1.6-0.7,2.2-1.3
					V268.7z"/>
				<path class="st10" d="M321.3,268.7h1.7v-8.8h-1.4c-0.2,0.5-0.5,1-1.1,1.4c-0.5,0.4-1,0.7-1.4,0.8v1.5c0.8-0.3,1.6-0.7,2.2-1.3
					V268.7z"/>
				<path class="st10" d="M190.3,279.6h1.7v-8.8h-1.4c-0.2,0.5-0.5,1-1.1,1.4c-0.5,0.4-1,0.7-1.4,0.8v1.5c0.8-0.3,1.6-0.7,2.2-1.3
					V279.6z"/>
				<path class="st10" d="M200.9,270.9c-0.8,0-1.5,0.3-2,0.9c-0.6,0.7-0.9,1.9-0.9,3.6c0,1.7,0.3,2.8,0.8,3.5c0.5,0.7,1.2,1,2.1,1
					c0.8,0,1.5-0.3,2-0.9c0.6-0.7,0.9-1.9,0.9-3.6c0-1.7-0.3-2.8-0.9-3.6C202.4,271.2,201.8,270.9,200.9,270.9z M201.8,277.5
					c-0.1,0.3-0.2,0.6-0.4,0.7c-0.2,0.1-0.3,0.2-0.5,0.2c-0.2,0-0.4-0.1-0.5-0.2s-0.3-0.4-0.4-0.8s-0.2-1.1-0.2-2.1
					c0-1,0.1-1.8,0.2-2.2c0.1-0.3,0.2-0.6,0.4-0.7c0.2-0.1,0.3-0.2,0.5-0.2c0.2,0,0.4,0.1,0.5,0.2c0.2,0.1,0.3,0.4,0.4,0.8
					c0.1,0.4,0.2,1.1,0.2,2.1C202,276.4,202,277.1,201.8,277.5z"/>
				<path class="st10" d="M213.8,279.6v-8.8h-1.4c-0.2,0.5-0.5,1-1.1,1.4c-0.5,0.4-1,0.7-1.4,0.8v1.5c0.8-0.3,1.6-0.7,2.2-1.3v6.3
					H213.8z"/>
				<path class="st10" d="M222.8,270.9c-0.8,0-1.5,0.3-2,0.9c-0.6,0.7-0.9,1.9-0.9,3.6c0,1.7,0.3,2.8,0.8,3.5c0.5,0.7,1.2,1,2.1,1
					c0.8,0,1.5-0.3,2-0.9c0.6-0.7,0.9-1.9,0.9-3.6c0-1.7-0.3-2.8-0.9-3.6C224.3,271.2,223.6,270.9,222.8,270.9z M223.7,277.5
					c-0.1,0.3-0.2,0.6-0.4,0.7s-0.3,0.2-0.5,0.2c-0.2,0-0.4-0.1-0.5-0.2s-0.3-0.4-0.4-0.8s-0.2-1.1-0.2-2.1c0-1,0.1-1.8,0.2-2.2
					c0.1-0.3,0.2-0.6,0.4-0.7c0.2-0.1,0.3-0.2,0.5-0.2c0.2,0,0.4,0.1,0.5,0.2c0.2,0.1,0.3,0.4,0.4,0.8c0.1,0.4,0.2,1.1,0.2,2.1
					C223.9,276.4,223.8,277.1,223.7,277.5z"/>
				<path class="st10" d="M233.9,279.6h1.7v-8.8h-1.4c-0.2,0.5-0.5,1-1.1,1.4c-0.5,0.4-1,0.7-1.4,0.8v1.5c0.8-0.3,1.6-0.7,2.2-1.3
					V279.6z"/>
				<path class="st10" d="M244.6,270.9c-0.8,0-1.5,0.3-2,0.9c-0.6,0.7-0.9,1.9-0.9,3.6c0,1.7,0.3,2.8,0.8,3.5c0.5,0.7,1.2,1,2.1,1
					c0.8,0,1.5-0.3,2-0.9c0.6-0.7,0.9-1.9,0.9-3.6c0-1.7-0.3-2.8-0.9-3.6C246.1,271.2,245.5,270.9,244.6,270.9z M245.5,277.5
					c-0.1,0.3-0.2,0.6-0.4,0.7c-0.2,0.1-0.3,0.2-0.5,0.2c-0.2,0-0.4-0.1-0.5-0.2s-0.3-0.4-0.4-0.8c-0.1-0.4-0.2-1.1-0.2-2.1
					c0-1,0.1-1.8,0.2-2.2c0.1-0.3,0.2-0.6,0.4-0.7c0.2-0.1,0.3-0.2,0.5-0.2c0.2,0,0.4,0.1,0.5,0.2c0.2,0.1,0.3,0.4,0.4,0.8
					c0.1,0.4,0.2,1.1,0.2,2.1C245.7,276.4,245.6,277.1,245.5,277.5z"/>
				<path class="st10" d="M257.5,279.6v-8.8h-1.4c-0.2,0.5-0.5,1-1.1,1.4c-0.5,0.4-1,0.7-1.4,0.8v1.5c0.8-0.3,1.6-0.7,2.2-1.3v6.3
					H257.5z"/>
				<path class="st10" d="M266.7,279.6h1.7v-8.8H267c-0.2,0.5-0.5,1-1.1,1.4c-0.5,0.4-1,0.7-1.4,0.8v1.5c0.8-0.3,1.6-0.7,2.2-1.3
					V279.6z"/>
				<path class="st10" d="M277.6,279.6h1.7v-8.8h-1.4c-0.2,0.5-0.5,1-1.1,1.4c-0.5,0.4-1,0.7-1.4,0.8v1.5c0.8-0.3,1.6-0.7,2.2-1.3
					V279.6z"/>
				<path class="st10" d="M288.6,279.6h1.7v-8.8h-1.4c-0.2,0.5-0.5,1-1.1,1.4c-0.5,0.4-1,0.7-1.4,0.8v1.5c0.8-0.3,1.6-0.7,2.2-1.3
					V279.6z"/>
				<path class="st10" d="M299.5,279.6h1.7v-8.8h-1.4c-0.2,0.5-0.5,1-1.1,1.4c-0.5,0.4-1,0.7-1.4,0.8v1.5c0.8-0.3,1.6-0.7,2.2-1.3
					V279.6z"/>
				<path class="st10" d="M310.2,270.9c-0.8,0-1.5,0.3-2,0.9c-0.6,0.7-0.9,1.9-0.9,3.6c0,1.7,0.3,2.8,0.8,3.5c0.5,0.7,1.2,1,2.1,1
					c0.8,0,1.5-0.3,2-0.9c0.6-0.7,0.9-1.9,0.9-3.6c0-1.7-0.3-2.8-0.9-3.6C311.7,271.2,311,270.9,310.2,270.9z M311.1,277.5
					c-0.1,0.3-0.2,0.6-0.4,0.7s-0.3,0.2-0.5,0.2c-0.2,0-0.4-0.1-0.5-0.2s-0.3-0.4-0.4-0.8c-0.1-0.4-0.2-1.1-0.2-2.1
					c0-1,0.1-1.8,0.2-2.2c0.1-0.3,0.2-0.6,0.4-0.7c0.2-0.1,0.3-0.2,0.5-0.2c0.2,0,0.4,0.1,0.5,0.2c0.2,0.1,0.3,0.4,0.4,0.8
					c0.1,0.4,0.2,1.1,0.2,2.1C311.2,276.4,311.2,277.1,311.1,277.5z"/>
				<path class="st10" d="M321.3,279.6h1.7v-8.8h-1.4c-0.2,0.5-0.5,1-1.1,1.4c-0.5,0.4-1,0.7-1.4,0.8v1.5c0.8-0.3,1.6-0.7,2.2-1.3
					V279.6z"/>
				<path class="st10" d="M190,281.8c-0.8,0-1.5,0.3-2,0.9c-0.6,0.7-0.9,1.9-0.9,3.6c0,1.7,0.3,2.8,0.8,3.5c0.5,0.7,1.2,1,2.1,1
					c0.8,0,1.5-0.3,2-0.9c0.6-0.7,0.9-1.9,0.9-3.6c0-1.7-0.3-2.8-0.9-3.6C191.5,282.1,190.9,281.8,190,281.8z M190.9,288.4
					c-0.1,0.3-0.2,0.6-0.4,0.7c-0.2,0.1-0.3,0.2-0.5,0.2c-0.2,0-0.4-0.1-0.5-0.2c-0.2-0.1-0.3-0.4-0.4-0.8c-0.1-0.4-0.2-1.1-0.2-2.1
					c0-1,0.1-1.8,0.2-2.2c0.1-0.3,0.2-0.6,0.4-0.7c0.2-0.1,0.3-0.2,0.5-0.2c0.2,0,0.4,0.1,0.5,0.2c0.2,0.1,0.3,0.4,0.4,0.8
					c0.1,0.4,0.2,1.1,0.2,2.1C191.1,287.3,191,288,190.9,288.4z"/>
				<path class="st10" d="M202.8,290.6v-8.8h-1.4c-0.2,0.5-0.5,1-1.1,1.4c-0.5,0.4-1,0.7-1.4,0.8v1.5c0.8-0.3,1.6-0.7,2.2-1.3v6.3
					H202.8z"/>
				<path class="st10" d="M209.9,285.5c0.8-0.3,1.6-0.7,2.2-1.3v6.3h1.7v-8.8h-1.4c-0.2,0.5-0.5,1-1.1,1.4c-0.5,0.4-1,0.7-1.4,0.8
					V285.5z"/>
				<path class="st10" d="M222.8,281.8c-0.8,0-1.5,0.3-2,0.9c-0.6,0.7-0.9,1.9-0.9,3.6c0,1.7,0.3,2.8,0.8,3.5s1.2,1,2.1,1
					c0.8,0,1.5-0.3,2-0.9c0.6-0.7,0.9-1.9,0.9-3.6c0-1.7-0.3-2.8-0.9-3.6C224.3,282.1,223.6,281.8,222.8,281.8z M223.7,288.4
					c-0.1,0.3-0.2,0.6-0.4,0.7s-0.3,0.2-0.5,0.2c-0.2,0-0.4-0.1-0.5-0.2c-0.2-0.1-0.3-0.4-0.4-0.8c-0.1-0.4-0.2-1.1-0.2-2.1
					c0-1,0.1-1.8,0.2-2.2c0.1-0.3,0.2-0.6,0.4-0.7s0.3-0.2,0.5-0.2c0.2,0,0.4,0.1,0.5,0.2c0.2,0.1,0.3,0.4,0.4,0.8s0.2,1.1,0.2,2.1
					C223.9,287.3,223.8,288,223.7,288.4z"/>
				<path class="st10" d="M233.9,290.6h1.7v-8.8h-1.4c-0.2,0.5-0.5,1-1.1,1.4c-0.5,0.4-1,0.7-1.4,0.8v1.5c0.8-0.3,1.6-0.7,2.2-1.3
					V290.6z"/>
				<path class="st10" d="M244.6,281.8c-0.8,0-1.5,0.3-2,0.9c-0.6,0.7-0.9,1.9-0.9,3.6c0,1.7,0.3,2.8,0.8,3.5c0.5,0.7,1.2,1,2.1,1
					c0.8,0,1.5-0.3,2-0.9c0.6-0.7,0.9-1.9,0.9-3.6c0-1.7-0.3-2.8-0.9-3.6C246.1,282.1,245.5,281.8,244.6,281.8z M245.5,288.4
					c-0.1,0.3-0.2,0.6-0.4,0.7c-0.2,0.1-0.3,0.2-0.5,0.2c-0.2,0-0.4-0.1-0.5-0.2c-0.2-0.1-0.3-0.4-0.4-0.8c-0.1-0.4-0.2-1.1-0.2-2.1
					c0-1,0.1-1.8,0.2-2.2c0.1-0.3,0.2-0.6,0.4-0.7c0.2-0.1,0.3-0.2,0.5-0.2c0.2,0,0.4,0.1,0.5,0.2c0.2,0.1,0.3,0.4,0.4,0.8
					s0.2,1.1,0.2,2.1C245.7,287.3,245.6,288,245.5,288.4z"/>
				<path class="st10" d="M253.6,285.5c0.8-0.3,1.6-0.7,2.2-1.3v6.3h1.7v-8.8h-1.4c-0.2,0.5-0.5,1-1.1,1.4c-0.5,0.4-1,0.7-1.4,0.8
					V285.5z"/>
				<path class="st10" d="M266.5,281.8c-0.8,0-1.5,0.3-2,0.9c-0.6,0.7-0.9,1.9-0.9,3.6c0,1.7,0.3,2.8,0.8,3.5c0.5,0.7,1.2,1,2.1,1
					c0.8,0,1.5-0.3,2-0.9c0.6-0.7,0.9-1.9,0.9-3.6c0-1.7-0.3-2.8-0.9-3.6C268,282.1,267.3,281.8,266.5,281.8z M267.4,288.4
					c-0.1,0.3-0.2,0.6-0.4,0.7c-0.2,0.1-0.3,0.2-0.5,0.2c-0.2,0-0.4-0.1-0.5-0.2c-0.2-0.1-0.3-0.4-0.4-0.8c-0.1-0.4-0.2-1.1-0.2-2.1
					c0-1,0.1-1.8,0.2-2.2c0.1-0.3,0.2-0.6,0.4-0.7s0.3-0.2,0.5-0.2c0.2,0,0.4,0.1,0.5,0.2c0.2,0.1,0.3,0.4,0.4,0.8
					c0.1,0.4,0.2,1.1,0.2,2.1C267.5,287.3,267.5,288,267.4,288.4z"/>
				<path class="st10" d="M277.6,290.6h1.7v-8.8h-1.4c-0.2,0.5-0.5,1-1.1,1.4c-0.5,0.4-1,0.7-1.4,0.8v1.5c0.8-0.3,1.6-0.7,2.2-1.3
					V290.6z"/>
				<path class="st10" d="M288.3,281.8c-0.8,0-1.5,0.3-2,0.9c-0.6,0.7-0.9,1.9-0.9,3.6c0,1.7,0.3,2.8,0.8,3.5c0.5,0.7,1.2,1,2.1,1
					c0.8,0,1.5-0.3,2-0.9c0.6-0.7,0.9-1.9,0.9-3.6c0-1.7-0.3-2.8-0.9-3.6C289.8,282.1,289.2,281.8,288.3,281.8z M289.2,288.4
					c-0.1,0.3-0.2,0.6-0.4,0.7c-0.2,0.1-0.3,0.2-0.5,0.2s-0.4-0.1-0.5-0.2c-0.2-0.1-0.3-0.4-0.4-0.8c-0.1-0.4-0.2-1.1-0.2-2.1
					c0-1,0.1-1.8,0.2-2.2c0.1-0.3,0.2-0.6,0.4-0.7c0.2-0.1,0.3-0.2,0.5-0.2s0.4,0.1,0.5,0.2c0.2,0.1,0.3,0.4,0.4,0.8
					c0.1,0.4,0.2,1.1,0.2,2.1C289.4,287.3,289.3,288,289.2,288.4z"/>
				<path class="st10" d="M299.5,290.6h1.7v-8.8h-1.4c-0.2,0.5-0.5,1-1.1,1.4c-0.5,0.4-1,0.7-1.4,0.8v1.5c0.8-0.3,1.6-0.7,2.2-1.3
					V290.6z"/>
				<path class="st10" d="M310.2,281.8c-0.8,0-1.5,0.3-2,0.9c-0.6,0.7-0.9,1.9-0.9,3.6c0,1.7,0.3,2.8,0.8,3.5c0.5,0.7,1.2,1,2.1,1
					c0.8,0,1.5-0.3,2-0.9c0.6-0.7,0.9-1.9,0.9-3.6c0-1.7-0.3-2.8-0.9-3.6C311.7,282.1,311,281.8,310.2,281.8z M311.1,288.4
					c-0.1,0.3-0.2,0.6-0.4,0.7s-0.3,0.2-0.5,0.2c-0.2,0-0.4-0.1-0.5-0.2c-0.2-0.1-0.3-0.4-0.4-0.8c-0.1-0.4-0.2-1.1-0.2-2.1
					c0-1,0.1-1.8,0.2-2.2c0.1-0.3,0.2-0.6,0.4-0.7c0.2-0.1,0.3-0.2,0.5-0.2c0.2,0,0.4,0.1,0.5,0.2c0.2,0.1,0.3,0.4,0.4,0.8
					c0.1,0.4,0.2,1.1,0.2,2.1C311.2,287.3,311.2,288,311.1,288.4z"/>
				<path class="st10" d="M321.1,290.7c0.8,0,1.5-0.3,2-0.9c0.6-0.7,0.9-1.9,0.9-3.6c0-1.7-0.3-2.8-0.9-3.6c-0.5-0.6-1.1-0.9-2-0.9
					c-0.8,0-1.5,0.3-2,0.9c-0.6,0.7-0.9,1.9-0.9,3.6c0,1.7,0.3,2.8,0.8,3.5C319.5,290.4,320.2,290.7,321.1,290.7z M320.2,284.1
					c0.1-0.3,0.2-0.6,0.4-0.7c0.2-0.1,0.3-0.2,0.5-0.2s0.4,0.1,0.5,0.2c0.2,0.1,0.3,0.4,0.4,0.8s0.2,1.1,0.2,2.1
					c0,1-0.1,1.8-0.2,2.2c-0.1,0.3-0.2,0.6-0.4,0.7c-0.2,0.1-0.3,0.2-0.5,0.2s-0.4-0.1-0.5-0.2c-0.2-0.1-0.3-0.4-0.4-0.8
					c-0.1-0.4-0.2-1.1-0.2-2.1C320,285.2,320.1,284.5,320.2,284.1z"/>
				<path class="st10" d="M191.9,301.5v-8.8h-1.4c-0.2,0.5-0.5,1-1.1,1.4c-0.5,0.4-1,0.7-1.4,0.8v1.5c0.8-0.3,1.6-0.7,2.2-1.3v6.3
					H191.9z"/>
				<path class="st10" d="M199,296.4c0.8-0.3,1.6-0.7,2.2-1.3v6.3h1.7v-8.8h-1.4c-0.2,0.5-0.5,1-1.1,1.4c-0.5,0.4-1,0.7-1.4,0.8
					V296.4z"/>
				<path class="st10" d="M209.9,296.4c0.8-0.3,1.6-0.7,2.2-1.3v6.3h1.7v-8.8h-1.4c-0.2,0.5-0.5,1-1.1,1.4c-0.5,0.4-1,0.7-1.4,0.8
					V296.4z"/>
				<path class="st10" d="M224.7,301.5v-8.8h-1.4c-0.2,0.5-0.5,1-1.1,1.4c-0.5,0.4-1,0.7-1.4,0.8v1.5c0.8-0.3,1.6-0.7,2.2-1.3v6.3
					H224.7z"/>
				<path class="st10" d="M233.7,292.7c-0.8,0-1.5,0.3-2,0.9c-0.6,0.7-0.9,1.9-0.9,3.6c0,1.7,0.3,2.8,0.8,3.5c0.5,0.7,1.2,1,2.1,1
					c0.8,0,1.5-0.3,2-0.9c0.6-0.7,0.9-1.9,0.9-3.6c0-1.7-0.3-2.8-0.9-3.6C235.2,293,234.5,292.7,233.7,292.7z M234.6,299.4
					c-0.1,0.3-0.2,0.6-0.4,0.7c-0.2,0.1-0.3,0.2-0.5,0.2c-0.2,0-0.4-0.1-0.5-0.2c-0.2-0.1-0.3-0.4-0.4-0.8s-0.2-1.1-0.2-2.1
					c0-1,0.1-1.8,0.2-2.2c0.1-0.3,0.2-0.6,0.4-0.7c0.2-0.1,0.3-0.2,0.5-0.2c0.2,0,0.4,0.1,0.5,0.2c0.2,0.1,0.3,0.4,0.4,0.8
					c0.1,0.4,0.2,1.1,0.2,2.1C234.8,298.2,234.7,298.9,234.6,299.4z"/>
				<path class="st10" d="M244.1,294.1c-0.5,0.4-1,0.7-1.4,0.8v1.5c0.8-0.3,1.6-0.7,2.2-1.3v6.3h1.7v-8.8h-1.4
					C245,293.2,244.6,293.7,244.1,294.1z"/>
				<path class="st10" d="M255.5,292.7c-0.8,0-1.5,0.3-2,0.9c-0.6,0.7-0.9,1.9-0.9,3.6c0,1.7,0.3,2.8,0.8,3.5c0.5,0.7,1.2,1,2.1,1
					c0.8,0,1.5-0.3,2-0.9c0.6-0.7,0.9-1.9,0.9-3.6c0-1.7-0.3-2.8-0.9-3.6C257,293,256.4,292.7,255.5,292.7z M256.5,299.4
					c-0.1,0.3-0.2,0.6-0.4,0.7c-0.2,0.1-0.3,0.2-0.5,0.2c-0.2,0-0.4-0.1-0.5-0.2c-0.2-0.1-0.3-0.4-0.4-0.8s-0.2-1.1-0.2-2.1
					c0-1,0.1-1.8,0.2-2.2c0.1-0.3,0.2-0.6,0.4-0.7c0.2-0.1,0.3-0.2,0.5-0.2c0.2,0,0.4,0.1,0.5,0.2c0.2,0.1,0.3,0.4,0.4,0.8
					c0.1,0.4,0.2,1.1,0.2,2.1C256.6,298.2,256.6,298.9,256.5,299.4z"/>
				<path class="st10" d="M268.4,301.5v-8.8H267c-0.2,0.5-0.5,1-1.1,1.4c-0.5,0.4-1,0.7-1.4,0.8v1.5c0.8-0.3,1.6-0.7,2.2-1.3v6.3
					H268.4z"/>
				<path class="st10" d="M277.6,301.5h1.7v-8.8h-1.4c-0.2,0.5-0.5,1-1.1,1.4c-0.5,0.4-1,0.7-1.4,0.8v1.5c0.8-0.3,1.6-0.7,2.2-1.3
					V301.5z"/>
				<path class="st10" d="M290.2,301.5v-8.8h-1.4c-0.2,0.5-0.5,1-1.1,1.4c-0.5,0.4-1,0.7-1.4,0.8v1.5c0.8-0.3,1.6-0.7,2.2-1.3v6.3
					H290.2z"/>
				<path class="st10" d="M299.2,292.7c-0.8,0-1.5,0.3-2,0.9c-0.6,0.7-0.9,1.9-0.9,3.6c0,1.7,0.3,2.8,0.8,3.5c0.5,0.7,1.2,1,2.1,1
					c0.8,0,1.5-0.3,2-0.9c0.6-0.7,0.9-1.9,0.9-3.6c0-1.7-0.3-2.8-0.9-3.6C300.7,293,300.1,292.7,299.2,292.7z M300.1,299.4
					c-0.1,0.3-0.2,0.6-0.4,0.7c-0.2,0.1-0.3,0.2-0.5,0.2s-0.4-0.1-0.5-0.2c-0.2-0.1-0.3-0.4-0.4-0.8c-0.1-0.4-0.2-1.1-0.2-2.1
					c0-1,0.1-1.8,0.2-2.2c0.1-0.3,0.2-0.6,0.4-0.7c0.2-0.1,0.3-0.2,0.5-0.2s0.4,0.1,0.5,0.2c0.2,0.1,0.3,0.4,0.4,0.8
					c0.1,0.4,0.2,1.1,0.2,2.1C300.3,298.2,300.3,298.9,300.1,299.4z"/>
				<path class="st10" d="M312.1,301.5v-8.8h-1.4c-0.2,0.5-0.5,1-1.1,1.4c-0.5,0.4-1,0.7-1.4,0.8v1.5c0.8-0.3,1.6-0.7,2.2-1.3v6.3
					H312.1z"/>
				<path class="st10" d="M323,301.5v-8.8h-1.4c-0.2,0.5-0.5,1-1.1,1.4c-0.5,0.4-1,0.7-1.4,0.8v1.5c0.8-0.3,1.6-0.7,2.2-1.3v6.3H323
					z"/>
				<path class="st10" d="M188.1,307.4c0.8-0.3,1.6-0.7,2.2-1.3v6.3h1.7v-8.8h-1.4c-0.2,0.5-0.5,1-1.1,1.4c-0.5,0.4-1,0.7-1.4,0.8
					V307.4z"/>
				<path class="st10" d="M200.9,303.6c-0.8,0-1.5,0.3-2,0.9c-0.6,0.7-0.9,1.9-0.9,3.6c0,1.7,0.3,2.8,0.8,3.5c0.5,0.7,1.2,1,2.1,1
					c0.8,0,1.5-0.3,2-0.9c0.6-0.7,0.9-1.9,0.9-3.6c0-1.7-0.3-2.8-0.9-3.6C202.4,303.9,201.8,303.6,200.9,303.6z M201.8,310.3
					c-0.1,0.3-0.2,0.6-0.4,0.7c-0.2,0.1-0.3,0.2-0.5,0.2c-0.2,0-0.4-0.1-0.5-0.2c-0.2-0.1-0.3-0.4-0.4-0.8c-0.1-0.4-0.2-1.1-0.2-2.1
					c0-1,0.1-1.8,0.2-2.2c0.1-0.3,0.2-0.6,0.4-0.7c0.2-0.1,0.3-0.2,0.5-0.2c0.2,0,0.4,0.1,0.5,0.2c0.2,0.1,0.3,0.4,0.4,0.8
					c0.1,0.4,0.2,1.1,0.2,2.1C202,309.1,202,309.9,201.8,310.3z"/>
				<path class="st10" d="M211.9,303.6c-0.8,0-1.5,0.3-2,0.9c-0.6,0.7-0.9,1.9-0.9,3.6c0,1.7,0.3,2.8,0.8,3.5c0.5,0.7,1.2,1,2.1,1
					c0.8,0,1.5-0.3,2-0.9c0.6-0.7,0.9-1.9,0.9-3.6c0-1.7-0.3-2.8-0.9-3.6C213.4,303.9,212.7,303.6,211.9,303.6z M212.8,310.3
					c-0.1,0.3-0.2,0.6-0.4,0.7c-0.2,0.1-0.3,0.2-0.5,0.2c-0.2,0-0.4-0.1-0.5-0.2c-0.2-0.1-0.3-0.4-0.4-0.8c-0.1-0.4-0.2-1.1-0.2-2.1
					c0-1,0.1-1.8,0.2-2.2c0.1-0.3,0.2-0.6,0.4-0.7c0.2-0.1,0.3-0.2,0.5-0.2c0.2,0,0.4,0.1,0.5,0.2c0.2,0.1,0.3,0.4,0.4,0.8
					c0.1,0.4,0.2,1.1,0.2,2.1C212.9,309.1,212.9,309.9,212.8,310.3z"/>
				<path class="st10" d="M220.9,307.4c0.8-0.3,1.6-0.7,2.2-1.3v6.3h1.7v-8.8h-1.4c-0.2,0.5-0.5,1-1.1,1.4c-0.5,0.4-1,0.7-1.4,0.8
					V307.4z"/>
				<path class="st10" d="M233.7,303.6c-0.8,0-1.5,0.3-2,0.9c-0.6,0.7-0.9,1.9-0.9,3.6c0,1.7,0.3,2.8,0.8,3.5c0.5,0.7,1.2,1,2.1,1
					c0.8,0,1.5-0.3,2-0.9c0.6-0.7,0.9-1.9,0.9-3.6c0-1.7-0.3-2.8-0.9-3.6C235.2,303.9,234.5,303.6,233.7,303.6z M234.6,310.3
					c-0.1,0.3-0.2,0.6-0.4,0.7c-0.2,0.1-0.3,0.2-0.5,0.2c-0.2,0-0.4-0.1-0.5-0.2c-0.2-0.1-0.3-0.4-0.4-0.8c-0.1-0.4-0.2-1.1-0.2-2.1
					c0-1,0.1-1.8,0.2-2.2c0.1-0.3,0.2-0.6,0.4-0.7c0.2-0.1,0.3-0.2,0.5-0.2c0.2,0,0.4,0.1,0.5,0.2c0.2,0.1,0.3,0.4,0.4,0.8
					c0.1,0.4,0.2,1.1,0.2,2.1C234.8,309.1,234.7,309.9,234.6,310.3z"/>
				<path class="st10" d="M244.1,305c-0.5,0.4-1,0.7-1.4,0.8v1.5c0.8-0.3,1.6-0.7,2.2-1.3v6.3h1.7v-8.8h-1.4
					C245,304.2,244.6,304.6,244.1,305z"/>
				<path class="st10" d="M255,305c-0.5,0.4-1,0.7-1.4,0.8v1.5c0.8-0.3,1.6-0.7,2.2-1.3v6.3h1.7v-8.8h-1.4
					C255.9,304.2,255.6,304.6,255,305z"/>
				<path class="st10" d="M266.5,303.6c-0.8,0-1.5,0.3-2,0.9c-0.6,0.7-0.9,1.9-0.9,3.6c0,1.7,0.3,2.8,0.8,3.5c0.5,0.7,1.2,1,2.1,1
					c0.8,0,1.5-0.3,2-0.9c0.6-0.7,0.9-1.9,0.9-3.6c0-1.7-0.3-2.8-0.9-3.6C268,303.9,267.3,303.6,266.5,303.6z M267.4,310.3
					c-0.1,0.3-0.2,0.6-0.4,0.7c-0.2,0.1-0.3,0.2-0.5,0.2c-0.2,0-0.4-0.1-0.5-0.2c-0.2-0.1-0.3-0.4-0.4-0.8c-0.1-0.4-0.2-1.1-0.2-2.1
					c0-1,0.1-1.8,0.2-2.2c0.1-0.3,0.2-0.6,0.4-0.7s0.3-0.2,0.5-0.2c0.2,0,0.4,0.1,0.5,0.2c0.2,0.1,0.3,0.4,0.4,0.8
					c0.1,0.4,0.2,1.1,0.2,2.1C267.5,309.1,267.5,309.9,267.4,310.3z"/>
				<path class="st10" d="M277.4,303.6c-0.8,0-1.5,0.3-2,0.9c-0.6,0.7-0.9,1.9-0.9,3.6c0,1.7,0.3,2.8,0.8,3.5c0.5,0.7,1.2,1,2.1,1
					c0.8,0,1.5-0.3,2-0.9c0.6-0.7,0.9-1.9,0.9-3.6c0-1.7-0.3-2.8-0.9-3.6C278.9,303.9,278.2,303.6,277.4,303.6z M278.3,310.3
					c-0.1,0.3-0.2,0.6-0.4,0.7s-0.3,0.2-0.5,0.2c-0.2,0-0.4-0.1-0.5-0.2c-0.2-0.1-0.3-0.4-0.4-0.8c-0.1-0.4-0.2-1.1-0.2-2.1
					c0-1,0.1-1.8,0.2-2.2c0.1-0.3,0.2-0.6,0.4-0.7c0.2-0.1,0.3-0.2,0.5-0.2c0.2,0,0.4,0.1,0.5,0.2s0.3,0.4,0.4,0.8
					c0.1,0.4,0.2,1.1,0.2,2.1C278.5,309.1,278.4,309.9,278.3,310.3z"/>
				<path class="st10" d="M288.3,303.6c-0.8,0-1.5,0.3-2,0.9c-0.6,0.7-0.9,1.9-0.9,3.6c0,1.7,0.3,2.8,0.8,3.5c0.5,0.7,1.2,1,2.1,1
					c0.8,0,1.5-0.3,2-0.9c0.6-0.7,0.9-1.9,0.9-3.6c0-1.7-0.3-2.8-0.9-3.6C289.8,303.9,289.2,303.6,288.3,303.6z M289.2,310.3
					c-0.1,0.3-0.2,0.6-0.4,0.7c-0.2,0.1-0.3,0.2-0.5,0.2s-0.4-0.1-0.5-0.2c-0.2-0.1-0.3-0.4-0.4-0.8c-0.1-0.4-0.2-1.1-0.2-2.1
					c0-1,0.1-1.8,0.2-2.2c0.1-0.3,0.2-0.6,0.4-0.7c0.2-0.1,0.3-0.2,0.5-0.2s0.4,0.1,0.5,0.2c0.2,0.1,0.3,0.4,0.4,0.8
					c0.1,0.4,0.2,1.1,0.2,2.1C289.4,309.1,289.3,309.9,289.2,310.3z"/>
				<path class="st10" d="M301.2,312.4v-8.8h-1.4c-0.2,0.5-0.5,1-1.1,1.4c-0.5,0.4-1,0.7-1.4,0.8v1.5c0.8-0.3,1.6-0.7,2.2-1.3v6.3
					H301.2z"/>
				<path class="st10" d="M308.2,307.4c0.8-0.3,1.6-0.7,2.2-1.3v6.3h1.7v-8.8h-1.4c-0.2,0.5-0.5,1-1.1,1.4c-0.5,0.4-1,0.7-1.4,0.8
					V307.4z"/>
				<path class="st10" d="M321.1,303.6c-0.8,0-1.5,0.3-2,0.9c-0.6,0.7-0.9,1.9-0.9,3.6c0,1.7,0.3,2.8,0.8,3.5c0.5,0.7,1.2,1,2.1,1
					c0.8,0,1.5-0.3,2-0.9c0.6-0.7,0.9-1.9,0.9-3.6c0-1.7-0.3-2.8-0.9-3.6C322.6,303.9,321.9,303.6,321.1,303.6z M322,310.3
					c-0.1,0.3-0.2,0.6-0.4,0.7c-0.2,0.1-0.3,0.2-0.5,0.2s-0.4-0.1-0.5-0.2c-0.2-0.1-0.3-0.4-0.4-0.8c-0.1-0.4-0.2-1.1-0.2-2.1
					c0-1,0.1-1.8,0.2-2.2c0.1-0.3,0.2-0.6,0.4-0.7c0.2-0.1,0.3-0.2,0.5-0.2s0.4,0.1,0.5,0.2c0.2,0.1,0.3,0.4,0.4,0.8
					c0.1,0.4,0.2,1.1,0.2,2.1C322.2,309.1,322.1,309.9,322,310.3z"/>
				<path class="st10" d="M190,314.6c-0.8,0-1.5,0.3-2,0.9c-0.6,0.7-0.9,1.9-0.9,3.6c0,1.7,0.3,2.8,0.8,3.5c0.5,0.7,1.2,1,2.1,1
					c0.8,0,1.5-0.3,2-0.9c0.6-0.7,0.9-1.9,0.9-3.6c0-1.7-0.3-2.8-0.9-3.6C191.5,314.9,190.9,314.6,190,314.6z M190.9,321.2
					c-0.1,0.3-0.2,0.6-0.4,0.7c-0.2,0.1-0.3,0.2-0.5,0.2c-0.2,0-0.4-0.1-0.5-0.2c-0.2-0.1-0.3-0.4-0.4-0.8c-0.1-0.4-0.2-1.1-0.2-2.1
					c0-1,0.1-1.8,0.2-2.2c0.1-0.3,0.2-0.6,0.4-0.7c0.2-0.1,0.3-0.2,0.5-0.2c0.2,0,0.4,0.1,0.5,0.2c0.2,0.1,0.3,0.4,0.4,0.8
					c0.1,0.4,0.2,1.1,0.2,2.1C191.1,320,191,320.8,190.9,321.2z"/>
				<path class="st10" d="M200.9,314.6c-0.8,0-1.5,0.3-2,0.9c-0.6,0.7-0.9,1.9-0.9,3.6c0,1.7,0.3,2.8,0.8,3.5s1.2,1,2.1,1
					c0.8,0,1.5-0.3,2-0.9c0.6-0.7,0.9-1.9,0.9-3.6c0-1.7-0.3-2.8-0.9-3.6C202.4,314.9,201.8,314.6,200.9,314.6z M201.8,321.2
					c-0.1,0.3-0.2,0.6-0.4,0.7c-0.2,0.1-0.3,0.2-0.5,0.2c-0.2,0-0.4-0.1-0.5-0.2s-0.3-0.4-0.4-0.8s-0.2-1.1-0.2-2.1
					c0-1,0.1-1.8,0.2-2.2c0.1-0.3,0.2-0.6,0.4-0.7c0.2-0.1,0.3-0.2,0.5-0.2c0.2,0,0.4,0.1,0.5,0.2c0.2,0.1,0.3,0.4,0.4,0.8
					s0.2,1.1,0.2,2.1C202,320,202,320.8,201.8,321.2z"/>
				<path class="st10" d="M213.8,323.3v-8.8h-1.4c-0.2,0.5-0.5,1-1.1,1.4c-0.5,0.4-1,0.7-1.4,0.8v1.5c0.8-0.3,1.6-0.7,2.2-1.3v6.3
					H213.8z"/>
				<path class="st10" d="M220.9,318.3c0.8-0.3,1.6-0.7,2.2-1.3v6.3h1.7v-8.8h-1.4c-0.2,0.5-0.5,1-1.1,1.4s-1,0.7-1.4,0.8V318.3z"/>
				<path class="st10" d="M233.7,314.6c-0.8,0-1.5,0.3-2,0.9c-0.6,0.7-0.9,1.9-0.9,3.6c0,1.7,0.3,2.8,0.8,3.5c0.5,0.7,1.2,1,2.1,1
					c0.8,0,1.5-0.3,2-0.9c0.6-0.7,0.9-1.9,0.9-3.6c0-1.7-0.3-2.8-0.9-3.6C235.2,314.9,234.5,314.6,233.7,314.6z M234.6,321.2
					c-0.1,0.3-0.2,0.6-0.4,0.7c-0.2,0.1-0.3,0.2-0.5,0.2c-0.2,0-0.4-0.1-0.5-0.2c-0.2-0.1-0.3-0.4-0.4-0.8s-0.2-1.1-0.2-2.1
					c0-1,0.1-1.8,0.2-2.2c0.1-0.3,0.2-0.6,0.4-0.7c0.2-0.1,0.3-0.2,0.5-0.2c0.2,0,0.4,0.1,0.5,0.2c0.2,0.1,0.3,0.4,0.4,0.8
					c0.1,0.4,0.2,1.1,0.2,2.1C234.8,320,234.7,320.8,234.6,321.2z"/>
				<path class="st10" d="M244.1,316c-0.5,0.4-1,0.7-1.4,0.8v1.5c0.8-0.3,1.6-0.7,2.2-1.3v6.3h1.7v-8.8h-1.4
					C245,315.1,244.6,315.6,244.1,316z"/>
				<path class="st10" d="M255,316c-0.5,0.4-1,0.7-1.4,0.8v1.5c0.8-0.3,1.6-0.7,2.2-1.3v6.3h1.7v-8.8h-1.4
					C255.9,315.1,255.6,315.6,255,316z"/>
				<path class="st10" d="M266.5,314.6c-0.8,0-1.5,0.3-2,0.9c-0.6,0.7-0.9,1.9-0.9,3.6c0,1.7,0.3,2.8,0.8,3.5c0.5,0.7,1.2,1,2.1,1
					c0.8,0,1.5-0.3,2-0.9c0.6-0.7,0.9-1.9,0.9-3.6c0-1.7-0.3-2.8-0.9-3.6C268,314.9,267.3,314.6,266.5,314.6z M267.4,321.2
					c-0.1,0.3-0.2,0.6-0.4,0.7c-0.2,0.1-0.3,0.2-0.5,0.2c-0.2,0-0.4-0.1-0.5-0.2c-0.2-0.1-0.3-0.4-0.4-0.8c-0.1-0.4-0.2-1.1-0.2-2.1
					c0-1,0.1-1.8,0.2-2.2c0.1-0.3,0.2-0.6,0.4-0.7c0.2-0.1,0.3-0.2,0.5-0.2c0.2,0,0.4,0.1,0.5,0.2c0.2,0.1,0.3,0.4,0.4,0.8
					c0.1,0.4,0.2,1.1,0.2,2.1C267.5,320,267.5,320.8,267.4,321.2z"/>
				<path class="st10" d="M277.4,314.6c-0.8,0-1.5,0.3-2,0.9c-0.6,0.7-0.9,1.9-0.9,3.6c0,1.7,0.3,2.8,0.8,3.5s1.2,1,2.1,1
					c0.8,0,1.5-0.3,2-0.9c0.6-0.7,0.9-1.9,0.9-3.6c0-1.7-0.3-2.8-0.9-3.6C278.9,314.9,278.2,314.6,277.4,314.6z M278.3,321.2
					c-0.1,0.3-0.2,0.6-0.4,0.7s-0.3,0.2-0.5,0.2c-0.2,0-0.4-0.1-0.5-0.2c-0.2-0.1-0.3-0.4-0.4-0.8c-0.1-0.4-0.2-1.1-0.2-2.1
					c0-1,0.1-1.8,0.2-2.2c0.1-0.3,0.2-0.6,0.4-0.7c0.2-0.1,0.3-0.2,0.5-0.2c0.2,0,0.4,0.1,0.5,0.2c0.2,0.1,0.3,0.4,0.4,0.8
					c0.1,0.4,0.2,1.1,0.2,2.1C278.5,320,278.4,320.8,278.3,321.2z"/>
				<path class="st10" d="M290.2,323.3v-8.8h-1.4c-0.2,0.5-0.5,1-1.1,1.4c-0.5,0.4-1,0.7-1.4,0.8v1.5c0.8-0.3,1.6-0.7,2.2-1.3v6.3
					H290.2z"/>
				<path class="st10" d="M299.2,314.6c-0.8,0-1.5,0.3-2,0.9c-0.6,0.7-0.9,1.9-0.9,3.6c0,1.7,0.3,2.8,0.8,3.5c0.5,0.7,1.2,1,2.1,1
					c0.8,0,1.5-0.3,2-0.9c0.6-0.7,0.9-1.9,0.9-3.6c0-1.7-0.3-2.8-0.9-3.6C300.7,314.9,300.1,314.6,299.2,314.6z M300.1,321.2
					c-0.1,0.3-0.2,0.6-0.4,0.7c-0.2,0.1-0.3,0.2-0.5,0.2s-0.4-0.1-0.5-0.2c-0.2-0.1-0.3-0.4-0.4-0.8c-0.1-0.4-0.2-1.1-0.2-2.1
					c0-1,0.1-1.8,0.2-2.2c0.1-0.3,0.2-0.6,0.4-0.7c0.2-0.1,0.3-0.2,0.5-0.2s0.4,0.1,0.5,0.2c0.2,0.1,0.3,0.4,0.4,0.8
					c0.1,0.4,0.2,1.1,0.2,2.1C300.3,320,300.3,320.8,300.1,321.2z"/>
				<path class="st10" d="M308.2,318.3c0.8-0.3,1.6-0.7,2.2-1.3v6.3h1.7v-8.8h-1.4c-0.2,0.5-0.5,1-1.1,1.4s-1,0.7-1.4,0.8V318.3z"/>
				<path class="st10" d="M323,323.3v-8.8h-1.4c-0.2,0.5-0.5,1-1.1,1.4c-0.5,0.4-1,0.7-1.4,0.8v1.5c0.8-0.3,1.6-0.7,2.2-1.3v6.3H323
					z"/>
				<path class="st10" d="M189.5,326.9c-0.5,0.4-1,0.7-1.4,0.8v1.5c0.8-0.3,1.6-0.7,2.2-1.3v6.3h1.7v-8.8h-1.4
					C190.4,326,190,326.5,189.5,326.9z"/>
				<path class="st10" d="M200.9,325.5c-0.8,0-1.5,0.3-2,0.9c-0.6,0.7-0.9,1.9-0.9,3.6c0,1.7,0.3,2.8,0.8,3.5s1.2,1,2.1,1
					c0.8,0,1.5-0.3,2-0.9c0.6-0.7,0.9-1.9,0.9-3.6c0-1.7-0.3-2.8-0.9-3.6C202.4,325.8,201.8,325.5,200.9,325.5z M201.8,332.1
					c-0.1,0.3-0.2,0.6-0.4,0.7c-0.2,0.1-0.3,0.2-0.5,0.2c-0.2,0-0.4-0.1-0.5-0.2s-0.3-0.4-0.4-0.8c-0.1-0.4-0.2-1.1-0.2-2.1
					c0-1,0.1-1.8,0.2-2.2c0.1-0.3,0.2-0.6,0.4-0.7c0.2-0.1,0.3-0.2,0.5-0.2c0.2,0,0.4,0.1,0.5,0.2c0.2,0.1,0.3,0.4,0.4,0.8
					c0.1,0.4,0.2,1.1,0.2,2.1C202,331,202,331.7,201.8,332.1z"/>
				<path class="st10" d="M209.9,329.2c0.8-0.3,1.6-0.7,2.2-1.3v6.3h1.7v-8.8h-1.4c-0.2,0.5-0.5,1-1.1,1.4c-0.5,0.4-1,0.7-1.4,0.8
					V329.2z"/>
				<path class="st10" d="M222.8,325.5c-0.8,0-1.5,0.3-2,0.9c-0.6,0.7-0.9,1.9-0.9,3.6c0,1.7,0.3,2.8,0.8,3.5s1.2,1,2.1,1
					c0.8,0,1.5-0.3,2-0.9c0.6-0.7,0.9-1.9,0.9-3.6c0-1.7-0.3-2.8-0.9-3.6C224.3,325.8,223.6,325.5,222.8,325.5z M223.7,332.1
					c-0.1,0.3-0.2,0.6-0.4,0.7c-0.2,0.1-0.3,0.2-0.5,0.2c-0.2,0-0.4-0.1-0.5-0.2s-0.3-0.4-0.4-0.8c-0.1-0.4-0.2-1.1-0.2-2.1
					c0-1,0.1-1.8,0.2-2.2c0.1-0.3,0.2-0.6,0.4-0.7s0.3-0.2,0.5-0.2c0.2,0,0.4,0.1,0.5,0.2c0.2,0.1,0.3,0.4,0.4,0.8
					c0.1,0.4,0.2,1.1,0.2,2.1C223.9,331,223.8,331.7,223.7,332.1z"/>
				<path class="st10" d="M235.6,334.3v-8.8h-1.4c-0.2,0.5-0.5,1-1.1,1.4c-0.5,0.4-1,0.7-1.4,0.8v1.5c0.8-0.3,1.6-0.7,2.2-1.3v6.3
					H235.6z"/>
				<path class="st10" d="M244.1,326.9c-0.5,0.4-1,0.7-1.4,0.8v1.5c0.8-0.3,1.6-0.7,2.2-1.3v6.3h1.7v-8.8h-1.4
					C245,326,244.6,326.5,244.1,326.9z"/>
				<path class="st10" d="M255,326.9c-0.5,0.4-1,0.7-1.4,0.8v1.5c0.8-0.3,1.6-0.7,2.2-1.3v6.3h1.7v-8.8h-1.4
					C255.9,326,255.6,326.5,255,326.9z"/>
				<path class="st10" d="M277.4,325.5c-0.8,0-1.5,0.3-2,0.9c-0.6,0.7-0.9,1.9-0.9,3.6c0,1.7,0.3,2.8,0.8,3.5s1.2,1,2.1,1
					c0.8,0,1.5-0.3,2-0.9c0.6-0.7,0.9-1.9,0.9-3.6c0-1.7-0.3-2.8-0.9-3.6C278.9,325.8,278.2,325.5,277.4,325.5z M278.3,332.1
					c-0.1,0.3-0.2,0.6-0.4,0.7c-0.2,0.1-0.3,0.2-0.5,0.2c-0.2,0-0.4-0.1-0.5-0.2c-0.2-0.1-0.3-0.4-0.4-0.8c-0.1-0.4-0.2-1.1-0.2-2.1
					c0-1,0.1-1.8,0.2-2.2c0.1-0.3,0.2-0.6,0.4-0.7c0.2-0.1,0.3-0.2,0.5-0.2c0.2,0,0.4,0.1,0.5,0.2s0.3,0.4,0.4,0.8
					c0.1,0.4,0.2,1.1,0.2,2.1C278.5,331,278.4,331.7,278.3,332.1z"/>
				<path class="st10" d="M288.3,325.5c-0.8,0-1.5,0.3-2,0.9c-0.6,0.7-0.9,1.9-0.9,3.6c0,1.7,0.3,2.8,0.8,3.5c0.5,0.7,1.2,1,2.1,1
					c0.8,0,1.5-0.3,2-0.9c0.6-0.7,0.9-1.9,0.9-3.6c0-1.7-0.3-2.8-0.9-3.6C289.8,325.8,289.2,325.5,288.3,325.5z M289.2,332.1
					c-0.1,0.3-0.2,0.6-0.4,0.7c-0.2,0.1-0.3,0.2-0.5,0.2s-0.4-0.1-0.5-0.2c-0.2-0.1-0.3-0.4-0.4-0.8c-0.1-0.4-0.2-1.1-0.2-2.1
					c0-1,0.1-1.8,0.2-2.2c0.1-0.3,0.2-0.6,0.4-0.7c0.2-0.1,0.3-0.2,0.5-0.2s0.4,0.1,0.5,0.2c0.2,0.1,0.3,0.4,0.4,0.8
					c0.1,0.4,0.2,1.1,0.2,2.1C289.4,331,289.3,331.7,289.2,332.1z"/>
				<path class="st10" d="M298.7,326.9c-0.5,0.4-1,0.7-1.4,0.8v1.5c0.8-0.3,1.6-0.7,2.2-1.3v6.3h1.7v-8.8h-1.4
					C299.6,326,299.3,326.5,298.7,326.9z"/>
				<path class="st10" d="M310.2,325.5c-0.8,0-1.5,0.3-2,0.9c-0.6,0.7-0.9,1.9-0.9,3.6c0,1.7,0.3,2.8,0.8,3.5c0.5,0.7,1.2,1,2.1,1
					c0.8,0,1.5-0.3,2-0.9c0.6-0.7,0.9-1.9,0.9-3.6c0-1.7-0.3-2.8-0.9-3.6C311.7,325.8,311,325.5,310.2,325.5z M311.1,332.1
					c-0.1,0.3-0.2,0.6-0.4,0.7c-0.2,0.1-0.3,0.2-0.5,0.2c-0.2,0-0.4-0.1-0.5-0.2s-0.3-0.4-0.4-0.8c-0.1-0.4-0.2-1.1-0.2-2.1
					c0-1,0.1-1.8,0.2-2.2c0.1-0.3,0.2-0.6,0.4-0.7c0.2-0.1,0.3-0.2,0.5-0.2c0.2,0,0.4,0.1,0.5,0.2c0.2,0.1,0.3,0.4,0.4,0.8
					c0.1,0.4,0.2,1.1,0.2,2.1C311.2,331,311.2,331.7,311.1,332.1z"/>
				<path class="st10" d="M319.2,329.2c0.8-0.3,1.6-0.7,2.2-1.3v6.3h1.7v-8.8h-1.4c-0.2,0.5-0.5,1-1.1,1.4c-0.5,0.4-1,0.7-1.4,0.8
					V329.2z"/>
				<path class="st10" d="M189.5,337.8c-0.5,0.4-1,0.7-1.4,0.8v1.5c0.8-0.3,1.6-0.7,2.2-1.3v6.3h1.7v-8.8h-1.4
					C190.4,336.9,190,337.4,189.5,337.8z"/>
				<path class="st10" d="M200.9,336.4c-0.8,0-1.5,0.3-2,0.9c-0.6,0.7-0.9,1.9-0.9,3.6c0,1.7,0.3,2.8,0.8,3.5c0.5,0.7,1.2,1,2.1,1
					c0.8,0,1.5-0.3,2-0.9c0.6-0.7,0.9-1.9,0.9-3.6c0-1.7-0.3-2.8-0.9-3.6C202.4,336.7,201.8,336.4,200.9,336.4z M201.8,343
					c-0.1,0.3-0.2,0.6-0.4,0.7c-0.2,0.1-0.3,0.2-0.5,0.2c-0.2,0-0.4-0.1-0.5-0.2c-0.2-0.1-0.3-0.4-0.4-0.8s-0.2-1.1-0.2-2.1
					c0-1,0.1-1.8,0.2-2.2c0.1-0.3,0.2-0.6,0.4-0.7c0.2-0.1,0.3-0.2,0.5-0.2c0.2,0,0.4,0.1,0.5,0.2c0.2,0.1,0.3,0.4,0.4,0.8
					s0.2,1.1,0.2,2.1C202,341.9,202,342.6,201.8,343z"/>
				<path class="st10" d="M211.9,336.4c-0.8,0-1.5,0.3-2,0.9c-0.6,0.7-0.9,1.9-0.9,3.6c0,1.7,0.3,2.8,0.8,3.5c0.5,0.7,1.2,1,2.1,1
					c0.8,0,1.5-0.3,2-0.9c0.6-0.7,0.9-1.9,0.9-3.6c0-1.7-0.3-2.8-0.9-3.6C213.4,336.7,212.7,336.4,211.9,336.4z M212.8,343
					c-0.1,0.3-0.2,0.6-0.4,0.7c-0.2,0.1-0.3,0.2-0.5,0.2c-0.2,0-0.4-0.1-0.5-0.2c-0.2-0.1-0.3-0.4-0.4-0.8c-0.1-0.4-0.2-1.1-0.2-2.1
					c0-1,0.1-1.8,0.2-2.2c0.1-0.3,0.2-0.6,0.4-0.7c0.2-0.1,0.3-0.2,0.5-0.2c0.2,0,0.4,0.1,0.5,0.2c0.2,0.1,0.3,0.4,0.4,0.8
					c0.1,0.4,0.2,1.1,0.2,2.1C212.9,341.9,212.9,342.6,212.8,343z"/>
				<path class="st10" d="M222.8,336.4c-0.8,0-1.5,0.3-2,0.9c-0.6,0.7-0.9,1.9-0.9,3.6c0,1.7,0.3,2.8,0.8,3.5c0.5,0.7,1.2,1,2.1,1
					c0.8,0,1.5-0.3,2-0.9c0.6-0.7,0.9-1.9,0.9-3.6c0-1.7-0.3-2.8-0.9-3.6C224.3,336.7,223.6,336.4,222.8,336.4z M223.7,343
					c-0.1,0.3-0.2,0.6-0.4,0.7s-0.3,0.2-0.5,0.2c-0.2,0-0.4-0.1-0.5-0.2c-0.2-0.1-0.3-0.4-0.4-0.8s-0.2-1.1-0.2-2.1
					c0-1,0.1-1.8,0.2-2.2c0.1-0.3,0.2-0.6,0.4-0.7s0.3-0.2,0.5-0.2c0.2,0,0.4,0.1,0.5,0.2c0.2,0.1,0.3,0.4,0.4,0.8s0.2,1.1,0.2,2.1
					C223.9,341.9,223.8,342.6,223.7,343z"/>
				<path class="st10" d="M233.7,336.4c-0.8,0-1.5,0.3-2,0.9c-0.6,0.7-0.9,1.9-0.9,3.6c0,1.7,0.3,2.8,0.8,3.5c0.5,0.7,1.2,1,2.1,1
					c0.8,0,1.5-0.3,2-0.9c0.6-0.7,0.9-1.9,0.9-3.6c0-1.7-0.3-2.8-0.9-3.6C235.2,336.7,234.5,336.4,233.7,336.4z M234.6,343
					c-0.1,0.3-0.2,0.6-0.4,0.7c-0.2,0.1-0.3,0.2-0.5,0.2c-0.2,0-0.4-0.1-0.5-0.2c-0.2-0.1-0.3-0.4-0.4-0.8s-0.2-1.1-0.2-2.1
					c0-1,0.1-1.8,0.2-2.2c0.1-0.3,0.2-0.6,0.4-0.7c0.2-0.1,0.3-0.2,0.5-0.2c0.2,0,0.4,0.1,0.5,0.2c0.2,0.1,0.3,0.4,0.4,0.8
					c0.1,0.4,0.2,1.1,0.2,2.1C234.8,341.9,234.7,342.6,234.6,343z"/>
				<path class="st10" d="M244.1,337.8c-0.5,0.4-1,0.7-1.4,0.8v1.5c0.8-0.3,1.6-0.7,2.2-1.3v6.3h1.7v-8.8h-1.4
					C245,336.9,244.6,337.4,244.1,337.8z"/>
				<path class="st10" d="M255,337.8c-0.5,0.4-1,0.7-1.4,0.8v1.5c0.8-0.3,1.6-0.7,2.2-1.3v6.3h1.7v-8.8h-1.4
					C255.9,336.9,255.6,337.4,255,337.8z"/>
				<path class="st10" d="M266.5,336.4c-0.8,0-1.5,0.3-2,0.9c-0.6,0.7-0.9,1.9-0.9,3.6c0,1.7,0.3,2.8,0.8,3.5c0.5,0.7,1.2,1,2.1,1
					c0.8,0,1.5-0.3,2-0.9c0.6-0.7,0.9-1.9,0.9-3.6c0-1.7-0.3-2.8-0.9-3.6C268,336.7,267.3,336.4,266.5,336.4z M267.4,343
					c-0.1,0.3-0.2,0.6-0.4,0.7c-0.2,0.1-0.3,0.2-0.5,0.2c-0.2,0-0.4-0.1-0.5-0.2c-0.2-0.1-0.3-0.4-0.4-0.8c-0.1-0.4-0.2-1.1-0.2-2.1
					c0-1,0.1-1.8,0.2-2.2c0.1-0.3,0.2-0.6,0.4-0.7s0.3-0.2,0.5-0.2c0.2,0,0.4,0.1,0.5,0.2c0.2,0.1,0.3,0.4,0.4,0.8
					c0.1,0.4,0.2,1.1,0.2,2.1C267.5,341.9,267.5,342.6,267.4,343z"/>
				<path class="st10" d="M277.4,336.4c-0.8,0-1.5,0.3-2,0.9c-0.6,0.7-0.9,1.9-0.9,3.6c0,1.7,0.3,2.8,0.8,3.5c0.5,0.7,1.2,1,2.1,1
					c0.8,0,1.5-0.3,2-0.9c0.6-0.7,0.9-1.9,0.9-3.6c0-1.7-0.3-2.8-0.9-3.6C278.9,336.7,278.2,336.4,277.4,336.4z M278.3,343
					c-0.1,0.3-0.2,0.6-0.4,0.7s-0.3,0.2-0.5,0.2c-0.2,0-0.4-0.1-0.5-0.2c-0.2-0.1-0.3-0.4-0.4-0.8c-0.1-0.4-0.2-1.1-0.2-2.1
					c0-1,0.1-1.8,0.2-2.2c0.1-0.3,0.2-0.6,0.4-0.7c0.2-0.1,0.3-0.2,0.5-0.2c0.2,0,0.4,0.1,0.5,0.2s0.3,0.4,0.4,0.8
					c0.1,0.4,0.2,1.1,0.2,2.1C278.5,341.9,278.4,342.6,278.3,343z"/>
				<path class="st10" d="M288.3,336.4c-0.8,0-1.5,0.3-2,0.9c-0.6,0.7-0.9,1.9-0.9,3.6c0,1.7,0.3,2.8,0.8,3.5c0.5,0.7,1.2,1,2.1,1
					c0.8,0,1.5-0.3,2-0.9c0.6-0.7,0.9-1.9,0.9-3.6c0-1.7-0.3-2.8-0.9-3.6C289.8,336.7,289.2,336.4,288.3,336.4z M289.2,343
					c-0.1,0.3-0.2,0.6-0.4,0.7c-0.2,0.1-0.3,0.2-0.5,0.2s-0.4-0.1-0.5-0.2c-0.2-0.1-0.3-0.4-0.4-0.8c-0.1-0.4-0.2-1.1-0.2-2.1
					c0-1,0.1-1.8,0.2-2.2c0.1-0.3,0.2-0.6,0.4-0.7c0.2-0.1,0.3-0.2,0.5-0.2s0.4,0.1,0.5,0.2c0.2,0.1,0.3,0.4,0.4,0.8
					c0.1,0.4,0.2,1.1,0.2,2.1C289.4,341.9,289.3,342.6,289.2,343z"/>
				<path class="st10" d="M298.7,337.8c-0.5,0.4-1,0.7-1.4,0.8v1.5c0.8-0.3,1.6-0.7,2.2-1.3v6.3h1.7v-8.8h-1.4
					C299.6,336.9,299.3,337.4,298.7,337.8z"/>
				<path class="st10" d="M310.2,336.4c-0.8,0-1.5,0.3-2,0.9c-0.6,0.7-0.9,1.9-0.9,3.6c0,1.7,0.3,2.8,0.8,3.5c0.5,0.7,1.2,1,2.1,1
					c0.8,0,1.5-0.3,2-0.9c0.6-0.7,0.9-1.9,0.9-3.6c0-1.7-0.3-2.8-0.9-3.6C311.7,336.7,311,336.4,310.2,336.4z M311.1,343
					c-0.1,0.3-0.2,0.6-0.4,0.7s-0.3,0.2-0.5,0.2c-0.2,0-0.4-0.1-0.5-0.2c-0.2-0.1-0.3-0.4-0.4-0.8c-0.1-0.4-0.2-1.1-0.2-2.1
					c0-1,0.1-1.8,0.2-2.2c0.1-0.3,0.2-0.6,0.4-0.7c0.2-0.1,0.3-0.2,0.5-0.2c0.2,0,0.4,0.1,0.5,0.2c0.2,0.1,0.3,0.4,0.4,0.8
					c0.1,0.4,0.2,1.1,0.2,2.1C311.2,341.9,311.2,342.6,311.1,343z"/>
				<path class="st10" d="M321.1,336.4c-0.8,0-1.5,0.3-2,0.9c-0.6,0.7-0.9,1.9-0.9,3.6c0,1.7,0.3,2.8,0.8,3.5c0.5,0.7,1.2,1,2.1,1
					c0.8,0,1.5-0.3,2-0.9c0.6-0.7,0.9-1.9,0.9-3.6c0-1.7-0.3-2.8-0.9-3.6C322.6,336.7,321.9,336.4,321.1,336.4z M322,343
					c-0.1,0.3-0.2,0.6-0.4,0.7c-0.2,0.1-0.3,0.2-0.5,0.2s-0.4-0.1-0.5-0.2c-0.2-0.1-0.3-0.4-0.4-0.8c-0.1-0.4-0.2-1.1-0.2-2.1
					c0-1,0.1-1.8,0.2-2.2c0.1-0.3,0.2-0.6,0.4-0.7c0.2-0.1,0.3-0.2,0.5-0.2s0.4,0.1,0.5,0.2c0.2,0.1,0.3,0.4,0.4,0.8
					s0.2,1.1,0.2,2.1C322.2,341.9,322.1,342.6,322,343z"/>
			</g>
		</g>
	</g>
	<g>
		<polygon class="st4" points="215.3,300.4 219.9,295.7 214.2,290 209.5,294.6 137.7,365 144.9,372.3 		"/>
		<path class="st9" d="M205.3,304.6c11.8,11.8,18.1,26.7,18.6,40.8c6.7-14.4,2.6-34-11.4-48c-14-14-33.6-18.2-48-11.4
			C178.6,286.5,193.5,292.8,205.3,304.6z"/>
	</g>
	<g>
		<g>
			<circle class="st4" cx="255.9" cy="258.7" r="21.9"/>
			<circle class="st2" cx="255.9" cy="258.7" r="16.9"/>
			<g>
				<path class="st2" d="M255.2,236.8v5c0.2,0,0.5,0,0.7,0c0.2,0,0.5,0,0.7,0c0,0,0-5,0-5c-0.2,0-0.5,0-0.7,0
					C255.7,236.8,255.4,236.8,255.2,236.8z"/>
				<path class="st2" d="M236.6,248.4l4.3,2.5c0.2-0.4,0.5-0.8,0.7-1.3c0,0-4.3-2.5-4.3-2.5C237.1,247.5,236.8,248,236.6,248.4z"/>
				<path class="st2" d="M246.8,244.4c0.4-0.2,0.8-0.5,1.3-0.7c0,0-2.5-4.3-2.5-4.3c-0.4,0.2-0.8,0.5-1.3,0.7L246.8,244.4z"/>
				<path class="st2" d="M272.8,258c0,0.2,0,0.5,0,0.7c0,0.2,0,0.5,0,0.7c0,0,5,0,5,0c0-0.2,0-0.5,0-0.7s0-0.5,0-0.7L272.8,258
					C272.8,258,272.8,258,272.8,258z"/>
				<path class="st2" d="M274.5,247.1l-4.3,2.5c0.2,0.4,0.5,0.8,0.7,1.3c0,0,4.3-2.5,4.3-2.5C275,248,274.7,247.5,274.5,247.1z"/>
				<path class="st2" d="M263.7,243.7c0.4,0.2,0.8,0.5,1.3,0.7c0,0,2.5-4.3,2.5-4.3c-0.4-0.3-0.8-0.5-1.3-0.7L263.7,243.7z"/>
				<path class="st2" d="M265,272.9c-0.4,0.2-0.8,0.5-1.3,0.7c0,0,2.5,4.3,2.5,4.3c0.4-0.2,0.8-0.5,1.3-0.7L265,272.9z"/>
				<path class="st2" d="M256.6,280.5v-5c-0.2,0-0.5,0-0.7,0c-0.2,0-0.5,0-0.7,0c0,0,0,5,0,5c0.2,0,0.5,0,0.7,0
					C256.1,280.5,256.4,280.5,256.6,280.5z"/>
				<path class="st2" d="M275.2,269l-4.3-2.5c-0.2,0.4-0.5,0.8-0.7,1.3c0,0,4.3,2.5,4.3,2.5C274.7,269.8,275,269.4,275.2,269z"/>
				<path class="st2" d="M234.1,259.4h5c0-0.2,0-0.5,0-0.7c0-0.2,0-0.5,0-0.7c0,0-5,0-5,0c0,0.2,0,0.5,0,0.7
					S234.1,259.2,234.1,259.4z"/>
				<path class="st2" d="M241.6,267.8c-0.2-0.4-0.5-0.8-0.7-1.3c0,0-4.3,2.5-4.3,2.5c0.2,0.4,0.5,0.8,0.7,1.3L241.6,267.8z"/>
				<path class="st2" d="M248.1,273.7c-0.4-0.2-0.8-0.5-1.3-0.7c0,0-2.5,4.3-2.5,4.3c0.4,0.3,0.8,0.5,1.3,0.7L248.1,273.7z"/>
			</g>
		</g>
		<path class="st3" d="M263.4,260.7c-0.1-0.4-0.3-0.7-0.6-1c-0.2-0.3-0.5-0.6-0.9-0.8c-0.3-0.2-0.7-0.4-1.1-0.5
			c0.8-0.5,1.3-1,1.6-1.6c0.3-0.6,0.5-1.3,0.5-2c0-0.4-0.1-0.8-0.2-1.2c-0.1-0.4-0.3-0.8-0.6-1.2c-0.3-0.4-0.6-0.7-1-1
			c-0.4-0.3-0.9-0.5-1.5-0.7c-0.4-0.1-1-0.2-1.6-0.3v-2.5h-1.8v2.5h-1.9v-2.5h-1.8v2.5h-1.9h-2.5v2.8h2.5v11.2h-2.5v2.8h2.5h1.9v2.5
			h1.8v-2.5h1.3c0.2,0,0.4,0,0.6,0v2.5h1.8V267c0.2,0,0.5-0.1,0.7-0.1c0.2,0,0.5-0.1,0.7-0.1c0.8-0.2,1.5-0.5,2.1-0.9
			c0.5-0.4,1-0.8,1.3-1.2c0.3-0.4,0.6-0.9,0.7-1.4c0.1-0.5,0.2-0.9,0.2-1.3C263.6,261.5,263.5,261.1,263.4,260.7z M256.3,252.9
			c0.4,0,0.8,0,1.1,0c0.3,0,0.6,0.1,0.8,0.1c0.5,0.2,0.9,0.4,1.2,0.8c0.2,0.3,0.3,0.7,0.3,1.2c0,0.4-0.1,0.8-0.3,1.1
			c-0.2,0.3-0.5,0.6-1,0.8c-0.4,0.2-1,0.3-1.9,0.3h-2.8v-4.3H256.3z M260.3,262.8c-0.1,0.2-0.2,0.5-0.4,0.7
			c-0.2,0.2-0.4,0.4-0.7,0.5c-0.3,0.2-0.6,0.3-1.1,0.4c-0.3,0.1-0.6,0.1-1,0.1c-0.4,0-0.8,0-1.4,0h-2v-4.7h2.9c0.5,0,0.9,0,1.3,0.1
			c0.3,0,0.6,0.1,0.9,0.2c0.6,0.2,1,0.4,1.2,0.8c0.3,0.4,0.4,0.8,0.4,1.2C260.4,262.3,260.4,262.5,260.3,262.8z"/>
	</g>
	<g>
		<g>
			<circle class="st4" cx="211.8" cy="247.2" r="19.2"/>
			
				<ellipse transform="matrix(0.9954 -9.574950e-02 9.574950e-02 0.9954 -22.7008 21.4171)" class="st2" cx="211.8" cy="247.2" rx="14.8" ry="14.8"/>
			<g>
				<path class="st2" d="M211.2,228.1v4.3c0.2,0,0.4,0,0.6,0s0.4,0,0.6,0c0,0,0-4.4,0-4.4c-0.2,0-0.4,0-0.6,0
					C211.6,228.1,211.4,228.1,211.2,228.1z"/>
				<path class="st2" d="M194.9,238.2l3.8,2.2c0.2-0.4,0.4-0.7,0.7-1.1c0,0-3.8-2.2-3.8-2.2C195.3,237.5,195.1,237.8,194.9,238.2z"
					/>
				<path class="st2" d="M203.9,234.7c0.4-0.2,0.7-0.4,1.1-0.6c0,0-2.2-3.8-2.2-3.8c-0.4,0.2-0.7,0.4-1.1,0.6L203.9,234.7z"/>
				<path class="st2" d="M226.6,246.6c0,0.2,0,0.4,0,0.6s0,0.4,0,0.6c0,0,4.4,0,4.4,0c0-0.2,0-0.4,0-0.6c0-0.2,0-0.4,0-0.6
					L226.6,246.6C226.6,246.6,226.6,246.6,226.6,246.6z"/>
				<path class="st2" d="M228.1,237.1l-3.8,2.2c0.2,0.4,0.4,0.7,0.6,1.1c0,0,3.8-2.2,3.8-2.2C228.5,237.8,228.3,237.5,228.1,237.1z"
					/>
				<path class="st2" d="M218.7,234.1c0.4,0.2,0.7,0.4,1.1,0.7c0,0,2.2-3.8,2.2-3.8c-0.4-0.2-0.7-0.4-1.1-0.6L218.7,234.1z"/>
				<path class="st2" d="M219.8,259.8c-0.4,0.2-0.7,0.4-1.1,0.6c0,0,2.2,3.8,2.2,3.8c0.4-0.2,0.7-0.4,1.1-0.6L219.8,259.8z"/>
				<path class="st2" d="M212.5,266.4v-4.3c-0.2,0-0.4,0-0.6,0s-0.4,0-0.6,0c0,0,0,4.4,0,4.4c0.2,0,0.4,0,0.6,0
					C212,266.4,212.2,266.4,212.5,266.4z"/>
				<path class="st2" d="M228.7,256.3l-3.8-2.2c-0.2,0.4-0.4,0.7-0.7,1.1c0,0,3.8,2.2,3.8,2.2C228.3,257,228.5,256.7,228.7,256.3z"
					/>
				<path class="st2" d="M192.6,247.9h4.3c0-0.2,0-0.4,0-0.6s0-0.4,0-0.6c0,0-4.4,0-4.4,0c0,0.2,0,0.4,0,0.6
					C192.6,247.5,192.6,247.7,192.6,247.9z"/>
				<path class="st2" d="M199.3,255.2c-0.2-0.4-0.4-0.7-0.6-1.1c0,0-3.8,2.2-3.8,2.2c0.2,0.4,0.4,0.7,0.6,1.1L199.3,255.2z"/>
				<path class="st2" d="M205,260.4c-0.4-0.2-0.7-0.4-1.1-0.7c0,0-2.2,3.8-2.2,3.8c0.4,0.2,0.7,0.4,1.1,0.6L205,260.4z"/>
			</g>
		</g>
		<path class="st3" d="M218.4,249c-0.1-0.3-0.3-0.6-0.5-0.9c-0.2-0.3-0.5-0.5-0.8-0.7c-0.3-0.2-0.6-0.4-1-0.5
			c0.7-0.4,1.1-0.8,1.4-1.4c0.3-0.5,0.4-1.1,0.4-1.8c0-0.4-0.1-0.7-0.2-1.1c-0.1-0.4-0.3-0.7-0.5-1c-0.2-0.3-0.5-0.6-0.9-0.9
			c-0.4-0.3-0.8-0.5-1.3-0.6c-0.4-0.1-0.9-0.2-1.4-0.3v-2.2h-1.5v2.2h-1.7v-2.2h-1.5v2.2h-1.6h-2.2v2.5h2.2v9.8h-2.2v2.5h2.2h1.6
			v2.2h1.5v-2.2h1.1c0.2,0,0.4,0,0.5,0v2.2h1.5v-2.2c0.2,0,0.4,0,0.6-0.1c0.2,0,0.4-0.1,0.6-0.1c0.7-0.2,1.3-0.4,1.8-0.8
			c0.5-0.3,0.9-0.7,1.1-1.1c0.3-0.4,0.5-0.8,0.6-1.2c0.1-0.4,0.2-0.8,0.2-1.2C218.5,249.7,218.5,249.3,218.4,249z M212.2,242.1
			c0.4,0,0.7,0,1,0c0.3,0,0.5,0.1,0.7,0.1c0.5,0.1,0.8,0.4,1,0.7c0.2,0.3,0.3,0.7,0.3,1c0,0.4-0.1,0.7-0.3,1
			c-0.2,0.3-0.5,0.5-0.9,0.7c-0.4,0.1-0.9,0.2-1.6,0.2h-2.4v-3.8H212.2z M215.7,250.8c-0.1,0.2-0.2,0.4-0.3,0.6
			c-0.2,0.2-0.4,0.3-0.6,0.5c-0.2,0.1-0.6,0.2-0.9,0.3c-0.2,0.1-0.5,0.1-0.9,0.1c-0.3,0-0.7,0-1.2,0h-1.8v-4.1h2.6
			c0.4,0,0.8,0,1.1,0c0.3,0,0.5,0.1,0.7,0.1c0.5,0.2,0.8,0.4,1.1,0.7c0.2,0.3,0.3,0.7,0.3,1.1C215.8,250.4,215.7,250.6,215.7,250.8z
			"/>
	</g>
	<g>
		<g>
			
				<ellipse transform="matrix(0.9968 -7.931758e-02 7.931758e-02 0.9968 -15.9501 19.4309)" class="st4" cx="236.6" cy="210.5" rx="19.2" ry="19.2"/>
			
				<ellipse transform="matrix(0.9952 -9.830313e-02 9.830313e-02 0.9952 -19.5458 24.2795)" class="st2" cx="236.6" cy="210.5" rx="14.8" ry="14.8"/>
			<g>
				<path class="st2" d="M236,191.3v4.3c0.2,0,0.4,0,0.6,0c0.2,0,0.4,0,0.6,0c0,0,0-4.4,0-4.4c-0.2,0-0.4,0-0.6,0
					C236.4,191.3,236.2,191.3,236,191.3z"/>
				<path class="st2" d="M219.7,201.5l3.8,2.2c0.2-0.4,0.4-0.7,0.7-1.1c0,0-3.8-2.2-3.8-2.2C220.1,200.7,219.9,201.1,219.7,201.5z"
					/>
				<path class="st2" d="M228.7,198c0.4-0.2,0.7-0.4,1.1-0.6c0,0-2.2-3.8-2.2-3.8c-0.4,0.2-0.7,0.4-1.1,0.6L228.7,198z"/>
				<path class="st2" d="M251.4,209.9c0,0.2,0,0.4,0,0.6c0,0.2,0,0.4,0,0.6c0,0,4.4,0,4.4,0c0-0.2,0-0.4,0-0.6c0-0.2,0-0.4,0-0.6
					L251.4,209.9C251.4,209.9,251.4,209.9,251.4,209.9z"/>
				<path class="st2" d="M252.9,200.4l-3.8,2.2c0.2,0.4,0.4,0.7,0.6,1.1c0,0,3.8-2.2,3.8-2.2C253.3,201.1,253.1,200.7,252.9,200.4z"
					/>
				<path class="st2" d="M243.5,197.3c0.4,0.2,0.7,0.4,1.1,0.7c0,0,2.2-3.8,2.2-3.8c-0.4-0.2-0.7-0.4-1.1-0.6L243.5,197.3z"/>
				<path class="st2" d="M244.6,223c-0.4,0.2-0.7,0.4-1.1,0.6c0,0,2.2,3.8,2.2,3.8c0.4-0.2,0.7-0.4,1.1-0.6L244.6,223z"/>
				<path class="st2" d="M237.3,229.7v-4.3c-0.2,0-0.4,0-0.6,0c-0.2,0-0.4,0-0.6,0c0,0,0,4.4,0,4.4c0.2,0,0.4,0,0.6,0
					C236.8,229.7,237,229.7,237.3,229.7z"/>
				<path class="st2" d="M253.5,219.5l-3.8-2.2c-0.2,0.4-0.4,0.7-0.7,1.1c0,0,3.8,2.2,3.8,2.2C253.1,220.3,253.3,219.9,253.5,219.5z
					"/>
				<path class="st2" d="M217.4,211.1h4.3c0-0.2,0-0.4,0-0.6c0-0.2,0-0.4,0-0.6c0,0-4.4,0-4.4,0c0,0.2,0,0.4,0,0.6
					C217.4,210.7,217.4,210.9,217.4,211.1z"/>
				<path class="st2" d="M224.1,218.5c-0.2-0.4-0.4-0.7-0.6-1.1c0,0-3.8,2.2-3.8,2.2c0.2,0.4,0.4,0.7,0.6,1.1L224.1,218.5z"/>
				<path class="st2" d="M229.8,223.6c-0.4-0.2-0.7-0.4-1.1-0.7c0,0-2.2,3.8-2.2,3.8c0.4,0.2,0.7,0.4,1.1,0.6L229.8,223.6z"/>
			</g>
		</g>
		<path class="st3" d="M243.2,212.3c-0.1-0.3-0.3-0.6-0.5-0.9c-0.2-0.3-0.5-0.5-0.8-0.7c-0.3-0.2-0.6-0.4-1-0.5
			c0.7-0.4,1.1-0.8,1.4-1.4s0.4-1.1,0.4-1.8c0-0.4-0.1-0.7-0.2-1.1c-0.1-0.4-0.3-0.7-0.5-1c-0.2-0.3-0.5-0.6-0.9-0.9
			c-0.4-0.3-0.8-0.5-1.3-0.6c-0.4-0.1-0.9-0.2-1.4-0.3V201h-1.5v2.2h-1.7V201h-1.5v2.2h-1.6h-2.2v2.5h2.2v9.8h-2.2v2.5h2.2h1.6v2.2
			h1.5v-2.2h1.1c0.2,0,0.4,0,0.5,0v2.2h1.5v-2.2c0.2,0,0.4,0,0.6-0.1c0.2,0,0.4-0.1,0.6-0.1c0.7-0.2,1.3-0.4,1.8-0.8
			c0.5-0.3,0.9-0.7,1.1-1.1c0.3-0.4,0.5-0.8,0.6-1.2c0.1-0.4,0.2-0.8,0.2-1.2C243.3,213,243.3,212.6,243.2,212.3z M237,205.4
			c0.4,0,0.7,0,1,0c0.3,0,0.5,0.1,0.7,0.1c0.5,0.1,0.8,0.4,1,0.7c0.2,0.3,0.3,0.7,0.3,1c0,0.4-0.1,0.7-0.3,1
			c-0.2,0.3-0.5,0.5-0.9,0.7c-0.4,0.1-0.9,0.2-1.6,0.2h-2.4v-3.8H237z M240.5,214.1c-0.1,0.2-0.2,0.4-0.3,0.6
			c-0.2,0.2-0.4,0.3-0.6,0.5c-0.2,0.1-0.6,0.2-0.9,0.3c-0.2,0.1-0.5,0.1-0.9,0.1c-0.3,0-0.7,0-1.2,0h-1.8v-4.1h2.6
			c0.4,0,0.8,0,1.1,0c0.3,0,0.5,0.1,0.7,0.1c0.5,0.2,0.8,0.4,1.1,0.7c0.2,0.3,0.3,0.7,0.3,1.1C240.6,213.6,240.5,213.9,240.5,214.1z
			"/>
	</g>
</g>
<path class="st10" d="M219,158.4c-1.4,0-2.4,0.5-3.2,1.4c-0.9,1.2-1.4,3.1-1.4,5.7c0,2.7,0.4,4.6,1.3,5.6c0.8,1.1,1.9,1.6,3.3,1.6
	c1.4,0,2.4-0.5,3.2-1.4c0.9-1.2,1.4-3.1,1.4-5.8c0-2.7-0.5-4.6-1.4-5.8C221.4,158.8,220.4,158.4,219,158.4z M220.5,169.1
	c-0.1,0.5-0.3,0.9-0.6,1.1c-0.3,0.2-0.5,0.3-0.9,0.3c-0.3,0-0.6-0.1-0.9-0.3c-0.3-0.2-0.5-0.6-0.6-1.2s-0.3-1.8-0.3-3.4
	c0-1.7,0.1-2.8,0.3-3.5c0.1-0.5,0.3-0.9,0.6-1.1c0.3-0.2,0.5-0.3,0.9-0.3c0.3,0,0.6,0.1,0.9,0.3c0.3,0.2,0.5,0.6,0.6,1.2
	c0.2,0.6,0.3,1.8,0.3,3.4C220.7,167.2,220.7,168.4,220.5,169.1z"/>
<path class="st10" d="M236.2,172.5h2.7v-14.2h-2.2c-0.3,0.9-0.9,1.6-1.7,2.3s-1.6,1.1-2.3,1.3v2.5c1.3-0.4,2.5-1.1,3.5-2.1V172.5z"
	/>
<path class="st10" d="M173.1,157.9c-1.4,0-2.4,0.5-3.2,1.4c-0.9,1.2-1.4,3.1-1.4,5.7c0,2.7,0.4,4.6,1.3,5.6c0.8,1.1,1.9,1.6,3.3,1.6
	c1.4,0,2.4-0.5,3.2-1.4c0.9-1.2,1.4-3.1,1.4-5.8c0-2.7-0.5-4.6-1.4-5.8C175.5,158.4,174.5,157.9,173.1,157.9z M174.6,168.7
	c-0.1,0.5-0.3,0.9-0.6,1.1c-0.3,0.2-0.5,0.3-0.9,0.3c-0.3,0-0.6-0.1-0.9-0.3c-0.3-0.2-0.5-0.6-0.6-1.2c-0.2-0.6-0.3-1.8-0.3-3.4
	c0-1.7,0.1-2.8,0.3-3.5c0.1-0.5,0.3-0.9,0.6-1.1c0.3-0.2,0.5-0.3,0.9-0.3c0.3,0,0.6,0.1,0.9,0.3c0.3,0.2,0.5,0.6,0.6,1.2
	c0.2,0.6,0.3,1.8,0.3,3.4C174.9,166.8,174.8,168,174.6,168.7z"/>
<path class="st10" d="M252.5,172.2h2.7V158H253c-0.3,0.9-0.9,1.6-1.7,2.3c-0.8,0.6-1.6,1.1-2.3,1.3v2.5c1.3-0.4,2.5-1.1,3.5-2.1
	V172.2z"/>
<path class="st10" d="M268,158.4c-1.4,0-2.4,0.5-3.2,1.4c-0.9,1.2-1.4,3.1-1.4,5.7c0,2.7,0.4,4.6,1.3,5.6c0.8,1.1,1.9,1.6,3.3,1.6
	c1.4,0,2.4-0.5,3.2-1.4c0.9-1.2,1.4-3.1,1.4-5.8c0-2.7-0.5-4.6-1.4-5.8C270.5,158.8,269.4,158.4,268,158.4z M269.5,169.1
	c-0.1,0.5-0.3,0.9-0.6,1.1c-0.3,0.2-0.5,0.3-0.9,0.3s-0.6-0.1-0.9-0.3c-0.3-0.2-0.5-0.6-0.6-1.2c-0.2-0.6-0.3-1.8-0.3-3.4
	c0-1.7,0.1-2.8,0.3-3.5c0.1-0.5,0.3-0.9,0.6-1.1c0.3-0.2,0.5-0.3,0.9-0.3s0.6,0.1,0.9,0.3c0.3,0.2,0.5,0.6,0.6,1.2
	c0.2,0.6,0.3,1.8,0.3,3.4C269.8,167.2,269.7,168.4,269.5,169.1z"/>
<path class="st10" d="M183.8,164.1c1.3-0.4,2.5-1.1,3.5-2.1v10.2h2.7V158h-2.2c-0.3,0.9-0.9,1.6-1.7,2.3c-0.8,0.6-1.6,1.1-2.3,1.3
	V164.1z"/>
<path class="st10" d="M400,158.3v-14.2h-2.2c-0.3,0.9-0.9,1.6-1.7,2.3c-0.8,0.6-1.6,1.1-2.3,1.3v2.5c1.3-0.4,2.5-1.1,3.5-2.1v10.2
	H400z"/>
<path class="st10" d="M77.5,167.2c1.3-0.4,2.5-1.1,3.5-2.1v10.2h2.7v-14.2h-2.2c-0.3,0.9-0.9,1.6-1.7,2.3c-0.8,0.6-1.6,1.1-2.3,1.3
	V167.2z"/>
<path class="st10" d="M93.4,167.2c1.3-0.4,2.5-1.1,3.5-2.1v10.2h2.7v-14.2h-2.2c-0.3,0.9-0.9,1.6-1.7,2.3s-1.6,1.1-2.3,1.3V167.2z"
	/>
<path class="st10" d="M282.3,232.3c-1.4,0-2.4,0.5-3.2,1.4c-0.9,1.2-1.4,3.1-1.4,5.7c0,2.7,0.4,4.6,1.3,5.6c0.8,1.1,1.9,1.6,3.3,1.6
	c1.4,0,2.4-0.5,3.2-1.4c0.9-1.2,1.4-3.1,1.4-5.8c0-2.7-0.5-4.6-1.4-5.8C284.7,232.8,283.7,232.3,282.3,232.3z M283.8,243
	c-0.1,0.5-0.3,0.9-0.6,1.1c-0.3,0.2-0.5,0.3-0.9,0.3c-0.3,0-0.6-0.1-0.9-0.3c-0.3-0.2-0.5-0.6-0.6-1.2c-0.2-0.6-0.3-1.8-0.3-3.4
	c0-1.7,0.1-2.8,0.3-3.5c0.1-0.5,0.3-0.9,0.6-1.1c0.3-0.2,0.5-0.3,0.9-0.3c0.3,0,0.6,0.1,0.9,0.3c0.3,0.2,0.5,0.6,0.6,1.2
	c0.2,0.6,0.3,1.8,0.3,3.4C284,241.2,284,242.3,283.8,243z"/>
<path class="st10" d="M302.2,246.5v-14.2H300c-0.3,0.9-0.9,1.6-1.7,2.3c-0.8,0.6-1.6,1.1-2.3,1.3v2.5c1.3-0.4,2.5-1.1,3.5-2.1v10.2
	H302.2z"/>
<path class="st10" d="M316.2,246.5h2.7v-14.2h-2.2c-0.3,0.9-0.9,1.6-1.7,2.3c-0.8,0.6-1.6,1.1-2.3,1.3v2.5c1.3-0.4,2.5-1.1,3.5-2.1
	V246.5z"/>
<path class="st10" d="M335.7,246.5v-14.2h-2.2c-0.3,0.9-0.9,1.6-1.7,2.3c-0.8,0.6-1.6,1.1-2.3,1.3v2.5c1.3-0.4,2.5-1.1,3.5-2.1v10.2
	H335.7z"/>
<path class="st10" d="M201.8,199.7c-1.4,0-2.4,0.5-3.2,1.4c-0.9,1.2-1.4,3.1-1.4,5.7c0,2.7,0.4,4.6,1.3,5.6c0.8,1.1,1.9,1.6,3.3,1.6
	c1.4,0,2.4-0.5,3.2-1.4c0.9-1.2,1.4-3.1,1.4-5.8c0-2.7-0.5-4.6-1.4-5.8C204.2,200.2,203.1,199.7,201.8,199.7z M203.2,210.4
	c-0.1,0.5-0.3,0.9-0.6,1.1c-0.3,0.2-0.5,0.3-0.9,0.3c-0.3,0-0.6-0.1-0.9-0.3c-0.3-0.2-0.5-0.6-0.6-1.2c-0.2-0.6-0.3-1.8-0.3-3.4
	c0-1.7,0.1-2.8,0.3-3.5c0.1-0.5,0.3-0.9,0.6-1.1c0.3-0.2,0.5-0.3,0.9-0.3c0.3,0,0.6,0.1,0.9,0.3c0.3,0.2,0.5,0.6,0.6,1.2
	c0.2,0.6,0.3,1.8,0.3,3.4C203.5,208.5,203.4,209.7,203.2,210.4z"/>
<path class="st10" d="M114.9,290.9c1.3-0.4,2.5-1.1,3.5-2.1v10.2h2.7v-14.2h-2.2c-0.3,0.9-0.9,1.6-1.7,2.3c-0.8,0.6-1.6,1.1-2.3,1.3
	V290.9z"/>
<path class="st10" d="M80.6,178.8c-1.4,0-2.4,0.5-3.2,1.4c-0.9,1.2-1.4,3.1-1.4,5.7c0,2.7,0.4,4.6,1.3,5.6c0.8,1.1,1.9,1.6,3.3,1.6
	c1.4,0,2.4-0.5,3.2-1.4c0.9-1.2,1.4-3.1,1.4-5.8c0-2.7-0.5-4.6-1.4-5.8C83,179.3,81.9,178.8,80.6,178.8z M82,189.6
	c-0.1,0.5-0.3,0.9-0.6,1.1c-0.3,0.2-0.5,0.3-0.9,0.3c-0.3,0-0.6-0.1-0.9-0.3c-0.3-0.2-0.5-0.6-0.6-1.2c-0.2-0.6-0.3-1.8-0.3-3.4
	c0-1.7,0.1-2.8,0.3-3.5c0.1-0.5,0.3-0.9,0.6-1.1c0.3-0.2,0.5-0.3,0.9-0.3c0.3,0,0.6,0.1,0.9,0.3c0.3,0.2,0.5,0.6,0.6,1.2
	c0.2,0.6,0.3,1.8,0.3,3.4C82.3,187.7,82.2,188.9,82,189.6z"/>
<path class="st10" d="M184.2,178.3c-0.8,0.6-1.6,1.1-2.3,1.3v2.5c1.3-0.4,2.5-1.1,3.5-2.1v10.2h2.7v-14.2h-2.2
	C185.6,176.9,185,177.7,184.2,178.3z"/>
<path class="st10" d="M201.8,176.1c-1.4,0-2.4,0.5-3.2,1.4c-0.9,1.2-1.4,3.1-1.4,5.7c0,2.7,0.4,4.6,1.3,5.6c0.8,1.1,1.9,1.6,3.3,1.6
	c1.4,0,2.4-0.5,3.2-1.4c0.9-1.2,1.4-3.1,1.4-5.8c0-2.7-0.5-4.6-1.4-5.8C204.2,176.6,203.1,176.1,201.8,176.1z M203.2,186.8
	c-0.1,0.5-0.3,0.9-0.6,1.1c-0.3,0.2-0.5,0.3-0.9,0.3c-0.3,0-0.6-0.1-0.9-0.3c-0.3-0.2-0.5-0.6-0.6-1.2c-0.2-0.6-0.3-1.8-0.3-3.4
	c0-1.7,0.1-2.8,0.3-3.5c0.1-0.5,0.3-0.9,0.6-1.1c0.3-0.2,0.5-0.3,0.9-0.3c0.3,0,0.6,0.1,0.9,0.3c0.3,0.2,0.5,0.6,0.6,1.2
	c0.2,0.6,0.3,1.8,0.3,3.4C203.5,184.9,203.4,186.1,203.2,186.8z"/>
<path class="st10" d="M218.5,176.1c-1.4,0-2.4,0.5-3.2,1.4c-0.9,1.2-1.4,3.1-1.4,5.7c0,2.7,0.4,4.6,1.3,5.6c0.8,1.1,1.9,1.6,3.3,1.6
	c1.4,0,2.4-0.5,3.2-1.4c0.9-1.2,1.4-3.1,1.4-5.8c0-2.7-0.5-4.6-1.4-5.8C221,176.6,219.9,176.1,218.5,176.1z M220,186.8
	c-0.1,0.5-0.3,0.9-0.6,1.1c-0.3,0.2-0.5,0.3-0.9,0.3c-0.3,0-0.6-0.1-0.9-0.3c-0.3-0.2-0.5-0.6-0.6-1.2s-0.3-1.8-0.3-3.4
	c0-1.7,0.1-2.8,0.3-3.5c0.1-0.5,0.3-0.9,0.6-1.1c0.3-0.2,0.5-0.3,0.9-0.3c0.3,0,0.6,0.1,0.9,0.3c0.3,0.2,0.5,0.6,0.6,1.2
	c0.2,0.6,0.3,1.8,0.3,3.4C220.3,184.9,220.2,186.1,220,186.8z"/>
<path class="st10" d="M235.3,176.1c-1.4,0-2.4,0.5-3.2,1.4c-0.9,1.2-1.4,3.1-1.4,5.7c0,2.7,0.4,4.6,1.3,5.6c0.8,1.1,1.9,1.6,3.3,1.6
	c1.4,0,2.4-0.5,3.2-1.4c0.9-1.2,1.4-3.1,1.4-5.8c0-2.7-0.5-4.6-1.4-5.8C237.7,176.6,236.7,176.1,235.3,176.1z M236.8,186.8
	c-0.1,0.5-0.3,0.9-0.6,1.1s-0.5,0.3-0.9,0.3c-0.3,0-0.6-0.1-0.9-0.3c-0.3-0.2-0.5-0.6-0.6-1.2c-0.2-0.6-0.3-1.8-0.3-3.4
	c0-1.7,0.1-2.8,0.3-3.5c0.1-0.5,0.3-0.9,0.6-1.1c0.3-0.2,0.5-0.3,0.9-0.3c0.3,0,0.6,0.1,0.9,0.3c0.3,0.2,0.5,0.6,0.6,1.2
	s0.3,1.8,0.3,3.4C237.1,184.9,237,186.1,236.8,186.8z"/>
<path class="st10" d="M255.2,190.2v-14.2H253c-0.3,0.9-0.9,1.6-1.7,2.3c-0.8,0.6-1.6,1.1-2.3,1.3v2.5c1.3-0.4,2.5-1.1,3.5-2.1v10.2
	H255.2z"/>
<path class="st10" d="M118,302.6c-1.4,0-2.4,0.5-3.2,1.4c-0.9,1.2-1.4,3.1-1.4,5.7c0,2.7,0.4,4.6,1.3,5.6c0.8,1.1,1.9,1.6,3.3,1.6
	c1.4,0,2.4-0.5,3.2-1.4c0.9-1.2,1.4-3.1,1.4-5.8c0-2.7-0.5-4.6-1.4-5.8C120.4,303,119.4,302.6,118,302.6z M119.5,313.3
	c-0.1,0.5-0.3,0.9-0.6,1.1c-0.3,0.2-0.5,0.3-0.9,0.3c-0.3,0-0.6-0.1-0.9-0.3c-0.3-0.2-0.5-0.6-0.6-1.2c-0.2-0.6-0.3-1.8-0.3-3.4
	c0-1.7,0.1-2.8,0.3-3.5c0.1-0.5,0.3-0.9,0.6-1.1c0.3-0.2,0.5-0.3,0.9-0.3c0.3,0,0.6,0.1,0.9,0.3c0.3,0.2,0.5,0.6,0.6,1.2
	c0.2,0.6,0.3,1.8,0.3,3.4C119.7,311.4,119.6,312.6,119.5,313.3z"/>
<path class="st10" d="M66,161c-1.4,0-2.4,0.5-3.2,1.4c-0.9,1.2-1.4,3.1-1.4,5.7c0,2.7,0.4,4.6,1.3,5.6c0.8,1.1,1.9,1.6,3.3,1.6
	c1.4,0,2.4-0.5,3.2-1.4c0.9-1.2,1.4-3.1,1.4-5.8c0-2.7-0.5-4.6-1.4-5.8C68.4,161.5,67.3,161,66,161z M67.4,171.8
	c-0.1,0.5-0.3,0.9-0.6,1.1c-0.3,0.2-0.5,0.3-0.9,0.3s-0.6-0.1-0.9-0.3c-0.3-0.2-0.5-0.6-0.6-1.2c-0.2-0.6-0.3-1.8-0.3-3.4
	c0-1.7,0.1-2.8,0.3-3.5c0.1-0.5,0.3-0.9,0.6-1.1c0.3-0.2,0.5-0.3,0.9-0.3s0.6,0.1,0.9,0.3c0.3,0.2,0.5,0.6,0.6,1.2
	c0.2,0.6,0.3,1.8,0.3,3.4C67.7,169.9,67.6,171.1,67.4,171.8z"/>
<path class="st10" d="M101.3,246.8c-0.8,0.6-1.6,1.1-2.3,1.3v2.5c1.3-0.4,2.5-1.1,3.5-2.1v10.2h2.7v-14.2H103
	C102.7,245.4,102.1,246.2,101.3,246.8z"/>
<path class="st10" d="M118,244.6c-1.4,0-2.4,0.5-3.2,1.4c-0.9,1.2-1.4,3.1-1.4,5.7c0,2.7,0.4,4.6,1.3,5.6s1.9,1.6,3.3,1.6
	c1.4,0,2.4-0.5,3.2-1.4c0.9-1.2,1.4-3.1,1.4-5.8c0-2.7-0.5-4.6-1.4-5.8C120.4,245.1,119.4,244.6,118,244.6z M119.5,255.3
	c-0.1,0.5-0.3,0.9-0.6,1.1c-0.3,0.2-0.5,0.3-0.9,0.3c-0.3,0-0.6-0.1-0.9-0.3c-0.3-0.2-0.5-0.6-0.6-1.2c-0.2-0.6-0.3-1.8-0.3-3.4
	c0-1.7,0.1-2.8,0.3-3.5c0.1-0.5,0.3-0.9,0.6-1.1c0.3-0.2,0.5-0.3,0.9-0.3c0.3,0,0.6,0.1,0.9,0.3c0.3,0.2,0.5,0.6,0.6,1.2
	s0.3,1.8,0.3,3.4C119.7,253.4,119.6,254.6,119.5,255.3z"/>
<path class="st10" d="M118,262.2c-1.4,0-2.4,0.5-3.2,1.4c-0.9,1.2-1.4,3.1-1.4,5.7c0,2.7,0.4,4.6,1.3,5.6s1.9,1.6,3.3,1.6
	c1.4,0,2.4-0.5,3.2-1.4c0.9-1.2,1.4-3.1,1.4-5.8c0-2.7-0.5-4.6-1.4-5.8C120.4,262.7,119.4,262.2,118,262.2z M119.5,273
	c-0.1,0.5-0.3,0.9-0.6,1.1c-0.3,0.2-0.5,0.3-0.9,0.3c-0.3,0-0.6-0.1-0.9-0.3c-0.3-0.2-0.5-0.6-0.6-1.2c-0.2-0.6-0.3-1.8-0.3-3.4
	c0-1.7,0.1-2.8,0.3-3.5c0.1-0.5,0.3-0.9,0.6-1.1c0.3-0.2,0.5-0.3,0.9-0.3c0.3,0,0.6,0.1,0.9,0.3c0.3,0.2,0.5,0.6,0.6,1.2
	c0.2,0.6,0.3,1.8,0.3,3.4C119.7,271.1,119.6,272.3,119.5,273z"/>
<path class="st10" d="M364.7,142.8c-1.4,0-2.4,0.5-3.2,1.4c-0.9,1.2-1.4,3.1-1.4,5.7c0,2.7,0.4,4.6,1.3,5.6c0.8,1.1,1.9,1.6,3.3,1.6
	c1.4,0,2.4-0.5,3.2-1.4c0.9-1.2,1.4-3.1,1.4-5.8c0-2.7-0.5-4.6-1.4-5.8C367.1,143.3,366,142.8,364.7,142.8z M366.1,153.6
	c-0.1,0.5-0.3,0.9-0.6,1.1c-0.3,0.2-0.5,0.3-0.9,0.3c-0.3,0-0.6-0.1-0.9-0.3c-0.3-0.2-0.5-0.6-0.6-1.2c-0.2-0.6-0.3-1.8-0.3-3.4
	c0-1.7,0.1-2.8,0.3-3.5c0.1-0.5,0.3-0.9,0.6-1.1c0.3-0.2,0.5-0.3,0.9-0.3c0.3,0,0.6,0.1,0.9,0.3c0.3,0.2,0.5,0.6,0.6,1.2
	c0.2,0.6,0.3,1.8,0.3,3.4C366.4,151.7,366.3,152.9,366.1,153.6z"/>
<path class="st10" d="M382.3,142.8c-1.4,0-2.4,0.5-3.2,1.4c-0.9,1.2-1.4,3.1-1.4,5.7c0,2.7,0.4,4.6,1.3,5.6c0.8,1.1,1.9,1.6,3.3,1.6
	c1.4,0,2.4-0.5,3.2-1.4c0.9-1.2,1.4-3.1,1.4-5.8c0-2.7-0.5-4.6-1.4-5.8C384.7,143.3,383.7,142.8,382.3,142.8z M383.8,153.6
	c-0.1,0.5-0.3,0.9-0.6,1.1c-0.3,0.2-0.5,0.3-0.9,0.3c-0.3,0-0.6-0.1-0.9-0.3c-0.3-0.2-0.5-0.6-0.6-1.2c-0.2-0.6-0.3-1.8-0.3-3.4
	c0-1.7,0.1-2.8,0.3-3.5c0.1-0.5,0.3-0.9,0.6-1.1c0.3-0.2,0.5-0.3,0.9-0.3c0.3,0,0.6,0.1,0.9,0.3c0.3,0.2,0.5,0.6,0.6,1.2
	s0.3,1.8,0.3,3.4C384.1,151.7,384,152.9,383.8,153.6z"/>
</svg>
