<?xml version="1.0" encoding="utf-8"?>
<svg xmlns="http://www.w3.org/2000/svg" xmlns:xlink="http://www.w3.org/1999/xlink" version= "1.1" width="1140px" height="1141px" viewBox="-210 143 1140 1141">
<g id="layer1">
<g style="fill:rgb(255,255,255); fill-opacity:1.0; stroke-linejoin: miter">
<path d="M-210.001,141.994C-210.26755,141.994,-210.52318,142.09987,-210.71165,142.28835C-210.90013,142.47682,-211.006,142.73245,-211.006,142.999L-211.00499,1284.0C-211.00499,1284.555,-210.55504,1285.005,-210.0,1285.005L930.001,1285.006C930.2675,1285.006,930.52313,1284.9001,930.7116,1284.7117C930.9001,1284.5232,931.006,1284.2676,931.006,1284.001L931.005,143.0C931.005,142.44496,930.55505,141.99501,930.0,141.99501L-210.001,141.994 Z"/>
</g>
<g>
<g style="fill:rgb(0,0,0); fill-opacity:1.0; stroke-linejoin: miter">
<path d="M265.54794,596.5073C265.72247,596.5127,265.8982,596.55835,266.0612,596.6478C268.88232,598.1935,271.8651,599.822,274.81433,603.5981C277.56952,607.12537,280.28867,612.5294,282.93958,617.8718L307.22003,614.14215C307.28973,614.1317,307.35968,614.1274,307.42902,614.1296C307.6775,614.1372,307.9186,614.22614,308.11456,614.385C316.52676,621.21924,324.73248,627.86676,334.5239,630.86774C339.24954,632.31616,344.3647,632.92175,349.71222,633.0876C355.46423,633.26575,361.48526,632.9349,367.57953,632.5967C367.61267,632.595,367.64566,632.59454,367.67856,632.5956C368.09546,632.6084,368.4759,632.84845,368.66504,633.22626C368.8691,633.6336,368.8117,634.12354,368.51886,634.4726L316.528,696.4762C316.30173,696.7463,315.9652,696.8953,315.61707,696.88464C315.58234,696.88354,315.54742,696.8805,315.51245,696.87634C312.8742,696.55237,310.28052,696.2354,307.5833,696.15173C305.0285,696.07263,302.38092,696.2026,299.51483,696.7345C293.57062,697.83734,286.65045,700.67084,279.57532,703.57355C279.42526,703.6351,279.26514,703.6635,279.1059,703.65857C278.97424,703.65454,278.84302,703.62756,278.71832,703.578C262.99918,697.3167,247.21179,691.02905,237.0707,686.03253C226.87009,681.0065,222.3502,677.2714,217.87111,673.56744C217.42947,673.20197,217.3265,672.56616,217.63026,672.0801L264.54242,597.0442C264.7651,596.68787,265.15356,596.4951,265.54794,596.5073 Z M441.22165,379.0992C442.51224,380.0452,444.3954,381.31955,446.8151,382.8791C450.2177,385.0718,454.46295,387.70142,459.07422,390.5582C464.51468,393.92853,470.4573,397.60974,476.0879,401.23813C478.75043,402.95386,481.34586,404.65964,483.78717,406.3161C501.63574,418.42783,511.1767,427.8699,520.56384,437.23392L520.56976,437.23743C520.6866,437.26587,520.80023,437.31708,520.9061,437.38846C521.43005,437.74078,521.5692,438.45132,521.2168,438.97507L511.99997,452.68057L513.81537,454.78882C514.1777,455.20963,514.18524,455.83008,513.83307,456.25955L438.57053,548.06433C438.34076,548.34454,437.99844,548.49316,437.6508,548.4824C437.52213,548.4785,437.39264,548.45276,437.26797,548.4035L437.26767,548.4068C435.1312,547.56384,433.1701,546.8009,431.3407,546.57153L431.3407,546.57495C431.06635,546.53723,430.7963,546.51495,430.5305,546.5067C428.8023,546.4532,427.2562,546.9939,425.85733,548.65875C422.5644,552.57776,420.16907,562.35974,417.68283,572.68585L417.68262,572.68915L417.66525,572.7582C417.5852,573.09064,417.3607,573.3699,417.05307,573.5192C403.84146,579.9321,390.49377,586.41614,378.18307,589.6609C366.38873,592.7691,355.58124,592.89685,344.9508,592.89636L344.95508,592.8998C344.75275,593.0322,344.51746,593.0959,344.28433,593.0886C344.07355,593.08215,343.8646,593.0178,343.68338,592.8962L343.67892,592.89923C343.6076,592.8959,343.5362,592.896,343.46487,592.8959C343.45297,592.8959,343.44113,592.89575,343.42935,592.8954C342.81436,592.87634,342.32187,592.3715,342.3222,591.75214C342.3224,591.6725,342.33044,591.59436,342.3461,591.519L342.35037,591.52277C327.6369,575.8567,313.05713,560.31226,305.4308,551.1682C301.5537,546.5193,299.466,543.5166,297.77118,541.0785C296.60428,539.39966,295.64764,538.0246,294.42114,536.55396L294.42093,536.55756C293.82324,535.8373,293.1593,535.0956,292.375,534.28625C287.60236,529.3634,278.48486,522.05273,269.26587,514.66345C268.77313,514.26855,268.6939,513.5491,269.0888,513.0565C269.20978,512.9053,269.3612,512.7935,269.5274,512.7218L269.53085,512.72516L271.35687,507.08328C271.51532,506.5942,271.97723,506.27728,272.47876,506.29288C272.531,506.29446,272.58374,506.29956,272.63654,506.30875C274.0987,506.5576,275.35837,506.75034,276.41873,506.78323C278.3003,506.84152,279.55444,506.39725,280.19913,504.8761C281.47772,501.85956,280.73462,494.90628,279.8802,487.3383C279.8374,486.95923,279.98645,486.58398,280.27756,486.33777C280.49585,486.15298,280.77246,486.05884,281.05176,486.06754C281.145,486.0704,281.2386,486.08466,281.33044,486.11087C287.17264,487.78064,292.90973,489.41788,300.70477,489.82727C301.1868,489.85275,301.66925,489.87286,302.15112,489.8877C310.10797,490.1344,317.82422,488.94254,318.66504,485.53098C319.64734,481.54498,312.72668,473.53522,304.7154,464.52063C304.43475,464.20514,304.3512,463.76025,304.49792,463.3641C308.53464,452.4679,312.42432,441.90207,311.03006,431.12238C309.64056,420.38004,302.95587,409.24225,291.10004,399.40308C288.55328,397.28943,285.77167,395.23926,282.836,393.35007C274.09564,387.72574,264.1231,383.61203,254.92795,383.32706C252.7877,383.26068,250.68967,383.40158,248.65895,383.77957C234.92819,386.33307,223.84799,399.72818,212.39505,413.68625L212.39494,413.68958L212.3563,413.7336C212.22998,413.88727,212.06602,414.00555,211.88026,414.07654C207.55772,415.7272,204.15929,417.12625,203.30797,419.417C202.43875,421.75668,204.0277,425.44058,206.0611,429.89664C206.20985,430.22305,206.19704,430.60037,206.02632,430.91577C202.62271,437.2029,199.36388,443.25394,199.01921,451.13684C198.90256,453.8046,199.11906,456.70856,199.49438,459.6329C199.89984,462.7941,200.48503,465.93976,201.01817,468.8043C201.45178,471.1337,201.85458,473.29547,202.08447,475.08685C202.8754,481.25293,201.6271,483.19382,200.2958,485.0754C200.27797,485.10086,200.25906,485.12534,200.2393,485.149L192.99142,493.81155C192.75703,494.09167,192.41708,494.2313,192.07843,494.22076C191.99164,494.21808,191.9051,494.20547,191.82047,494.18307L191.8176,494.18628L180.90694,496.62003C180.83086,496.63712,180.75317,496.6462,180.67517,496.64752C174.88791,496.73532,169.20941,496.82428,162.67233,498.21735C156.86789,499.4541,150.36719,501.72223,143.71461,504.13757L143.71689,504.14102C143.85086,504.57263,143.71579,505.0641,143.33908,505.36603C143.26805,505.42288,143.19705,505.47983,143.12607,505.5368L143.12827,505.54025C143.08282,505.6717,143.01129,505.7997,142.9132,505.91434C142.71472,506.14636,142.44357,506.2789,142.16216,506.30765L142.16446,506.3112C129.38423,516.5613,116.9287,526.8645,108.7392,543.6446C100.26283,561.0129,96.321655,585.37,92.350845,609.9785C92.32294,610.1513,92.25564,610.3157,92.15418,610.4585C88.50875,615.5884,84.90902,620.65576,82.53079,624.7308C80.17225,628.7723,79.014885,631.8402,77.83339,634.9747C77.795815,635.07446,77.745804,635.1658,77.685745,635.2476L77.687325,635.25116C75.33234,640.548,73.12585,645.6042,72.8299,650.4312C72.53171,655.2957,74.17142,660.0211,75.92308,665.0105L75.92295,665.0138L75.93035,665.0309C76.13446,665.6125,75.841576,666.2506,75.268005,666.47473C73.6818,667.09503,71.77496,667.8592,70.320984,667.88257C70.255875,667.88354,70.18971,667.88336,70.12286,667.8813C69.396996,667.8587,68.58582,667.63837,68.02479,666.9153L68.02469,666.9187C67.132545,665.7655,67.30148,663.52386,67.69773,661.2981L67.696045,661.3014C66.45131,662.38794,65.677475,663.3644,65.61441,664.3928C65.51045,666.0884,67.22882,668.3555,69.51994,671.2189C69.687416,671.4282,69.77601,671.6897,69.770294,671.95764L69.59082,680.30615C69.58044,680.7923,69.26336,681.2186,68.80069,681.3686L56.143127,685.4752L42.373264,736.5909L55.674187,749.882C55.76129,749.86365,55.851273,749.85565,55.942642,749.8584C56.015358,749.86066,56.088932,749.8698,56.162518,749.8865C56.778145,750.0272,57.163383,750.6399,57.02294,751.2555C57.02235,751.2581,57.02165,751.2613,57.021046,751.264L57.022446,751.2673C57.311523,751.7072,57.261677,752.3066,56.872856,752.6956C56.805557,752.76306,56.731903,752.8204,56.653908,752.8671L56.655304,752.8706C50.369324,780.4319,44.099968,807.9871,38.487167,835.9733C36.758995,844.5906,35.097824,853.22363,33.381023,862.1452C29.412395,882.7697,25.174072,904.79535,19.2841,930.8909C17.227829,940.0013,14.964993,949.63007,12.672726,959.38354C5.558552,989.65466,-1.8775635,1021.30255,-4.740135,1044.1814C-8.49691,1074.2074,-4.367958,1089.0735,-0.18949127,1103.9625L-0.18852234,1103.966C-0.17675018,1103.999,-0.16695404,1104.0367,-0.15901947,1104.075L-0.1580658,1104.0784C-0.15094757,1104.1001,-0.14394379,1104.125,-0.13690186,1104.1499C-0.049545288,1104.4613,-0.09983063,1104.7786,-0.2513733,1105.037L-0.250412,1105.0405C-1.6325607,1112.5742,-2.9690018,1120.0188,-3.1553345,1127.6132C-3.3461761,1135.3925,-2.3256302,1142.7167,7.049156,1146.2631C10.714382,1147.6495,15.6705475,1148.4705,20.80257,1148.6295C24.07272,1148.7308,27.414227,1148.5636,30.538616,1148.1023C35.570267,1147.3595,39.830154,1145.8838,42.320984,1143.7286C47.329636,1139.3945,45.734306,1131.6746,43.41041,1124.335C43.10932,1123.3839,42.80278,1122.4569,42.5056,1121.559C42.23233,1120.7327,41.96547,1119.9259,41.723846,1119.1631C39.401318,1111.8271,39.316605,1108.2283,39.382412,1104.8983L39.383778,1104.9019C38.62632,1103.1575,38.273872,1101.0387,41.088142,1098.3542C41.896965,1097.5828,42.975883,1096.7549,44.07303,1095.9111C47.194138,1093.5105,50.403,1090.9711,51.071083,1088.1415L51.07109,1088.1414C51.395653,1086.767,51.13323,1085.1897,50.461784,1083.3467C49.91282,1081.8398,49.130997,1080.259,48.29315,1078.5675C47.42762,1076.8206,46.50611,1074.9631,45.819603,1073.0787C43.653618,1067.133,43.864716,1061.0662,46.019325,1054.4683C48.1557,1047.9269,52.22845,1040.8011,56.21592,1033.8146C56.23155,1033.7874,56.24827,1033.761,56.266045,1033.7349C65.34956,1020.4913,74.36613,1007.3405,80.43512,994.85516C86.48679,982.40485,89.62071,970.58435,93.03613,954.577C96.45192,938.5682,100.13302,918.45435,103.81794,898.31903L103.81833,898.31714L103.81946,898.31055C103.84358,898.17896,103.89168,898.05066,103.9612,897.93384C114.83164,879.659,125.718994,861.3552,133.8624,848.6756C141.7598,836.3786,147.08092,829.36383,152.30707,822.5338L152.30948,822.5372L151.91086,820.94934C151.75676,820.3369,152.12833,819.7158,152.74059,819.56146C152.84607,819.53503,152.95175,819.5242,153.05536,819.52747C153.553,819.5428,154.00069,819.88446,154.12823,820.3915L154.45145,821.6764L154.45386,821.67975C154.85063,822.0026,154.97348,822.5448,154.78226,823.00085L154.7846,823.00433L199.67323,1001.42L199.68272,1001.4605L219.7533,1095.5858C219.76216,1095.6282,219.76894,1095.6711,219.77303,1095.7141C220.33398,1101.5039,220.88654,1106.5638,226.19283,1109.5625C231.80965,1112.7368,242.7121,1113.6917,254.07454,1114.6582C254.24857,1114.6729,254.41693,1114.7278,254.56656,1114.8176C269.63507,1123.8748,284.28598,1132.633,297.2504,1133.0349C298.17636,1133.0637,299.0937,1133.0498,300.00214,1132.9904C305.04266,1132.6602,309.84515,1130.915,313.8145,1128.5061C320.6817,1124.3385,324.41998,1118.6521,323.68713,1115.2349C323.28583,1113.3638,321.46063,1111.7527,318.347,1110.2261C315.68085,1108.9185,312.3625,1107.8091,308.9039,1106.655C305.4091,1105.4888,301.77643,1104.2789,298.75684,1102.7981C289.26715,1098.1448,285.94183,1090.8921,282.7547,1083.9895C282.628,1083.7148,282.6193,1083.4164,282.70776,1083.1501L282.71146,1083.1538L272.74512,1061.5878C272.5646,1061.197,272.6187,1060.7383,272.88495,1060.4001C276.58905,1055.7009,279.72266,1051.595,278.67654,1046.9243L278.67642,1046.9276C278.49292,1046.1042,278.17395,1045.2385,277.74374,1044.3279C276.71875,1042.1589,275.1348,1039.8779,273.47034,1037.4866C271.82452,1035.1227,270.098,1032.6482,268.95508,1030.229C266.1634,1024.3208,266.8985,1018.87616,267.58163,1013.7738L267.5835,1013.7771C269.5071,987.70966,271.42358,961.72406,270.60895,938.0067C269.79633,914.34186,266.2636,892.91284,262.7118,871.4104L262.7058,871.37366L262.7085,871.377C257.13953,847.9612,251.57637,824.5745,245.54343,802.96735C239.51077,781.361,233.00726,761.5295,226.49373,741.66754C226.40013,741.38196,226.42267,741.07117,226.55641,740.80206C228.47522,736.94495,230.13922,733.5131,229.6222,730.0515C229.09752,726.5382,226.3188,722.8175,223.23322,718.75745L223.23633,718.76117C223.21696,718.7549,223.19748,718.75244,223.17809,718.7495C222.55257,718.66394,222.11504,718.08704,222.20084,717.4619C222.28113,716.87695,222.79033,716.4564,223.36743,716.4743C223.40758,716.4755,223.44818,716.4789,223.4888,716.4845C236.61823,718.2859,249.8988,720.10376,259.52045,723.182C269.21506,726.28357,275.18723,730.6575,281.04242,734.94086C281.3112,735.13763,281.48083,735.4416,281.50714,735.77374C281.5334,736.1052,281.41357,736.43243,281.17908,736.66846L256.84064,761.2052L256.84406,761.2087C257.0536,763.3949,257.28488,765.39795,257.92767,767.0788C258.2323,767.8755,258.62134,768.5738,259.1261,769.16583C260.72552,771.0417,263.66248,772.1225,267.08203,773.2527L299.86426,738.8743C300.06238,738.6664,300.3316,738.5408,300.61807,738.5223C304.25256,738.2881,307.4982,738.0567,309.4847,737.03986C311.33136,736.0944,312.15378,734.40295,313.13867,732.2788C313.33588,731.8537,313.76428,731.60297,314.21118,731.61676C314.32422,731.62024,314.43848,731.6406,314.5505,731.6793C316.06354,732.2041,317.08386,732.4945,317.7673,732.5157C318.2008,732.5291,318.49872,732.4344,318.70105,732.2224C319.484,731.4026,319.71988,728.86725,319.9369,725.4608C319.96,725.09766,320.1546,724.7676,320.461,724.571C323.0804,722.8925,325.2446,721.4587,326.0913,719.56036C326.9373,717.6639,326.5522,715.11414,326.04272,712.06116C325.98444,711.7118,326.0915,711.3548,326.33267,711.09503C326.5581,710.8525,326.87695,710.7201,327.20587,710.73035C327.2288,710.731,327.25174,710.73236,327.2747,710.7345C328.4699,710.84406,329.53708,710.9283,330.4617,710.95685C332.3453,711.0153,333.63712,710.8431,334.21417,710.1829C335.02197,709.25836,334.81506,707.0135,334.28473,703.82776L334.289,703.8313C334.22287,703.79004,334.15942,703.7452,334.0999,703.69293C333.62524,703.277,333.57773,702.5548,333.99405,702.0798L426.62854,596.4247C426.842,596.1813,427.1487,596.0399,427.47253,596.03534C433.92676,595.94714,439.91568,595.8329,443.98566,593.42957C448.00735,591.05457,450.30396,586.34216,452.7733,581.1675L452.77338,581.16705L452.78778,581.1371C452.9196,580.8608,453.15714,580.6487,453.44687,580.54895C455.82565,579.729,457.62973,579.05347,458.5337,577.4713C459.50735,575.7676,459.57324,572.8723,459.61035,569.4817C459.6143,569.12683,459.78287,568.7937,460.06662,568.5801C464.84995,564.9855,468.74567,561.94226,469.0657,559.97754C469.23523,558.93665,468.03885,557.803,464.9676,556.27673C464.26328,555.9265,463.5227,555.58264,462.76428,555.23083C462.1915,554.96515,461.9428,554.2853,462.2085,553.7125C462.3888,553.32404,462.75964,553.08466,463.1581,553.0537L463.16367,553.05725L532.3686,471.45868C532.60156,471.18396,532.93884,471.04465,533.2765,471.0551C533.4885,471.0617,533.70056,471.12744,533.88696,471.2552L537.02313,473.4057L548.4104,460.31918C548.64294,460.05194,548.9757,459.91644,549.3091,459.92676C549.51074,459.93298,549.7125,459.99255,549.89246,460.10852L549.89233,460.1121C558.33484,465.55206,566.7901,471.01022,584.18567,488.37735C591.26074,495.44073,599.8185,504.4779,607.5011,512.59094C613.44604,518.8686,618.79663,524.51324,622.5532,528.30664C615.0167,517.85254,598.0939,496.3849,585.9208,481.83032C569.7903,462.5447,562.6228,456.13174,555.45105,449.7107C555.22156,449.50555,555.0847,449.21643,555.0713,448.90884C555.05786,448.6019,555.1689,448.30188,555.3793,448.0773L562.6684,440.30008L562.6749,440.30362C560.631,436.24307,558.61694,432.4562,555.43256,429.68265C554.7064,429.05066,553.9111,428.4644,553.0571,427.91394C550.1369,426.03192,546.61475,424.6185,542.9387,423.19147L542.9323,423.1946L535.4424,430.82312C535.2113,431.05832,534.9003,431.17447,534.59045,431.1649C534.3651,431.15793,534.14014,431.0845,533.9471,430.94193C524.50055,423.96103,515.085,417.00357,504.46707,410.16147C497.90088,405.9302,490.87595,401.74353,483.10544,397.62732C467.00452,389.09845,448.23547,381.14993,441.22696,379.09937 Z"/>
</g>
</g>
<g style="fill:rgb(0,0,0); fill-opacity:1.0; stroke-linejoin: miter">
<path d="M856.81726,1132.3639L852.41736,1135.9825Q821.13574,1146.9185,669.3578,1153.4751Q516.52966,1160.0265,309.42654,1158.7882Q111.77356,1157.0574,-6.7302628,1148.6598Q-44.700188,1145.9453,-69.28151,1142.7443L-89.94144,1139.4532Q-106.96709,1136.0565,-107.15851,1132.3639Q-101.99002,1121.0317,34.012497,1113.5068Q170.01494,1105.982,374.82944,1105.696Q579.6438,1105.982,715.64636,1113.5068Q851.6489,1121.0317,856.81726,1132.3639"/>
</g>
<g style="fill:rgb(0,0,0); fill-opacity:1.0; stroke-linejoin: miter">
<path d="M397.6895,873.2995L400.92667,848.3824Q417.59253,773.506,478.47708,731.7781Q539.7621,690.1054,618.4629,703.5906Q693.3395,720.2557,735.0698,781.1392Q748.42993,800.81177,756.46045,823.5331L762.9496,846.7802Q768.0038,870.6725,766.48914,896.2104Q759.64233,974.4483,704.3755,1023.2495Q649.1095,1072.0474,570.6278,1069.1573Q492.3916,1062.3094,443.59302,1007.04425Q394.7953,951.77936,397.6895,873.2995 Z"/>
</g>
<g style="fill:rgb(99,112,121); fill-opacity:1.0; stroke-linejoin: miter">
<path d="M426.58282,874.6274L429.3169,853.6102Q443.37527,790.45337,494.72943,755.2531Q546.4231,720.10565,612.80786,731.4798Q675.9635,745.5368,711.1636,796.8939Q722.43066,813.488,729.20325,832.6501L734.6797,852.26074Q738.94214,872.4111,737.6644,893.9547Q731.89,959.9476,685.2717,1001.10895Q638.65686,1042.2728,572.4556,1039.834Q506.46555,1034.0571,465.30493,987.44257Q424.14502,940.8253,426.58282,874.6274 Z"/>
</g>
<g style="fill:rgb(255,255,255); fill-opacity:1.0; stroke-linejoin: miter">
<path d="M430.3888,874.80426L433.0561,854.30096Q446.77112,792.6872,496.87024,758.34753Q547.3003,724.0586,612.06335,735.1552Q673.67505,748.86835,708.015,798.97034Q719.00684,815.1592,725.6138,833.8528L730.9564,852.9846Q735.1146,872.64233,733.8684,893.6591Q728.2346,958.0397,682.7561,998.19464Q637.2803,1038.3525,572.6968,1035.9735Q508.31964,1030.3375,468.16483,984.8622Q428.01074,939.3841,430.3888,874.80426 Z"/>
</g>
<g style="fill:rgb(99,112,121); fill-opacity:1.0; stroke-linejoin: miter">
<path d="M580.734,815.707Q581.08936,815.7339,581.4475,815.7626Q596.375,816.95166,604.6914,823.9874Q612.78174,831.0049,611.75464,843.89746Q610.6919,857.24133,602.0089,863.3786Q593.42505,869.23364,578.25073,868.0859Q578.10767,868.075,577.964,868.0636L561.4531,866.7484L565.5431,815.406Q568.5192,815.18756,572.8349,815.3041Q576.60034,815.39435,580.734,815.707 Z M559.9395,885.7472L578.9384,887.261Q587.08093,887.9094,593.9663,890.051Q600.8695,891.9668,605.7833,895.9999Q610.4889,899.78925,612.9608,905.9039Q615.4508,911.7927,614.7844,920.1613Q614.0996,928.756,610.48254,934.1584Q606.88367,939.3341,601.1853,942.2943Q595.50464,945.02844,588.15894,945.809Q581.20935,946.58826,573.2854,945.9889Q573.0917,945.9742,572.89685,945.9589Q568.1471,945.58057,563.1892,944.95795Q558.4575,944.3534,555.327,943.6488L559.9395,885.7472 Z M579.35205,797.38934Q569.59595,796.65137,559.99084,796.5273Q549.7589,796.3949,544.01447,797.0754L531.0599,959.6971Q540.01685,961.54865,550.1228,963.26416Q560.2468,964.75354,568.84155,965.4382Q569.14636,965.4625,569.4505,965.48553Q582.9126,966.5039,595.05005,965.0224Q607.2356,963.4893,616.73303,958.5557Q626.00464,953.6037,631.9452,944.74475Q637.86804,936.1123,638.9132,922.9936Q639.77783,912.1374,636.99756,904.177Q634.42566,896.4604,629.6201,891.0705Q624.8142,885.68005,618.47156,882.44354Q612.35486,879.2249,606.0757,878.0417Q611.1598,877.0812,616.16174,874.2929Q621.14575,871.73126,625.14294,867.2696Q629.1221,863.0341,631.8705,857.1079Q634.3744,851.38934,634.9331,844.3778Q635.8517,832.84265,632.203,824.358Q628.7623,816.11755,621.4868,810.303Q614.41956,804.7322,603.96924,801.6239Q593.51917,798.51526,580.6271,797.4883Q579.9893,797.4375,579.35205,797.38934 Z"/>
</g>
<g style="fill:rgb(99,112,121); fill-opacity:1.0; stroke-linejoin: miter">
<path d="M592.83264,815.7012Q593.188,815.7281,593.5459,815.7568Q608.47375,816.94574,616.79016,823.98157Q624.8805,830.99915,623.8534,843.891Q622.7905,857.23553,614.10754,863.37244Q605.5237,869.2277,590.34937,868.07996Q590.2062,868.06915,590.06274,868.0578L573.5518,866.74225L577.6417,815.4002Q580.618,815.1818,584.9332,815.298Q588.6987,815.3885,592.83264,815.7012 Z M572.0383,885.74133L591.03723,887.2546Q599.17957,887.9034,606.0647,890.04517Q612.96826,891.96075,617.88196,895.994Q622.5875,899.78284,625.0593,905.898Q627.54944,911.7869,626.88293,920.15546Q626.1979,928.7501,622.58093,934.1522Q618.9822,939.32825,613.2838,942.2884Q607.6035,945.0226,600.2577,945.8031Q593.3081,946.5824,585.38416,945.983Q585.1902,945.96826,584.9956,945.95306Q580.24585,945.57446,575.28796,944.9519Q570.5563,944.3472,567.4258,943.643L572.0383,885.74133 Z M591.4508,797.3832Q581.69434,796.6452,572.0896,796.5211Q561.85754,796.3888,556.1129,797.0693L543.15845,959.6909Q552.1156,961.5428,562.22156,963.2584Q572.34534,964.74786,580.93994,965.4322Q581.2449,965.45667,581.54895,965.4797Q595.0111,966.4979,607.1488,965.01624Q619.3342,963.4832,628.83167,958.5494Q638.10315,953.5978,644.0438,944.73883Q649.9667,936.10583,651.0117,922.98773Q651.87646,912.1311,649.0963,904.1712Q646.52454,896.45465,641.719,891.0647Q636.9131,885.67413,630.57007,882.4376Q624.45325,879.21906,618.17456,878.03564Q623.2584,877.0752,628.2604,874.2871Q633.2445,871.72504,637.24146,867.26373Q641.2207,863.02826,643.9689,857.10187Q646.4729,851.3831,647.0315,844.3717Q647.9503,832.83685,644.30176,824.3522Q640.8611,816.11145,633.58545,810.29694Q626.5178,804.7264,616.0679,801.61804Q605.6178,798.50916,592.7256,797.48224Q592.088,797.43146,591.4508,797.3832 Z"/>
</g>
<g style="fill:rgb(99,112,121); fill-opacity:1.0; stroke-linejoin: miter">
<path d="M561.0239,780.0647L583.2787,781.91113L581.63245,801.7707L559.37714,799.92615L561.0239,780.0647 Z"/>
</g>
<g style="fill:rgb(99,112,121); fill-opacity:1.0; stroke-linejoin: miter">
<path d="M594.9856,782.8805L617.2407,784.7266L615.59436,804.58624L593.339,802.7423L594.9856,782.8805 Z"/>
</g>
<g style="fill:rgb(99,112,121); fill-opacity:1.0; stroke-linejoin: miter">
<path d="M579.23737,958.6004L601.4923,960.4464L599.3052,986.8242L577.05035,984.98016L579.23737,958.6004 Z"/>
</g>
<g style="fill:rgb(99,112,121); fill-opacity:1.0; stroke-linejoin: miter">
<path d="M545.67163,962.38043L567.9267,964.2269L566.2803,984.0863L544.02515,982.2422L545.67163,962.38043 Z"/>
</g>
<g style="fill:rgb(99,112,121); fill-opacity:1.0; stroke-linejoin: miter">
<path d="M568.0737,795.6397L521.33954,791.76605L519.0116,819.84186L565.7457,823.7174L568.0737,795.6397 Z"/>
</g>
<g style="fill:rgb(99,112,121); fill-opacity:1.0; stroke-linejoin: miter">
<path d="M556.3408,937.14636L509.60678,933.2729L507.27893,961.34875L554.0129,965.2243L556.3408,937.14636 Z"/>
</g>
<g style="fill:rgb(0,0,0); fill-opacity:1.0; stroke-linejoin: miter">
<path d="M578.28937,814.6338Q578.64465,814.6607,579.0028,814.6894Q593.9303,815.87836,602.24695,822.9141Q610.33704,829.93164,609.3102,842.8236Q608.2472,856.168,599.56433,862.30524Q590.98035,868.1604,575.8061,867.0127Q575.66296,867.0019,575.51953,866.9904L559.0083,865.6751L563.0984,814.33276Q566.0747,814.11444,570.3901,814.2307Q574.1556,814.3211,578.28937,814.6338 Z M557.49506,884.67395L576.49396,886.18774Q584.6362,886.83594,591.5216,888.9778Q598.4248,890.8936,603.33875,894.92664Q608.0443,898.716,610.516,904.8306Q613.0061,910.71936,612.3397,919.08795Q611.6548,927.6827,608.03784,933.085Q604.4392,938.2609,598.7405,941.221Q593.0602,943.9551,585.71423,944.73566Q578.76483,945.515,570.8408,944.9159Q570.64685,944.9012,570.4524,944.8857Q565.7024,944.5071,560.7446,943.8848Q556.01294,943.2801,552.88257,942.5756L557.49506,884.67395 Z M576.9077,796.31616Q567.1511,795.5781,557.54626,795.45404Q547.3142,795.3216,541.56964,796.0024L528.61505,958.6238Q537.57214,960.4754,547.67804,962.1909Q557.802,963.6802,566.3968,964.365Q566.70154,964.38916,567.0058,964.4122Q580.46783,965.43054,592.60535,963.9491Q604.7909,962.41614,614.2887,957.48254Q623.5598,952.53046,629.5005,943.6715Q635.42334,935.03876,636.46826,921.92035Q637.33325,911.0641,634.553,903.10376Q631.9813,895.3875,627.1754,889.99725Q622.3696,884.6068,616.02686,881.37024Q609.91016,878.1516,603.631,876.9687Q608.7152,876.0079,613.71704,873.22Q618.7012,870.65784,622.6981,866.19635Q626.67737,861.9614,629.4258,856.03467Q631.92957,850.31604,632.4884,843.3046Q633.4071,831.7694,629.7584,823.2847Q626.31775,815.0444,619.04224,809.2298Q611.97485,803.659,601.52454,800.55054Q591.0746,797.44214,578.1825,796.415Q577.5446,796.3643,576.9077,796.31616 Z"/>
</g>
<g style="fill:rgb(0,0,0); fill-opacity:1.0; stroke-linejoin: miter">
<path d="M590.38794,814.6282Q590.74316,814.655,591.10144,814.6835Q606.0292,815.8728,614.3457,822.9082Q622.4358,829.9259,621.4087,842.81805Q620.34595,856.1626,611.66284,862.29913Q603.0791,868.15454,587.90466,867.0068Q587.7615,866.996,587.61804,866.98456L571.1071,865.669L575.1971,814.3269Q578.1734,814.1088,582.48865,814.2246Q586.25415,814.3155,590.38794,814.6282 Z M569.5936,884.66797L588.59265,886.1815Q596.73486,886.8304,603.62024,888.9719Q610.52356,890.8877,615.4375,894.9207Q620.14294,898.7099,622.61487,904.82495Q625.10486,910.7137,624.4381,919.0822Q623.75366,927.67694,620.1367,933.07886Q616.53784,938.25525,610.8391,941.21515Q605.1588,943.94934,597.813,944.7298Q590.8633,945.5093,582.93933,944.91Q582.7456,944.8953,582.5508,944.87976Q577.8012,944.50134,572.8434,943.8788Q568.1116,943.2745,564.9812,942.5697L569.5936,884.66797 Z M589.0061,796.30994Q579.2497,795.572,569.64496,795.44806Q559.41296,795.31604,553.66833,795.99615L540.71375,958.6177Q549.67114,960.46954,559.77673,962.1851Q569.90063,963.67456,578.4956,964.359Q578.80035,964.38336,579.1045,964.4063Q592.5665,965.4246,604.7041,963.94324Q616.88965,962.41046,626.38745,957.4764Q635.65845,952.52484,641.59937,943.6656Q647.522,935.03284,648.5669,921.9148Q649.4319,911.0579,646.65173,903.09796Q644.0801,895.3817,639.2743,889.9914Q634.4684,884.6009,628.1255,881.36444Q622.0088,878.14606,615.72974,876.9628Q620.81384,876.00226,625.8159,873.21375Q630.7998,870.6521,634.7969,866.1905Q638.7761,861.955,641.52454,856.0286Q644.0282,850.3105,644.5869,843.29846Q645.50586,831.7636,641.8573,823.27893Q638.4165,815.03815,631.14075,809.2237Q624.0736,803.65344,613.62317,800.54474Q603.1732,797.4359,590.281,796.4091Q589.6433,796.35815,589.0061,796.30994 Z"/>
</g>
<g style="fill:rgb(0,0,0); fill-opacity:1.0; stroke-linejoin: miter">
<path d="M558.57935,778.99146L580.8341,780.8374L579.1876,800.6973L556.9323,798.8532L558.57935,778.99146 Z"/>
</g>
<g style="fill:rgb(0,0,0); fill-opacity:1.0; stroke-linejoin: miter">
<path d="M592.54114,781.80725L614.79614,783.6533L613.14954,803.5133L590.89453,801.66907L592.54114,781.80725 Z"/>
</g>
<g style="fill:rgb(0,0,0); fill-opacity:1.0; stroke-linejoin: miter">
<path d="M576.7928,957.52704L599.0476,959.3732L596.8605,985.7512L574.6055,983.9071L576.7928,957.52704 Z"/>
</g>
<g style="fill:rgb(0,0,0); fill-opacity:1.0; stroke-linejoin: miter">
<path d="M543.22705,961.3074L565.4822,963.154L563.8356,983.01306L541.58044,981.16895L543.22705,961.3074 Z"/>
</g>
<g style="fill:rgb(0,0,0); fill-opacity:1.0; stroke-linejoin: miter">
<path d="M565.629,794.5664L518.8951,790.6927L516.56714,818.7686L563.301,822.64417L565.629,794.5664 Z"/>
</g>
<g style="fill:rgb(0,0,0); fill-opacity:1.0; stroke-linejoin: miter">
<path d="M553.8961,936.07306L507.1622,932.1999L504.83432,960.27594L551.56805,964.15125L553.8961,936.07306 Z"/>
</g>
<g style="fill:rgb(255,229,0); fill-opacity:0.99607843; stroke-linejoin: miter">
<path d="M553.6489,936.05304L553.40967,936.0339L553.40955,936.0344L553.40967,936.0339L553.6489,936.05304 Z"/>
</g>
<g style="fill:rgb(255,229,0); fill-opacity:0.99607843; stroke-linejoin: miter">
<path d="M553.402,936.0325L553.40186,936.03326L553.40955,936.0344L553.40967,936.0339L553.402,936.0325 Z"/>
</g>
<g style="fill:rgb(255,229,0); fill-opacity:0.99607843; stroke-linejoin: miter">
<path d="M557.49365,884.68005L553.402,936.0325L553.6489,936.05304L553.40186,936.03326L557.49365,884.68005 Z"/>
</g>
<g style="fill:rgb(0,0,0); fill-opacity:1.0; stroke-linejoin: miter">
<path d="M474.50162,840.6591L474.50162,840.6597L474.5016,840.66034L474.50162,840.6591"/>
</g>
<g style="fill:rgb(0,0,0); fill-opacity:1.0; stroke-linejoin: miter">
<path d="M386.82608,944.9763L412.5193,945.14075L438.2125,945.3053Q437.54218,1050.3063,436.87183,1155.3074Q411.1786,1155.1438,385.48535,1154.9801Q386.1557,1049.9783,386.82608,944.9763"/>
</g>
<g style="fill:rgb(0,0,0); fill-opacity:1.0; stroke-linejoin: miter">
<path d="M429.6473,990.7367L448.5628,990.85803L467.47827,990.97943L466.7008,1112.7507Q447.78537,1112.6309,428.8699,1112.5106L429.6473,990.7367"/>
</g>
<g style="fill:rgb(0,0,0); fill-opacity:1.0; stroke-linejoin: miter">
<path d="M448.78418,1028.6312L483.16614,1028.8512L517.5481,1029.0713Q517.2997,1067.9639,517.0514,1106.8561Q482.66953,1106.6372,448.2876,1106.4182Q448.53583,1067.5244,448.78418,1028.6312"/>
</g>
<g style="fill:rgb(0,0,0); fill-opacity:1.0; stroke-linejoin: miter">
<path d="M510.4297,1046.2021L544.2466,1046.4185L578.06335,1046.635Q577.84753,1080.4514,577.6316,1114.2676Q543.8148,1114.0522,509.9979,1113.837Q510.2138,1080.0197,510.4297,1046.2021"/>
</g>
<g style="fill:rgb(0,0,0); fill-opacity:1.0; stroke-linejoin: miter">
<path d="M586.98,1057.3074L620.73413,1057.5234L654.4883,1057.7394Q654.27295,1091.4932,654.0574,1125.2467Q620.3032,1125.0319,586.5491,1124.8168Q586.7645,1091.0623,586.98,1057.3074"/>
</g>
<g style="fill:rgb(0,0,0); fill-opacity:1.0; stroke-linejoin: miter">
<path d="M553.1006,1063.8564L582.31726,1064.0435L611.5338,1064.2306Q611.3474,1093.4468,611.1609,1122.6628Q581.9441,1122.4769,552.7274,1122.2911Q552.914,1093.074,553.1006,1063.8564"/>
</g>
<g style="fill:rgb(0,0,0); fill-opacity:1.0; stroke-linejoin: miter">
<path d="M725.73926,1016.25146L647.2804,1015.751L568.8214,1015.2505Q568.4341,1075.9438,568.04663,1136.6375Q646.5056,1137.1388,724.9645,1137.6399Q725.3518,1076.9456,725.73926,1016.25146"/>
</g>
</g>
</svg>