<?xml version="1.0" encoding="iso-8859-1"?>
<!-- Generator: Adobe Illustrator 19.0.0, SVG Export Plug-In . SVG Version: 6.00 Build 0)  -->
<svg version="1.1" id="Layer_1" xmlns="http://www.w3.org/2000/svg" xmlns:xlink="http://www.w3.org/1999/xlink" x="0px" y="0px"
	 viewBox="0 0 297.001 297.001" style="enable-background:new 0 0 297.001 297.001;" xml:space="preserve">
<g>
	<g>
		<g>
			<g>
				<circle style="fill:#32373B;" cx="148.5" cy="148.5" r="148.5"/>
			</g>
		</g>
	</g>
	<path d="M294.377,120.629l-66.804-66.874L69.519,243.344l51.16,51.043c9.013,1.709,18.311,2.614,27.822,2.614
		c82.014,0,148.5-66.486,148.5-148.5C297,138.972,296.092,129.658,294.377,120.629z"/>
	<g>
		<path style="fill:#BDC3C7;" d="M217.917,247.5H79.083C71.858,247.5,66,241.642,66,234.417v-72.834
			c0-7.226,5.858-13.083,13.083-13.083h138.834c7.226,0,13.083,5.858,13.083,13.083v72.834C231,241.642,225.142,247.5,217.917,247.5
			z"/>
	</g>
	<g>
		<path style="fill:#FFFFFF;" d="M217.917,148.5H79.083C71.858,148.5,66,142.642,66,135.417V62.583
			C66,55.358,71.858,49.5,79.083,49.5h138.834c7.226,0,13.083,5.858,13.083,13.083v72.834C231,142.642,225.142,148.5,217.917,148.5z
			"/>
	</g>
	<g>
		<rect x="82.5" y="66" style="fill:#BDC3C7;" width="132" height="66"/>
	</g>
	<g>
		<rect x="106.615" y="170.077" style="fill:#FFFFFF;" width="83.769" height="55.846"/>
	</g>
	<g>
		<polygon style="fill:#32373B;" points="96.25,174.077 92.25,174.077 92.25,170.077 84.25,170.077 84.25,174.077 80.25,174.077 
			80.25,182.077 84.25,182.077 84.25,186.077 92.25,186.077 92.25,182.077 96.25,182.077 		"/>
	</g>
	<g>
		<circle style="fill:#32373B;" cx="88.25" cy="219" r="4.5"/>
	</g>
	<g>
		<circle style="fill:#32373B;" cx="88.25" cy="202.5" r="4.5"/>
	</g>
	<g>
		<circle style="fill:#32373B;" cx="219" cy="186" r="4.5"/>
	</g>
	<g>
		<circle style="fill:#32373B;" cx="202.5" cy="186" r="4.5"/>
	</g>
	<g>
		<circle style="fill:#32373B;" cx="210.75" cy="194.25" r="4.5"/>
	</g>
	<g>
		<circle style="fill:#32373B;" cx="210.75" cy="177.75" r="4.5"/>
	</g>
	<g>
		<rect x="200" y="213.5" style="fill:#32373B;" width="21" height="4"/>
	</g>
	<g>
		<rect x="200" y="206.5" style="fill:#32373B;" width="21" height="4"/>
	</g>
</g>
<g>
</g>
<g>
</g>
<g>
</g>
<g>
</g>
<g>
</g>
<g>
</g>
<g>
</g>
<g>
</g>
<g>
</g>
<g>
</g>
<g>
</g>
<g>
</g>
<g>
</g>
<g>
</g>
<g>
</g>
</svg>
