<?xml version="1.0" encoding="iso-8859-1"?>
<!-- Generator: Adobe Illustrator 19.0.0, SVG Export Plug-In . SVG Version: 6.00 Build 0)  -->
<svg version="1.1" id="Capa_1" xmlns="http://www.w3.org/2000/svg" xmlns:xlink="http://www.w3.org/1999/xlink" x="0px" y="0px"
	 viewBox="0 0 60.001 60.001" style="enable-background:new 0 0 60.001 60.001;" xml:space="preserve">
<g>
	<g>
		<path d="M45.163,18.651c1.024,0,2.05-0.39,2.829-1.169c1.559-1.56,1.559-4.098,0-5.657c-1.561-1.559-4.097-1.559-5.657,0
			c-1.56,1.56-1.56,4.098,0,5.657C43.116,18.262,44.139,18.651,45.163,18.651z M43.749,13.239c0.39-0.39,0.902-0.584,1.415-0.584
			c0.512,0,1.024,0.194,1.414,0.584c0.779,0.78,0.779,2.049,0,2.829c-0.778,0.778-2.049,0.78-2.829,0S42.969,14.019,43.749,13.239z"
			/>
		<path d="M33.766,30.049c1.024,0,2.049-0.39,2.828-1.169c1.56-1.56,1.56-4.098,0-5.657c-1.558-1.558-4.095-1.56-5.656,0
			c-1.56,1.56-1.56,4.098,0,5.657C31.718,29.659,32.742,30.049,33.766,30.049z M32.352,24.637c0.39-0.39,0.902-0.584,1.414-0.584
			c0.513,0,1.024,0.194,1.414,0.584c0.78,0.78,0.78,2.049,0,2.829c-0.778,0.778-2.048,0.78-2.828,0S31.572,25.417,32.352,24.637z"/>
		<path d="M36.678,21.725c0.195,0.195,0.451,0.293,0.707,0.293s0.512-0.098,0.707-0.293l2.829-2.828
			c0.391-0.391,0.391-1.023,0-1.414l-0.707-0.707c-0.391-0.391-1.023-0.391-1.414,0c-0.391,0.391-0.391,1.023,0,1.414l-1.415,1.414
			l0,0c-0.391-0.391-1.023-0.391-1.414,0s-0.391,1.023,0,1.414L36.678,21.725z"/>
		<path d="M58.984,44.87c-0.018-0.108-0.051-0.213-0.104-0.31c-0.011-0.021-0.029-0.036-0.042-0.056
			c-0.039-0.061-0.077-0.123-0.13-0.176l-2.293-2.293h2.586c0.29,0,0.565-0.126,0.756-0.345c0.189-0.219,0.275-0.51,0.234-0.797
			l-1-7c-0.003-0.02-0.014-0.035-0.018-0.054c-0.019-0.095-0.046-0.187-0.091-0.271c-0.023-0.042-0.056-0.075-0.084-0.114
			c-0.039-0.054-0.076-0.11-0.126-0.156c-0.04-0.036-0.088-0.06-0.133-0.089c-0.044-0.029-0.082-0.066-0.132-0.089l-9-4
			c-0.128-0.057-0.267-0.086-0.406-0.086h-7.566c-0.073-0.206-0.141-0.399-0.196-0.557l6.289-6.289l4.058,1.468
			c1.732,0.896,3.803,0.573,5.182-0.808c1.732-1.732,1.732-4.553-0.051-6.333l-3.136-2.732c-0.954-0.832-1.042-0.987-1.275-1.402
			c-0.174-0.31-0.412-0.734-0.949-1.471c-0.668-0.916-2.657-2.773-3.849-3.33c-2.586-1.213-5.726-0.592-7.803,1.546
			c-0.334,0.342-0.651,0.803-0.971,1.41c-0.99,1.879-2.248,3.588-3.739,5.079c-1.432,1.432-3.13,2.683-5.048,3.717
			c-0.612,0.33-1.212,0.778-1.782,1.333c-2.142,2.083-2.764,5.223-1.549,7.813c0.08,0.17,0.192,0.359,0.318,0.556H11.001
			c-0.14,0-0.278,0.029-0.406,0.086l-9,4c-0.05,0.022-0.087,0.059-0.132,0.088c-0.045,0.03-0.093,0.053-0.133,0.089
			c-0.05,0.046-0.087,0.101-0.126,0.156c-0.028,0.038-0.062,0.071-0.084,0.113c-0.045,0.084-0.071,0.176-0.09,0.27
			c-0.004,0.02-0.016,0.036-0.019,0.056l-1,7c-0.041,0.287,0.045,0.578,0.234,0.797c0.191,0.22,0.466,0.346,0.756,0.346h2.586
			l-2.293,2.293c-0.053,0.053-0.091,0.115-0.13,0.176c-0.013,0.02-0.03,0.035-0.042,0.056c-0.053,0.097-0.086,0.202-0.104,0.31
			c-0.001,0.008-0.007,0.015-0.008,0.023l-1,7c-0.041,0.287,0.045,0.578,0.234,0.797c0.192,0.219,0.467,0.345,0.757,0.345h58
			c0.29,0,0.565-0.126,0.756-0.345c0.189-0.219,0.275-0.51,0.234-0.797l-1-7C58.99,44.885,58.985,44.879,58.984,44.87z
			 M54.001,40.035h-35v-5h14.241l2.354,2.698c1.733,1.733,4.555,1.731,6.286,0c0.182-0.182,0.343-0.378,0.488-0.581
			c0.013-0.018,0.022-0.038,0.034-0.056c0.133-0.194,0.25-0.395,0.35-0.603c0.004-0.008,0.006-0.016,0.01-0.024
			c0.104-0.221,0.187-0.449,0.253-0.682c0.003-0.01,0.004-0.02,0.007-0.03c0.062-0.228,0.106-0.459,0.131-0.694
			c0.001-0.01,0.004-0.019,0.005-0.029h13.974l0.714,5L54.001,40.035L54.001,40.035z M48.789,31.035l4.5,2H42.904
			c-0.062-0.164-0.132-0.325-0.212-0.48l-0.544-1.52H48.789z M29.559,22.1c0.438-0.425,0.888-0.764,1.337-1.007
			c2.089-1.126,3.943-2.493,5.513-4.063c1.633-1.633,3.011-3.504,4.095-5.562c0.28-0.533,0.498-0.808,0.633-0.945
			c0.987-1.015,2.298-1.557,3.599-1.557c0.658,0,1.313,0.139,1.924,0.425h0.001c0.839,0.394,2.582,2.015,3.08,2.697
			c0.468,0.642,0.664,0.991,0.822,1.272c0.34,0.604,0.539,0.915,1.704,1.931l3.087,2.686c0.953,0.954,0.953,2.505,0,3.458
			c-0.771,0.77-1.931,0.942-2.889,0.424l-5.452-1.982l-7.548,7.548c-0.456,0.3-0.512,0.519,0.31,2.898
			c0.005,0.016,0.005,0.033,0.011,0.049l0.332,0.927c0.203,0.572,0.437,1.224,0.715,1.997l0.061,0.136
			c0.012,0.022,0.019,0.045,0.03,0.068c0.108,0.218,0.188,0.452,0.228,0.698c0.031,0.189,0.038,0.38,0.024,0.567
			c-0.001,0.009-0.001,0.017-0.002,0.025c-0.03,0.364-0.144,0.716-0.326,1.031c-0.016,0.027-0.031,0.054-0.048,0.08
			c-0.095,0.15-0.202,0.292-0.329,0.42c-0.955,0.953-2.505,0.952-3.411,0.05l-2.606-2.991l-0.127-0.146
			c-1.016-1.166-1.326-1.365-1.93-1.705c-0.281-0.157-0.631-0.354-1.272-0.822c-0.075-0.055-0.165-0.13-0.26-0.211
			c-0.075-0.065-0.162-0.145-0.252-0.23c-0.024-0.022-0.046-0.042-0.07-0.065c-0.102-0.097-0.212-0.207-0.327-0.324
			c-0.021-0.022-0.042-0.042-0.063-0.064c-0.123-0.127-0.253-0.265-0.386-0.411c-0.575-0.632-1.129-1.328-1.338-1.772
			C27.573,25.811,28.028,23.589,29.559,22.1z M28.829,31.319c0.062,0.062,0.122,0.123,0.182,0.182c0.068,0.067,0.134,0.13,0.2,0.192
			c0.088,0.083,0.171,0.159,0.254,0.232c0.044,0.039,0.089,0.08,0.132,0.116c0.125,0.107,0.244,0.204,0.348,0.279
			c0.211,0.154,0.391,0.279,0.556,0.39c0.058,0.039,0.107,0.07,0.16,0.104c0.108,0.071,0.21,0.135,0.3,0.19
			c0.014,0.009,0.033,0.022,0.047,0.03H20.415l2-2h6.137C28.646,31.134,28.737,31.226,28.829,31.319z M11.213,31.035h8.374l-2,2
			H6.713L11.213,31.035z M2.868,35.035h14.133v5h-11H2.155L2.868,35.035z M53.587,42.035l2,2H4.415l2-2H53.587z M2.868,46.035
			h14.133v5H2.155L2.868,46.035z M19.001,51.035v-5h38.133l0.714,5H19.001z"/>
		<path d="M46.001,36.035c-0.553,0-1,0.447-1,1v1c0,0.553,0.447,1,1,1s1-0.447,1-1v-1C47.001,36.482,46.554,36.035,46.001,36.035z"
			/>
		<path d="M49.001,36.035c-0.553,0-1,0.447-1,1v1c0,0.553,0.447,1,1,1s1-0.447,1-1v-1C50.001,36.482,49.554,36.035,49.001,36.035z"
			/>
		<path d="M52.001,36.035c-0.553,0-1,0.447-1,1v1c0,0.553,0.447,1,1,1s1-0.447,1-1v-1C53.001,36.482,52.554,36.035,52.001,36.035z"
			/>
	</g>
</g>
<g>
</g>
<g>
</g>
<g>
</g>
<g>
</g>
<g>
</g>
<g>
</g>
<g>
</g>
<g>
</g>
<g>
</g>
<g>
</g>
<g>
</g>
<g>
</g>
<g>
</g>
<g>
</g>
<g>
</g>
</svg>
