<?xml version="1.0" encoding="iso-8859-1"?>
<!-- Generator: Adobe Illustrator 18.1.1, SVG Export Plug-In . SVG Version: 6.00 Build 0)  -->
<svg version="1.1" id="Capa_1" xmlns="http://www.w3.org/2000/svg" xmlns:xlink="http://www.w3.org/1999/xlink" x="0px" y="0px"
	 viewBox="0 0 20.14 20.14" style="enable-background:new 0 0 20.14 20.14;" xml:space="preserve">
<g>
	<g>
		<path style="fill:#030104;" d="M14.961,4.667c-0.69-0.466-1.63-1.576-1.95-2.364c-0.242-0.602-0.614-0.944-0.898-1.093
			c0.102-0.332-0.048-0.636-0.714-1.21c-0.219,0.157,0.024,0.342-0.181,0.579c-1.106-0.354-2.885-0.122-4.131,0.808
			C3.61,3.984,4.395,12.537,5.884,14.549h6.839c0,0,1.016-0.555,0.389-3.092c-0.63-2.535-3.276-4.669-3.24-5.979
			c0.011-0.4,0.815-0.354,0.827-0.066c0.021,0.553,0.34,1.054,1.519,0.732c0.648-0.177,0.837,0.234,1.318,0.419
			c0.47,0.181,0.561,0.399,0.987,0.614c0,0,0.438-0.407,0.75-1.018C15.562,5.595,15.744,5.195,14.961,4.667z"/>
		<path style="fill:#030104;" d="M13.295,19.105H5.141c0,0-0.249,0.195-0.332,0.406c-0.084,0.211-0.085,0.629-0.085,0.629h8.989
			c0,0-0.022-0.416-0.094-0.615C13.545,19.328,13.295,19.105,13.295,19.105z"/>
		<polygon style="fill:#030104;" points="13.237,18.656 12.879,16.008 5.647,16.008 5.199,18.656 		"/>
		<path style="fill:#030104;" d="M9.04,15.584c1.126,0,3.808,0,3.87,0c0.104-0.006,0.355-0.213,0.29-0.471
			c-0.075-0.324-0.352-0.393-0.45-0.393c-0.072,0-2.252,0-3.378,0c0,0-0.267,0-0.661,0c-1.126,0-2.792,0-2.864,0
			c-0.098,0-0.375,0.068-0.452,0.393c-0.064,0.258,0.187,0.465,0.29,0.471C5.746,15.584,7.915,15.584,9.04,15.584z"/>
	</g>
</g>
<g>
</g>
<g>
</g>
<g>
</g>
<g>
</g>
<g>
</g>
<g>
</g>
<g>
</g>
<g>
</g>
<g>
</g>
<g>
</g>
<g>
</g>
<g>
</g>
<g>
</g>
<g>
</g>
<g>
</g>
</svg>
