<?xml version="1.0" encoding="UTF-8" standalone="no" ?>
<!DOCTYPE svg PUBLIC "-//W3C//DTD SVG 1.1//EN" "http://www.w3.org/Graphics/SVG/1.1/DTD/svg11.dtd">
<svg xmlns="http://www.w3.org/2000/svg" xmlns:xlink="http://www.w3.org/1999/xlink" version="1.1" width="400" height="400" viewBox="0 0 400 400" xml:space="preserve">
<desc>Created with Fabric.js 3.6.2</desc>
<defs>
</defs>
<g transform="matrix(4 0 0 4 195.2 221.04)" id="Layer_1"  >
<path style="stroke: none; stroke-width: 1; stroke-dasharray: none; stroke-linecap: butt; stroke-dashoffset: 0; stroke-linejoin: miter; stroke-miterlimit: 4; fill: rgb(183,197,253); fill-rule: nonzero; opacity: 1;"  transform=" translate(-23.8, -30.26)" d="M 42.58408 33.68399 l -12.81105 7.44497 c -0.32873 0.19176 -0.85833 0.19176 -1.18706 0.00305 L 5.01837 27.52349 c -0.32873 -0.18871 -0.32873 -0.49613 0 -0.68789 l 12.81105 -7.44495 c 0.32568 -0.18871 0.85529 -0.18871 1.18402 0 l 23.5676 13.60547 C 42.90976 33.18788 42.9128 33.49529 42.58408 33.68399 z" stroke-linecap="round" />
</g>
<g transform="matrix(4 0 0 4 177.94 228.06)" id="Layer_1"  >
<path style="stroke: none; stroke-width: 1; stroke-dasharray: none; stroke-linecap: butt; stroke-dashoffset: 0; stroke-linejoin: miter; stroke-miterlimit: 4; fill: rgb(154,173,253); fill-rule: nonzero; opacity: 1;"  transform=" translate(-19.48, -32.02)" d="M 24.95806 32.80642 c 0.16869 0.09739 0.1677 0.25606 0.0001 0.35345 l -3.47985 2.02227 c -0.16759 0.09739 -0.44152 0.09849 -0.61021 0.0011 l -6.8574 -3.95912 c -0.16869 -0.09739 -0.16769 -0.25607 -0.0001 -0.35346 l 3.47985 -2.02227 c 0.16759 -0.0974 0.44152 -0.09849 0.61021 -0.0011 L 24.95806 32.80642 z" stroke-linecap="round" />
</g>
<g transform="matrix(4 0 0 4 195.19 239.38)" id="Layer_1"  >
<path style="stroke: none; stroke-width: 1; stroke-dasharray: none; stroke-linecap: butt; stroke-dashoffset: 0; stroke-linejoin: miter; stroke-miterlimit: 4; fill: rgb(154,173,253); fill-rule: nonzero; opacity: 1;"  transform=" translate(-23.8, -34.85)" d="M 42.82757 33.3431 l -0.00305 1.24185 c 0 0.12175 -0.08217 0.24654 -0.24349 0.3409 l -12.81105 7.44497 c -0.32873 0.18871 -0.85833 0.18871 -1.18706 0 L 5.01532 28.76534 c -0.16435 -0.09436 -0.24654 -0.21914 -0.24654 -0.34699 l 0.00305 -1.2388 c 0 0.1248 0.08217 0.24959 0.24654 0.34394 l 23.5676 13.60852 c 0.32873 0.18871 0.85833 0.18871 1.18706 -0.00305 l 12.81105 -7.44497 C 42.74843 33.58964 42.82757 33.4679 42.82757 33.3431 z" stroke-linecap="round" />
</g>
<g transform="matrix(4 0 0 4 183.67 191.54)" id="Layer_1"  >
<polygon style="stroke: none; stroke-width: 1; stroke-dasharray: none; stroke-linecap: butt; stroke-dashoffset: 0; stroke-linejoin: miter; stroke-miterlimit: 4; fill: rgb(56,78,133); fill-rule: nonzero; opacity: 1;"  points="0.75,0.18 0.31,0.44 -0.75,-0.18 -0.31,-0.44 " />
</g>
<g transform="matrix(4 0 0 4 156.46 197.39)" id="Layer_1"  >
<polygon style="stroke: none; stroke-width: 1; stroke-dasharray: none; stroke-linecap: butt; stroke-dashoffset: 0; stroke-linejoin: miter; stroke-miterlimit: 4; fill: rgb(56,78,133); fill-rule: nonzero; opacity: 1;"  points="1.74,0.44 0.76,1.01 -1.74,-0.44 -0.76,-1.01 " />
</g>
<g transform="matrix(4 0 0 4 158.51 192.87)" id="Layer_1"  >
<polygon style="stroke: none; stroke-width: 1; stroke-dasharray: none; stroke-linecap: butt; stroke-dashoffset: 0; stroke-linejoin: miter; stroke-miterlimit: 4; fill: rgb(56,78,133); fill-rule: nonzero; opacity: 1;"  points="1.02,0.02 0.04,0.59 -1.02,-0.02 -0.04,-0.59 " />
</g>
<g transform="matrix(4 0 0 4 164.25 196.18)" id="Layer_1"  >
<polygon style="stroke: none; stroke-width: 1; stroke-dasharray: none; stroke-linecap: butt; stroke-dashoffset: 0; stroke-linejoin: miter; stroke-miterlimit: 4; fill: rgb(56,78,133); fill-rule: nonzero; opacity: 1;"  points="1.02,0.02 0.04,0.59 -1.02,-0.02 -0.04,-0.59 " />
</g>
<g transform="matrix(4 0 0 4 166.3 191.67)" id="Layer_1"  >
<polygon style="stroke: none; stroke-width: 1; stroke-dasharray: none; stroke-linecap: butt; stroke-dashoffset: 0; stroke-linejoin: miter; stroke-miterlimit: 4; fill: rgb(56,78,133); fill-rule: nonzero; opacity: 1;"  points="1.74,0.44 0.76,1.01 -1.74,-0.44 -0.76,-1.01 " />
</g>
<g transform="matrix(4 0 0 4 174.9 196.63)" id="Layer_1"  >
<polygon style="stroke: none; stroke-width: 1; stroke-dasharray: none; stroke-linecap: butt; stroke-dashoffset: 0; stroke-linejoin: miter; stroke-miterlimit: 4; fill: rgb(56,78,133); fill-rule: nonzero; opacity: 1;"  points="1.02,0.02 0.04,0.59 -1.02,-0.02 -0.04,-0.59 " />
</g>
<g transform="matrix(4 0 0 4 181.95 195)" id="Layer_1"  >
<polygon style="stroke: none; stroke-width: 1; stroke-dasharray: none; stroke-linecap: butt; stroke-dashoffset: 0; stroke-linejoin: miter; stroke-miterlimit: 4; fill: rgb(56,78,133); fill-rule: nonzero; opacity: 1;"  points="1.02,0.02 0.05,0.59 -1.02,-0.02 -0.05,-0.59 " />
</g>
<g transform="matrix(4 0 0 4 176.22 191.7)" id="Layer_1"  >
<polygon style="stroke: none; stroke-width: 1; stroke-dasharray: none; stroke-linecap: butt; stroke-dashoffset: 0; stroke-linejoin: miter; stroke-miterlimit: 4; fill: rgb(56,78,133); fill-rule: nonzero; opacity: 1;"  points="1.02,0.02 0.05,0.59 -1.02,-0.02 -0.05,-0.59 " />
</g>
<g transform="matrix(4 0 0 4 177.94 188.23)" id="Layer_1"  >
<polygon style="stroke: none; stroke-width: 1; stroke-dasharray: none; stroke-linecap: butt; stroke-dashoffset: 0; stroke-linejoin: miter; stroke-miterlimit: 4; fill: rgb(56,78,133); fill-rule: nonzero; opacity: 1;"  points="0.75,0.18 0.31,0.44 -0.75,-0.18 -0.31,-0.44 " />
</g>
<g transform="matrix(4 0 0 4 169.42 187.77)" id="Layer_1"  >
<polygon style="stroke: none; stroke-width: 1; stroke-dasharray: none; stroke-linecap: butt; stroke-dashoffset: 0; stroke-linejoin: miter; stroke-miterlimit: 4; fill: rgb(56,78,133); fill-rule: nonzero; opacity: 1;"  points="1.29,0.18 0.31,0.75 -1.29,-0.18 -0.31,-0.75 " />
</g>
<g transform="matrix(4 0 0 4 172.2 184.92)" id="Layer_1"  >
<polygon style="stroke: none; stroke-width: 1; stroke-dasharray: none; stroke-linecap: butt; stroke-dashoffset: 0; stroke-linejoin: miter; stroke-miterlimit: 4; fill: rgb(56,78,133); fill-rule: nonzero; opacity: 1;"  points="0.75,0.18 0.31,0.44 -0.75,-0.18 -0.31,-0.44 " />
</g>
<g transform="matrix(4 0 0 4 206.6 204.78)" id="Layer_1"  >
<polygon style="stroke: none; stroke-width: 1; stroke-dasharray: none; stroke-linecap: butt; stroke-dashoffset: 0; stroke-linejoin: miter; stroke-miterlimit: 4; fill: rgb(56,78,133); fill-rule: nonzero; opacity: 1;"  points="0.75,0.18 0.31,0.44 -0.75,-0.18 -0.31,-0.44 " />
</g>
<g transform="matrix(4 0 0 4 204.89 208.24)" id="Layer_1"  >
<polygon style="stroke: none; stroke-width: 1; stroke-dasharray: none; stroke-linecap: butt; stroke-dashoffset: 0; stroke-linejoin: miter; stroke-miterlimit: 4; fill: rgb(56,78,133); fill-rule: nonzero; opacity: 1;"  points="1.02,0.02 0.05,0.59 -1.02,-0.02 -0.05,-0.59 " />
</g>
<g transform="matrix(4 0 0 4 199.16 204.94)" id="Layer_1"  >
<polygon style="stroke: none; stroke-width: 1; stroke-dasharray: none; stroke-linecap: butt; stroke-dashoffset: 0; stroke-linejoin: miter; stroke-miterlimit: 4; fill: rgb(56,78,133); fill-rule: nonzero; opacity: 1;"  points="1.02,0.02 0.05,0.59 -1.02,-0.02 -0.05,-0.59 " />
</g>
<g transform="matrix(4 0 0 4 181.45 206.11)" id="Layer_1"  >
<polygon style="stroke: none; stroke-width: 1; stroke-dasharray: none; stroke-linecap: butt; stroke-dashoffset: 0; stroke-linejoin: miter; stroke-miterlimit: 4; fill: rgb(56,78,133); fill-rule: nonzero; opacity: 1;"  points="1.02,0.02 0.04,0.59 -1.02,-0.02 -0.04,-0.59 " />
</g>
<g transform="matrix(4 0 0 4 187.18 209.42)" id="Layer_1"  >
<polygon style="stroke: none; stroke-width: 1; stroke-dasharray: none; stroke-linecap: butt; stroke-dashoffset: 0; stroke-linejoin: miter; stroke-miterlimit: 4; fill: rgb(56,78,133); fill-rule: nonzero; opacity: 1;"  points="1.02,0.02 0.04,0.59 -1.02,-0.02 -0.04,-0.59 " />
</g>
<g transform="matrix(4 0 0 4 189.4 194.85)" id="Layer_1"  >
<polygon style="stroke: none; stroke-width: 1; stroke-dasharray: none; stroke-linecap: butt; stroke-dashoffset: 0; stroke-linejoin: miter; stroke-miterlimit: 4; fill: rgb(56,78,133); fill-rule: nonzero; opacity: 1;"  points="0.75,0.18 0.31,0.44 -0.75,-0.18 -0.31,-0.44 " />
</g>
<g transform="matrix(4 0 0 4 195.13 198.16)" id="Layer_1"  >
<polygon style="stroke: none; stroke-width: 1; stroke-dasharray: none; stroke-linecap: butt; stroke-dashoffset: 0; stroke-linejoin: miter; stroke-miterlimit: 4; fill: rgb(56,78,133); fill-rule: nonzero; opacity: 1;"  points="0.75,0.18 0.31,0.44 -0.75,-0.18 -0.31,-0.44 " />
</g>
<g transform="matrix(4 0 0 4 187.69 198.32)" id="Layer_1"  >
<polygon style="stroke: none; stroke-width: 1; stroke-dasharray: none; stroke-linecap: butt; stroke-dashoffset: 0; stroke-linejoin: miter; stroke-miterlimit: 4; fill: rgb(56,78,133); fill-rule: nonzero; opacity: 1;"  points="1.02,0.02 0.05,0.59 -1.02,-0.02 -0.05,-0.59 " />
</g>
<g transform="matrix(4 0 0 4 180.64 199.94)" id="Layer_1"  >
<polygon style="stroke: none; stroke-width: 1; stroke-dasharray: none; stroke-linecap: butt; stroke-dashoffset: 0; stroke-linejoin: miter; stroke-miterlimit: 4; fill: rgb(56,78,133); fill-rule: nonzero; opacity: 1;"  points="1.02,0.02 0.04,0.59 -1.02,-0.02 -0.04,-0.59 " />
</g>
<g transform="matrix(4 0 0 4 193.42 201.62)" id="Layer_1"  >
<polygon style="stroke: none; stroke-width: 1; stroke-dasharray: none; stroke-linecap: butt; stroke-dashoffset: 0; stroke-linejoin: miter; stroke-miterlimit: 4; fill: rgb(56,78,133); fill-rule: nonzero; opacity: 1;"  points="1.02,0.02 0.05,0.59 -1.02,-0.02 -0.05,-0.59 " />
</g>
<g transform="matrix(4 0 0 4 175.72 202.8)" id="Layer_1"  >
<polygon style="stroke: none; stroke-width: 1; stroke-dasharray: none; stroke-linecap: butt; stroke-dashoffset: 0; stroke-linejoin: miter; stroke-miterlimit: 4; fill: rgb(56,78,133); fill-rule: nonzero; opacity: 1;"  points="1.02,0.02 0.04,0.59 -1.02,-0.02 -0.04,-0.59 " />
</g>
<g transform="matrix(4 0 0 4 186.37 203.25)" id="Layer_1"  >
<polygon style="stroke: none; stroke-width: 1; stroke-dasharray: none; stroke-linecap: butt; stroke-dashoffset: 0; stroke-linejoin: miter; stroke-miterlimit: 4; fill: rgb(56,78,133); fill-rule: nonzero; opacity: 1;"  points="1.02,0.02 0.04,0.59 -1.02,-0.02 -0.04,-0.59 " />
</g>
<g transform="matrix(4 0 0 4 176.53 208.97)" id="Layer_1"  >
<polygon style="stroke: none; stroke-width: 1; stroke-dasharray: none; stroke-linecap: butt; stroke-dashoffset: 0; stroke-linejoin: miter; stroke-miterlimit: 4; fill: rgb(56,78,133); fill-rule: nonzero; opacity: 1;"  points="3.89,1.68 2.91,2.25 -3.89,-1.68 -2.91,-2.25 " />
</g>
<g transform="matrix(4 0 0 4 200.87 201.47)" id="Layer_1"  >
<polygon style="stroke: none; stroke-width: 1; stroke-dasharray: none; stroke-linecap: butt; stroke-dashoffset: 0; stroke-linejoin: miter; stroke-miterlimit: 4; fill: rgb(56,78,133); fill-rule: nonzero; opacity: 1;"  points="0.75,0.18 0.31,0.44 -0.75,-0.18 -0.31,-0.44 " />
</g>
<g transform="matrix(4 0 0 4 212.33 208.09)" id="Layer_1"  >
<polygon style="stroke: none; stroke-width: 1; stroke-dasharray: none; stroke-linecap: butt; stroke-dashoffset: 0; stroke-linejoin: miter; stroke-miterlimit: 4; fill: rgb(56,78,133); fill-rule: nonzero; opacity: 1;"  points="0.76,0.18 0.31,0.44 -0.76,-0.18 -0.31,-0.44 " />
</g>
<g transform="matrix(4 0 0 4 223.8 214.7)" id="Layer_1"  >
<polygon style="stroke: none; stroke-width: 1; stroke-dasharray: none; stroke-linecap: butt; stroke-dashoffset: 0; stroke-linejoin: miter; stroke-miterlimit: 4; fill: rgb(56,78,133); fill-rule: nonzero; opacity: 1;"  points="0.75,0.18 0.31,0.44 -0.75,-0.18 -0.31,-0.44 " />
</g>
<g transform="matrix(4 0 0 4 192.1 206.56)" id="Layer_1"  >
<polygon style="stroke: none; stroke-width: 1; stroke-dasharray: none; stroke-linecap: butt; stroke-dashoffset: 0; stroke-linejoin: miter; stroke-miterlimit: 4; fill: rgb(56,78,133); fill-rule: nonzero; opacity: 1;"  points="1.02,0.02 0.04,0.59 -1.02,-0.02 -0.04,-0.59 " />
</g>
<g transform="matrix(4 0 0 4 197.83 209.87)" id="Layer_1"  >
<polygon style="stroke: none; stroke-width: 1; stroke-dasharray: none; stroke-linecap: butt; stroke-dashoffset: 0; stroke-linejoin: miter; stroke-miterlimit: 4; fill: rgb(56,78,133); fill-rule: nonzero; opacity: 1;"  points="1.02,0.02 0.04,0.59 -1.02,-0.02 -0.04,-0.59 " />
</g>
<g transform="matrix(4 0 0 4 203.57 213.18)" id="Layer_1"  >
<polygon style="stroke: none; stroke-width: 1; stroke-dasharray: none; stroke-linecap: butt; stroke-dashoffset: 0; stroke-linejoin: miter; stroke-miterlimit: 4; fill: rgb(56,78,133); fill-rule: nonzero; opacity: 1;"  points="1.02,0.02 0.05,0.59 -1.02,-0.02 -0.05,-0.59 " />
</g>
<g transform="matrix(4 0 0 4 210.62 211.55)" id="Layer_1"  >
<polygon style="stroke: none; stroke-width: 1; stroke-dasharray: none; stroke-linecap: butt; stroke-dashoffset: 0; stroke-linejoin: miter; stroke-miterlimit: 4; fill: rgb(56,78,133); fill-rule: nonzero; opacity: 1;"  points="1.02,0.02 0.04,0.59 -1.02,-0.02 -0.04,-0.59 " />
</g>
<g transform="matrix(4 0 0 4 209.3 216.49)" id="Layer_1"  >
<polygon style="stroke: none; stroke-width: 1; stroke-dasharray: none; stroke-linecap: butt; stroke-dashoffset: 0; stroke-linejoin: miter; stroke-miterlimit: 4; fill: rgb(56,78,133); fill-rule: nonzero; opacity: 1;"  points="1.02,0.02 0.04,0.59 -1.02,-0.02 -0.04,-0.59 " />
</g>
<g transform="matrix(4 0 0 4 205.19 225.52)" id="Layer_1"  >
<polygon style="stroke: none; stroke-width: 1; stroke-dasharray: none; stroke-linecap: butt; stroke-dashoffset: 0; stroke-linejoin: miter; stroke-miterlimit: 4; fill: rgb(56,78,133); fill-rule: nonzero; opacity: 1;"  points="1.02,0.02 0.04,0.59 -1.02,-0.02 -0.04,-0.59 " />
</g>
<g transform="matrix(4 0 0 4 210.11 222.66)" id="Layer_1"  >
<polygon style="stroke: none; stroke-width: 1; stroke-dasharray: none; stroke-linecap: butt; stroke-dashoffset: 0; stroke-linejoin: miter; stroke-miterlimit: 4; fill: rgb(56,78,133); fill-rule: nonzero; opacity: 1;"  points="1.02,0.02 0.04,0.59 -1.02,-0.02 -0.04,-0.59 " />
</g>
<g transform="matrix(4 0 0 4 217.9 221.46)" id="Layer_1"  >
<polygon style="stroke: none; stroke-width: 1; stroke-dasharray: none; stroke-linecap: butt; stroke-dashoffset: 0; stroke-linejoin: miter; stroke-miterlimit: 4; fill: rgb(56,78,133); fill-rule: nonzero; opacity: 1;"  points="1.74,0.44 0.76,1.01 -1.74,-0.44 -0.76,-1.01 " />
</g>
<g transform="matrix(4 0 0 4 229.53 218.02)" id="Layer_1"  >
<polygon style="stroke: none; stroke-width: 1; stroke-dasharray: none; stroke-linecap: butt; stroke-dashoffset: 0; stroke-linejoin: miter; stroke-miterlimit: 4; fill: rgb(56,78,133); fill-rule: nonzero; opacity: 1;"  points="0.75,0.18 0.31,0.44 -0.75,-0.18 -0.31,-0.44 " />
</g>
<g transform="matrix(4 0 0 4 223.88 219.21)" id="Layer_1"  >
<polygon style="stroke: none; stroke-width: 1; stroke-dasharray: none; stroke-linecap: butt; stroke-dashoffset: 0; stroke-linejoin: miter; stroke-miterlimit: 4; fill: rgb(56,78,133); fill-rule: nonzero; opacity: 1;"  points="1.47,0.28 0.5,0.85 -1.47,-0.28 -0.5,-0.85 " />
</g>
<g transform="matrix(4 0 0 4 216.35 214.86)" id="Layer_1"  >
<polygon style="stroke: none; stroke-width: 1; stroke-dasharray: none; stroke-linecap: butt; stroke-dashoffset: 0; stroke-linejoin: miter; stroke-miterlimit: 4; fill: rgb(56,78,133); fill-rule: nonzero; opacity: 1;"  points="1.02,0.02 0.05,0.59 -1.02,-0.02 -0.05,-0.59 " />
</g>
<g transform="matrix(4 0 0 4 218.07 211.4)" id="Layer_1"  >
<polygon style="stroke: none; stroke-width: 1; stroke-dasharray: none; stroke-linecap: butt; stroke-dashoffset: 0; stroke-linejoin: miter; stroke-miterlimit: 4; fill: rgb(56,78,133); fill-rule: nonzero; opacity: 1;"  points="0.75,0.18 0.31,0.44 -0.75,-0.18 -0.31,-0.44 " />
</g>
<g transform="matrix(4 0 0 4 237.17 232.58)" id="Layer_1"  >
<polygon style="stroke: none; stroke-width: 1; stroke-dasharray: none; stroke-linecap: butt; stroke-dashoffset: 0; stroke-linejoin: miter; stroke-miterlimit: 4; fill: rgb(56,78,133); fill-rule: nonzero; opacity: 1;"  points="1.02,0.02 0.04,0.59 -1.02,-0.02 -0.04,-0.59 " />
</g>
<g transform="matrix(4 0 0 4 248.63 239.2)" id="Layer_1"  >
<polygon style="stroke: none; stroke-width: 1; stroke-dasharray: none; stroke-linecap: butt; stroke-dashoffset: 0; stroke-linejoin: miter; stroke-miterlimit: 4; fill: rgb(56,78,133); fill-rule: nonzero; opacity: 1;"  points="1.02,0.02 0.04,0.59 -1.02,-0.02 -0.04,-0.59 " />
</g>
<g transform="matrix(4 0 0 4 221.59 234.99)" id="Layer_1"  >
<polygon style="stroke: none; stroke-width: 1; stroke-dasharray: none; stroke-linecap: butt; stroke-dashoffset: 0; stroke-linejoin: miter; stroke-miterlimit: 4; fill: rgb(56,78,133); fill-rule: nonzero; opacity: 1;"  points="1.02,0.02 0.04,0.59 -1.02,-0.02 -0.04,-0.59 " />
</g>
<g transform="matrix(4 0 0 4 240.2 224.17)" id="Layer_1"  >
<polygon style="stroke: none; stroke-width: 1; stroke-dasharray: none; stroke-linecap: butt; stroke-dashoffset: 0; stroke-linejoin: miter; stroke-miterlimit: 4; fill: rgb(56,78,133); fill-rule: nonzero; opacity: 1;"  points="0.75,0.18 0.31,0.44 -0.75,-0.18 -0.31,-0.44 " />
</g>
<g transform="matrix(4 0 0 4 236.35 226.41)" id="Layer_1"  >
<polygon style="stroke: none; stroke-width: 1; stroke-dasharray: none; stroke-linecap: butt; stroke-dashoffset: 0; stroke-linejoin: miter; stroke-miterlimit: 4; fill: rgb(56,78,133); fill-rule: nonzero; opacity: 1;"  points="1.02,0.02 0.05,0.59 -1.02,-0.02 -0.05,-0.59 " />
</g>
<g transform="matrix(4 0 0 4 245.93 227.48)" id="Layer_1"  >
<polygon style="stroke: none; stroke-width: 1; stroke-dasharray: none; stroke-linecap: butt; stroke-dashoffset: 0; stroke-linejoin: miter; stroke-miterlimit: 4; fill: rgb(56,78,133); fill-rule: nonzero; opacity: 1;"  points="0.75,0.18 0.31,0.44 -0.75,-0.18 -0.31,-0.44 " />
</g>
<g transform="matrix(4 0 0 4 231.43 229.27)" id="Layer_1"  >
<polygon style="stroke: none; stroke-width: 1; stroke-dasharray: none; stroke-linecap: butt; stroke-dashoffset: 0; stroke-linejoin: miter; stroke-miterlimit: 4; fill: rgb(56,78,133); fill-rule: nonzero; opacity: 1;"  points="1.02,0.02 0.04,0.59 -1.02,-0.02 -0.04,-0.59 " />
</g>
<g transform="matrix(4 0 0 4 242.09 229.72)" id="Layer_1"  >
<polygon style="stroke: none; stroke-width: 1; stroke-dasharray: none; stroke-linecap: butt; stroke-dashoffset: 0; stroke-linejoin: miter; stroke-miterlimit: 4; fill: rgb(56,78,133); fill-rule: nonzero; opacity: 1;"  points="1.02,0.02 0.05,0.59 -1.02,-0.02 -0.05,-0.59 " />
</g>
<g transform="matrix(4 0 0 4 226.51 232.13)" id="Layer_1"  >
<polygon style="stroke: none; stroke-width: 1; stroke-dasharray: none; stroke-linecap: butt; stroke-dashoffset: 0; stroke-linejoin: miter; stroke-miterlimit: 4; fill: rgb(56,78,133); fill-rule: nonzero; opacity: 1;"  points="1.02,0.02 0.04,0.59 -1.02,-0.02 -0.04,-0.59 " />
</g>
<g transform="matrix(4 0 0 4 247.82 233.03)" id="Layer_1"  >
<polygon style="stroke: none; stroke-width: 1; stroke-dasharray: none; stroke-linecap: butt; stroke-dashoffset: 0; stroke-linejoin: miter; stroke-miterlimit: 4; fill: rgb(56,78,133); fill-rule: nonzero; opacity: 1;"  points="1.02,0.02 0.05,0.59 -1.02,-0.02 -0.05,-0.59 " />
</g>
<g transform="matrix(4 0 0 4 232.24 235.44)" id="Layer_1"  >
<polygon style="stroke: none; stroke-width: 1; stroke-dasharray: none; stroke-linecap: butt; stroke-dashoffset: 0; stroke-linejoin: miter; stroke-miterlimit: 4; fill: rgb(56,78,133); fill-rule: nonzero; opacity: 1;"  points="1.02,0.02 0.04,0.59 -1.02,-0.02 -0.04,-0.59 " />
</g>
<g transform="matrix(4 0 0 4 242.9 235.89)" id="Layer_1"  >
<polygon style="stroke: none; stroke-width: 1; stroke-dasharray: none; stroke-linecap: butt; stroke-dashoffset: 0; stroke-linejoin: miter; stroke-miterlimit: 4; fill: rgb(56,78,133); fill-rule: nonzero; opacity: 1;"  points="1.02,0.02 0.04,0.59 -1.02,-0.02 -0.04,-0.59 " />
</g>
<g transform="matrix(4 0 0 4 237.97 238.75)" id="Layer_1"  >
<polygon style="stroke: none; stroke-width: 1; stroke-dasharray: none; stroke-linecap: butt; stroke-dashoffset: 0; stroke-linejoin: miter; stroke-miterlimit: 4; fill: rgb(56,78,133); fill-rule: nonzero; opacity: 1;"  points="1.02,0.02 0.04,0.59 -1.02,-0.02 -0.04,-0.59 " />
</g>
<g transform="matrix(4 0 0 4 169.98 199.49)" id="Layer_1"  >
<polygon style="stroke: none; stroke-width: 1; stroke-dasharray: none; stroke-linecap: butt; stroke-dashoffset: 0; stroke-linejoin: miter; stroke-miterlimit: 4; fill: rgb(56,78,133); fill-rule: nonzero; opacity: 1;"  points="1.02,0.02 0.04,0.59 -1.02,-0.02 -0.04,-0.59 " />
</g>
<g transform="matrix(4 0 0 4 193.72 218.9)" id="Layer_1"  >
<polygon style="stroke: none; stroke-width: 1; stroke-dasharray: none; stroke-linecap: butt; stroke-dashoffset: 0; stroke-linejoin: miter; stroke-miterlimit: 4; fill: rgb(56,78,133); fill-rule: nonzero; opacity: 1;"  points="1.02,0.02 0.05,0.59 -1.02,-0.02 -0.05,-0.59 " />
</g>
<g transform="matrix(4 0 0 4 198.65 216.04)" id="Layer_1"  >
<polygon style="stroke: none; stroke-width: 1; stroke-dasharray: none; stroke-linecap: butt; stroke-dashoffset: 0; stroke-linejoin: miter; stroke-miterlimit: 4; fill: rgb(56,78,133); fill-rule: nonzero; opacity: 1;"  points="1.02,0.02 0.05,0.59 -1.02,-0.02 -0.05,-0.59 " />
</g>
<g transform="matrix(4 0 0 4 199.46 222.21)" id="Layer_1"  >
<polygon style="stroke: none; stroke-width: 1; stroke-dasharray: none; stroke-linecap: butt; stroke-dashoffset: 0; stroke-linejoin: miter; stroke-miterlimit: 4; fill: rgb(56,78,133); fill-rule: nonzero; opacity: 1;"  points="1.02,0.02 0.04,0.59 -1.02,-0.02 -0.04,-0.59 " />
</g>
<g transform="matrix(4 0 0 4 204.38 219.35)" id="Layer_1"  >
<polygon style="stroke: none; stroke-width: 1; stroke-dasharray: none; stroke-linecap: butt; stroke-dashoffset: 0; stroke-linejoin: miter; stroke-miterlimit: 4; fill: rgb(56,78,133); fill-rule: nonzero; opacity: 1;"  points="1.02,0.02 0.04,0.59 -1.02,-0.02 -0.04,-0.59 " />
</g>
<g transform="matrix(4 0 0 4 192.91 212.73)" id="Layer_1"  >
<polygon style="stroke: none; stroke-width: 1; stroke-dasharray: none; stroke-linecap: butt; stroke-dashoffset: 0; stroke-linejoin: miter; stroke-miterlimit: 4; fill: rgb(56,78,133); fill-rule: nonzero; opacity: 1;"  points="1.02,0.02 0.04,0.59 -1.02,-0.02 -0.04,-0.59 " />
</g>
<g transform="matrix(4 0 0 4 210.92 228.83)" id="Layer_1"  >
<polygon style="stroke: none; stroke-width: 1; stroke-dasharray: none; stroke-linecap: butt; stroke-dashoffset: 0; stroke-linejoin: miter; stroke-miterlimit: 4; fill: rgb(56,78,133); fill-rule: nonzero; opacity: 1;"  points="1.02,0.02 0.04,0.59 -1.02,-0.02 -0.04,-0.59 " />
</g>
<g transform="matrix(4 0 0 4 253.55 236.34)" id="Layer_1"  >
<polygon style="stroke: none; stroke-width: 1; stroke-dasharray: none; stroke-linecap: butt; stroke-dashoffset: 0; stroke-linejoin: miter; stroke-miterlimit: 4; fill: rgb(56,78,133); fill-rule: nonzero; opacity: 1;"  points="1.02,0.02 0.05,0.59 -1.02,-0.02 -0.05,-0.59 " />
</g>
<g transform="matrix(4 0 0 4 257.4 234.11)" id="Layer_1"  >
<polygon style="stroke: none; stroke-width: 1; stroke-dasharray: none; stroke-linecap: butt; stroke-dashoffset: 0; stroke-linejoin: miter; stroke-miterlimit: 4; fill: rgb(56,78,133); fill-rule: nonzero; opacity: 1;"  points="0.75,0.18 0.31,0.44 -0.75,-0.18 -0.31,-0.44 " />
</g>
<g transform="matrix(4 0 0 4 251.66 230.79)" id="Layer_1"  >
<polygon style="stroke: none; stroke-width: 1; stroke-dasharray: none; stroke-linecap: butt; stroke-dashoffset: 0; stroke-linejoin: miter; stroke-miterlimit: 4; fill: rgb(56,78,133); fill-rule: nonzero; opacity: 1;"  points="0.75,0.18 0.31,0.44 -0.75,-0.18 -0.31,-0.44 " />
</g>
<g transform="matrix(4 0 0 4 227.32 238.3)" id="Layer_1"  >
<polygon style="stroke: none; stroke-width: 1; stroke-dasharray: none; stroke-linecap: butt; stroke-dashoffset: 0; stroke-linejoin: miter; stroke-miterlimit: 4; fill: rgb(56,78,133); fill-rule: nonzero; opacity: 1;"  points="1.02,0.02 0.04,0.59 -1.02,-0.02 -0.04,-0.59 " />
</g>
<g transform="matrix(4 0 0 4 241.25 243.49)" id="Layer_1"  >
<polygon style="stroke: none; stroke-width: 1; stroke-dasharray: none; stroke-linecap: butt; stroke-dashoffset: 0; stroke-linejoin: miter; stroke-miterlimit: 4; fill: rgb(56,78,133); fill-rule: nonzero; opacity: 1;"  points="1.64,-0.33 -0.57,0.95 -1.64,0.33 0.57,-0.95 " />
</g>
<g transform="matrix(4 0 0 4 233.05 241.61)" id="Layer_1"  >
<polygon style="stroke: none; stroke-width: 1; stroke-dasharray: none; stroke-linecap: butt; stroke-dashoffset: 0; stroke-linejoin: miter; stroke-miterlimit: 4; fill: rgb(56,78,133); fill-rule: nonzero; opacity: 1;"  points="1.02,0.02 0.04,0.59 -1.02,-0.02 -0.04,-0.59 " />
</g>
<g transform="matrix(4 0 0 4 222.6 168.49)" id="Layer_1"  >
<path style="stroke: none; stroke-width: 1; stroke-dasharray: none; stroke-linecap: butt; stroke-dashoffset: 0; stroke-linejoin: miter; stroke-miterlimit: 4; fill: rgb(27,42,79); fill-rule: nonzero; opacity: 1;"  transform=" translate(-30.65, -17.12)" d="M 42.2873 14.8526 c 0.32841 0.18961 0.59378 0.64924 0.59271 1.02662 L 42.838 32.46009 c -0.00106 0.37515 -0.26817 0.52959 -0.59659 0.33998 L 19.01343 19.39065 c -0.32841 -0.18961 -0.59378 -0.65147 -0.59271 -1.02662 l 0.04202 -16.58087 c 0.00107 -0.37738 0.26817 -0.52959 0.59659 -0.33998 L 42.2873 14.8526 z" stroke-linecap="round" />
</g>
<g transform="matrix(4 0 0 4 224.28 167.68)" id="Layer_1"  >
<path style="stroke: none; stroke-width: 1; stroke-dasharray: none; stroke-linecap: butt; stroke-dashoffset: 0; stroke-linejoin: miter; stroke-miterlimit: 4; fill: rgb(56,78,133); fill-rule: nonzero; opacity: 1;"  transform=" translate(-31.07, -16.92)" d="M 43.50378 15.51782 l -0.04262 16.58023 c 0 0.18566 -0.06697 0.31959 -0.17349 0.38047 l -0.62298 0.36229 c 0.10654 -0.06086 0.1735 -0.19478 0.1735 -0.38047 l 0.04261 -16.58021 c 0 -0.37744 -0.2648 -0.83703 -0.59353 -1.02878 L 19.05919 1.44344 c -0.16437 -0.09435 -0.31351 -0.10348 -0.42308 -0.04262 l 0.62298 -0.36229 c 0.10652 -0.06088 0.25871 -0.05176 0.42306 0.0426 l 23.2281 13.41095 C 43.23898 14.6808 43.50378 15.1404 43.50378 15.51782 z" stroke-linecap="round" />
</g>
<g transform="matrix(4 0 0 4 222.6 168.49)" id="Layer_1"  >
<polygon style="stroke: none; stroke-width: 1; stroke-dasharray: none; stroke-linecap: butt; stroke-dashoffset: 0; stroke-linejoin: miter; stroke-miterlimit: 4; fill: rgb(217,221,246); fill-rule: nonzero; opacity: 1;"  points="11.39,-1.44 11.35,14.57 -11.39,1.44 -11.35,-14.57 " />
</g>
<g transform="matrix(4 0 0 4 187.68 125.97)" id="Layer_1"  >
<polygon style="stroke: none; stroke-width: 1; stroke-dasharray: none; stroke-linecap: butt; stroke-dashoffset: 0; stroke-linejoin: miter; stroke-miterlimit: 4; fill: rgb(170,186,253); fill-rule: nonzero; opacity: 1;"  points="0.28,-0.67 0.28,0.81 -0.01,0.65 -0.01,-0.48 -0.21,-0.48 -0.28,-0.81 0.04,-0.81 " />
</g>
<g transform="matrix(4 0 0 4 191.38 140.16)" id="Layer_1"  >
<polygon style="stroke: none; stroke-width: 1; stroke-dasharray: none; stroke-linecap: butt; stroke-dashoffset: 0; stroke-linejoin: miter; stroke-miterlimit: 4; fill: rgb(170,186,253); fill-rule: nonzero; opacity: 1;"  points="0.28,-0.67 0.28,0.81 -0.01,0.65 -0.01,-0.48 -0.21,-0.48 -0.28,-0.81 0.04,-0.81 " />
</g>
<g transform="matrix(4 0 0 4 199.02 137.84)" id="Layer_1"  >
<polygon style="stroke: none; stroke-width: 1; stroke-dasharray: none; stroke-linecap: butt; stroke-dashoffset: 0; stroke-linejoin: miter; stroke-miterlimit: 4; fill: rgb(170,186,253); fill-rule: nonzero; opacity: 1;"  points="0.28,-0.67 0.28,0.81 -0.01,0.64 -0.02,-0.48 -0.21,-0.48 -0.28,-0.81 0.04,-0.81 " />
</g>
<g transform="matrix(4 0 0 4 204.71 144.55)" id="Layer_1"  >
<path style="stroke: none; stroke-width: 1; stroke-dasharray: none; stroke-linecap: butt; stroke-dashoffset: 0; stroke-linejoin: miter; stroke-miterlimit: 4; fill: rgb(170,186,253); fill-rule: nonzero; opacity: 1;"  transform=" translate(-26.18, -11.14)" d="M 26.47738 10.69057 c 0.13032 0.21181 0.19646 0.46444 0.19657 0.75045 c 0.00051 0.47614 -0.16802 0.6413 -0.47393 0.46576 c -0.07416 -0.04282 -0.13807 -0.09892 -0.19083 -0.15712 c -0.05091 -0.05607 -0.09067 -0.11317 -0.12118 -0.16279 c -0.13216 -0.21501 -0.202 -0.47191 -0.20582 -0.76219 c -0.00057 -0.45271 0.18099 -0.62955 0.47392 -0.46043 C 26.31093 10.45363 26.41639 10.59134 26.47738 10.69057 z M 26.14426 11.60144 c 0.14925 0.0851 0.23414 -0.05686 0.23416 -0.38974 c -0.00024 -0.24233 -0.04713 -0.4049 -0.09149 -0.47746 c -0.00278 -0.0048 -0.00925 -0.01494 -0.02035 -0.02775 c -0.01203 -0.01335 -0.02963 -0.02885 -0.05466 -0.0433 c -0.10845 -0.06262 -0.23399 0.00467 -0.23418 0.39613 c 0.00027 0.23381 0.04994 0.39799 0.09615 0.47375 C 26.08128 11.54374 26.09976 11.57574 26.14426 11.60144" stroke-linecap="round" />
</g>
<g transform="matrix(4 0 0 4 185.53 144.19)" id="Layer_1"  >
<path style="stroke: none; stroke-width: 1; stroke-dasharray: none; stroke-linecap: butt; stroke-dashoffset: 0; stroke-linejoin: miter; stroke-miterlimit: 4; fill: rgb(170,186,253); fill-rule: nonzero; opacity: 1;"  transform=" translate(-21.38, -11.05)" d="M 21.34135 10.1952 c 0.13974 0.08068 0.25486 0.19513 0.34353 0.33919 c 0.08688 0.14191 0.13473 0.29437 0.13527 0.43018 c -0.00073 0.25884 -0.17652 0.36433 -0.42847 0.4792 l 0.46443 0.26707 l -0.00079 0.27908 l -0.9446 -0.5443 l 0.00064 -0.22475 l 0.14409 -0.06191 c 0.33094 -0.13755 0.46861 -0.22557 0.46913 -0.41091 c -0.00074 -0.06658 -0.0173 -0.11882 -0.03394 -0.14549 c -0.02049 -0.03343 -0.06599 -0.07336 -0.12073 -0.10497 c -0.00204 -0.00118 -0.0041 -0.00235 -0.00617 -0.00351 c -0.08343 -0.04817 -0.16788 -0.06172 -0.25058 -0.04012 l -0.06133 0.01581 l -0.11508 -0.34811 l 0.01951 -0.0058 c 0.07805 -0.02002 0.20712 -0.02339 0.38047 0.0767 C 21.33828 10.19343 21.33981 10.1943 21.34135 10.1952 z" stroke-linecap="round" />
</g>
<g transform="matrix(4 0 0 4 191.91 152.89)" id="Layer_1"  >
<path style="stroke: none; stroke-width: 1; stroke-dasharray: none; stroke-linecap: butt; stroke-dashoffset: 0; stroke-linejoin: miter; stroke-miterlimit: 4; fill: rgb(170,186,253); fill-rule: nonzero; opacity: 1;"  transform=" translate(-22.98, -13.22)" d="M 23.27835 12.77202 c 0.12939 0.21128 0.19553 0.46391 0.19565 0.74885 c 0.0005 0.4804 -0.16804 0.64876 -0.47302 0.47268 c -0.07508 -0.04335 -0.13807 -0.09892 -0.19083 -0.15712 c -0.05091 -0.05607 -0.09067 -0.11317 -0.12118 -0.16172 c -0.13309 -0.21661 -0.20292 -0.47564 -0.20673 -0.77018 c 0.00035 -0.45217 0.18098 -0.62849 0.47391 -0.46043 C 23.11097 12.53348 23.21643 12.67119 23.27835 12.77202 z M 22.94428 13.68769 c 0.14924 0.08616 0.23414 -0.05687 0.23416 -0.38974 c -0.00024 -0.2434 -0.04621 -0.40544 -0.09057 -0.47693 l -0.02035 -0.02668 c -0.01481 -0.01709 -0.03333 -0.03205 -0.05558 -0.04489 c -0.10753 -0.06208 -0.234 0.00467 -0.23418 0.39612 c 0.00027 0.23381 0.04994 0.39799 0.09708 0.47428 C 22.88131 13.62998 22.90071 13.66253 22.94428 13.68769" stroke-linecap="round" />
</g>
<g transform="matrix(4 0 0 4 198.32 149.82)" id="Layer_1"  >
<polygon style="stroke: none; stroke-width: 1; stroke-dasharray: none; stroke-linecap: butt; stroke-dashoffset: 0; stroke-linejoin: miter; stroke-miterlimit: 4; fill: rgb(170,186,253); fill-rule: nonzero; opacity: 1;"  points="0.28,-0.66 0.28,0.81 -0.01,0.64 -0.02,-0.47 -0.21,-0.47 -0.28,-0.81 0.04,-0.8 " />
</g>
<g transform="matrix(4 0 0 4 204.71 158.5)" id="Layer_1"  >
<path style="stroke: none; stroke-width: 1; stroke-dasharray: none; stroke-linecap: butt; stroke-dashoffset: 0; stroke-linejoin: miter; stroke-miterlimit: 4; fill: rgb(170,186,253); fill-rule: nonzero; opacity: 1;"  transform=" translate(-26.18, -14.63)" d="M 26.47679 14.1748 c 0.13032 0.21287 0.19645 0.46551 0.19657 0.75044 c -0.00043 0.47987 -0.16804 0.64877 -0.47395 0.47215 c -0.07416 -0.04282 -0.13807 -0.09892 -0.1899 -0.15659 c -0.05091 -0.05606 -0.0916 -0.1137 -0.12117 -0.16171 c -0.13403 -0.21608 -0.20292 -0.47564 -0.20673 -0.77018 c -0.00057 -0.45271 0.18098 -0.62849 0.47299 -0.46097 C 26.30941 13.93733 26.41579 14.07557 26.47679 14.1748 z M 26.14364 15.09206 c 0.14832 0.08457 0.23415 -0.05687 0.23416 -0.38974 c -0.00024 -0.2434 -0.04713 -0.40596 -0.09057 -0.47692 l -0.02035 -0.02669 c -0.01574 -0.01762 -0.03426 -0.03259 -0.05651 -0.04543 c -0.10753 -0.06208 -0.234 0.00467 -0.23325 0.39666 c -0.00066 0.23328 0.04994 0.39799 0.09615 0.47375 C 26.07974 15.03383 26.10008 15.06691 26.14364 15.09206" stroke-linecap="round" />
</g>
<g transform="matrix(4 0 0 4 189.34 172.8)" id="Layer_1"  >
<path style="stroke: none; stroke-width: 1; stroke-dasharray: none; stroke-linecap: butt; stroke-dashoffset: 0; stroke-linejoin: miter; stroke-miterlimit: 4; fill: rgb(170,186,253); fill-rule: nonzero; opacity: 1;"  transform=" translate(-22.33, -18.2)" d="M 22.63379 17.74944 c 0.13031 0.21287 0.19645 0.46551 0.19657 0.75151 c 0.00051 0.47721 -0.16802 0.64237 -0.473 0.46629 c -0.00187 -0.00105 -0.00373 -0.00212 -0.00559 -0.00319 c -0.07174 -0.04142 -0.13288 -0.09664 -0.18431 -0.15233 c -0.0509 -0.05713 -0.09159 -0.11477 -0.1221 -0.16438 c -0.13309 -0.21553 -0.20293 -0.47245 -0.20675 -0.76272 c 0.00035 -0.45217 0.18376 -0.62688 0.47948 -0.45722 C 22.46918 17.51464 22.57371 17.65074 22.63379 17.74944 z M 22.30712 18.67151 c 0.14739 0.0851 0.22765 -0.05741 0.22768 -0.39881 c -0.00025 -0.23913 -0.04622 -0.40011 -0.08966 -0.47 l -0.02127 -0.02829 c -0.01481 -0.01708 -0.03334 -0.03098 -0.05559 -0.04383 c -0.11031 -0.06369 -0.22843 0.00575 -0.22766 0.39242 c -0.00068 0.23967 0.04806 0.40437 0.09428 0.47906 C 22.24137 18.61221 22.26077 18.64475 22.30712 18.67151" stroke-linecap="round" />
</g>
<g transform="matrix(4 0 0 4 184.89 158.34)" id="Layer_1"  >
<path style="stroke: none; stroke-width: 1; stroke-dasharray: none; stroke-linecap: butt; stroke-dashoffset: 0; stroke-linejoin: miter; stroke-miterlimit: 4; fill: rgb(170,186,253); fill-rule: nonzero; opacity: 1;"  transform=" translate(-21.22, -14.58)" d="M 21.52147 14.13373 c 0.13031 0.21287 0.19645 0.46551 0.19657 0.75257 c 0.00051 0.47615 -0.16802 0.64131 -0.473 0.46523 c -0.07602 -0.04389 -0.13992 -0.09999 -0.19268 -0.15819 c -0.05091 -0.05607 -0.0916 -0.1137 -0.12117 -0.16171 c -0.13217 -0.21395 -0.20108 -0.47032 -0.20489 -0.76272 c 0.00035 -0.45217 0.18376 -0.62688 0.47948 -0.45721 C 21.35686 13.89893 21.4614 14.03503 21.52147 14.13373 z M 21.19481 15.0558 c 0.14739 0.08403 0.22764 -0.05742 0.22769 -0.39987 c -0.00025 -0.23914 -0.04622 -0.39905 -0.08966 -0.47 l -0.02128 -0.02722 c -0.01481 -0.01708 -0.03334 -0.03205 -0.05559 -0.0449 c -0.10753 -0.06102 -0.23399 0.00254 -0.23416 0.38974 c 0.00026 0.237 0.04992 0.40224 0.09706 0.47854 C 21.12535 14.99329 21.1466 15.02797 21.19481 15.0558" stroke-linecap="round" />
</g>
<g transform="matrix(4 0 0 4 196.49 166.98)" id="Layer_1"  >
<path style="stroke: none; stroke-width: 1; stroke-dasharray: none; stroke-linecap: butt; stroke-dashoffset: 0; stroke-linejoin: miter; stroke-miterlimit: 4; fill: rgb(170,186,253); fill-rule: nonzero; opacity: 1;"  transform=" translate(-24.12, -16.74)" d="M 24.42343 16.29463 c 0.13032 0.2118 0.19553 0.46391 0.19564 0.75097 c 0.00051 0.4772 -0.16802 0.64237 -0.473 0.46629 c -0.07601 -0.04388 -0.13992 -0.09999 -0.19268 -0.15819 c -0.05091 -0.05606 -0.0916 -0.1137 -0.12117 -0.16171 c -0.13217 -0.21501 -0.20015 -0.46977 -0.2049 -0.76272 c 0.00035 -0.45217 0.18377 -0.62688 0.47948 -0.45722 C 24.26024 16.06064 24.36285 16.19608 24.42343 16.29463 z M 24.09028 17.21188 c 0.14832 0.08563 0.23415 -0.05793 0.23325 -0.3956 c 0.00067 -0.23754 -0.04622 -0.39904 -0.08966 -0.47 c -0.01756 -0.02827 -0.04349 -0.05285 -0.07686 -0.07211 c -0.10753 -0.06208 -0.23399 0.00254 -0.23416 0.38973 c 0.00025 0.23808 0.05085 0.40492 0.09706 0.48067 c 0.00631 0.00989 0.02583 0.04162 0.06725 0.06553 C 24.08818 17.2107 24.08922 17.2113 24.09028 17.21188" stroke-linecap="round" />
</g>
<g transform="matrix(4 0 0 4 204.71 170.91)" id="Layer_1"  >
<path style="stroke: none; stroke-width: 1; stroke-dasharray: none; stroke-linecap: butt; stroke-dashoffset: 0; stroke-linejoin: miter; stroke-miterlimit: 4; fill: rgb(170,186,253); fill-rule: nonzero; opacity: 1;"  transform=" translate(-26.18, -17.73)" d="M 26.47727 17.27983 c 0.12939 0.21127 0.19553 0.46391 0.19565 0.74991 c 0.00051 0.47615 -0.16802 0.64131 -0.473 0.46523 c -0.00202 -0.00114 -0.00402 -0.00228 -0.00602 -0.00343 c -0.07337 -0.04236 -0.13531 -0.09706 -0.18666 -0.15476 c -0.05091 -0.055 -0.0916 -0.11263 -0.12117 -0.16171 c -0.13217 -0.21395 -0.20108 -0.47032 -0.2049 -0.76272 c 0.00035 -0.45217 0.18191 -0.62795 0.47391 -0.45936 C 26.31134 17.04319 26.41578 17.17969 26.47727 17.27983 z M 26.1432 18.19549 c 0.14924 0.08616 0.23414 -0.05793 0.23417 -0.39506 c -0.00025 -0.23913 -0.04622 -0.40011 -0.08966 -0.47 l -0.02035 -0.02775 c -0.01574 -0.01656 -0.03427 -0.03152 -0.05651 -0.04436 c -0.10753 -0.06208 -0.23399 0.00253 -0.23415 0.38867 c 0.00025 0.23913 0.05085 0.40491 0.09705 0.48174 C 26.08022 18.13886 26.09963 18.17034 26.1432 18.19549" stroke-linecap="round" />
</g>
<g transform="matrix(4 0 0 4 212.27 139.37)" id="Layer_1"  >
<path style="stroke: none; stroke-width: 1; stroke-dasharray: none; stroke-linecap: butt; stroke-dashoffset: 0; stroke-linejoin: miter; stroke-miterlimit: 4; fill: rgb(170,186,253); fill-rule: nonzero; opacity: 1;"  transform=" translate(-28.07, -9.84)" d="M 28.36778 9.39741 c 0.13032 0.21181 0.19553 0.46391 0.19565 0.74885 c 0.00053 0.46975 -0.17451 0.63862 -0.47949 0.46255 c -0.07231 -0.04175 -0.13529 -0.09731 -0.18712 -0.15391 c -0.05091 -0.05713 -0.09252 -0.11637 -0.12303 -0.16492 c -0.13216 -0.21607 -0.20198 -0.4783 -0.20211 -0.76111 c 0.00035 -0.45111 0.18191 -0.62689 0.47391 -0.45936 C 28.20039 9.15887 28.30585 9.29657 28.36778 9.39741 z M 28.03372 10.30668 c 0.14924 0.08617 0.23414 -0.0558 0.23416 -0.38974 c 0.00068 -0.23967 -0.04714 -0.40277 -0.09151 -0.47533 l -0.0222 -0.02989 c -0.01574 -0.01656 -0.03519 -0.03206 -0.05837 -0.04544 c -0.11402 -0.06583 -0.2285 0.03238 -0.22861 0.39827 c 0.00026 0.23595 0.04901 0.39852 0.0943 0.47268 C 27.96796 10.24737 27.9883 10.28045 28.03372 10.30668" stroke-linecap="round" />
</g>
<g transform="matrix(4 0 0 4 217.26 154.15)" id="Layer_1"  >
<path style="stroke: none; stroke-width: 1; stroke-dasharray: none; stroke-linecap: butt; stroke-dashoffset: 0; stroke-linejoin: miter; stroke-miterlimit: 4; fill: rgb(170,186,253); fill-rule: nonzero; opacity: 1;"  transform=" translate(-29.32, -13.54)" d="M 29.61821 13.09286 c 0.13032 0.21181 0.19646 0.46445 0.19657 0.75045 c -0.0004 0.46815 -0.17544 0.63702 -0.47949 0.46255 c -0.07323 -0.04228 -0.13621 -0.09785 -0.18805 -0.15551 c -0.05091 -0.05606 -0.0916 -0.1137 -0.1221 -0.16332 c -0.13217 -0.21501 -0.20477 -0.47885 -0.2086 -0.76486 c 0.00035 -0.45217 0.18377 -0.62688 0.47947 -0.45615 C 29.45082 12.85539 29.55629 12.99203 29.61821 13.09286 z M 29.28508 14.00267 c 0.14647 0.08456 0.22764 -0.05528 0.22767 -0.39242 c -0.00006 -0.30731 -0.06745 -0.44118 -0.08871 -0.47586 c -0.01663 -0.02774 -0.04349 -0.05285 -0.07779 -0.07265 c -0.1131 -0.06423 -0.22851 0.03237 -0.22769 0.3988 c -0.00067 0.23541 0.04808 0.39905 0.09337 0.47214 C 29.2184 13.9439 29.23873 13.97591 29.28508 14.00267" stroke-linecap="round" />
</g>
<g transform="matrix(4 0 0 4 222.98 146.82)" id="Layer_1"  >
<path style="stroke: none; stroke-width: 1; stroke-dasharray: none; stroke-linecap: butt; stroke-dashoffset: 0; stroke-linejoin: miter; stroke-miterlimit: 4; fill: rgb(170,186,253); fill-rule: nonzero; opacity: 1;"  transform=" translate(-30.74, -11.7)" d="M 31.04774 11.26049 c 0.13032 0.21074 0.19553 0.46284 0.19565 0.74885 c 0.00052 0.46975 -0.17451 0.63863 -0.47949 0.46255 c -0.07231 -0.04175 -0.13529 -0.09731 -0.18712 -0.15391 c -0.05091 -0.05713 -0.09252 -0.1153 -0.1221 -0.16438 c -0.13309 -0.21448 -0.20477 -0.47884 -0.2086 -0.7638 c -0.00058 -0.4527 0.18376 -0.62688 0.47948 -0.45721 C 30.88035 11.02195 30.98581 11.15966 31.04774 11.26049 z M 30.71368 12.16976 c 0.14553 0.08295 0.22858 -0.06008 0.22859 -0.39295 c -0.00024 -0.24233 -0.04713 -0.40491 -0.09149 -0.47746 c -0.00278 -0.0048 -0.00924 -0.01494 -0.02035 -0.02668 c -0.01204 -0.01335 -0.02963 -0.02991 -0.05466 -0.04436 c -0.13905 -0.07922 -0.22863 0.07712 -0.22861 0.39934 c 0.00026 0.23594 0.04901 0.39852 0.0943 0.47268 C 30.64792 12.11045 30.66733 12.143 30.71368 12.16976" stroke-linecap="round" />
</g>
<g transform="matrix(4 0 0 4 228.64 157.52)" id="Layer_1"  >
<polygon style="stroke: none; stroke-width: 1; stroke-dasharray: none; stroke-linecap: butt; stroke-dashoffset: 0; stroke-linejoin: miter; stroke-miterlimit: 4; fill: rgb(170,186,253); fill-rule: nonzero; opacity: 1;"  points="0.28,-0.67 0.28,0.81 -0.01,0.64 -0.01,-0.48 -0.21,-0.48 -0.28,-0.81 0.04,-0.81 " />
</g>
<g transform="matrix(4 0 0 4 234.35 151.96)" id="Layer_1"  >
<polygon style="stroke: none; stroke-width: 1; stroke-dasharray: none; stroke-linecap: butt; stroke-dashoffset: 0; stroke-linejoin: miter; stroke-miterlimit: 4; fill: rgb(170,186,253); fill-rule: nonzero; opacity: 1;"  points="0.28,-0.67 0.28,0.81 -0.01,0.64 -0.01,-0.48 -0.21,-0.48 -0.28,-0.81 0.04,-0.81 " />
</g>
<g transform="matrix(4 0 0 4 240.02 162.31)" id="Layer_1"  >
<polygon style="stroke: none; stroke-width: 1; stroke-dasharray: none; stroke-linecap: butt; stroke-dashoffset: 0; stroke-linejoin: miter; stroke-miterlimit: 4; fill: rgb(170,186,253); fill-rule: nonzero; opacity: 1;"  points="0.28,-0.67 0.28,0.81 -0.01,0.65 -0.01,-0.48 -0.21,-0.48 -0.28,-0.81 0.04,-0.81 " />
</g>
<g transform="matrix(4 0 0 4 250.31 165.36)" id="Layer_1"  >
<polygon style="stroke: none; stroke-width: 1; stroke-dasharray: none; stroke-linecap: butt; stroke-dashoffset: 0; stroke-linejoin: miter; stroke-miterlimit: 4; fill: rgb(170,186,253); fill-rule: nonzero; opacity: 1;"  points="0.28,-0.67 0.28,0.81 -0.01,0.64 -0.01,-0.48 -0.21,-0.48 -0.28,-0.81 0.04,-0.81 " />
</g>
<g transform="matrix(4 0 0 4 257.6 180.15)" id="Layer_1"  >
<polygon style="stroke: none; stroke-width: 1; stroke-dasharray: none; stroke-linecap: butt; stroke-dashoffset: 0; stroke-linejoin: miter; stroke-miterlimit: 4; fill: rgb(170,186,253); fill-rule: nonzero; opacity: 1;"  points="0.28,-0.67 0.28,0.81 -0.01,0.64 -0.02,-0.48 -0.21,-0.48 -0.28,-0.81 0.04,-0.81 " />
</g>
<g transform="matrix(4 0 0 4 261.58 166.54)" id="Layer_1"  >
<path style="stroke: none; stroke-width: 1; stroke-dasharray: none; stroke-linecap: butt; stroke-dashoffset: 0; stroke-linejoin: miter; stroke-miterlimit: 4; fill: rgb(170,186,253); fill-rule: nonzero; opacity: 1;"  transform=" translate(-40.39, -16.63)" d="M 40.69403 16.18716 c 0.13032 0.21181 0.19645 0.46444 0.19657 0.75044 c 0.00051 0.47614 -0.16802 0.6413 -0.473 0.46522 c -0.00189 -0.00106 -0.00378 -0.00215 -0.00566 -0.00323 c -0.07265 -0.04194 -0.13464 -0.09767 -0.18517 -0.15389 c -0.05091 -0.05606 -0.0916 -0.1137 -0.1221 -0.16225 c -0.13217 -0.21501 -0.20201 -0.47192 -0.20582 -0.76325 c 0.00035 -0.45217 0.18098 -0.62849 0.47392 -0.46043 C 40.52757 15.94916 40.63303 16.08686 40.69403 16.18716 z M 40.3609 17.09697 c 0.14924 0.08616 0.23415 -0.0558 0.23416 -0.38867 c -0.00024 -0.24339 -0.04713 -0.40597 -0.0915 -0.47746 c -0.00277 -0.00587 -0.00924 -0.016 -0.02035 -0.02775 c -0.01203 -0.01335 -0.02962 -0.02884 -0.05466 -0.04329 c -0.10845 -0.06262 -0.23399 0.0036 -0.23417 0.39506 c 0.00027 0.23381 0.04994 0.39799 0.09708 0.47428 C 40.29792 17.04033 40.31733 17.07181 40.3609 17.09697" stroke-linecap="round" />
</g>
<g transform="matrix(4 0 0 4 212.99 167.64)" id="Layer_1"  >
<path style="stroke: none; stroke-width: 1; stroke-dasharray: none; stroke-linecap: butt; stroke-dashoffset: 0; stroke-linejoin: miter; stroke-miterlimit: 4; fill: rgb(170,186,253); fill-rule: nonzero; opacity: 1;"  transform=" translate(-28.25, -16.91)" d="M 28.54831 16.45906 c 0.12939 0.21127 0.19553 0.46391 0.19565 0.74991 c 0.0005 0.4804 -0.16804 0.6477 -0.47302 0.47269 c -0.07508 -0.04335 -0.13899 -0.10052 -0.19175 -0.15872 c -0.05276 -0.05713 -0.09345 -0.11583 -0.12395 -0.16545 c -0.13494 -0.21981 -0.20292 -0.47671 -0.20303 -0.76591 c 0.00035 -0.45217 0.18191 -0.62795 0.47391 -0.45936 C 28.38235 16.2224 28.48681 16.35997 28.54831 16.45906 z M 28.21424 17.37472 c 0.14924 0.08616 0.23414 -0.0558 0.23416 -0.38867 c -0.00024 -0.2434 -0.04621 -0.40544 -0.08964 -0.47639 l -0.02127 -0.02829 c -0.01481 -0.01708 -0.03334 -0.03099 -0.05559 -0.04383 c -0.10753 -0.06208 -0.234 0.00467 -0.23417 0.39506 c 0.00026 0.23381 0.04994 0.39799 0.09708 0.47428 C 28.15126 17.31808 28.17067 17.34956 28.21424 17.37472" stroke-linecap="round" />
</g>
<g transform="matrix(4 0 0 4 219.4 164.57)" id="Layer_1"  >
<polygon style="stroke: none; stroke-width: 1; stroke-dasharray: none; stroke-linecap: butt; stroke-dashoffset: 0; stroke-linejoin: miter; stroke-miterlimit: 4; fill: rgb(170,186,253); fill-rule: nonzero; opacity: 1;"  points="0.28,-0.66 0.28,0.81 -0.01,0.64 -0.02,-0.47 -0.21,-0.47 -0.28,-0.81 0.04,-0.8 " />
</g>
<g transform="matrix(4 0 0 4 211.04 155.94)" id="Layer_1"  >
<polygon style="stroke: none; stroke-width: 1; stroke-dasharray: none; stroke-linecap: butt; stroke-dashoffset: 0; stroke-linejoin: miter; stroke-miterlimit: 4; fill: rgb(170,186,253); fill-rule: nonzero; opacity: 1;"  points="0.28,-0.66 0.28,0.81 -0.01,0.64 -0.01,-0.47 -0.21,-0.47 -0.28,-0.81 0.04,-0.8 " />
</g>
<g transform="matrix(4 0 0 4 225.79 173.25)" id="Layer_1"  >
<path style="stroke: none; stroke-width: 1; stroke-dasharray: none; stroke-linecap: butt; stroke-dashoffset: 0; stroke-linejoin: miter; stroke-miterlimit: 4; fill: rgb(170,186,253); fill-rule: nonzero; opacity: 1;"  transform=" translate(-31.45, -18.31)" d="M 31.74675 17.8629 c 0.13032 0.21181 0.19646 0.46445 0.19658 0.75045 c -0.00043 0.47987 -0.16804 0.6477 -0.47395 0.47108 c -0.00197 -0.00111 -0.00393 -0.00222 -0.00588 -0.00335 c -0.07166 -0.04137 -0.13357 -0.09603 -0.18402 -0.15217 c -0.05091 -0.05606 -0.0916 -0.1137 -0.12117 -0.16278 c -0.13309 -0.21554 -0.20293 -0.47458 -0.20673 -0.77018 c -0.00058 -0.45271 0.18098 -0.62848 0.47298 -0.4599 C 31.58171 17.62678 31.68617 17.76435 31.74675 17.8629 z M 31.41361 18.77909 c 0.14832 0.08563 0.23414 -0.0558 0.23416 -0.38867 c -0.00024 -0.2434 -0.04713 -0.40597 -0.09057 -0.47693 l -0.02035 -0.02776 c -0.01573 -0.01762 -0.03426 -0.03152 -0.05558 -0.04383 c -0.10846 -0.06262 -0.234 0.00467 -0.23417 0.39506 c 0.00026 0.23381 0.04994 0.39799 0.09615 0.47374 C 31.3497 18.72193 31.37004 18.75394 31.41361 18.77909" stroke-linecap="round" />
</g>
<g transform="matrix(4 0 0 4 232.21 170.17)" id="Layer_1"  >
<path style="stroke: none; stroke-width: 1; stroke-dasharray: none; stroke-linecap: butt; stroke-dashoffset: 0; stroke-linejoin: miter; stroke-miterlimit: 4; fill: rgb(170,186,253); fill-rule: nonzero; opacity: 1;"  transform=" translate(-33.05, -17.54)" d="M 33.01002 16.69098 c 0.13886 0.08018 0.25488 0.19514 0.34356 0.3392 c 0.08688 0.14191 0.13473 0.29437 0.13435 0.42965 c 0.00019 0.25937 -0.17652 0.36433 -0.42847 0.4792 l 0.46442 0.26707 l -0.00079 0.27908 l -0.94368 -0.54377 l -0.00029 -0.22529 l 0.1441 -0.06191 c 0.33094 -0.13754 0.46953 -0.22504 0.46913 -0.41091 c 0.00019 -0.06604 -0.01731 -0.11775 -0.03394 -0.14549 c -0.02055 -0.03248 -0.06621 -0.07348 -0.12113 -0.10519 c -0.00191 -0.0011 -0.00384 -0.0022 -0.00577 -0.00328 c -0.08343 -0.04817 -0.16788 -0.06172 -0.25058 -0.04012 l -0.06041 0.0174 l -0.116 -0.34971 l 0.02044 -0.0042 c 0.07713 -0.02162 0.2062 -0.02498 0.38047 0.07563 C 33.00697 16.68922 33.00848 16.69009 33.01002 16.69098 z" stroke-linecap="round" />
</g>
<g transform="matrix(4 0 0 4 243.81 190)" id="Layer_1"  >
<path style="stroke: none; stroke-width: 1; stroke-dasharray: none; stroke-linecap: butt; stroke-dashoffset: 0; stroke-linejoin: miter; stroke-miterlimit: 4; fill: rgb(170,186,253); fill-rule: nonzero; opacity: 1;"  transform=" translate(-35.95, -22.5)" d="M 35.90595 21.64589 c 0.14183 0.08189 0.2585 0.19619 0.34815 0.34291 c 0.08688 0.14191 0.13472 0.29437 0.13434 0.42965 c 0.00019 0.25937 -0.17652 0.36433 -0.42754 0.47867 l 0.4635 0.26653 l 0.00013 0.27961 l -0.94461 -0.54323 l -0.00029 -0.22529 l 0.14502 -0.06137 c 0.33001 -0.13915 0.46861 -0.22664 0.4682 -0.41145 c 0.00019 -0.06604 -0.0173 -0.11882 -0.03394 -0.14549 c -0.02125 -0.03468 -0.06849 -0.07582 -0.12597 -0.109 c -0.08343 -0.04817 -0.16789 -0.06066 -0.25059 -0.03905 l -0.06133 0.0158 l -0.11507 -0.34811 l 0.01951 -0.00581 C 35.60353 21.55024 35.7326 21.54688 35.90595 21.64589 z" stroke-linecap="round" />
</g>
<g transform="matrix(4 0 0 4 238.58 178.87)" id="Layer_1"  >
<path style="stroke: none; stroke-width: 1; stroke-dasharray: none; stroke-linecap: butt; stroke-dashoffset: 0; stroke-linejoin: miter; stroke-miterlimit: 4; fill: rgb(170,186,253); fill-rule: nonzero; opacity: 1;"  transform=" translate(-34.65, -19.72)" d="M 34.94612 19.26728 c 0.13032 0.21181 0.19553 0.4639 0.19565 0.74884 c 0.0005 0.4804 -0.16804 0.6477 -0.47302 0.47268 c -0.07508 -0.04335 -0.13807 -0.09892 -0.19083 -0.15711 c -0.05091 -0.05607 -0.09068 -0.11317 -0.12118 -0.16172 c -0.13309 -0.2166 -0.20292 -0.47564 -0.20673 -0.77018 c 0.00035 -0.45217 0.18191 -0.62795 0.47392 -0.46043 C 34.77874 19.02875 34.8842 19.16645 34.94612 19.26728 z M 34.61205 20.18294 c 0.14925 0.0851 0.23415 -0.05686 0.23416 -0.38973 c -0.00024 -0.2434 -0.0462 -0.40544 -0.08964 -0.47639 l -0.02128 -0.02722 c -0.01481 -0.01708 -0.03334 -0.03205 -0.05558 -0.04489 c -0.10754 -0.06102 -0.234 0.00467 -0.23418 0.39612 c 0.00027 0.23381 0.04994 0.39799 0.09708 0.47429 C 34.54907 20.12525 34.56848 20.15779 34.61205 20.18294" stroke-linecap="round" />
</g>
<g transform="matrix(4 0 0 4 244.99 175.81)" id="Layer_1"  >
<polygon style="stroke: none; stroke-width: 1; stroke-dasharray: none; stroke-linecap: butt; stroke-dashoffset: 0; stroke-linejoin: miter; stroke-miterlimit: 4; fill: rgb(170,186,253); fill-rule: nonzero; opacity: 1;"  points="0.28,-0.66 0.28,0.81 -0.01,0.64 -0.02,-0.47 -0.21,-0.47 -0.28,-0.81 0.04,-0.8 " />
</g>
<g transform="matrix(4 0 0 4 251.38 184.48)" id="Layer_1"  >
<path style="stroke: none; stroke-width: 1; stroke-dasharray: none; stroke-linecap: butt; stroke-dashoffset: 0; stroke-linejoin: miter; stroke-miterlimit: 4; fill: rgb(170,186,253); fill-rule: nonzero; opacity: 1;"  transform=" translate(-37.85, -21.12)" d="M 38.14456 20.67006 c 0.13032 0.21287 0.19645 0.46551 0.19657 0.75045 c -0.00043 0.48093 -0.16804 0.64876 -0.47395 0.47215 c -0.07416 -0.04282 -0.13807 -0.09892 -0.1899 -0.15658 c -0.05091 -0.05606 -0.0916 -0.1137 -0.12117 -0.16171 c -0.13309 -0.21554 -0.20292 -0.47565 -0.20673 -0.77018 c -0.00058 -0.45271 0.18098 -0.62849 0.47298 -0.46097 C 37.9781 20.43313 38.08356 20.57083 38.14456 20.67006 z M 37.81141 21.58733 c 0.14832 0.08457 0.23415 -0.05687 0.23416 -0.38974 c -0.00024 -0.24339 -0.04713 -0.40597 -0.09057 -0.47692 l -0.02035 -0.02669 c -0.01574 -0.01762 -0.03426 -0.03258 -0.05559 -0.0449 c -0.10845 -0.06262 -0.23399 0.00467 -0.23417 0.39613 c 0.00026 0.23381 0.04994 0.39799 0.09615 0.47375 C 37.74751 21.52909 37.76785 21.56217 37.81141 21.58733" stroke-linecap="round" />
</g>
<g transform="matrix(4 0 0 4 206.66 183.89)" id="Layer_1"  >
<path style="stroke: none; stroke-width: 1; stroke-dasharray: none; stroke-linecap: butt; stroke-dashoffset: 0; stroke-linejoin: miter; stroke-miterlimit: 4; fill: rgb(170,186,253); fill-rule: nonzero; opacity: 1;"  transform=" translate(-26.66, -20.97)" d="M 26.96483 20.52524 c 0.13032 0.2118 0.19552 0.4639 0.19564 0.7499 c 0.00051 0.47614 -0.16987 0.64023 -0.47949 0.46255 c -0.07323 -0.04228 -0.13714 -0.09838 -0.18897 -0.15605 c -0.05184 -0.0566 -0.09253 -0.1153 -0.1221 -0.16438 c -0.13309 -0.21661 -0.20108 -0.47245 -0.20119 -0.75951 c 0.00035 -0.45217 0.18191 -0.62795 0.47391 -0.45936 C 26.79886 20.28857 26.90332 20.42615 26.96483 20.52524 z M 26.63075 21.44089 c 0.14924 0.08616 0.23507 -0.05739 0.23417 -0.39506 c -0.00008 -0.29878 -0.06841 -0.43426 -0.08967 -0.46787 c -0.01848 -0.03094 -0.04626 -0.05658 -0.08242 -0.07746 c -0.10568 -0.06101 -0.22843 0.00575 -0.2286 0.39295 c 0.00025 0.23913 0.04899 0.40491 0.09428 0.478 C 26.56499 21.38266 26.58533 21.41467 26.63075 21.44089" stroke-linecap="round" />
</g>
<g transform="matrix(4 0 0 4 217.24 187.81)" id="Layer_1"  >
<path style="stroke: none; stroke-width: 1; stroke-dasharray: none; stroke-linecap: butt; stroke-dashoffset: 0; stroke-linejoin: miter; stroke-miterlimit: 4; fill: rgb(170,186,253); fill-rule: nonzero; opacity: 1;"  transform=" translate(-29.31, -21.95)" d="M 29.612 21.50732 c 0.13032 0.21181 0.19646 0.46444 0.19657 0.74938 c -0.00042 0.47561 -0.16987 0.6413 -0.47949 0.46254 c -0.07416 -0.04282 -0.13714 -0.09838 -0.1899 -0.15658 c -0.05091 -0.05606 -0.0916 -0.1137 -0.1221 -0.16331 c -0.13309 -0.21554 -0.20201 -0.47192 -0.20675 -0.76272 c 0.00035 -0.45217 0.18377 -0.62688 0.48041 -0.45668 C 29.44554 21.26931 29.551 21.40701 29.612 21.50732 z M 29.27885 22.42351 c 0.14739 0.08403 0.22857 -0.05688 0.22769 -0.39987 c -0.00007 -0.30305 -0.06655 -0.43425 -0.08688 -0.46839 l -0.02035 -0.02668 c -0.01574 -0.01762 -0.03519 -0.03312 -0.0593 -0.04704 c -0.10475 -0.06048 -0.2275 0.00628 -0.22767 0.39348 c 0.00025 0.2402 0.04899 0.40491 0.09428 0.47907 C 29.2131 22.36421 29.2325 22.39675 29.27885 22.42351" stroke-linecap="round" />
</g>
<g transform="matrix(4 0 0 4 224.99 190.75)" id="Layer_1"  >
<path style="stroke: none; stroke-width: 1; stroke-dasharray: none; stroke-linecap: butt; stroke-dashoffset: 0; stroke-linejoin: miter; stroke-miterlimit: 4; fill: rgb(170,186,253); fill-rule: nonzero; opacity: 1;"  transform=" translate(-31.25, -22.69)" d="M 31.54964 22.24152 c 0.13031 0.21287 0.19646 0.46444 0.19657 0.75044 c -0.00042 0.47668 -0.1708 0.6397 -0.47949 0.46255 c -0.07416 -0.04282 -0.13714 -0.09838 -0.1899 -0.15658 c -0.05091 -0.05606 -0.09159 -0.11476 -0.1221 -0.16331 c -0.13309 -0.21554 -0.20293 -0.47351 -0.20675 -0.76272 c 0.00035 -0.45217 0.18376 -0.62795 0.47948 -0.45722 C 31.38368 22.00486 31.48905 22.14297 31.54964 22.24152 z M 31.21649 23.15772 c 0.14739 0.08509 0.22764 -0.05742 0.22768 -0.39881 c 0.00068 -0.2386 -0.04622 -0.39904 -0.08966 -0.47 l -0.02035 -0.02775 c -0.01573 -0.01655 -0.03426 -0.03152 -0.05651 -0.04437 c -0.11031 -0.06369 -0.22843 0.00575 -0.22767 0.39348 c 0.00025 0.2402 0.04899 0.40385 0.09428 0.47907 C 31.15073 23.09948 31.17014 23.13095 31.21649 23.15772" stroke-linecap="round" />
</g>
<g transform="matrix(4 0 0 4 228.64 182.31)" id="Layer_1"  >
<polygon style="stroke: none; stroke-width: 1; stroke-dasharray: none; stroke-linecap: butt; stroke-dashoffset: 0; stroke-linejoin: miter; stroke-miterlimit: 4; fill: rgb(170,186,253); fill-rule: nonzero; opacity: 1;"  points="0.28,-0.66 0.28,0.81 -0.01,0.64 -0.01,-0.47 -0.21,-0.47 -0.28,-0.81 0.04,-0.8 " />
</g>
<g transform="matrix(4 0 0 4 234.03 197)" id="Layer_1"  >
<path style="stroke: none; stroke-width: 1; stroke-dasharray: none; stroke-linecap: butt; stroke-dashoffset: 0; stroke-linejoin: miter; stroke-miterlimit: 4; fill: rgb(170,186,253); fill-rule: nonzero; opacity: 1;"  transform=" translate(-33.51, -24.25)" d="M 33.80699 23.79914 c 0.13032 0.21287 0.19553 0.46497 0.19564 0.75097 c 0.0005 0.47721 -0.16803 0.64237 -0.47301 0.46629 c -0.00196 -0.0011 -0.00392 -0.00222 -0.00587 -0.00335 c -0.07161 -0.04135 -0.13267 -0.09551 -0.18402 -0.15216 c -0.05091 -0.05607 -0.09159 -0.11477 -0.1221 -0.16332 c -0.13309 -0.2166 -0.20293 -0.47351 -0.20675 -0.76378 c 0.00035 -0.45217 0.18377 -0.62688 0.47947 -0.45615 C 33.6438 23.56621 33.74641 23.70164 33.80699 23.79914 z M 33.4794 24.72066 c 0.14739 0.0851 0.22858 -0.05688 0.22769 -0.3988 c 0.00068 -0.2386 -0.04622 -0.40011 -0.08966 -0.47 l -0.02035 -0.02775 c -0.01574 -0.01656 -0.03426 -0.03152 -0.05651 -0.04437 c -0.11031 -0.06369 -0.22843 0.00575 -0.22767 0.39241 c 0.00025 0.2402 0.04807 0.40438 0.09428 0.47907 C 33.41365 24.66243 33.43305 24.69391 33.4794 24.72066" stroke-linecap="round" />
</g>
<g transform="matrix(4 0 0 4 242.42 202.83)" id="Layer_1"  >
<path style="stroke: none; stroke-width: 1; stroke-dasharray: none; stroke-linecap: butt; stroke-dashoffset: 0; stroke-linejoin: miter; stroke-miterlimit: 4; fill: rgb(170,186,253); fill-rule: nonzero; opacity: 1;"  transform=" translate(-35.6, -25.71)" d="M 35.90356 25.25807 c 0.13032 0.21288 0.19646 0.46551 0.19657 0.75258 c -0.00042 0.47561 -0.16802 0.6413 -0.47393 0.46576 c -0.07508 -0.04335 -0.13992 -0.10105 -0.19267 -0.15926 c -0.05091 -0.05607 -0.09068 -0.11317 -0.12118 -0.16172 c -0.13124 -0.21341 -0.20015 -0.46978 -0.20396 -0.76218 c -0.00057 -0.45271 0.18376 -0.62689 0.47947 -0.45722 C 35.73896 25.02327 35.84257 25.15884 35.90356 25.25807 z M 35.57598 26.17961 c 0.14739 0.08403 0.22857 -0.05688 0.22861 -0.39827 c -0.00025 -0.23913 -0.04622 -0.4001 -0.08966 -0.47 l -0.02128 -0.02829 c -0.0148 -0.01708 -0.03426 -0.03152 -0.05558 -0.04383 c -0.10846 -0.06262 -0.23399 0.00147 -0.23415 0.38867 c 0.00026 0.23701 0.04993 0.40225 0.09706 0.47854 C 35.50744 26.11763 35.5287 26.15231 35.57598 26.17961" stroke-linecap="round" />
</g>
<g transform="matrix(4 0 0 4 262.47 215.55)" id="Layer_1"  >
<path style="stroke: none; stroke-width: 1; stroke-dasharray: none; stroke-linecap: butt; stroke-dashoffset: 0; stroke-linejoin: miter; stroke-miterlimit: 4; fill: rgb(170,186,253); fill-rule: nonzero; opacity: 1;"  transform=" translate(-40.62, -28.89)" d="M 40.91594 28.43727 c 0.13032 0.21287 0.19645 0.46551 0.19656 0.75257 c -0.00042 0.47561 -0.16802 0.64131 -0.47393 0.46576 c -0.07601 -0.04388 -0.13992 -0.09999 -0.19268 -0.15819 c -0.05091 -0.05713 -0.09068 -0.11316 -0.12118 -0.16278 c -0.13124 -0.21341 -0.20015 -0.46978 -0.20396 -0.76219 c -0.00058 -0.45271 0.18283 -0.62741 0.47947 -0.45615 C 40.75275 28.20434 40.85536 28.33978 40.91594 28.43727 z M 40.58279 29.35559 c 0.14832 0.08563 0.23415 -0.05793 0.23417 -0.39506 c -0.00025 -0.23913 -0.04622 -0.40011 -0.08966 -0.47 c -0.01756 -0.02828 -0.04349 -0.05285 -0.07686 -0.07212 c -0.10845 -0.06262 -0.23492 0.002 -0.23415 0.38867 c 0.00025 0.23807 0.04992 0.40438 0.09706 0.48067 C 40.51981 29.29896 40.53922 29.33044 40.58279 29.35559" stroke-linecap="round" />
</g>
<g transform="matrix(4 0 0 4 257.04 203.21)" id="Layer_1"  >
<path style="stroke: none; stroke-width: 1; stroke-dasharray: none; stroke-linecap: butt; stroke-dashoffset: 0; stroke-linejoin: miter; stroke-miterlimit: 4; fill: rgb(170,186,253); fill-rule: nonzero; opacity: 1;"  transform=" translate(-39.26, -25.8)" d="M 39.55898 25.35627 c 0.13032 0.21181 0.19646 0.46444 0.19658 0.75044 c -0.00042 0.47561 -0.16802 0.6413 -0.47393 0.46469 c -0.00191 -0.00107 -0.00383 -0.00217 -0.00573 -0.00327 c -0.07351 -0.04244 -0.13552 -0.09819 -0.18695 -0.15492 c -0.05091 -0.055 -0.09068 -0.11317 -0.12117 -0.16172 c -0.13124 -0.21341 -0.20016 -0.46978 -0.20396 -0.76218 c -0.00058 -0.45271 0.18098 -0.62849 0.47391 -0.45936 C 39.39398 25.12016 39.49841 25.25666 39.55898 25.35627 z M 39.22585 26.27246 c 0.14924 0.08617 0.23414 -0.05792 0.23417 -0.39507 c -0.00024 -0.23913 -0.04622 -0.4001 -0.08966 -0.47 l -0.02128 -0.02829 c -0.01481 -0.01709 -0.03427 -0.03152 -0.05558 -0.04383 c -0.10846 -0.06262 -0.23399 0.00254 -0.23416 0.38867 c 0.00026 0.23807 0.04992 0.40438 0.09706 0.48068 C 39.16287 26.21477 39.18227 26.2473 39.22585 26.27246" stroke-linecap="round" />
</g>
<g transform="matrix(4 0 0 4 255.63 245.92)" id="Layer_1"  >
<polygon style="stroke: none; stroke-width: 1; stroke-dasharray: none; stroke-linecap: butt; stroke-dashoffset: 0; stroke-linejoin: miter; stroke-miterlimit: 4; fill: rgb(56,78,133); fill-rule: nonzero; opacity: 1;"  points="-0.61,0.07 -0.61,0.64 0.61,-0.07 0.61,-0.64 " />
</g>
<g transform="matrix(4 0 0 4 264.45 240.82)" id="Layer_1"  >
<polygon style="stroke: none; stroke-width: 1; stroke-dasharray: none; stroke-linecap: butt; stroke-dashoffset: 0; stroke-linejoin: miter; stroke-miterlimit: 4; fill: rgb(56,78,133); fill-rule: nonzero; opacity: 1;"  points="-0.61,0.07 -0.61,0.64 0.61,-0.07 0.61,-0.64 " />
</g>
<g transform="matrix(4 0 0 4 264.3 262.87)" id="Layer_1"  >
<path style="stroke: none; stroke-width: 1; stroke-dasharray: none; stroke-linecap: butt; stroke-dashoffset: 0; stroke-linejoin: miter; stroke-miterlimit: 4; fill: rgb(56,78,133); fill-rule: nonzero; opacity: 1;"  transform=" translate(-41.08, -40.72)" d="M 37.09007 45.11707 l -0.17049 -0.29274 l 7.90591 -4.59427 c 0.05022 -0.02874 0.0674 -0.05617 0.0674 -0.0641 c 0 -0.00859 -0.01784 -0.03767 -0.06939 -0.06806 l -6.0445 -3.48943 l 0.16917 -0.29274 l 6.04516 3.48976 c 0.15199 0.08822 0.23789 0.22005 0.23789 0.36146 c -0.00066 0.14042 -0.08657 0.27027 -0.23591 0.35617 L 37.09007 45.11707 z" stroke-linecap="round" />
</g>
<g transform="matrix(4 0 0 4 241.45 283.49)" id="Layer_1"  >
<path style="stroke: none; stroke-width: 1; stroke-dasharray: none; stroke-linecap: butt; stroke-dashoffset: 0; stroke-linejoin: miter; stroke-miterlimit: 4; fill: rgb(217,221,246); fill-rule: nonzero; opacity: 1;"  transform=" translate(-35.36, -45.87)" d="M 39.03005 43.75431 c -1.16285 -0.66639 -2.7961 -0.83914 -4.05831 -0.33761 c -0.25606 0.10174 -0.47832 0.26933 -0.68525 0.45126 c -0.54656 0.48052 -1.55189 1.01761 -2.91469 1.59881 c -1.29353 0.74963 -0.83786 1.71242 0.46303 2.46945 c 0.56959 0.32705 1.20719 0.56223 1.85303 0.66052 c 0.82775 0.12598 1.58793 -0.38469 1.93201 -1.14801 c 0.19068 -0.42301 0.65536 -0.84105 1.57955 -1.19793 c 0.71708 -0.27688 1.4268 -0.47704 1.86766 -0.33808 c 0.43406 0.13683 0.91706 -0.06195 1.02638 -0.50373 C 40.2349 44.83751 39.84582 44.23015 39.03005 43.75431 z" stroke-linecap="round" />
</g>
<g transform="matrix(4 0 0 4 241.45 288.36)" id="Layer_1"  >
<path style="stroke: none; stroke-width: 1; stroke-dasharray: none; stroke-linecap: butt; stroke-dashoffset: 0; stroke-linejoin: miter; stroke-miterlimit: 4; fill: rgb(170,186,253); fill-rule: nonzero; opacity: 1;"  transform=" translate(-35.36, -47.09)" d="M 40.12126 45.1871 c -0.00087 0.07431 -0.00961 0.14841 -0.02779 0.2219 c -0.10932 0.44178 -0.59232 0.64055 -1.02638 0.50373 c -0.44086 -0.13896 -1.15058 0.0612 -1.86766 0.33808 c -0.92419 0.35688 -1.38887 0.77492 -1.57955 1.19793 c -0.34409 0.76332 -1.10427 1.27399 -1.93201 1.14801 c -0.64585 -0.0983 -1.28345 -0.33347 -1.85303 -0.66052 c -0.7607 -0.44268 -1.22868 -0.95559 -1.2306 -1.45522 c -0.00043 -0.00231 -0.00412 -0.00396 -0.00412 -0.00635 v 0.35622 c 0 0.49976 0.47039 1.01424 1.23473 1.45523 c 1.30825 0.75699 2.96921 1.0142 4.2701 0.26458 l 3.14563 -1.83004 c 0.59533 -0.34544 0.86724 -0.76438 0.87461 -1.19062 v -0.34892 C 40.12516 45.18298 40.12164 45.18518 40.12126 45.1871 z" stroke-linecap="round" />
</g>
<g transform="matrix(4 0 0 4 247.25 278.78)" id="Layer_1"  >
<path style="stroke: none; stroke-width: 1; stroke-dasharray: none; stroke-linecap: butt; stroke-dashoffset: 0; stroke-linejoin: miter; stroke-miterlimit: 4; fill: rgb(170,186,253); fill-rule: nonzero; opacity: 1;"  transform=" translate(-36.81, -44.69)" d="M 37.77395 44.2956 c -0.16143 -0.09417 -0.38678 -0.08072 -0.63397 0.06222 c -0.36156 0.20853 -0.67099 0.63399 -0.81224 1.07122 l -0.47422 -0.27579 c 0.14126 -0.43724 0.45068 -0.86269 0.81224 -1.07121 c 0.24888 -0.14295 0.47255 -0.15639 0.63398 -0.06222 L 37.77395 44.2956 z" stroke-linecap="round" />
</g>
<g transform="matrix(4 0 0 4 248.57 279.33)" id="Layer_1"  >
<path style="stroke: none; stroke-width: 1; stroke-dasharray: none; stroke-linecap: butt; stroke-dashoffset: 0; stroke-linejoin: miter; stroke-miterlimit: 4; fill: rgb(154,173,253); fill-rule: nonzero; opacity: 1;"  transform=" translate(-37.14, -44.83)" d="M 37.14035 44.35719 c 0.36075 -0.20828 0.67175 -0.14068 0.81448 0.13281 l -1.62661 0.93913 C 36.46893 44.99199 36.77852 44.56609 37.14035 44.35719 z" stroke-linecap="round" />
</g>
</svg>