<?xml version="1.0" ?><svg height="24px" version="1.1" viewBox="0 0 24 24" width="24px" xmlns="http://www.w3.org/2000/svg" xmlns:xlink="http://www.w3.org/1999/xlink"><title/><desc/><g fill="none" fill-rule="evenodd" id="Social-/-19---Social,-bitcoin,-casino,-cryptocurrency-icon" stroke="none" stroke-linecap="round" stroke-linejoin="round" stroke-width="1"><path d="M16.6814425,8.55740741 C16.6814425,6.86884792 15.3984513,5.5 13.8158015,5.5 L9,5.5 L9,18.5 L14.7733333,18.5 C16.5553721,18.5 18,16.9586988 18,15.0574074 C18,13.156116 16.5553721,11.5 14.7733333,11.5 L13.8158015,11.5 C15.3984513,11.5 16.6814425,10.2459669 16.6814425,8.55740741 Z" id="Path" stroke="#000000" stroke-width="2"/><line id="Path" stroke="#000000" stroke-width="2" x1="14" x2="14" y1="5.49603271" y2="2.5"/><line id="Path" stroke="#000000" stroke-width="2" x1="9" x2="9" y1="5.49603271" y2="2.5"/><line id="Path" stroke="#000000" stroke-width="2" x1="9" x2="6.00396729" y1="5.5" y2="5.5"/><line id="Path" stroke="#000000" stroke-width="2" x1="8.99603271" x2="6" y1="18.5" y2="18.5"/><line id="Path" stroke="#000000" stroke-width="2" x1="9" x2="9" y1="21.4960327" y2="18.5"/><line id="Path" stroke="#000000" stroke-width="2" x1="14" x2="14" y1="21.4960327" y2="18.5"/><line id="Path" stroke="#000000" stroke-width="2" x1="9" x2="15" y1="11.5" y2="11.5"/></g></svg>