<svg width="234" height="232" viewBox="0 0 234 232" fill="none" xmlns="http://www.w3.org/2000/svg">
    <path d="M98.1912 118.075L98.1717 118.092L98.1531 118.111L76.5807 139.708C74.8235 141.467 74.8235 144.533 76.5807 146.292L98.1531 167.889C99.1304 168.868 99.1304 170.669 98.1531 171.647L78.5557 191.267C77.579 192.244 75.7822 192.244 74.8055 191.267L53.2331 169.67C51.4753 167.91 48.4108 167.91 46.6529 169.67L25.0805 191.267C24.1039 192.244 22.307 192.244 21.3304 191.267L1.73296 171.647C0.755682 170.669 0.75568 168.868 1.73296 167.889L23.3053 146.292C25.0625 144.533 25.0625 141.467 23.3053 139.708L1.73296 118.111C0.755682 117.132 0.755681 115.331 1.73296 114.353L21.3304 94.7333C22.307 93.7556 24.1039 93.7556 25.0805 94.7333L46.6529 116.33C48.4108 118.09 51.4753 118.09 53.2331 116.33L74.8055 94.7333C75.7822 93.7556 77.579 93.7556 78.5557 94.7333L98.1531 114.353C99.3041 115.505 99.2478 117.123 98.1912 118.075Z" stroke="url(#paint0_linear_62_2)" stroke-width="2"/>
    <path d="M178 111C147.667 111 123 86.3326 123 56C123 25.6674 147.667 1 178 1C208.333 1 233 25.6674 233 56C233 86.5003 208.335 111 178 111Z" stroke="url(#paint1_linear_62_2)" stroke-width="2"/>
    <path d="M169.47 151.972L169.47 151.972L169.474 151.964C170.223 150.716 172.011 150.633 172.929 151.989L219.049 227.353L219.054 227.361C219.969 228.826 218.908 230.728 217.325 230.728H171.194H125.063C123.485 230.728 122.405 228.951 123.344 227.345L169.47 151.972Z" stroke="url(#paint2_linear_62_2)" stroke-width="2"/>
    <defs>
        <linearGradient id="paint0_linear_62_2" x1="0" y1="143" x2="100" y2="143" gradientUnits="userSpaceOnUse">
            <stop stop-color="#F7941D"/>
            <stop offset="1" stop-color="#27AAE1"/>
        </linearGradient>
        <linearGradient id="paint1_linear_62_2" x1="122" y1="56" x2="234" y2="56" gradientUnits="userSpaceOnUse">
            <stop stop-color="#F7941D"/>
            <stop offset="1" stop-color="#27AAE1"/>
        </linearGradient>
        <linearGradient id="paint2_linear_62_2" x1="122" y1="190.864" x2="220.388" y2="190.864" gradientUnits="userSpaceOnUse">
            <stop stop-color="#F7941D"/>
            <stop offset="1" stop-color="#27AAE1"/>
        </linearGradient>
    </defs>
</svg>