<svg width="106" height="107" viewBox="0 0 106 107" fill="none" xmlns="http://www.w3.org/2000/svg">
<g clip-path="url(#clip0_252_3523)">
<path d="M104.922 64.2662C110.808 35.3217 92.3351 7.0407 63.6612 1.09875C34.9872 -4.84319 6.9705 13.804 1.08408 42.7485C-4.80234 71.693 13.6706 99.974 42.3446 105.916C71.0185 111.858 99.0353 93.2107 104.922 64.2662Z" fill="#102D69"/>
<path d="M91.4571 47.4181L94.8851 47.1035H94.9267C95.0513 47.9004 95.1344 48.7183 95.2175 49.5153C95.3006 50.3122 95.3422 51.1301 95.3837 51.9481H95.3422L91.9141 52.2626L91.9557 53.7517L100.266 52.9547L100.204 51.4657L96.7134 51.8013H96.6926C96.6511 50.9833 96.6095 50.1864 96.5264 49.3685C96.4433 48.5715 96.3602 47.7536 96.2356 46.9567H96.2564L99.7675 46.6211L99.539 45.1531L91.2285 45.95L91.4571 47.4181Z" fill="white"/>
<path d="M30.9776 21.1399L29.1701 18.1409L30.0427 17.5956L32.5151 18.5604C33.7616 19.0637 34.9874 19.2315 35.86 18.2458L35.1952 17.1342C34.7797 17.5956 34.1148 17.5747 33.1591 17.2391L30.4582 16.2534L31.3516 11.1152L29.8557 11.9751L29.2117 16.4841L28.4845 16.9455L26.6562 13.9255L25.4512 14.7854L29.7934 21.9578L30.9776 21.1399Z" fill="white"/>
<path d="M49.1775 8.09527L49.1152 7.27735C49.2606 7.25638 49.406 7.25638 49.5307 7.23541C50.3618 7.17249 51.1928 7.13055 52.0238 7.10958L52.564 14.2191L54.0391 14.1143L53.499 7.13055L53.3951 5.78833C52.6056 5.78833 51.7953 5.78833 51.0058 5.83027L47.8478 6.08194C47.7855 6.08194 47.7024 6.10291 47.6401 6.10291L47.744 7.42416L47.7647 7.75971C48.1387 12.835 47.3908 13.4432 46.5389 13.5061C46.3519 13.5271 46.165 13.5061 46.0611 13.4641L46.0195 14.7015C46.2481 14.7434 46.7259 14.7854 47.0583 14.7644C48.6789 14.6386 49.5723 13.4851 49.1775 8.09527Z" fill="white"/>
<path d="M41.0334 16.3164C43.485 15.4985 44.6276 13.0238 43.8797 10.7588C43.1318 8.45184 40.8256 7.13059 38.3532 7.9485C35.9017 8.76642 34.759 11.2411 35.5069 13.5061C36.2549 15.8131 38.5818 17.1343 41.0334 16.3164ZM38.7688 9.26975C40.3685 8.74545 41.906 9.68919 42.4254 11.2621C42.6747 12.059 42.6331 12.877 42.3215 13.5481C42.0099 14.2192 41.4489 14.7645 40.6386 15.0371C39.0389 15.5614 37.5014 14.6177 36.982 13.0447C36.5665 11.7235 37.0028 10.4022 38.0624 9.68919C38.2909 9.52142 38.4987 9.35364 38.7688 9.26975Z" fill="white"/>
<path d="M85.2242 24.1809C86.8239 22.4192 86.8032 19.6929 84.8918 17.9312C83.7283 16.8826 82.3363 16.5261 81.0274 16.8197L81.3598 18.3087C82.2532 18.078 83.2089 18.2668 83.9776 18.9588C85.0372 19.9445 85.1619 21.3916 84.4555 22.566C83.8322 21.9159 83.1881 21.2867 82.5233 20.6995C82.2532 20.4479 81.9623 20.1962 81.6922 19.9445L80.8404 20.9512C81.1105 21.1819 81.3806 21.4336 81.6507 21.6642C82.3155 22.2724 82.9596 22.9016 83.5829 23.5517C82.4817 24.3697 81.0066 24.3906 79.9263 23.4049C79.1368 22.6919 78.8667 21.7062 79.0537 20.7624L77.5785 20.5527C77.3916 21.9159 77.8486 23.363 79.0329 24.4326C80.9443 26.1942 83.6036 25.9635 85.2242 24.1809Z" fill="white"/>
<path d="M64.1982 46.4743C66.0265 44.3351 66.7952 41.7346 66.7952 39.2599C66.7952 37.2675 66.255 33.2828 62.7854 30.5354C60.3962 28.6689 58.2978 27.7881 53.2492 27.7881H50.6937C50.6106 27.7881 50.5483 27.7881 50.4444 27.7881H39.9316V77.9325H69.9532V68.3063C69.9532 59.0995 67.003 52.9127 59.3781 50.1864C61.7674 49.1797 63.2425 47.6487 64.1982 46.4743ZM58.2354 45.5096C56.8642 47.2293 54.6412 48.8232 51.4832 48.8232C51.4624 48.8232 51.4416 48.8232 51.4209 48.8232V51.3189C59.856 51.3189 63.1594 56.9813 63.1594 67.3416V75.1432H57.7368V58.4074H51.4832V75.1642H46.7047V30.2838H51.6286C53.4777 30.2838 56.2617 30.7032 58.2354 33.1779C59.2535 34.4363 59.8975 36.0931 60.1053 37.7708H51.4832V40.2456H60.1676C60.1053 41.8394 59.7729 43.6221 58.2354 45.5096Z" fill="white"/>
<path d="M71.6993 16.2325C72.5303 16.652 73.5484 16.3164 73.9639 15.4775C74.3794 14.6386 74.047 13.611 73.216 13.1916C72.3849 12.7721 71.3669 13.1077 70.9514 13.9466C70.5358 14.7854 70.8682 15.8131 71.6993 16.2325Z" fill="white"/>
<path d="M58.5894 12.6462C59.2542 12.7301 59.8983 12.8349 60.5631 12.9608C61.2072 13.0866 61.872 13.2334 62.5161 13.3802L62.9524 15.5194L64.5106 15.9598L62.433 6.73204L61.0825 6.50134L55.8262 14.324L57.4052 14.4708L58.5894 12.6462ZM61.3942 8.38884L62.2045 11.9751C61.7266 11.8702 61.2695 11.7654 60.7917 11.6815C60.3138 11.5976 59.8567 11.5137 59.3789 11.4298L61.3942 8.38884Z" fill="white"/>
<path d="M91.9554 34.2266C89.7116 35.0655 88.5065 37.4563 89.3999 39.91C90.2933 42.3638 92.8072 43.3914 95.0303 42.5525C97.2741 41.7136 98.4791 39.3228 97.5857 36.8691C96.6716 34.4153 94.1784 33.3877 91.9554 34.2266ZM96.2976 37.3305C96.8793 38.9034 96.0275 40.5182 94.4901 41.0845C94.3447 41.1474 94.1992 41.1264 94.0746 41.1684C92.6618 41.5039 91.2282 40.8957 90.7088 39.4486C90.3349 38.463 90.5426 37.4563 91.1243 36.7223C91.2075 36.5964 91.3321 36.4916 91.436 36.3867C91.4568 36.3657 91.4775 36.3238 91.4983 36.3028C91.5606 36.2399 91.6438 36.198 91.7269 36.135C91.81 36.0721 91.8931 36.0092 91.9762 35.9463C91.9762 35.9463 91.9762 35.9463 91.9969 35.9463C92.1632 35.8414 92.3294 35.7575 92.5163 35.6946C93.2851 35.401 94.0953 35.422 94.781 35.6946C95.4458 35.9882 96.0067 36.5335 96.2976 37.3305Z" fill="white"/>
<path d="M84.3514 30.2209L87.2601 28.2915L87.821 29.1513L86.9484 31.668C86.4913 32.9473 86.3667 34.1846 87.3639 35.0445L88.4443 34.3315C87.9872 33.933 87.9872 33.2619 88.2781 32.2972L89.1507 29.5288L94.2616 30.2629L93.3475 28.7738L88.8598 28.2705L88.382 27.5574L91.3114 25.607L90.418 24.4116L83.458 29.0255L84.3514 30.2209Z" fill="white"/>
<path d="M12.8611 39.0292C13.796 39.1131 14.6063 38.442 14.7101 37.4982C14.7932 36.5545 14.1284 35.7366 13.1935 35.6317C12.2585 35.5478 11.4483 36.2189 11.3444 37.1627C11.2405 38.1064 11.9261 38.9243 12.8611 39.0292Z" fill="white"/>
<path d="M67.1489 90.0964L64.5934 97.4367L62.7236 91.5435L61.29 91.8791L63.8663 99.9324L65.2583 99.5759L67.7722 92.2985L69.6421 98.1498L70.9925 97.6045L68.437 89.5721L67.1489 90.0964Z" fill="white"/>
<path d="M53.0208 95.3605C52.0858 95.3605 51.3379 96.1155 51.3379 97.0592C51.3379 98.003 52.0858 98.758 53.0208 98.758C53.9557 98.758 54.7036 98.003 54.7036 97.0592C54.7036 96.1364 53.9557 95.3605 53.0208 95.3605Z" fill="white"/>
<path d="M75.2513 85.7343L77.0796 88.7333L76.207 89.2786L73.7346 88.3348C72.488 87.8315 71.2622 87.6847 70.3896 88.6704L71.0753 89.7819C71.4908 89.3205 72.1556 89.3415 73.1113 89.677L75.833 90.6418L74.9812 95.7799L76.4771 94.8991L77.1003 90.3691L77.8275 89.9077L79.6766 92.9068L80.8816 92.0469L76.4978 84.8954L75.2513 85.7343Z" fill="white"/>
<path d="M83.2085 78.2681L84.5797 85.923L80.0713 81.7285L79.0117 82.7352L85.1822 88.4606L86.2211 87.433L84.8498 79.862L89.3375 84.0145L90.2516 82.882L84.0811 77.1566L83.2085 78.2681Z" fill="white"/>
<path d="M96.298 56.7507C93.9296 56.3313 91.6857 57.7784 91.2494 60.3579C90.7924 62.9375 92.4337 65.0976 94.7814 65.5171C97.1499 65.9365 99.3937 64.4895 99.83 61.9099C100.266 59.3303 98.625 57.1492 96.298 56.7507ZM98.4795 61.6372C98.4172 62.0567 98.251 62.4342 98.0432 62.7488C97.4199 63.6925 96.2357 64.1749 95.0307 63.9652C93.5971 63.7135 92.5791 62.602 92.5376 61.2178C92.5376 61.029 92.5376 60.8193 92.5791 60.6096C92.6414 60.1902 92.8076 59.8127 93.0154 59.4981C93.6387 58.5543 94.8229 58.072 96.0279 58.2817C97.6693 58.5753 98.7704 59.9804 98.4795 61.6372Z" fill="white"/>
<path d="M38.4988 92.5293C38.1664 93.6618 38.665 94.3958 39.5168 95.004C38.8312 95.1508 38.1248 95.5073 37.834 96.493C37.6678 97.0593 37.7301 97.5626 37.9794 98.024C38.3118 98.6322 38.9559 99.1565 39.87 99.4291L42.9449 100.226L45.2718 92.1098L42.1139 91.1871C40.3479 90.6418 38.9351 91.0612 38.4988 92.5293ZM40.4518 98.1498C39.5376 97.8772 39.1429 97.3319 39.3299 96.7027C39.3714 96.5559 39.4337 96.4301 39.4961 96.3252C39.7246 96.0107 40.0778 95.8848 40.5349 95.9058C40.7426 95.9058 40.9504 95.9477 41.1789 96.0107L42.5502 96.4091L41.9269 98.5693L40.4518 98.1498ZM41.2205 94.7104C40.0986 94.3748 39.6831 93.8086 39.87 93.1165C40.0363 92.5502 40.4725 92.2776 41.0751 92.3196C41.2828 92.3196 41.5114 92.3615 41.7399 92.4454L43.5266 92.9697L42.8826 95.2137L41.2205 94.7104Z" fill="white"/>
<path d="M89.2967 67.6982L92.2469 69.3969C93.2442 69.9631 94.4284 70.6133 95.4049 71.1586L95.3841 71.1795C94.3245 70.9279 88.1748 70.1729 88.1748 70.1729L87.6346 71.3054C87.6346 71.3054 91.873 76.0031 92.6832 76.7162L92.6624 76.7581C91.6444 76.2338 90.4394 75.7095 89.4421 75.2691L86.2842 73.8849L85.4531 75.2272L93.265 78.5198L94.3245 76.6952C94.3245 76.6952 90.3979 72.3749 89.6707 71.7668L89.6915 71.7248C90.6264 71.9345 96.3398 72.5637 96.3398 72.5637L97.1501 70.5713L89.8369 66.2301L89.2967 67.6982Z" fill="white"/>
<path d="M15.1461 62.5391L13.0477 62.0148C12.9023 61.3646 12.7984 60.6935 12.6945 60.0434C12.5699 59.3932 12.4868 58.7221 12.4244 58.051L14.2527 56.8975L14.1488 55.2617L6.25391 60.358L6.46167 61.7211L15.5409 64.07L15.1461 62.5391ZM11.1779 58.827C11.2402 59.3093 11.3025 59.7917 11.3856 60.2741C11.4687 60.7564 11.5518 61.2178 11.6349 61.7002L8.10299 60.7984L11.1779 58.827Z" fill="white"/>
<path d="M30.521 88.859C29.6691 90.3271 30.2924 91.7951 31.913 92.7808L33.0557 93.4729L31.5182 96.1154L32.7856 96.8704L37.0655 89.5511L34.6554 88.0831C32.9726 87.0974 31.3728 87.391 30.521 88.859ZM33.6997 92.3404L32.5986 91.6903C31.6429 91.124 31.3312 90.39 31.7675 89.635C32.0169 89.2156 32.3285 88.9849 32.7025 88.922C33.0764 88.859 33.5127 88.9849 33.9906 89.2575L35.1125 89.9286L33.6997 92.3404Z" fill="white"/>
<path d="M20.2985 32.3601C22.293 29.2143 24.7238 26.383 27.5078 23.9293L26.469 23.0065L21.1087 18.3297C20.7555 18.6653 20.3816 19.0008 20.0492 19.3573L25.4094 24.0132C24.5991 24.7891 23.8304 25.5861 23.0825 26.425L17.7638 21.7901C17.4314 22.1676 17.1197 22.5451 16.7873 22.9226L22.106 27.5575C21.3996 28.3964 20.7348 29.2772 20.1115 30.2L14.7512 25.5441C14.4604 25.9426 14.1903 26.3621 13.8994 26.7605L19.2597 31.4373L20.2985 32.3601Z" fill="white"/>
<path d="M8.35231 52.4724C9.78587 52.5983 10.5961 51.7174 10.887 51.0253L12.3621 52.3047C12.7569 52.6612 13.027 53.3323 12.8607 53.7937L14.1281 53.7727C14.4397 53.0806 14.2735 52.074 13.2763 51.2351L11.3025 49.5573L11.3856 48.5087L14.3982 48.7813L14.6059 47.2713L6.2747 46.6002C6.19159 47.0616 6.00461 48.9281 5.98383 49.1798C5.77607 51.5077 6.89798 52.3676 8.35231 52.4724ZM7.50049 48.2151L9.99363 48.4248L9.91053 49.3895C9.8482 50.2494 9.34957 50.9834 8.47697 50.8995C7.81213 50.8366 7.29273 50.4381 7.37583 49.2217C7.41738 48.9491 7.43816 48.6135 7.50049 48.2151Z" fill="white"/>
<path d="M20.9218 75.7095C18.8234 72.6266 17.2028 69.2711 16.0601 65.7058L14.8136 66.314L8.45605 69.4598C8.62226 69.9212 8.78847 70.3826 8.97546 70.865L15.3122 67.6982C15.7069 68.7468 16.1225 69.7954 16.6003 70.802L10.2844 73.9269C10.4921 74.3883 10.7207 74.8287 10.9284 75.2691L17.2444 72.1443C17.743 73.13 18.2832 74.0947 18.8649 75.0384L12.549 78.2052C12.7983 78.6247 13.0684 79.0441 13.3385 79.4636L19.696 76.3177L20.9218 75.7095Z" fill="white"/>
<path d="M29.3186 84.768L24.4795 91.7167L25.6863 92.573L30.5254 85.6243L29.3186 84.768Z" fill="white"/>
<path d="M24.5576 80.0089C23.4773 78.8344 22.0437 78.394 20.714 78.5828L20.9218 80.0718C21.8567 79.883 22.8332 80.1347 23.5396 80.9317C24.6823 82.169 24.4953 83.9936 23.2903 85.1051C22.0645 86.2376 20.2985 86.3005 19.1558 85.0632C18.4494 84.3082 18.2624 83.3225 18.491 82.4207L17.0159 82.1061C16.7458 83.4064 17.099 84.8325 18.1378 85.965C19.9038 87.8734 22.6047 87.8734 24.3291 86.2586C26.0951 84.6018 26.3028 81.9383 24.5576 80.0089Z" fill="white"/>
</g>
<defs>
<clipPath id="clip0_252_3523">
<rect width="106" height="107" fill="white"/>
</clipPath>
</defs>
</svg>
