<svg width="17" height="13" viewBox="0 0 17 13" fill="none" xmlns="http://www.w3.org/2000/svg">
<path d="M1.56043 4.61577L0.79684 7.98453C0.388576 9.78569 1.75779 11.5 3.60465 11.5H3.9063C4.95882 11.5 5.89452 10.8298 6.23333 9.83333L6.25277 9.77618C6.57996 8.81385 7.48357 8.16667 8.5 8.16667C9.51643 8.16667 10.42 8.81385 10.7472 9.77618L10.7667 9.83333C11.1055 10.8298 12.0412 11.5 13.0937 11.5H13.3954C15.2422 11.5 16.6114 9.78569 16.2032 7.98453L15.4396 4.61576C15.0265 2.79353 13.407 1.5 11.5385 1.5H5.46147C3.59301 1.5 1.97347 2.79353 1.56043 4.61577Z" stroke="#27AAE1" stroke-width="1.3" stroke-linecap="round"/>
<path d="M7 5.5L3 5.5" stroke="#27AAE1" stroke-width="1.3"/>
<path d="M5 7.5L5 3.5" stroke="#27AAE1" stroke-width="1.3"/>
<path d="M14 5.5L10 5.5" stroke="#27AAE1" stroke-width="1.3"/>
</svg>
