<svg width="15" height="15" viewBox="0 0 15 15" fill="none" xmlns="http://www.w3.org/2000/svg">
<mask id="path-1-inside-1_257_12901" fill="white">
<path d="M3 0.5H12V5C12 7.48528 9.98528 9.5 7.5 9.5C5.01472 9.5 3 7.48528 3 5V0.5Z"/>
</mask>
<path d="M3 0.5V-0.8H1.7V0.5H3ZM12 0.5H13.3V-0.8H12V0.5ZM3 1.8H12V-0.8H3V1.8ZM10.7 0.5V5H13.3V0.5H10.7ZM4.3 5V0.5H1.7V5H4.3ZM7.5 8.2C5.73269 8.2 4.3 6.76731 4.3 5H1.7C1.7 8.20325 4.29675 10.8 7.5 10.8V8.2ZM10.7 5C10.7 6.76731 9.26731 8.2 7.5 8.2V10.8C10.7033 10.8 13.3 8.20325 13.3 5H10.7Z" fill="#27AAE1" mask="url(#path-1-inside-1_257_12901)"/>
<mask id="path-3-inside-2_257_12901" fill="white">
<path d="M11 6.5L11 1.5L12.5 1.5C13.8807 1.5 15 2.61929 15 4C15 5.38071 13.8807 6.5 12.5 6.5L11 6.5Z"/>
</mask>
<path d="M11 6.5L9.7 6.5L9.7 7.8L11 7.8L11 6.5ZM11 1.5L11 0.2L9.7 0.2L9.7 1.5L11 1.5ZM12.3 6.5L12.3 1.5L9.7 1.5L9.7 6.5L12.3 6.5ZM11 2.8L12.5 2.8L12.5 0.2L11 0.2L11 2.8ZM12.5 5.2L11 5.2L11 7.8L12.5 7.8L12.5 5.2ZM13.7 4C13.7 4.66274 13.1627 5.2 12.5 5.2L12.5 7.8C14.5987 7.8 16.3 6.09868 16.3 4L13.7 4ZM12.5 2.8C13.1627 2.8 13.7 3.33726 13.7 4L16.3 4C16.3 1.90132 14.5987 0.2 12.5 0.2L12.5 2.8Z" fill="#27AAE1" mask="url(#path-3-inside-2_257_12901)"/>
<mask id="path-5-inside-3_257_12901" fill="white">
<path d="M4 6.5L4 1.5L2.5 1.5C1.11929 1.5 1.69631e-07 2.61929 1.09278e-07 4C4.89256e-08 5.38071 1.11929 6.5 2.5 6.5L4 6.5Z"/>
</mask>
<path d="M4 6.5L5.3 6.5L5.3 7.8L4 7.8L4 6.5ZM4 1.5L4 0.2L5.3 0.2L5.3 1.5L4 1.5ZM2.7 6.5L2.7 1.5L5.3 1.5L5.3 6.5L2.7 6.5ZM4 2.8L2.5 2.8L2.5 0.2L4 0.2L4 2.8ZM2.5 5.2L4 5.2L4 7.8L2.5 7.8L2.5 5.2ZM1.3 4C1.3 4.66274 1.83726 5.2 2.5 5.2L2.5 7.8C0.401318 7.8 -1.3 6.09868 -1.3 4L1.3 4ZM2.5 2.8C1.83726 2.8 1.3 3.33726 1.3 4L-1.3 4C-1.3 1.90132 0.401318 0.2 2.5 0.2L2.5 2.8Z" fill="#27AAE1" mask="url(#path-5-inside-3_257_12901)"/>
<mask id="path-7-inside-4_257_12901" fill="white">
<path d="M3 13C3 11.8954 3.89543 11 5 11H10C11.1046 11 12 11.8954 12 13V14.5H3V13Z"/>
</mask>
<path d="M12 14.5V15.8H13.3V14.5H12ZM3 14.5H1.7V15.8H3V14.5ZM5 12.3H10V9.7H5V12.3ZM10.7 13V14.5H13.3V13H10.7ZM12 13.2H3V15.8H12V13.2ZM4.3 14.5V13H1.7V14.5H4.3ZM10 12.3C10.3866 12.3 10.7 12.6134 10.7 13H13.3C13.3 11.1775 11.8225 9.7 10 9.7V12.3ZM5 9.7C3.17746 9.7 1.7 11.1775 1.7 13H4.3C4.3 12.6134 4.6134 12.3 5 12.3V9.7Z" fill="#27AAE1" mask="url(#path-7-inside-4_257_12901)"/>
<path d="M7.5 9.5V11.5" stroke="#27AAE1" stroke-width="1.3" stroke-linecap="round"/>
</svg>
