<svg width="15" height="17" viewBox="0 0 15 17" fill="none" xmlns="http://www.w3.org/2000/svg">
<path d="M2 2L6.28735 3.2862C6.71033 3.4131 7 3.80242 7 4.24403V14.5C7 15.2136 6.27407 15.6975 5.61538 15.4231L1.61538 13.7564C1.24274 13.6011 1 13.237 1 12.8333V2.5C1 1.94772 1.44772 1.5 2 1.5H10C10.5523 1.5 11 1.94772 11 2.5V5.5" stroke="#27AAE1" stroke-width="1.3" stroke-linecap="round"/>
<path d="M9.5 8H13.5" stroke="#27AAE1" stroke-width="1.3" stroke-linecap="round"/>
<path d="M7 13.5H10C10.5523 13.5 11 13.0523 11 12.5V11" stroke="#27AAE1" stroke-width="1.3" stroke-linecap="round"/>
<path d="M12.5 6.5L13.8586 7.85858C13.9367 7.93668 13.9367 8.06332 13.8586 8.14142L12.5 9.5" stroke="#27AAE1" stroke-width="1.3" stroke-linecap="round"/>
</svg>
