<svg width="17" height="14" viewBox="0 0 17 14" fill="none" xmlns="http://www.w3.org/2000/svg">
<rect x="6.65" y="1.15" width="3.7" height="4.7" rx="1.85" stroke="#27AAE1" stroke-width="1.3"/>
<path d="M12.5 1.5H13C14.1046 1.5 15 2.39543 15 3.5V3.5C15 4.60457 14.1046 5.5 13 5.5V5.5" stroke="#27AAE1" stroke-width="1.3" stroke-linecap="round"/>
<path d="M4.65 9.5C4.65 8.75442 5.25442 8.15 6 8.15H11C11.7456 8.15 12.35 8.75442 12.35 9.5V12.85H4.65V9.5Z" stroke="#27AAE1" stroke-width="1.3"/>
<path d="M14 7.5V7.5C15.1046 7.5 16 8.39543 16 9.5V12.5H14.5" stroke="#27AAE1" stroke-width="1.3" stroke-linecap="round"/>
<path d="M3 7.5V7.5C1.89543 7.5 1 8.39543 1 9.5V12.5H2.5" stroke="#27AAE1" stroke-width="1.3" stroke-linecap="round"/>
<path d="M4.5 1.5H4C2.89543 1.5 2 2.39543 2 3.5V3.5C2 4.60457 2.89543 5.5 4 5.5V5.5" stroke="#27AAE1" stroke-width="1.3" stroke-linecap="round"/>
</svg>
