<svg width="16" height="15" viewBox="0 0 16 15" fill="none" xmlns="http://www.w3.org/2000/svg">
<path d="M4.73242 11.5271H5.38242V11.0336L4.907 10.901L4.73242 11.5271ZM5.23366 14.0467L4.79765 13.5646L4.79764 13.5646L5.23366 14.0467ZM7.81246 11.7143V11.0643H7.56212L7.37645 11.2322L7.81246 11.7143ZM1.65 6.60714C1.65 4.14553 3.64553 2.15 6.10714 2.15V0.85C2.92756 0.85 0.35 3.42756 0.35 6.60714H1.65ZM4.907 10.901C3.02781 10.3771 1.65 8.65216 1.65 6.60714H0.35C0.35 9.25076 2.13127 11.4767 4.55784 12.1533L4.907 10.901ZM5.38242 13.8242V11.5271H4.08242V13.8242H5.38242ZM4.79764 13.5646C5.02269 13.3611 5.38242 13.5208 5.38242 13.8242H4.08242C4.08242 14.6478 5.05885 15.0812 5.66967 14.5288L4.79764 13.5646ZM7.37645 11.2322L4.79765 13.5646L5.66967 14.5288L8.24847 12.1964L7.37645 11.2322ZM9.89286 11.0643H7.81246V12.3643H9.89286V11.0643ZM14.35 6.60714C14.35 9.06875 12.3545 11.0643 9.89286 11.0643V12.3643C13.0724 12.3643 15.65 9.78673 15.65 6.60714H14.35ZM9.89286 2.15C12.3545 2.15 14.35 4.14553 14.35 6.60714H15.65C15.65 3.42756 13.0724 0.85 9.89286 0.85V2.15ZM6.10714 2.15H9.89286V0.85H6.10714V2.15Z" fill="#27AAE1"/>
<circle cx="5" cy="6.5" r="1" fill="#27AAE1"/>
<circle cx="8" cy="6.5" r="1" fill="#27AAE1"/>
<circle cx="11" cy="6.5" r="1" fill="#27AAE1"/>
</svg>
