<svg width="60" height="38" viewBox="0 0 60 38" fill="none" xmlns="http://www.w3.org/2000/svg">
<path fill-rule="evenodd" clip-rule="evenodd" d="M4.41406 3.52941C4.41406 1.58017 5.99423 0 7.94347 0H52.3552C54.3045 0 55.8846 1.58017 55.8846 3.52941V31.47H60V34.1171C60 36.0663 58.4198 37.6465 56.4706 37.6465H3.52941C1.58017 37.6465 0 36.0663 0 34.1171V31.47H4.41406V3.52941ZM4.41406 32.6471V32.6465H1.17647V34.1171C1.17647 35.4166 2.22992 36.47 3.52941 36.47H56.4706C57.7701 36.47 58.8235 35.4166 58.8235 34.1171V32.6465H55.8846V32.6471H37.3524V32.9413C37.3524 33.9159 36.5623 34.706 35.5877 34.706H24.4112C23.4366 34.706 22.6465 33.9159 22.6465 32.9413V32.6471H4.41406ZM54.7082 3.52941V31.47H5.59053V3.52941C5.59053 2.22992 6.64398 1.17647 7.94347 1.17647H52.3552C53.6547 1.17647 54.7082 2.22992 54.7082 3.52941ZM23.823 32.6472H36.1759V32.9413C36.1759 33.2662 35.9125 33.5295 35.5877 33.5295H24.4112C24.0863 33.5295 23.823 33.2662 23.823 32.9413V32.6472ZM32.9402 2.94175C32.9402 3.26662 32.6769 3.52999 32.352 3.52999C32.0271 3.52999 31.7638 3.26662 31.7638 2.94175C31.7638 2.61688 32.0271 2.35352 32.352 2.35352C32.6769 2.35352 32.9402 2.61688 32.9402 2.94175ZM27.6466 2.35352C27.3218 2.35352 27.0584 2.61688 27.0584 2.94175C27.0584 3.26662 27.3218 3.52999 27.6466 3.52999H29.9996C30.3245 3.52999 30.5878 3.26662 30.5878 2.94175C30.5878 2.61688 30.3245 2.35352 29.9996 2.35352H27.6466Z" fill="url(#paint0_linear_412_8357)"/>
<path d="M23.2708 13.7618C24.2559 14.9424 25.2311 16.1034 26.1964 17.2741C26.3245 17.4302 26.4328 17.6742 26.4033 17.8595C26.3737 18.0156 26.1669 18.24 26.0093 18.2595C25.8122 18.2888 25.5364 18.1815 25.4084 18.0449C24.7976 17.3619 24.2263 16.6497 23.6353 15.9473C23.1526 15.3619 22.6601 14.7863 22.1774 14.2009C21.9016 13.8594 21.8917 13.6643 22.1774 13.3228C23.2412 12.035 24.315 10.7471 25.3985 9.46905C25.6349 9.18611 25.9994 9.13733 26.2457 9.35197C26.5018 9.57636 26.5215 9.87881 26.2555 10.191C25.3197 11.3228 24.3741 12.4447 23.4382 13.5667C23.3791 13.6253 23.3397 13.674 23.2708 13.7618Z" fill="url(#paint1_linear_412_8357)"/>
<path d="M37.5501 13.7671C36.5803 12.6135 35.6302 11.4598 34.6702 10.316C34.6108 10.2475 34.5514 10.1889 34.502 10.1204C34.3139 9.84668 34.3436 9.52405 34.591 9.33829C34.8285 9.15254 35.165 9.18187 35.3828 9.43606C35.8776 10.0129 36.3625 10.5995 36.8475 11.1861C37.4314 11.8802 38.0153 12.5744 38.5893 13.2783C38.9357 13.6987 38.9456 13.8747 38.5893 14.3048C37.5501 15.5465 36.511 16.7881 35.4718 18.0297C35.1848 18.3719 34.8483 18.4404 34.5811 18.235C34.2941 18.0102 34.304 17.6778 34.6108 17.3063C35.5411 16.1917 36.4714 15.087 37.3918 13.9724C37.4512 13.8942 37.4907 13.8453 37.5501 13.7671Z" fill="url(#paint2_linear_412_8357)"/>
<path d="M28.4404 18.2644C28.0912 18.2644 27.8682 17.8665 28.0815 17.4006C28.4889 16.5174 28.906 15.6438 29.3134 14.7703C30.1087 13.0815 30.8943 11.4025 31.6897 9.71368C31.7188 9.64574 31.7479 9.5778 31.7867 9.51956C31.9516 9.2478 32.2328 9.15075 32.5044 9.26721C32.7566 9.38368 32.8924 9.68456 32.7857 9.97573C32.7178 10.1698 32.6111 10.3543 32.5238 10.5387C31.389 12.9554 30.2445 15.3721 29.1097 17.7985C28.9933 18.0509 28.8575 18.2644 28.4404 18.2644Z" fill="url(#paint3_linear_412_8357)"/>
<path d="M37.6032 24.133C38.4592 24.133 39.325 24.1139 40.181 24.1426C40.3975 24.1521 40.6631 24.2668 40.8107 24.4196C41.0469 24.6679 40.8796 25.0786 40.5254 25.1933C40.3975 25.2315 40.2597 25.241 40.1318 25.241C38.4395 25.241 36.7373 25.241 35.045 25.241C34.986 25.241 34.9171 25.241 34.8581 25.241C34.5137 25.2028 34.2874 24.9927 34.2874 24.6966C34.2776 24.3814 34.5137 24.1521 34.8777 24.133C35.3402 24.1139 35.8125 24.1235 36.2749 24.1235C36.7177 24.133 37.1604 24.133 37.6032 24.133Z" fill="url(#paint4_linear_412_8357)"/>
<path d="M34.3537 22.5711C33.5302 22.5711 32.7068 22.5711 31.8833 22.5711C31.4377 22.5711 31.1761 22.3531 31.1858 22.0062C31.1955 21.6593 31.4571 21.4512 31.9027 21.4512C33.5593 21.4512 35.2159 21.4512 36.8725 21.4512C37.3278 21.4512 37.57 21.6593 37.5603 22.026C37.5603 22.3729 37.3278 22.5711 36.8918 22.5711C36.049 22.5711 35.2062 22.5711 34.3537 22.5711Z" fill="url(#paint5_linear_412_8357)"/>
<path d="M26.0869 25.2315C25.5369 25.2315 24.9869 25.2315 24.427 25.2315C23.9654 25.2315 23.6707 25.0017 23.6904 24.6571C23.7002 24.3221 23.9752 24.1211 24.427 24.1211C25.5467 24.1211 26.6566 24.1211 27.7762 24.1211C28.2379 24.1211 28.5325 24.3508 28.5129 24.6954C28.503 25.0209 28.228 25.2315 27.7762 25.241C27.2164 25.241 26.6566 25.2315 26.0869 25.2315Z" fill="url(#paint6_linear_412_8357)"/>
<path d="M22.8516 21.4556C23.4844 21.4556 24.1074 21.4556 24.7402 21.4556C25.1555 21.4556 25.4225 21.6826 25.4126 22.0281C25.4027 22.3539 25.1654 22.5711 24.76 22.5711C23.5042 22.5711 22.2385 22.5711 20.9827 22.5711C20.5674 22.5711 20.34 22.3638 20.3301 22.0281C20.3301 21.6727 20.5674 21.4654 20.9926 21.4556C21.6155 21.4457 22.2286 21.4556 22.8516 21.4556Z" fill="url(#paint7_linear_412_8357)"/>
<path d="M20.5916 24.1307C20.9418 24.1307 21.292 24.1211 21.6519 24.1307C22.0702 24.1403 22.3134 24.3513 22.3134 24.6871C22.3134 25.0132 22.0799 25.2338 21.6811 25.2338C20.9321 25.2434 20.1733 25.2434 19.4243 25.2338C19.0158 25.2242 18.7628 24.9844 18.7823 24.6583C18.792 24.3417 19.0449 24.1307 19.434 24.1211C19.8231 24.1211 20.2122 24.1307 20.5916 24.1307Z" fill="url(#paint8_linear_412_8357)"/>
<path d="M17.2556 21.4556C17.6521 21.4556 18.0486 21.4457 18.4451 21.4556C18.8019 21.4655 19.0498 21.7128 19.0398 22.0294C19.0299 22.3361 18.792 22.5637 18.4451 22.5637C17.6323 22.5736 16.8096 22.5736 15.9968 22.5637C15.6598 22.5637 15.4219 22.3163 15.4219 22.0195C15.4219 21.7029 15.6598 21.4655 16.0265 21.4556C16.4428 21.4457 16.8492 21.4556 17.2556 21.4556Z" fill="url(#paint9_linear_412_8357)"/>
<path d="M31.3982 24.1254C31.6505 24.1254 31.9028 24.1158 32.155 24.1254C32.5238 24.1445 32.7372 24.3648 32.7372 24.6808C32.7372 24.9872 32.5335 25.2075 32.1842 25.2267C31.6408 25.2458 31.0974 25.2458 30.554 25.2267C30.2047 25.2171 29.9621 24.9489 29.9816 24.6521C29.9913 24.3648 30.2338 24.1445 30.5637 24.1254C30.8354 24.1158 31.1168 24.1254 31.3982 24.1254Z" fill="url(#paint10_linear_412_8357)"/>
<path d="M43.6743 25.2367C43.4211 25.2367 43.1679 25.2464 42.9049 25.2367C42.5056 25.2175 42.2914 24.9958 42.3011 24.6681C42.3108 24.35 42.5251 24.138 42.9049 24.1283C43.4114 24.1187 43.9275 24.1187 44.434 24.1283C44.8041 24.138 45.067 24.3886 45.0573 24.697C45.0475 24.9958 44.8041 25.2175 44.4437 25.2367C44.1905 25.2464 43.9275 25.2367 43.6743 25.2367Z" fill="url(#paint11_linear_412_8357)"/>
<path d="M28.277 22.5585C27.9894 22.5585 27.7019 22.5683 27.4242 22.5585C27.107 22.5388 26.8789 22.3026 26.8789 22.0171C26.8789 21.7317 27.107 21.4659 27.4143 21.4659C27.9795 21.4463 28.5546 21.4463 29.1198 21.4659C29.4271 21.4758 29.6453 21.7317 29.6353 22.0368C29.6155 22.3518 29.447 22.5487 29.1297 22.5684C28.852 22.5782 28.5645 22.5585 28.277 22.5585Z" fill="url(#paint12_linear_412_8357)"/>
<defs>
<linearGradient id="paint0_linear_412_8357" x1="0" y1="18.8232" x2="60" y2="18.8232" gradientUnits="userSpaceOnUse">
<stop stop-color="#F7941D"/>
<stop offset="1" stop-color="#27AAE1"/>
</linearGradient>
<linearGradient id="paint1_linear_412_8357" x1="21.9668" y1="13.7416" x2="26.4465" y2="13.7416" gradientUnits="userSpaceOnUse">
<stop stop-color="#F7941D"/>
<stop offset="1" stop-color="#27AAE1"/>
</linearGradient>
<linearGradient id="paint2_linear_412_8357" x1="34.373" y1="13.7846" x2="38.8528" y2="13.7846" gradientUnits="userSpaceOnUse">
<stop stop-color="#F7941D"/>
<stop offset="1" stop-color="#27AAE1"/>
</linearGradient>
<linearGradient id="paint3_linear_412_8357" x1="27.998" y1="13.7416" x2="32.8224" y2="13.7416" gradientUnits="userSpaceOnUse">
<stop stop-color="#F7941D"/>
<stop offset="1" stop-color="#27AAE1"/>
</linearGradient>
<linearGradient id="paint4_linear_412_8357" x1="34.2871" y1="24.6811" x2="40.9206" y2="24.6811" gradientUnits="userSpaceOnUse">
<stop stop-color="#F7941D"/>
<stop offset="1" stop-color="#27AAE1"/>
</linearGradient>
<linearGradient id="paint5_linear_412_8357" x1="31.1855" y1="22.0111" x2="37.5606" y2="22.0111" gradientUnits="userSpaceOnUse">
<stop stop-color="#F7941D"/>
<stop offset="1" stop-color="#27AAE1"/>
</linearGradient>
<linearGradient id="paint6_linear_412_8357" x1="23.6895" y1="24.6811" x2="28.5138" y2="24.6811" gradientUnits="userSpaceOnUse">
<stop stop-color="#F7941D"/>
<stop offset="1" stop-color="#27AAE1"/>
</linearGradient>
<linearGradient id="paint7_linear_412_8357" x1="20.3301" y1="22.0111" x2="25.4129" y2="22.0111" gradientUnits="userSpaceOnUse">
<stop stop-color="#F7941D"/>
<stop offset="1" stop-color="#27AAE1"/>
</linearGradient>
<linearGradient id="paint8_linear_412_8357" x1="18.7813" y1="24.6811" x2="22.3134" y2="24.6811" gradientUnits="userSpaceOnUse">
<stop stop-color="#F7941D"/>
<stop offset="1" stop-color="#27AAE1"/>
</linearGradient>
<linearGradient id="paint9_linear_412_8357" x1="15.4219" y1="22.0111" x2="19.0401" y2="22.0111" gradientUnits="userSpaceOnUse">
<stop stop-color="#F7941D"/>
<stop offset="1" stop-color="#27AAE1"/>
</linearGradient>
<linearGradient id="paint10_linear_412_8357" x1="29.9805" y1="24.6811" x2="32.7372" y2="24.6811" gradientUnits="userSpaceOnUse">
<stop stop-color="#F7941D"/>
<stop offset="1" stop-color="#27AAE1"/>
</linearGradient>
<linearGradient id="paint11_linear_412_8357" x1="42.3008" y1="24.6811" x2="45.0575" y2="24.6811" gradientUnits="userSpaceOnUse">
<stop stop-color="#F7941D"/>
<stop offset="1" stop-color="#27AAE1"/>
</linearGradient>
<linearGradient id="paint12_linear_412_8357" x1="26.8789" y1="22.0111" x2="29.6357" y2="22.0111" gradientUnits="userSpaceOnUse">
<stop stop-color="#F7941D"/>
<stop offset="1" stop-color="#27AAE1"/>
</linearGradient>
</defs>
</svg>
