<svg width="26" height="40" viewBox="0 0 26 40" fill="none" xmlns="http://www.w3.org/2000/svg">
<path fill-rule="evenodd" clip-rule="evenodd" d="M4.28789 11.7936C4.28789 5.2655 9.95638 1.73711 15.2096 1.73711C16.2793 1.73711 17.6185 2.02356 18.8775 2.49087C19.8753 2.86125 20.7762 3.32795 21.4287 3.81514L19.2483 5.99554L18.8241 6.41981L19.2483 6.84407L24.4008 11.9966V14.1439L22.3558 16.2241L20.1424 14.0107L19.9667 13.8349H19.7181H16.166C15.4255 13.8349 14.6564 13.6223 14.0899 13.2463C13.5319 12.8759 13.2138 12.3835 13.2138 11.7936V10.9283H12.0138V11.7936C12.0138 12.8886 12.6293 13.717 13.4262 14.246C14.2145 14.7693 15.2214 15.0349 16.166 15.0349H16.3867V17.9881V18.2366L16.5625 18.4124L16.9867 17.9881L16.5625 18.4124L16.5625 18.4124L16.5628 18.4127L16.5638 18.4136L16.5676 18.4175L16.583 18.4329L16.6439 18.4938L16.8812 18.7311L17.7807 19.6306L20.5569 22.4068C19.8047 23.1746 19.0381 24.0482 18.6203 25.1943C18.1706 26.4282 18.1451 27.9044 18.7843 29.8203H12.5668V31.0203H20.5364C21.2069 31.0203 21.7125 31.5259 21.7125 32.1964C21.7125 32.8669 21.2069 33.3725 20.5364 33.3725V33.373H11.6569V34.573H23.1786C23.8491 34.573 24.3547 35.0786 24.3547 35.7491V38.7013H1.60039V35.7491C1.60039 35.0786 2.10595 34.573 2.77647 34.573H7.19389V33.373H5.46397V33.3725C4.79345 33.3725 4.28789 32.8669 4.28789 32.1964C4.28789 31.5259 4.79345 31.0203 5.46397 31.0203H8.10531V29.8203H7.58204C9.56288 26.7779 9.02628 22.0088 4.28789 19.4019V19.3943V19.381V19.3675V19.354V19.3404V19.3267V19.3129V19.299V19.2851V19.2711V19.2569V19.2428V19.2285V19.2141V19.1997V19.1852V19.1706V19.1559V19.1411V19.1263V19.1114V19.0964V19.0814V19.0662V19.051V19.0357V19.0204V19.0049V18.9894V18.9738V18.9582V18.9425V18.9267V18.9108V18.8948V18.8788V18.8627V18.8466V18.8304V18.8141V18.7977V18.7813V18.7648V18.7483V18.7316V18.715V18.6982V18.6814V18.6645V18.6476V18.6305V18.6135V18.5963V18.5791V18.5619V18.5446V18.5272V18.5098V18.4923V18.4747V18.4571V18.4394V18.4217V18.4039V18.3861V18.3682V18.3502V18.3322V18.3141V18.296V18.2778V18.2596V18.2413V18.223V18.2046V18.1862V18.1677V18.1492V18.1306V18.1119V18.0933V18.0745V18.0558V18.0369V18.0181V17.9991V17.9802V17.9612V17.9421V17.923V17.9038V17.8847V17.8654V17.8461V17.8268V17.8075V17.7881V17.7686V17.7491V17.7296V17.7101V17.6905V17.6708V17.6511V17.6314V17.6117V17.5919V17.5721V17.5522V17.5323V17.5124V17.4924V17.4724V17.4524V17.4323V17.4122V17.3921V17.3719V17.3517V17.3315V17.3113V17.291V17.2707V17.2503V17.23V17.2096V17.1892V17.1687V17.1482V17.1277V17.1072V17.0867V17.0661V17.0455V17.0249V17.0042V16.9836V16.9629V16.9422V16.9214V16.9007V16.8799V16.8591V16.8383V16.8175V16.7966V16.7758V16.7549V16.734V16.7131V16.6922V16.6712V16.6502V16.6293V16.6083V16.5873V16.5663V16.5452V16.5242V16.5032V16.4821V16.461V16.4399V16.4189V16.3978V16.3766V16.3555V16.3344V16.3133V16.2921V16.271V16.2498V16.2287V16.2075V16.1864V16.1652V16.144V16.1228V16.1017V16.0805V16.0593V16.0381V16.0169V15.9958V15.9746V15.9534V15.9322V15.911V15.8899V15.8687V15.8475V15.8264V15.8052V15.784V15.7629V15.7417V15.7206V15.6995V15.6783V15.6572V15.6361V15.615V15.5939V15.5728V15.5518V15.5307V15.5096V15.4886V15.4676V15.4466V15.4256V15.4046V15.3836V15.3626V15.3417V15.3207V15.2998V15.2789V15.258V15.2372V15.2163V15.1955V15.1747V15.1539V15.1331V15.1123V15.0916V15.0709V15.0502V15.0295V15.0089V14.9882V14.9676V14.9471V14.9265V14.906V14.8855V14.865V14.8445V14.8241V14.8037V14.7833V14.763V14.7426V14.7224V14.7021V14.6819V14.6617V14.6415V14.6214V14.6013V14.5812V14.5611V14.5411V14.5212V14.5012V14.4813V14.4614V14.4416V14.4218V14.402V14.3823V14.3626V14.343V14.3234V14.3038V14.2843V14.2648V14.2453V14.2259V14.2065V14.1872V14.1679V14.1487V14.1294V14.1103V14.0912V14.0721V14.0531V14.0341V14.0152V13.9963V13.9774V13.9586V13.9399V13.9212V13.9025V13.8839V13.8654V13.8469V13.8284V13.8101V13.7917V13.7734V13.7552V13.737V13.7188V13.7008V13.6827V13.6648V13.6469V13.629V13.6112V13.5934V13.5758V13.5581V13.5405V13.523V13.5056V13.4882V13.4708V13.4536V13.4364V13.4192V13.4021V13.3851V13.3681V13.3512V13.3344V13.3176V13.3009V13.2843V13.2677V13.2512V13.2347V13.2184V13.202V13.1858V13.1696V13.1535V13.1375V13.1215V13.1056V13.0898V13.0741V13.0584V13.0428V13.0273V13.0118V12.9964V12.9811V12.9659V12.9507V12.9356V12.9206V12.9057V12.8908V12.8761V12.8614V12.8467V12.8322V12.8177V12.8034V12.7891V12.7748V12.7607V12.7466V12.7327V12.7188V12.705V12.6913V12.6776V12.6641V12.6506V12.6372V12.6239V12.6107V12.5976V12.5846V12.5716V12.5588V12.546V12.5333V12.5207V12.5082V12.4958V12.4835V12.4713V12.4591V12.4471V12.4352V12.4233V12.4115V12.3999V12.3883V12.3769V12.3655V12.3542V12.343V12.3319V12.3209V12.3101V12.2993V12.2886V12.278V12.2675V12.2571V12.2468V12.2367V12.2266V12.2166V12.2067V12.197V12.1873V12.1777V12.1683V12.1589V12.1497V12.1405V12.1315V12.1226V12.1138V12.1051V12.0965V12.088V12.0796V12.0713V12.0632V12.0551V12.0472V12.0394V12.0317V12.0241V12.0166V12.0092V12.002V11.9948V11.9878V11.9809V11.9741V11.9674V11.9609V11.9545V11.9481V11.9419V11.9359V11.9299V11.9241V11.9183V11.9127V11.9073V11.9019V11.8967V11.8916V11.8866V11.8817V11.877V11.8724V11.8679V11.8636V11.8593V11.8552V11.8513V11.8474V11.8437V11.8401V11.8366V11.8333V11.8301V11.827V11.8241V11.8213V11.8186V11.8161V11.8137V11.8114V11.8093V11.8072V11.8054V11.8036V11.802V11.8006V11.7993V11.7981V11.797V11.7961V11.7953V11.7947V11.7942V11.7939V11.7936L3.68789 11.7936H4.28789ZM22.6109 33.373H23.1786C24.5119 33.373 25.5547 34.4159 25.5547 35.7491V39.3013V39.9013H24.9547H1.00039H0.400391V39.3013V35.7491C0.400391 34.4159 1.44321 33.373 2.77647 33.373H3.38947C3.19689 33.0281 3.08789 32.6275 3.08789 32.1964C3.08789 30.8631 4.1307 29.8203 5.46397 29.8203H6.07166C8.25334 27.4149 8.22333 22.7431 3.41588 20.298L3.08789 20.1311V19.7632V19.7527V19.7421V19.7315V19.7207V19.7099V19.6989V19.6879V19.6767V19.6655V19.6541V19.6427V19.6311V19.6195V19.6078V19.5959V19.584V19.572V19.5599V19.5477V19.5354V19.5231V19.5106V19.498V19.4854V19.4726V19.4598V19.4469V19.4339V19.4208V19.4076V19.3943V19.381V19.3675V19.354V19.3404V19.3267V19.3129V19.299V19.2851V19.2711V19.2569V19.2428V19.2285V19.2141V19.1997V19.1852V19.1706V19.1559V19.1411V19.1263V19.1114V19.0964V19.0814V19.0662V19.051V19.0357V19.0204V19.0049V18.9894V18.9738V18.9582V18.9425V18.9267V18.9108V18.8948V18.8788V18.8627V18.8466V18.8304V18.8141V18.7977V18.7813V18.7648V18.7483V18.7316V18.715V18.6982V18.6814V18.6645V18.6476V18.6305V18.6135V18.5963V18.5791V18.5619V18.5446V18.5272V18.5098V18.4923V18.4747V18.4571V18.4394V18.4217V18.4039V18.3861V18.3682V18.3502V18.3322V18.3141V18.296V18.2778V18.2596V18.2413V18.223V18.2046V18.1862V18.1677V18.1492V18.1306V18.1119V18.0933V18.0745V18.0558V18.0369V18.0181V17.9991V17.9802V17.9612V17.9421V17.923V17.9038V17.8847V17.8654V17.8461V17.8268V17.8075V17.7881V17.7686V17.7491V17.7296V17.7101V17.6905V17.6708V17.6511V17.6314V17.6117V17.5919V17.5721V17.5522V17.5323V17.5124V17.4924V17.4724V17.4524V17.4323V17.4122V17.3921V17.3719V17.3517V17.3315V17.3113V17.291V17.2707V17.2503V17.23V17.2096V17.1892V17.1687V17.1482V17.1277V17.1072V17.0867V17.0661V17.0455V17.0249V17.0042V16.9836V16.9629V16.9422V16.9214V16.9007V16.8799V16.8591V16.8383V16.8175V16.7966V16.7758V16.7549V16.734V16.7131V16.6922V16.6712V16.6502V16.6293V16.6083V16.5873V16.5663V16.5452V16.5242V16.5032V16.4821V16.461V16.4399V16.4189V16.3978V16.3766V16.3555V16.3344V16.3133V16.2921V16.271V16.2498V16.2287V16.2075V16.1864V16.1652V16.144V16.1228V16.1017V16.0805V16.0593V16.0381V16.0169V15.9958V15.9746V15.9534V15.9322V15.911V15.8899V15.8687V15.8475V15.8264V15.8052V15.784V15.7629V15.7417V15.7206V15.6995V15.6783V15.6572V15.6361V15.615V15.5939V15.5728V15.5518V15.5307V15.5096V15.4886V15.4676V15.4466V15.4256V15.4046V15.3836V15.3626V15.3417V15.3207V15.2998V15.2789V15.258V15.2372V15.2163V15.1955V15.1747V15.1539V15.1331V15.1123V15.0916V15.0709V15.0502V15.0295V15.0089V14.9882V14.9676V14.9471V14.9265V14.906V14.8855V14.865V14.8445V14.8241V14.8037V14.7833V14.763V14.7426V14.7224V14.7021V14.6819V14.6617V14.6415V14.6214V14.6013V14.5812V14.5611V14.5411V14.5212V14.5012V14.4813V14.4614V14.4416V14.4218V14.402V14.3823V14.3626V14.343V14.3234V14.3038V14.2843V14.2648V14.2453V14.2259V14.2065V14.1872V14.1679V14.1487V14.1294V14.1103V14.0912V14.0721V14.0531V14.0341V14.0152V13.9963V13.9774V13.9586V13.9399V13.9212V13.9025V13.8839V13.8654V13.8469V13.8284V13.8101V13.7917V13.7734V13.7552V13.737V13.7188V13.7008V13.6827V13.6648V13.6469V13.629V13.6112V13.5934V13.5758V13.5581V13.5405V13.523V13.5056V13.4882V13.4708V13.4536V13.4364V13.4192V13.4021V13.3851V13.3681V13.3512V13.3344V13.3176V13.3009V13.2843V13.2677V13.2512V13.2347V13.2184V13.202V13.1858V13.1696V13.1535V13.1375V13.1215V13.1056V13.0898V13.0741V13.0584V13.0428V13.0273V13.0118V12.9964V12.9811V12.9659V12.9507V12.9356V12.9206V12.9057V12.8908V12.8761V12.8614V12.8467V12.8322V12.8177V12.8034V12.7891V12.7748V12.7607V12.7466V12.7327V12.7188V12.705V12.6913V12.6776V12.6641V12.6506V12.6372V12.6239V12.6107V12.5976V12.5846V12.5716V12.5588V12.546V12.5333V12.5207V12.5082V12.4958V12.4835V12.4713V12.4591V12.4471V12.4352V12.4233V12.4115V12.3999V12.3883V12.3769V12.3655V12.3542V12.343V12.3319V12.3209V12.3101V12.2993V12.2886V12.278V12.2675V12.2571V12.2468V12.2367V12.2266V12.2166V12.2067V12.197V12.1873V12.1777V12.1683V12.1589V12.1497V12.1405V12.1315V12.1226V12.1138V12.1051V12.0965V12.088V12.0796V12.0713V12.0632V12.0551V12.0472V12.0394V12.0317V12.0241V12.0166V12.0092V12.002V11.9948V11.9878V11.9809V11.9741V11.9674V11.9609V11.9545V11.9481V11.9419V11.9359V11.9299V11.9241V11.9183V11.9127V11.9073V11.9019V11.8967V11.8916V11.8866V11.8817V11.877V11.8724V11.8679V11.8636V11.8593V11.8552V11.8513V11.8474V11.8437V11.8401V11.8366V11.8333V11.8301V11.827V11.8241V11.8213V11.8186V11.8161V11.8137V11.8114V11.8093V11.8072V11.8054V11.8036V11.802V11.8006V11.7993V11.7981V11.797V11.7961V11.7953V11.7947V11.7942V11.7939V11.7936L3.68789 11.7936H3.08789C3.08789 4.38627 9.53316 0.537109 15.2096 0.537109C16.4626 0.537109 17.9469 0.865455 19.295 1.36587C20.6372 1.86406 21.9189 2.5604 22.7314 3.34751L23.1692 3.77166L22.7382 4.20271L20.5211 6.4198L25.4251 11.3238L25.6008 11.4995V11.748V14.3894V14.6349L25.4287 14.81L22.7874 17.4969L22.3631 17.9284L21.9352 17.5005L19.4696 15.0349H17.5867V17.7396L17.7298 17.8826L18.6292 18.782L21.8284 21.9813L22.2527 22.4055L21.8284 22.8298C20.9249 23.7333 20.139 24.5319 19.7478 25.6053C19.3887 26.5904 19.339 27.8894 20.0567 29.8203H20.5364C21.8696 29.8203 22.9125 30.8631 22.9125 32.1964C22.9125 32.6275 22.8035 33.0281 22.6109 33.373Z" fill="url(#paint0_linear_412_8325)"/>
<defs>
<linearGradient id="paint0_linear_412_8325" x1="0.400391" y1="20.2192" x2="25.6008" y2="20.2192" gradientUnits="userSpaceOnUse">
<stop stop-color="#F7941D"/>
<stop offset="1" stop-color="#27AAE1"/>
</linearGradient>
</defs>
</svg>
