<svg width="143" height="91" viewBox="0 0 143 91" fill="none" xmlns="http://www.w3.org/2000/svg">
<g clip-path="url(#clip0_252_3453)">
<path d="M21.2016 90.6854C9.51327 90.6854 0.0820312 81.2541 0.0820312 69.5658C0.0820312 57.8775 9.51327 48.4463 21.2016 48.4463C32.8899 48.4463 42.3211 57.8775 42.3211 69.5658C42.3211 81.2541 32.8899 90.6854 21.2016 90.6854Z" fill="white"/>
<path d="M71.0975 2.41787L48.2046 39.8204C47.5597 40.8684 48.2852 42.2387 49.4943 42.2387H72.3873H95.2802C96.4893 42.2387 97.2149 40.8684 96.5699 39.8204L73.6771 2.41787C73.0321 1.45055 71.6618 1.45055 71.0975 2.41787Z" fill="white"/>
<path d="M41.8361 8.78638L33.5334 0.483654C32.8884 -0.161218 31.9211 -0.161218 31.3569 0.483654L22.2481 9.59245C21.6031 10.2373 20.6359 10.2373 20.0716 9.59245L10.9628 0.483654C10.3179 -0.161218 9.35063 -0.161218 8.78637 0.483654L0.483654 8.78638C-0.161218 9.43124 -0.161218 10.3986 0.483654 10.9628L9.59245 20.0716C10.2373 20.7165 10.2373 21.6839 9.59245 22.2481L0.483654 31.3569C-0.161218 32.0017 -0.161218 32.969 0.483654 33.5334L8.78637 41.8361C9.43124 42.4809 10.3986 42.4809 10.9628 41.8361L20.0716 32.7272C20.7165 32.0823 21.6839 32.0823 22.2481 32.7272L31.3569 41.8361C32.0017 42.4809 32.969 42.4809 33.5334 41.8361L41.8361 33.5334C42.4809 32.8884 42.4809 31.9211 41.8361 31.3569L32.7272 22.2481C32.0823 21.6031 32.0823 20.6359 32.7272 20.0716L41.8361 10.9628C42.4809 10.3179 42.4809 9.35063 41.8361 8.78638Z" fill="white"/>
<path d="M56.4265 68.7595H51.8318L50.9451 70.8554H48.6074L53.0409 60.9404H55.298L59.7315 70.8554H57.3131L56.4265 68.7595ZM55.701 67.0667L54.0889 63.2781L52.4766 67.0667H55.701Z" fill="white"/>
<path d="M63.1962 70.4523C62.3901 70.0493 61.7453 69.4044 61.2617 68.5984C60.7779 67.7923 60.5361 66.9055 60.5361 65.9382C60.5361 64.971 60.7779 64.0843 61.2617 63.2782C61.7453 62.472 62.3901 61.9078 63.1962 61.4242C64.0023 61.0211 64.9697 60.7793 65.9369 60.7793C66.8236 60.7793 67.5491 60.9405 68.2745 61.2629C69 61.5854 69.5644 61.9884 70.048 62.5528L68.597 63.9231C67.9521 63.117 67.0654 62.7946 66.0982 62.7946C65.4533 62.7946 64.9697 62.9558 64.4859 63.1976C64.0023 63.4394 63.5993 63.8425 63.3574 64.3261C63.1156 64.8097 62.9544 65.374 62.9544 65.9382C62.9544 66.5831 63.1156 67.0667 63.3574 67.5505C63.5993 68.0341 64.0023 68.4372 64.4859 68.679C64.9697 68.9208 65.5339 69.082 66.0982 69.082C67.0654 69.082 67.9521 68.679 68.597 67.8729L70.048 69.2432C69.5644 69.8075 69 70.2911 68.2745 70.5329C67.5491 70.8555 66.8236 71.0167 65.9369 71.0167C64.9697 71.0973 64.0023 70.8555 63.1962 70.4523Z" fill="white"/>
<path d="M78.5115 68.7595H73.9168L73.0302 70.8554H70.6924L75.1259 60.9404H77.383L81.8165 70.8554H79.3982L78.5115 68.7595ZM77.7861 67.0667L76.1738 63.2781L74.5617 67.0667H77.7861Z" fill="white"/>
<path d="M83.2676 61.0215H87.7817C88.8296 61.0215 89.7968 61.2633 90.603 61.6664C91.4091 62.0694 92.0539 62.6337 92.5376 63.4397C93.0212 64.1653 93.263 65.052 93.263 66.0192C93.263 66.9865 93.0212 67.8733 92.5376 68.5988C92.0539 69.3242 91.4091 69.8885 90.603 70.3721C89.7968 70.7753 88.8296 71.0171 87.7817 71.0171H83.2676V61.0215ZM87.7011 69.0018C88.6683 69.0018 89.4744 68.76 90.0388 68.1957C90.603 67.6315 90.9254 66.9059 90.9254 65.9386C90.9254 64.9714 90.603 64.2459 90.0388 63.6817C89.4744 63.1173 88.6683 62.8755 87.7011 62.8755H85.6052V69.0018H87.7011Z" fill="white"/>
<path d="M103.098 69.0824V70.9365H95.4404V61.0215H102.937V62.8755H97.6975V65.052H102.292V66.8253H97.6975V69.0824H103.098Z" fill="white"/>
<path d="M114.385 70.9365V64.9714L111.483 69.8885H110.435L107.533 65.1326V70.9365H105.356V61.0215H107.291L110.999 67.1477L114.626 61.0215H116.481V70.9365H114.385Z" fill="white"/>
<path d="M124.058 67.3897V70.9365H121.801V67.3897L117.932 61.0215H120.35L123.01 65.455L125.67 61.0215H127.927L124.058 67.3897Z" fill="white"/>
<path d="M50.6233 89.1538C50.1396 88.912 49.8172 88.5896 49.4948 88.1059C49.253 87.7029 49.0918 87.1386 49.0918 86.5744C49.0918 86.0101 49.253 85.5265 49.4948 85.0429C49.7366 84.6397 50.1396 84.2367 50.6233 83.9949C51.1069 83.7531 51.5907 83.5918 52.2355 83.5918C52.7998 83.5918 53.364 83.7531 53.8477 83.9949C54.3313 84.2367 54.6537 84.5591 54.9762 85.0429C55.218 85.4459 55.3792 86.0101 55.3792 86.5744C55.3792 87.1386 55.218 87.6223 54.9762 88.1059C54.7343 88.509 54.3313 88.912 53.8477 89.1538C53.364 89.3956 52.8804 89.557 52.2355 89.557C51.5907 89.557 51.0263 89.3956 50.6233 89.1538ZM53.2028 87.7835C53.4446 87.4611 53.6059 87.1386 53.6059 86.655C53.6059 86.1714 53.4446 85.7683 53.2028 85.5265C52.961 85.2041 52.558 85.1235 52.1549 85.1235C51.7519 85.1235 51.4295 85.2847 51.1069 85.5265C50.8651 85.8489 50.7039 86.1714 50.7039 86.655C50.7039 87.1386 50.8651 87.5417 51.1069 87.7835C51.3489 88.1059 51.7519 88.1865 52.1549 88.1865C52.558 88.1865 52.961 88.0253 53.2028 87.7835Z" fill="white"/>
<path d="M58.4417 83.9138H59.8926V85.2036H58.5223V89.4758H56.9102V85.2036H56.0234V83.9138H56.9102V83.6719C56.9102 83.0271 57.0714 82.5434 57.4744 82.1404C57.8775 81.7374 58.3611 81.5762 59.0866 81.5762C59.3284 81.5762 59.5702 81.5762 59.812 81.6568C60.054 81.7374 60.2152 81.818 60.3764 81.8986L59.9734 83.1077C59.812 82.9465 59.5702 82.9465 59.3284 82.9465C58.8448 82.9465 58.6029 83.1883 58.6029 83.7526V83.9138H58.4417Z" fill="white"/>
<path d="M67.9519 89.1535C67.7907 89.2341 67.6295 89.3953 67.3877 89.3953C67.1459 89.4759 66.9039 89.4759 66.6621 89.4759C66.0172 89.4759 65.453 89.3147 65.1306 88.9923C64.7275 88.6697 64.5663 88.1861 64.5663 87.4606V85.123H63.6797V83.8332H64.5663V82.4629H66.1785V83.8332H67.5489V85.123H66.1785V87.38C66.1785 87.6219 66.2591 87.7831 66.3397 87.9443C66.5009 88.1055 66.6621 88.1055 66.8233 88.1055C67.0651 88.1055 67.3071 88.0249 67.4683 87.8637L67.9519 89.1535Z" fill="white"/>
<path d="M74.322 84.3978C74.7251 84.801 74.9669 85.4457 74.9669 86.2519V89.4763H73.3548V86.4937C73.3548 86.0101 73.2742 85.6875 73.0323 85.5263C72.8711 85.2845 72.5487 85.2039 72.1457 85.2039C71.7425 85.2039 71.4201 85.3652 71.1783 85.607C70.9365 85.8489 70.7752 86.2519 70.7752 86.7355V89.5569H69.1631V81.8184H70.7752V84.559C71.0171 84.3172 71.2589 84.156 71.5813 84.0754C71.9037 83.9948 72.2263 83.9142 72.5487 83.9142C73.3548 83.753 73.919 83.9142 74.322 84.3978Z" fill="white"/>
<path d="M82.2204 87.1386H77.9482C78.0288 87.4611 78.19 87.7835 78.5124 87.9447C78.8348 88.1865 79.1573 88.2671 79.5603 88.2671C79.8827 88.2671 80.1245 88.1865 80.3665 88.1059C80.6083 88.0253 80.7695 87.8641 81.0113 87.7029L81.898 88.6702C81.3338 89.315 80.6083 89.557 79.5603 89.557C78.9154 89.557 78.3512 89.3956 77.8676 89.1538C77.3839 88.912 76.9809 88.5896 76.7389 88.1059C76.4971 87.7029 76.3359 87.1386 76.3359 86.5744C76.3359 86.0101 76.4971 85.5265 76.7389 85.0429C76.9809 84.6397 77.3839 84.2367 77.787 83.9949C78.19 83.7531 78.7542 83.5918 79.3185 83.5918C79.8827 83.5918 80.3665 83.6725 80.8501 83.9143C81.3337 84.1561 81.6562 84.4785 81.898 84.9623C82.1398 85.4459 82.301 85.9295 82.301 86.4938C82.301 86.655 82.301 86.8162 82.2204 87.1386ZM78.4318 85.2847C78.19 85.5265 78.0288 85.7683 77.9482 86.1714H80.6889C80.6083 85.8489 80.4471 85.5265 80.2053 85.2847C79.9633 85.0429 79.6409 84.9623 79.3185 84.9623C78.996 84.9623 78.6736 85.0429 78.4318 85.2847Z" fill="white"/>
<path d="M90.1222 82.1406V84.5588H94.3139V86.2516H90.1222V89.5566H88.0264V80.5283H94.8781V82.2212H90.1222V82.1406Z" fill="white"/>
<path d="M97.6983 88.5087C96.9728 87.7832 96.6504 86.816 96.6504 85.4455V80.3672H98.7462V85.3649C98.7462 86.9772 99.3911 87.7832 100.761 87.7832C101.406 87.7832 101.89 87.622 102.293 87.219C102.696 86.816 102.777 86.2516 102.777 85.3649V80.3672H104.872V85.4455C104.872 86.7354 104.55 87.7832 103.825 88.5087C103.099 89.2342 102.132 89.5566 100.842 89.5566C99.5523 89.5566 98.3431 89.2342 97.6983 88.5087Z" fill="white"/>
<path d="M109.062 82.1411H106.16V80.4482H114.06V82.1411H111.158V89.4765H109.062V82.1411Z" fill="white"/>
<path d="M116.561 88.5087C115.835 87.7832 115.513 86.816 115.513 85.4455V80.3672H117.609V85.3649C117.609 86.9772 118.253 87.7832 119.624 87.7832C120.269 87.7832 120.752 87.622 121.155 87.219C121.558 86.816 121.639 86.2516 121.639 85.3649V80.3672H123.735V85.4455C123.735 86.7354 123.412 87.7832 122.687 88.5087C121.961 89.2342 120.994 89.5566 119.704 89.5566C118.415 89.5566 117.286 89.2342 116.561 88.5087Z" fill="white"/>
<path d="M131.876 89.4765L130.103 86.9776H130.022H128.168V89.4765H126.072V80.4482H129.941C130.747 80.4482 131.473 80.6094 132.037 80.8514C132.601 81.0932 133.085 81.4962 133.407 81.9799C133.73 82.4635 133.891 83.0278 133.891 83.7532C133.891 84.4788 133.73 84.9624 133.407 85.5267C133.085 86.0103 132.601 86.4134 132.037 86.6552L134.052 89.5571H131.876V89.4765ZM131.312 82.5441C130.989 82.3023 130.506 82.1411 129.861 82.1411H128.168V85.2848H129.861C130.506 85.2848 130.989 85.1236 131.312 84.8818C131.634 84.64 131.795 84.237 131.795 83.7532C131.876 83.189 131.634 82.7859 131.312 82.5441Z" fill="white"/>
<path d="M143.001 87.7837V89.4765H135.987V80.4482H142.84V82.1411H138.084V84.0756H142.275V85.6879H138.084V87.7837H143.001Z" fill="white"/>
</g>
<defs>
<clipPath id="clip0_252_3453">
<rect width="143" height="91" fill="white"/>
</clipPath>
</defs>
</svg>
