<svg width="74" height="266" viewBox="0 0 74 266" fill="none" xmlns="http://www.w3.org/2000/svg">
<g opacity="0.6">
<path d="M-2.95426e-06 198.414L74 198.414L74 212.416L29.0714 249.156L74 249.156L74 266L0 266L-6.16622e-07 251.893L44.9286 215.258L-2.218e-06 215.258L-2.95426e-06 198.414Z" fill="white"/>
<path d="M60.2572 123.921L74 123.921L74 180.979L-3.71637e-06 180.979L-6.15065e-06 125.29L13.7429 125.29L13.7429 164.03L29.8114 164.03L29.8114 129.816L43.1314 129.816L43.1314 164.03L60.2572 164.03L60.2572 123.921Z" fill="white"/>
<path d="M-1.16272e-05 0L74 24.1076L74 42.4253L23.8914 58.6374L74 75.3759L74 93.5882L-6.47798e-06 117.801L-7.25106e-06 100.115L52.0114 83.4819L-8.73739e-06 66.1118L-9.42764e-06 50.3208L52.4343 33.477L-1.0914e-05 16.3174L-1.16272e-05 0Z" fill="white"/>
</g>
</svg>
