<svg width="20" height="20" viewBox="0 0 20 20" fill="none" xmlns="http://www.w3.org/2000/svg">
<circle cx="10" cy="10" r="10" fill="#27AAE1"/>
<path d="M13.654 6.3058C14.5513 7.20312 15 8.25446 15 9.45982C15 10.692 14.558 11.7433 13.6741 12.6138C12.7902 13.4844 11.7321 13.9196 10.5 13.9196C9.73661 13.9196 9.02679 13.7388 8.37054 13.3772L6 14L6.64286 11.6897C6.24107 11.0067 6.04018 10.2634 6.04018 9.45982C6.04018 8.22768 6.47545 7.17634 7.34598 6.3058C8.21652 5.43527 9.26786 5 10.5 5C11.7321 5 12.7835 5.43527 13.654 6.3058ZM10.5 13.1763C11.5179 13.1763 12.3951 12.8147 13.1317 12.0915C13.8683 11.3549 14.2366 10.4777 14.2366 9.45982C14.25 8.46875 13.875 7.59821 13.1116 6.84821C12.3884 6.125 11.5179 5.76339 10.5 5.76339C9.48214 5.76339 8.60491 6.125 7.8683 6.84821C7.14509 7.57143 6.78348 8.44196 6.78348 9.45982C6.78348 10.1696 6.97768 10.8259 7.36607 11.4286L7.44643 11.5692L7.06473 12.9353L8.47098 12.5737L8.61161 12.654C9.1875 13.0022 9.81696 13.1763 10.5 13.1763ZM12.529 10.3839C12.6629 10.4509 12.7366 10.4978 12.75 10.5246C12.7902 10.6049 12.7634 10.7857 12.6696 11.067C12.6295 11.1741 12.5223 11.2879 12.3482 11.4085C12.1875 11.5156 12.0469 11.5759 11.9263 11.5893C11.5781 11.6429 11.1295 11.5491 10.5804 11.308C9.92411 11.0268 9.29464 10.4643 8.69196 9.62054C8.38393 9.20536 8.22991 8.82366 8.22991 8.47545C8.22991 8.14062 8.35714 7.82589 8.61161 7.53125C8.70536 7.45089 8.8058 7.41071 8.91295 7.41071C9.02009 7.41071 9.09375 7.41071 9.13393 7.41071C9.25446 7.41071 9.33482 7.47098 9.375 7.59152C9.60268 8.14062 9.71652 8.41518 9.71652 8.41518C9.7567 8.49554 9.76339 8.5625 9.73661 8.61607C9.68304 8.73661 9.61607 8.84375 9.53571 8.9375C9.45536 9.01786 9.40848 9.06473 9.39509 9.07812C9.3817 9.09152 9.38839 9.13839 9.41518 9.21875C9.60268 9.56696 9.80357 9.82812 10.0179 10.0022C10.2455 10.1763 10.5469 10.3571 10.9219 10.5446C11.029 10.5982 11.1094 10.5915 11.1629 10.5246C11.3371 10.3237 11.4576 10.1763 11.5246 10.0826C11.5781 10.0022 11.6585 9.98214 11.7656 10.0223C11.8728 10.0625 12.1272 10.183 12.529 10.3839Z" fill="white"/>
</svg>
