<svg width="320" height="51" viewBox="0 0 320 51" fill="none" xmlns="http://www.w3.org/2000/svg">
<path d="M122.617 33.232V38.5193H101.29V34.3135L112.175 24.0994C113.331 23.0046 114.111 22.07 114.514 21.2956C114.917 20.4945 115.118 19.7067 115.118 18.9323C115.118 17.8108 114.729 16.9563 113.949 16.3688C113.197 15.7546 112.081 15.4475 110.603 15.4475C109.367 15.4475 108.251 15.6878 107.257 16.1685C106.262 16.6225 105.429 17.3168 104.757 18.2514L100 15.2072C101.102 13.5783 102.621 12.3099 104.556 11.4019C106.491 10.4673 108.708 10 111.208 10C113.304 10 115.132 10.3471 116.691 11.0414C118.277 11.709 119.499 12.6703 120.36 13.9254C121.247 15.1538 121.69 16.6091 121.69 18.2914C121.69 19.8135 121.367 21.2422 120.722 22.5773C120.077 23.9125 118.828 25.4346 116.973 27.1436L110.482 33.232H122.617Z" stroke="white"/>
<path d="M137.328 39C134.99 39 132.907 38.4259 131.079 37.2776C129.252 36.1294 127.814 34.4738 126.765 32.3108C125.744 30.1211 125.233 27.5175 125.233 24.5C125.233 21.4825 125.744 18.8923 126.765 16.7293C127.814 14.5396 129.252 12.8706 131.079 11.7224C132.907 10.5741 134.99 10 137.328 10C139.666 10 141.749 10.5741 143.577 11.7224C145.405 12.8706 146.829 14.5396 147.851 16.7293C148.899 18.8923 149.423 21.4825 149.423 24.5C149.423 27.5175 148.899 30.1211 147.851 32.3108C146.829 34.4738 145.405 36.1294 143.577 37.2776C141.749 38.4259 139.666 39 137.328 39ZM137.328 33.5124C139.048 33.5124 140.392 32.7781 141.36 31.3094C142.354 29.8407 142.851 27.5709 142.851 24.5C142.851 21.4291 142.354 19.1593 141.36 17.6906C140.392 16.2219 139.048 15.4876 137.328 15.4876C135.635 15.4876 134.291 16.2219 133.297 17.6906C132.329 19.1593 131.845 21.4291 131.845 24.5C131.845 27.5709 132.329 29.8407 133.297 31.3094C134.291 32.7781 135.635 33.5124 137.328 33.5124Z" stroke="white"/>
<path d="M155.793 38.8398C154.692 38.8398 153.764 38.4659 153.012 37.7182C152.259 36.9705 151.883 36.0359 151.883 34.9144C151.883 33.7661 152.259 32.8448 153.012 32.1506C153.764 31.4296 154.692 31.0691 155.793 31.0691C156.895 31.0691 157.823 31.4296 158.575 32.1506C159.328 32.8448 159.704 33.7661 159.704 34.9144C159.704 36.0359 159.328 36.9705 158.575 37.7182C157.823 38.4659 156.895 38.8398 155.793 38.8398Z" stroke="white"/>
<path d="M174.219 39C171.88 39 169.798 38.4259 167.97 37.2776C166.142 36.1294 164.704 34.4738 163.656 32.3108C162.635 30.1211 162.124 27.5175 162.124 24.5C162.124 21.4825 162.635 18.8923 163.656 16.7293C164.704 14.5396 166.142 12.8706 167.97 11.7224C169.798 10.5741 171.88 10 174.219 10C176.557 10 178.64 10.5741 180.468 11.7224C182.295 12.8706 183.72 14.5396 184.741 16.7293C185.79 18.8923 186.314 21.4825 186.314 24.5C186.314 27.5175 185.79 30.1211 184.741 32.3108C183.72 34.4738 182.295 36.1294 180.468 37.2776C178.64 38.4259 176.557 39 174.219 39ZM174.219 33.5124C175.939 33.5124 177.283 32.7781 178.25 31.3094C179.245 29.8407 179.742 27.5709 179.742 24.5C179.742 21.4291 179.245 19.1593 178.25 17.6906C177.283 16.2219 175.939 15.4876 174.219 15.4876C172.526 15.4876 171.182 16.2219 170.187 17.6906C169.22 19.1593 168.736 21.4291 168.736 24.5C168.736 27.5709 169.22 29.8407 170.187 31.3094C171.182 32.7781 172.526 33.5124 174.219 33.5124Z" stroke="white"/>
<path d="M211.423 10.4807V14.6865L200.94 38.5193H193.845L203.964 15.768H194.611V20.3343H188.805V10.4807H211.423Z" stroke="white"/>
<path d="M216.071 38.8398C214.969 38.8398 214.041 38.4659 213.289 37.7182C212.536 36.9705 212.16 36.0359 212.16 34.9144C212.16 33.7661 212.536 32.8448 213.289 32.1506C214.041 31.4296 214.969 31.0691 216.071 31.0691C217.173 31.0691 218.1 31.4296 218.852 32.1506C219.605 32.8448 219.981 33.7661 219.981 34.9144C219.981 36.0359 219.605 36.9705 218.852 37.7182C218.1 38.4659 217.173 38.8398 216.071 38.8398Z" stroke="white"/>
<path d="M244.392 33.232V38.5193H223.065V34.3135L233.95 24.0994C235.106 23.0046 235.885 22.07 236.288 21.2956C236.692 20.4945 236.893 19.7067 236.893 18.9323C236.893 17.8108 236.503 16.9563 235.724 16.3688C234.971 15.7546 233.856 15.4475 232.378 15.4475C231.141 15.4475 230.026 15.6878 229.032 16.1685C228.037 16.6225 227.204 17.3168 226.532 18.2514L221.775 15.2072C222.877 13.5783 224.395 12.3099 226.33 11.4019C228.266 10.4673 230.483 10 232.982 10C235.079 10 236.907 10.3471 238.465 11.0414C240.051 11.709 241.274 12.6703 242.134 13.9254C243.021 15.1538 243.465 16.6091 243.465 18.2914C243.465 19.8135 243.142 21.2422 242.497 22.5773C241.852 23.9125 240.602 25.4346 238.748 27.1436L232.257 33.232H244.392Z" stroke="white"/>
<path d="M259.103 39C256.764 39 254.681 38.4259 252.854 37.2776C251.026 36.1294 249.588 34.4738 248.54 32.3108C247.519 30.1211 247.008 27.5175 247.008 24.5C247.008 21.4825 247.519 18.8923 248.54 16.7293C249.588 14.5396 251.026 12.8706 252.854 11.7224C254.681 10.5741 256.764 10 259.103 10C261.441 10 263.524 10.5741 265.352 11.7224C267.179 12.8706 268.604 14.5396 269.625 16.7293C270.673 18.8923 271.198 21.4825 271.198 24.5C271.198 27.5175 270.673 30.1211 269.625 32.3108C268.604 34.4738 267.179 36.1294 265.352 37.2776C263.524 38.4259 261.441 39 259.103 39ZM259.103 33.5124C260.823 33.5124 262.167 32.7781 263.134 31.3094C264.129 29.8407 264.626 27.5709 264.626 24.5C264.626 21.4291 264.129 19.1593 263.134 17.6906C262.167 16.2219 260.823 15.4876 259.103 15.4876C257.41 15.4876 256.066 16.2219 255.071 17.6906C254.104 19.1593 253.62 21.4291 253.62 24.5C253.62 27.5709 254.104 29.8407 255.071 31.3094C256.066 32.7781 257.41 33.5124 259.103 33.5124Z" stroke="white"/>
<path d="M295.22 33.232V38.5193H273.893V34.3135L284.778 24.0994C285.934 23.0046 286.713 22.07 287.116 21.2956C287.52 20.4945 287.721 19.7067 287.721 18.9323C287.721 17.8108 287.331 16.9563 286.552 16.3688C285.799 15.7546 284.684 15.4475 283.206 15.4475C281.969 15.4475 280.854 15.6878 279.86 16.1685C278.865 16.6225 278.032 17.3168 277.36 18.2514L272.603 15.2072C273.705 13.5783 275.223 12.3099 277.158 11.4019C279.094 10.4673 281.311 10 283.81 10C285.907 10 287.735 10.3471 289.293 11.0414C290.879 11.709 292.102 12.6703 292.962 13.9254C293.849 15.1538 294.293 16.6091 294.293 18.2914C294.293 19.8135 293.97 21.2422 293.325 22.5773C292.68 23.9125 291.43 25.4346 289.576 27.1436L283.085 33.232H295.22Z" stroke="white"/>
<path d="M319 33.232V38.5193H297.673V34.3135L308.558 24.0994C309.714 23.0046 310.493 22.07 310.897 21.2956C311.3 20.4945 311.501 19.7067 311.501 18.9323C311.501 17.8108 311.112 16.9563 310.332 16.3688C309.58 15.7546 308.464 15.4475 306.986 15.4475C305.749 15.4475 304.634 15.6878 303.64 16.1685C302.645 16.6225 301.812 17.3168 301.14 18.2514L296.383 15.2072C297.485 13.5783 299.003 12.3099 300.938 11.4019C302.874 10.4673 305.091 10 307.591 10C309.687 10 311.515 10.3471 313.074 11.0414C314.659 11.709 315.882 12.6703 316.742 13.9254C317.629 15.1538 318.073 16.6091 318.073 18.2914C318.073 19.8135 317.75 21.2422 317.105 22.5773C316.46 23.9125 315.21 25.4346 313.356 27.1436L306.865 33.232H319Z" stroke="white"/>
<path d="M29.3779 29.596C28.7459 29.596 28.1339 29.5 27.5419 29.308C26.9579 29.108 26.4979 28.852 26.1619 28.54L26.6059 27.604C26.9259 27.892 27.3339 28.128 27.8299 28.312C28.3339 28.488 28.8499 28.576 29.3779 28.576C30.0739 28.576 30.5939 28.46 30.9379 28.228C31.2819 27.988 31.4539 27.672 31.4539 27.28C31.4539 26.992 31.3579 26.76 31.1659 26.584C30.9819 26.4 30.7499 26.26 30.4699 26.164C30.1979 26.068 29.8099 25.96 29.3059 25.84C28.6739 25.688 28.1619 25.536 27.7699 25.384C27.3859 25.232 27.0539 25 26.7739 24.688C26.5019 24.368 26.3659 23.94 26.3659 23.404C26.3659 22.956 26.4819 22.552 26.7139 22.192C26.9539 21.832 27.3139 21.544 27.7939 21.328C28.2739 21.112 28.8699 21.004 29.5819 21.004C30.0779 21.004 30.5659 21.068 31.0459 21.196C31.5259 21.324 31.9379 21.508 32.2819 21.748L31.8859 22.708C31.5339 22.484 31.1579 22.316 30.7579 22.204C30.3579 22.084 29.9659 22.024 29.5819 22.024C28.9019 22.024 28.3899 22.148 28.0459 22.396C27.7099 22.644 27.5419 22.964 27.5419 23.356C27.5419 23.644 27.6379 23.88 27.8299 24.064C28.0219 24.24 28.2579 24.38 28.5379 24.484C28.8259 24.58 29.2139 24.684 29.7019 24.796C30.3339 24.948 30.8419 25.1 31.2259 25.252C31.6099 25.404 31.9379 25.636 32.2099 25.948C32.4899 26.26 32.6299 26.68 32.6299 27.208C32.6299 27.648 32.5099 28.052 32.2699 28.42C32.0299 28.78 31.6659 29.068 31.1779 29.284C30.6899 29.492 30.0899 29.596 29.3779 29.596ZM37.791 29.128C37.623 29.272 37.415 29.384 37.167 29.464C36.919 29.536 36.663 29.572 36.399 29.572C35.759 29.572 35.263 29.4 34.911 29.056C34.559 28.712 34.383 28.22 34.383 27.58V24.088H33.303V23.14H34.383V21.748H35.535V23.14H37.359V24.088H35.535V27.532C35.535 27.876 35.619 28.14 35.787 28.324C35.963 28.508 36.211 28.6 36.531 28.6C36.883 28.6 37.183 28.5 37.431 28.3L37.791 29.128ZM41.4998 23.08C42.3798 23.08 43.0518 23.296 43.5158 23.728C43.9878 24.16 44.2238 24.804 44.2238 25.66V29.5H43.1318V28.66C42.9398 28.956 42.6638 29.184 42.3038 29.344C41.9518 29.496 41.5318 29.572 41.0438 29.572C40.3318 29.572 39.7598 29.4 39.3278 29.056C38.9038 28.712 38.6918 28.26 38.6918 27.7C38.6918 27.14 38.8958 26.692 39.3038 26.356C39.7118 26.012 40.3598 25.84 41.2478 25.84H43.0718V25.612C43.0718 25.116 42.9278 24.736 42.6398 24.472C42.3518 24.208 41.9278 24.076 41.3678 24.076C40.9918 24.076 40.6238 24.14 40.2638 24.268C39.9038 24.388 39.5998 24.552 39.3518 24.76L38.8718 23.896C39.1998 23.632 39.5918 23.432 40.0478 23.296C40.5038 23.152 40.9878 23.08 41.4998 23.08ZM41.2358 28.684C41.6758 28.684 42.0558 28.588 42.3758 28.396C42.6958 28.196 42.9278 27.916 43.0718 27.556V26.668H41.2958C40.3198 26.668 39.8318 26.996 39.8318 27.652C39.8318 27.972 39.9558 28.224 40.2038 28.408C40.4518 28.592 40.7958 28.684 41.2358 28.684ZM47.4597 24.208C47.6597 23.84 47.9557 23.56 48.3477 23.368C48.7397 23.176 49.2157 23.08 49.7757 23.08V24.196C49.7117 24.188 49.6237 24.184 49.5117 24.184C48.8877 24.184 48.3957 24.372 48.0357 24.748C47.6837 25.116 47.5077 25.644 47.5077 26.332V29.5H46.3557V23.14H47.4597V24.208ZM55.0293 29.128C54.8613 29.272 54.6533 29.384 54.4053 29.464C54.1573 29.536 53.9013 29.572 53.6373 29.572C52.9973 29.572 52.5013 29.4 52.1493 29.056C51.7973 28.712 51.6213 28.22 51.6213 27.58V24.088H50.5413V23.14H51.6213V21.748H52.7733V23.14H54.5973V24.088H52.7733V27.532C52.7733 27.876 52.8573 28.14 53.0253 28.324C53.2013 28.508 53.4493 28.6 53.7693 28.6C54.1213 28.6 54.4213 28.5 54.6693 28.3L55.0293 29.128Z" fill="white"/>
<path d="M1 10.5V5C1 2.79086 2.79086 1 5 1H10.5" stroke="white"/>
<path d="M80 10.5V5C80 2.79086 78.2091 1 76 1H70.5" stroke="white"/>
<path d="M1 40.5V46C1 48.2091 2.79086 50 5 50H10.5" stroke="white"/>
<path d="M80 40.5V46C80 48.2091 78.2091 50 76 50H70.5" stroke="white"/>
</svg>
