<svg width="116" height="31" viewBox="0 0 116 31" fill="none" xmlns="http://www.w3.org/2000/svg">
<path d="M7.60656 0.5H108.393C112.318 0.5 115.5 3.68171 115.5 7.60656V22.8197C115.5 26.7445 112.318 29.9262 108.393 29.9262H7.60656C3.68171 29.9262 0.5 26.7445 0.5 22.8197V7.60656C0.5 3.68171 3.68171 0.5 7.60656 0.5Z" stroke="white"/>
<path fill-rule="evenodd" clip-rule="evenodd" d="M64.568 7.60547C64.5309 10.5657 64.3289 12.2295 63.2188 13.3398C62.1087 14.4501 60.4453 14.6521 57.4854 14.6889V15.1266C60.4453 15.1634 62.1087 15.3654 63.2188 16.4757C64.3289 17.586 64.5309 19.2498 64.568 22.2101H65.0054C65.0425 19.2498 65.2445 17.586 66.3546 16.4757C67.4647 15.3654 69.1281 15.1633 72.0885 15.1266V14.6889C69.1281 14.6521 67.4647 14.4501 66.3546 13.3398C65.2445 12.2295 65.0425 10.5657 65.0054 7.60547H64.568Z" fill="white"/>
<path d="M14.9035 20.3857H16.8176V9.38965H14.0333C11.2332 9.38965 9.7619 10.8294 9.7619 12.9495C9.7619 14.6424 10.5687 15.6392 12.0084 16.6676L9.50879 20.3857H11.5812L14.3656 16.2246L13.4005 15.5759C12.2298 14.7848 11.6603 14.1678 11.6603 12.8387C11.6603 11.668 12.483 10.8769 14.0491 10.8769H14.9035V20.3857ZM51.8117 20.5439C52.6817 20.5439 53.2988 20.3857 53.7576 20.0534V18.5187C53.2831 18.851 52.7136 19.0567 51.9225 19.0567C50.5775 19.0567 50.0242 18.0124 50.0242 16.367C50.0242 14.6424 50.7045 13.7564 51.9382 13.7564C52.666 13.7564 53.3777 14.0095 53.7576 14.2469V12.6489C53.362 12.4274 52.666 12.2692 51.7328 12.2692C49.3282 12.2692 48.0783 13.9938 48.0783 16.4144C48.0783 19.0725 49.2963 20.5439 51.8117 20.5439ZM40.0416 19.8478V18.313C39.4562 18.7086 38.4754 19.0567 37.5578 19.0567C36.1815 19.0567 35.6594 18.408 35.5803 17.079H40.1207V16.0822C40.1207 13.3134 38.9025 12.2692 37.0199 12.2692C34.726 12.2692 33.6344 14.0254 33.6344 16.4303C33.6344 19.1991 34.9949 20.5439 37.3996 20.5439C38.6019 20.5439 39.4878 20.2275 40.0416 19.8478ZM22.7977 12.4274V15.5759H20.2823V12.4274H18.3997V20.3857H20.2823V17.0631H22.7977V20.3857H24.6803V12.4274H22.7977ZM33.1756 18.8985H32.3372V12.4274H26.8476V13.1077C26.8476 15.0538 26.721 17.5694 26.0566 18.8985H25.4712V22.2052H27.2115V20.3857H31.4354V22.2052H33.1756V18.8985ZM46.0532 20.3857H48.1891L45.1672 16.098L47.8249 12.4274H45.9266L43.2688 16.098V12.4274H41.3863V20.3857H43.2688V16.4777L46.0532 20.3857ZM36.9883 13.7564C37.9217 13.7564 38.2064 14.5317 38.2064 15.5284V15.6866H35.5803C35.6278 14.4209 36.0865 13.7564 36.9883 13.7564ZM30.4546 18.8985H27.7968C28.3189 17.696 28.4612 15.5284 28.4612 14.152V13.9146H30.4546V18.8985Z" fill="white"/>
<path d="M77.1186 22.6779V20.3837H83.0037V22.6779H84.7917V18.8965H83.7634V9.3877H77.0397L76.85 14.8462C76.7868 16.6182 76.5966 18.0579 76.0903 18.8965H75.3311V22.6779H77.1186ZM78.5268 15.0993L78.6689 10.8749H81.8489V18.8965H77.894C78.2263 18.1529 78.4635 16.8713 78.5268 15.0993Z" fill="white"/>
<path d="M88.0033 19.056C87.0382 19.056 86.0893 18.7079 85.583 18.3282V19.8629C85.9467 20.1635 86.8642 20.5433 88.2249 20.5433C90.2339 20.5433 91.2941 19.6414 91.2941 18.0435C91.2941 17.1099 90.7089 16.4771 89.6644 16.2556C90.6457 15.9391 91.0569 15.243 91.0569 14.357C91.0569 13.0121 89.9967 12.2686 88.2881 12.2686C87.0544 12.2686 86.2476 12.6483 85.7889 12.933V14.4678C86.2947 14.1355 86.9912 13.7558 88.0195 13.7558C88.7155 13.7558 89.1586 14.088 89.1586 14.6734C89.1586 15.2904 88.7787 15.6227 88.0033 15.6227H86.8172V17.0467H88.0033C88.9684 17.0467 89.3483 17.3315 89.3483 18.0276C89.3483 18.6605 88.8895 19.056 88.0033 19.056Z" fill="white"/>
<path d="M98.4178 19.8471V18.3124C97.8321 18.7079 96.8514 19.056 95.9338 19.056C94.5575 19.056 94.0355 18.4073 93.9566 17.0783H98.4968V16.0815C98.4968 13.3127 97.2788 12.2686 95.3961 12.2686C93.1023 12.2686 92.0107 14.0247 92.0107 16.4296C92.0107 19.1984 93.3709 20.5433 95.776 20.5433C96.9783 20.5433 97.864 20.2268 98.4178 19.8471ZM95.3643 13.7558C96.298 13.7558 96.5828 14.531 96.5828 15.5278V15.686H93.9566C94.0041 14.4203 94.4629 13.7558 95.3643 13.7558Z" fill="white"/>
<path d="M104.156 12.4268V15.5753H101.64V12.4268H99.7578V20.385H101.64V17.0625H104.156V20.385H106.038V12.4268H104.156Z" fill="white"/>
</svg>
