<svg width="116" height="31" viewBox="0 0 116 31" fill="none" xmlns="http://www.w3.org/2000/svg">
<path d="M7.60656 1.04297H108.393C112.318 1.04297 115.5 4.22468 115.5 8.14953V23.3626C115.5 27.2875 112.318 30.4692 108.393 30.4692H7.60656C3.68171 30.4692 0.5 27.2875 0.5 23.3626V8.14953C0.5 4.22468 3.68171 1.04297 7.60656 1.04297Z" stroke="#27AAE1"/>
<path fill-rule="evenodd" clip-rule="evenodd" d="M64.568 8.14844C64.5309 11.1087 64.3289 12.7725 63.2188 13.8828C62.1087 14.9931 60.4453 15.1951 57.4854 15.2319V15.6696C60.4453 15.7064 62.1087 15.9084 63.2188 17.0187C64.3289 18.129 64.5309 19.7928 64.568 22.753H65.0054C65.0425 19.7928 65.2445 18.129 66.3546 17.0187C67.4647 15.9084 69.1281 15.7063 72.0885 15.6696V15.2319C69.1281 15.1951 67.4647 14.9931 66.3546 13.8828C65.2445 12.7725 65.0425 11.1087 65.0054 8.14844H64.568Z" fill="#27AAE1"/>
<path d="M14.9035 20.9282H16.8176V9.93213H14.0333C11.2332 9.93213 9.7619 11.3719 9.7619 13.492C9.7619 15.1849 10.5687 16.1817 12.0084 17.2101L9.50879 20.9282H11.5812L14.3656 16.767L13.4005 16.1184C12.2298 15.3273 11.6603 14.7102 11.6603 13.3812C11.6603 12.2104 12.483 11.4194 14.0491 11.4194H14.9035V20.9282ZM51.8117 21.0864C52.6817 21.0864 53.2988 20.9282 53.7576 20.5959V19.0612C53.2831 19.3934 52.7136 19.5992 51.9225 19.5992C50.5775 19.5992 50.0242 18.5549 50.0242 16.9095C50.0242 15.1849 50.7045 14.2989 51.9382 14.2989C52.666 14.2989 53.3777 14.552 53.7576 14.7893V13.1914C53.362 12.9699 52.666 12.8116 51.7328 12.8116C49.3282 12.8116 48.0783 14.5362 48.0783 16.9569C48.0783 19.6149 49.2963 21.0864 51.8117 21.0864ZM40.0416 20.3902V18.8555C39.4562 19.2511 38.4754 19.5992 37.5578 19.5992C36.1815 19.5992 35.6594 18.9505 35.5803 17.6215H40.1207V16.6247C40.1207 13.8559 38.9025 12.8116 37.0199 12.8116C34.726 12.8116 33.6344 14.5679 33.6344 16.9728C33.6344 19.7415 34.9949 21.0864 37.3996 21.0864C38.6019 21.0864 39.4878 20.77 40.0416 20.3902ZM22.7977 12.9699V16.1184H20.2823V12.9699H18.3997V20.9282H20.2823V17.6056H22.7977V20.9282H24.6803V12.9699H22.7977ZM33.1756 19.4409H32.3372V12.9699H26.8476V13.6502C26.8476 15.5963 26.721 18.1119 26.0566 19.4409H25.4712V22.7477H27.2115V20.9282H31.4354V22.7477H33.1756V19.4409ZM46.0532 20.9282H48.1891L45.1672 16.6405L47.8249 12.9699H45.9266L43.2688 16.6405V12.9699H41.3863V20.9282H43.2688V17.0202L46.0532 20.9282ZM36.9883 14.2989C37.9217 14.2989 38.2064 15.0742 38.2064 16.0709V16.2291H35.5803C35.6278 14.9634 36.0865 14.2989 36.9883 14.2989ZM30.4546 19.4409H27.7968C28.3189 18.2385 28.4612 16.0709 28.4612 14.6945V14.4571H30.4546V19.4409Z" fill="#27AAE1"/>
<path d="M77.1186 23.2208V20.9267H83.0037V23.2208H84.7917V19.4395H83.7634V9.93066H77.0397L76.85 15.3891C76.7868 17.1612 76.5966 18.6009 76.0903 19.4395H75.3311V23.2208H77.1186ZM78.5268 15.6423L78.6689 11.4179H81.8489V19.4395H77.894C78.2263 18.6958 78.4635 17.4143 78.5268 15.6423Z" fill="#27AAE1"/>
<path d="M88.0033 19.5985C87.0382 19.5985 86.0893 19.2504 85.583 18.8707V20.4054C85.9467 20.706 86.8642 21.0857 88.2249 21.0857C90.2339 21.0857 91.2941 20.1839 91.2941 18.5859C91.2941 17.6524 90.7089 17.0196 89.6644 16.7981C90.6457 16.4816 91.0569 15.7855 91.0569 14.8995C91.0569 13.5546 89.9967 12.811 88.2881 12.811C87.0544 12.811 86.2476 13.1907 85.7889 13.4755V15.0102C86.2947 14.678 86.9912 14.2983 88.0195 14.2983C88.7155 14.2983 89.1586 14.6305 89.1586 15.2159C89.1586 15.8329 88.7787 16.1652 88.0033 16.1652H86.8172V17.5891H88.0033C88.9684 17.5891 89.3483 17.874 89.3483 18.5701C89.3483 19.203 88.8895 19.5985 88.0033 19.5985Z" fill="#27AAE1"/>
<path d="M98.4178 20.3896V18.8549C97.8321 19.2504 96.8514 19.5985 95.9338 19.5985C94.5575 19.5985 94.0355 18.9498 93.9566 17.6208H98.4968V16.624C98.4968 13.8552 97.2788 12.811 95.3961 12.811C93.1023 12.811 92.0107 14.5672 92.0107 16.9721C92.0107 19.7409 93.3709 21.0857 95.776 21.0857C96.9783 21.0857 97.864 20.7693 98.4178 20.3896ZM95.3643 14.2983C96.298 14.2983 96.5828 15.0735 96.5828 16.0703V16.2285H93.9566C94.0041 14.9627 94.4629 14.2983 95.3643 14.2983Z" fill="#27AAE1"/>
<path d="M104.156 12.9697V16.1182H101.64V12.9697H99.7578V20.928H101.64V17.6054H104.156V20.928H106.038V12.9697H104.156Z" fill="#27AAE1"/>
</svg>
