<svg width="116" height="74" viewBox="0 0 116 74" fill="none" xmlns="http://www.w3.org/2000/svg">
<path d="M17.1942 73.5955C7.714 73.5955 0.0644531 65.9459 0.0644531 56.4657C0.0644531 46.9855 7.714 39.3359 17.1942 39.3359C26.6745 39.3359 34.324 46.9855 34.324 56.4657C34.324 65.9459 26.6745 73.5955 17.1942 73.5955Z" fill="#00093C"/>
<path d="M57.6658 2.00457L39.0976 32.3413C38.5745 33.1913 39.163 34.3027 40.1437 34.3027H58.7119H77.28C78.2607 34.3027 78.8492 33.1913 78.3261 32.3413L59.758 2.00457C59.2349 1.21999 58.1234 1.21999 57.6658 2.00457Z" fill="#00093C"/>
<path d="M33.9327 7.16948L27.1985 0.435254C26.6754 -0.087793 25.8908 -0.087793 25.4332 0.435254L18.0451 7.82329C17.5221 8.34634 16.7375 8.34634 16.2798 7.82329L8.8918 0.435254C8.36876 -0.087793 7.58418 -0.087793 7.12651 0.435254L0.392285 7.16948C-0.130762 7.69253 -0.130762 8.47711 0.392285 8.93477L7.78032 16.3228C8.30337 16.8459 8.30337 17.6304 7.78032 18.0881L0.392285 25.4761C-0.130762 25.9992 -0.130762 26.7838 0.392285 27.2414L7.12651 33.9756C7.64956 34.4987 8.43414 34.4987 8.8918 33.9756L16.2798 26.5876C16.8029 26.0646 17.5875 26.0646 18.0451 26.5876L25.4332 33.9756C25.9562 34.4987 26.7408 34.4987 27.1985 33.9756L33.9327 27.2414C34.4557 26.7184 34.4557 25.9338 33.9327 25.4761L26.5446 18.0881C26.0216 17.5651 26.0216 16.7805 26.5446 16.3228L33.9327 8.93477C34.4557 8.41172 34.4557 7.62715 33.9327 7.16948Z" fill="#00093C"/>
<path d="M45.7668 55.8124H42.04L41.3208 57.5123H39.4248L43.0208 49.4705H44.8514L48.4474 57.5123H46.486L45.7668 55.8124ZM45.1783 54.4394L43.8707 51.3665L42.5631 54.4394H45.1783Z" fill="#00093C"/>
<path d="M51.2591 57.1856C50.6053 56.8586 50.0823 56.3356 49.69 55.6818C49.2977 55.028 49.1016 54.3088 49.1016 53.5242C49.1016 52.7396 49.2977 52.0205 49.69 51.3667C50.0823 50.7128 50.6053 50.2552 51.2591 49.8629C51.9129 49.536 52.6975 49.3398 53.4821 49.3398C54.2013 49.3398 54.7897 49.4706 55.3781 49.7321C55.9665 49.9937 56.4242 50.3206 56.8165 50.7782L55.6397 51.8897C55.1166 51.2359 54.3974 50.9744 53.6128 50.9744C53.0898 50.9744 52.6975 51.1051 52.3052 51.3013C51.9129 51.4974 51.586 51.8243 51.3899 52.2166C51.1938 52.6089 51.063 53.0666 51.063 53.5242C51.063 54.0473 51.1938 54.4395 51.3899 54.8318C51.586 55.2241 51.9129 55.551 52.3052 55.7472C52.6975 55.9433 53.1552 56.0741 53.6128 56.0741C54.3974 56.0741 55.1166 55.7472 55.6397 55.0934L56.8165 56.2048C56.4242 56.6625 55.9665 57.0548 55.3781 57.2509C54.7897 57.5125 54.2013 57.6432 53.4821 57.6432C52.6975 57.7086 51.9129 57.5125 51.2591 57.1856Z" fill="#00093C"/>
<path d="M63.6818 55.8124H59.9551L59.2359 57.5123H57.3398L60.9358 49.4705H62.7665L66.3624 57.5123H64.401L63.6818 55.8124ZM63.0934 54.4394L61.7858 51.3665L60.4781 54.4394H63.0934Z" fill="#00093C"/>
<path d="M67.5391 49.5352H71.2004C72.0503 49.5352 72.8349 49.7313 73.4887 50.0582C74.1425 50.3851 74.6656 50.8428 75.0579 51.4966C75.4502 52.085 75.6463 52.8042 75.6463 53.5888C75.6463 54.3733 75.4502 55.0925 75.0579 55.681C74.6656 56.2694 74.1425 56.727 73.4887 57.1193C72.8349 57.4462 72.0503 57.6424 71.2004 57.6424H67.5391V49.5352ZM71.135 56.0079C71.9196 56.0079 72.5734 55.8117 73.0311 55.3541C73.4887 54.8964 73.7502 54.3079 73.7502 53.5234C73.7502 52.7388 73.4887 52.1504 73.0311 51.6927C72.5734 51.2351 71.9196 51.0389 71.135 51.0389H69.4351V56.0079H71.135Z" fill="#00093C"/>
<path d="M83.6233 56.0732V57.577H77.4121V49.5352H83.4925V51.0389H79.2428V52.8042H82.9695V54.2426H79.2428V56.0732H83.6233Z" fill="#00093C"/>
<path d="M92.7758 57.577V52.7388L90.4221 56.7271H89.5721L87.2184 52.8696V57.577H85.4531V49.5352H87.0223L90.0298 54.5041L92.9719 49.5352H94.4757V57.577H92.7758Z" fill="#00093C"/>
<path d="M100.621 54.7002V57.577H98.7906V54.7002L95.6523 49.5352H97.6138L99.7714 53.1311L101.929 49.5352H103.76L100.621 54.7002Z" fill="#00093C"/>
<path d="M41.0596 72.355C40.6673 72.1589 40.4058 71.8973 40.1443 71.5051C39.9481 71.1782 39.8174 70.7205 39.8174 70.2628C39.8174 69.8052 39.9481 69.4129 40.1443 69.0206C40.3404 68.6937 40.6673 68.3668 41.0596 68.1707C41.4519 67.9745 41.8442 67.8438 42.3672 67.8438C42.8249 67.8438 43.2826 67.9745 43.6749 68.1707C44.0671 68.3668 44.3287 68.6283 44.5902 69.0206C44.7863 69.3475 44.9171 69.8052 44.9171 70.2628C44.9171 70.7205 44.7863 71.1128 44.5902 71.5051C44.394 71.832 44.0671 72.1589 43.6749 72.355C43.2826 72.5512 42.8903 72.6819 42.3672 72.6819C41.8442 72.6819 41.3865 72.5512 41.0596 72.355ZM43.1518 71.2435C43.348 70.982 43.4787 70.7205 43.4787 70.3282C43.4787 69.9359 43.348 69.609 43.1518 69.4129C42.9557 69.1514 42.6288 69.086 42.3018 69.086C41.9749 69.086 41.7134 69.2167 41.4519 69.4129C41.2558 69.6744 41.125 69.9359 41.125 70.3282C41.125 70.7205 41.2558 71.0474 41.4519 71.2435C41.648 71.5051 41.9749 71.5704 42.3018 71.5704C42.6288 71.5704 42.9557 71.4397 43.1518 71.2435Z" fill="#00093C"/>
<path d="M47.4009 68.1031H48.5777V69.1492H47.4663V72.6144H46.1586V69.1492H45.4395V68.1031H46.1586V67.9069C46.1586 67.3839 46.2894 66.9916 46.6163 66.6647C46.9432 66.3378 47.3355 66.207 47.9239 66.207C48.1201 66.207 48.3162 66.207 48.5123 66.2724C48.7085 66.3378 48.8393 66.4032 48.97 66.4686L48.6431 67.4493C48.5124 67.3185 48.3162 67.3185 48.1201 67.3185C47.7278 67.3185 47.5316 67.5146 47.5316 67.9723V68.1031H47.4009Z" fill="#00093C"/>
<path d="M55.1156 72.3544C54.9848 72.4197 54.8541 72.5505 54.6579 72.5505C54.4618 72.6159 54.2656 72.6159 54.0695 72.6159C53.5464 72.6159 53.0888 72.4851 52.8272 72.2236C52.5003 71.9621 52.3696 71.5698 52.3696 70.9814V69.0853H51.6504V68.0392H52.3696V66.9277H53.6772V68.0392H54.7887V69.0853H53.6772V70.916C53.6772 71.1121 53.7426 71.2429 53.808 71.3736C53.9387 71.5044 54.0695 71.5044 54.2002 71.5044C54.3964 71.5044 54.5925 71.439 54.7233 71.3083L55.1156 72.3544Z" fill="#00093C"/>
<path d="M60.2811 68.4965C60.608 68.8234 60.8041 69.3464 60.8041 70.0002V72.6155H59.4965V70.1964C59.4965 69.8041 59.4311 69.5426 59.235 69.4118C59.1042 69.2157 58.8427 69.1503 58.5158 69.1503C58.1889 69.1503 57.9273 69.2811 57.7312 69.4772C57.5351 69.6734 57.4043 70.0003 57.4043 70.3925V72.6809H56.0967V66.4043H57.4043V68.6272C57.6004 68.4311 57.7966 68.3003 58.0581 68.235C58.3196 68.1696 58.5812 68.1042 58.8427 68.1042C59.4965 67.9734 59.9541 68.1042 60.2811 68.4965Z" fill="#00093C"/>
<path d="M66.6888 70.7205H63.2236C63.289 70.982 63.4198 71.2436 63.6813 71.3743C63.9428 71.5705 64.2043 71.6358 64.5313 71.6358C64.7928 71.6358 64.9889 71.5704 65.1851 71.5051C65.3812 71.4397 65.512 71.3089 65.7081 71.1782L66.4273 71.9627C65.9696 72.4858 65.3812 72.6819 64.5313 72.6819C64.0082 72.6819 63.5506 72.5512 63.1583 72.355C62.766 72.1589 62.4391 71.8973 62.2429 71.5051C62.0468 71.1782 61.916 70.7205 61.916 70.2628C61.916 69.8052 62.0468 69.4129 62.2429 69.0206C62.4391 68.6937 62.766 68.3668 63.0929 68.1707C63.4198 67.9745 63.8775 67.8438 64.3351 67.8438C64.7928 67.8438 65.1851 67.9091 65.5774 68.1053C65.9696 68.3014 66.2312 68.5629 66.4273 68.9552C66.6235 69.3475 66.7542 69.7398 66.7542 70.1974C66.7542 70.3282 66.7542 70.459 66.6888 70.7205ZM63.6159 69.2167C63.4198 69.4129 63.289 69.609 63.2236 69.9359H65.4466C65.3812 69.6744 65.2505 69.4129 65.0543 69.2167C64.8582 69.0206 64.5966 68.9552 64.3351 68.9552C64.0736 68.9552 63.8121 69.0206 63.6159 69.2167Z" fill="#00093C"/>
<path d="M73.0964 66.667V68.6284H76.4962V70.0014H73.0964V72.682H71.3965V65.3594H76.9539V66.7324H73.0964V66.667Z" fill="#00093C"/>
<path d="M79.2425 71.8301C78.6541 71.2417 78.3926 70.4571 78.3926 69.3457V65.2267H80.0925V69.2803C80.0925 70.5879 80.6155 71.2417 81.727 71.2417C82.2501 71.2417 82.6423 71.111 82.9692 70.7841C83.2961 70.4572 83.3615 69.9995 83.3615 69.2803V65.2267H85.0614V69.3457C85.0614 70.3918 84.7999 71.2417 84.2115 71.8301C83.623 72.4186 82.8385 72.6801 81.7924 72.6801C80.7463 72.6801 79.7656 72.4186 79.2425 71.8301Z" fill="#00093C"/>
<path d="M88.4602 66.666H86.1064V65.293H92.5138V66.666H90.1601V72.6156H88.4602V66.666Z" fill="#00093C"/>
<path d="M94.5414 71.8301C93.9529 71.2417 93.6914 70.4571 93.6914 69.3457V65.2267H95.3913V69.2803C95.3913 70.5879 95.9144 71.2417 97.0258 71.2417C97.5489 71.2417 97.9412 71.111 98.2681 70.7841C98.595 70.4572 98.6604 69.9995 98.6604 69.2803V65.2267H100.36V69.3457C100.36 70.3918 100.099 71.2417 99.5103 71.8301C98.9219 72.4186 98.1373 72.6801 97.0912 72.6801C96.0451 72.6801 95.1298 72.4186 94.5414 71.8301Z" fill="#00093C"/>
<path d="M106.963 72.6156L105.525 70.5888H105.46H103.956V72.6156H102.256V65.293H105.394C106.048 65.293 106.636 65.4237 107.094 65.6199C107.552 65.816 107.944 66.1429 108.206 66.5352C108.467 66.9275 108.598 67.3852 108.598 67.9736C108.598 68.562 108.467 68.9543 108.206 69.412C107.944 69.8043 107.552 70.1312 107.094 70.3273L108.729 72.681H106.963V72.6156ZM106.506 66.9929C106.244 66.7967 105.852 66.666 105.329 66.666H103.956V69.2158H105.329C105.852 69.2158 106.244 69.0851 106.506 68.8889C106.767 68.6928 106.898 68.3659 106.898 67.9736C106.963 67.5159 106.767 67.189 106.506 66.9929Z" fill="#00093C"/>
<path d="M115.985 71.2426V72.6156H110.297V65.293H115.854V66.666H111.997V68.2351H115.397V69.5427H111.997V71.2426H115.985Z" fill="#00093C"/>
</svg>
