<svg width="42" height="45" viewBox="0 0 42 45" fill="none" xmlns="http://www.w3.org/2000/svg">
<path fill-rule="evenodd" clip-rule="evenodd" d="M27.8223 2.79204C27.6068 1.80444 26.9245 1.26576 26.0087 0.960499C17.9463 0.960499 9.90191 0.960497 1.83952 0.888672L1.83951 0.888682C1.8036 0.924591 1.76769 0.960499 1.71383 0.978453C0.600539 1.39145 0.00798058 2.16357 0.00798058 3.36664C-0.00399029 4.64753 2.91038e-10 5.92841 0.00399029 7.2093C0.00598544 7.84974 0.00798058 8.49018 0.00798058 9.13062C0.00798058 9.68727 0.241414 9.95661 0.654409 9.95661C1.08536 9.97457 1.31879 9.68726 1.31879 9.14858V7.92755H26.6013V14.0866C26.6013 14.1763 26.5295 14.32 26.4576 14.3559C26.1137 14.547 25.7608 14.72 25.3924 14.9005L25.3923 14.9005L25.3923 14.9006L25.3922 14.9006L25.3922 14.9006L25.3922 14.9006L25.3921 14.9006L25.3921 14.9006L25.3921 14.9007L25.3921 14.9007L25.392 14.9007L25.392 14.9007L25.392 14.9007L25.3919 14.9007L25.3919 14.9007C25.2411 14.9747 25.0877 15.0498 24.9313 15.128C24.9112 15.1179 24.8797 15.0909 24.8432 15.0595L24.8432 15.0595L24.8432 15.0595C24.8147 15.0351 24.7833 15.008 24.7518 14.9844C23.028 13.6197 20.4961 14.2841 19.6701 16.3131C19.0417 17.8394 19.6163 19.5453 21.1066 20.3892C22.3456 21.0895 23.423 21.9514 24.267 23.0827C24.7877 23.765 25.2546 23.7471 25.7753 23.0827C25.9286 22.8822 26.0973 22.6895 26.2816 22.4791L26.2816 22.4791L26.2818 22.4789C26.378 22.369 26.4786 22.2542 26.5833 22.131V37.2682H1.33675V36.6756V12.8655C1.33675 12.8231 1.33814 12.7786 1.33955 12.7334C1.34532 12.5489 1.35146 12.3524 1.26492 12.2371C1.12127 12.0395 0.851928 11.8061 0.654409 11.8241C0.477441 11.8241 0.286057 12.0403 0.131917 12.2144L0.131913 12.2144C0.114015 12.2346 0.0966182 12.2543 0.0798047 12.273C0.0196791 12.3481 0.0224697 12.4736 0.0249742 12.5862C0.0254615 12.6082 0.025938 12.6296 0.025938 12.6501V42.0805C0.025938 43.6427 1.01353 44.5943 2.57573 44.5943H18.6107C18.646 44.5943 18.6832 44.5963 18.721 44.5982C18.7988 44.6022 18.8794 44.6064 18.9519 44.5943C19.311 44.5584 19.5624 44.2891 19.5444 43.9479C19.5265 43.5888 19.329 43.3733 18.9698 43.3374C18.886 43.3254 18.8023 43.3294 18.7185 43.3334C18.6766 43.3354 18.6347 43.3374 18.5928 43.3374H2.71938C1.69587 43.3374 1.33675 42.9783 1.33675 41.9548V39.0458C1.33675 38.974 1.34124 38.8977 1.34573 38.8214C1.35021 38.7451 1.3547 38.6688 1.3547 38.5969H26.6192V42.0266C26.6013 42.9244 26.2062 43.3374 25.3084 43.3374H22.2738C21.789 43.3374 21.4837 43.5888 21.5017 43.9838C21.5017 44.3609 21.789 44.6123 22.2558 44.6123H25.5778C25.7214 44.6123 25.8651 44.6123 26.0087 44.5764C27.1759 44.325 27.8941 43.4092 27.8941 42.1343C27.8941 40.461 27.8953 38.7866 27.8964 37.1114C27.8997 32.0811 27.9031 27.0432 27.8762 22.0053C27.8762 21.2511 28.0557 20.8022 28.756 20.497C29.4563 20.1917 29.9771 19.6351 30.3003 18.9168C30.4798 18.5038 30.3901 18.1267 30.0489 17.9651C29.7077 17.8035 29.3845 17.9651 29.1331 18.3422C28.8997 18.6834 28.6303 19.0605 28.2892 19.258C27.0502 19.9762 25.9548 20.8202 25.0032 21.9514C24.0156 20.7484 22.7945 19.9044 21.5017 19.1143C20.8193 18.7013 20.5859 17.9651 20.7475 17.175C20.9271 16.367 21.4299 15.8283 22.2379 15.6488C23.0818 15.4512 23.8001 15.7385 24.3208 16.4568C24.7518 17.0494 25.2186 17.0673 25.6316 16.5286C26.4038 15.5051 27.4093 15.3076 28.5046 15.972C28.8997 16.2234 29.2588 16.1695 29.4743 15.8463C29.6898 15.5231 29.6 15.146 29.2049 14.9125C28.9321 14.7464 28.6435 14.6117 28.3444 14.472C28.1909 14.4004 28.0346 14.3274 27.8762 14.2482V13.8352V3.54621V3.54615C27.8762 3.29478 27.8762 3.04341 27.8223 2.79204ZM26.6013 3.68986V6.65265H1.3547C1.35096 6.63769 1.34722 6.62351 1.34365 6.60995L1.34362 6.60986L1.34362 6.60985C1.33003 6.55833 1.31879 6.51571 1.31879 6.47309C1.31879 6.11934 1.31679 5.7676 1.31479 5.41652V5.4165V5.41649V5.41647V5.41646V5.41644V5.41643V5.41641V5.41639V5.41638V5.41636V5.41635V5.41633C1.3108 4.71604 1.30683 4.01839 1.31879 3.31277C1.33675 2.70226 1.73179 2.28926 2.32434 2.2354H2.75529H25.1468C26.2422 2.2354 26.6013 2.59452 26.6013 3.68986ZM20.7893 27.1706C20.6833 27.1504 20.5744 27.1296 20.4612 27.1044V27.1044C20.4612 26.9967 20.4612 26.871 20.515 26.7812C20.8921 24.824 19.9764 22.8847 18.2346 21.8971C16.5287 20.9275 14.3381 21.1609 12.9195 22.5615C12.4246 23.0414 11.8921 23.4211 11.3534 23.8052L11.3534 23.8052L11.3534 23.8053C11.2471 23.881 11.1406 23.957 11.0341 24.0339C9.93877 23.2259 9.05891 22.9745 8.07131 23.1899C6.72459 23.4952 5.71904 24.5367 5.48561 25.8834C5.25217 27.2122 5.88065 28.5589 7.10168 29.2412C8.37657 29.9595 9.48986 30.8752 10.3697 32.0604C10.7648 32.5811 11.2675 32.5811 11.6805 32.0783C11.9499 31.7551 12.2192 31.4319 12.5245 31.0548C12.7759 31.9706 13.1889 32.7068 13.961 33.1377C15.3257 33.9099 16.5287 34.8615 17.4625 36.1364C17.8036 36.5854 18.3423 36.5854 18.6655 36.1364C19.5993 34.8795 20.7844 33.9458 22.1311 33.1557C23.3162 32.4374 23.801 31.2882 23.6035 29.9415C23.424 28.6307 22.6339 27.7329 21.359 27.3019C21.1724 27.2436 20.9858 27.208 20.7893 27.1706ZM12.6861 25.9013C12.6861 24.0878 14.1585 22.6153 15.9721 22.6153C17.8216 22.6153 19.2761 24.0698 19.2581 25.9193C19.2581 27.7329 17.8036 29.2053 15.99 29.2053C14.1765 29.2053 12.6861 27.7149 12.6861 25.9013ZM18.3178 34.4706C18.2498 34.5492 18.1863 34.6225 18.1268 34.682C17.848 34.46 17.5727 34.2362 17.2988 34.0135L17.2979 34.0128L17.2978 34.0127L17.2977 34.0127L17.2976 34.0126L17.2975 34.0125L17.2974 34.0125L17.2973 34.0124L17.2967 34.0119L17.2957 34.0111L17.2955 34.0109C16.7063 33.5319 16.1231 33.0577 15.5232 32.617C15.3493 32.4779 15.153 32.3687 14.9584 32.2605L14.9584 32.2605C14.8515 32.2011 14.7452 32.142 14.6433 32.0783C13.9251 31.5935 13.6378 30.8393 13.7994 30.1031C14.0482 30.1456 14.2949 30.1983 14.541 30.2509C15.0231 30.354 15.5026 30.4564 15.99 30.4802C17.3727 30.5341 18.5398 29.9595 19.4197 28.9001C19.8327 28.4152 20.2636 28.3614 20.7844 28.4871C21.6283 28.6846 22.1311 29.2412 22.3107 30.0852C22.4723 30.8393 22.0772 31.6294 21.3949 32.0963C20.515 32.7068 19.6532 33.3532 18.7913 33.9996L18.7912 33.9996C18.6111 34.1317 18.4551 34.312 18.3178 34.4706ZM10.3518 25.3267C10.6211 25.7038 10.9443 25.8116 11.4112 25.6679C11.3753 27.0326 11.8242 28.1459 12.6143 29.0257C12.3785 29.2851 12.1462 29.5375 11.9189 29.7846L11.9188 29.7847C11.6266 30.1021 11.3426 30.4107 11.07 30.7136C10.9461 30.6028 10.827 30.4872 10.7083 30.372L10.7082 30.372C10.5 30.1701 10.2932 29.9694 10.0645 29.7979C9.3103 29.2233 8.55613 28.6846 7.78401 28.1638C7.0478 27.679 6.61685 26.9249 6.74255 26.1348C6.86824 25.3088 7.44284 24.6983 8.25088 24.4828C9.04096 24.2853 9.83103 24.5726 10.3518 25.3267ZM37.6804 21.7547H39.2606C40.6791 21.7368 41.3974 22.5448 41.1999 23.9454C41.1819 24.0891 41.2358 24.2507 41.2897 24.3943C41.4872 24.951 41.4513 25.4717 41.0921 25.9745C41.0203 26.0642 40.9485 26.172 40.9485 26.2618C40.9485 26.7645 40.7689 27.1955 40.4098 27.5726C40.3404 27.6559 40.3139 27.7821 40.2889 27.9015C40.2815 27.9365 40.2743 27.9709 40.2661 28.0035C40.1225 28.7757 39.5479 29.3143 38.7758 29.3323C36.5133 29.3682 34.2508 29.3682 32.0062 29.3503C31.288 29.3503 30.875 28.8834 30.875 28.1831V24.4302C30.875 23.712 31.3239 23.1912 32.0422 23.281C32.922 23.4067 33.3889 23.0296 33.6403 22.2575C33.7121 22.042 33.8198 21.8445 33.9635 21.647C34.4124 21.0006 34.4842 20.3182 34.3765 19.5461C34.2149 18.3789 34.969 17.8043 36.1362 18.1814C37.034 18.4687 37.6445 19.4025 37.6984 20.5517C37.6984 20.732 37.6943 20.9123 37.69 21.1005C37.6853 21.3058 37.6804 21.5205 37.6804 21.7547ZM32.1679 28.0394H32.5629C33.5685 28.0394 34.5785 28.035 35.5885 28.0305C36.5986 28.026 37.6086 28.0215 38.6142 28.0215C38.9553 28.0215 39.0272 27.8419 38.9733 27.5546C38.9015 27.1596 39.0631 26.8902 39.3863 26.6568C39.5299 26.5491 39.6377 26.2797 39.6197 26.1002C39.6018 25.7769 39.6556 25.5076 39.907 25.3101C40.1584 25.1126 40.1405 24.915 39.9609 24.6996C39.7095 24.4123 39.6915 24.107 39.8711 23.7479C40.0866 23.3349 39.907 23.0655 39.4222 23.0655H37.2854C36.4235 23.0655 36.1542 22.7244 36.2619 21.8804C36.3337 21.3417 36.3517 20.7851 36.3158 20.2284C36.2798 19.8693 36.1003 19.5281 35.6334 19.4025C35.64 19.4949 35.6515 19.58 35.6624 19.6614C35.6813 19.8015 35.6986 19.9306 35.6873 20.0668C35.6773 20.1866 35.6743 20.3091 35.6712 20.4317C35.6633 20.7503 35.6554 21.0694 35.5257 21.3417C35.2567 21.9499 34.942 22.5352 34.6263 23.1224L34.6262 23.1225L34.626 23.123L34.6258 23.1234L34.6256 23.1236L34.6255 23.1238L34.6254 23.124L34.6253 23.1242L34.6253 23.1243L34.6252 23.1245L34.6251 23.1247L34.625 23.1248L34.6249 23.125C34.4563 23.4385 34.2874 23.7526 34.1251 24.0711C33.9635 24.3943 33.7121 24.5559 33.335 24.538C33.0717 24.526 32.8084 24.53 32.545 24.534H32.5449C32.4133 24.536 32.2816 24.538 32.1499 24.538C32.1679 25.7231 32.1679 26.8543 32.1679 28.0394ZM11.5532 13.9437H9.81148C9.81148 13.7505 9.80676 13.5762 9.80216 13.4062V13.4062V13.4062V13.4062V13.4061V13.4061V13.4061V13.4061V13.4061V13.406V13.406C9.79779 13.2443 9.79352 13.0865 9.79352 12.9202C9.81147 12.2378 9.66782 11.6094 9.25483 11.0707C8.75205 10.4063 8.10562 10.119 7.27963 10.2985C6.61525 10.4602 6.34591 10.7295 6.4716 11.4118C6.66912 12.4533 6.45364 13.3511 5.87904 14.1951C5.82517 14.2848 5.7713 14.3746 5.73539 14.4644C5.484 15.2186 5.01714 15.6136 4.19115 15.4161C4.1666 15.4038 4.13368 15.4083 4.10383 15.4124L4.10381 15.4124C4.08999 15.4143 4.07682 15.4161 4.06546 15.4161C3.43698 15.47 3.00603 15.865 2.98808 16.5114C2.97012 17.8043 2.97012 19.0971 2.98808 20.39C2.98808 21.0723 3.45494 21.5033 4.13728 21.5033H10.7991C11.6789 21.5033 12.3074 20.9287 12.4331 20.0668C12.451 19.9411 12.487 19.7974 12.5588 19.7256C12.9 19.3844 13.0436 18.9714 13.0795 18.5046C13.0795 18.3968 13.1334 18.2532 13.2052 18.1634C13.5823 17.6427 13.6182 17.104 13.3848 16.5114C13.3309 16.3857 13.313 16.2421 13.3309 16.1164C13.5643 14.8594 12.8281 13.9616 11.5532 13.9437ZM5.23262 20.2463H4.29889V16.7449C4.42521 16.7449 4.55154 16.7428 4.67718 16.7408L4.67731 16.7408C4.92668 16.7369 5.1734 16.7329 5.41218 16.7449C5.80722 16.7628 6.09452 16.6012 6.27408 16.2421C6.41162 15.9776 6.55227 15.7147 6.69283 15.4519C7.02939 14.8227 7.36539 14.1946 7.65672 13.5486C7.76429 13.3066 7.78124 13.0142 7.79804 12.7243L7.79805 12.7243C7.80368 12.627 7.8093 12.5301 7.81832 12.4353C7.83113 12.2433 7.81654 12.0604 7.8006 11.8605V11.8605C7.79419 11.7801 7.78756 11.6969 7.78241 11.6094C8.1954 11.6991 8.39292 12.0044 8.41088 12.3097C8.46475 12.9202 8.44679 13.5486 8.39292 14.1592C8.3211 14.8774 8.59044 15.2365 9.32665 15.2365H11.4994C12.074 15.2365 12.2176 15.4879 11.9842 15.9907C11.8405 16.296 11.8405 16.5833 12.056 16.8346C12.2894 17.104 12.2715 17.2836 12.0201 17.5529C11.8585 17.7325 11.8046 18.0557 11.7867 18.325C11.7687 18.5764 11.7508 18.7739 11.4814 18.9176C11.1762 19.0792 11.0505 19.3665 11.0864 19.7077C11.1402 20.1745 11.0864 20.2463 10.6016 20.2463H5.23262ZM38.9899 8.6106C38.9719 11.1604 36.9249 13.1895 34.3571 13.1715C31.8253 13.1536 29.8142 11.0886 29.8322 8.53878C29.8501 6.0249 31.9151 3.99583 34.429 4.01379C36.9788 4.03175 39.0078 6.07876 38.9899 8.6106ZM37.697 8.59265C37.697 6.77906 36.2425 5.30664 34.429 5.30664C32.5974 5.30664 31.107 6.76111 31.107 8.59265C31.107 10.4062 32.5974 11.8966 34.429 11.8966C36.2425 11.8787 37.697 10.4062 37.697 8.59265ZM14.7875 40.9494C14.8055 40.4825 14.4284 40.1055 13.9615 40.1055C13.4946 40.1055 13.1355 40.4646 13.0996 40.9315C13.0996 41.3983 13.4587 41.7754 13.9256 41.7754C14.3925 41.7754 14.7875 41.3983 14.7875 40.9494ZM13.9416 5.10926H12.11C11.6072 5.10926 11.3379 4.87583 11.3379 4.46283C11.3379 4.04984 11.6072 3.81641 12.11 3.81641H15.809C16.2938 3.81641 16.5991 4.08575 16.5991 4.46283C16.5991 4.83992 16.2938 5.10926 15.809 5.10926C15.3907 5.12121 14.9804 5.11725 14.5674 5.11327H14.5674H14.5674H14.5674H14.5674H14.5674H14.5674H14.5674L14.5673 5.11327C14.3598 5.11127 14.1517 5.10926 13.9416 5.10926ZM9.36322 5.10778C9.7044 5.10778 9.9917 4.80252 9.9917 4.44339C9.97374 4.08427 9.68644 3.81492 9.32731 3.83288C9.0041 3.83288 8.7168 4.13814 8.7168 4.46135C8.7168 4.80252 9.02206 5.10778 9.36322 5.10778ZM15.3422 27.4274C15.3422 26.7451 15.5397 26.4398 15.9706 26.4219C16.4196 26.4219 16.635 26.7271 16.635 27.4454V27.5711C16.635 28.1277 16.4016 28.433 15.9706 28.415C15.5577 28.415 15.3422 28.1098 15.3242 27.5531C15.3422 27.5172 15.3422 27.4813 15.3422 27.4274ZM15.271 25.346C15.271 24.9869 15.0016 24.6816 14.6425 24.6816C14.3014 24.6816 13.9961 24.9869 13.9961 25.3281C13.9961 25.6692 14.2834 25.9565 14.6425 25.9565C15.0016 25.9565 15.253 25.6872 15.271 25.346ZM17.9827 25.3281C17.9827 25.6872 17.6954 25.9745 17.3363 25.9565C16.9951 25.9565 16.7258 25.6872 16.7078 25.346C16.6899 24.9869 16.9772 24.6816 17.3183 24.6816C17.6775 24.6816 17.9648 24.9869 17.9827 25.3281ZM35.0619 10.2445C35.0599 10.1966 35.0579 10.1488 35.0579 10.1009C35.0579 10.056 35.0624 10.0067 35.0669 9.95736L35.0669 9.95723C35.0714 9.90785 35.0759 9.85847 35.0759 9.81358C35.0579 9.38262 34.8065 9.11328 34.4294 9.11328C34.0523 9.11328 33.801 9.40058 33.783 9.81358C33.765 10.047 33.765 10.2984 33.783 10.5318C33.8189 10.873 34.1062 11.1244 34.4474 11.1064C34.8065 11.0885 35.022 10.891 35.0579 10.5318C35.0699 10.4361 35.0659 10.3403 35.0619 10.2445ZM33.6952 8.01752C33.6952 8.37665 33.4079 8.64599 33.0308 8.64599C32.6896 8.62803 32.4203 8.35869 32.4023 8.01752C32.4023 7.67635 32.7076 7.37109 33.0488 7.37109C33.4079 7.37109 33.6952 7.65839 33.6952 8.01752ZM35.7582 8.66395C36.1173 8.66395 36.4046 8.37665 36.4046 8.01752C36.4046 7.65839 36.0814 7.37109 35.7402 7.37109C35.399 7.38905 35.1117 7.69431 35.1297 8.05343C35.1477 8.41256 35.417 8.66395 35.7582 8.66395Z" fill="url(#paint0_linear_412_8334)"/>
<defs>
<linearGradient id="paint0_linear_412_8334" x1="0" y1="22.7505" x2="41.4089" y2="22.7505" gradientUnits="userSpaceOnUse">
<stop stop-color="#F7941D"/>
<stop offset="1" stop-color="#27AAE1"/>
</linearGradient>
</defs>
</svg>
