<svg width="38" height="38" viewBox="0 0 38 38" fill="none" xmlns="http://www.w3.org/2000/svg">
<path fill-rule="evenodd" clip-rule="evenodd" d="M0.138371 19.0059C0.0969103 19.0862 0.0552073 19.1669 0.00971995 19.2458C0.00971995 19.5374 0.0097201 19.829 0 20.1206C0.0097201 20.14 0.0218701 20.1595 0.0340202 20.1789C0.0461702 20.1984 0.0583203 20.2178 0.0680404 20.2372C0.447124 21.2287 1.38997 21.7147 2.34254 21.3939C3.28539 21.0732 3.75196 20.1206 3.48951 19.1C3.46035 18.9833 3.51868 18.7987 3.60616 18.7112C4.144 18.1604 4.69048 17.6182 5.23696 17.0761C5.5102 16.805 5.78345 16.5339 6.05562 16.2617C6.17226 16.1451 6.28026 16.0198 6.38826 15.8945C6.44226 15.8319 6.49626 15.7692 6.55134 15.7077C4.32544 21.8119 5.00585 27.4787 8.77725 32.8734C8.71139 32.9348 8.64454 32.9968 8.57703 33.0594C8.34564 33.2738 8.10655 33.4955 7.87328 33.7287C7.53307 34.0787 7.53307 34.3605 7.87328 34.7105C8.67033 35.5172 9.47709 36.324 10.2936 37.1308C10.6241 37.4613 10.9157 37.4515 11.2462 37.1308L13.6665 34.7105C13.9969 34.3703 14.0067 34.0689 13.6762 33.7287C12.8792 32.9123 12.0724 32.1056 11.2657 31.2988L11.2656 31.2987C10.9448 30.9779 10.6143 30.9877 10.2839 31.3182C10.1497 31.4587 10.0197 31.6119 9.88842 31.7666C9.81997 31.8473 9.75116 31.9283 9.68122 32.0083C5.30717 26.1373 5.76402 18.3807 9.36045 13.4429C10.6532 13.9872 11.8682 13.9095 12.8888 12.8888C13.9192 11.8585 14.0067 10.6338 13.4526 9.34101C19.275 5.26829 27.0219 5.81262 31.9597 9.65206C31.7556 9.84646 31.5514 10.0409 31.357 10.2353C30.9877 10.6046 30.9779 10.9254 31.357 11.2948C32.1346 12.0724 32.922 12.85 33.7093 13.6276C34.0787 13.9969 34.38 13.9969 34.7396 13.6373C35.5367 12.85 36.324 12.0626 37.1113 11.2656C37.471 10.8962 37.471 10.6143 37.121 10.2547C36.324 9.44793 35.527 8.65089 34.7202 7.85384C34.3703 7.50391 34.0787 7.50392 33.719 7.86356C33.4977 8.07777 33.292 8.30247 33.0945 8.5184C33.0231 8.59641 32.9527 8.67327 32.8831 8.74809C27.4981 4.99613 21.8313 4.31572 15.7368 6.63883C15.7728 6.60011 15.8048 6.56533 15.8342 6.53336C15.9082 6.45297 15.9658 6.39037 16.0284 6.32778C16.3201 6.03616 16.6128 5.74562 16.9055 5.45507C17.4908 4.87405 18.0762 4.29302 18.6529 3.70336C18.8473 3.49923 19.0125 3.44091 19.3041 3.51867C20.5191 3.85888 21.6953 2.74107 21.4814 1.49689C21.3453 0.709566 20.8399 0.281883 20.1498 0H19.275C19.2552 0.00987588 19.2361 0.0197517 19.2173 0.0294682C19.162 0.0580046 19.1094 0.0851668 19.0514 0.10692C18.1766 0.476284 17.7197 1.37053 17.9919 2.2745C18.0697 2.5175 18.0211 2.64387 17.8558 2.80911C16.6955 3.96296 15.5395 5.12113 14.3849 6.27786C13.8082 6.85563 13.2319 7.43303 12.6556 8.00936C12.6154 8.04954 12.5726 8.08453 12.5313 8.11835C12.4926 8.14998 12.4552 8.18059 12.4223 8.21348C10.8573 7.30951 9.48681 7.81496 8.72865 8.52452C7.56223 9.6229 7.47475 11.1587 8.2232 12.4126C8.21348 12.432 8.20376 12.4514 8.18432 12.4709C6.37638 14.2788 4.55872 16.0965 2.74107 17.8947C2.65359 17.9725 2.45918 17.9919 2.33282 17.9627C1.58438 17.7781 0.952569 17.9433 0.447124 18.5071C0.32006 18.6542 0.229805 18.8289 0.138371 19.0059ZM10.7504 8.92305C11.7613 8.93277 12.5584 9.74926 12.5486 10.7699C12.5486 11.771 11.7516 12.5584 10.7407 12.5486C9.72982 12.5486 8.91333 11.7322 8.93277 10.7213C8.94249 9.7201 9.75898 8.92305 10.7504 8.92305ZM10.7601 32.5234L12.4126 34.1759L10.7601 35.8283C10.4868 35.5549 10.2085 35.2742 9.93155 34.9948C9.65695 34.7178 9.38359 34.442 9.11745 34.1759L9.11747 34.1758C9.65207 33.6412 10.2158 33.0775 10.7601 32.5234ZM34.2042 9.09882L34.205 9.09801C34.7396 9.63262 35.2937 10.1867 35.8186 10.7213L34.205 12.3348C33.8958 12.0139 33.5691 11.6861 33.2417 11.3575C33.0236 11.1387 32.8052 10.9195 32.5915 10.7018C33.1064 10.1966 33.6601 9.64288 34.2042 9.09882ZM20.2858 1.82738C20.2761 2.15786 19.9942 2.4203 19.6735 2.41058C19.3333 2.40086 19.0805 2.10926 19.0903 1.75934C19.1 1.42885 19.3819 1.16641 19.7026 1.17613C20.0428 1.18585 20.3053 1.47746 20.2858 1.82738ZM1.23445 19.6638C1.22473 19.3138 1.44829 19.0903 1.7885 19.0903C2.1287 19.0903 2.40086 19.343 2.40086 19.6638C2.41058 19.9845 2.14814 20.2567 1.8371 20.2567C1.51634 20.2664 1.24417 19.9942 1.23445 19.6638ZM15.255 12.5215C15.1966 12.5011 15.1319 12.4785 15.0578 12.4512C15.0239 12.4723 14.9887 12.493 14.953 12.514C14.8242 12.5897 14.688 12.6697 14.5815 12.7914C14.312 13.052 14.0486 13.3167 13.7848 13.5817C13.4681 13.8998 13.1509 14.2184 12.8222 14.5313C12.5014 14.8326 12.4528 15.1242 12.618 15.5324C14.5912 20.4314 16.545 25.3303 18.4987 30.239C18.6251 30.55 18.8195 30.725 19.1208 30.8416C21.0648 31.5803 23.0088 32.3288 24.9528 33.0869C25.1278 33.155 25.293 33.3105 25.3805 33.4757C25.7454 34.1807 26.0984 34.8896 26.4522 35.6C26.6545 36.0062 26.857 36.4128 27.0621 36.8195C27.3829 37.4415 27.7522 37.5193 28.2479 37.0236C29.2226 36.0489 30.1983 35.0743 31.1744 34.0993C33.1284 32.1475 35.0838 30.1942 37.0349 28.2366C37.5112 27.7603 37.4529 27.3715 36.8502 27.0702C36.4778 26.8823 36.1032 26.6956 35.7278 26.5084C34.9767 26.134 34.2227 25.7581 33.4774 25.3692C33.3121 25.2914 33.1566 25.1067 33.0886 24.9415C32.3304 22.9975 31.5819 21.0535 30.8432 19.1094C30.7266 18.7984 30.5419 18.6137 30.2308 18.4874C26.4046 16.9674 22.5842 15.4416 18.7606 13.9145C17.6692 13.4787 16.5776 13.0427 15.4855 12.6067C15.4156 12.5776 15.3423 12.552 15.255 12.5215ZM13.9108 15.581C13.7942 15.2992 13.8039 15.1145 14.0663 14.9784C16.5741 17.4862 19.0625 19.9745 21.5508 22.4726C20.4038 24.3291 21.1037 26.244 22.3478 27.1674C23.7184 28.188 25.6235 28.0519 26.8385 26.8466C28.0438 25.6413 28.1799 23.7362 27.1593 22.3559C26.2164 21.0923 24.2822 20.4217 22.4645 21.5492L14.9703 14.055C15.0772 13.8509 15.223 13.7634 15.5341 13.8897C16.196 14.1554 16.8578 14.421 17.5195 14.6866C21.4822 16.2771 25.4399 17.8657 29.4046 19.4399C29.6379 19.5274 29.774 19.6635 29.8615 19.8968L29.8618 19.8975C30.5421 21.676 31.2224 23.4546 31.9124 25.2234C31.9999 25.4469 31.9805 25.583 31.8055 25.758C29.774 27.77 27.7619 29.7821 25.7499 31.8136C25.5749 31.9983 25.4388 32.008 25.2153 31.9205C24.3259 31.5706 23.434 31.2255 22.5421 30.8804C21.6504 30.5354 20.7586 30.1903 19.8692 29.8404C19.7137 29.7724 19.5387 29.6071 19.4707 29.4419C18.5424 27.1333 17.6166 24.8223 16.6907 22.5113C15.7649 20.2004 14.8391 17.8895 13.9108 15.581ZM26.8893 33.8181C26.7327 33.506 26.5761 33.1939 26.4206 32.8828L32.8844 26.419C33.8078 26.8758 34.7604 27.3521 35.6838 27.8186C34.8087 28.6938 33.9356 29.5679 33.063 30.4416C31.3188 32.188 29.576 33.9329 27.8203 35.6822C27.5157 35.0666 27.2025 34.4424 26.8893 33.8181ZM22.1534 24.4166C22.1534 23.153 23.1546 22.1615 24.4182 22.1615C25.6527 22.1615 26.6636 23.1724 26.6636 24.3972C26.6636 25.6316 25.6138 26.6814 24.3891 26.6717C23.1546 26.662 22.1534 25.6511 22.1534 24.4166Z" fill="url(#paint0_linear_412_8352)"/>
<defs>
<linearGradient id="paint0_linear_412_8352" x1="0" y1="18.6875" x2="37.3823" y2="18.6875" gradientUnits="userSpaceOnUse">
<stop stop-color="#F7941D"/>
<stop offset="1" stop-color="#27AAE1"/>
</linearGradient>
</defs>
</svg>
