<svg width="50" height="48" viewBox="0 0 50 48" fill="none" xmlns="http://www.w3.org/2000/svg">
<path fill-rule="evenodd" clip-rule="evenodd" d="M3.90438 28.1213C1.95219 28.1213 0.780878 29.1046 0.195221 31.0711C0.195221 35.3975 0.195221 39.9205 0 44.4435C0.976097 46.6067 1.75697 47.1967 4.0996 47.1967H21.6693C23.4263 47.1967 24.7928 46.0167 25.1833 44.4435V43.4603V40.3138H25.7689H36.7012H37.0916C37.4821 40.3138 37.8725 39.7239 37.8725 39.3305C37.8725 38.7406 37.4821 38.3473 36.8964 38.3473H36.3108H25.5737H24.9881V37.7573V32.0544C24.9881 30.0879 24.012 28.908 22.0598 28.318V27.9247V23.795C22.0598 22.6151 22.6454 22.0251 23.8167 22.0251H45.2908C46.4622 22.0251 47.0478 22.6151 47.0478 23.795V36.5774C47.0478 37.7573 46.4622 38.3473 45.4861 38.3473C44.9004 38.3473 44.51 38.7406 44.51 39.3305C44.51 39.9205 45.0956 40.3138 45.6813 40.3138C47.243 40.3138 48.6096 39.3305 49 37.7573C49.1121 37.6444 49.1599 37.5963 49.1802 37.5386C49.1952 37.4958 49.1952 37.4477 49.1952 37.364V23.0084C49.0831 22.8954 49.0354 22.8473 49.0151 22.7896C49 22.7468 49 22.6988 49 22.6151C48.6096 21.4351 48.0239 20.6485 46.8526 20.2552C46.4622 20.0586 45.8765 20.0586 45.4861 20.0586H42.753V19.4686V3.93305C42.753 3.7364 42.7042 3.53975 42.6554 3.3431C42.6066 3.14644 42.5578 2.94979 42.5578 2.75314C42.1673 0.983264 40.8008 0 39.0438 0H17.9602H17.7649C17.1793 0 16.7888 0.393305 16.7888 0.983264C16.7888 1.57322 17.1793 1.96653 18.3506 1.96653H39.239C40.4104 1.96653 40.996 2.55649 40.996 3.7364V14.9456V15.5356C40.6056 15.3389 40.6056 15.3389 40.4104 15.1423C39.6295 14.6506 38.8974 14.1098 38.1653 13.569C37.4333 13.0282 36.7012 12.4874 35.9203 11.9958C35.3347 11.6025 34.9442 11.6025 34.3586 11.9958C34.261 12.0941 34.1145 12.1925 33.9681 12.2908C33.8217 12.3891 33.6753 12.4874 33.5777 12.5858C32.2112 13.7657 30.6495 14.9456 29.0878 16.1254L29.0877 16.1255L28.6972 15.7322C25.7689 13.569 23.0359 11.2092 20.3028 8.84937C19.5219 8.25941 19.3267 8.25941 18.5458 8.84937L18.5458 8.8494L18.5457 8.84947C15.8127 11.0126 13.0796 13.1758 10.3466 15.5356C9.69971 16.1872 9.05281 16.7039 8.29491 17.3093L8.29461 17.3095C8.13775 17.4348 7.97613 17.5639 7.80877 17.6987V17.1088V3.93305C7.80877 2.55649 8.1992 2.16318 9.37052 1.96653C9.95618 1.76987 10.3466 1.37657 10.3466 0.983264C10.3466 0.393305 9.95618 0 9.37052 0.196653H8.78486C7.22311 0.589958 6.05179 1.76987 6.05179 3.53975V22.0251V22.6151C6.44223 24.3849 7.80877 25.3682 9.56574 25.3682H19.7171H20.3028V28.1213H19.7171H3.90438ZM21.4741 45.0335H12.6892C9.76096 45.0335 6.83267 45.0335 3.90438 44.8368C2.73307 44.8368 2.14741 44.2469 2.14741 43.0669V31.6611C2.14741 30.4812 2.73307 29.8912 3.90438 29.8912H21.4741C22.6454 29.8912 23.2311 30.4812 23.2311 31.8577V43.2636C23.2311 44.4435 22.6454 45.0335 21.4741 45.0335ZM14.1533 14.9456C15.8615 13.5691 17.5697 12.1925 19.3267 10.8159C23.0359 13.7657 26.745 16.9121 30.259 20.0586H29.6733H24.2072C22.0598 20.0586 20.6932 21.0418 20.3028 23.4017H19.7171H9.56574C8.39442 23.4017 8.00399 22.8117 7.80877 21.6318C7.80877 20.4519 8.00399 19.8619 8.98008 19.0753C10.7369 17.6988 12.445 16.3224 14.153 14.9459L14.1533 14.9457L14.1533 14.9456ZM40.6056 18.0921V20.0586C40.4104 20.0586 40.4104 20.0586 40.2151 19.8619H33.9681C33.7729 19.8619 33.5777 19.8619 33.3825 19.6653L30.4542 17.3054C30.8446 17.1088 31.4303 16.7155 31.8207 16.3222L34.749 13.9623C34.9442 13.7657 35.1394 13.7657 35.3347 13.9623C37.0916 15.3389 38.6534 16.5188 40.4104 17.6987C40.4104 17.7971 40.4592 17.8462 40.508 17.8954C40.5568 17.9446 40.6056 17.9937 40.6056 18.0921ZM25.5737 7.27669C25.5737 9.24322 27.1355 10.6198 28.8925 10.6198C30.6494 10.6198 32.016 9.24322 32.2112 7.27669C32.2112 5.50682 30.6494 3.93359 28.8925 3.93359C26.9403 3.93359 25.5737 5.50682 25.5737 7.27669ZM27.5259 7.27669C27.5259 6.49008 28.1116 5.90012 28.8925 5.90012C29.6733 5.90012 30.259 6.49008 30.259 7.27669C30.259 8.0633 29.6733 8.65326 28.8925 8.65326C28.1116 8.65326 27.5259 8.0633 27.5259 7.27669ZM12.6892 0.983264C12.6892 0.393305 13.0797 0 13.6653 0C14.251 0 14.6414 0.393305 14.6414 0.983264C14.6414 1.57322 14.251 1.96653 13.6653 1.96653C13.0797 1.96653 12.6892 1.57322 12.6892 0.983264ZM41.9721 32.2513V29.4982C42.5578 29.3015 42.9482 29.1049 42.9482 28.5149C42.9482 27.925 42.753 27.7283 42.1673 27.5317C42.1673 27.5317 41.9721 27.335 41.9721 27.1384V24.9752C41.7769 23.9919 41.3864 23.5986 40.6056 23.7953C40.1175 23.8936 39.5807 23.9919 39.0439 24.0902C38.507 24.1886 37.9701 24.2869 37.4821 24.3852C36.6712 24.5019 35.8774 24.6532 35.0907 24.8032L35.0907 24.8032C33.2258 25.1587 31.4002 25.5068 29.4781 25.3685C28.502 25.1718 27.5259 26.1551 27.5259 27.335V29.6948C27.5259 31.0714 28.502 31.858 29.8685 31.858H31.235V35.2011C31.4303 35.9877 31.6255 36.381 32.4064 36.381H34.5538C35.0269 36.381 35.2707 36.381 35.4408 36.2691C35.6216 36.15 35.7191 35.9044 35.9203 35.3978C36.0032 35.0639 36.1212 34.73 36.2445 34.3812C36.4118 33.908 36.5888 33.4072 36.7012 32.8413C37.3844 32.9396 38.0189 33.0379 38.6534 33.1363C39.2878 33.2346 39.9223 33.3329 40.6056 33.4312C41.5817 33.6279 41.9721 33.2346 41.9721 32.2513ZM32.992 27.1384L40.0199 25.9584C40.0199 27.7283 40.0199 29.4982 39.8247 31.2681C39.4342 31.1697 38.995 31.1206 38.5558 31.0714C38.1165 31.0222 37.6773 30.9731 37.2868 30.8748C36.1156 30.6781 34.7492 30.4815 33.3827 30.2848L33.3827 30.2848L33.3826 30.2848L33.3825 30.2848C33.1872 30.2848 32.992 30.2848 32.992 29.8915V27.1384ZM29.6733 27.1384H31.0398V30.0881H29.6733L29.4781 29.8915V27.5317C29.4781 27.335 29.4781 27.1384 29.6733 27.1384ZM34.1633 34.4145C34.1633 34.6112 33.9681 34.6112 33.7729 34.6112H32.992V32.2513C33.2848 32.2513 33.5777 32.3005 33.8705 32.3496C34.1633 32.3988 34.4562 32.448 34.749 32.448C34.5538 33.2346 34.3586 33.8245 34.1633 34.4145ZM41.3865 38.3473C41.9721 38.3473 42.3626 38.7406 42.3626 39.3305C42.3626 39.9205 41.9721 40.3138 41.3865 40.3138C40.8008 40.3138 40.4104 39.9205 40.4104 39.3305C40.4104 38.7406 40.8008 38.1506 41.3865 38.3473ZM9.37051 34.4133V37.5597C9.37051 38.543 9.37051 39.7229 9.17529 40.9028C9.17529 41.2961 9.37051 41.6894 9.76095 41.8861C10.1514 42.0827 10.5418 41.8861 10.9323 41.6894C11.8108 41.0995 12.738 40.5587 13.6653 40.0179C14.5926 39.4771 15.5199 38.9363 16.3984 38.3463C17.3745 37.7564 17.3745 36.9698 16.3984 36.3798C15.5199 35.8882 14.5927 35.3966 13.6654 34.9049C12.7381 34.4133 11.8108 33.9217 10.9323 33.43C9.95617 33.0367 9.37051 33.43 9.37051 34.4133ZM14.251 37.3631L11.3227 39.1329V35.7898C11.8108 36.0848 12.2988 36.3306 12.7869 36.5765C13.2749 36.8223 13.7629 37.0681 14.251 37.3631Z" fill="url(#paint0_linear_416_38385)"/>
<defs>
<linearGradient id="paint0_linear_416_38385" x1="0" y1="23.5984" x2="49.1952" y2="23.5984" gradientUnits="userSpaceOnUse">
<stop stop-color="#F7941D"/>
<stop offset="1" stop-color="#27AAE1"/>
</linearGradient>
</defs>
</svg>
