<svg width="36" height="44" viewBox="0 0 36 44" fill="none" xmlns="http://www.w3.org/2000/svg">
<path fill-rule="evenodd" clip-rule="evenodd" d="M23.1211 1.26733V0H2.62564C2.0032 0.214993 1.39207 0.463933 0.91675 0.961812C0.350891 1.57284 0.0226935 2.28572 0.0226935 3.10043C0.00571935 6.52868 0.00783896 9.95057 0.00996054 13.3756C0.010668 14.5178 0.0113757 15.6602 0.0113757 16.8034C0.0113757 16.8314 0.0156985 16.855 0.0216726 16.8877C0.0253645 16.9079 0.0296871 16.9316 0.0340097 16.9618H1.30153V16.4413V3.46252C1.30153 2.9307 1.38075 2.4215 1.73159 1.99151C2.08242 1.57284 2.54642 1.33522 3.08965 1.30127C3.45213 1.27711 3.81461 1.28161 4.18526 1.28621L4.18527 1.28622C4.33536 1.28808 4.48679 1.28996 4.6401 1.28996V31.2419C4.40137 31.2567 4.15944 31.2581 3.91626 31.2594H3.91623H3.9162H3.91617H3.91614C3.04115 31.2644 2.15021 31.2695 1.33549 31.8982V18.2857H0.0113757V18.7384C0.0113757 20.221 0.0120832 21.7029 0.0127907 23.1845C0.0149123 27.6279 0.0170324 32.0682 5.78032e-05 36.5149C-0.0112594 38.6309 1.64105 40 3.37258 39.9095C3.95418 39.8781 4.53032 39.8849 5.13132 39.8919H5.13144H5.13175H5.13191H5.13206H5.13222H5.13238C5.39645 39.895 5.66533 39.8982 5.94158 39.8982V43.4626H6.20187C6.39478 43.4082 6.58823 43.3543 6.78186 43.3004L6.78322 43.3C7.4752 43.1074 8.16955 42.914 8.85009 42.6931C9.47254 42.4894 10.061 42.4894 10.6835 42.6931C11.364 42.914 12.0584 43.1074 12.7503 43.3L12.7515 43.3003L12.7531 43.3008C12.9462 43.3546 13.1392 43.4083 13.3317 43.4626H13.592V39.8982H14.1239H32.5822C34.2572 39.8982 35.4568 39.0495 35.8642 37.5672C35.9547 37.2391 36 36.8996 36 36.5602V3.34937C36 1.686 35.1173 0.531824 33.4876 0.0678915C33.465 0.0603478 33.4423 0.0427461 33.4197 0.0251443V0.025142L33.4196 0.0250821C33.4083 0.0163024 33.397 0.00752562 33.3857 0H24.3886V1.26733H24.8865H32.5709C33.9403 1.26733 34.7098 2.01415 34.7098 3.38331C34.7098 5.51946 34.7091 7.6549 34.7084 9.78999L34.7084 9.82337V9.82443V9.82549V9.82655V9.82761C34.7063 16.2641 34.7042 22.6975 34.7212 29.1372C34.7212 30.4838 33.7818 31.2758 32.5822 31.2645C30.3011 31.2329 28.0144 31.24 25.7261 31.2471H25.7258C24.7446 31.2502 23.7631 31.2532 22.7815 31.2532H22.2836V32.5658H22.8155C23.7468 32.5658 24.6795 32.5671 25.6125 32.5683H25.6134H25.6142H25.6151H25.616C27.4822 32.5708 29.35 32.5734 31.2128 32.5658C31.3925 32.5658 31.573 32.5698 31.7538 32.5737H31.7539H31.7541H31.7543H31.7544C32.7571 32.5958 33.7668 32.6179 34.6872 31.9661L34.6914 32.0384L34.6973 32.1332V32.1333C34.7044 32.246 34.7098 32.3324 34.7098 32.4187V36.4923C34.7098 37.8841 33.9629 38.6309 32.5596 38.6309H14.1013H13.6373V35.7228H28.1572V34.4781H5.95289V38.6309H3.37258C2.16164 38.6196 1.38075 37.8727 1.3468 36.662C1.33926 36.1872 1.34177 35.7073 1.34428 35.2258C1.34554 34.9844 1.3468 34.7426 1.3468 34.5007C1.35812 33.9689 1.51656 33.505 1.90134 33.1203C2.34271 32.679 2.88594 32.5658 3.48575 32.5658H20.337H20.8916V31.2532H6.0208V1.26733H23.1211ZM12.2792 35.7454V41.7653C12.1361 41.7272 11.9943 41.6892 11.8534 41.6515C11.2816 41.4982 10.7259 41.3492 10.1629 41.2221C9.91391 41.1768 9.63098 41.1769 9.382 41.2334C8.81888 41.3606 8.26305 41.5096 7.69111 41.6629L7.6891 41.6634L7.68451 41.6647L7.67444 41.6674L7.66553 41.6698C7.53322 41.7052 7.40004 41.7409 7.26569 41.7766V35.7454H12.2792ZM33.3749 23.0103V8.70703H7.25586V23.0103H33.3749ZM32.0717 21.7017H8.53631V9.97009H32.0717V21.7017ZM30.6774 35.6539H29.4336V34.4102H30.6774V35.6539ZM15.4805 19.8315H16.7742V14.1029C16.9444 14.2284 17.0352 14.3653 17.126 14.5023C17.6422 15.3295 18.1556 16.1567 18.6691 16.9839L18.6691 16.984L18.6695 16.9847C19.183 17.8119 19.6964 18.6391 20.2127 19.4664C20.2921 19.5919 20.4169 19.7631 20.5304 19.7745C20.8053 19.7989 21.0803 19.7943 21.3593 19.7897H21.3594C21.4719 19.7878 21.5851 19.7859 21.6993 19.7859V11.4896H20.4396V17.1954C20.2694 17.0813 20.1786 16.9558 20.0992 16.8303L16.9671 11.7977C16.899 11.6722 16.7742 11.501 16.6607 11.4896C16.3774 11.4651 16.0998 11.4698 15.8198 11.4744H15.8198H15.8198C15.7073 11.4763 15.5943 11.4782 15.4805 11.4782V19.8315ZM29.5885 12.2321C29.4688 12.4074 29.3548 12.5771 29.2408 12.7467C29.1268 12.9164 29.0127 13.086 28.893 13.2613C28.0835 12.7524 27.2512 12.628 26.3505 12.9333C24.8912 13.4197 24.0817 14.89 24.4465 16.3717C24.7886 17.7516 26.3163 18.7129 27.7757 18.4528C28.7448 18.2832 29.5315 17.3557 29.5657 16.2925H28.4712H27.3767V15.0145H30.8883C31.3329 17.7855 29.5201 20.0589 26.7952 19.7309C24.5605 19.4594 23.1012 17.8081 23.0784 15.6365C23.0556 13.578 24.5719 11.8589 26.7496 11.5082C27.7073 11.3612 28.8816 11.6553 29.5885 12.2321ZM10.1562 11.5391V19.7617C11.3921 19.7617 12.5707 19.7617 13.7493 19.7504V18.4574H11.4836V16.2912H13.5205V14.9869H11.4951V12.7866H13.7493V11.5391H10.1562Z" fill="url(#paint0_linear_412_8315)"/>
<defs>
<linearGradient id="paint0_linear_412_8315" x1="0" y1="21.7313" x2="36" y2="21.7313" gradientUnits="userSpaceOnUse">
<stop stop-color="#F7941D"/>
<stop offset="1" stop-color="#27AAE1"/>
</linearGradient>
</defs>
</svg>
