<svg width="45" height="46" viewBox="0 0 45 46" fill="none" xmlns="http://www.w3.org/2000/svg">
<path fill-rule="evenodd" clip-rule="evenodd" d="M7.32674 44.4964C6.73294 45.0902 6.7521 45.4924 7.40336 46C15.7548 46 24.1063 46 32.4577 45.9617C33.1281 45.4732 33.1664 45.0614 32.5726 44.4676C31.0019 42.9065 29.4313 41.3454 27.8797 39.7651C27.7361 39.6215 27.6211 39.3629 27.6211 39.1522C27.6068 38.3118 27.6086 37.4713 27.6104 36.6309C27.611 36.3508 27.6116 36.0707 27.6116 35.7905C27.6116 35.7593 27.6097 35.7275 27.6079 35.6959V35.6959V35.6958V35.6958V35.6958V35.6957V35.6957V35.6957C27.6026 35.6011 27.5973 35.5079 27.6403 35.4362C28.1958 34.4976 28.7513 33.5686 29.3259 32.6204L29.3598 32.6413C29.5934 32.7851 29.7857 32.9035 29.9867 33.0131C30.2777 33.1753 30.568 33.3397 30.8584 33.504L30.8585 33.5041C31.648 33.9509 32.4378 34.398 33.243 34.8041C33.7123 35.0339 34.2487 35.2351 34.7658 35.2542C35.7305 35.2953 36.705 35.2874 37.6788 35.2796H37.6791H37.6795H37.6798H37.6802H37.6805H37.6808H37.6812H37.6815C38.07 35.2765 38.4583 35.2734 38.8458 35.2734C39.5928 35.2638 39.8801 34.986 39.8801 34.239C39.8801 33.9797 39.8863 33.7194 39.8926 33.4591V33.4591V33.459V33.459V33.4589V33.4589V33.4588V33.4588V33.4587C39.9068 32.8636 39.921 32.2681 39.861 31.6819C39.7461 30.5996 40.0525 29.7664 40.9337 29.1343C41.3359 28.847 41.4412 28.4256 41.4221 27.9467C41.4017 27.5048 41.4054 27.0628 41.4093 26.6038V26.6036C41.4109 26.416 41.4125 26.2256 41.4125 26.0312C41.5703 26.0312 41.7224 26.0351 41.8699 26.0388C42.1878 26.0469 42.4846 26.0544 42.7725 26.0217C43.7685 25.9067 44.3145 24.8149 43.8835 23.8189C43.5491 23.052 43.2084 22.2851 42.8674 21.5172C42.4758 20.6357 42.0837 19.7529 41.6998 18.8674C41.6424 18.7237 41.5945 18.4843 41.6711 18.3885C42.7725 16.9328 43.0598 15.295 42.8874 13.5136C42.5235 9.78805 40.9049 6.73287 38.0509 4.32896C36.8572 3.32752 35.4758 2.66116 34.0918 1.99353C33.8213 1.86304 33.5507 1.73251 33.2814 1.59942C32.8695 1.38872 32.5152 1.56111 32.2853 1.93462C32.1033 2.21237 31.8926 2.27941 31.5766 2.27941C30.5207 2.26504 29.4648 2.26684 28.4089 2.26863C28.0569 2.26923 27.705 2.26983 27.353 2.26983C27.2152 2.26983 27.0697 2.26209 26.9095 2.25357L26.855 2.25068C26.855 2.09029 26.8561 1.93661 26.8572 1.78696L26.8572 1.78655V1.78653V1.78652C26.8593 1.49848 26.8613 1.22539 26.855 0.948157C26.8454 0.258588 26.5772 0 25.8972 0H18.5801C17.8906 0 17.6415 0.24901 17.6415 0.948157V3.74474L17.6166 3.75911C17.5668 3.78784 17.5419 3.80221 17.517 3.80221C17.3627 3.80703 17.2059 3.80942 17.0479 3.81184L17.0478 3.81184L17.0478 3.81184C16.8921 3.81421 16.7353 3.81661 16.5785 3.82136C16.023 3.85009 15.7644 4.07995 15.6782 4.62586C15.5345 5.51655 15.3909 6.39767 15.2376 7.27878C15.161 7.71934 14.8258 7.91089 14.3948 7.74807C13.9734 7.59484 13.5544 7.4392 13.1354 7.28357C12.7164 7.12794 12.2974 6.97231 11.876 6.81907C11.3396 6.61795 11.0332 6.73287 10.7459 7.21174C10.5735 7.48948 10.4011 7.76723 10.2574 8.06413C10.1233 8.33229 9.95093 8.4568 9.63488 8.43764C9.21758 8.41712 8.80027 8.42103 8.38297 8.42494C8.21606 8.4265 8.04914 8.42807 7.88223 8.42807H5.41127C5.41127 8.25342 5.41189 8.08245 5.4125 7.91408V7.91395V7.91381V7.91367V7.91354V7.91341V7.91328V7.91315V7.91303V7.91302V7.91302V7.91301V7.91301V7.913V7.913V7.913V7.91299C5.41428 7.41699 5.41599 6.94352 5.40169 6.46471C5.39212 6.14866 5.47831 5.97626 5.77521 5.80387C6.57013 5.35374 6.9628 4.62586 6.92449 3.71601C6.87661 2.59546 5.99549 1.65688 4.95156 1.53238C3.80228 1.39829 2.76792 2.0304 2.42314 3.09348C2.06878 4.16614 2.50933 5.2867 3.53411 5.84218C3.77354 5.97626 3.83101 6.11993 3.83101 6.36894C3.82463 6.89215 3.82675 7.41961 3.82888 7.94849C3.82994 8.21346 3.83101 8.47879 3.83101 8.74412C3.83101 9.75932 4.02256 9.96044 5.0186 9.96044H9.02193C9.39138 10.7675 10.0341 11.2576 10.6757 11.7468L10.6757 11.7468L10.6757 11.7468L10.6757 11.7468L10.6757 11.7468L10.6757 11.7468L10.6757 11.7468L10.6757 11.7469L10.6757 11.7469C11.1153 12.082 11.5543 12.4167 11.9047 12.8528C11.824 12.8601 11.7531 12.8689 11.6883 12.8769C11.5839 12.8898 11.4953 12.9007 11.4067 12.9007C10.6771 12.9134 9.94848 12.925 9.22026 12.9366L9.21836 12.9367L9.21794 12.9367C7.74839 12.9602 6.28028 12.9836 4.8079 13.0156C4.52111 13.0249 4.43986 12.8822 4.33107 12.6912L4.31945 12.6708C3.81185 11.7514 2.74877 11.2821 1.7623 11.5407C0.699216 11.8184 -0.00950755 12.7283 6.98017e-05 13.801C0.00964715 14.8545 0.718371 15.7643 1.75272 16.0325C2.75835 16.2911 3.84059 15.8218 4.32903 14.8736C4.47269 14.5959 4.63551 14.5384 4.91325 14.5384C5.89012 14.532 6.86699 14.5171 7.84387 14.5022C8.33233 14.4948 8.82079 14.4873 9.30925 14.4809H10.449L10.3016 14.6044L10.3015 14.6044C10.013 14.846 9.76774 15.0514 9.52953 15.2567C9.12728 15.6111 9.06024 15.9463 9.31883 16.406C9.47709 16.6873 9.63893 16.9651 9.79997 17.2415L9.79999 17.2415L9.80001 17.2415L9.80003 17.2416L9.80005 17.2416L9.80007 17.2416L9.80039 17.2422L9.8005 17.2424L9.80062 17.2426C9.9025 17.4174 10.0041 17.5917 10.1042 17.766C10.1654 17.8793 10.2413 17.9916 10.3173 18.1039C10.4787 18.3428 10.6401 18.5815 10.6597 18.8291C10.7149 19.6297 10.7054 20.4352 10.6958 21.253C10.6921 21.57 10.6884 21.8888 10.6884 22.2099C10.3903 22.2099 10.094 22.2093 9.79894 22.2087H9.7988H9.79867H9.79853H9.79839H9.79825H9.79811H9.79798H9.79784C8.91771 22.2069 8.04829 22.2051 7.1735 22.2194C6.90534 22.229 6.7521 22.1716 6.61802 21.913C6.11042 20.9648 5.09522 20.5243 4.04171 20.7733C2.87327 21.051 2.07835 22.2865 2.33694 23.4453C2.61469 24.7191 3.77354 25.5141 4.98987 25.2842C5.85183 25.1214 6.42647 24.6042 6.78083 23.8093H11.2247C12.0101 23.8093 12.2782 23.5411 12.2687 22.7558C12.2687 21.664 12.2591 20.5721 12.2399 19.4803C12.2303 19.2313 12.2974 19.1068 12.5464 19.0206C12.9173 18.8913 13.285 18.7522 13.6532 18.6128C13.9125 18.5147 14.172 18.4164 14.4331 18.3215C14.8066 18.1874 15.1514 18.3885 15.2185 18.7716C15.2903 19.1738 15.3597 19.5785 15.4292 19.9831L15.4292 19.9832C15.4986 20.3878 15.5681 20.7924 15.6399 21.1947C15.8027 22.1237 15.8602 22.1716 16.8083 22.3056V26.0695H14.8928C14.0117 26.0695 13.7819 26.309 13.7819 27.1901C13.7819 28.0617 13.7825 28.9333 13.7831 29.8049C13.7849 32.4195 13.7867 35.034 13.7723 37.6486C13.7723 37.8688 13.6574 38.1466 13.5041 38.2998C11.8653 39.9616 10.2143 41.6111 8.56565 43.2582L8.56418 43.2597L8.5631 43.2608C8.15075 43.6727 7.73855 44.0845 7.32674 44.4964ZM32.2575 4.66661C32.5697 4.22944 32.8824 3.79158 33.1952 3.35207C35.3213 4.28107 37.2464 5.40162 38.6926 7.20217C40.5506 9.51988 41.4796 12.1537 41.3455 15.1322C41.2976 16.1283 40.8953 16.9902 40.2154 17.7085C39.8227 18.1203 39.7844 18.5034 40.0142 19.0015C40.7804 20.6871 41.5274 22.3727 42.2745 24.0679C42.3319 24.202 42.3894 24.336 42.4756 24.5467H40.7517C40.1387 24.5563 39.8418 24.8341 39.8323 25.4566C39.8259 25.919 39.828 26.3815 39.8301 26.8578V26.8579V26.858V26.8581V26.8582V26.8582V26.8583V26.8584V26.8585C39.8312 27.1021 39.8323 27.3493 39.8323 27.6019C38.6447 27.6115 37.6582 27.238 36.7962 26.5101C36.7627 26.4814 36.7292 26.4502 36.6957 26.4191C36.6622 26.388 36.6286 26.3569 36.5951 26.3281C36.2024 26.0025 35.7906 26.0025 35.4746 26.3281C35.1489 26.6633 35.1681 27.1135 35.5512 27.4774C36.4419 28.3298 37.4858 28.8565 38.7883 29.0864C38.22 29.5576 38.2531 30.1397 38.2858 30.7142C38.2949 30.8754 38.3041 31.036 38.2999 31.1934C38.2795 31.778 38.2832 32.3626 38.2871 32.9712C38.2887 33.22 38.2903 33.4729 38.2903 33.7314H37.4762C37.3182 33.7314 37.1591 33.7267 37.0001 33.7221H36.9999H36.9997H36.9995H36.9994H36.9992H36.999H36.9988H36.9986C36.6474 33.7118 36.2959 33.7015 35.9534 33.741C34.9095 33.8655 33.9901 33.5686 33.109 33.0418C32.4678 32.6613 31.8231 32.2843 31.1779 31.907C30.3292 31.4108 29.4797 30.9141 28.6363 30.4081C28.5118 30.3315 28.3969 30.1399 28.3969 29.9963C28.3778 28.4543 28.3778 26.9123 28.3969 25.3704C28.3969 25.2267 28.5597 25.0256 28.6938 24.9681C29.6324 24.5659 30.571 24.1924 31.5191 23.8284C31.9884 23.656 32.2087 23.3687 32.1991 22.8516C32.1904 22.4382 32.1916 22.0228 32.1928 21.6073V21.6072V21.6072V21.6071V21.607V21.607V21.6069V21.6069V21.6068C32.1942 21.1079 32.1956 20.6087 32.18 20.1124C32.18 19.8443 32.0746 19.5569 31.9214 19.3367C31.6128 18.8995 31.2904 18.4707 30.9676 18.0412L30.9675 18.0411L30.9675 18.0411L30.9674 18.041L30.9674 18.041L30.9674 18.0409L30.9673 18.0408L30.9673 18.0408L30.9672 18.0407L30.9672 18.0407C30.689 17.6705 30.4104 17.2999 30.14 16.9232C30.0251 16.7604 29.9389 16.5209 29.9389 16.3198C29.9197 13.6381 29.9197 10.9661 29.9293 8.28441C29.9293 8.12159 29.9389 7.93004 30.0251 7.81511C30.7619 6.76056 31.5083 5.71555 32.2575 4.66661ZM12.8546 17.2514C12.5131 17.3807 12.1687 17.5111 11.8185 17.6415C11.6653 17.3829 11.5216 17.1339 11.378 16.8849C11.2343 16.6358 11.0906 16.3868 10.9374 16.1283C11.1298 15.9693 11.3205 15.8096 11.5108 15.6503L11.5109 15.6502C11.9743 15.2621 12.4351 14.8763 12.9103 14.5097C13.2934 14.2032 13.37 13.8393 13.4371 13.3604C13.5903 12.2686 13.0827 11.6173 12.2591 11.0714C12.0442 10.9264 11.8474 10.7572 11.65 10.5876L11.65 10.5876C11.4956 10.4548 11.3408 10.3218 11.1768 10.1999C10.9949 10.0562 10.947 9.93171 11.0811 9.72101C11.2413 9.46838 11.3896 9.20783 11.5438 8.9368L11.5439 8.93676L11.5439 8.93666L11.5439 8.93664L11.5439 8.93663L11.5439 8.93662L11.544 8.9366L11.544 8.93659L11.544 8.93657C11.6294 8.78639 11.7168 8.633 11.8089 8.47595C12.0373 8.56085 12.2674 8.64306 12.4977 8.72532L12.4977 8.72534L12.4978 8.72536L12.4979 8.72538L12.4979 8.7254L12.498 8.72542L12.498 8.72544L12.4981 8.72546L12.4982 8.7255C13.0211 8.91231 13.5448 9.09938 14.05 9.31876C14.6151 9.56777 15.0365 9.45284 15.592 9.20383C16.5018 8.80158 16.7317 8.13117 16.8275 7.26921C16.8756 6.83611 16.9533 6.40302 17.0323 5.96284C17.0634 5.78977 17.0946 5.61562 17.1244 5.43993H18.877C18.9191 5.68474 18.962 5.93027 19.0049 6.17653L19.0051 6.17724L19.0051 6.17744C19.1184 6.82684 19.2326 7.48128 19.3367 8.14075C19.3942 8.50468 19.5857 8.73454 19.9018 8.88778C19.9319 8.90285 19.9631 8.91603 19.9939 8.9291L19.994 8.92912C20.0611 8.95756 20.1271 8.98551 20.1795 9.03144C20.85 9.66354 21.5491 9.56777 22.3153 9.20383C22.7073 9.01745 23.1209 8.86989 23.5474 8.71773C23.7565 8.64314 23.9686 8.56744 24.1829 8.48553C24.253 8.60568 24.3237 8.72452 24.3941 8.84273C24.5929 9.17683 24.7889 9.50595 24.9586 9.84551C24.9969 9.92213 24.882 10.1328 24.7862 10.219C24.1924 10.7266 23.5987 11.2151 22.9857 11.7035C22.6792 11.9525 22.5068 12.2303 22.5739 12.6325C22.5739 12.6489 22.575 12.6652 22.5761 12.6811C22.5782 12.712 22.5802 12.7414 22.5739 12.7666C22.3632 13.7914 22.842 14.4522 23.6561 14.9981C23.9856 15.2178 24.2889 15.481 24.5984 15.7495L24.5984 15.7496L24.5985 15.7497L24.5988 15.7499L24.5991 15.7501L24.5991 15.7501C24.7482 15.8796 24.8988 16.0102 25.0544 16.1378C24.9389 16.3391 24.8248 16.536 24.7116 16.7313C24.5339 17.038 24.3584 17.341 24.1829 17.6511C24.0041 17.5848 23.8265 17.5193 23.6501 17.4542L23.6498 17.4541C22.9852 17.2091 22.336 16.9698 21.6928 16.7125C21.3112 16.558 21.0158 16.6621 20.6595 16.7877L20.6009 16.8082C19.344 17.2491 19.2171 18.2871 19.0864 19.3554L19.0781 19.4229C19.048 19.6823 19.0026 19.9417 18.9564 20.2059C18.9293 20.3611 18.9018 20.518 18.877 20.6775H17.1244C17.0543 20.2355 16.9812 19.8026 16.9085 19.3719L16.9085 19.3719L16.9085 19.3719L16.9084 19.3718L16.9084 19.3713C16.8519 19.037 16.7957 18.7041 16.7413 18.3694C16.7262 18.2938 16.714 18.2168 16.702 18.1401C16.6834 18.0222 16.6649 17.9049 16.6359 17.7947C16.4827 17.2488 14.979 16.4635 14.4523 16.655C13.9198 16.8481 13.3908 17.0484 12.8546 17.2514ZM18.4892 40.426C18.4676 40.4068 18.446 40.3877 18.4269 40.3685C18.4269 39.2097 18.4269 38.0412 18.4365 36.8441H16.8849L16.8834 36.8698C16.8744 37.0231 16.8658 37.1687 16.8658 37.3229C16.8658 37.7577 16.8673 38.1932 16.8689 38.629C16.8728 39.7199 16.8767 40.8128 16.8562 41.9009C16.8466 42.1499 16.7317 42.4468 16.5785 42.6479C16.1475 43.2034 15.6782 43.7206 15.1993 44.2378C15.094 44.3527 14.912 44.4676 14.7588 44.4676C13.4998 44.4819 12.2408 44.4802 10.9339 44.4784H10.9337H10.9335H10.9332H10.933H10.9328H10.9326H10.9324H10.9321C10.4899 44.4778 10.0421 44.4772 9.587 44.4772L9.62909 44.4326L9.71217 44.3441C9.80915 44.2408 9.88483 44.1602 9.96051 44.0845C11.6174 42.4181 13.2743 40.7516 14.9407 39.1043C15.2472 38.7978 15.3813 38.4626 15.3813 38.0316C15.3717 34.7562 15.3717 31.4807 15.3717 28.2053V27.6498H19.8922C19.8954 27.6977 19.8997 27.7456 19.9039 27.7935C19.9124 27.8892 19.921 27.985 19.921 28.0808C19.921 28.9454 19.9216 29.8095 19.9221 30.6732C19.9239 33.2633 19.9257 35.8507 19.9114 38.4435C19.9114 38.6733 19.7869 38.9223 19.6528 39.1139C19.4852 39.3414 19.2989 39.5501 19.1126 39.7589L19.1125 39.759C19.0007 39.8842 18.889 40.0094 18.7812 40.1387C18.7238 40.2089 18.6748 40.2876 18.6259 40.3664C18.6014 40.4058 18.5769 40.4451 18.5514 40.4834C18.5322 40.4643 18.5107 40.4451 18.4892 40.426ZM26.8071 26.0408H18.446C18.446 24.7958 18.446 23.5699 18.4365 22.2769C18.5423 22.2769 18.6471 22.278 18.7512 22.2791L18.7518 22.2791H18.7518H18.7518H18.7519H18.7519H18.7519H18.7519H18.7519H18.7519C18.9583 22.2812 19.1619 22.2833 19.3655 22.2769C19.9688 22.2673 20.2274 22.0279 20.3232 21.4341C20.4669 20.553 20.6105 19.6719 20.7638 18.7908C20.8308 18.4077 21.1852 18.197 21.5491 18.331C21.9701 18.4841 22.3887 18.6396 22.8073 18.7951L22.8077 18.7953L22.8085 18.7955C23.2275 18.9512 23.6465 19.1068 24.0679 19.26C24.6905 19.4899 24.9778 19.3941 25.2938 18.8195C25.4567 18.5322 25.6386 18.4268 25.9643 18.4364C26.4213 18.4451 26.8764 18.4439 27.3313 18.4427H27.3315H27.3316H27.3316H27.3317H27.3318H27.3318H27.3319H27.3319H27.332C27.8777 18.4413 28.4232 18.4399 28.9715 18.4555C29.1631 18.4555 29.3834 18.5896 29.5175 18.7237C29.6324 18.8386 29.7258 18.9751 29.8191 19.1116L29.8191 19.1116L29.8192 19.1116C29.9125 19.2481 30.0059 19.3846 30.1208 19.4995C30.6859 20.0454 30.7434 20.7158 30.6189 21.482H27.6211V23.0144H29.1056C29.1056 23.0431 29.1152 23.0718 29.1248 23.1006C28.7013 23.264 28.2836 23.4332 27.8627 23.6037L27.8626 23.6038L27.8625 23.6038L27.8624 23.6038L27.8623 23.6039L27.8622 23.6039L27.8621 23.604L27.862 23.604L27.8619 23.604C27.7405 23.6532 27.6188 23.7025 27.4966 23.7518C26.9507 23.9721 26.8071 24.1828 26.8071 24.767V26.0408ZM19.2182 3.81904L19.1931 3.81178C19.1931 3.07433 19.1931 2.34645 19.1739 1.58984H25.2651V2.90194C25.2651 3.5915 25.562 3.87883 26.2516 3.87883H30.8679C30.4974 4.40527 30.1349 4.919 29.7745 5.42974L29.7738 5.43066L29.7733 5.43135L29.7717 5.4337C29.2479 6.17599 28.7285 6.91198 28.1958 7.67145C27.9849 7.67145 27.7666 7.67294 27.5429 7.67447C26.9641 7.67841 26.3492 7.6826 25.7344 7.66188C25.6003 7.6523 25.4375 7.49906 25.3513 7.37456C24.9299 6.71372 24.6905 6.62752 23.9434 6.90527C23.5508 7.04893 23.1605 7.19499 22.7702 7.34104C22.3799 7.4871 21.9897 7.63315 21.597 7.77681C21.1756 7.93004 20.8404 7.72892 20.7638 7.28836C20.6919 6.87184 20.6201 6.45292 20.5483 6.03401L20.5483 6.03376C20.4764 5.61474 20.4046 5.19572 20.3328 4.7791C20.2178 4.06079 20.0838 3.93629 19.375 3.85009C19.3249 3.85009 19.2747 3.8355 19.2182 3.81904ZM21.4884 37.9122L21.4885 37.9118C21.49 37.8096 21.4916 37.7059 21.4916 37.6007H22.957V44.4485H17.0861C17.1433 44.3805 17.1952 44.3165 17.2442 44.2561L17.2444 44.2559C17.3266 44.1546 17.4008 44.0631 17.4787 43.9792C17.6659 43.7646 17.8531 43.5498 18.0403 43.3349C19.0316 42.1973 20.025 41.0573 21.0319 39.9375C21.3767 39.5544 21.5491 39.1618 21.5012 38.6446C21.4808 38.4064 21.4846 38.1634 21.4884 37.9122ZM30.1777 44.3251C30.2157 44.3656 30.257 44.4095 30.3028 44.458H24.5851V37.6102H26.0696C26.0696 37.7828 26.0702 37.9553 26.0708 38.1277V38.1278V38.1278V38.1279V38.128V38.1281V38.1282V38.1283V38.1283C26.0726 38.6447 26.0744 39.1597 26.06 39.6694C26.0505 40.0429 26.1654 40.3206 26.4335 40.5792C27.3174 41.4487 28.1905 42.3236 29.0608 43.1957L29.0617 43.1966L29.0626 43.1975L29.0635 43.1984L29.0644 43.1993L29.0653 43.2002C29.3535 43.489 29.6414 43.7775 29.9293 44.0654C30.005 44.1411 30.0807 44.2217 30.1777 44.3251ZM21.5204 36.0204V27.6402H22.957C22.9604 27.7019 22.965 27.7611 22.9696 27.8191C22.9778 27.9234 22.9857 28.0241 22.9857 28.1287C22.9953 29.412 22.9953 30.705 22.9857 31.9883C22.9857 32.381 23.1006 32.6779 23.3784 32.9461C24.2116 33.741 25.0161 34.5646 25.8206 35.3883C25.9152 35.4829 25.9724 35.6148 26.0387 35.7677L26.0387 35.7677L26.0388 35.7679C26.0732 35.8472 26.11 35.9321 26.1558 36.0204H21.5204ZM24.578 27.6917L24.578 27.6917C24.5866 27.677 24.5963 27.6603 24.6043 27.6402H26.8166V28.3777C26.8166 28.561 26.8182 28.7443 26.8198 28.9277C26.8237 29.386 26.8276 29.8444 26.8071 30.3027C26.7783 30.8582 26.9603 31.2605 27.4679 31.5095C27.5919 31.5715 27.7061 31.6484 27.8317 31.733C27.8806 31.766 27.9314 31.8002 27.9851 31.8351C27.7031 32.2949 27.4328 32.7468 27.1568 33.2085L27.1565 33.209L27.1562 33.2095L27.1561 33.2097L27.1557 33.2104L27.1552 33.2112C27.0005 33.4699 26.844 33.7317 26.6826 33.9996C25.9738 33.3004 25.2938 32.6204 24.6139 31.9405C24.5564 31.883 24.5468 31.7776 24.5468 31.6914C24.5468 30.3793 24.5468 29.0577 24.5564 27.7456C24.5564 27.7289 24.5661 27.7122 24.578 27.6917ZM24.8341 13.8872H28.3203V16.837H26.5102C26.5139 16.8144 26.5147 16.7934 26.5155 16.7738C26.5167 16.7434 26.5177 16.7166 26.5293 16.6933C26.9795 15.7356 26.9699 15.6781 26.1271 14.9885C25.7251 14.6631 25.3231 14.3282 24.9212 13.9932L24.9211 13.9931L24.921 13.9931L24.9209 13.993L24.9208 13.9929L24.9208 13.9929L24.9207 13.9928L24.9206 13.9927L24.9205 13.9927L24.9203 13.9925C24.9012 13.9734 24.882 13.9542 24.8341 13.8872ZM28.3107 12.2398H24.7767C25.3513 11.7706 25.8302 11.3779 26.3186 10.9661C26.9507 10.4489 26.9795 10.2478 26.5964 9.51988C26.5643 9.46373 26.5389 9.40757 26.5034 9.3289L26.5033 9.32882L26.5033 9.32872L26.4814 9.28045H28.3107V12.2398ZM3.8789 3.87883C3.8789 3.45742 4.18537 3.12222 4.5972 3.11264C4.99944 3.09348 5.34423 3.42869 5.35381 3.85009C5.36338 4.2715 5.06649 4.6067 4.65466 4.62586C4.22368 4.64501 3.8789 4.31938 3.8789 3.87883ZM4.62593 22.2865C5.05691 22.2961 5.35381 22.593 5.35381 23.0239C5.35381 23.4453 5.04733 23.7518 4.62593 23.7518C4.17579 23.7614 3.86932 23.4453 3.8789 22.9952C3.88847 22.5738 4.19495 22.2769 4.62593 22.2865ZM1.56118 13.7914C1.58033 13.4083 1.91554 13.0731 2.28906 13.0827C2.6913 13.0922 3.01693 13.4274 3.00736 13.8393C3.00736 14.2415 2.70088 14.5767 2.31779 14.5767C1.90596 14.5767 1.54202 14.2032 1.56118 13.7914ZM37.5607 17.1368C37.5617 17.3005 37.5629 17.4678 37.5629 17.6407C37.3828 17.6407 37.2094 17.6396 37.0405 17.6385H37.0402H37.0401H37.04H37.04H37.0399H37.0398H37.0397H37.0396C36.7147 17.6364 36.4061 17.6344 36.0975 17.6407C35.6186 17.6503 35.2739 17.9759 35.2547 18.3973C35.2356 18.8283 35.5612 19.1731 36.0496 19.1923C36.7967 19.2114 37.5437 19.2114 38.2907 19.1923C38.8366 19.1827 39.0952 18.8858 39.0952 18.3303C39.1048 17.6312 39.1048 16.9224 39.0952 16.2233C39.0856 15.6965 38.7887 15.3613 38.329 15.3613C37.8693 15.3613 37.5724 15.687 37.5629 16.2137C37.5565 16.5168 37.5585 16.82 37.5607 17.1368ZM31.4137 7.69141H32.9844V9.19505V10.7753C32.8661 10.7753 32.7489 10.7759 32.6329 10.7765H32.6328C32.2886 10.7783 31.9539 10.7801 31.6244 10.7657C31.5478 10.7657 31.4233 10.6221 31.4233 10.5455C31.409 9.85106 31.4107 9.15131 31.4125 8.43021V8.43001C31.4131 8.18645 31.4137 7.94045 31.4137 7.69141ZM32.9557 13.8217V12.2797C32.8399 12.2797 32.7252 12.2791 32.6115 12.2785C32.274 12.2767 31.9444 12.275 31.6149 12.2893C31.5478 12.2893 31.4233 12.4042 31.4233 12.4713C31.4089 12.8096 31.4108 13.1534 31.4126 13.4904V13.4905V13.4906V13.4907V13.4907V13.4908C31.4132 13.602 31.4137 13.7124 31.4137 13.8217H32.9557ZM31.4125 16.5406V16.5405V16.5404V16.5404V16.5404V16.5404V16.5404C31.4107 16.2167 31.409 15.9076 31.4233 15.5932C31.4329 15.507 31.567 15.3537 31.6436 15.3537C31.9495 15.3333 32.2506 15.3371 32.5639 15.3409H32.564H32.5641H32.5642H32.5642H32.5643C32.6923 15.3425 32.8224 15.3441 32.9557 15.3441V16.8765H31.4137C31.4137 16.7625 31.4131 16.651 31.4125 16.5412V16.541V16.5409V16.5407V16.5406ZM17.9576 16.1278C19.6719 16.1469 21.0415 14.8061 21.0606 13.0918C21.0798 11.387 19.7485 10.0174 18.0629 10.0079C16.3198 9.99829 14.9503 11.3104 14.9407 13.0152C14.9311 14.7487 16.2432 16.1086 17.9576 16.1278ZM18.0246 11.5307C18.8387 11.5402 19.5282 12.2394 19.5282 13.0535C19.5282 13.8963 18.8195 14.5858 17.9863 14.5858C17.1722 14.5763 16.4731 13.8771 16.4731 13.063C16.4731 12.2394 17.201 11.5115 18.0246 11.5307ZM18.4074 30.6855V32.1988H16.875V30.6855H18.4074ZM18.4279 34.0907C18.4272 33.9719 18.4266 33.8489 18.4266 33.7203C18.3269 33.7203 18.2296 33.7199 18.1343 33.7195H18.1342H18.1341C17.7625 33.718 17.4211 33.7166 17.0858 33.7394C17.0091 33.7394 16.8655 33.8639 16.8655 33.931C16.8512 34.2593 16.8529 34.5876 16.8547 34.9357V34.9358L16.8547 34.9366C16.8553 35.0553 16.8559 35.1764 16.8559 35.3005C16.9993 35.3005 17.137 35.3022 17.2708 35.3038C17.5927 35.3077 17.8923 35.3113 18.1967 35.291C18.2734 35.2814 18.4074 35.1377 18.417 35.0515C18.4312 34.739 18.4296 34.4317 18.4279 34.0907ZM21.4814 22.9964V21.5215H22.9947V22.9964H21.4814ZM24.5468 21.5215V22.9868H26.0409V21.5215H24.5468Z" fill="url(#paint0_linear_416_32700)"/>
<defs>
<linearGradient id="paint0_linear_416_32700" x1="0" y1="23" x2="44.0323" y2="23" gradientUnits="userSpaceOnUse">
<stop stop-color="#F7941D"/>
<stop offset="1" stop-color="#27AAE1"/>
</linearGradient>
</defs>
</svg>
