<svg width="94" height="60" viewBox="0 0 94 60" fill="none" xmlns="http://www.w3.org/2000/svg">
<path d="M13.9365 59.7923C6.25327 59.7923 0.0537109 53.5739 0.0537109 45.8674C0.0537109 38.1608 6.25327 31.9424 13.9365 31.9424C21.6197 31.9424 27.8192 38.1608 27.8192 45.8674C27.8192 53.5739 21.6197 59.7923 13.9365 59.7923Z" fill="#00093C"/>
<path d="M46.736 1.59407L31.6875 26.2551C31.2636 26.946 31.7405 27.8496 32.5353 27.8496H47.5839H62.6323C63.4272 27.8496 63.9041 26.946 63.4801 26.2551L48.4317 1.59407C48.0077 0.956275 47.107 0.956275 46.736 1.59407Z" fill="#00093C"/>
<path d="M27.5006 5.79322L22.0429 0.318893C21.619 -0.106298 20.9831 -0.106298 20.6122 0.318893L14.6246 6.3247C14.2007 6.74989 13.5649 6.74989 13.1939 6.3247L7.20633 0.318893C6.78242 -0.106298 6.14657 -0.106298 5.77566 0.318893L0.317926 5.79322C-0.105975 6.2184 -0.105975 6.85619 0.317926 7.22824L6.30553 13.234C6.72943 13.6593 6.72943 14.2971 6.30553 14.6691L0.317926 20.6749C-0.105975 21.1 -0.105975 21.7378 0.317926 22.1099L5.77566 27.5842C6.19956 28.0094 6.83541 28.0094 7.20633 27.5842L13.1939 21.5784C13.6179 21.1532 14.2537 21.1532 14.6246 21.5784L20.6122 27.5842C21.0361 28.0094 21.672 28.0094 22.0429 27.5842L27.5006 22.1099C27.9245 21.6847 27.9245 21.0469 27.5006 20.6749L21.513 14.6691C21.0891 14.2438 21.0891 13.6061 21.513 13.234L27.5006 7.22824C27.9245 6.80304 27.9245 6.16525 27.5006 5.79322Z" fill="#00093C"/>
<path d="M37.092 45.3361H34.0717L33.4888 46.718H31.9521L34.8665 40.1807H36.3502L39.2645 46.718H37.6748L37.092 45.3361ZM36.6151 44.22L35.5553 41.722L34.4955 44.22H36.6151Z" fill="black"/>
<path d="M41.5415 46.452C41.0116 46.1863 40.5878 45.7611 40.2699 45.2297C39.9519 44.6982 39.793 44.1135 39.793 43.4757C39.793 42.838 39.9519 42.2533 40.2699 41.7218C40.5878 41.1903 41.0116 40.8183 41.5415 40.4994C42.0714 40.2336 42.7073 40.0742 43.3431 40.0742C43.926 40.0742 44.4029 40.1805 44.8797 40.3931C45.3567 40.6057 45.7276 40.8714 46.0455 41.2435L45.0918 42.147C44.6678 41.6155 44.0849 41.403 43.4491 41.403C43.0252 41.403 42.7073 41.5092 42.3893 41.6687C42.0714 41.8281 41.8065 42.0939 41.6475 42.4128C41.4886 42.7316 41.3826 43.1037 41.3826 43.4757C41.3826 43.9009 41.4886 44.2198 41.6475 44.5387C41.8065 44.8576 42.0714 45.1234 42.3893 45.2828C42.7073 45.4422 43.0782 45.5485 43.4491 45.5485C44.0849 45.5485 44.6678 45.2828 45.0918 44.7513L46.0455 45.6548C45.7276 46.0269 45.3567 46.3458 44.8797 46.5052C44.4029 46.7178 43.926 46.8241 43.3431 46.8241C42.7073 46.8773 42.0714 46.7178 41.5415 46.452Z" fill="black"/>
<path d="M51.6096 45.3361H48.5893L48.0065 46.718H46.4697L49.3841 40.1807H50.8677L53.7821 46.718H52.1924L51.6096 45.3361ZM51.1327 44.22L50.0729 41.722L49.0132 44.22H51.1327Z" fill="black"/>
<path d="M54.7354 40.2336H57.7027C58.3915 40.2336 59.0273 40.3931 59.5572 40.6589C60.0871 40.9246 60.511 41.2967 60.8289 41.8281C61.1468 42.3065 61.3058 42.8911 61.3058 43.5288C61.3058 44.1666 61.1468 44.7513 60.8289 45.2297C60.511 45.708 60.0871 46.08 59.5572 46.3989C59.0273 46.6647 58.3915 46.8241 57.7027 46.8241H54.7354V40.2336ZM57.6497 45.4954C58.2855 45.4954 58.8154 45.336 59.1863 44.9639C59.5572 44.5919 59.7691 44.1135 59.7691 43.4757C59.7691 42.838 59.5572 42.3596 59.1863 41.9876C58.8154 41.6155 58.2855 41.4561 57.6497 41.4561H56.272V45.4954H57.6497Z" fill="black"/>
<path d="M67.7712 45.5485V46.771H62.7373V40.2336H67.6651V41.4561H64.221V42.8911H67.2413V44.0604H64.221V45.5485H67.7712Z" fill="black"/>
<path d="M75.1895 46.771V42.838L73.282 46.08H72.5932L70.6856 42.9443V46.771H69.2549V40.2336H70.5266L72.964 44.2729L75.3485 40.2336H76.5672V46.771H75.1895Z" fill="black"/>
<path d="M81.5485 44.4324V46.771H80.065V44.4324L77.5215 40.2336H79.1111L80.8598 43.1568L82.6083 40.2336H84.092L81.5485 44.4324Z" fill="black"/>
<path d="M33.2763 58.7825C32.9583 58.6231 32.7464 58.4105 32.5344 58.0916C32.3755 57.8259 32.2695 57.4538 32.2695 57.0818C32.2695 56.7097 32.3755 56.3908 32.5344 56.072C32.6934 55.8062 32.9583 55.5405 33.2763 55.381C33.5942 55.2216 33.9121 55.1152 34.336 55.1152C34.7069 55.1152 35.0778 55.2216 35.3958 55.381C35.7137 55.5405 35.9256 55.753 36.1376 56.072C36.2966 56.3377 36.4025 56.7097 36.4025 57.0818C36.4025 57.4538 36.2966 57.7727 36.1376 58.0916C35.9786 58.3574 35.7137 58.6231 35.3958 58.7825C35.0778 58.9419 34.7599 59.0483 34.336 59.0483C33.9121 59.0483 33.5412 58.9419 33.2763 58.7825ZM34.9719 57.879C35.1308 57.6664 35.2369 57.4538 35.2369 57.1349C35.2369 56.8161 35.1308 56.5503 34.9719 56.3908C34.8129 56.1783 34.548 56.1251 34.283 56.1251C34.0181 56.1251 33.8062 56.2314 33.5942 56.3908C33.4352 56.6034 33.3293 56.8161 33.3293 57.1349C33.3293 57.4538 33.4352 57.7196 33.5942 57.879C33.7532 58.0916 34.0181 58.1447 34.283 58.1447C34.548 58.1447 34.8129 58.0384 34.9719 57.879Z" fill="black"/>
<path d="M38.4158 55.3279H39.3696V56.1783H38.4688V58.9951H37.4091V56.1783H36.8262V55.3279H37.4091V55.1684C37.4091 54.7433 37.515 54.4243 37.7799 54.1586C38.0449 53.8929 38.3628 53.7866 38.8397 53.7866C38.9987 53.7866 39.1576 53.7866 39.3166 53.8398C39.4756 53.8929 39.5816 53.9461 39.6875 53.9992L39.4226 54.7964C39.3166 54.6901 39.1576 54.6901 38.9987 54.6901C38.6808 54.6901 38.5218 54.8496 38.5218 55.2217V55.3279H38.4158Z" fill="black"/>
<path d="M44.6677 58.7825C44.5617 58.8356 44.4557 58.9419 44.2968 58.9419C44.1378 58.995 43.9788 58.995 43.8199 58.995C43.3959 58.995 43.0251 58.8888 42.8131 58.6762C42.5481 58.4635 42.4422 58.1447 42.4422 57.6663V56.125H41.8594V55.2746H42.4422V54.3711H43.502V55.2746H44.4028V56.125H43.502V57.6131C43.502 57.7727 43.555 57.8789 43.6079 57.9852C43.7139 58.0915 43.8199 58.0915 43.9258 58.0915C44.0848 58.0915 44.2438 58.0384 44.3498 57.9321L44.6677 58.7825Z" fill="black"/>
<path d="M48.855 55.6468C49.12 55.9126 49.279 56.3377 49.279 56.8692V58.9952H48.2193V57.0287C48.2193 56.7098 48.1663 56.4972 48.0073 56.3909C47.9013 56.2314 47.6894 56.1783 47.4245 56.1783C47.1595 56.1783 46.9475 56.2846 46.7886 56.444C46.6296 56.6035 46.5236 56.8692 46.5236 57.1881V59.0484H45.4639V53.946H46.5236V55.7531C46.6826 55.5936 46.8416 55.4874 47.0535 55.4342C47.2654 55.3811 47.4774 55.3279 47.6894 55.3279C48.2193 55.2216 48.5901 55.3279 48.855 55.6468Z" fill="black"/>
<path d="M54.0468 57.4538H51.2385C51.2915 57.6664 51.3975 57.879 51.6094 57.9853C51.8213 58.1447 52.0333 58.1979 52.2982 58.1979C52.5102 58.1979 52.6691 58.1447 52.8281 58.0916C52.9871 58.0384 53.0931 57.9321 53.252 57.8259L53.8349 58.4637C53.464 58.8888 52.9871 59.0483 52.2982 59.0483C51.8743 59.0483 51.5034 58.9419 51.1855 58.7825C50.8676 58.6231 50.6027 58.4105 50.4436 58.0916C50.2847 57.8259 50.1787 57.4538 50.1787 57.0818C50.1787 56.7097 50.2847 56.3908 50.4436 56.072C50.6027 55.8062 50.8676 55.5405 51.1326 55.381C51.3975 55.2216 51.7683 55.1152 52.1393 55.1152C52.5102 55.1152 52.8281 55.1685 53.146 55.3279C53.4639 55.4873 53.6759 55.6999 53.8349 56.0188C53.9938 56.3377 54.0998 56.6565 54.0998 57.0286C54.0998 57.1349 54.0998 57.2412 54.0468 57.4538ZM51.5564 56.2314C51.3975 56.3908 51.2915 56.5503 51.2385 56.8161H53.0401C52.9871 56.6034 52.8811 56.3908 52.7222 56.2314C52.5632 56.072 52.3512 56.0188 52.1393 56.0188C51.9273 56.0188 51.7154 56.072 51.5564 56.2314Z" fill="black"/>
<path d="M59.241 54.1585V55.7529H61.9964V56.869H59.241V59.0481H57.8633V53.0955H62.3672V54.2116H59.241V54.1585Z" fill="black"/>
<path d="M64.2211 58.3573C63.7442 57.8789 63.5322 57.2412 63.5322 56.3376V52.9893H64.9099V56.2845C64.9099 57.3475 65.3338 57.8789 66.2346 57.8789C66.6585 57.8789 66.9764 57.7726 67.2414 57.5069C67.5063 57.2412 67.5593 56.8691 67.5593 56.2845V52.9893H68.937V56.3376C68.937 57.1881 68.725 57.8789 68.2481 58.3573C67.7712 58.8357 67.1354 59.0482 66.2876 59.0482C65.4397 59.0482 64.6449 58.8357 64.2211 58.3573Z" fill="black"/>
<path d="M71.6908 54.1587H69.7832V53.0425H74.976V54.1587H73.0685V58.9952H71.6908V54.1587Z" fill="black"/>
<path d="M76.6205 58.3573C76.1437 57.8789 75.9316 57.2412 75.9316 56.3376V52.9893H77.3093V56.2845C77.3093 57.3475 77.7333 57.8789 78.6341 57.8789C79.0579 57.8789 79.3759 57.7726 79.6408 57.5069C79.9057 57.2412 79.9587 56.8691 79.9587 56.2845V52.9893H81.3364V56.3376C81.3364 57.1881 81.1245 57.8789 80.6475 58.3573C80.1707 58.8357 79.5348 59.0482 78.687 59.0482C77.8392 59.0482 77.0974 58.8357 76.6205 58.3573Z" fill="black"/>
<path d="M86.6869 58.9952L85.5213 57.3476H85.4684H84.2497V58.9952H82.8721V53.0425H85.4155C85.9452 53.0425 86.422 53.1488 86.7929 53.3083C87.1638 53.4677 87.4817 53.7334 87.6936 54.0524C87.9055 54.3712 88.0115 54.7433 88.0115 55.2216C88.0115 55.7 87.9055 56.0188 87.6936 56.3909C87.4817 56.7098 87.1638 56.9756 86.7929 57.135L88.1174 59.0483H86.6869V58.9952ZM86.3161 54.4244C86.1041 54.2649 85.7862 54.1587 85.3625 54.1587H84.2497V56.2314H85.3625C85.7862 56.2314 86.1041 56.1251 86.3161 55.9657C86.528 55.8062 86.6339 55.5405 86.6339 55.2216C86.6869 54.8496 86.528 54.5838 86.3161 54.4244Z" fill="black"/>
<path d="M93.9999 57.8791V58.9952H89.3896V53.0425H93.894V54.1587H90.768V55.4342H93.5231V56.4972H90.768V57.8791H93.9999Z" fill="black"/>
</svg>
