<?xml version="1.0" encoding="UTF-8" standalone="no"?>
<!-- Created with Inkscape (http://www.inkscape.org/) -->

<svg
   width="80.168755mm"
   height="70.643753mm"
   viewBox="0 0 80.168755 70.643753"
   version="1.1"
   id="svg1231"
   inkscape:version="1.1.2 (0a00cf5339, 2022-02-04)"
   sodipodi:docname="new.svg"
   xmlns:inkscape="http://www.inkscape.org/namespaces/inkscape"
   xmlns:sodipodi="http://sodipodi.sourceforge.net/DTD/sodipodi-0.dtd"
   xmlns="http://www.w3.org/2000/svg"
   xmlns:svg="http://www.w3.org/2000/svg">
  <sodipodi:namedview
     id="namedview1233"
     pagecolor="#ffffff"
     bordercolor="#666666"
     borderopacity="1.0"
     inkscape:pageshadow="2"
     inkscape:pageopacity="0.0"
     inkscape:pagecheckerboard="0"
     inkscape:document-units="mm"
     showgrid="false"
     inkscape:zoom="0.64052329"
     inkscape:cx="-96.015244"
     inkscape:cy="256.04065"
     inkscape:window-width="1680"
     inkscape:window-height="981"
     inkscape:window-x="0"
     inkscape:window-y="32"
     inkscape:window-maximized="1"
     inkscape:current-layer="layer1"
     fit-margin-top="0"
     fit-margin-left="0"
     fit-margin-right="0"
     fit-margin-bottom="0" />
  <defs
     id="defs1228" />
  <g
     inkscape:label="Слой 1"
     inkscape:groupmode="layer"
     id="layer1"
     transform="translate(-63.597128,-80.751839)">
    <g
       opacity="0.6"
       id="g14"
       inkscape:export-filename="/home/alexander/hdd-item1/03 projects/hod (ход) academy/верстка/08082022/new.svg"
       inkscape:export-xdpi="72"
       inkscape:export-ydpi="72"
       transform="matrix(0.26458333,0,0,0.26458333,55.659628,72.814339)">
      <path
         d="m 30,228.414 h 74 v 14.002 l -44.9286,36.74 H 104 V 296 H 30 V 281.893 L 74.9286,245.258 H 30 Z"
         fill="#ffffff"
         id="path8" />
      <path
         d="M 90.2572,153.921 H 104 v 57.058 H 30 V 155.29 h 13.7429 v 38.74 h 16.0685 v -34.214 h 13.32 v 34.214 h 17.1258 z"
         fill="#ffffff"
         id="path10" />
      <path
         d="m 30,30 74,24.1076 V 72.4253 L 53.8914,88.6374 104,105.376 v 18.212 L 30,147.801 V 130.115 L 82.0114,113.482 30,96.1118 V 80.3208 L 82.4343,63.477 30,46.3174 Z"
         fill="#ffffff"
         id="path12" />
    </g>
    <path
       d="m 94.262336,115.99434 v 8.14917 h -1.874308 v -6.61247 h -3.678767 v 6.61247 h -1.874308 v -8.14917 z m 5.570802,1.79282 c 0.582082,0 1.109922,0.13573 1.583262,0.40745 0.48128,0.26379 0.85752,0.6403 1.12925,1.12925 0.27172,0.48127 0.40745,1.04378 0.40745,1.68804 0,0.64426 -0.13573,1.21073 -0.40745,1.69968 -0.27173,0.48128 -0.64797,0.85751 -1.12925,1.12924 -0.47334,0.26379 -1.00118,0.39582 -1.583262,0.39582 -0.799306,0 -1.427956,-0.25215 -1.88595,-0.75671 v 2.92206 h -1.8161 v -8.5217 h 1.734608 v 0.72178 c 0.450056,-0.54319 1.105959,-0.81491 1.967442,-0.81491 z m -0.314325,4.95935 c 0.465667,0 0.845877,-0.15532 1.140887,-0.46567 0.30268,-0.3183 0.45402,-0.7411 0.45402,-1.26894 0,-0.52785 -0.15134,-0.94695 -0.45402,-1.2573 -0.29501,-0.3183 -0.67522,-0.47731 -1.140887,-0.47731 -0.465667,0 -0.849842,0.15901 -1.152525,0.47731 -0.295011,0.31035 -0.442383,0.72945 -0.442383,1.2573 0,0.52784 0.147372,0.95064 0.442383,1.26894 0.302683,0.31035 0.686858,0.46567 1.152525,0.46567 z m 7.640897,1.49013 c -0.65987,0 -1.25359,-0.13573 -1.78117,-0.40746 -0.52017,-0.2794 -0.92763,-0.66357 -1.22238,-1.15252 -0.29501,-0.48895 -0.44238,-1.04379 -0.44238,-1.66476 0,-0.62098 0.14737,-1.17581 0.44238,-1.66476 0.29475,-0.48895 0.70221,-0.86916 1.22238,-1.14088 0.52758,-0.2794 1.1213,-0.4191 1.78117,-0.4191 0.65961,0 1.24937,0.1397 1.76954,0.4191 0.5199,0.27172 0.92736,0.65193 1.22237,1.14088 0.29475,0.48895 0.44239,1.04378 0.44239,1.66476 0,0.62097 -0.14764,1.17581 -0.44239,1.66476 -0.29501,0.48895 -0.70247,0.87312 -1.22237,1.15252 -0.52017,0.27173 -1.10993,0.40746 -1.76954,0.40746 z m 0,-1.49013 c 0.46567,0 0.84588,-0.15532 1.14089,-0.46567 0.30268,-0.3183 0.45402,-0.7411 0.45402,-1.26894 0,-0.52785 -0.15134,-0.94695 -0.45402,-1.2573 -0.29501,-0.3183 -0.67522,-0.47731 -1.14089,-0.47731 -0.46566,0 -0.84984,0.15901 -1.15252,0.47731 -0.30268,0.31035 -0.45403,0.72945 -0.45403,1.2573 0,0.52784 0.15135,0.95064 0.45403,1.26894 0.30268,0.31035 0.68686,0.46567 1.15252,0.46567 z m 10.77199,-1.71133 c 0,0.0233 -0.0117,0.18627 -0.0349,0.48895 h -4.73816 c 0.0855,0.38814 0.28708,0.69453 0.60537,0.91969 0.31829,0.22516 0.71411,0.33761 1.18745,0.33761 0.32597,0 0.61304,-0.0466 0.86148,-0.1397 0.25612,-0.10081 0.49292,-0.25612 0.71014,-0.46567 l 0.96626,1.04775 c -0.58975,0.67522 -1.45124,1.01283 -2.58445,1.01283 -0.70617,0 -1.33112,-0.13573 -1.87431,-0.40746 -0.54319,-0.2794 -0.96229,-0.66357 -1.2573,-1.15252 -0.29501,-0.48895 -0.44238,-1.04379 -0.44238,-1.66476 0,-0.61304 0.14367,-1.16417 0.43074,-1.65312 0.29501,-0.49662 0.69453,-0.8808 1.19909,-1.15252 0.51224,-0.2794 1.08268,-0.4191 1.71133,-0.4191 0.61304,0 1.16813,0.13202 1.66476,0.39581 0.49662,0.26379 0.88476,0.64426 1.16416,1.14089 0.28708,0.48895 0.43075,1.05939 0.43075,1.71132 z m -3.24803,-1.87431 c -0.41143,0 -0.75671,0.11642 -1.03611,0.34925 -0.2794,0.23284 -0.45005,0.55113 -0.51223,0.95462 h 3.08504 c -0.0622,-0.39582 -0.23283,-0.71014 -0.51223,-0.94298 -0.2794,-0.2405 -0.62098,-0.36089 -1.02447,-0.36089 z m 7.39907,2.60774 h -0.94297 v 2.3749 h -1.8161 v -6.26322 h 1.8161 v 2.43311 h 0.9779 l 1.69968,-2.43311 h 1.93252 l -2.18863,3.00355 2.33997,3.25967 h -2.14207 z m 9.91553,-2.39819 h -2.11878 v 4.77309 h -1.80446 v -4.77309 h -2.11879 v -1.49013 h 6.04203 z"
       fill="#ffffff"
       id="path16"
       inkscape:export-filename="/home/alexander/hdd-item1/03 projects/hod (ход) academy/верстка/08082022/new.svg"
       inkscape:export-xdpi="72"
       inkscape:export-ydpi="72"
       style="stroke-width:0.264583" />
    <path
       d="m 86.615878,129.48042 h 4.13676 v 4.14707 h -4.13676 z m 4.033837,21.60534 v -14.94949 h -3.930914 v 14.93467 h 3.930914 z m 26.028125,0.14737 v -3.65971 c -0.57415,0 -1.05993,-0.0296 -1.41341,-0.0886 -0.41222,-0.059 -0.72125,-0.20664 -0.92736,-0.41328 -0.20611,-0.20664 -0.33867,-0.50165 -0.41222,-0.90011 -0.059,-0.36883 -0.0884,-0.85593 -0.0884,-1.44621 v -5.20938 h 2.84136 v -3.37953 h -2.84136 v -5.81448 h -3.93065 v 14.44757 c 0,1.22502 0.10292,2.25796 0.30903,3.08452 0.20611,0.81147 0.55959,1.47558 1.04537,1.97749 0.48577,0.50165 1.13347,0.85593 1.91373,1.07712 0.79507,0.22146 1.79599,0.32464 2.98847,0.32464 z m 22.49487,-0.14737 v -21.91517 h -3.93065 v 21.91517 z m -33.05043,-13.47391 c -1.08955,-1.18057 -2.62043,-1.77085 -4.56379,-1.77085 -0.94219,0 -1.810813,0.19182 -2.576252,0.57547 -0.780256,0.38391 -1.427956,0.91519 -1.958181,1.59385 l -0.205846,0.28046 v -2.15451 h -3.871913 v 14.93467 h 3.901282 v -7.95443 0.28046 c 0.04419,-1.40203 0.382587,-2.43496 1.030552,-3.09907 0.691885,-0.70855 1.530879,-1.06256 2.487878,-1.06256 1.13347,0 2.0021,0.35401 2.57625,1.03293 0.55959,0.67892 0.85407,1.63804 0.85407,2.86306 v 7.93961 h 3.96002 v -8.4709 c 0.0148,-2.12513 -0.54478,-3.80735 -1.63407,-4.98819 z m 27.08804,5.97694 c 0,-1.07738 -0.19129,-2.08095 -0.55932,-3.02524 -0.38286,-0.92975 -0.91282,-1.75631 -1.57533,-2.4646 -0.67707,-0.70829 -1.48696,-1.25439 -2.42914,-1.65285 -0.94218,-0.39846 -1.98729,-0.59028 -3.12103,-0.59028 -1.07474,0 -2.09047,0.20663 -3.03265,0.6051 -0.94218,0.41328 -1.76662,0.95911 -2.45851,1.65285 -0.69189,0.69347 -1.25121,1.52003 -1.64888,2.46459 -0.41222,0.9443 -0.60352,1.96268 -0.60352,3.04007 0,1.07711 0.1913,2.0955 0.57415,3.04006 0.38285,0.9443 0.92736,1.77085 1.6047,2.46433 0.67706,0.69373 1.51632,1.25439 2.48787,1.65285 0.97182,0.41328 2.04629,0.61992 3.19458,0.61992 3.32714,0 5.38824,-1.52003 6.6249,-2.93688 l -2.82654,-2.1545 c -0.58896,0.70829 -2.0021,1.66767 -3.76872,1.66767 -1.10411,0 -2.01692,-0.25083 -2.70881,-0.76756 -0.69188,-0.50165 -1.16311,-1.20994 -1.4134,-2.08068 l -0.0442,-0.13282 h 11.70384 z m -11.67447,-1.37239 c 0,-1.0922 1.25148,-2.99588 3.94547,-3.0107 2.69425,0 3.96028,1.90395 3.96028,2.99588 z m 22.11229,6.98024 c -0.0736,-0.17701 -0.17674,-0.32465 -0.3093,-0.45747 -0.13229,-0.13282 -0.27967,-0.23601 -0.45614,-0.30983 -0.17674,-0.0738 -0.3683,-0.118 -0.5596,-0.118 -0.20611,0 -0.38285,0.0442 -0.55933,0.118 -0.17674,0.0738 -0.32385,0.17701 -0.4564,0.30983 -0.13256,0.13282 -0.23548,0.28046 -0.3093,0.45747 -0.0736,0.17727 -0.11774,0.36909 -0.11774,0.56091 0,0.20664 0.0442,0.38365 0.11774,0.56065 0.0738,0.17728 0.17674,0.32465 0.3093,0.45747 0.13255,0.13282 0.27966,0.23627 0.4564,0.31009 0.17648,0.0738 0.36804,0.11801 0.55933,0.11801 0.20611,0 0.38286,-0.0442 0.5596,-0.11801 0.17647,-0.0738 0.32385,-0.17727 0.45614,-0.31009 0.13256,-0.13282 0.23574,-0.28019 0.3093,-0.45747 0.0735,-0.177 0.11774,-0.36882 0.11774,-0.56065 0,-0.19182 -0.0442,-0.38364 -0.11774,-0.56091 z m -0.23548,1.03319 c -0.059,0.14738 -0.14737,0.2802 -0.2503,0.38365 -0.10319,0.10319 -0.23574,0.19182 -0.38285,0.25082 -0.14711,0.059 -0.29448,0.0886 -0.47096,0.0886 -0.16219,0 -0.32411,-0.0296 -0.47122,-0.0886 -0.14711,-0.059 -0.27967,-0.14763 -0.38285,-0.25082 -0.10293,-0.10345 -0.1913,-0.23627 -0.2503,-0.38365 -0.0587,-0.14763 -0.0881,-0.29527 -0.0881,-0.47228 0,-0.16245 0.0294,-0.32464 0.0881,-0.47228 0.059,-0.14764 0.14737,-0.28046 0.2503,-0.38364 0.10318,-0.10346 0.23574,-0.19183 0.38285,-0.25083 0.14711,-0.0593 0.29448,-0.0886 0.47122,-0.0886 0.16193,0 0.32385,0.0294 0.47096,0.0886 0.14711,0.059 0.27966,0.14737 0.38285,0.25083 0.10293,0.10318 0.1913,0.236 0.2503,0.38364 0.0587,0.14764 0.0881,0.29501 0.0881,0.47228 0,0.17701 -0.0294,0.32465 -0.0881,0.47228 z m -0.82444,-0.33946 c 0.11774,-0.0148 0.20611,-0.059 0.27966,-0.13282 0.0736,-0.0738 0.11774,-0.17727 0.11774,-0.32464 0,-0.16246 -0.0442,-0.28046 -0.14711,-0.36909 -0.0884,-0.0884 -0.25029,-0.13283 -0.44185,-0.13283 h -0.6477 v 1.66767 h 0.3093 v -0.67892 h 0.22066 l 0.41222,0.67892 h 0.32385 z m -0.16193,-0.25082 h -0.36803 v -0.47228 h 0.36803 c 0.0442,0 0.0881,0.0145 0.13229,0.0294 0.0442,0.0148 0.0738,0.0445 0.0884,0.0738 0.0296,0.0296 0.0296,0.0738 0.0296,0.13283 0,0.059 -0.0148,0.10345 -0.0296,0.13282 -0.0294,0.0296 -0.0587,0.059 -0.0884,0.0738 -0.0442,0.0148 -0.0881,0.0296 -0.13229,0.0296 z"
       fill="#ffffff"
       id="path28"
       inkscape:export-filename="/home/alexander/hdd-item1/03 projects/hod (ход) academy/верстка/08082022/new.svg"
       inkscape:export-xdpi="72"
       inkscape:export-ydpi="72"
       style="stroke-width:0.264583" />
  </g>
</svg>
