<svg width="266" height="63" viewBox="0 0 266 63" fill="none" xmlns="http://www.w3.org/2000/svg">
<path d="M2 56V7H0V56H2ZM7 2H30V0H7V2ZM7 63H258.5V61H7V63ZM265.5 56V7H263.5V56H265.5ZM258.5 0H236V2H258.5V0ZM265.5 7C265.5 3.13401 262.366 0 258.5 0V2C261.261 2 263.5 4.23858 263.5 7H265.5ZM258.5 63C262.366 63 265.5 59.866 265.5 56H263.5C263.5 58.7614 261.261 61 258.5 61V63ZM2 7C2 4.23858 4.23858 2 7 2V0C3.13401 0 0 3.13401 0 7H2ZM0 56C0 59.866 3.13401 63 7 63V61C4.23858 61 2 58.7614 2 56H0Z" fill="#00093C"/>
</svg>
