<svg width="231" height="83" viewBox="0 0 231 83" fill="none" xmlns="http://www.w3.org/2000/svg">
<path d="M2 20V7H0V20H2ZM7 2H20V0H7V2ZM2 7C2 4.23858 4.23858 2 7 2V0C3.13401 0 0 3.13401 0 7H2Z" fill="#00093C"/>
<path d="M2 63V76H0V63H2ZM7 81H120V83H7V81ZM2 76C2 78.7614 4.23858 81 7 81V83C3.13401 83 0 79.866 0 76H2Z" fill="#00093C"/>
<path d="M229 20V7H231V20H229ZM224 2H111V0H224V2ZM229 7C229 4.23858 226.761 2 224 2V0C227.866 0 231 3.13401 231 7H229Z" fill="#00093C"/>
<path d="M229 63V76H231V63H229ZM224 81H211V83H224V81ZM229 76C229 78.7614 226.761 81 224 81V83C227.866 83 231 79.866 231 76H229Z" fill="#00093C"/>
</svg>
