<svg width="16" height="14" viewBox="0 0 16 14" fill="none" xmlns="http://www.w3.org/2000/svg">
<path d="M15.75 1.73026L13.3594 12.9099C13.1719 13.7068 12.7383 13.9178 12.0586 13.5428L8.4375 10.8709L6.67969 12.5584C6.44531 12.7928 6.19922 12.9099 5.94141 12.9099L6.22266 9.21854L12.9375 3.17167C13.1016 3.0076 13.1016 2.91385 12.9375 2.89042C12.7969 2.84354 12.6445 2.8787 12.4805 2.99588L4.18359 8.23417L0.597656 7.10917C0.199219 6.99198 0.0117188 6.8162 0.0351562 6.58182C0.0585938 6.34745 0.304688 6.14823 0.773438 5.98417L14.7305 0.570103C15.082 0.452916 15.3633 0.499791 15.5742 0.710728C15.7852 0.898228 15.8438 1.23807 15.75 1.73026Z" fill="#27AAE1"/>
</svg>
