<svg width="20" height="20" viewBox="0 0 20 20" fill="none" xmlns="http://www.w3.org/2000/svg">
<circle cx="10" cy="10" r="10" fill="#27AAE1"/>
<path d="M13.8712 6.07254C14.3241 6.48726 14.6465 7.14509 14.8386 8.04602C15.0307 8.93266 15.0513 10.0338 14.9004 11.3495C14.8592 11.6784 14.7906 11.9787 14.6945 12.2504C14.6122 12.5221 14.5162 12.7581 14.4064 12.9583C14.2966 13.1442 14.1663 13.3158 14.0153 13.4731C13.8781 13.6304 13.7409 13.7591 13.6037 13.8592C13.4802 13.945 13.3429 14.0237 13.192 14.0952C13.0411 14.1667 12.9176 14.2239 12.8215 14.2668C12.7255 14.2954 12.6157 14.324 12.4922 14.3526C12.3824 14.3812 12.3207 14.3955 12.3069 14.3955C12.2109 14.4384 12.0462 14.4813 11.8129 14.5242C11.5797 14.5671 11.2092 14.61 10.7015 14.6529C10.1938 14.7101 9.68604 14.7101 9.17833 14.6529C8.89017 14.9818 8.68434 15.2178 8.56084 15.3608C8.51968 15.4037 8.46479 15.4609 8.39618 15.5324C8.32757 15.6182 8.27954 15.6754 8.2521 15.704C8.22466 15.7326 8.17663 15.7755 8.10802 15.8327C8.05313 15.9042 8.01197 15.9399 7.98452 15.9399C7.95708 15.9399 7.90905 15.9542 7.84044 15.9828C7.77183 16.0114 7.7238 16.0043 7.69636 15.9614C7.64147 15.9471 7.59345 15.9185 7.55228 15.8756C7.51111 15.8327 7.48367 15.7826 7.46995 15.7254C7.45623 15.6825 7.44251 15.6325 7.42878 15.5753C7.42878 15.5324 7.42878 15.4966 7.42878 15.468L7.4082 15.4251L7.42878 14.3097H7.4082C7.12004 14.2239 6.85246 14.1095 6.60547 13.9665C6.35847 13.8092 6.15264 13.6375 5.98798 13.4516C5.83704 13.2657 5.69296 13.0655 5.55574 12.851C5.43224 12.6222 5.33619 12.3934 5.26758 12.1646C5.21269 11.9358 5.1578 11.6998 5.10291 11.4567C5.06175 11.2136 5.0343 10.9776 5.02058 10.7488C5.02058 10.52 5.01372 10.2984 5 10.0839C5 9.86934 5.00686 9.67629 5.02058 9.50468C5.04803 7.94592 5.39108 6.82332 6.04973 6.1369C6.46139 5.75078 7.01026 5.46477 7.69636 5.27886C8.38246 5.09295 8.9725 5 9.46649 5H10.1869C10.9004 5.0143 11.5454 5.1001 12.1217 5.25741C12.7117 5.40042 13.1165 5.54342 13.3361 5.68643C13.5556 5.81513 13.734 5.94384 13.8712 6.07254ZM14.1594 11.1564C14.2966 10.041 14.2829 9.09711 14.1182 8.32488C13.9673 7.53835 13.6997 6.97348 13.3155 6.63027C13.2194 6.53016 13.0685 6.42291 12.8627 6.3085C12.6568 6.1941 12.3001 6.07969 11.7924 5.96529C11.2984 5.85088 10.7495 5.78653 10.1457 5.77223C10.0908 5.77223 10.0016 5.77223 9.87815 5.77223C9.76837 5.77223 9.55568 5.78653 9.24008 5.81513C8.9382 5.82943 8.64317 5.86518 8.35501 5.92239C8.08058 5.96529 7.77869 6.05824 7.44937 6.20125C7.12004 6.32995 6.85246 6.50156 6.64663 6.71607C6.08403 7.28809 5.78901 8.22478 5.76157 9.52613C5.77529 9.78354 5.77529 10.0624 5.76157 10.3627C5.74785 10.6487 5.77529 10.9633 5.8439 11.3066C5.91251 11.6355 6.0017 11.9501 6.11148 12.2504C6.23497 12.5364 6.43394 12.8081 6.70838 13.0655C6.98282 13.3086 7.31901 13.4874 7.71694 13.6018C7.70322 14.7315 7.69636 15.3465 7.69636 15.4466C7.69636 15.5467 7.7238 15.6039 7.77869 15.6182C7.83358 15.6468 7.88847 15.6253 7.94336 15.5538L9.34299 13.8592C9.76837 13.8878 10.2006 13.8878 10.6397 13.8592C11.0788 13.8163 11.4013 13.7734 11.6071 13.7305C11.8129 13.6876 11.957 13.6518 12.0394 13.6232C12.0531 13.6232 12.1148 13.6089 12.2246 13.5803C12.3481 13.5517 12.451 13.5231 12.5333 13.4945C12.6294 13.4516 12.7529 13.3944 12.9038 13.3229C13.0548 13.2514 13.1851 13.1585 13.2949 13.0441C13.4184 12.9154 13.5419 12.7724 13.6654 12.6151C13.7889 12.4434 13.8918 12.2361 13.9741 11.993C14.0565 11.7356 14.1182 11.4567 14.1594 11.1564ZM11.2984 9.41888C11.2984 9.51898 11.2503 9.56903 11.1543 9.56903C11.072 9.56903 11.0308 9.52613 11.0308 9.44033C11.0033 8.98271 10.7769 8.7396 10.3516 8.711C10.2967 8.711 10.2555 8.68955 10.2281 8.64665C10.2143 8.58944 10.2212 8.53939 10.2486 8.49649C10.2761 8.45359 10.3173 8.43214 10.3721 8.43214C10.9622 8.46074 11.2709 8.78965 11.2984 9.41888ZM11.71 9.67629C11.7237 9.20437 11.5934 8.8111 11.319 8.49649C11.0445 8.18188 10.6534 8.00312 10.1457 7.96022C10.0908 7.96022 10.0565 7.93877 10.0428 7.89587C10.0291 7.83866 10.0291 7.78861 10.0428 7.74571C10.0703 7.70281 10.1114 7.68136 10.1663 7.68136C10.7426 7.72426 11.1886 7.93162 11.5042 8.30343C11.8335 8.67525 11.9913 9.13287 11.9776 9.67629C11.9776 9.73349 11.957 9.77639 11.9159 9.80499C11.8747 9.81929 11.8267 9.81929 11.7718 9.80499C11.7306 9.77639 11.71 9.73349 11.71 9.67629ZM12.6774 9.95515C12.6774 10.0124 12.6568 10.0553 12.6157 10.0839C12.5745 10.0982 12.5265 10.0982 12.4716 10.0839C12.4304 10.0553 12.4098 10.0124 12.4098 9.95515C12.4098 9.11141 12.1697 8.45359 11.6894 7.98167C11.2229 7.49545 10.6329 7.25234 9.91931 7.25234C9.83698 7.25234 9.79582 7.20944 9.79582 7.12363C9.79582 7.02353 9.83698 6.97348 9.91931 6.97348C10.7152 6.97348 11.3738 7.24519 11.8953 7.78861C12.4167 8.31773 12.6774 9.03991 12.6774 9.95515ZM12.451 12.0573C12.3138 12.3004 12.1491 12.5006 11.957 12.658C11.7649 12.801 11.5728 12.8367 11.3807 12.7652C11.1474 12.6937 10.8112 12.5364 10.3721 12.2933C9.94676 12.0502 9.58313 11.8071 9.28124 11.564C8.95192 11.2923 8.6569 10.9848 8.39618 10.6416C8.17663 10.3413 7.9708 10.0124 7.77869 9.65484C7.64147 9.41173 7.52484 9.19007 7.42878 8.98986C7.34645 8.78965 7.29156 8.64665 7.26412 8.56084L7.24354 8.45359C7.17493 8.25338 7.20923 8.05317 7.34645 7.85296C7.49739 7.65276 7.6895 7.48115 7.92277 7.33814C8.11488 7.23804 8.27954 7.26664 8.41676 7.42395C8.58143 7.63846 8.70492 7.79576 8.78726 7.89587C8.88331 8.03887 8.98622 8.21048 9.096 8.41069C9.2195 8.6538 9.19205 8.84685 9.01367 8.98986L8.76667 9.18292C8.72551 9.21152 8.69806 9.25442 8.68434 9.31162C8.67062 9.35452 8.66376 9.39743 8.66376 9.44033V9.48323C8.67748 9.52613 8.6912 9.58333 8.70492 9.65484C8.73237 9.71204 8.78726 9.83359 8.86959 10.0195C8.96564 10.1911 9.06855 10.3556 9.17833 10.5129C9.30183 10.6559 9.46649 10.806 9.67232 10.9633C9.89187 11.1206 10.132 11.235 10.3927 11.3066C10.5162 11.3066 10.6123 11.2637 10.6809 11.1778L10.8867 10.9204C11.0239 10.7345 11.2023 10.7059 11.4219 10.8346C11.8061 11.0634 12.1217 11.2994 12.3687 11.5425C12.5196 11.6855 12.5471 11.8571 12.451 12.0573Z" fill="white"/>
</svg>
