<svg width="20" height="20" viewBox="0 0 20 20" fill="none" xmlns="http://www.w3.org/2000/svg">
<circle cx="10" cy="10" r="10" fill="#27AAE1"/>
<path d="M13.9725 6.74031L12.4557 13.508C12.3367 13.9904 12.0616 14.118 11.6303 13.891L9.33265 12.2736L8.21729 13.2951C8.06858 13.437 7.91243 13.508 7.74884 13.508L7.9273 11.2734L12.188 7.61287C12.2921 7.51355 12.2921 7.4568 12.188 7.44261C12.0987 7.41423 12.0021 7.43552 11.898 7.50646L6.63349 10.6775L4.35815 9.99644C4.10534 9.9255 3.98637 9.81909 4.00124 9.67721C4.01611 9.53533 4.17226 9.41474 4.46969 9.31542L13.3256 6.038C13.5487 5.96706 13.7272 5.99544 13.861 6.12313C13.9949 6.23663 14.032 6.44236 13.9725 6.74031Z" fill="white"/>
</svg>
