<?xml version="1.0" encoding="UTF-8" standalone="no"?>
<!-- Created with Inkscape (http://www.inkscape.org/) -->

<svg
   width="84.402084mm"
   height="13.229166mm"
   viewBox="0 0 84.402084 13.229166"
   version="1.1"
   id="svg1492"
   inkscape:version="1.1.2 (0a00cf5339, 2022-02-04)"
   sodipodi:docname="start.svg"
   xmlns:inkscape="http://www.inkscape.org/namespaces/inkscape"
   xmlns:sodipodi="http://sodipodi.sourceforge.net/DTD/sodipodi-0.dtd"
   xmlns="http://www.w3.org/2000/svg"
   xmlns:svg="http://www.w3.org/2000/svg">
  <sodipodi:namedview
     id="namedview1494"
     pagecolor="#ffffff"
     bordercolor="#666666"
     borderopacity="1.0"
     inkscape:pageshadow="2"
     inkscape:pageopacity="0.0"
     inkscape:pagecheckerboard="0"
     inkscape:document-units="mm"
     showgrid="false"
     fit-margin-top="0"
     fit-margin-left="0"
     fit-margin-right="0"
     fit-margin-bottom="0"
     inkscape:zoom="0.64052329"
     inkscape:cx="-77.280562"
     inkscape:cy="237.30597"
     inkscape:window-width="1680"
     inkscape:window-height="981"
     inkscape:window-x="0"
     inkscape:window-y="32"
     inkscape:window-maximized="1"
     inkscape:current-layer="layer1" />
  <defs
     id="defs1489" />
  <g
     inkscape:label="Слой 1"
     inkscape:groupmode="layer"
     id="layer1"
     transform="translate(-58.588945,-85.500856)">
    <path
       d="m 66.229556,93.199172 c -0.167217,0 -0.329142,-0.0254 -0.485775,-0.0762 -0.154517,-0.05292 -0.276225,-0.12065 -0.365125,-0.2032 l 0.117475,-0.24765 c 0.08467,0.0762 0.192616,0.138641 0.32385,0.187325 0.13335,0.04657 0.269875,0.06985 0.409575,0.06985 0.18415,0 0.321733,-0.03069 0.41275,-0.09208 0.09102,-0.0635 0.136525,-0.147109 0.136525,-0.250825 0,-0.0762 -0.0254,-0.137584 -0.0762,-0.18415 -0.04868,-0.04868 -0.110067,-0.08572 -0.18415,-0.111125 -0.07197,-0.0254 -0.174625,-0.05398 -0.307975,-0.08572 -0.167217,-0.04022 -0.302684,-0.08043 -0.4064,-0.12065 -0.1016,-0.04022 -0.189442,-0.1016 -0.263525,-0.18415 -0.07197,-0.08467 -0.10795,-0.197909 -0.10795,-0.339725 0,-0.118534 0.03069,-0.225425 0.09207,-0.320675 0.0635,-0.09525 0.15875,-0.17145 0.28575,-0.2286 0.127,-0.05715 0.284691,-0.08572 0.473075,-0.08572 0.131233,0 0.26035,0.01693 0.38735,0.0508 0.127,0.03387 0.236008,0.08255 0.327025,0.14605 l -0.104775,0.254 c -0.09313,-0.05927 -0.192617,-0.103717 -0.29845,-0.13335 -0.105834,-0.03175 -0.20955,-0.04762 -0.31115,-0.04762 -0.179917,0 -0.315384,0.03281 -0.4064,0.09843 -0.0889,0.06562 -0.13335,0.150283 -0.13335,0.254 0,0.0762 0.0254,0.138641 0.0762,0.187325 0.0508,0.04657 0.113241,0.08361 0.187325,0.111125 0.0762,0.0254 0.178858,0.05292 0.307975,0.08255 0.167216,0.04022 0.301625,0.08043 0.403225,0.12065 0.1016,0.04022 0.188383,0.1016 0.26035,0.18415 0.07408,0.08255 0.111124,0.193675 0.111124,0.333375 0,0.116416 -0.03175,0.223308 -0.09525,0.320675 -0.0635,0.09525 -0.159809,0.17145 -0.288925,0.2286 -0.129117,0.05503 -0.287867,0.08255 -0.47625,0.08255 z m 2.225966,-0.123825 c -0.04445,0.0381 -0.09948,0.06773 -0.1651,0.0889 -0.06562,0.01905 -0.13335,0.02858 -0.2032,0.02858 -0.169334,0 -0.300567,-0.04551 -0.3937,-0.136525 -0.09313,-0.09102 -0.1397,-0.221192 -0.1397,-0.390525 v -0.923925 h -0.28575 v -0.250825 h 0.28575 v -0.3683 h 0.3048 v 0.3683 h 0.4826 v 0.250825 h -0.4826 v 0.911225 c 0,0.09102 0.02223,0.160866 0.06668,0.20955 0.04657,0.04868 0.112183,0.07303 0.19685,0.07303 0.09313,0 0.172508,-0.02646 0.238125,-0.07937 z m 0.981286,-1.6002 c 0.232834,0 0.410634,0.05715 0.5334,0.17145 0.124884,0.1143 0.187325,0.284691 0.187325,0.511175 v 1.016 h -0.288925 v -0.22225 c -0.0508,0.07832 -0.123825,0.138641 -0.219075,0.180975 -0.09313,0.04022 -0.204258,0.06033 -0.333375,0.06033 -0.188383,0 -0.339725,-0.04551 -0.454025,-0.136525 -0.112183,-0.09102 -0.168275,-0.210609 -0.168275,-0.358775 0,-0.148167 0.05397,-0.2667 0.161925,-0.3556 0.10795,-0.09102 0.2794,-0.136525 0.51435,-0.136525 h 0.4826 v -0.06033 c 0,-0.131234 -0.0381,-0.231775 -0.1143,-0.301625 -0.0762,-0.06985 -0.188383,-0.104775 -0.33655,-0.104775 -0.09948,0 -0.19685,0.01693 -0.2921,0.0508 -0.09525,0.03175 -0.175683,0.07514 -0.2413,0.130175 l -0.127,-0.2286 c 0.08678,-0.06985 0.1905,-0.122767 0.31115,-0.15875 0.12065,-0.0381 0.248709,-0.05715 0.384175,-0.05715 z m -0.06985,1.482725 c 0.116417,0 0.216959,-0.0254 0.301625,-0.0762 0.08467,-0.05292 0.14605,-0.127 0.18415,-0.22225 v -0.23495 h -0.4699 c -0.258233,0 -0.38735,0.08678 -0.38735,0.26035 0,0.08467 0.03281,0.151341 0.09843,0.200025 0.06562,0.04868 0.156634,0.07303 0.27305,0.07303 z m 1.64674,-1.184275 c 0.05292,-0.09737 0.131234,-0.17145 0.23495,-0.22225 0.103717,-0.0508 0.229659,-0.0762 0.377825,-0.0762 v 0.295275 c -0.01693,-0.0021 -0.04022,-0.0032 -0.06985,-0.0032 -0.1651,0 -0.295275,0.04974 -0.390525,0.149225 -0.09313,0.09737 -0.1397,0.237066 -0.1397,0.4191 v 0.8382 h -0.3048 v -1.68275 h 0.2921 z m 2.00279,1.30175 c -0.04445,0.0381 -0.09948,0.06773 -0.1651,0.0889 -0.06562,0.01905 -0.13335,0.02858 -0.2032,0.02858 -0.169333,0 -0.300566,-0.04551 -0.3937,-0.136525 -0.09313,-0.09102 -0.1397,-0.221192 -0.1397,-0.390525 v -0.923925 h -0.28575 v -0.250825 h 0.28575 v -0.3683 h 0.3048 v 0.3683 h 0.4826 v 0.250825 h -0.4826 v 0.911225 c 0,0.09102 0.02222,0.160866 0.06667,0.20955 0.04657,0.04868 0.112184,0.07303 0.19685,0.07303 0.09313,0 0.172509,-0.02646 0.238125,-0.07937 z"
       fill="#ffffff"
       id="path18"
       inkscape:export-filename="/home/alexander/hdd-item1/03 projects/hod (ход) academy/верстка/08082022/new-course.png"
       inkscape:export-xdpi="72"
       inkscape:export-ydpi="72"
       style="stroke-width:0.264583" />
    <path
       d="M 58.721236,88.146688 V 86.69148 c 0,-0.584465 0.473843,-1.058333 1.058334,-1.058333 h 1.455208"
       stroke="#ffffff"
       id="path20"
       inkscape:export-filename="/home/alexander/hdd-item1/03 projects/hod (ход) academy/верстка/08082022/new-course.png"
       inkscape:export-xdpi="72"
       inkscape:export-ydpi="72"
       style="stroke-width:0.264583" />
    <path
       d="M 79.623319,88.146688 V 86.69148 c 0,-0.584465 -0.473868,-1.058333 -1.058333,-1.058333 h -1.455208"
       stroke="#ffffff"
       id="path22"
       inkscape:export-filename="/home/alexander/hdd-item1/03 projects/hod (ход) academy/верстка/08082022/new-course.png"
       inkscape:export-xdpi="72"
       inkscape:export-ydpi="72"
       style="stroke-width:0.264583" />
    <path
       d="m 58.721236,96.084188 v 1.455209 c 0,0.584464 0.473843,1.058333 1.058334,1.058333 h 1.455208"
       stroke="#ffffff"
       id="path24"
       inkscape:export-filename="/home/alexander/hdd-item1/03 projects/hod (ход) academy/верстка/08082022/new-course.png"
       inkscape:export-xdpi="72"
       inkscape:export-ydpi="72"
       style="stroke-width:0.264583" />
    <path
       d="m 79.623319,96.084188 v 1.455209 c 0,0.584464 -0.473868,1.058333 -1.058333,1.058333 h -1.455208"
       stroke="#ffffff"
       id="path26"
       inkscape:export-filename="/home/alexander/hdd-item1/03 projects/hod (ход) academy/верстка/08082022/new-course.png"
       inkscape:export-xdpi="72"
       inkscape:export-ydpi="72"
       style="stroke-width:0.264583" />
    <path
       d="m 83.592069,89.985013 h 1.401763 v 1.939396 h 2.116137 v -1.939396 h 1.410759 v 4.968875 h -1.410759 v -1.856316 h -2.116137 v 1.856316 h -1.401763 z"
       stroke="#ffffff"
       id="path30"
       inkscape:export-filename="/home/alexander/hdd-item1/03 projects/hod (ход) academy/верстка/08082022/new-course.png"
       inkscape:export-xdpi="72"
       inkscape:export-ydpi="72"
       style="stroke-width:0.264583" />
    <path
       d="m 92.150282,95.027707 c -0.512234,0 -0.973667,-0.107685 -1.383507,-0.323321 -0.404018,-0.221456 -0.72046,-0.526256 -0.949589,-0.914135 -0.229129,-0.388144 -0.343694,-0.828146 -0.343694,-1.3208 0,-0.492654 0.114565,-0.932921 0.343694,-1.3208 0.229129,-0.387879 0.545571,-0.689504 0.949589,-0.90514 0.40984,-0.221721 0.871273,-0.332581 1.383507,-0.332581 0.512498,0 0.970756,0.11086 1.374775,0.332581 0.404018,0.215636 0.72046,0.517261 0.949589,0.90514 0.229129,0.387879 0.343694,0.828146 0.343694,1.3208 0,0.492654 -0.114565,0.932656 -0.343694,1.3208 -0.229129,0.387879 -0.545571,0.692679 -0.949589,0.914135 -0.404019,0.215636 -0.862277,0.323321 -1.374775,0.323321 z m 0,-1.182158 c 0.36195,0 0.657225,-0.123032 0.886354,-0.369359 0.235214,-0.252412 0.352689,-0.588168 0.352689,-1.006739 0,-0.418836 -0.117475,-0.751152 -0.352689,-0.997479 -0.229129,-0.252413 -0.524404,-0.378619 -0.886354,-0.378619 -0.361686,0 -0.660136,0.126206 -0.895086,0.378619 -0.235214,0.246327 -0.352954,0.578643 -0.352954,0.997479 0,0.418571 0.11774,0.754327 0.352954,1.006739 0.23495,0.246327 0.5334,0.369359 0.895086,0.369359 z"
       stroke="#ffffff"
       id="path32"
       inkscape:export-filename="/home/alexander/hdd-item1/03 projects/hod (ход) academy/верстка/08082022/new-course.png"
       inkscape:export-xdpi="72"
       inkscape:export-ydpi="72"
       style="stroke-width:0.264583" />
    <path
       d="m 99.961311,89.985013 v 4.968875 h -1.257036 v -1.4224 h -1.040077 l -0.922337,1.4224 h -1.501246 l 1.112308,-1.6256 c -0.337608,-0.135466 -0.5969,-0.329406 -0.777875,-0.581818 -0.174625,-0.258498 -0.262202,-0.569648 -0.262202,-0.932921 0,-0.584729 0.205052,-1.034257 0.615156,-1.348317 0.415925,-0.320146 0.985573,-0.480219 1.709209,-0.480219 z m -2.297113,1.172898 c -0.30136,0 -0.530489,0.0553 -0.687123,0.166159 -0.150812,0.11086 -0.226218,0.289454 -0.226218,0.535781 0,0.246327 0.07223,0.427831 0.216958,0.544777 0.150812,0.11086 0.377031,0.166423 0.678392,0.166423 h 1.058068 v -1.41314 z"
       stroke="#ffffff"
       id="path34"
       inkscape:export-filename="/home/alexander/hdd-item1/03 projects/hod (ход) academy/верстка/08082022/new-course.png"
       inkscape:export-xdpi="72"
       inkscape:export-ydpi="72"
       style="stroke-width:0.264583" />
    <path
       d="m 104.12982,90.32659 c 0.46434,0 0.87127,0.09869 1.22079,0.29554 0.34978,0.191029 0.61807,0.461962 0.80513,0.8128 0.19288,0.351102 0.28919,0.757502 0.28919,1.2192 0,0.474133 -0.11457,0.895879 -0.3437,1.265237 -0.22304,0.363273 -0.53657,0.646642 -0.94033,0.849842 -0.40402,0.19685 -0.86227,0.29554 -1.37477,0.29554 -0.85011,0 -1.51924,-0.277019 -2.00766,-0.831321 -0.48234,-0.560388 -0.72337,-1.379273 -0.72337,-2.456656 0,-0.99748 0.21087,-1.791759 0.63288,-2.382838 0.4281,-0.597429 1.08241,-0.988483 1.96242,-1.173162 l 2.31536,-0.470959 0.18998,1.237721 -2.04391,0.415396 c -0.55483,0.11086 -0.96785,0.295804 -1.23904,0.554302 -0.26538,0.258498 -0.42201,0.624946 -0.47017,1.099079 0.21087,-0.233891 0.46408,-0.412485 0.75962,-0.535781 0.29527,-0.129117 0.6178,-0.19394 0.96758,-0.19394 z m -0.3347,3.620559 c 0.36195,0 0.65114,-0.120121 0.86837,-0.360098 0.22304,-0.240242 0.33443,-0.545042 0.33443,-0.9144 0,-0.375709 -0.11139,-0.674423 -0.33443,-0.895879 -0.21723,-0.221721 -0.50642,-0.332582 -0.86837,-0.332582 -0.36777,0 -0.66304,0.110861 -0.88609,0.332582 -0.22304,0.221456 -0.33469,0.52017 -0.33469,0.895879 0,0.375444 0.11456,0.683419 0.34369,0.92366 0.22913,0.233892 0.52149,0.350838 0.87709,0.350838 z"
       stroke="#ffffff"
       id="path36"
       inkscape:export-filename="/home/alexander/hdd-item1/03 projects/hod (ход) academy/верстка/08082022/new-course.png"
       inkscape:export-xdpi="72"
       inkscape:export-ydpi="72"
       style="stroke-width:0.264583" />
    <path
       d="m 110.26921,89.91093 c 0.45218,0 0.86202,0.10795 1.22979,0.323321 0.37385,0.209285 0.66622,0.508 0.87735,0.895879 0.21088,0.381794 0.31645,0.828146 0.31645,1.339321 0,0.51091 -0.10557,0.960437 -0.31645,1.348316 -0.21113,0.381794 -0.5035,0.680509 -0.87735,0.89588 -0.36777,0.20955 -0.77761,0.31406 -1.22979,0.31406 -0.62097,0 -1.1094,-0.200025 -1.46526,-0.60034 v 2.31828 h -1.41076 v -6.760634 h 1.34752 v 0.572559 c 0.34978,-0.431007 0.85911,-0.646642 1.5285,-0.646642 z m -0.24421,3.934619 c 0.36169,0 0.65723,-0.123032 0.88609,-0.369359 0.23522,-0.252412 0.35296,-0.588168 0.35296,-1.006739 0,-0.418836 -0.11774,-0.751152 -0.35296,-0.997479 -0.22886,-0.252413 -0.5244,-0.378619 -0.88609,-0.378619 -0.36168,0 -0.66013,0.126206 -0.89535,0.378619 -0.22913,0.246327 -0.34369,0.578643 -0.34369,0.997479 0,0.418571 0.11456,0.754327 0.34369,1.006739 0.23522,0.246327 0.53367,0.369359 0.89535,0.369359 z"
       stroke="#ffffff"
       id="path38"
       inkscape:export-filename="/home/alexander/hdd-item1/03 projects/hod (ход) academy/верстка/08082022/new-course.png"
       inkscape:export-xdpi="72"
       inkscape:export-ydpi="72"
       style="stroke-width:0.264583" />
    <path
       d="m 116.31335,91.573572 c 0.63289,0.0061 1.1184,0.153987 1.45601,0.443177 0.3376,0.283368 0.50641,0.686593 0.50641,1.209939 0,0.547952 -0.18997,0.976048 -0.56965,1.283759 -0.37386,0.301889 -0.90143,0.452702 -1.58274,0.452702 l -2.44184,-0.0093 v -4.968875 h 1.40177 v 1.588559 z m -0.31644,2.364316 c 0.2712,0.0061 0.47916,-0.05239 0.62389,-0.175418 0.14473,-0.123296 0.21696,-0.307975 0.21696,-0.554303 0,-0.239977 -0.0722,-0.415395 -0.21696,-0.526256 -0.13864,-0.11086 -0.3466,-0.169333 -0.62389,-0.175683 l -0.9136,-0.009 v 1.440656 z"
       stroke="#ffffff"
       id="path40"
       inkscape:export-filename="/home/alexander/hdd-item1/03 projects/hod (ход) academy/верстка/08082022/new-course.png"
       inkscape:export-xdpi="72"
       inkscape:export-ydpi="72"
       style="stroke-width:0.264583" />
    <path
       d="m 126.12278,93.734688 v 1.2192 h -4.78419 V 93.98419 l 2.44183,-2.35532 c 0.2593,-0.252413 0.43419,-0.467784 0.52441,-0.646378 0.0905,-0.184679 0.13573,-0.366447 0.13573,-0.545041 0,-0.258498 -0.0873,-0.455613 -0.2622,-0.591079 -0.16881,-0.141552 -0.4191,-0.212461 -0.75062,-0.212461 -0.27729,0 -0.52758,0.05556 -0.75063,0.166159 -0.22304,0.104775 -0.4101,0.264848 -0.56065,0.480483 l -1.06733,-0.70194 c 0.24739,-0.375708 0.58791,-0.668073 1.02209,-0.877623 0.43391,-0.21537 0.93133,-0.323056 1.49225,-0.323056 0.47016,0 0.88,0.0799 1.22978,0.239977 0.35586,0.153988 0.62997,0.375709 0.82312,0.665163 0.19897,0.283104 0.29845,0.618596 0.29845,1.006739 0,0.350838 -0.0725,0.680244 -0.21722,0.988219 -0.14473,0.30771 -0.42493,0.658813 -0.84111,1.052777 l -1.45601,1.403879 z"
       stroke="#ffffff"
       id="path42"
       inkscape:export-filename="/home/alexander/hdd-item1/03 projects/hod (ход) academy/верстка/08082022/new-course.png"
       inkscape:export-xdpi="72"
       inkscape:export-ydpi="72"
       style="stroke-width:0.264583" />
    <path
       d="m 129.42266,95.064749 c -0.52466,0 -0.99192,-0.132557 -1.40176,-0.39714 -0.4101,-0.264848 -0.73263,-0.646642 -0.96758,-1.145381 -0.22913,-0.504825 -0.34369,-1.105165 -0.34369,-1.801019 0,-0.695589 0.11456,-1.293019 0.34369,-1.791758 0.23495,-0.504825 0.55748,-0.889794 0.96758,-1.154377 0.40984,-0.264848 0.8771,-0.39714 1.40176,-0.39714 0.52441,0 0.99166,0.132292 1.40177,0.39714 0.40984,0.264583 0.72945,0.649552 0.95858,1.154377 0.23522,0.498739 0.35269,1.096169 0.35269,1.791758 0,0.695854 -0.11747,1.296194 -0.35269,1.801019 -0.22913,0.498739 -0.54874,0.880533 -0.95858,1.145381 -0.41011,0.264583 -0.87736,0.39714 -1.40177,0.39714 z m 0,-1.265502 c 0.38577,0 0.68739,-0.169069 0.90435,-0.507736 0.22304,-0.338666 0.3347,-0.862012 0.3347,-1.570302 0,-0.708025 -0.11166,-1.231371 -0.3347,-1.570037 -0.21696,-0.338667 -0.51858,-0.508 -0.90435,-0.508 -0.37994,0 -0.6813,0.169333 -0.90434,0.508 -0.21722,0.338666 -0.3257,0.862012 -0.3257,1.570037 0,0.70829 0.10848,1.231636 0.3257,1.570302 0.22304,0.338667 0.5244,0.507736 0.90434,0.507736 z"
       stroke="#ffffff"
       id="path44"
       inkscape:export-filename="/home/alexander/hdd-item1/03 projects/hod (ход) academy/верстка/08082022/new-course.png"
       inkscape:export-xdpi="72"
       inkscape:export-ydpi="72"
       style="stroke-width:0.264583" />
    <path
       d="m 137.52447,93.734688 v 1.2192 h -4.7842 V 93.98419 l 2.44184,-2.35532 c 0.2593,-0.252413 0.43419,-0.467784 0.52441,-0.646378 0.0905,-0.184679 0.13573,-0.366447 0.13573,-0.545041 0,-0.258498 -0.0873,-0.455613 -0.2622,-0.591079 -0.16881,-0.141552 -0.4191,-0.212461 -0.75063,-0.212461 -0.27728,0 -0.52757,0.05556 -0.75062,0.166159 -0.22304,0.104775 -0.4101,0.264848 -0.56065,0.480483 l -1.06733,-0.70194 c 0.24739,-0.375708 0.5879,-0.668073 1.02209,-0.877623 0.43391,-0.21537 0.93133,-0.323056 1.49225,-0.323056 0.47016,0 0.88026,0.0799 1.22978,0.239977 0.35586,0.153988 0.62997,0.375709 0.82312,0.665163 0.19896,0.283104 0.29845,0.618596 0.29845,1.006739 0,0.350838 -0.0725,0.680244 -0.21722,0.988219 -0.14473,0.30771 -0.42493,0.658813 -0.84112,1.052777 l -1.456,1.403879 z"
       stroke="#ffffff"
       id="path46"
       inkscape:export-filename="/home/alexander/hdd-item1/03 projects/hod (ход) academy/верстка/08082022/new-course.png"
       inkscape:export-xdpi="72"
       inkscape:export-ydpi="72"
       style="stroke-width:0.264583" />
    <path
       d="m 142.85874,93.734688 v 1.2192 h -4.7842 V 93.98419 l 2.44184,-2.35532 c 0.25929,-0.252413 0.43418,-0.467784 0.52467,-0.646378 0.0902,-0.184679 0.13546,-0.366447 0.13546,-0.545041 0,-0.258498 -0.0873,-0.455613 -0.2622,-0.591079 -0.1688,-0.141552 -0.4191,-0.212461 -0.75062,-0.212461 -0.27728,0 -0.52758,0.05556 -0.75062,0.166159 -0.22305,0.104775 -0.40984,0.264848 -0.56066,0.480483 l -1.06706,-0.70194 c 0.24712,-0.375708 0.58764,-0.668073 1.02182,-0.877623 0.43418,-0.21537 0.9316,-0.323056 1.49225,-0.323056 0.47017,0 0.88027,0.0799 1.22978,0.239977 0.35587,0.153988 0.63024,0.375709 0.82312,0.665163 0.19897,0.283104 0.29845,0.618596 0.29845,1.006739 0,0.350838 -0.0725,0.680244 -0.21696,0.988219 -0.14472,0.30771 -0.42518,0.658813 -0.84111,1.052777 l -1.456,1.403879 z"
       stroke="#ffffff"
       id="path48"
       inkscape:export-filename="/home/alexander/hdd-item1/03 projects/hod (ход) academy/верстка/08082022/new-course.png"
       inkscape:export-xdpi="72"
       inkscape:export-ydpi="72"
       style="stroke-width:0.264583" />
  </g>
</svg>
