<svg width="16" height="16" viewBox="0 0 16 16" fill="none" xmlns="http://www.w3.org/2000/svg">
<path d="M15.9157 6.84154C16.1666 8.55569 15.8542 10.3049 15.0256 11.8263C14.197 13.3477 12.8969 14.5591 11.3208 15.2782C9.74475 15.9973 7.9778 16.1854 6.28564 15.8142C4.59348 15.4429 3.06755 14.5324 1.93727 13.2195C0.806979 11.9066 0.133414 10.2623 0.0178311 8.53375C-0.0977517 6.8052 0.350895 5.08584 1.29632 3.63416C2.24175 2.18247 3.63286 1.0769 5.26053 0.483667C6.8882 -0.109569 8.66446 -0.158415 10.3223 0.344473L9.64468 2.57821C8.47058 2.22205 7.2126 2.25665 6.05986 2.67679C4.90711 3.09693 3.9219 3.87991 3.25233 4.90802C2.58276 5.93614 2.26502 7.15382 2.34687 8.37801C2.42873 9.6022 2.90577 10.7667 3.70626 11.6966C4.50675 12.6264 5.58744 13.2712 6.78586 13.5341C7.98428 13.7971 9.23566 13.6639 10.3519 13.1546C11.4681 12.6453 12.3888 11.7874 12.9757 10.7099C13.5625 9.63241 13.7837 8.39355 13.606 7.17956L15.9157 6.84154Z" fill="#00093C"/>
<path fill-rule="evenodd" clip-rule="evenodd" d="M14.8698 1.77191C15.4276 2.30037 15.4514 3.18098 14.923 3.7388L7.67904 11.3852L4.58133 8.28747C4.03799 7.74414 4.03799 6.86321 4.58133 6.31987C5.12467 5.77653 6.0056 5.77653 6.54893 6.31987L7.62514 7.39608L12.9029 1.82507C13.4314 1.26725 14.312 1.24345 14.8698 1.77191Z" fill="#F7941D"/>
</svg>
