<svg width="84" height="59" viewBox="0 0 84 59" fill="none" xmlns="http://www.w3.org/2000/svg">
<path d="M13.6694 58.6436C6.13054 58.6436 0 52.513 0 44.9741C0 37.4352 6.13054 31.3047 13.6694 31.3047C21.2083 31.3047 27.3389 37.4352 27.3389 44.9741C27.3389 52.5544 21.2083 58.6436 13.6694 58.6436Z" fill="white"/>
<path d="M13.6694 58.6436C6.13054 58.6436 0 52.513 0 44.9741C0 37.4352 6.13054 31.3047 13.6694 31.3047C21.2083 31.3047 27.3389 37.4352 27.3389 44.9741C27.3389 52.5544 21.2083 58.6436 13.6694 58.6436Z" fill="white"/>
<path d="M45.9791 1.52069L31.1498 25.7529C30.7356 26.4571 31.1912 27.3269 31.9783 27.3269H46.8075H61.6368C62.4238 27.3269 62.8795 26.4156 62.4652 25.7529L47.636 1.52069C47.2218 0.899353 46.3519 0.899353 45.9791 1.52069Z" fill="white"/>
<path d="M27.049 5.62311L21.7055 0.279602C21.3327 -0.0932007 20.6699 -0.0932007 20.2971 0.279602L14.4151 6.1616C14.0423 6.5344 13.3795 6.5344 13.0067 6.1616L7.12473 0.279602C6.75193 -0.0932007 6.08917 -0.0932007 5.71637 0.279602L0.372864 5.62311C6.10128e-05 5.99591 6.10128e-05 6.65867 0.372864 7.03148L6.25486 12.9135C6.62766 13.2863 6.62766 13.949 6.25486 14.3218L0.372864 20.2038C6.10128e-05 20.5766 6.10128e-05 21.2394 0.372864 21.6122L5.71637 26.9557C6.08917 27.3285 6.75193 27.3285 7.12473 26.9557L13.0067 21.0737C13.3795 20.7009 14.0423 20.7009 14.4151 21.0737L20.2971 26.9557C20.6699 27.3285 21.3327 27.3285 21.7055 26.9557L27.049 21.6122C27.4218 21.2394 27.4218 20.5766 27.049 20.2038L21.167 14.3218C20.7942 13.949 20.7942 13.2863 21.167 12.9135L27.049 7.03148C27.4632 6.65867 27.4632 6.03733 27.049 5.62311Z" fill="white"/>
<path d="M33.7588 40.7481V42.4879H36.7826V43.6891H33.7588V46.0502H32.2676V39.5469H37.1554V40.7481H33.7588Z" fill="white"/>
<path d="M39.1855 45.3875C38.6884 44.8904 38.3984 44.1448 38.3984 43.1921V39.5469H39.8897V43.1092C39.8897 44.269 40.3867 44.849 41.3394 44.849C41.7951 44.849 42.1679 44.7247 42.4164 44.4347C42.665 44.1448 42.7892 43.7306 42.7892 43.1092V39.5469H44.2804V43.1921C44.2804 44.1448 44.0319 44.8904 43.4934 45.3875C42.9963 45.8845 42.2507 46.1745 41.3394 46.1745C40.4281 46.1745 39.6825 45.8845 39.1855 45.3875Z" fill="white"/>
<path d="M47.263 40.7896H45.1919V39.5469H50.8254V40.7896H48.7542V46.0502H47.263V40.7896Z" fill="white"/>
<path d="M52.5234 45.3875C52.0263 44.8904 51.7363 44.1448 51.7363 43.1921V39.5469H53.2275V43.1092C53.2275 44.269 53.7246 44.849 54.6773 44.849C55.133 44.849 55.5058 44.7247 55.7543 44.4347C56.0028 44.1448 56.1271 43.7306 56.1271 43.1092V39.5469H57.6183V43.1921C57.6183 44.1448 57.3698 44.8904 56.8313 45.3875C56.3342 45.8845 55.5886 46.1745 54.6773 46.1745C53.766 46.1745 53.0618 45.8845 52.5234 45.3875Z" fill="white"/>
<path d="M63.5007 46.0518L62.258 44.2292H62.1751H60.8496V46.0518H59.3584V39.5898H62.1751C62.755 39.5898 63.2521 39.6727 63.6663 39.8798C64.0806 40.0869 64.4119 40.3355 64.6605 40.7083C64.8676 41.0396 64.9919 41.4953 64.9919 41.9509C64.9919 42.448 64.8676 42.8622 64.6605 43.1936C64.4119 43.525 64.0806 43.8149 63.6663 43.9806L65.1161 46.0518H63.5007ZM63.1279 41.0811C62.8793 40.8739 62.5479 40.7911 62.0923 40.7911H60.8496V43.0693H62.0923C62.5479 43.0693 62.8793 42.9865 63.1279 42.7794C63.3764 42.5723 63.4592 42.3237 63.4592 41.9509C63.5006 41.5367 63.3764 41.2882 63.1279 41.0811Z" fill="white"/>
<path d="M71.4955 44.849V46.0502H66.4834V39.5469H71.3713V40.7481H67.9746V42.1565H70.957V43.3578H67.9746V44.849H71.4955Z" fill="white"/>
<path d="M36.5348 56.6551H33.511L32.9311 58.0635H31.3984L34.298 51.6016H35.7892L38.6888 58.0635H37.1147L36.5348 56.6551ZM36.0792 55.5367L35.0436 53.0514L34.0081 55.5367H36.0792Z" fill="white"/>
<path d="M40.8428 57.7337C40.3044 57.4438 39.8901 57.0295 39.6002 56.5325C39.3102 56.0354 39.1445 55.4555 39.1445 54.7927C39.1445 54.1714 39.3102 53.5915 39.6002 53.053C39.8901 52.5559 40.3458 52.1417 40.8428 51.8517C41.3813 51.5618 41.9613 51.4375 42.624 51.4375C43.2039 51.4375 43.701 51.5204 44.1566 51.7275C44.6123 51.9346 44.9851 52.2245 45.3165 52.5973L44.3638 53.4672C43.9081 52.9701 43.3696 52.7216 42.7483 52.7216C42.3341 52.7216 42.0027 52.8044 41.6713 52.9701C41.3399 53.1358 41.0914 53.3844 40.9257 53.7157C40.76 54.0471 40.6772 54.3785 40.6772 54.7927C40.6772 55.207 40.76 55.5383 40.9257 55.8697C41.0914 56.2011 41.3399 56.4496 41.6713 56.6153C42.0027 56.781 42.3341 56.8639 42.7483 56.8639C43.411 56.8639 43.9495 56.6153 44.3638 56.0768L45.3165 56.9467C45.0265 57.3195 44.6123 57.6095 44.1566 57.8166C43.701 58.0237 43.2039 58.1065 42.624 58.1065C42.0027 58.148 41.3813 58.0237 40.8428 57.7337Z" fill="white"/>
<path d="M50.7424 56.6551H47.7185L47.1386 58.0635H45.606L48.5055 51.6016H49.9967L52.8963 58.0635H51.3223L50.7424 56.6551ZM50.2867 55.5367L49.2511 53.0514L48.2156 55.5367H50.2867Z" fill="white"/>
<path d="M53.8496 51.5625H56.7906C57.4948 51.5625 58.1161 51.6868 58.6546 51.9767C59.1931 52.2253 59.6073 52.6395 59.8973 53.0951C60.1872 53.5922 60.3529 54.1307 60.3529 54.7935C60.3529 55.4562 60.1872 55.9947 59.8973 56.4918C59.6073 56.9889 59.1931 57.3617 58.6546 57.6102C58.1161 57.8587 57.4948 58.0244 56.7906 58.0244H53.8496V51.5625ZM56.7078 56.8232C57.3705 56.8232 57.8676 56.6575 58.2404 56.2847C58.6132 55.9119 58.8203 55.4148 58.8203 54.8349C58.8203 54.2136 58.6132 53.7165 58.2404 53.3851C57.8676 53.0123 57.3291 52.8466 56.7078 52.8466H55.3408V56.8646H56.7078V56.8232Z" fill="white"/>
<path d="M66.7729 56.8646V58.0658H61.7607V51.5625H66.6486V52.7638H63.252V54.1721H66.2758V55.332H63.252V56.8646H66.7729Z" fill="white"/>
<path d="M74.1462 58.0658V54.1721L72.2407 57.3617H71.578L69.6725 54.255V58.0658H68.2642V51.5625H69.5068L71.9093 55.5805L74.3119 51.5625H75.5545V58.0658H74.1462Z" fill="white"/>
<path d="M80.4838 55.7462V58.0658H78.9926V55.7462L76.4658 51.5625H78.0813L79.8211 54.4621L81.5194 51.5625H83.0106L80.4838 55.7462Z" fill="white"/>
</svg>
