<svg width="248" height="152" viewBox="0 0 248 152" fill="none" xmlns="http://www.w3.org/2000/svg">
<path fill-rule="evenodd" clip-rule="evenodd" d="M36.9999 1C25.9542 1 16.9999 9.9543 16.9999 21V94H3.70146C1.81091 94 0.975796 96.3807 2.45207 97.5617L16.9999 109.2V131C16.9999 142.046 25.9542 151 36.9999 151H227C238.046 151 247 142.046 247 131V21C247 9.95431 238.046 1 227 1H36.9999Z" fill="white"/>
<path d="M16.9999 94V95H17.9999V94H16.9999ZM2.45207 97.5617L3.07677 96.7809H3.07677L2.45207 97.5617ZM16.9999 109.2H17.9999V108.719L17.6246 108.419L16.9999 109.2ZM17.9999 21C17.9999 10.5066 26.5065 2 36.9999 2V0C25.4019 0 15.9999 9.40202 15.9999 21H17.9999ZM17.9999 94V21H15.9999V94H17.9999ZM3.70146 95H16.9999V93H3.70146V95ZM3.07677 96.7809C2.33863 96.1904 2.75618 95 3.70146 95V93C0.865633 93 -0.38704 96.5711 1.82738 98.3426L3.07677 96.7809ZM17.6246 108.419L3.07677 96.7809L1.82738 98.3426L16.3752 109.981L17.6246 108.419ZM17.9999 131V109.2H15.9999V131H17.9999ZM36.9999 150C26.5065 150 17.9999 141.493 17.9999 131H15.9999C15.9999 142.598 25.4019 152 36.9999 152V150ZM227 150H36.9999V152H227V150ZM246 131C246 141.493 237.493 150 227 150V152C238.598 152 248 142.598 248 131H246ZM246 21V131H248V21H246ZM227 2C237.493 2 246 10.5066 246 21H248C248 9.40202 238.598 0 227 0V2ZM36.9999 2H227V0H36.9999V2Z" fill="url(#paint0_linear_5_1078)"/>
<defs>
<linearGradient id="paint0_linear_5_1078" x1="1.69751" y1="76" x2="247" y2="76" gradientUnits="userSpaceOnUse">
<stop stop-color="#F7941D"/>
<stop offset="1" stop-color="#27AAE1"/>
</linearGradient>
</defs>
</svg>
