<svg width="420" height="192" viewBox="0 0 420 192" fill="none" xmlns="http://www.w3.org/2000/svg">
<path fill-rule="evenodd" clip-rule="evenodd" d="M49.894 1C38.8483 1 29.894 9.95431 29.894 21V101H3.21835C1.54134 101 0.608997 102.94 1.65662 104.249L29.894 139.546V171C29.894 182.046 38.8483 191 49.894 191H398.999C410.045 191 418.999 182.046 418.999 171V21C418.999 9.95431 410.045 1 398.999 1H49.894Z" fill="white"/>
<path d="M29.894 101V102H30.894V101H29.894ZM1.65662 104.249L0.875747 104.874H0.875747L1.65662 104.249ZM29.894 139.546H30.894V139.195L30.6749 138.921L29.894 139.546ZM30.894 21C30.894 10.5066 39.4006 2 49.894 2V0C38.296 0 28.894 9.40202 28.894 21H30.894ZM30.894 101V21H28.894V101H30.894ZM29.894 100H3.21835V102H29.894V100ZM3.21835 100C0.70283 100 -0.69568 102.91 0.875747 104.874L2.43748 103.625C1.91367 102.97 2.37985 102 3.21835 102V100ZM0.875747 104.874L29.1131 140.171L30.6749 138.921L2.43748 103.625L0.875747 104.874ZM30.894 171V139.546H28.894V171H30.894ZM49.894 190C39.4006 190 30.894 181.493 30.894 171H28.894C28.894 182.598 38.296 192 49.894 192V190ZM398.999 190H49.894V192H398.999V190ZM417.999 171C417.999 181.493 409.493 190 398.999 190V192C410.597 192 419.999 182.598 419.999 171H417.999ZM417.999 21V171H419.999V21H417.999ZM398.999 2C409.493 2 417.999 10.5066 417.999 21H419.999C419.999 9.40202 410.597 0 398.999 0V2ZM49.894 2H398.999V0H49.894V2Z" fill="url(#paint0_linear_0_106)"/>
<defs>
<linearGradient id="paint0_linear_0_106" x1="1.2146" y1="96" x2="418.999" y2="96" gradientUnits="userSpaceOnUse">
<stop stop-color="#F7941D"/>
<stop offset="1" stop-color="#27AAE1"/>
</linearGradient>
</defs>
</svg>
