<?xml version="1.0" encoding="utf-8"?>
<!-- Generator: Adobe Illustrator 25.2.1, SVG Export Plug-In . SVG Version: 6.00 Build 0)  -->
<svg version="1.1" id="Слой_1" xmlns="http://www.w3.org/2000/svg" xmlns:xlink="http://www.w3.org/1999/xlink" x="0px" y="0px"
	 viewBox="0 0 80.7 53.3" style="enable-background:new 0 0 80.7 53.3;" xml:space="preserve">
<style type="text/css">
	.st0{fill:#9C9C9C;}
	.st1{fill:#6B6966;}
</style>
<path class="st0" d="M69.5,53c7.8-1.7,12.9-9.4,11.3-17.2l-5.3-25.3c-1.2-5.8-6.3-9.9-12.2-9.9L19,0.5c-5.9,0-11,4.1-12.2,9.9
	L1.5,35.8C-0.2,43.6,4.9,51.4,12.8,53c7.9,1.7,15.6-3.4,17.2-11.3l2.3-11c0.1-0.6,0.7-1.1,1.3-1.1l15,0c0.7,0,1.2,0.4,1.3,1.1
	l2.3,11C53.9,49.6,61.6,54.6,69.5,53z"/>
<path class="st1" d="M26.8,24.5c4.6-3,5.9-9.3,2.8-13.9s-9.3-5.9-13.9-2.8c-4.6,3-5.9,9.3-2.8,13.9S22.2,27.5,26.8,24.5z"/>
<path class="st1" d="M62.4,26.1l-4.7,0c-0.7,0-1.2-0.5-1.3-1.2l0-17.5c0-0.7,0.5-1.2,1.2-1.3l4.7,0c0.7,0,1.2,0.5,1.3,1.2l0,17.5
	C63.7,25.6,63.1,26.1,62.4,26.1z"/>
<path class="st1" d="M50.1,18.5l0-4.7c0-0.7,0.5-1.2,1.2-1.3l17.5,0c0.7,0,1.2,0.5,1.3,1.2l0,4.7c0,0.7-0.5,1.2-1.2,1.3l-17.5,0
	C50.6,19.7,50,19.2,50.1,18.5z"/>
</svg>
