<svg width="50" height="51" viewBox="0 0 50 51" fill="none" xmlns="http://www.w3.org/2000/svg">
<path d="M28.422 24.1478C28.5685 24.4408 28.8615 24.5996 29.1667 24.5996C29.2888 24.5996 29.4231 24.5751 29.5452 24.5141C29.594 24.4897 34.5019 21.9991 36.9193 21.2299C37.3588 21.0956 37.603 20.6195 37.4565 20.18C37.3222 19.7405 36.8582 19.4963 36.4065 19.6306C33.8549 20.4364 28.9836 22.9147 28.776 23.0124C28.3853 23.2444 28.2144 23.7449 28.422 24.1478Z" fill="#00093C"/>
<path d="M29.1667 14.6113C29.2888 14.6113 29.4231 14.5869 29.5451 14.5258C29.594 14.5014 34.5019 12.0108 36.9192 11.2417C37.3588 11.1074 37.6029 10.6312 37.4564 10.1917C37.3221 9.75218 36.8582 9.50801 36.4065 9.6423C33.8548 10.4481 28.9835 12.9265 28.776 13.0241C28.3609 13.2317 28.2022 13.7322 28.4097 14.1473C28.5807 14.4403 28.8737 14.6113 29.1667 14.6113Z" fill="#00093C"/>
<path d="M49.1769 12.9404C48.713 12.9404 48.3467 13.3189 48.3467 13.7706V46.2703C48.3467 47.6499 47.2235 48.7731 45.8439 48.7731H25.8338V46.8564C27.0546 46.4291 30.2167 45.4402 33.3299 45.4402C40.5942 45.4402 45.5143 47.0517 45.5631 47.0639C45.8195 47.1494 46.0881 47.1005 46.3079 46.954C46.5276 46.7953 46.6497 46.5512 46.6497 46.2826V9.60742C46.6497 9.21674 46.3811 8.87489 46.0026 8.78943C46.0026 8.78943 45.3434 8.64293 44.2324 8.43538C43.7806 8.34992 43.3411 8.65514 43.2679 9.10686C43.1824 9.55859 43.4876 9.9981 43.9394 10.0836C44.3667 10.1568 44.7207 10.2301 45.0015 10.2911V45.1716C43.1092 44.671 38.9216 43.7798 33.3299 43.7798C29.7039 43.7798 26.1268 44.9762 25.028 45.3791C24.0513 44.9396 21.0845 43.7798 17.4952 43.7798C11.757 43.7798 7.02004 44.732 4.99338 45.2082V10.2545C6.65378 9.83939 11.5739 8.77722 17.4952 8.77722C20.5351 8.77722 23.1356 9.72951 24.1611 10.1568V42.9496C24.1611 43.2548 24.3199 43.5234 24.5885 43.6699C24.8448 43.8164 25.1745 43.8164 25.4309 43.6577C25.5163 43.6088 33.7694 38.6765 41.0947 36.2347C41.4366 36.1249 41.6685 35.8074 41.6685 35.4412V1.26883C41.6685 1.00024 41.5342 0.743855 41.3145 0.585141C41.0947 0.426427 40.8017 0.3898 40.5453 0.48747C33.8793 2.99027 27.1279 7.19008 27.0668 7.22671C26.6762 7.47089 26.5541 7.98365 26.7982 8.37433C27.0424 8.76502 27.5552 8.8871 27.9459 8.64293C28.0069 8.6063 33.8793 4.95588 40.0081 2.48971V34.8429C34.3188 36.8208 28.3732 40.0439 25.8338 41.4967V9.60742C25.8338 9.28999 25.6506 9.00919 25.3698 8.86269C25.2233 8.78943 21.8049 7.10462 17.4952 7.10462C9.96235 7.10462 4.1754 8.72839 3.93122 8.80164C3.57717 8.89931 3.33299 9.22895 3.33299 9.60742V46.2826C3.33299 46.5389 3.45508 46.7953 3.66263 46.9418C3.80914 47.0517 3.98006 47.1128 4.16319 47.1128C4.23644 47.1128 4.3219 47.1005 4.39516 47.0761C4.4562 47.0639 10.2187 45.4402 17.5074 45.4402C20.5596 45.4402 23.16 46.3924 24.1734 46.8197V48.7731H4.16319C2.7836 48.7731 1.66039 47.6499 1.66039 46.2703V13.7706C1.66039 13.3067 1.28192 12.9404 0.830197 12.9404C0.366263 12.9404 0 13.3189 0 13.7706V46.2703C0 48.5656 1.86794 50.4335 4.16319 50.4335H45.8317C48.127 50.4335 49.9949 48.5656 49.9949 46.2703V13.7706C50.0071 13.3189 49.6286 12.9404 49.1769 12.9404Z" fill="#00093C"/>
<path d="M28.422 19.1556C28.5685 19.4487 28.8615 19.6074 29.1667 19.6074C29.2888 19.6074 29.4231 19.5829 29.5452 19.5219C29.594 19.4975 34.5019 17.0069 36.9193 16.2377C37.3588 16.1035 37.603 15.6273 37.4565 15.1878C37.3222 14.7483 36.8582 14.5041 36.4065 14.6384C33.8549 15.4442 28.9836 17.9226 28.776 18.0202C28.3853 18.24 28.2144 18.7405 28.422 19.1556Z" fill="#00093C"/>
<path d="M28.422 29.1517C28.5685 29.4447 28.8615 29.6035 29.1667 29.6035C29.2888 29.6035 29.4231 29.579 29.5452 29.518C29.594 29.4936 34.5019 27.003 36.9193 26.2338C37.3588 26.0995 37.603 25.6234 37.4565 25.1839C37.3222 24.7444 36.8582 24.5002 36.4065 24.6345C33.8549 25.4403 28.9836 27.9187 28.776 28.0163C28.3853 28.2361 28.2144 28.7366 28.422 29.1517Z" fill="#00093C"/>
<path d="M20.1933 15.9072C15.0412 14.6985 9.19323 16.2368 8.94906 16.2979C8.50954 16.4199 8.24095 16.8717 8.36304 17.3234C8.46071 17.6897 8.80256 17.946 9.16882 17.946C9.24207 17.946 9.31532 17.9338 9.38858 17.9216C9.44962 17.9094 15.0779 16.4199 19.8149 17.5432C20.2666 17.653 20.7061 17.3722 20.816 16.9205C20.9259 16.4566 20.6451 16.0048 20.1933 15.9072Z" fill="#00093C"/>
<path d="M20.1933 20.8992C15.0412 19.6905 9.1932 21.2288 8.94903 21.302C8.50951 21.4241 8.24092 21.8759 8.36301 22.3276C8.46068 22.6938 8.80253 22.9502 9.16879 22.9502C9.24204 22.9502 9.31529 22.938 9.38855 22.9258C9.44959 22.9136 15.0778 21.4241 19.8148 22.5473C20.2666 22.6572 20.7061 22.3764 20.816 21.9247C20.9258 21.4608 20.645 21.009 20.1933 20.8992Z" fill="#00093C"/>
<path d="M28.422 34.1595C28.5685 34.4526 28.8615 34.6113 29.1667 34.6113C29.2888 34.6113 29.4231 34.5869 29.5452 34.5258C29.594 34.5014 34.5019 32.0108 36.9193 31.2417C37.3588 31.1074 37.603 30.6312 37.4565 30.1917C37.3222 29.7522 36.8582 29.508 36.4065 29.6423C33.8549 30.4481 28.9836 32.9265 28.776 33.0241C28.3853 33.2439 28.2144 33.7444 28.422 34.1595Z" fill="#00093C"/>
<path d="M20.1933 25.907C15.0412 24.6983 9.1932 26.2366 8.94903 26.3099C8.50951 26.4319 8.24092 26.8837 8.36301 27.3354C8.46068 27.7139 8.80253 27.958 9.16879 27.958C9.24204 27.958 9.31529 27.9458 9.38855 27.9336C9.44959 27.9214 15.0778 26.4319 19.8148 27.5552C20.2666 27.665 20.7061 27.3842 20.816 26.9325C20.9258 26.4564 20.645 26.0168 20.1933 25.907Z" fill="#00093C"/>
<path d="M20.1933 35.9033C15.0412 34.6947 9.1932 36.233 8.94903 36.294C8.50951 36.4161 8.24092 36.8678 8.36301 37.3195C8.46068 37.698 8.80253 37.9422 9.16879 37.9422C9.24204 37.9422 9.31529 37.93 9.38855 37.9178C9.44959 37.9056 15.0778 36.4161 19.8148 37.5393C20.2666 37.637 20.7061 37.3684 20.816 36.9167C20.9258 36.4649 20.645 36.0132 20.1933 35.9033Z" fill="#00093C"/>
<path d="M20.1933 30.9109C15.0412 29.7022 9.1932 31.2405 8.94903 31.3138C8.50951 31.4359 8.24092 31.8876 8.36301 32.3393C8.46068 32.7178 8.80253 32.9619 9.16879 32.9619C9.24204 32.9619 9.31529 32.9497 9.38855 32.9375C9.44959 32.9253 15.0778 31.4359 19.8148 32.5591C20.2666 32.6689 20.7061 32.3881 20.816 31.9364C20.9258 31.4603 20.645 31.0085 20.1933 30.9109Z" fill="#00093C"/>
</svg>
