<svg width="57" height="47" viewBox="0 0 57 47" fill="none" xmlns="http://www.w3.org/2000/svg">
<path d="M53.6174 3.34807H51.2617V1.11092C51.2617 0.651638 50.8914 0.28125 50.4321 0.28125H45.4096C44.9503 0.28125 44.5799 0.651638 44.5799 1.11092V3.34807H17.0378V1.11092C17.0378 0.651638 16.6674 0.28125 16.2081 0.28125H11.1856C10.7263 0.28125 10.3559 0.651638 10.3559 1.11092V3.34807H8.41508C6.38535 3.34807 4.726 5.00742 4.726 7.03715V27.3197C4.726 27.779 5.09639 28.1494 5.55568 28.1494C6.01496 28.1494 6.38535 27.779 6.38535 27.3197V7.03715C6.38535 5.92598 7.2891 5.00742 8.41508 5.00742H53.6322C54.5212 5.00742 55.2471 5.73338 55.2471 6.62232V34.1793C55.2471 35.0682 54.5212 35.7942 53.6322 35.7942H51.8544V32.6385C51.8544 32.1792 51.484 31.8088 51.0247 31.8088H42.0761C41.6168 31.8088 41.2464 32.1792 41.2464 32.6385V35.7942H27.8531L31.0088 34.9349C32.6386 34.4904 34.0757 33.557 35.1424 32.2533L40.5056 25.7344C40.6093 25.6011 40.6834 25.4381 40.6982 25.2751L41.1723 19.0526C41.2168 18.4452 40.8464 17.8377 40.2834 17.6007C40.5353 17.4525 40.713 17.1858 40.713 16.8747C40.713 16.4154 40.3427 16.045 39.8834 16.045H36.2387C35.7795 16.045 35.4091 16.4154 35.4091 16.8747C35.4091 17.334 35.7795 17.7044 36.2387 17.7044H38.9648C38.8759 17.7636 38.787 17.8377 38.7129 17.9118L35.6609 20.9638C35.0683 21.5564 34.5794 22.2972 34.0608 22.9491C33.7794 23.3047 33.8238 23.838 34.1942 24.1195C34.5498 24.401 35.0831 24.3566 35.3646 23.9862L36.3276 22.8009L38.787 25.2603L33.9127 31.2014C33.0534 32.2385 31.9274 32.9792 30.6236 33.3348L17.4674 37.1276C16.4451 37.4535 16.9637 39.0388 17.9711 38.7129L20.8602 37.7795V44.7576H19.7046C19.2453 44.7576 18.8749 45.128 18.8749 45.5873C18.8749 46.0466 19.2453 46.417 19.7046 46.417H24.8011C25.2604 46.417 25.6308 46.0466 25.6308 45.5873C25.6308 45.128 25.2604 44.7576 24.8011 44.7576H22.5343V37.4684H53.6619C55.4694 37.4684 56.9361 36.0016 56.9361 34.1941V6.63713C56.8917 4.81482 55.4249 3.34807 53.6174 3.34807ZM46.2244 1.94059H49.5876V3.33326H46.2244V1.94059ZM12.0005 1.94059H15.3636V3.33326H12.0005V1.94059ZM39.4685 19.4674L39.1722 23.3195L37.3944 21.5416L39.4685 19.4674ZM42.8761 35.7942V33.4681H50.1654V35.7942H42.8761Z" fill="#00093C"/>
<path d="M15.6749 44.7559H4.97803V40.3261C4.97803 37.5111 5.62992 34.711 6.85961 32.1923C7.54113 30.8145 8.96342 29.9255 10.5042 29.9255H24.5494C27.4829 29.9255 30.3423 28.8885 32.5943 27.0069C32.9498 26.7106 32.9943 26.192 32.698 25.8364C32.4017 25.4809 31.8831 25.4364 31.5275 25.7327C29.5719 27.3625 27.0977 28.2662 24.5642 28.2662H18.5195C19.4529 27.2884 20.0307 25.9698 20.0307 24.5179V21.451C22.1789 21.3029 23.8679 19.525 23.8679 17.3471C23.8679 15.0803 22.0159 13.2284 19.7492 13.2284C18.3565 13.1988 17.0379 13.5247 16.0749 14.5766C15.6008 15.0952 14.9193 15.3915 14.223 15.3915H11.9265C10.0153 15.3915 8.4597 16.9471 8.4597 18.8583V25.1105C8.4597 25.8216 8.62267 26.518 9.05232 27.0958C9.24492 27.3624 9.48197 27.5847 9.74865 27.7625C10.045 27.9551 10.4598 28.0292 10.6968 28.2662C8.4597 28.2218 6.34107 29.4514 5.36324 31.4664C4.01502 34.2221 3.30387 37.2741 3.30387 40.3409V44.7708H0.829673C0.37039 44.7708 0 45.1411 0 45.6004C0 46.0597 0.37039 46.4301 0.829673 46.4301H15.6749C16.1342 46.4301 16.5046 46.0597 16.5046 45.6004C16.5194 45.1263 16.1342 44.7559 15.6749 44.7559ZM14.3711 28.2366C13.9118 28.2069 13.4525 28.0884 13.0377 27.8958C13.2303 27.7921 13.4229 27.6736 13.5859 27.5402C14.2822 26.9624 14.6674 26.1179 14.6674 25.1549V21.451H18.3565V24.503C18.3565 26.5624 16.6823 28.2514 14.6082 28.2514C14.5193 28.2514 14.4452 28.2514 14.3711 28.2366ZM10.1339 25.0957V18.8435C10.1339 17.8509 10.9487 17.036 11.9414 17.036H14.223C15.3934 17.036 16.5046 16.5471 17.3046 15.6878C17.9565 14.9766 18.8454 14.8433 19.764 14.8729C21.1122 14.8729 22.2085 15.9693 22.2085 17.3175C22.2085 18.6657 21.1122 19.7621 19.764 19.7621H13.8377C13.3785 19.7621 13.0081 20.1324 13.0081 20.5917V25.1401C13.0081 26.1179 12.1488 26.7254 11.2154 26.5476C10.4746 26.4291 10.1339 25.8216 10.1339 25.0957Z" fill="#00093C"/>
<path d="M28.5347 13.0074H33.0683C33.5275 13.0074 33.8979 12.637 33.8979 12.1777V9.11092C33.8979 8.65164 33.5275 8.28125 33.0683 8.28125H28.5347C28.0754 8.28125 27.705 8.65164 27.705 9.11092V12.1777C27.6902 12.637 28.0606 13.0074 28.5347 13.0074ZM29.3644 9.94059H32.2386V11.3333H29.3644V9.94059Z" fill="#00093C"/>
<path d="M27.6899 18.3848C27.6899 18.8441 28.0603 19.2145 28.5196 19.2145H33.0532C33.5125 19.2145 33.8829 18.8441 33.8829 18.3848V15.318C33.8829 14.8587 33.5125 14.4883 33.0532 14.4883H28.5196C28.0603 14.4883 27.6899 14.8587 27.6899 15.318V18.3848ZM29.3641 16.1624H32.2383V17.5551H29.3641V16.1624Z" fill="#00093C"/>
<path d="M36.2091 11.4679H50.995C51.4543 11.4679 51.8247 11.0975 51.8247 10.6383C51.8247 10.179 51.4543 9.80859 50.995 9.80859H36.2091C35.7498 9.80859 35.3794 10.179 35.3794 10.6383C35.3794 11.0975 35.7498 11.4679 36.2091 11.4679Z" fill="#00093C"/>
</svg>
