<svg width="41" height="56" viewBox="0 0 41 56" fill="none" xmlns="http://www.w3.org/2000/svg">
<path d="M3.34283 55.9455H25.6853C26.1345 55.9455 26.4984 55.5816 26.4984 55.1324C26.4984 54.6832 26.1345 54.3193 25.6853 54.3193H9.06083V46.8693C9.06083 46.4201 8.69677 46.0561 8.24772 46.0561C7.79867 46.0561 7.43461 46.4201 7.43461 46.8693V54.3194H3.34261C2.06777 54.3194 1.4691 53.7726 1.65362 52.3997C3.87861 41.5275 3.88338 40.6503 4.24722 39.7593C4.31064 39.6705 4.66126 38.4159 6.38028 37.6862C6.55797 37.6134 6.44717 37.6622 7.05841 37.4759C7.09614 37.4651 6.90977 37.5284 9.82992 36.5145L11.7776 40.1099C11.9915 40.5048 12.4848 40.6517 12.8798 40.4376C13.2747 40.2237 13.4214 39.7302 13.2075 39.3353L11.3865 35.9737L12.6318 35.5411C13.2321 36.6493 18.5471 46.4605 19.1248 47.5269C19.4814 48.1874 20.3893 48.2203 20.8075 47.6436C20.8833 47.5392 20.4504 48.3163 27.3625 35.5375L28.6075 35.9699L22.0251 48.1458C21.1574 49.7509 18.8504 49.751 17.9816 48.1476L15.0151 42.6713C14.801 42.2765 14.3078 42.1295 13.9128 42.3437C13.518 42.5577 13.3713 43.0511 13.5852 43.446L16.5518 48.9223C18.0357 51.661 21.9748 51.6585 23.4557 48.9193L30.1638 36.5106C33.0775 37.5222 32.9066 37.4644 32.9443 37.4753C33.5175 37.6499 33.4538 37.6163 33.6226 37.6854C34.2443 37.9502 34.6154 38.2558 34.6046 38.2478C35.2422 38.762 35.6818 39.3561 35.9167 40.2309C35.9552 40.3697 38.3691 52.3378 38.3789 52.7416C38.4031 53.7625 37.9623 54.3194 36.6626 54.3194H32.5704V46.8693C32.5704 46.4201 32.2065 46.0561 31.7573 46.0561C31.3081 46.0561 30.9442 46.4201 30.9442 46.8693V54.3194H29.4796C29.0305 54.3194 28.6665 54.6833 28.6665 55.1325C28.6665 55.5817 29.0305 55.9456 29.4796 55.9456H36.6624C38.5887 55.9456 39.7987 54.9671 39.9822 53.2617C40.0265 52.8548 40.0005 52.3551 39.9509 52.1058C37.4779 39.6879 37.5848 40.2166 37.5727 40.1656C37.2484 38.5959 36.3366 37.2927 34.8585 36.4762C34.1671 36.0934 33.7685 36.0338 33.4199 35.9199L27.3443 33.8097L25.3194 32.4209V30.8456C28.2804 29.0866 30.1656 26.0571 30.5102 22.7789C32.9846 22.8936 34.7091 20.5287 33.6717 18.4582V11.8298C33.6717 7.03636 31.0647 5.36873 30.2682 4.97128C26.3709 0.319002 19.0937 -0.874207 13.5769 1.9566L13.5663 1.96192C13.4717 2.01753 12.3346 2.54356 10.9347 3.71422C10.595 4.00802 10.5578 4.52147 10.8515 4.86114C11.1457 5.20123 11.6593 5.23755 11.9984 4.94429C17.4014 0.407577 25.4208 1.57336 29.1281 6.14465C29.2194 6.25708 29.3305 6.34002 29.4662 6.39076C29.5716 6.43304 32.0456 7.47425 32.0456 11.8299V16.9616C31.5945 16.7706 31.0999 16.6727 30.5728 16.6874V14.0279C30.5728 13.3532 30.0645 12.7957 29.3906 12.7306C28.0243 12.5987 27.2585 11.7084 26.8567 10.9849C26.3539 10.0793 25.1536 9.86241 24.3665 10.535C20.741 13.634 16.5666 13.7915 13.7031 13.3785C11.5402 13.0663 9.52842 14.5395 9.17835 16.6885C8.65189 16.6657 8.13171 16.759 7.6535 16.9615C7.65664 14.1621 7.33368 11.1163 9.62317 7.62614C9.86884 7.25016 9.76314 6.74636 9.38715 6.50069C9.01128 6.25491 8.50737 6.3604 8.2617 6.7366C5.14587 11.511 6.2607 15.789 6.02717 18.4583C4.99029 20.528 6.71257 22.8938 9.18854 22.7789C9.59271 26.6399 11.9711 28.861 12.0276 28.9577L12.0277 28.9578C12.4499 29.3625 13.208 30.2079 14.6858 31.0224V32.4207L12.6612 33.8094C4.73726 36.562 5.54147 36.2279 4.89771 36.6213C3.68097 37.3707 2.83762 38.517 2.48614 39.9283C2.41686 40.2073 2.53189 39.6802 0.0542908 52.1057C0.00442008 52.3567 -0.0218162 52.8459 0.022959 53.2608C0.206396 54.967 1.41652 55.9455 3.34283 55.9455ZM21.408 32.2333C21.8653 32.1668 22.3575 32.0579 22.6455 31.9766C22.7139 31.9544 23.1065 31.8605 23.6931 31.6347V32.536L20.0025 36.6426L16.3118 32.5359V31.7473C18.009 32.3367 19.7691 32.4723 21.408 32.2333ZM23.4394 39.3745C23.2281 39.2193 21.4617 37.9219 21.2072 37.7349L24.6323 33.9235L25.91 34.8046C25.0895 36.3222 23.9719 38.3894 23.4394 39.3745ZM22.1435 41.7716L21.9425 41.1534L22.2508 40.5188L22.6587 40.8184L22.1435 41.7716ZM17.3419 40.8219L17.7543 40.5191L18.0625 41.1538L17.8596 41.7777L17.3419 40.8219ZM18.7979 37.7349C18.6001 37.8801 16.7599 39.2317 16.5656 39.3745L14.0952 34.8046L15.3728 33.9235L18.7979 37.7349ZM19.0867 39.5403L20.0025 38.8677L20.9182 39.5403L20.5589 40.2802H19.4461L19.0867 39.5403ZM20.0022 45.7326L18.9283 43.7502L19.5278 41.9064H20.4775L21.076 43.7469C20.7354 44.3761 20.4194 44.9606 20.0022 45.7326ZM32.3493 19.734C32.3493 20.5802 31.501 21.2031 30.5724 21.154V18.314C31.51 18.2644 32.3493 18.896 32.3493 19.734ZM29.2341 14.349C29.2336 14.349 29.2331 14.349 29.2327 14.3489C29.2331 14.349 29.2335 14.349 29.2341 14.349ZM13.4705 14.9878C16.6666 15.4491 21.3347 15.2656 25.4226 11.7709L25.4347 11.7741C26.22 13.1883 27.4592 14.0811 28.9462 14.3127V17.1921L28.0184 17.7397C27.6364 17.1892 27.0006 16.8273 26.2814 16.8273H22.5605C21.6829 16.8273 20.929 17.3651 20.6097 18.1283H19.0888C18.7696 17.3651 18.0155 16.8273 17.1379 16.8273H13.417C12.6977 16.8273 12.062 17.1892 11.68 17.7397L10.7564 17.1945C10.8364 15.8045 12.0929 14.7887 13.4705 14.9878ZM22.0727 18.9414C22.0727 18.6769 22.2962 18.4535 22.5606 18.4535H26.2815C26.5459 18.4535 26.7694 18.6769 26.7694 18.9414V20.5606C26.7694 21.266 26.1955 21.8398 25.4902 21.8398H23.3517C22.6465 21.8398 22.0726 21.266 22.0726 20.5606V18.9414H22.0727ZM17.6257 18.9414V20.5606C17.6257 21.266 17.052 21.8398 16.3466 21.8398H14.2081C13.5028 21.8398 12.9291 21.266 12.9291 20.5606V18.9414C12.9291 18.6769 13.1525 18.4535 13.4169 18.4535H17.1378C17.4022 18.4535 17.6257 18.6769 17.6257 18.9414ZM7.34907 19.734C7.34907 18.8878 8.19741 18.2649 9.12598 18.314V21.154C8.18852 21.2035 7.34907 20.5718 7.34907 19.734ZM12.945 27.5461C10.3134 24.4788 10.8207 21.5006 10.7522 19.0806L11.3031 19.4057V20.5607C11.3031 22.1627 12.6063 23.466 14.2082 23.466H16.3467C17.9486 23.466 19.2519 22.1628 19.2519 20.5607V19.7545H20.4467V20.5607C20.4467 22.1627 21.75 23.466 23.3519 23.466H25.4904C27.0923 23.466 28.3957 22.1628 28.3957 20.5607V19.4057L28.9465 19.0806V21.623C28.9465 26.4591 25.1189 30.6611 19.8495 30.7191C19.8385 30.719 19.729 30.7182 19.7399 30.7183C18.3343 30.7041 17.2541 30.3439 17.3634 30.3745C15.7679 29.9319 14.2463 29.0183 12.945 27.5461Z" fill="#00093C"/>
</svg>
