<svg width="60" height="61" viewBox="0 0 60 61" fill="none" xmlns="http://www.w3.org/2000/svg">
<path d="M11.6131 6.23828C8.40341 6.23828 5.80664 8.83506 5.80664 12.0447C5.80664 15.2544 8.40341 17.8512 11.6131 17.8512C14.8228 17.8512 17.4195 15.2544 17.4195 12.0447C17.4195 8.83506 14.8228 6.23828 11.6131 6.23828ZM11.6131 15.9157C9.48406 15.9157 7.74212 14.1738 7.74212 12.0447C7.74212 9.9157 9.48406 8.17377 11.6131 8.17377C13.7421 8.17377 15.4841 9.9157 15.4841 12.0447C15.4841 14.1738 13.7421 15.9157 11.6131 15.9157Z" fill="#00093C"/>
<path d="M30.9677 11.0781H29.0322V13.0136H30.9677V11.0781Z" fill="#00093C"/>
<path d="M38.7098 11.0781H32.9033V13.0136H38.7098V11.0781Z" fill="#00093C"/>
<path d="M38.7096 14.9492H29.0322V16.8847H38.7096V14.9492Z" fill="#00093C"/>
<path d="M11.613 46.8867H3.87109V52.6932H11.613V46.8867ZM9.67754 50.7577H5.80658V48.8222H9.67754V50.7577Z" fill="#00093C"/>
<path d="M19.3548 46.8867H13.5483V48.8222H19.3548V46.8867Z" fill="#00093C"/>
<path d="M19.3548 50.7578H13.5483V52.6933H19.3548V50.7578Z" fill="#00093C"/>
<path d="M19.355 54.6289H3.87109V56.5644H19.355V54.6289Z" fill="#00093C"/>
<path d="M57.0968 33.3368H41.6129C40.0161 33.3368 38.7097 34.6433 38.7097 36.24V43.0142H34.8387V34.1594C36.5 33.7239 37.7419 32.2239 37.7419 30.4336C37.7419 28.6433 36.5 27.1271 34.8387 26.7078V20.7562H39.6774C41.2742 20.7562 42.5806 19.4497 42.5806 17.8529V13.0142H46.5323C47 15.7562 49.3871 17.8529 52.2581 17.8529C55.4677 17.8529 58.0645 15.2562 58.0645 12.0465C58.0645 11.0465 57.8064 10.0949 57.3548 9.2723L59.7097 6.91746L58.3387 5.5465L56.1452 7.74005C55.1129 6.80456 53.7419 6.22391 52.2581 6.22391C49.3871 6.22391 47 8.32069 46.5323 11.0626H42.5806V6.22391C42.5806 4.62714 41.2742 3.32069 39.6774 3.32069H28.0645C26.4677 3.32069 25.1613 4.62714 25.1613 6.22391V11.0626H23.2258V9.35295L20.6774 8.6594C20.5968 8.43359 20.5 8.22391 20.4032 7.99811L21.7097 5.70779L17.9355 1.93359L15.6452 3.24004C15.4194 3.14327 15.2097 3.0465 14.9839 2.96585L14.2903 0.433594H8.93548L8.24194 2.98198C8.01613 3.06263 7.80645 3.1594 7.58065 3.25617L5.29032 1.94972L1.51613 5.72392L2.82258 8.01424C2.72581 8.24004 2.62903 8.44972 2.54839 8.67553L0 9.36908V14.7239L2.54839 15.4175C2.62903 15.6433 2.72581 15.8529 2.82258 16.0788L1.51613 18.3691L5.29032 22.1433L7.58065 20.8368C7.80645 20.9336 8.01613 21.0304 8.24194 21.111L8.93548 23.6433H10.6452V39.1271H2.90323C1.30645 39.1271 0 40.4336 0 42.0304V57.5142C0 59.111 1.30645 60.4175 2.90323 60.4175H20.3226C21.9194 60.4175 23.2258 59.111 23.2258 57.5142V42.0304C23.2258 40.4336 21.9194 39.1271 20.3226 39.1271H12.5806V23.6433H14.2903L14.9839 21.0949C15.2097 21.0142 15.4194 20.9175 15.6452 20.8207L17.9355 22.1271L21.7258 18.3529L20.4194 16.0626C20.5161 15.8368 20.6129 15.6271 20.6935 15.4013L23.2258 14.7078V12.9981H25.1613V17.8368C25.1613 19.4336 26.4677 20.74 28.0645 20.74H32.9032V26.6917C31.2419 27.1271 30 28.6271 30 30.4175C30 32.2239 31.2419 33.7239 32.9032 34.1433V44.9336H38.7097V51.7078C38.7097 53.3046 40.0161 54.611 41.6129 54.611H57.0968C58.6935 54.611 60 53.3046 60 51.7078V36.2239C60 34.6271 58.6935 33.3368 57.0968 33.3368ZM52.2581 8.17553C53.2258 8.17553 54.0968 8.5465 54.7742 9.12714L52.2581 11.6433L51 10.3852L49.629 11.7562L52.2419 14.3691L55.871 10.74C56.0161 11.1433 56.1129 11.5788 56.1129 12.0304C56.1129 14.1594 54.371 15.9013 52.2419 15.9013C50.1129 15.9013 48.371 14.1594 48.371 12.0304C48.371 9.90133 50.129 8.17553 52.2581 8.17553ZM20.3226 58.4981H2.90323C2.37097 58.4981 1.93548 58.0626 1.93548 57.5304V44.9497H21.2903V57.5304C21.2903 58.0626 20.8548 58.4981 20.3226 58.4981ZM21.2903 42.0465V43.0142H1.93548V42.0465C1.93548 41.5142 2.37097 41.0787 2.90323 41.0787H20.3226C20.8548 41.0787 21.2903 41.5142 21.2903 42.0465ZM21.2903 13.24L19.1613 13.8207L19 14.3207C18.8548 14.7723 18.6774 15.2078 18.4516 15.6433L18.2097 16.111L19.3065 18.0304L17.6129 19.74L15.6935 18.6433L15.2258 18.8852C14.7903 19.111 14.3387 19.3046 13.9032 19.4336L13.4032 19.5949L12.8226 21.7078H10.4355L9.85484 19.5788L9.35484 19.4175C8.90323 19.2723 8.46774 19.0949 8.03226 18.8691L7.56452 18.6271L5.64516 19.7239L3.95161 18.0304L5.04839 16.111L4.80645 15.6433C4.58064 15.2078 4.3871 14.7562 4.25806 14.3207L4.09677 13.8207L1.98387 13.24V10.8529L4.1129 10.2723L4.27419 9.7723C4.41935 9.32069 4.59677 8.88521 4.82258 8.44972L5.06452 7.98198L3.96774 6.06262L5.66129 4.36908L7.58065 5.46585L8.04839 5.22392C8.48387 4.99811 8.93548 4.80456 9.37097 4.67553L9.87097 4.51424L10.4516 2.38521H12.8387L13.4194 4.51424L13.9194 4.67553C14.371 4.82069 14.8065 4.99811 15.2419 5.22392L15.7097 5.46585L17.629 4.36908L19.3226 6.06262L18.2258 7.98198L18.4677 8.44972C18.6935 8.88521 18.8871 9.33682 19.0161 9.7723L19.1774 10.2723L21.3065 10.8529L21.2903 13.24ZM28.0645 5.2723H39.6774C40.2097 5.2723 40.6452 5.70779 40.6452 6.24004V7.20779H27.0968V6.24004C27.0968 5.70779 27.5323 5.2723 28.0645 5.2723ZM27.0968 17.8529V9.14327H40.6452V17.8529C40.6452 18.3852 40.2097 18.8207 39.6774 18.8207H28.0645C27.5323 18.8207 27.0968 18.3852 27.0968 17.8529ZM31.9355 30.4336C31.9355 29.3691 32.8064 28.4981 33.871 28.4981C34.9355 28.4981 35.8064 29.3691 35.8064 30.4336C35.8064 31.4981 34.9355 32.3691 33.871 32.3691C32.8064 32.3691 31.9355 31.4981 31.9355 30.4336ZM41.6129 35.2723H57.0968C57.629 35.2723 58.0645 35.7078 58.0645 36.24V37.2078H40.6452V36.24C40.6452 35.7078 41.0806 35.2723 41.6129 35.2723ZM57.0968 52.6917H41.6129C41.0806 52.6917 40.6452 52.2562 40.6452 51.7239V39.1433H58.0645V51.7239C58.0645 52.2562 57.629 52.6917 57.0968 52.6917Z" fill="#00093C"/>
<path d="M48.387 41.0781H42.5806V46.8846H48.387V41.0781ZM46.4515 44.9491H44.5161V43.0136H46.4515V44.9491Z" fill="#00093C"/>
<path d="M56.1292 41.0781H50.3228V43.0136H56.1292V41.0781Z" fill="#00093C"/>
<path d="M56.1292 44.9492H50.3228V46.8847H56.1292V44.9492Z" fill="#00093C"/>
<path d="M56.129 48.8203H42.5806V50.7558H56.129V48.8203Z" fill="#00093C"/>
</svg>
