<svg width="352" height="160" viewBox="0 0 352 160" fill="none" xmlns="http://www.w3.org/2000/svg">
<path fill-rule="evenodd" clip-rule="evenodd" d="M21 1C9.95431 1 1 9.9543 1 21V111C1 122.046 9.9543 131 21 131H141V156.839C141 158.516 142.94 159.448 144.249 158.4L178.5 131H331C342.046 131 351 122.046 351 111V21C351 9.95431 342.046 1 331 1H21Z" fill="white"/>
<path d="M141 131H142V130H141V131ZM144.249 158.4L143.625 157.62L144.249 158.4ZM178.5 131V130H178.149L177.875 130.219L178.5 131ZM2 21C2 10.5066 10.5066 2 21 2V0C9.40202 0 0 9.40202 0 21H2ZM2 111V21H0V111H2ZM21 130C10.5066 130 2 121.493 2 111H0C0 122.598 9.40202 132 21 132V130ZM141 130H21V132H141V130ZM140 131V156.839H142V131H140ZM140 156.839C140 159.354 142.91 160.753 144.874 159.181L143.625 157.62C142.97 158.143 142 157.677 142 156.839H140ZM144.874 159.181L179.125 131.781L177.875 130.219L143.625 157.62L144.874 159.181ZM331 130H178.5V132H331V130ZM350 111C350 121.493 341.493 130 331 130V132C342.598 132 352 122.598 352 111H350ZM350 21V111H352V21H350ZM331 2C341.493 2 350 10.5066 350 21H352C352 9.40202 342.598 0 331 0V2ZM21 2H331V0H21V2Z" fill="url(#paint0_linear_0_79)"/>
<defs>
<linearGradient id="paint0_linear_0_79" x1="1" y1="79.9212" x2="351" y2="79.9212" gradientUnits="userSpaceOnUse">
<stop stop-color="#F7941D"/>
<stop offset="1" stop-color="#27AAE1"/>
</linearGradient>
</defs>
</svg>
