<svg width="20" height="15" viewBox="0 0 20 15" fill="none" xmlns="http://www.w3.org/2000/svg">
<path d="M19.3008 3.10156C19.0898 2.25781 18.4219 1.58984 17.6133 1.37891C16.1016 0.957031 10.125 0.957031 10.125 0.957031C10.125 0.957031 4.11328 0.957031 2.60156 1.37891C1.79297 1.58984 1.125 2.25781 0.914062 3.10156C0.492188 4.57812 0.492188 7.74219 0.492188 7.74219C0.492188 7.74219 0.492188 10.8711 0.914062 12.3828C1.125 13.2266 1.79297 13.8594 2.60156 14.0703C4.11328 14.457 10.125 14.457 10.125 14.457C10.125 14.457 16.1016 14.457 17.6133 14.0703C18.4219 13.8594 19.0898 13.2266 19.3008 12.3828C19.7227 10.8711 19.7227 7.74219 19.7227 7.74219C19.7227 7.74219 19.7227 4.57812 19.3008 3.10156ZM8.15625 10.5898V4.89453L13.1484 7.74219L8.15625 10.5898Z" fill="white"/>
</svg>
