<svg width="116" height="31" viewBox="0 0 116 31" fill="none" xmlns="http://www.w3.org/2000/svg">
<path d="M7.60656 0.5H108.393C112.318 0.5 115.5 3.68171 115.5 7.60656V22.8197C115.5 26.7445 112.318 29.9262 108.393 29.9262H7.60656C3.68171 29.9262 0.5 26.7445 0.5 22.8197V7.60656C0.5 3.68171 3.68171 0.5 7.60656 0.5Z" stroke="white"/>
<path fill-rule="evenodd" clip-rule="evenodd" d="M64.568 7.60547C64.5309 10.5657 64.3289 12.2295 63.2188 13.3398C62.1087 14.4501 60.4453 14.6521 57.4854 14.6889V15.1266C60.4453 15.1634 62.1087 15.3654 63.2188 16.4757C64.3289 17.586 64.5309 19.2498 64.568 22.2101H65.0054C65.0425 19.2498 65.2445 17.586 66.3546 16.4757C67.4647 15.3654 69.1281 15.1633 72.0885 15.1266V14.6889C69.1281 14.6521 67.4647 14.4501 66.3546 13.3398C65.2445 12.2295 65.0425 10.5657 65.0054 7.60547H64.568Z" fill="white"/>
<path d="M14.9035 20.3867H16.8176V9.39062H14.0333C11.2332 9.39062 9.7619 10.8304 9.7619 12.9505C9.7619 14.6434 10.5687 15.6402 12.0084 16.6686L9.50879 20.3867H11.5812L14.3656 16.2255L13.4005 15.5769C12.2298 14.7858 11.6603 14.1687 11.6603 12.8397C11.6603 11.6689 12.483 10.8778 14.0491 10.8778H14.9035V20.3867ZM51.8117 20.5449C52.6817 20.5449 53.2988 20.3867 53.7576 20.0544V18.5197C53.2831 18.8519 52.7136 19.0577 51.9225 19.0577C50.5775 19.0577 50.0242 18.0134 50.0242 16.368C50.0242 14.6434 50.7045 13.7574 51.9382 13.7574C52.666 13.7574 53.3777 14.0105 53.7576 14.2478V12.6499C53.362 12.4284 52.666 12.2701 51.7328 12.2701C49.3282 12.2701 48.0783 13.9947 48.0783 16.4154C48.0783 19.0734 49.2963 20.5449 51.8117 20.5449ZM40.0416 19.8487V18.314C39.4562 18.7096 38.4754 19.0577 37.5578 19.0577C36.1815 19.0577 35.6594 18.409 35.5803 17.08H40.1207V16.0832C40.1207 13.3144 38.9025 12.2701 37.0199 12.2701C34.726 12.2701 33.6344 14.0263 33.6344 16.4313C33.6344 19.2 34.9949 20.5449 37.3996 20.5449C38.6019 20.5449 39.4878 20.2284 40.0416 19.8487ZM22.7977 12.4284V15.5769H20.2823V12.4284H18.3997V20.3867H20.2823V17.0641H22.7977V20.3867H24.6803V12.4284H22.7977ZM33.1756 18.8994H32.3372V12.4284H26.8476V13.1087C26.8476 15.0548 26.721 17.5704 26.0566 18.8994H25.4712V22.2062H27.2115V20.3867H31.4354V22.2062H33.1756V18.8994ZM46.0532 20.3867H48.1891L45.1672 16.099L47.8249 12.4284H45.9266L43.2688 16.099V12.4284H41.3863V20.3867H43.2688V16.4787L46.0532 20.3867ZM36.9883 13.7574C37.9217 13.7574 38.2064 14.5327 38.2064 15.5294V15.6876H35.5803C35.6278 14.4219 36.0865 13.7574 36.9883 13.7574ZM30.4546 18.8994H27.7968C28.3189 17.697 28.4612 15.5294 28.4612 14.1529V13.9156H30.4546V18.8994Z" fill="white"/>
<path d="M77.1186 22.6769V20.3828H83.0037V22.6769H84.7917V18.8955H83.7634V9.38672H77.0397L76.85 14.8452C76.7868 16.6172 76.5966 18.057 76.0903 18.8955H75.3311V22.6769H77.1186ZM78.5268 15.0983L78.6689 10.8739H81.8489V18.8955H77.894C78.2263 18.1519 78.4635 16.8703 78.5268 15.0983Z" fill="white"/>
<path d="M88.0033 19.057C87.0382 19.057 86.0893 18.7089 85.583 18.3292V19.8639C85.9467 20.1645 86.8642 20.5442 88.2249 20.5442C90.2339 20.5442 91.2941 19.6424 91.2941 18.0444C91.2941 17.1109 90.7089 16.478 89.6644 16.2566C90.6457 15.9401 91.0569 15.244 91.0569 14.358C91.0569 13.0131 89.9967 12.2695 88.2881 12.2695C87.0544 12.2695 86.2476 12.6492 85.7889 12.934V14.4687C86.2947 14.1365 86.9912 13.7568 88.0195 13.7568C88.7155 13.7568 89.1586 14.089 89.1586 14.6744C89.1586 15.2914 88.7787 15.6237 88.0033 15.6237H86.8172V17.0476H88.0033C88.9684 17.0476 89.3483 17.3325 89.3483 18.0286C89.3483 18.6615 88.8895 19.057 88.0033 19.057Z" fill="white"/>
<path d="M98.4178 19.8481V18.3134C97.8321 18.7089 96.8514 19.057 95.9338 19.057C94.5575 19.057 94.0355 18.4083 93.9566 17.0793H98.4968V16.0825C98.4968 13.3137 97.2788 12.2695 95.3961 12.2695C93.1023 12.2695 92.0107 14.0257 92.0107 16.4306C92.0107 19.1994 93.3709 20.5442 95.776 20.5442C96.9783 20.5442 97.864 20.2278 98.4178 19.8481ZM95.3643 13.7568C96.298 13.7568 96.5828 14.532 96.5828 15.5288V15.687H93.9566C94.0041 14.4212 94.4629 13.7568 95.3643 13.7568Z" fill="white"/>
<path d="M104.156 12.4258V15.5743H101.64V12.4258H99.7578V20.384H101.64V17.0615H104.156V20.384H106.038V12.4258H104.156Z" fill="white"/>
</svg>
