<svg width="230" height="230" viewBox="0 0 230 230" fill="none" xmlns="http://www.w3.org/2000/svg">
<path d="M226.71 58.5693L226.691 58.5869L226.672 58.6055L177.056 108.222C173.521 111.757 173.521 117.981 177.056 121.516L226.672 171.132C229.426 173.887 229.426 178.844 226.672 181.598L181.598 226.672C178.844 229.426 173.887 229.426 171.133 226.672L121.516 177.056C117.981 173.521 111.757 173.521 108.222 177.056L58.6054 226.672C55.8512 229.426 50.8939 229.426 48.1397 226.672L3.06563 181.598C0.311455 178.844 0.311455 173.887 3.06563 171.132L52.682 121.516C56.2172 117.981 56.2172 111.757 52.682 108.222L3.06563 58.6055C0.311455 55.8513 0.311456 50.8938 3.06563 48.1397L48.1397 3.06563C50.8939 0.311455 55.8512 0.311455 58.6054 3.06563L108.222 52.682C111.757 56.2173 117.981 56.2173 121.516 52.682L171.133 3.06563C173.887 0.311456 178.844 0.311456 181.598 3.06563L226.672 48.1397C229.798 51.2651 229.741 55.8415 226.71 58.5693Z" fill="white" stroke="url(#paint0_linear_6457_3765)" stroke-width="2"/>
<defs>
<linearGradient id="paint0_linear_6457_3765" x1="0" y1="114.869" x2="230" y2="114.869" gradientUnits="userSpaceOnUse">
<stop stop-color="#F7941D"/>
<stop offset="1" stop-color="#27AAE1"/>
</linearGradient>
</defs>
</svg>
