<svg width="54" height="54" viewBox="0 0 54 54" fill="none" xmlns="http://www.w3.org/2000/svg">
<path d="M52.7153 13.1985L52.6958 13.2161L52.6772 13.2347L41.0281 24.8971C39.8998 26.0267 39.8998 27.9733 41.0281 29.1029L52.6772 40.7653C53.0256 41.114 53.0256 41.7955 52.6772 42.1443L42.0946 52.7389C41.7469 53.087 41.0681 53.087 40.7204 52.7389L29.0713 41.0766C27.9424 39.9464 25.9961 39.9464 24.8671 41.0766L13.218 52.7389C12.8703 53.087 12.1916 53.087 11.8439 52.7389L1.26125 42.1443C0.912918 41.7955 0.912915 41.114 1.26125 40.7653L12.9103 29.1029C14.0386 27.9733 14.0386 26.0267 12.9103 24.8971L1.26125 13.2347L0.561029 13.9342L1.26125 13.2347C0.912916 12.886 0.912916 12.2045 1.26125 11.8558L11.8439 1.26108C12.1916 0.912975 12.8703 0.912975 13.218 1.26108L13.9176 0.56232L13.218 1.26108L24.8671 12.9234C25.9961 14.0537 27.9424 14.0537 29.0713 12.9234L40.7204 1.26108C41.0681 0.912974 41.7469 0.912974 42.0946 1.26108L52.6772 11.8557C53.1294 12.3085 53.0731 12.8762 52.7153 13.1985Z" stroke="url(#paint0_linear_188_5988)" stroke-width="2"/>
<defs>
<linearGradient id="paint0_linear_188_5988" x1="0" y1="27" x2="54" y2="27" gradientUnits="userSpaceOnUse">
<stop stop-color="#F7941D"/>
<stop offset="1" stop-color="#27AAE1"/>
</linearGradient>
</defs>
</svg>
