<svg width="45" height="33" viewBox="0 0 45 33" fill="none" xmlns="http://www.w3.org/2000/svg">
<path fill-rule="evenodd" clip-rule="evenodd" d="M3.82758 19.4018L5.82454 16.2399C6.15737 15.7407 6.65663 15.5743 7.82154 15.4078H16.3087V16.7391H7.82154H7.82142C7.65505 16.7391 7.48869 16.7391 7.48869 16.9055L5.49174 20.0675C5.15891 20.5667 4.49326 20.8995 3.99401 20.8995C3.32835 20.8995 2.82906 20.5667 2.49623 20.0675L0.332851 16.7391L0.33273 16.7389C0.166355 16.4062 0 16.0734 0 15.7407V2.59384C0 1.76176 0.665661 0.929688 1.66415 0.929688H25.1287C25.9608 0.929688 26.7929 1.59535 26.7929 2.59384V10.9146H25.4616V2.59384C25.4616 2.26101 25.1287 2.09462 24.9623 2.09462H1.49778C1.16495 2.09462 0.998502 2.42743 0.998502 2.59384V15.9071V16.0734L3.16193 19.4018C3.16193 19.5682 3.49473 19.5682 3.49473 19.5682C3.49473 19.5682 3.66117 19.5682 3.82758 19.4018ZM6.49156 10.9127C5.32665 10.9127 4.32812 9.91422 4.32812 8.74932C4.32812 7.58441 5.32665 6.58594 6.49156 6.58594C7.65646 6.58594 8.65493 7.58441 8.65493 8.74932C8.65493 9.91422 7.65646 10.9127 6.49156 10.9127ZM6.49156 9.74777C6.9908 9.74777 7.49001 9.24856 7.49001 8.74932C7.49001 8.25007 6.9908 7.75076 6.49156 7.75076C5.99231 7.75076 5.49305 8.25007 5.49305 8.74932C5.49305 9.24856 5.99231 9.74777 6.49156 9.74777ZM11.3154 8.74932C11.3154 9.91422 12.3139 10.9127 13.4788 10.9127C14.6437 10.9127 15.6422 9.91422 15.6422 8.74932C15.6422 7.58441 14.6437 6.58594 13.4788 6.58594C12.3139 6.58594 11.3154 7.58441 11.3154 8.74932ZM14.4773 8.74932C14.4773 9.24856 13.9781 9.74777 13.4788 9.74777C12.9796 9.74777 12.4803 9.24856 12.4803 8.74932C12.4803 8.25007 12.9796 7.75076 13.4788 7.75076C13.9781 7.75076 14.4773 8.25007 14.4773 8.74932ZM20.136 10.9127C18.9711 10.9127 17.9727 9.91422 17.9727 8.74932C17.9727 7.58441 18.9711 6.58594 20.136 6.58594C21.3009 6.58594 22.2995 7.58441 22.2995 8.74932C22.2995 9.91422 21.3009 10.9127 20.136 10.9127ZM20.136 9.74777C20.6353 9.74777 21.1345 9.24856 21.1345 8.74932C21.1345 8.25007 20.6353 7.75076 20.136 7.75076C19.6368 7.75076 19.1375 8.25007 19.1375 8.74932C19.1375 9.24856 19.6368 9.74777 20.136 9.74777ZM42.4373 12.0781H18.9727C17.9743 12.0781 17.3086 12.9102 17.3086 13.7423V26.2234C17.3086 27.2219 18.1407 27.8876 18.9727 27.8876H36.4464H36.4465C36.6129 27.8876 36.7792 27.8876 36.7792 28.054L38.7762 31.2159C39.109 31.7151 39.6082 32.048 40.1075 32.048C40.6067 32.048 41.2724 31.7151 41.6052 31.2159L43.7686 27.8876C43.935 27.5548 44.1014 27.2219 44.1014 27.0555V13.9087C44.2678 12.9102 43.4358 12.0781 42.4373 12.0781ZM42.9366 27.0555V27.2219L40.7731 30.5502C40.6067 30.7166 40.4403 30.7167 40.4403 30.7167C40.4403 30.7167 40.1075 30.7166 40.1075 30.5502L38.1105 27.3884C37.7777 26.8891 37.2784 26.5563 36.6127 26.5563H19.1391C18.9727 26.5563 18.6399 26.3898 18.6399 26.057V13.5758C18.6399 13.4094 18.8063 13.0766 19.1391 13.0766H42.6037C42.7701 13.0766 43.103 13.243 43.103 13.5758V27.0555H42.9366ZM35.1143 19.9057C35.1143 18.7408 36.1128 17.7422 37.2777 17.7422C38.4426 17.7422 39.4411 18.7408 39.4411 19.9057C39.4411 21.0706 38.4426 22.069 37.2777 22.069C36.1128 22.069 35.1143 21.0706 35.1143 19.9057ZM36.2792 19.9057C36.2792 20.4049 36.7784 20.9041 37.2777 20.9041C37.7769 20.9041 38.2761 20.4049 38.2761 19.9057C38.2761 19.4064 37.7769 18.9071 37.2777 18.9071C36.7784 18.9071 36.2792 19.4064 36.2792 19.9057ZM30.2874 17.7422C29.1225 17.7422 28.124 18.7408 28.124 19.9057C28.124 21.0706 29.1225 22.069 30.2874 22.069C31.4523 22.069 32.4508 21.0706 32.4508 19.9057C32.4508 18.7408 31.4523 17.7422 30.2874 17.7422ZM30.2874 20.9041C29.7882 20.9041 29.2889 20.4049 29.2889 19.9057C29.2889 19.4064 29.7882 18.9071 30.2874 18.9071C30.7866 18.9071 31.2859 19.4064 31.2859 19.9057C31.2859 20.4049 30.7866 20.9041 30.2874 20.9041ZM21.4678 19.9057C21.4678 18.7408 22.4662 17.7422 23.6312 17.7422C24.7961 17.7422 25.7945 18.7408 25.7945 19.9057C25.7945 21.0706 24.7961 22.069 23.6312 22.069C22.4662 22.069 21.4678 21.0706 21.4678 19.9057ZM22.6327 19.9057C22.6327 20.4049 23.1319 20.9041 23.6312 20.9041C24.1304 20.9041 24.6297 20.4049 24.6297 19.9057C24.6297 19.4064 24.1304 18.9071 23.6312 18.9071C23.1319 18.9071 22.6327 19.4064 22.6327 19.9057Z" fill="url(#paint0_linear_5_972)"/>
<defs>
<linearGradient id="paint0_linear_5_972" x1="0" y1="16.4888" x2="44.1227" y2="16.4888" gradientUnits="userSpaceOnUse">
<stop stop-color="#F7941D"/>
<stop offset="1" stop-color="#27AAE1"/>
</linearGradient>
</defs>
</svg>
