<svg width="48" height="32" viewBox="0 0 48 32" fill="none" xmlns="http://www.w3.org/2000/svg">
<path fill-rule="evenodd" clip-rule="evenodd" d="M9.48535 15.7242C9.48535 7.23701 16.3084 0.414062 24.7956 0.414062C33.2828 0.414062 40.1058 7.23701 40.1058 15.7242C40.1058 24.2114 33.2828 31.0344 24.7956 31.0344C16.3084 31.0344 9.48535 24.2114 9.48535 15.7242ZM10.8167 15.7242C10.8167 23.3793 16.9741 29.7031 24.7956 29.7031C32.4507 29.7031 38.7745 23.3793 38.7745 15.7242C38.7745 8.06909 32.4507 1.74537 24.7956 1.74537C17.1405 1.74537 10.8167 8.06909 10.8167 15.7242ZM14.6465 15.7294C14.6465 10.0713 19.3061 5.57812 24.7978 5.57812C30.2895 5.57812 34.9492 10.0713 34.9492 15.7294C34.9492 21.3875 30.456 25.8808 24.7978 25.8808C19.1397 25.8808 14.6465 21.3875 14.6465 15.7294ZM15.9778 15.563C15.9778 20.3891 19.9718 24.383 24.7978 24.383C29.6239 24.383 33.6178 20.5555 33.6178 15.563C33.6178 10.737 29.6239 6.74305 24.7978 6.74305C19.9718 6.74305 15.9778 10.737 15.9778 15.563ZM47.097 5.24059C46.7642 5.24059 46.4313 5.57346 46.4313 5.9063V9.73383C46.4313 10.5659 45.9321 11.2316 45.2664 11.398V6.90475C45.2664 6.57192 44.9336 6.23915 44.6008 6.23915C44.2679 6.23915 43.9351 6.57192 43.9351 6.90475V11.398C43.103 11.2316 42.6038 10.3995 42.6038 9.56745V5.73982C42.6038 5.40699 42.2709 5.07422 41.9381 5.07422C41.6053 5.07422 41.2725 5.40699 41.2725 5.73982V9.56745C41.2725 11.0652 42.4374 12.3965 43.9351 12.7293V28.2059C43.9351 28.5387 44.2679 28.8716 44.6008 28.8716C44.9336 28.8716 45.2664 28.5387 45.2664 28.2059V12.5629C46.5977 12.2301 47.7626 11.0652 47.7626 9.56745V5.73982C47.7626 5.40699 47.5962 5.24059 47.097 5.24059ZM0 8.9018C0 6.40557 1.49775 4.24219 3.49473 4.24219C5.49172 4.24219 7.15585 6.23915 7.32227 8.9018C7.32227 11.2316 5.99096 13.2286 4.32681 13.5614V13.7279V28.3724C4.32681 28.7052 3.99394 29.038 3.66111 29.038C3.32828 29.038 2.99546 28.7052 2.99546 28.3724V13.7279V13.5614C1.3313 13.2286 0 11.2316 0 8.9018ZM1.16488 8.9018C1.16488 10.7324 2.16341 12.3965 3.49473 12.3965C4.82606 12.3965 5.82454 10.7324 5.82454 8.9018C5.82454 7.07123 4.82606 5.40712 3.49473 5.40712C2.16341 5.40712 1.16488 7.07123 1.16488 8.9018Z" fill="url(#paint0_linear_5_951)"/>
<defs>
<linearGradient id="paint0_linear_5_951" x1="0" y1="15.7242" x2="47.7626" y2="15.7242" gradientUnits="userSpaceOnUse">
<stop stop-color="#F7941D"/>
<stop offset="1" stop-color="#27AAE1"/>
</linearGradient>
</defs>
</svg>
