<svg width="38" height="26" viewBox="0 0 38 26" fill="none" xmlns="http://www.w3.org/2000/svg">
<path d="M36.3111 16.3178V8.13802C36.3111 7.63722 35.9733 7.30333 35.6356 6.96946L18.5778 0.125201C18.24 -0.0417335 17.9022 -0.0417335 17.7333 0.125201L0.675597 6.96946C0.16893 7.1364 0 7.63722 0 8.13802C0 8.63882 0.337819 8.97271 0.675597 9.30658L5.91111 11.3098V23.6629L6.08001 23.8298C6.2489 23.9968 8.27557 26 17.9022 26C27.8667 26 30.0623 24.1637 30.2312 23.8298L30.4 23.6629V11.4767L35.1289 9.64042V16.4847C34.2845 16.8186 33.6089 17.4864 33.6089 18.488C33.6089 19.6565 34.6222 20.6581 35.8045 20.6581C36.9867 20.6581 38 19.6565 38 18.488C37.8311 17.3194 37.1556 16.6517 36.3111 16.3178ZM18.0711 1.46065L35.1289 8.13802L18.24 14.9823L7.26225 10.642L1.35114 8.30497L18.0711 1.46065ZM29.0489 23.329C28.3734 23.6629 25.6711 24.9984 17.9022 24.9984C10.3022 24.9984 7.76891 23.8299 7.09335 23.496V12.1444L17.5645 16.3178C17.7334 16.3178 17.9022 16.4847 18.0711 16.4847C18.24 16.4847 18.4089 16.4847 18.5778 16.3178L29.0489 12.1444V23.329ZM35.6356 19.1557C35.1289 19.1557 34.7911 18.8218 34.7911 18.321C34.7911 17.8202 35.1289 17.4863 35.6356 17.4863C36.1422 17.4863 36.48 17.8202 36.48 18.321C36.48 18.8218 36.1422 19.1557 35.6356 19.1557Z" fill="url(#paint0_linear_5_948)"/>
<defs>
<linearGradient id="paint0_linear_5_948" x1="0" y1="13" x2="38" y2="13" gradientUnits="userSpaceOnUse">
<stop stop-color="#F7941D"/>
<stop offset="1" stop-color="#27AAE1"/>
</linearGradient>
</defs>
</svg>
