<svg width="30" height="30" viewBox="0 0 30 30" fill="none" xmlns="http://www.w3.org/2000/svg">
<path fill-rule="evenodd" clip-rule="evenodd" d="M0 14.8148C0 6.66046 6.6566 0.00390625 14.811 0.00390625C22.9653 0.00390625 29.6219 6.66046 29.6219 14.8148C29.6219 22.9692 22.9653 29.6258 14.811 29.6258C6.6566 29.6258 0 22.9692 0 14.8148ZM1.3313 14.8148C1.3313 22.3035 7.32227 28.2945 14.811 28.2945C22.2996 28.2945 28.2906 22.3035 28.2906 14.8148C28.2906 7.32612 22.2996 1.33521 14.811 1.33521C7.32227 1.33521 1.3313 7.32612 1.3313 14.8148ZM9.65305 7.82812C10.9844 7.82812 11.9829 8.82666 11.9829 10.158C11.9829 11.4893 10.9844 12.4878 9.65305 12.4878C8.32172 12.4878 7.32324 11.4893 7.32324 10.158C7.32324 8.82666 8.32172 7.82812 9.65305 7.82812ZM9.65305 9.15953C9.1538 9.15953 8.6546 9.65873 8.6546 10.158C8.6546 10.8236 9.1538 11.1564 9.65305 11.1564C10.1523 11.1564 10.6515 10.6572 10.6515 10.158C10.6515 9.65873 10.1523 9.15953 9.65305 9.15953ZM19.9685 7.99219C18.6372 7.99219 17.6387 8.99062 17.6387 10.3219C17.6387 11.6533 18.6372 12.6518 19.9685 12.6518C21.2998 12.6518 22.2983 11.6533 22.2983 10.3219C22.2983 8.99062 21.1334 7.99219 19.9685 7.99219ZM19.9685 11.3205C19.4692 11.3205 18.97 10.8212 18.97 10.3219C18.97 9.8227 19.4692 9.32349 19.9685 9.32349C20.4677 9.32349 20.967 9.8227 20.967 10.3219C20.967 10.8212 20.4677 11.3205 19.9685 11.3205ZM14.8108 21.1445C17.4734 21.1445 20.1361 19.4804 20.1361 19.4804C20.3025 19.314 20.8018 19.4804 20.9682 19.6469C21.1346 19.9797 21.1346 20.3125 20.8018 20.4789C20.77 20.4789 20.6414 20.5455 20.4332 20.6533C19.55 21.1107 17.2349 22.3095 14.8108 22.3095C12.3867 22.3095 10.2895 21.1107 9.48951 20.6533C9.30094 20.5455 9.18443 20.4789 9.15269 20.4789C8.81985 20.3125 8.81984 19.9797 8.98626 19.6469C9.15268 19.314 9.48551 19.314 9.81834 19.4804C9.81834 19.6468 12.1482 21.1445 14.8108 21.1445Z" fill="url(#paint0_linear_5_962)"/>
<defs>
<linearGradient id="paint0_linear_5_962" x1="0" y1="14.8149" x2="29.6219" y2="14.8149" gradientUnits="userSpaceOnUse">
<stop stop-color="#F7941D"/>
<stop offset="1" stop-color="#27AAE1"/>
</linearGradient>
</defs>
</svg>
