<svg width="44" height="26" viewBox="0 0 44 26" fill="none" xmlns="http://www.w3.org/2000/svg">
<path d="M40.869 4.529C40.2125 4.529 39.3918 4.86453 38.8994 5.20001V4.19355C38.8994 1.84516 37.0939 0 34.7961 0H33.8113C31.5135 0 29.708 1.84516 29.708 4.19355V8.05159H14.2795V4.19355C14.2795 1.84516 12.474 0 10.1762 0H9.19144C6.89358 0 5.08812 1.84516 5.08812 4.19355V5.20001C4.59572 4.69678 3.93917 4.529 3.11851 4.529C1.31305 4.529 0 6.03872 0 7.71614V17.6129C0 19.4581 1.47718 20.8 3.11851 20.8C3.77504 20.8 4.59572 20.4645 5.08812 20.129V21.8065C5.08812 24.1548 6.89358 26 9.19144 26H10.1762C12.474 26 14.2795 24.1548 14.2795 21.8065V17.1096H29.708V21.8065C29.708 24.1548 31.5135 26 33.8113 26H34.7961C37.0939 26 38.8994 24.1548 38.8994 21.8065V20.129C39.3918 20.6323 40.0483 20.8 40.869 20.8C42.6745 20.8 43.9875 19.2903 43.9875 17.6129V7.71614C44.1517 6.03872 42.6745 4.529 40.869 4.529ZM2.79022 19.6258C1.6413 19.6258 0.820663 18.7871 0.820663 17.6129V7.71614C0.820663 6.54195 1.6413 5.70322 2.79022 5.70322C3.93915 5.70322 4.75984 6.54195 4.75984 7.71614V17.6129C4.75984 18.7871 3.93915 19.6258 2.79022 19.6258ZM12.9665 21.8065C12.9665 23.4839 11.6534 24.8258 10.0121 24.8258H9.02729C7.38597 24.8258 6.07288 23.4839 6.07288 21.8065V17.6129V7.71614V4.19355C6.07288 2.51613 7.38597 1.17416 9.02729 1.17416H10.0121C11.6534 1.17416 12.9665 2.51613 12.9665 4.19355V8.05159V17.1096V21.8065ZM14.1154 15.9355V9.39356H29.5439V15.9355H14.1154ZM37.7505 21.8065C37.7505 23.4839 36.4374 24.8258 34.7961 24.8258H33.8113C32.17 24.8258 30.8569 23.4839 30.8569 21.8065V17.1096V8.05159V4.19355C30.8569 2.51613 32.17 1.17416 33.8113 1.17416H34.7961C36.4374 1.17416 37.7505 2.51613 37.7505 4.19355V7.71614V17.6129V21.8065ZM42.8386 17.6129C42.8386 18.7871 42.0179 19.6258 40.869 19.6258C39.7201 19.6258 38.8994 18.7871 38.8994 17.6129V7.71614C38.8994 6.54195 39.7201 5.70322 40.869 5.70322C42.0179 5.70322 42.8386 6.54195 42.8386 7.71614V17.6129Z" fill="url(#paint0_linear_5_946)"/>
<defs>
<linearGradient id="paint0_linear_5_946" x1="0" y1="13" x2="44" y2="13" gradientUnits="userSpaceOnUse">
<stop stop-color="#F7941D"/>
<stop offset="1" stop-color="#27AAE1"/>
</linearGradient>
</defs>
</svg>
