<svg width="25" height="30" viewBox="0 0 25 30" fill="none" xmlns="http://www.w3.org/2000/svg">
<path fill-rule="evenodd" clip-rule="evenodd" d="M6.65589 8.88404C6.32305 8.88404 5.99023 8.55122 5.99023 8.21839C5.99023 7.48891 6.37394 7.14317 6.5807 6.95686L6.5807 6.95686L6.58071 6.95685C6.60979 6.93065 6.63537 6.9076 6.65589 6.88708C6.98872 6.72067 6.98874 6.55422 6.98874 6.38781C6.98874 6.22143 6.82238 6.05508 6.65601 5.8887L6.65589 5.88858C6.32305 5.72217 5.99023 5.22289 5.99023 4.55723C5.99023 3.89158 6.32305 3.55877 6.65587 3.22594L6.65589 3.22592C6.98872 3.05951 6.98874 2.89311 6.98874 2.7267C6.98874 2.56028 6.8223 2.39384 6.65589 2.22742C6.32305 2.06101 5.99023 1.56178 5.99023 0.89612C5.99023 0.563289 6.32305 0.230469 6.65589 0.230469C6.98872 0.230469 7.32154 0.563289 7.32154 0.89612C7.32154 1.06249 7.48789 1.22885 7.65426 1.39522L7.65439 1.39535C7.98722 1.56176 8.32004 2.06104 8.32004 2.7267C8.32004 3.39235 7.98723 3.72516 7.6544 4.05799L7.65439 4.058C7.32156 4.22442 7.32154 4.39081 7.32154 4.55723C7.32154 4.72364 7.48797 4.89009 7.65439 5.0565C7.98722 5.22292 8.32004 5.72215 8.32004 6.38781C8.32004 7.05347 7.98722 7.38633 7.65439 7.71916C7.32156 7.88558 7.32154 8.05197 7.32154 8.21839C7.32154 8.55122 6.98872 8.88404 6.65589 8.88404ZM20.8019 12.5509H19.6369V10.8867H0.832031V16.3785C0.832031 21.5374 4.99243 25.6977 10.1513 25.6977C13.8124 25.6977 16.9743 23.5344 18.4721 20.5389H20.6354C22.7988 20.5389 24.6294 18.7083 24.6294 16.5449C24.6294 14.3815 22.9653 12.5509 20.8019 12.5509ZM10.1513 24.5328C5.65809 24.5328 1.99696 20.8717 1.99696 16.3785V12.2181H18.3056V16.3785C18.3056 20.8717 14.6445 24.5328 10.1513 24.5328ZM20.8019 19.374H19.1377C19.4706 18.3755 19.6369 17.377 19.6369 16.3785V13.8823H20.8019C22.2996 13.8823 23.631 15.0471 23.631 16.7113C23.631 18.3754 22.2996 19.374 20.8019 19.374ZM20.6355 27.8555H0.665651C0.332821 27.8555 0 28.1883 0 28.5212C0 28.854 0.332821 29.1868 0.665651 29.1868H20.6355C20.9683 29.1868 21.3011 28.854 21.3011 28.5212C21.3011 28.1883 20.9683 27.8555 20.6355 27.8555ZM12.8145 8.3864C12.8145 8.71924 13.1473 9.05206 13.4801 9.05206C13.8129 9.05206 14.1458 8.71924 14.1458 8.3864C14.1458 8.21999 14.1458 8.05354 14.4786 7.88713L14.4786 7.88711C14.8114 7.55429 15.1443 7.22148 15.1443 6.55583C15.1443 5.89016 14.8114 5.39094 14.4786 5.22452C14.3122 5.05811 14.1458 4.89166 14.1458 4.72525C14.1458 4.55883 14.1458 4.39244 14.4786 4.22602C14.8114 3.89319 15.1443 3.56033 15.1443 2.89467C15.1443 2.22901 14.8114 1.72978 14.4786 1.56337L14.4785 1.56325C14.3121 1.39687 14.1458 1.23052 14.1458 1.06414C14.1458 0.731309 13.8129 0.398438 13.4801 0.398438C13.1473 0.398438 12.8145 0.731309 12.8145 1.06414C12.8145 1.7298 13.1473 2.22903 13.4801 2.39544C13.6465 2.56186 13.8129 2.72825 13.8129 2.89467V2.89471C13.8129 3.06111 13.8129 3.22754 13.4801 3.39394L13.4801 3.39396C13.1473 3.72679 12.8145 4.0596 12.8145 4.72525C12.8145 5.39091 13.1473 5.89018 13.4801 6.0566C13.6465 6.22302 13.8129 6.38941 13.8129 6.55583V6.55587C13.8129 6.72227 13.8129 6.88865 13.4801 7.05505C13.3137 7.22147 12.8145 7.72074 12.8145 8.3864ZM10.485 9.05269C10.1522 9.05269 9.81934 8.71987 9.81934 8.38704C9.81934 7.82938 10.1697 7.5053 10.4791 7.21912C10.539 7.16369 10.5974 7.10969 10.6514 7.05568L10.7491 6.95804C10.7033 6.94116 10.6514 6.88931 10.6514 6.88931C10.3186 6.72289 9.81934 6.39004 9.81934 5.72438C9.81934 5.05872 10.3186 4.72587 10.6514 4.55945L10.7491 4.46181C10.7033 4.44493 10.6514 4.39308 10.6514 4.39308C10.3186 4.22666 9.81934 3.89381 9.81934 3.22815C9.81934 2.89532 10.1522 2.5625 10.485 2.5625C10.8178 2.5625 11.1507 2.89532 11.1507 3.22815L11.3171 3.39458C11.6499 3.56099 12.1491 3.89379 12.1491 4.55945C12.1491 5.22512 11.6499 5.55797 11.3171 5.72438L11.2194 5.82207C11.2652 5.83894 11.3171 5.89081 11.3171 5.89081C11.6499 6.05722 12.1491 6.39002 12.1491 7.05568C12.1491 7.72135 11.6499 8.0542 11.3171 8.22061L11.1507 8.38704C11.1507 8.71987 10.8178 9.05269 10.485 9.05269Z" fill="url(#paint0_linear_5_956)"/>
<defs>
<linearGradient id="paint0_linear_5_956" x1="0" y1="14.7086" x2="24.6294" y2="14.7086" gradientUnits="userSpaceOnUse">
<stop stop-color="#F7941D"/>
<stop offset="1" stop-color="#27AAE1"/>
</linearGradient>
</defs>
</svg>
